<?xml version="1.0" encoding="utf-8" ?>
<svg baseProfile="tiny" height="575" version="1.2" width="575" xmlns="http://www.w3.org/2000/svg" xmlns:ev="http://www.w3.org/2001/xml-events" xmlns:xlink="http://www.w3.org/1999/xlink"><defs /><rect fill="#000000" height="35" width="35" x="0" y="0" /><rect fill="#000000" height="35" width="35" x="36" y="0" /><rect fill="#000000" height="35" width="35" x="72" y="0" /><rect fill="#000000" height="35" width="35" x="108" y="0" /><rect fill="#000000" height="35" width="35" x="144" y="0" /><rect fill="#000000" height="35" width="35" x="180" y="0" /><rect fill="#000000" height="35" width="35" x="216" y="0" /><rect fill="#000000" height="35" width="35" x="252" y="0" /><rect fill="#000000" height="35" width="35" x="288" y="0" /><rect fill="#000000" height="35" width="35" x="324" y="0" /><rect fill="#000000" height="35" width="35" x="360" y="0" /><rect fill="#000000" height="35" width="35" x="396" y="0" /><rect fill="#000000" height="35" width="35" x="432" y="0" /><rect fill="#000000" height="35" width="35" x="468" y="0" /><rect fill="#000000" height="35" width="35" x="504" y="0" /><rect fill="#000000" height="35" width="35" x="540" y="0" /><rect fill="#000000" height="35" width="35" x="0" y="36" /><rect fill="#000000" height="35" width="35" x="36" y="36" /><rect fill="#000000" height="35" width="35" x="72" y="36" /><rect fill="#000000" height="35" width="35" x="108" y="36" /><rect fill="#000000" height="35" width="35" x="144" y="36" /><rect fill="#000000" height="35" width="35" x="180" y="36" /><rect fill="#000000" height="35" width="35" x="216" y="36" /><rect fill="#000000" height="35" width="35" x="252" y="36" /><rect fill="#000000" height="35" width="35" x="288" y="36" /><rect fill="#000000" height="35" width="35" x="324" y="36" /><rect fill="#000000" height="35" width="35" x="360" y="36" /><rect fill="#000000" height="35" width="35" x="396" y="36" /><rect fill="#000000" height="35" width="35" x="432" y="36" /><rect fill="#000000" height="35" width="35" x="468" y="36" /><rect fill="#000000" height="35" width="35" x="504" y="36" /><rect fill="#000000" height="35" width="35" x="540" y="36" /><rect fill="#000000" height="35" width="35" x="0" y="72" /><rect fill="#000000" height="35" width="35" x="36" y="72" /><rect fill="#000000" height="35" width="35" x="72" y="72" /><rect fill="#000000" height="35" width="35" x="108" y="72" /><rect fill="#000000" height="35" width="35" x="144" y="72" /><rect fill="#000000" height="35" width="35" x="180" y="72" /><rect fill="#000000" height="35" width="35" x="216" y="72" /><rect fill="#000000" height="35" width="35" x="252" y="72" /><rect fill="#000000" height="35" width="35" x="288" y="72" /><rect fill="#000000" height="35" width="35" x="324" y="72" /><rect fill="#000000" height="35" width="35" x="360" y="72" /><rect fill="#000000" height="35" width="35" x="396" y="72" /><rect fill="#000000" height="35" width="35" x="432" y="72" /><rect fill="#000000" height="35" width="35" x="468" y="72" /><rect fill="#000000" height="35" width="35" x="504" y="72" /><rect fill="#000000" height="35" width="35" x="540" y="72" /><rect fill="#000000" height="35" width="35" x="0" y="108" /><rect fill="#000000" height="35" width="35" x="36" y="108" /><rect fill="#000000" height="35" width="35" x="72" y="108" /><rect fill="#000000" height="35" width="35" x="108" y="108" /><rect fill="#000000" height="35" width="35" x="144" y="108" /><rect fill="#000000" height="35" width="35" x="180" y="108" /><rect fill="#000000" height="35" width="35" x="216" y="108" /><rect fill="#000000" height="35" width="35" x="252" y="108" /><rect fill="#b44104" height="35" width="35" x="288" y="108" /><rect fill="#000000" height="35" width="35" x="324" y="108" /><rect fill="#000000" height="35" width="35" x="360" y="108" /><rect fill="#000000" height="35" width="35" x="396" y="108" /><rect fill="#000000" height="35" width="35" x="432" y="108" /><rect fill="#000000" height="35" width="35" x="468" y="108" /><rect fill="#000000" height="35" width="35" x="504" y="108" /><rect fill="#000000" height="35" width="35" x="540" y="108" /><rect fill="#000000" height="35" width="35" x="0" y="144" /><rect fill="#000000" height="35" width="35" x="36" y="144" /><rect fill="#000000" height="35" width="35" x="72" y="144" /><rect fill="#000000" height="35" width="35" x="108" y="144" /><rect fill="#000000" height="35" width="35" x="144" y="144" /><rect fill="#000000" height="35" width="35" x="180" y="144" /><rect fill="#000000" height="35" width="35" x="216" y="144" /><rect fill="#b43f04" height="35" width="35" x="252" y="144" /><rect fill="#b44104" height="35" width="35" x="288" y="144" /><rect fill="#000000" height="35" width="35" x="324" y="144" /><rect fill="#000000" height="35" width="35" x="360" y="144" /><rect fill="#000000" height="35" width="35" x="396" y="144" /><rect fill="#b44204" height="35" width="35" x="432" y="144" /><rect fill="#b44204" height="35" width="35" x="468" y="144" /><rect fill="#000000" height="35" width="35" x="504" y="144" /><rect fill="#000000" height="35" width="35" x="540" y="144" /><rect fill="#000000" height="35" width="35" x="0" y="180" /><rect fill="#000000" height="35" width="35" x="36" y="180" /><rect fill="#000000" height="35" width="35" x="72" y="180" /><rect fill="#000000" height="35" width="35" x="108" y="180" /><rect fill="#000000" height="35" width="35" x="144" y="180" /><rect fill="#000000" height="35" width="35" x="180" y="180" /><rect fill="#000000" height="35" width="35" x="216" y="180" /><rect fill="#b44404" height="35" width="35" x="252" y="180" /><rect fill="#b44a04" height="35" width="35" x="288" y="180" /><rect fill="#bc4f04" height="35" width="35" x="324" y="180" /><rect fill="#bc5204" height="35" width="35" x="360" y="180" /><rect fill="#be5804" height="35" width="35" x="396" y="180" /><rect fill="#ba4d04" height="35" width="35" x="432" y="180" /><rect fill="#b44004" height="35" width="35" x="468" y="180" /><rect fill="#000000" height="35" width="35" x="504" y="180" /><rect fill="#000000" height="35" width="35" x="540" y="180" /><rect fill="#000000" height="35" width="35" x="0" y="216" /><rect fill="#b84c04" height="35" width="35" x="36" y="216" /><rect fill="#b84a04" height="35" width="35" x="72" y="216" /><rect fill="#000000" height="35" width="35" x="108" y="216" /><rect fill="#000000" height="35" width="35" x="144" y="216" /><rect fill="#bc5204" height="35" width="35" x="180" y="216" /><rect fill="#d4820c" height="35" width="35" x="216" y="216" /><rect fill="#d07e08" height="35" width="35" x="252" y="216" /><rect fill="#cc7704" height="35" width="35" x="288" y="216" /><rect fill="#c46504" height="35" width="35" x="324" y="216" /><rect fill="#c46504" height="35" width="35" x="360" y="216" /><rect fill="#c66a04" height="35" width="35" x="396" y="216" /><rect fill="#c66704" height="35" width="35" x="432" y="216" /><rect fill="#b64a04" height="35" width="35" x="468" y="216" /><rect fill="#000000" height="35" width="35" x="504" y="216" /><rect fill="#000000" height="35" width="35" x="540" y="216" /><rect fill="#000000" height="35" width="35" x="0" y="252" /><rect fill="#b84c04" height="35" width="35" x="36" y="252" /><rect fill="#be5804" height="35" width="35" x="72" y="252" /><rect fill="#be5804" height="35" width="35" x="108" y="252" /><rect fill="#c46204" height="35" width="35" x="144" y="252" /><rect fill="#d48a0c" height="35" width="35" x="180" y="252" /><rect fill="#e2a61e" height="35" width="35" x="216" y="252" /><rect fill="#eabe3c" height="35" width="35" x="252" y="252" /><rect fill="#e0a31c" height="35" width="35" x="288" y="252" /><rect fill="#d48a0c" height="35" width="35" x="324" y="252" /><rect fill="#cc7804" height="35" width="35" x="360" y="252" /><rect fill="#cc7404" height="35" width="35" x="396" y="252" /><rect fill="#c46404" height="35" width="35" x="432" y="252" /><rect fill="#ba4d04" height="35" width="35" x="468" y="252" /><rect fill="#000000" height="35" width="35" x="504" y="252" /><rect fill="#000000" height="35" width="35" x="540" y="252" /><rect fill="#000000" height="35" width="35" x="0" y="288" /><rect fill="#d07e08" height="35" width="35" x="36" y="288" /><rect fill="#d48a0c" height="35" width="35" x="72" y="288" /><rect fill="#cc7004" height="35" width="35" x="108" y="288" /><rect fill="#c66804" height="35" width="35" x="144" y="288" /><rect fill="#cc7404" height="35" width="35" x="180" y="288" /><rect fill="#dc9814" height="35" width="35" x="216" y="288" /><rect fill="#e8ba36" height="35" width="35" x="252" y="288" /><rect fill="#e6b52e" height="35" width="35" x="288" y="288" /><rect fill="#dc9914" height="35" width="35" x="324" y="288" /><rect fill="#d4880c" height="35" width="35" x="360" y="288" /><rect fill="#d89210" height="35" width="35" x="396" y="288" /><rect fill="#e4b22c" height="35" width="35" x="432" y="288" /><rect fill="#ca6a04" height="35" width="35" x="468" y="288" /><rect fill="#000000" height="35" width="35" x="504" y="288" /><rect fill="#000000" height="35" width="35" x="540" y="288" /><rect fill="#b43f04" height="35" width="35" x="0" y="324" /><rect fill="#eabd3a" height="35" width="35" x="36" y="324" /><rect fill="#e2a61e" height="35" width="35" x="72" y="324" /><rect fill="#d07d06" height="35" width="35" x="108" y="324" /><rect fill="#c86a04" height="35" width="35" x="144" y="324" /><rect fill="#c25f04" height="35" width="35" x="180" y="324" /><rect fill="#d4820c" height="35" width="35" x="216" y="324" /><rect fill="#e0a51e" height="35" width="35" x="252" y="324" /><rect fill="#eecf58" height="35" width="35" x="288" y="324" /><rect fill="#f6e7a0" height="35" width="35" x="324" y="324" /><rect fill="#de9d18" height="35" width="35" x="360" y="324" /><rect fill="#dc9b16" height="35" width="35" x="396" y="324" /><rect fill="#d68d0c" height="35" width="35" x="432" y="324" /><rect fill="#d07c04" height="35" width="35" x="468" y="324" /><rect fill="#c45f04" height="35" width="35" x="504" y="324" /><rect fill="#000000" height="35" width="35" x="540" y="324" /><rect fill="#d07b04" height="35" width="35" x="0" y="360" /><rect fill="#f0d260" height="35" width="35" x="36" y="360" /><rect fill="#fcfefc" height="35" width="35" x="72" y="360" /><rect fill="#e0a41c" height="35" width="35" x="108" y="360" /><rect fill="#d4820c" height="35" width="35" x="144" y="360" /><rect fill="#d48a0c" height="35" width="35" x="180" y="360" /><rect fill="#e4b22c" height="35" width="35" x="216" y="360" /><rect fill="#e4b62e" height="35" width="35" x="252" y="360" /><rect fill="#fcfefc" height="35" width="35" x="288" y="360" /><rect fill="#fcfefc" height="35" width="35" x="324" y="360" /><rect fill="#fcf5d2" height="35" width="35" x="360" y="360" /><rect fill="#e0a620" height="35" width="35" x="396" y="360" /><rect fill="#dc9814" height="35" width="35" x="432" y="360" /><rect fill="#da9412" height="35" width="35" x="468" y="360" /><rect fill="#c46504" height="35" width="35" x="504" y="360" /><rect fill="#000000" height="35" width="35" x="540" y="360" /><rect fill="#d07a04" height="35" width="35" x="0" y="396" /><rect fill="#f4da74" height="35" width="35" x="36" y="396" /><rect fill="#f4d76c" height="35" width="35" x="72" y="396" /><rect fill="#e8b730" height="35" width="35" x="108" y="396" /><rect fill="#da9310" height="35" width="35" x="144" y="396" /><rect fill="#d4880c" height="35" width="35" x="180" y="396" /><rect fill="#dc9612" height="35" width="35" x="216" y="396" /><rect fill="#f4db76" height="35" width="35" x="252" y="396" /><rect fill="#ecc648" height="35" width="35" x="288" y="396" /><rect fill="#f4dc78" height="35" width="35" x="324" y="396" /><rect fill="#e4a922" height="35" width="35" x="360" y="396" /><rect fill="#d48a0c" height="35" width="35" x="396" y="396" /><rect fill="#cc7304" height="35" width="35" x="432" y="396" /><rect fill="#ca6f04" height="35" width="35" x="468" y="396" /><rect fill="#cc7404" height="35" width="35" x="504" y="396" /><rect fill="#b84d04" height="35" width="35" x="540" y="396" /><rect fill="#bc5504" height="35" width="35" x="0" y="432" /><rect fill="#ecc140" height="35" width="35" x="36" y="432" /><rect fill="#dca01c" height="35" width="35" x="72" y="432" /><rect fill="#da9412" height="35" width="35" x="108" y="432" /><rect fill="#ca6d04" height="35" width="35" x="144" y="432" /><rect fill="#d07d06" height="35" width="35" x="180" y="432" /><rect fill="#f8eaac" height="35" width="35" x="216" y="432" /><rect fill="#f4d86e" height="35" width="35" x="252" y="432" /><rect fill="#f4dd7a" height="35" width="35" x="288" y="432" /><rect fill="#dc9512" height="35" width="35" x="324" y="432" /><rect fill="#ca7004" height="35" width="35" x="360" y="432" /><rect fill="#ce7a04" height="35" width="35" x="396" y="432" /><rect fill="#d27f08" height="35" width="35" x="432" y="432" /><rect fill="#c86a04" height="35" width="35" x="468" y="432" /><rect fill="#c66504" height="35" width="35" x="504" y="432" /><rect fill="#000000" height="35" width="35" x="540" y="432" /><rect fill="#c66804" height="35" width="35" x="0" y="468" /><rect fill="#eabc3a" height="35" width="35" x="36" y="468" /><rect fill="#fcfefc" height="35" width="35" x="72" y="468" /><rect fill="#ecc03c" height="35" width="35" x="108" y="468" /><rect fill="#d2800a" height="35" width="35" x="144" y="468" /><rect fill="#fcfefc" height="35" width="35" x="180" y="468" /><rect fill="#fcfefc" height="35" width="35" x="216" y="468" /><rect fill="#eccc52" height="35" width="35" x="252" y="468" /><rect fill="#d48d0c" height="35" width="35" x="288" y="468" /><rect fill="#fae9a8" height="35" width="35" x="324" y="468" /><rect fill="#fcfefc" height="35" width="35" x="360" y="468" /><rect fill="#fcfefc" height="35" width="35" x="396" y="468" /><rect fill="#fcfefc" height="35" width="35" x="432" y="468" /><rect fill="#fcfefc" height="35" width="35" x="468" y="468" /><rect fill="#dc9614" height="35" width="35" x="504" y="468" /><rect fill="#000000" height="35" width="35" x="540" y="468" /><rect fill="#ecc13c" height="35" width="35" x="0" y="504" /><rect fill="#fcfefc" height="35" width="35" x="36" y="504" /><rect fill="#e6b730" height="35" width="35" x="72" y="504" /><rect fill="#d2800a" height="35" width="35" x="108" y="504" /><rect fill="#ce7c06" height="35" width="35" x="144" y="504" /><rect fill="#e0a41c" height="35" width="35" x="180" y="504" /><rect fill="#fcfefc" height="35" width="35" x="216" y="504" /><rect fill="#fcfefc" height="35" width="35" x="252" y="504" /><rect fill="#f4e694" height="35" width="35" x="288" y="504" /><rect fill="#ecc546" height="35" width="35" x="324" y="504" /><rect fill="#fcf2cc" height="35" width="35" x="360" y="504" /><rect fill="#f4d86e" height="35" width="35" x="396" y="504" /><rect fill="#f0d264" height="35" width="35" x="432" y="504" /><rect fill="#f2d466" height="35" width="35" x="468" y="504" /><rect fill="#fcfefc" height="35" width="35" x="504" y="504" /><rect fill="#fcfefc" height="35" width="35" x="540" y="504" /><rect fill="#c05e04" height="35" width="35" x="0" y="540" /><rect fill="#d07d06" height="35" width="35" x="36" y="540" /><rect fill="#d07e08" height="35" width="35" x="72" y="540" /><rect fill="#c25f04" height="35" width="35" x="108" y="540" /><rect fill="#dc9512" height="35" width="35" x="144" y="540" /><rect fill="#fcfefc" height="35" width="35" x="180" y="540" /><rect fill="#fcfefc" height="35" width="35" x="216" y="540" /><rect fill="#e4aa24" height="35" width="35" x="252" y="540" /><rect fill="#e4b22c" height="35" width="35" x="288" y="540" /><rect fill="#bc5404" height="35" width="35" x="324" y="540" /><rect fill="#bc5304" height="35" width="35" x="360" y="540" /><rect fill="#d89210" height="35" width="35" x="396" y="540" /><rect fill="#c46204" height="35" width="35" x="432" y="540" /><rect fill="#d48b0c" height="35" width="35" x="468" y="540" /><rect fill="#eccb50" height="35" width="35" x="504" y="540" /><rect fill="#bc5104" height="35" width="35" x="540" y="540" /></svg>