<?xml version="1.0" encoding="utf-8" ?>
<svg baseProfile="tiny" height="575" version="1.2" width="575" xmlns="http://www.w3.org/2000/svg" xmlns:ev="http://www.w3.org/2001/xml-events" xmlns:xlink="http://www.w3.org/1999/xlink"><defs /><rect fill="#000000" height="35" width="35" x="0" y="0" /><rect fill="#000000" height="35" width="35" x="36" y="0" /><rect fill="#000000" height="35" width="35" x="72" y="0" /><rect fill="#000000" height="35" width="35" x="108" y="0" /><rect fill="#000000" height="35" width="35" x="144" y="0" /><rect fill="#000000" height="35" width="35" x="180" y="0" /><rect fill="#000000" height="35" width="35" x="216" y="0" /><rect fill="#000000" height="35" width="35" x="252" y="0" /><rect fill="#000000" height="35" width="35" x="288" y="0" /><rect fill="#000000" height="35" width="35" x="324" y="0" /><rect fill="#000000" height="35" width="35" x="360" y="0" /><rect fill="#000000" height="35" width="35" x="396" y="0" /><rect fill="#000000" height="35" width="35" x="432" y="0" /><rect fill="#000000" height="35" width="35" x="468" y="0" /><rect fill="#000000" height="35" width="35" x="504" y="0" /><rect fill="#000000" height="35" width="35" x="540" y="0" /><rect fill="#000000" height="35" width="35" x="0" y="36" /><rect fill="#000000" height="35" width="35" x="36" y="36" /><rect fill="#000000" height="35" width="35" x="72" y="36" /><rect fill="#000000" height="35" width="35" x="108" y="36" /><rect fill="#000000" height="35" width="35" x="144" y="36" /><rect fill="#000000" height="35" width="35" x="180" y="36" /><rect fill="#000000" height="35" width="35" x="216" y="36" /><rect fill="#000000" height="35" width="35" x="252" y="36" /><rect fill="#000000" height="35" width="35" x="288" y="36" /><rect fill="#000000" height="35" width="35" x="324" y="36" /><rect fill="#000000" height="35" width="35" x="360" y="36" /><rect fill="#000000" height="35" width="35" x="396" y="36" /><rect fill="#000000" height="35" width="35" x="432" y="36" /><rect fill="#000000" height="35" width="35" x="468" y="36" /><rect fill="#000000" height="35" width="35" x="504" y="36" /><rect fill="#000000" height="35" width="35" x="540" y="36" /><rect fill="#000000" height="35" width="35" x="0" y="72" /><rect fill="#000000" height="35" width="35" x="36" y="72" /><rect fill="#000000" height="35" width="35" x="72" y="72" /><rect fill="#000000" height="35" width="35" x="108" y="72" /><rect fill="#000000" height="35" width="35" x="144" y="72" /><rect fill="#000000" height="35" width="35" x="180" y="72" /><rect fill="#000000" height="35" width="35" x="216" y="72" /><rect fill="#000000" height="35" width="35" x="252" y="72" /><rect fill="#000000" height="35" width="35" x="288" y="72" /><rect fill="#000000" height="35" width="35" x="324" y="72" /><rect fill="#000000" height="35" width="35" x="360" y="72" /><rect fill="#000000" height="35" width="35" x="396" y="72" /><rect fill="#000000" height="35" width="35" x="432" y="72" /><rect fill="#000000" height="35" width="35" x="468" y="72" /><rect fill="#000000" height="35" width="35" x="504" y="72" /><rect fill="#000000" height="35" width="35" x="540" y="72" /><rect fill="#000000" height="35" width="35" x="0" y="108" /><rect fill="#000000" height="35" width="35" x="36" y="108" /><rect fill="#000000" height="35" width="35" x="72" y="108" /><rect fill="#000000" height="35" width="35" x="108" y="108" /><rect fill="#000000" height="35" width="35" x="144" y="108" /><rect fill="#000000" height="35" width="35" x="180" y="108" /><rect fill="#000000" height="35" width="35" x="216" y="108" /><rect fill="#000000" height="35" width="35" x="252" y="108" /><rect fill="#000000" height="35" width="35" x="288" y="108" /><rect fill="#000000" height="35" width="35" x="324" y="108" /><rect fill="#000000" height="35" width="35" x="360" y="108" /><rect fill="#000000" height="35" width="35" x="396" y="108" /><rect fill="#000000" height="35" width="35" x="432" y="108" /><rect fill="#000000" height="35" width="35" x="468" y="108" /><rect fill="#000000" height="35" width="35" x="504" y="108" /><rect fill="#000000" height="35" width="35" x="540" y="108" /><rect fill="#000000" height="35" width="35" x="0" y="144" /><rect fill="#000000" height="35" width="35" x="36" y="144" /><rect fill="#000000" height="35" width="35" x="72" y="144" /><rect fill="#000000" height="35" width="35" x="108" y="144" /><rect fill="#000000" height="35" width="35" x="144" y="144" /><rect fill="#000000" height="35" width="35" x="180" y="144" /><rect fill="#000000" height="35" width="35" x="216" y="144" /><rect fill="#000000" height="35" width="35" x="252" y="144" /><rect fill="#000000" height="35" width="35" x="288" y="144" /><rect fill="#000000" height="35" width="35" x="324" y="144" /><rect fill="#000000" height="35" width="35" x="360" y="144" /><rect fill="#000000" height="35" width="35" x="396" y="144" /><rect fill="#000000" height="35" width="35" x="432" y="144" /><rect fill="#000000" height="35" width="35" x="468" y="144" /><rect fill="#000000" height="35" width="35" x="504" y="144" /><rect fill="#000000" height="35" width="35" x="540" y="144" /><rect fill="#000000" height="35" width="35" x="0" y="180" /><rect fill="#000000" height="35" width="35" x="36" y="180" /><rect fill="#000000" height="35" width="35" x="72" y="180" /><rect fill="#000000" height="35" width="35" x="108" y="180" /><rect fill="#000000" height="35" width="35" x="144" y="180" /><rect fill="#000000" height="35" width="35" x="180" y="180" /><rect fill="#000000" height="35" width="35" x="216" y="180" /><rect fill="#b44604" height="35" width="35" x="252" y="180" /><rect fill="#b44604" height="35" width="35" x="288" y="180" /><rect fill="#b44204" height="35" width="35" x="324" y="180" /><rect fill="#000000" height="35" width="35" x="360" y="180" /><rect fill="#000000" height="35" width="35" x="396" y="180" /><rect fill="#000000" height="35" width="35" x="432" y="180" /><rect fill="#000000" height="35" width="35" x="468" y="180" /><rect fill="#000000" height="35" width="35" x="504" y="180" /><rect fill="#000000" height="35" width="35" x="540" y="180" /><rect fill="#000000" height="35" width="35" x="0" y="216" /><rect fill="#000000" height="35" width="35" x="36" y="216" /><rect fill="#000000" height="35" width="35" x="72" y="216" /><rect fill="#000000" height="35" width="35" x="108" y="216" /><rect fill="#000000" height="35" width="35" x="144" y="216" /><rect fill="#000000" height="35" width="35" x="180" y="216" /><rect fill="#c45f04" height="35" width="35" x="216" y="216" /><rect fill="#cc7604" height="35" width="35" x="252" y="216" /><rect fill="#d4820c" height="35" width="35" x="288" y="216" /><rect fill="#c46604" height="35" width="35" x="324" y="216" /><rect fill="#bc5104" height="35" width="35" x="360" y="216" /><rect fill="#b44204" height="35" width="35" x="396" y="216" /><rect fill="#000000" height="35" width="35" x="432" y="216" /><rect fill="#000000" height="35" width="35" x="468" y="216" /><rect fill="#000000" height="35" width="35" x="504" y="216" /><rect fill="#000000" height="35" width="35" x="540" y="216" /><rect fill="#000000" height="35" width="35" x="0" y="252" /><rect fill="#000000" height="35" width="35" x="36" y="252" /><rect fill="#b44504" height="35" width="35" x="72" y="252" /><rect fill="#000000" height="35" width="35" x="108" y="252" /><rect fill="#000000" height="35" width="35" x="144" y="252" /><rect fill="#b44204" height="35" width="35" x="180" y="252" /><rect fill="#c46404" height="35" width="35" x="216" y="252" /><rect fill="#da9310" height="35" width="35" x="252" y="252" /><rect fill="#e0a41c" height="35" width="35" x="288" y="252" /><rect fill="#dc9612" height="35" width="35" x="324" y="252" /><rect fill="#ce7904" height="35" width="35" x="360" y="252" /><rect fill="#c05c04" height="35" width="35" x="396" y="252" /><rect fill="#b84a04" height="35" width="35" x="432" y="252" /><rect fill="#000000" height="35" width="35" x="468" y="252" /><rect fill="#000000" height="35" width="35" x="504" y="252" /><rect fill="#000000" height="35" width="35" x="540" y="252" /><rect fill="#000000" height="35" width="35" x="0" y="288" /><rect fill="#000000" height="35" width="35" x="36" y="288" /><rect fill="#c46304" height="35" width="35" x="72" y="288" /><rect fill="#c46004" height="35" width="35" x="108" y="288" /><rect fill="#000000" height="35" width="35" x="144" y="288" /><rect fill="#000000" height="35" width="35" x="180" y="288" /><rect fill="#bc4f04" height="35" width="35" x="216" y="288" /><rect fill="#cc7204" height="35" width="35" x="252" y="288" /><rect fill="#d4820c" height="35" width="35" x="288" y="288" /><rect fill="#d07e08" height="35" width="35" x="324" y="288" /><rect fill="#c86c04" height="35" width="35" x="360" y="288" /><rect fill="#bc5504" height="35" width="35" x="396" y="288" /><rect fill="#b44404" height="35" width="35" x="432" y="288" /><rect fill="#000000" height="35" width="35" x="468" y="288" /><rect fill="#000000" height="35" width="35" x="504" y="288" /><rect fill="#000000" height="35" width="35" x="540" y="288" /><rect fill="#000000" height="35" width="35" x="0" y="324" /><rect fill="#ba4c04" height="35" width="35" x="36" y="324" /><rect fill="#d4830c" height="35" width="35" x="72" y="324" /><rect fill="#cc7204" height="35" width="35" x="108" y="324" /><rect fill="#bc5204" height="35" width="35" x="144" y="324" /><rect fill="#bc5604" height="35" width="35" x="180" y="324" /><rect fill="#c66904" height="35" width="35" x="216" y="324" /><rect fill="#c46204" height="35" width="35" x="252" y="324" /><rect fill="#cc7204" height="35" width="35" x="288" y="324" /><rect fill="#c46504" height="35" width="35" x="324" y="324" /><rect fill="#c46404" height="35" width="35" x="360" y="324" /><rect fill="#c46604" height="35" width="35" x="396" y="324" /><rect fill="#d48a0c" height="35" width="35" x="432" y="324" /><rect fill="#cc7504" height="35" width="35" x="468" y="324" /><rect fill="#000000" height="35" width="35" x="504" y="324" /><rect fill="#000000" height="35" width="35" x="540" y="324" /><rect fill="#000000" height="35" width="35" x="0" y="360" /><rect fill="#c46804" height="35" width="35" x="36" y="360" /><rect fill="#d2800a" height="35" width="35" x="72" y="360" /><rect fill="#d8910e" height="35" width="35" x="108" y="360" /><rect fill="#de9e16" height="35" width="35" x="144" y="360" /><rect fill="#e4ae24" height="35" width="35" x="180" y="360" /><rect fill="#cc7604" height="35" width="35" x="216" y="360" /><rect fill="#ca7004" height="35" width="35" x="252" y="360" /><rect fill="#d07c04" height="35" width="35" x="288" y="360" /><rect fill="#cc6e04" height="35" width="35" x="324" y="360" /><rect fill="#cc7004" height="35" width="35" x="360" y="360" /><rect fill="#d27e06" height="35" width="35" x="396" y="360" /><rect fill="#e4b42a" height="35" width="35" x="432" y="360" /><rect fill="#f4df86" height="35" width="35" x="468" y="360" /><rect fill="#e4aa24" height="35" width="35" x="504" y="360" /><rect fill="#b44504" height="35" width="35" x="540" y="360" /><rect fill="#b44204" height="35" width="35" x="0" y="396" /><rect fill="#cc7304" height="35" width="35" x="36" y="396" /><rect fill="#dc9a14" height="35" width="35" x="72" y="396" /><rect fill="#e4ac24" height="35" width="35" x="108" y="396" /><rect fill="#dc9814" height="35" width="35" x="144" y="396" /><rect fill="#ce7a04" height="35" width="35" x="180" y="396" /><rect fill="#c46004" height="35" width="35" x="216" y="396" /><rect fill="#c25e04" height="35" width="35" x="252" y="396" /><rect fill="#da9412" height="35" width="35" x="288" y="396" /><rect fill="#f4e188" height="35" width="35" x="324" y="396" /><rect fill="#fcfefc" height="35" width="35" x="360" y="396" /><rect fill="#fcfefc" height="35" width="35" x="396" y="396" /><rect fill="#fceaa4" height="35" width="35" x="432" y="396" /><rect fill="#e4ae24" height="35" width="35" x="468" y="396" /><rect fill="#dea21c" height="35" width="35" x="504" y="396" /><rect fill="#b84b04" height="35" width="35" x="540" y="396" /><rect fill="#000000" height="35" width="35" x="0" y="432" /><rect fill="#cc7604" height="35" width="35" x="36" y="432" /><rect fill="#dc9914" height="35" width="35" x="72" y="432" /><rect fill="#fcfef4" height="35" width="35" x="108" y="432" /><rect fill="#fcfefc" height="35" width="35" x="144" y="432" /><rect fill="#e2a720" height="35" width="35" x="180" y="432" /><rect fill="#be5804" height="35" width="35" x="216" y="432" /><rect fill="#da9412" height="35" width="35" x="252" y="432" /><rect fill="#fcfefc" height="35" width="35" x="288" y="432" /><rect fill="#fcfefc" height="35" width="35" x="324" y="432" /><rect fill="#fcfefc" height="35" width="35" x="360" y="432" /><rect fill="#fcfefc" height="35" width="35" x="396" y="432" /><rect fill="#fcf2cc" height="35" width="35" x="432" y="432" /><rect fill="#e0a51e" height="35" width="35" x="468" y="432" /><rect fill="#f0d05c" height="35" width="35" x="504" y="432" /><rect fill="#c66b04" height="35" width="35" x="540" y="432" /><rect fill="#cc7504" height="35" width="35" x="0" y="468" /><rect fill="#d88e0c" height="35" width="35" x="36" y="468" /><rect fill="#f2d462" height="35" width="35" x="72" y="468" /><rect fill="#f0d05c" height="35" width="35" x="108" y="468" /><rect fill="#f4df86" height="35" width="35" x="144" y="468" /><rect fill="#e0a41c" height="35" width="35" x="180" y="468" /><rect fill="#dc9914" height="35" width="35" x="216" y="468" /><rect fill="#fcfefc" height="35" width="35" x="252" y="468" /><rect fill="#fcfefc" height="35" width="35" x="288" y="468" /><rect fill="#fcfefc" height="35" width="35" x="324" y="468" /><rect fill="#fcfefc" height="35" width="35" x="360" y="468" /><rect fill="#f4de84" height="35" width="35" x="396" y="468" /><rect fill="#dc9814" height="35" width="35" x="432" y="468" /><rect fill="#da9312" height="35" width="35" x="468" y="468" /><rect fill="#dc9614" height="35" width="35" x="504" y="468" /><rect fill="#ba4c04" height="35" width="35" x="540" y="468" /><rect fill="#000000" height="35" width="35" x="0" y="504" /><rect fill="#d4840c" height="35" width="35" x="36" y="504" /><rect fill="#f0d05c" height="35" width="35" x="72" y="504" /><rect fill="#d07904" height="35" width="35" x="108" y="504" /><rect fill="#c66804" height="35" width="35" x="144" y="504" /><rect fill="#cc7304" height="35" width="35" x="180" y="504" /><rect fill="#fcfefc" height="35" width="35" x="216" y="504" /><rect fill="#fcfefc" height="35" width="35" x="252" y="504" /><rect fill="#fcfefc" height="35" width="35" x="288" y="504" /><rect fill="#fcf2c8" height="35" width="35" x="324" y="504" /><rect fill="#eecf5c" height="35" width="35" x="360" y="504" /><rect fill="#f4d464" height="35" width="35" x="396" y="504" /><rect fill="#da9412" height="35" width="35" x="432" y="504" /><rect fill="#fcfefc" height="35" width="35" x="468" y="504" /><rect fill="#fcfefc" height="35" width="35" x="504" y="504" /><rect fill="#e4b026" height="35" width="35" x="540" y="504" /><rect fill="#ba4c04" height="35" width="35" x="0" y="540" /><rect fill="#fcfefc" height="35" width="35" x="36" y="540" /><rect fill="#fcfefc" height="35" width="35" x="72" y="540" /><rect fill="#fcfefc" height="35" width="35" x="108" y="540" /><rect fill="#c25d04" height="35" width="35" x="144" y="540" /><rect fill="#be5804" height="35" width="35" x="180" y="540" /><rect fill="#c46304" height="35" width="35" x="216" y="540" /><rect fill="#d07b04" height="35" width="35" x="252" y="540" /><rect fill="#dc9a14" height="35" width="35" x="288" y="540" /><rect fill="#f4dc76" height="35" width="35" x="324" y="540" /><rect fill="#eac23e" height="35" width="35" x="360" y="540" /><rect fill="#eecc56" height="35" width="35" x="396" y="540" /><rect fill="#fcfefc" height="35" width="35" x="432" y="540" /><rect fill="#fcfefc" height="35" width="35" x="468" y="540" /><rect fill="#fcfefc" height="35" width="35" x="504" y="540" /><rect fill="#c46204" height="35" width="35" x="540" y="540" /></svg>