<?xml version="1.0" encoding="utf-8" ?>
<svg baseProfile="tiny" height="575" version="1.2" width="575" xmlns="http://www.w3.org/2000/svg" xmlns:ev="http://www.w3.org/2001/xml-events" xmlns:xlink="http://www.w3.org/1999/xlink"><defs /><rect fill="#000000" height="35" width="35" x="0" y="0" /><rect fill="#000000" height="35" width="35" x="36" y="0" /><rect fill="#000000" height="35" width="35" x="72" y="0" /><rect fill="#000000" height="35" width="35" x="108" y="0" /><rect fill="#000000" height="35" width="35" x="144" y="0" /><rect fill="#000000" height="35" width="35" x="180" y="0" /><rect fill="#000000" height="35" width="35" x="216" y="0" /><rect fill="#000000" height="35" width="35" x="252" y="0" /><rect fill="#000000" height="35" width="35" x="288" y="0" /><rect fill="#000000" height="35" width="35" x="324" y="0" /><rect fill="#000000" height="35" width="35" x="360" y="0" /><rect fill="#000000" height="35" width="35" x="396" y="0" /><rect fill="#000000" height="35" width="35" x="432" y="0" /><rect fill="#000000" height="35" width="35" x="468" y="0" /><rect fill="#000000" height="35" width="35" x="504" y="0" /><rect fill="#000000" height="35" width="35" x="540" y="0" /><rect fill="#000000" height="35" width="35" x="0" y="36" /><rect fill="#000000" height="35" width="35" x="36" y="36" /><rect fill="#000000" height="35" width="35" x="72" y="36" /><rect fill="#000000" height="35" width="35" x="108" y="36" /><rect fill="#000000" height="35" width="35" x="144" y="36" /><rect fill="#000000" height="35" width="35" x="180" y="36" /><rect fill="#000000" height="35" width="35" x="216" y="36" /><rect fill="#000000" height="35" width="35" x="252" y="36" /><rect fill="#000000" height="35" width="35" x="288" y="36" /><rect fill="#000000" height="35" width="35" x="324" y="36" /><rect fill="#000000" height="35" width="35" x="360" y="36" /><rect fill="#000000" height="35" width="35" x="396" y="36" /><rect fill="#000000" height="35" width="35" x="432" y="36" /><rect fill="#000000" height="35" width="35" x="468" y="36" /><rect fill="#000000" height="35" width="35" x="504" y="36" /><rect fill="#000000" height="35" width="35" x="540" y="36" /><rect fill="#000000" height="35" width="35" x="0" y="72" /><rect fill="#000000" height="35" width="35" x="36" y="72" /><rect fill="#000000" height="35" width="35" x="72" y="72" /><rect fill="#000000" height="35" width="35" x="108" y="72" /><rect fill="#000000" height="35" width="35" x="144" y="72" /><rect fill="#000000" height="35" width="35" x="180" y="72" /><rect fill="#000000" height="35" width="35" x="216" y="72" /><rect fill="#000000" height="35" width="35" x="252" y="72" /><rect fill="#000000" height="35" width="35" x="288" y="72" /><rect fill="#000000" height="35" width="35" x="324" y="72" /><rect fill="#000000" height="35" width="35" x="360" y="72" /><rect fill="#000000" height="35" width="35" x="396" y="72" /><rect fill="#000000" height="35" width="35" x="432" y="72" /><rect fill="#000000" height="35" width="35" x="468" y="72" /><rect fill="#000000" height="35" width="35" x="504" y="72" /><rect fill="#000000" height="35" width="35" x="540" y="72" /><rect fill="#000000" height="35" width="35" x="0" y="108" /><rect fill="#000000" height="35" width="35" x="36" y="108" /><rect fill="#000000" height="35" width="35" x="72" y="108" /><rect fill="#000000" height="35" width="35" x="108" y="108" /><rect fill="#000000" height="35" width="35" x="144" y="108" /><rect fill="#000000" height="35" width="35" x="180" y="108" /><rect fill="#000000" height="35" width="35" x="216" y="108" /><rect fill="#b84c04" height="35" width="35" x="252" y="108" /><rect fill="#bc5404" height="35" width="35" x="288" y="108" /><rect fill="#ba4d04" height="35" width="35" x="324" y="108" /><rect fill="#000000" height="35" width="35" x="360" y="108" /><rect fill="#000000" height="35" width="35" x="396" y="108" /><rect fill="#000000" height="35" width="35" x="432" y="108" /><rect fill="#000000" height="35" width="35" x="468" y="108" /><rect fill="#000000" height="35" width="35" x="504" y="108" /><rect fill="#000000" height="35" width="35" x="540" y="108" /><rect fill="#000000" height="35" width="35" x="0" y="144" /><rect fill="#000000" height="35" width="35" x="36" y="144" /><rect fill="#000000" height="35" width="35" x="72" y="144" /><rect fill="#000000" height="35" width="35" x="108" y="144" /><rect fill="#000000" height="35" width="35" x="144" y="144" /><rect fill="#000000" height="35" width="35" x="180" y="144" /><rect fill="#000000" height="35" width="35" x="216" y="144" /><rect fill="#b84a04" height="35" width="35" x="252" y="144" /><rect fill="#bc5204" height="35" width="35" x="288" y="144" /><rect fill="#ba5004" height="35" width="35" x="324" y="144" /><rect fill="#b44404" height="35" width="35" x="360" y="144" /><rect fill="#000000" height="35" width="35" x="396" y="144" /><rect fill="#000000" height="35" width="35" x="432" y="144" /><rect fill="#000000" height="35" width="35" x="468" y="144" /><rect fill="#000000" height="35" width="35" x="504" y="144" /><rect fill="#000000" height="35" width="35" x="540" y="144" /><rect fill="#000000" height="35" width="35" x="0" y="180" /><rect fill="#000000" height="35" width="35" x="36" y="180" /><rect fill="#000000" height="35" width="35" x="72" y="180" /><rect fill="#000000" height="35" width="35" x="108" y="180" /><rect fill="#000000" height="35" width="35" x="144" y="180" /><rect fill="#000000" height="35" width="35" x="180" y="180" /><rect fill="#000000" height="35" width="35" x="216" y="180" /><rect fill="#b44204" height="35" width="35" x="252" y="180" /><rect fill="#b64804" height="35" width="35" x="288" y="180" /><rect fill="#b44504" height="35" width="35" x="324" y="180" /><rect fill="#b44204" height="35" width="35" x="360" y="180" /><rect fill="#000000" height="35" width="35" x="396" y="180" /><rect fill="#b44204" height="35" width="35" x="432" y="180" /><rect fill="#000000" height="35" width="35" x="468" y="180" /><rect fill="#000000" height="35" width="35" x="504" y="180" /><rect fill="#000000" height="35" width="35" x="540" y="180" /><rect fill="#000000" height="35" width="35" x="0" y="216" /><rect fill="#000000" height="35" width="35" x="36" y="216" /><rect fill="#b44604" height="35" width="35" x="72" y="216" /><rect fill="#ba4f04" height="35" width="35" x="108" y="216" /><rect fill="#ba5004" height="35" width="35" x="144" y="216" /><rect fill="#bc5204" height="35" width="35" x="180" y="216" /><rect fill="#b44604" height="35" width="35" x="216" y="216" /><rect fill="#b44504" height="35" width="35" x="252" y="216" /><rect fill="#b44804" height="35" width="35" x="288" y="216" /><rect fill="#b44504" height="35" width="35" x="324" y="216" /><rect fill="#b44604" height="35" width="35" x="360" y="216" /><rect fill="#ba4d04" height="35" width="35" x="396" y="216" /><rect fill="#c05a04" height="35" width="35" x="432" y="216" /><rect fill="#c45e04" height="35" width="35" x="468" y="216" /><rect fill="#b44204" height="35" width="35" x="504" y="216" /><rect fill="#000000" height="35" width="35" x="540" y="216" /><rect fill="#000000" height="35" width="35" x="0" y="252" /><rect fill="#000000" height="35" width="35" x="36" y="252" /><rect fill="#bc5404" height="35" width="35" x="72" y="252" /><rect fill="#c45f04" height="35" width="35" x="108" y="252" /><rect fill="#c25c04" height="35" width="35" x="144" y="252" /><rect fill="#bc5004" height="35" width="35" x="180" y="252" /><rect fill="#b44504" height="35" width="35" x="216" y="252" /><rect fill="#b44404" height="35" width="35" x="252" y="252" /><rect fill="#be5504" height="35" width="35" x="288" y="252" /><rect fill="#c86b04" height="35" width="35" x="324" y="252" /><rect fill="#d2800a" height="35" width="35" x="360" y="252" /><rect fill="#e0a51e" height="35" width="35" x="396" y="252" /><rect fill="#d4820c" height="35" width="35" x="432" y="252" /><rect fill="#ca6e04" height="35" width="35" x="468" y="252" /><rect fill="#bc5304" height="35" width="35" x="504" y="252" /><rect fill="#000000" height="35" width="35" x="540" y="252" /><rect fill="#000000" height="35" width="35" x="0" y="288" /><rect fill="#b44204" height="35" width="35" x="36" y="288" /><rect fill="#c45f04" height="35" width="35" x="72" y="288" /><rect fill="#d2810a" height="35" width="35" x="108" y="288" /><rect fill="#dc9614" height="35" width="35" x="144" y="288" /><rect fill="#c46204" height="35" width="35" x="180" y="288" /><rect fill="#b44504" height="35" width="35" x="216" y="288" /><rect fill="#c25c04" height="35" width="35" x="252" y="288" /><rect fill="#dc9e14" height="35" width="35" x="288" y="288" /><rect fill="#e4ac24" height="35" width="35" x="324" y="288" /><rect fill="#eab934" height="35" width="35" x="360" y="288" /><rect fill="#e4aa22" height="35" width="35" x="396" y="288" /><rect fill="#da9612" height="35" width="35" x="432" y="288" /><rect fill="#cc7204" height="35" width="35" x="468" y="288" /><rect fill="#c46104" height="35" width="35" x="504" y="288" /><rect fill="#000000" height="35" width="35" x="540" y="288" /><rect fill="#000000" height="35" width="35" x="0" y="324" /><rect fill="#b84c04" height="35" width="35" x="36" y="324" /><rect fill="#cc7204" height="35" width="35" x="72" y="324" /><rect fill="#d4860c" height="35" width="35" x="108" y="324" /><rect fill="#d4890c" height="35" width="35" x="144" y="324" /><rect fill="#ca6f04" height="35" width="35" x="180" y="324" /><rect fill="#c66a04" height="35" width="35" x="216" y="324" /><rect fill="#e8b830" height="35" width="35" x="252" y="324" /><rect fill="#f4d76e" height="35" width="35" x="288" y="324" /><rect fill="#fcf5d0" height="35" width="35" x="324" y="324" /><rect fill="#fcfefc" height="35" width="35" x="360" y="324" /><rect fill="#dea41e" height="35" width="35" x="396" y="324" /><rect fill="#cc7704" height="35" width="35" x="432" y="324" /><rect fill="#c66904" height="35" width="35" x="468" y="324" /><rect fill="#bc5604" height="35" width="35" x="504" y="324" /><rect fill="#000000" height="35" width="35" x="540" y="324" /><rect fill="#000000" height="35" width="35" x="0" y="360" /><rect fill="#ba5004" height="35" width="35" x="36" y="360" /><rect fill="#ca7004" height="35" width="35" x="72" y="360" /><rect fill="#c46404" height="35" width="35" x="108" y="360" /><rect fill="#c25c04" height="35" width="35" x="144" y="360" /><rect fill="#c46204" height="35" width="35" x="180" y="360" /><rect fill="#dc9814" height="35" width="35" x="216" y="360" /><rect fill="#ecc542" height="35" width="35" x="252" y="360" /><rect fill="#eccc50" height="35" width="35" x="288" y="360" /><rect fill="#ecc440" height="35" width="35" x="324" y="360" /><rect fill="#e4ad24" height="35" width="35" x="360" y="360" /><rect fill="#da9412" height="35" width="35" x="396" y="360" /><rect fill="#d07a04" height="35" width="35" x="432" y="360" /><rect fill="#e4b12a" height="35" width="35" x="468" y="360" /><rect fill="#e6b42e" height="35" width="35" x="504" y="360" /><rect fill="#b44204" height="35" width="35" x="540" y="360" /><rect fill="#000000" height="35" width="35" x="0" y="396" /><rect fill="#da9310" height="35" width="35" x="36" y="396" /><rect fill="#d88c0c" height="35" width="35" x="72" y="396" /><rect fill="#d07c04" height="35" width="35" x="108" y="396" /><rect fill="#ba4d04" height="35" width="35" x="144" y="396" /><rect fill="#b84c04" height="35" width="35" x="180" y="396" /><rect fill="#c45e04" height="35" width="35" x="216" y="396" /><rect fill="#cc7604" height="35" width="35" x="252" y="396" /><rect fill="#d4850c" height="35" width="35" x="288" y="396" /><rect fill="#d8900e" height="35" width="35" x="324" y="396" /><rect fill="#d68a0c" height="35" width="35" x="360" y="396" /><rect fill="#d88f0c" height="35" width="35" x="396" y="396" /><rect fill="#f2d464" height="35" width="35" x="432" y="396" /><rect fill="#e6b732" height="35" width="35" x="468" y="396" /><rect fill="#dc9c14" height="35" width="35" x="504" y="396" /><rect fill="#000000" height="35" width="35" x="540" y="396" /><rect fill="#eccc50" height="35" width="35" x="0" y="432" /><rect fill="#dc9c14" height="35" width="35" x="36" y="432" /><rect fill="#dc9e14" height="35" width="35" x="72" y="432" /><rect fill="#e4aa24" height="35" width="35" x="108" y="432" /><rect fill="#e4ab24" height="35" width="35" x="144" y="432" /><rect fill="#eabf3a" height="35" width="35" x="180" y="432" /><rect fill="#ca7004" height="35" width="35" x="216" y="432" /><rect fill="#c25c04" height="35" width="35" x="252" y="432" /><rect fill="#c46104" height="35" width="35" x="288" y="432" /><rect fill="#dc9d16" height="35" width="35" x="324" y="432" /><rect fill="#fcfefc" height="35" width="35" x="360" y="432" /><rect fill="#fcfefc" height="35" width="35" x="396" y="432" /><rect fill="#f4de84" height="35" width="35" x="432" y="432" /><rect fill="#fcfefc" height="35" width="35" x="468" y="432" /><rect fill="#fcfefc" height="35" width="35" x="504" y="432" /><rect fill="#fcfefc" height="35" width="35" x="540" y="432" /><rect fill="#cc7304" height="35" width="35" x="0" y="468" /><rect fill="#fceaac" height="35" width="35" x="36" y="468" /><rect fill="#e2a822" height="35" width="35" x="72" y="468" /><rect fill="#ce7b04" height="35" width="35" x="108" y="468" /><rect fill="#dc9612" height="35" width="35" x="144" y="468" /><rect fill="#d2800a" height="35" width="35" x="180" y="468" /><rect fill="#dc9a14" height="35" width="35" x="216" y="468" /><rect fill="#f4da74" height="35" width="35" x="252" y="468" /><rect fill="#fcfefc" height="35" width="35" x="288" y="468" /><rect fill="#fcfefc" height="35" width="35" x="324" y="468" /><rect fill="#fcfefc" height="35" width="35" x="360" y="468" /><rect fill="#fcfefc" height="35" width="35" x="396" y="468" /><rect fill="#fcfefc" height="35" width="35" x="432" y="468" /><rect fill="#f4d66a" height="35" width="35" x="468" y="468" /><rect fill="#f4d972" height="35" width="35" x="504" y="468" /><rect fill="#ca6e04" height="35" width="35" x="540" y="468" /><rect fill="#b44404" height="35" width="35" x="0" y="504" /><rect fill="#cc7304" height="35" width="35" x="36" y="504" /><rect fill="#c46404" height="35" width="35" x="72" y="504" /><rect fill="#bc5504" height="35" width="35" x="108" y="504" /><rect fill="#d4830c" height="35" width="35" x="144" y="504" /><rect fill="#d4880c" height="35" width="35" x="180" y="504" /><rect fill="#d2800a" height="35" width="35" x="216" y="504" /><rect fill="#f4d66c" height="35" width="35" x="252" y="504" /><rect fill="#fcfef4" height="35" width="35" x="288" y="504" /><rect fill="#fcfefc" height="35" width="35" x="324" y="504" /><rect fill="#fceaa4" height="35" width="35" x="360" y="504" /><rect fill="#fcfefc" height="35" width="35" x="396" y="504" /><rect fill="#fcfefc" height="35" width="35" x="432" y="504" /><rect fill="#d4830c" height="35" width="35" x="468" y="504" /><rect fill="#ce7b04" height="35" width="35" x="504" y="504" /><rect fill="#dea118" height="35" width="35" x="540" y="504" /><rect fill="#000000" height="35" width="35" x="0" y="540" /><rect fill="#ca6c04" height="35" width="35" x="36" y="540" /><rect fill="#fcfefc" height="35" width="35" x="72" y="540" /><rect fill="#c66604" height="35" width="35" x="108" y="540" /><rect fill="#c86c04" height="35" width="35" x="144" y="540" /><rect fill="#fcfefc" height="35" width="35" x="180" y="540" /><rect fill="#d07e08" height="35" width="35" x="216" y="540" /><rect fill="#cc7804" height="35" width="35" x="252" y="540" /><rect fill="#fcfefc" height="35" width="35" x="288" y="540" /><rect fill="#fcfefc" height="35" width="35" x="324" y="540" /><rect fill="#fcfefc" height="35" width="35" x="360" y="540" /><rect fill="#fcfefc" height="35" width="35" x="396" y="540" /><rect fill="#fcfefc" height="35" width="35" x="432" y="540" /><rect fill="#fcf2c4" height="35" width="35" x="468" y="540" /><rect fill="#fcfefc" height="35" width="35" x="504" y="540" /><rect fill="#c86c04" height="35" width="35" x="540" y="540" /></svg>