<?xml version="1.0" encoding="utf-8" ?>
<svg baseProfile="tiny" height="575" version="1.2" width="575" xmlns="http://www.w3.org/2000/svg" xmlns:ev="http://www.w3.org/2001/xml-events" xmlns:xlink="http://www.w3.org/1999/xlink"><defs /><rect fill="#000000" height="35" width="35" x="0" y="0" /><rect fill="#000000" height="35" width="35" x="36" y="0" /><rect fill="#000000" height="35" width="35" x="72" y="0" /><rect fill="#000000" height="35" width="35" x="108" y="0" /><rect fill="#000000" height="35" width="35" x="144" y="0" /><rect fill="#000000" height="35" width="35" x="180" y="0" /><rect fill="#000000" height="35" width="35" x="216" y="0" /><rect fill="#000000" height="35" width="35" x="252" y="0" /><rect fill="#000000" height="35" width="35" x="288" y="0" /><rect fill="#000000" height="35" width="35" x="324" y="0" /><rect fill="#000000" height="35" width="35" x="360" y="0" /><rect fill="#000000" height="35" width="35" x="396" y="0" /><rect fill="#000000" height="35" width="35" x="432" y="0" /><rect fill="#000000" height="35" width="35" x="468" y="0" /><rect fill="#000000" height="35" width="35" x="504" y="0" /><rect fill="#000000" height="35" width="35" x="540" y="0" /><rect fill="#000000" height="35" width="35" x="0" y="36" /><rect fill="#000000" height="35" width="35" x="36" y="36" /><rect fill="#000000" height="35" width="35" x="72" y="36" /><rect fill="#000000" height="35" width="35" x="108" y="36" /><rect fill="#000000" height="35" width="35" x="144" y="36" /><rect fill="#000000" height="35" width="35" x="180" y="36" /><rect fill="#000000" height="35" width="35" x="216" y="36" /><rect fill="#000000" height="35" width="35" x="252" y="36" /><rect fill="#000000" height="35" width="35" x="288" y="36" /><rect fill="#000000" height="35" width="35" x="324" y="36" /><rect fill="#000000" height="35" width="35" x="360" y="36" /><rect fill="#000000" height="35" width="35" x="396" y="36" /><rect fill="#000000" height="35" width="35" x="432" y="36" /><rect fill="#000000" height="35" width="35" x="468" y="36" /><rect fill="#000000" height="35" width="35" x="504" y="36" /><rect fill="#000000" height="35" width="35" x="540" y="36" /><rect fill="#000000" height="35" width="35" x="0" y="72" /><rect fill="#000000" height="35" width="35" x="36" y="72" /><rect fill="#000000" height="35" width="35" x="72" y="72" /><rect fill="#000000" height="35" width="35" x="108" y="72" /><rect fill="#000000" height="35" width="35" x="144" y="72" /><rect fill="#000000" height="35" width="35" x="180" y="72" /><rect fill="#000000" height="35" width="35" x="216" y="72" /><rect fill="#000000" height="35" width="35" x="252" y="72" /><rect fill="#000000" height="35" width="35" x="288" y="72" /><rect fill="#000000" height="35" width="35" x="324" y="72" /><rect fill="#000000" height="35" width="35" x="360" y="72" /><rect fill="#000000" height="35" width="35" x="396" y="72" /><rect fill="#000000" height="35" width="35" x="432" y="72" /><rect fill="#000000" height="35" width="35" x="468" y="72" /><rect fill="#000000" height="35" width="35" x="504" y="72" /><rect fill="#000000" height="35" width="35" x="540" y="72" /><rect fill="#000000" height="35" width="35" x="0" y="108" /><rect fill="#000000" height="35" width="35" x="36" y="108" /><rect fill="#000000" height="35" width="35" x="72" y="108" /><rect fill="#000000" height="35" width="35" x="108" y="108" /><rect fill="#000000" height="35" width="35" x="144" y="108" /><rect fill="#000000" height="35" width="35" x="180" y="108" /><rect fill="#000000" height="35" width="35" x="216" y="108" /><rect fill="#000000" height="35" width="35" x="252" y="108" /><rect fill="#000000" height="35" width="35" x="288" y="108" /><rect fill="#000000" height="35" width="35" x="324" y="108" /><rect fill="#000000" height="35" width="35" x="360" y="108" /><rect fill="#000000" height="35" width="35" x="396" y="108" /><rect fill="#000000" height="35" width="35" x="432" y="108" /><rect fill="#000000" height="35" width="35" x="468" y="108" /><rect fill="#000000" height="35" width="35" x="504" y="108" /><rect fill="#000000" height="35" width="35" x="540" y="108" /><rect fill="#000000" height="35" width="35" x="0" y="144" /><rect fill="#000000" height="35" width="35" x="36" y="144" /><rect fill="#000000" height="35" width="35" x="72" y="144" /><rect fill="#000000" height="35" width="35" x="108" y="144" /><rect fill="#000000" height="35" width="35" x="144" y="144" /><rect fill="#000000" height="35" width="35" x="180" y="144" /><rect fill="#000000" height="35" width="35" x="216" y="144" /><rect fill="#000000" height="35" width="35" x="252" y="144" /><rect fill="#000000" height="35" width="35" x="288" y="144" /><rect fill="#b44204" height="35" width="35" x="324" y="144" /><rect fill="#ba4d04" height="35" width="35" x="360" y="144" /><rect fill="#c05904" height="35" width="35" x="396" y="144" /><rect fill="#bc5104" height="35" width="35" x="432" y="144" /><rect fill="#b44304" height="35" width="35" x="468" y="144" /><rect fill="#000000" height="35" width="35" x="504" y="144" /><rect fill="#000000" height="35" width="35" x="540" y="144" /><rect fill="#000000" height="35" width="35" x="0" y="180" /><rect fill="#000000" height="35" width="35" x="36" y="180" /><rect fill="#000000" height="35" width="35" x="72" y="180" /><rect fill="#bc5104" height="35" width="35" x="108" y="180" /><rect fill="#bc5604" height="35" width="35" x="144" y="180" /><rect fill="#b44204" height="35" width="35" x="180" y="180" /><rect fill="#000000" height="35" width="35" x="216" y="180" /><rect fill="#000000" height="35" width="35" x="252" y="180" /><rect fill="#c05a04" height="35" width="35" x="288" y="180" /><rect fill="#c66804" height="35" width="35" x="324" y="180" /><rect fill="#cc7104" height="35" width="35" x="360" y="180" /><rect fill="#ca6e04" height="35" width="35" x="396" y="180" /><rect fill="#c46204" height="35" width="35" x="432" y="180" /><rect fill="#b84e04" height="35" width="35" x="468" y="180" /><rect fill="#000000" height="35" width="35" x="504" y="180" /><rect fill="#000000" height="35" width="35" x="540" y="180" /><rect fill="#000000" height="35" width="35" x="0" y="216" /><rect fill="#000000" height="35" width="35" x="36" y="216" /><rect fill="#b84a04" height="35" width="35" x="72" y="216" /><rect fill="#be5a04" height="35" width="35" x="108" y="216" /><rect fill="#c05a04" height="35" width="35" x="144" y="216" /><rect fill="#b84c04" height="35" width="35" x="180" y="216" /><rect fill="#b84b04" height="35" width="35" x="216" y="216" /><rect fill="#c86904" height="35" width="35" x="252" y="216" /><rect fill="#d4820c" height="35" width="35" x="288" y="216" /><rect fill="#dc9512" height="35" width="35" x="324" y="216" /><rect fill="#dc9814" height="35" width="35" x="360" y="216" /><rect fill="#cc7504" height="35" width="35" x="396" y="216" /><rect fill="#c05b04" height="35" width="35" x="432" y="216" /><rect fill="#b84c04" height="35" width="35" x="468" y="216" /><rect fill="#000000" height="35" width="35" x="504" y="216" /><rect fill="#000000" height="35" width="35" x="540" y="216" /><rect fill="#000000" height="35" width="35" x="0" y="252" /><rect fill="#000000" height="35" width="35" x="36" y="252" /><rect fill="#b84a04" height="35" width="35" x="72" y="252" /><rect fill="#b84c04" height="35" width="35" x="108" y="252" /><rect fill="#b84a04" height="35" width="35" x="144" y="252" /><rect fill="#b84c04" height="35" width="35" x="180" y="252" /><rect fill="#c46404" height="35" width="35" x="216" y="252" /><rect fill="#d07d08" height="35" width="35" x="252" y="252" /><rect fill="#d68e0c" height="35" width="35" x="288" y="252" /><rect fill="#d8900c" height="35" width="35" x="324" y="252" /><rect fill="#d4820c" height="35" width="35" x="360" y="252" /><rect fill="#c86d04" height="35" width="35" x="396" y="252" /><rect fill="#c25c04" height="35" width="35" x="432" y="252" /><rect fill="#c66704" height="35" width="35" x="468" y="252" /><rect fill="#be5904" height="35" width="35" x="504" y="252" /><rect fill="#000000" height="35" width="35" x="540" y="252" /><rect fill="#000000" height="35" width="35" x="0" y="288" /><rect fill="#b84b04" height="35" width="35" x="36" y="288" /><rect fill="#be5704" height="35" width="35" x="72" y="288" /><rect fill="#ba5004" height="35" width="35" x="108" y="288" /><rect fill="#000000" height="35" width="35" x="144" y="288" /><rect fill="#000000" height="35" width="35" x="180" y="288" /><rect fill="#ba4d04" height="35" width="35" x="216" y="288" /><rect fill="#c25e04" height="35" width="35" x="252" y="288" /><rect fill="#c86b04" height="35" width="35" x="288" y="288" /><rect fill="#ca7004" height="35" width="35" x="324" y="288" /><rect fill="#c86a04" height="35" width="35" x="360" y="288" /><rect fill="#ca6a04" height="35" width="35" x="396" y="288" /><rect fill="#d2800a" height="35" width="35" x="432" y="288" /><rect fill="#ce7804" height="35" width="35" x="468" y="288" /><rect fill="#c25f04" height="35" width="35" x="504" y="288" /><rect fill="#000000" height="35" width="35" x="540" y="288" /><rect fill="#b64804" height="35" width="35" x="0" y="324" /><rect fill="#c25f04" height="35" width="35" x="36" y="324" /><rect fill="#c86804" height="35" width="35" x="72" y="324" /><rect fill="#c86804" height="35" width="35" x="108" y="324" /><rect fill="#c46504" height="35" width="35" x="144" y="324" /><rect fill="#c66604" height="35" width="35" x="180" y="324" /><rect fill="#ba4f04" height="35" width="35" x="216" y="324" /><rect fill="#b64a04" height="35" width="35" x="252" y="324" /><rect fill="#bc5104" height="35" width="35" x="288" y="324" /><rect fill="#ca7004" height="35" width="35" x="324" y="324" /><rect fill="#e4ae24" height="35" width="35" x="360" y="324" /><rect fill="#f0d264" height="35" width="35" x="396" y="324" /><rect fill="#dc9e14" height="35" width="35" x="432" y="324" /><rect fill="#e0a41c" height="35" width="35" x="468" y="324" /><rect fill="#e0a218" height="35" width="35" x="504" y="324" /><rect fill="#c25e04" height="35" width="35" x="540" y="324" /><rect fill="#000000" height="35" width="35" x="0" y="360" /><rect fill="#d4840c" height="35" width="35" x="36" y="360" /><rect fill="#cc7404" height="35" width="35" x="72" y="360" /><rect fill="#c46304" height="35" width="35" x="108" y="360" /><rect fill="#c86a04" height="35" width="35" x="144" y="360" /><rect fill="#c46104" height="35" width="35" x="180" y="360" /><rect fill="#c86804" height="35" width="35" x="216" y="360" /><rect fill="#d2800a" height="35" width="35" x="252" y="360" /><rect fill="#ecc03c" height="35" width="35" x="288" y="360" /><rect fill="#e6b734" height="35" width="35" x="324" y="360" /><rect fill="#fcf4ce" height="35" width="35" x="360" y="360" /><rect fill="#fceebc" height="35" width="35" x="396" y="360" /><rect fill="#eecf5c" height="35" width="35" x="432" y="360" /><rect fill="#e0a41c" height="35" width="35" x="468" y="360" /><rect fill="#dc9614" height="35" width="35" x="504" y="360" /><rect fill="#b44404" height="35" width="35" x="540" y="360" /><rect fill="#000000" height="35" width="35" x="0" y="396" /><rect fill="#bc5504" height="35" width="35" x="36" y="396" /><rect fill="#bc5504" height="35" width="35" x="72" y="396" /><rect fill="#ba4d04" height="35" width="35" x="108" y="396" /><rect fill="#c05c04" height="35" width="35" x="144" y="396" /><rect fill="#c46204" height="35" width="35" x="180" y="396" /><rect fill="#c66704" height="35" width="35" x="216" y="396" /><rect fill="#dc9712" height="35" width="35" x="252" y="396" /><rect fill="#e8bc38" height="35" width="35" x="288" y="396" /><rect fill="#fcf6d8" height="35" width="35" x="324" y="396" /><rect fill="#ecc64c" height="35" width="35" x="360" y="396" /><rect fill="#eece58" height="35" width="35" x="396" y="396" /><rect fill="#e8b834" height="35" width="35" x="432" y="396" /><rect fill="#d07c06" height="35" width="35" x="468" y="396" /><rect fill="#c66504" height="35" width="35" x="504" y="396" /><rect fill="#b44604" height="35" width="35" x="540" y="396" /><rect fill="#000000" height="35" width="35" x="0" y="432" /><rect fill="#ba4f04" height="35" width="35" x="36" y="432" /><rect fill="#e4a922" height="35" width="35" x="72" y="432" /><rect fill="#be5704" height="35" width="35" x="108" y="432" /><rect fill="#c05804" height="35" width="35" x="144" y="432" /><rect fill="#dc9614" height="35" width="35" x="180" y="432" /><rect fill="#c66804" height="35" width="35" x="216" y="432" /><rect fill="#cc7504" height="35" width="35" x="252" y="432" /><rect fill="#fcf0bc" height="35" width="35" x="288" y="432" /><rect fill="#fcfefc" height="35" width="35" x="324" y="432" /><rect fill="#fcfefc" height="35" width="35" x="360" y="432" /><rect fill="#fcfefc" height="35" width="35" x="396" y="432" /><rect fill="#fcfefc" height="35" width="35" x="432" y="432" /><rect fill="#e4b028" height="35" width="35" x="468" y="432" /><rect fill="#f0d05e" height="35" width="35" x="504" y="432" /><rect fill="#b44204" height="35" width="35" x="540" y="432" /><rect fill="#000000" height="35" width="35" x="0" y="468" /><rect fill="#bc5204" height="35" width="35" x="36" y="468" /><rect fill="#e4b22c" height="35" width="35" x="72" y="468" /><rect fill="#fcfefc" height="35" width="35" x="108" y="468" /><rect fill="#fcfefc" height="35" width="35" x="144" y="468" /><rect fill="#d4830c" height="35" width="35" x="180" y="468" /><rect fill="#c86a04" height="35" width="35" x="216" y="468" /><rect fill="#cc7604" height="35" width="35" x="252" y="468" /><rect fill="#ce7a06" height="35" width="35" x="288" y="468" /><rect fill="#ecca50" height="35" width="35" x="324" y="468" /><rect fill="#fcfefc" height="35" width="35" x="360" y="468" /><rect fill="#fcfefc" height="35" width="35" x="396" y="468" /><rect fill="#f4da7c" height="35" width="35" x="432" y="468" /><rect fill="#fceaa4" height="35" width="35" x="468" y="468" /><rect fill="#e2a720" height="35" width="35" x="504" y="468" /><rect fill="#ecbd3a" height="35" width="35" x="540" y="468" /><rect fill="#000000" height="35" width="35" x="0" y="504" /><rect fill="#ba4e04" height="35" width="35" x="36" y="504" /><rect fill="#e0a41c" height="35" width="35" x="72" y="504" /><rect fill="#fcf6dc" height="35" width="35" x="108" y="504" /><rect fill="#fcfefc" height="35" width="35" x="144" y="504" /><rect fill="#d8900c" height="35" width="35" x="180" y="504" /><rect fill="#be5704" height="35" width="35" x="216" y="504" /><rect fill="#dc9714" height="35" width="35" x="252" y="504" /><rect fill="#ecc03c" height="35" width="35" x="288" y="504" /><rect fill="#e6b42e" height="35" width="35" x="324" y="504" /><rect fill="#d88e0c" height="35" width="35" x="360" y="504" /><rect fill="#ecbe3c" height="35" width="35" x="396" y="504" /><rect fill="#f4d568" height="35" width="35" x="432" y="504" /><rect fill="#fcfefc" height="35" width="35" x="468" y="504" /><rect fill="#fcf6dc" height="35" width="35" x="504" y="504" /><rect fill="#b44204" height="35" width="35" x="540" y="504" /><rect fill="#fcfefc" height="35" width="35" x="0" y="540" /><rect fill="#fcfefc" height="35" width="35" x="36" y="540" /><rect fill="#e4ab24" height="35" width="35" x="72" y="540" /><rect fill="#f0d05c" height="35" width="35" x="108" y="540" /><rect fill="#fcfefc" height="35" width="35" x="144" y="540" /><rect fill="#fcfefc" height="35" width="35" x="180" y="540" /><rect fill="#ecbf3c" height="35" width="35" x="216" y="540" /><rect fill="#f2d364" height="35" width="35" x="252" y="540" /><rect fill="#cc7604" height="35" width="35" x="288" y="540" /><rect fill="#ca6d04" height="35" width="35" x="324" y="540" /><rect fill="#c86a04" height="35" width="35" x="360" y="540" /><rect fill="#ba5004" height="35" width="35" x="396" y="540" /><rect fill="#cc7304" height="35" width="35" x="432" y="540" /><rect fill="#eccb50" height="35" width="35" x="468" y="540" /><rect fill="#fcfefc" height="35" width="35" x="504" y="540" /><rect fill="#ecc13c" height="35" width="35" x="540" y="540" /></svg>