<?xml version="1.0" encoding="utf-8" ?>
<svg baseProfile="tiny" height="575" version="1.2" width="575" xmlns="http://www.w3.org/2000/svg" xmlns:ev="http://www.w3.org/2001/xml-events" xmlns:xlink="http://www.w3.org/1999/xlink"><defs /><rect fill="#8cbeff" height="35" width="35" x="0" y="0" /><rect fill="#5468d1" height="35" width="35" x="36" y="0" /><rect fill="#5569d6" height="35" width="35" x="72" y="0" /><rect fill="#8cbeff" height="35" width="35" x="108" y="0" /><rect fill="#8cbeff" height="35" width="35" x="144" y="0" /><rect fill="#8cbeff" height="35" width="35" x="180" y="0" /><rect fill="#8cbeff" height="35" width="35" x="216" y="0" /><rect fill="#8cbeff" height="35" width="35" x="252" y="0" /><rect fill="#d21e1e" height="35" width="35" x="288" y="0" /><rect fill="#d21e1e" height="35" width="35" x="324" y="0" /><rect fill="#8cbeff" height="35" width="35" x="360" y="0" /><rect fill="#8cbeff" height="35" width="35" x="396" y="0" /><rect fill="#8cbeff" height="35" width="35" x="432" y="0" /><rect fill="#8cbeff" height="35" width="35" x="468" y="0" /><rect fill="#8cbeff" height="35" width="35" x="504" y="0" /><rect fill="#8cbeff" height="35" width="35" x="540" y="0" /><rect fill="#8cbeff" height="35" width="35" x="0" y="36" /><rect fill="#8cbeff" height="35" width="35" x="36" y="36" /><rect fill="#8cbeff" height="35" width="35" x="72" y="36" /><rect fill="#8cbeff" height="35" width="35" x="108" y="36" /><rect fill="#8cbeff" height="35" width="35" x="144" y="36" /><rect fill="#8cbeff" height="35" width="35" x="180" y="36" /><rect fill="#8cbeff" height="35" width="35" x="216" y="36" /><rect fill="#8cbeff" height="35" width="35" x="252" y="36" /><rect fill="#8cbeff" height="35" width="35" x="288" y="36" /><rect fill="#8cbeff" height="35" width="35" x="324" y="36" /><rect fill="#8cbeff" height="35" width="35" x="360" y="36" /><rect fill="#8cbeff" height="35" width="35" x="396" y="36" /><rect fill="#8cbeff" height="35" width="35" x="432" y="36" /><rect fill="#8cbeff" height="35" width="35" x="468" y="36" /><rect fill="#d21e1e" height="35" width="35" x="504" y="36" /><rect fill="#d21e1e" height="35" width="35" x="540" y="36" /><rect fill="#8cbeff" height="35" width="35" x="0" y="72" /><rect fill="#8cbeff" height="35" width="35" x="36" y="72" /><rect fill="#5166cc" height="35" width="35" x="72" y="72" /><rect fill="#000000" height="35" width="35" x="108" y="72" /><rect fill="#000201" height="35" width="35" x="144" y="72" /><rect fill="#020000" height="35" width="35" x="180" y="72" /><rect fill="#d21e1e" height="35" width="35" x="216" y="72" /><rect fill="#8cbeff" height="35" width="35" x="252" y="72" /><rect fill="#8cbeff" height="35" width="35" x="288" y="72" /><rect fill="#8cbeff" height="35" width="35" x="324" y="72" /><rect fill="#000000" height="35" width="35" x="360" y="72" /><rect fill="#000000" height="35" width="35" x="396" y="72" /><rect fill="#000000" height="35" width="35" x="432" y="72" /><rect fill="#d21e1e" height="35" width="35" x="468" y="72" /><rect fill="#8cbeff" height="35" width="35" x="504" y="72" /><rect fill="#8cbeff" height="35" width="35" x="540" y="72" /><rect fill="#8cbeff" height="35" width="35" x="0" y="108" /><rect fill="#4d63d0" height="35" width="35" x="36" y="108" /><rect fill="#020304" height="35" width="35" x="72" y="108" /><rect fill="#000002" height="35" width="35" x="108" y="108" /><rect fill="#000002" height="35" width="35" x="144" y="108" /><rect fill="#f7f8ff" height="35" width="35" x="180" y="108" /><rect fill="#030000" height="35" width="35" x="216" y="108" /><rect fill="#d21e1e" height="35" width="35" x="252" y="108" /><rect fill="#8cbeff" height="35" width="35" x="288" y="108" /><rect fill="#020103" height="35" width="35" x="324" y="108" /><rect fill="#fafbff" height="35" width="35" x="360" y="108" /><rect fill="#010103" height="35" width="35" x="396" y="108" /><rect fill="#000000" height="35" width="35" x="432" y="108" /><rect fill="#000000" height="35" width="35" x="468" y="108" /><rect fill="#d21e1e" height="35" width="35" x="504" y="108" /><rect fill="#8cbeff" height="35" width="35" x="540" y="108" /><rect fill="#8cbeff" height="35" width="35" x="0" y="144" /><rect fill="#8cbeff" height="35" width="35" x="36" y="144" /><rect fill="#8cbeff" height="35" width="35" x="72" y="144" /><rect fill="#8cbeff" height="35" width="35" x="108" y="144" /><rect fill="#5061cf" height="35" width="35" x="144" y="144" /><rect fill="#f9faff" height="35" width="35" x="180" y="144" /><rect fill="#000000" height="35" width="35" x="216" y="144" /><rect fill="#d21e1e" height="35" width="35" x="252" y="144" /><rect fill="#05fd4c" height="35" width="35" x="288" y="144" /><rect fill="#010103" height="35" width="35" x="324" y="144" /><rect fill="#f9faff" height="35" width="35" x="360" y="144" /><rect fill="#000000" height="35" width="35" x="396" y="144" /><rect fill="#000000" height="35" width="35" x="432" y="144" /><rect fill="#000000" height="35" width="35" x="468" y="144" /><rect fill="#d21e1e" height="35" width="35" x="504" y="144" /><rect fill="#8cbeff" height="35" width="35" x="540" y="144" /><rect fill="#8cbeff" height="35" width="35" x="0" y="180" /><rect fill="#8cbeff" height="35" width="35" x="36" y="180" /><rect fill="#8cbeff" height="35" width="35" x="72" y="180" /><rect fill="#8cbeff" height="35" width="35" x="108" y="180" /><rect fill="#8cbeff" height="35" width="35" x="144" y="180" /><rect fill="#8cbeff" height="35" width="35" x="180" y="180" /><rect fill="#5165d1" height="35" width="35" x="216" y="180" /><rect fill="#00ff49" height="35" width="35" x="252" y="180" /><rect fill="#01fe4a" height="35" width="35" x="288" y="180" /><rect fill="#030101" height="35" width="35" x="324" y="180" /><rect fill="#f9faff" height="35" width="35" x="360" y="180" /><rect fill="#f9faff" height="35" width="35" x="396" y="180" /><rect fill="#f9fafe" height="35" width="35" x="432" y="180" /><rect fill="#000000" height="35" width="35" x="468" y="180" /><rect fill="#d21e1e" height="35" width="35" x="504" y="180" /><rect fill="#8cbeff" height="35" width="35" x="540" y="180" /><rect fill="#8cbeff" height="35" width="35" x="0" y="216" /><rect fill="#8cbeff" height="35" width="35" x="36" y="216" /><rect fill="#4e67d7" height="35" width="35" x="72" y="216" /><rect fill="#000001" height="35" width="35" x="108" y="216" /><rect fill="#000000" height="35" width="35" x="144" y="216" /><rect fill="#000001" height="35" width="35" x="180" y="216" /><rect fill="#d21e1e" height="35" width="35" x="216" y="216" /><rect fill="#00ff49" height="35" width="35" x="252" y="216" /><rect fill="#00ff49" height="35" width="35" x="288" y="216" /><rect fill="#d21e1e" height="35" width="35" x="324" y="216" /><rect fill="#8cbeff" height="35" width="35" x="360" y="216" /><rect fill="#8cbeff" height="35" width="35" x="396" y="216" /><rect fill="#8cbeff" height="35" width="35" x="432" y="216" /><rect fill="#8cbeff" height="35" width="35" x="468" y="216" /><rect fill="#8cbeff" height="35" width="35" x="504" y="216" /><rect fill="#8cbeff" height="35" width="35" x="540" y="216" /><rect fill="#4f67d4" height="35" width="35" x="0" y="252" /><rect fill="#02fc4d" height="35" width="35" x="36" y="252" /><rect fill="#00fe4d" height="35" width="35" x="72" y="252" /><rect fill="#00ff49" height="35" width="35" x="108" y="252" /><rect fill="#00ff49" height="35" width="35" x="144" y="252" /><rect fill="#00ff4c" height="35" width="35" x="180" y="252" /><rect fill="#06fd49" height="35" width="35" x="216" y="252" /><rect fill="#00ff49" height="35" width="35" x="252" y="252" /><rect fill="#00ff49" height="35" width="35" x="288" y="252" /><rect fill="#00ff49" height="35" width="35" x="324" y="252" /><rect fill="#02ff4f" height="35" width="35" x="360" y="252" /><rect fill="#00ff4d" height="35" width="35" x="396" y="252" /><rect fill="#00fe4c" height="35" width="35" x="432" y="252" /><rect fill="#01fe49" height="35" width="35" x="468" y="252" /><rect fill="#00ff49" height="35" width="35" x="504" y="252" /><rect fill="#d21e1e" height="35" width="35" x="540" y="252" /><rect fill="#4f67d4" height="35" width="35" x="0" y="288" /><rect fill="#00fe50" height="35" width="35" x="36" y="288" /><rect fill="#00ff47" height="35" width="35" x="72" y="288" /><rect fill="#00ff4b" height="35" width="35" x="108" y="288" /><rect fill="#00ff49" height="35" width="35" x="144" y="288" /><rect fill="#5167d1" height="35" width="35" x="180" y="288" /><rect fill="#000000" height="35" width="35" x="216" y="288" /><rect fill="#00ff49" height="35" width="35" x="252" y="288" /><rect fill="#00ff4b" height="35" width="35" x="288" y="288" /><rect fill="#000000" height="35" width="35" x="324" y="288" /><rect fill="#d21e1e" height="35" width="35" x="360" y="288" /><rect fill="#00ff49" height="35" width="35" x="396" y="288" /><rect fill="#00ff49" height="35" width="35" x="432" y="288" /><rect fill="#00ff49" height="35" width="35" x="468" y="288" /><rect fill="#00ff49" height="35" width="35" x="504" y="288" /><rect fill="#d21e1e" height="35" width="35" x="540" y="288" /><rect fill="#4e66d3" height="35" width="35" x="0" y="324" /><rect fill="#00fe4c" height="35" width="35" x="36" y="324" /><rect fill="#000000" height="35" width="35" x="72" y="324" /><rect fill="#00ff4a" height="35" width="35" x="108" y="324" /><rect fill="#00ff4a" height="35" width="35" x="144" y="324" /><rect fill="#02ff48" height="35" width="35" x="180" y="324" /><rect fill="#01fd48" height="35" width="35" x="216" y="324" /><rect fill="#00ff49" height="35" width="35" x="252" y="324" /><rect fill="#01ff48" height="35" width="35" x="288" y="324" /><rect fill="#00fd48" height="35" width="35" x="324" y="324" /><rect fill="#00fd4b" height="35" width="35" x="360" y="324" /><rect fill="#00ff48" height="35" width="35" x="396" y="324" /><rect fill="#00ff49" height="35" width="35" x="432" y="324" /><rect fill="#000001" height="35" width="35" x="468" y="324" /><rect fill="#d21e1e" height="35" width="35" x="504" y="324" /><rect fill="#d21e1e" height="35" width="35" x="540" y="324" /><rect fill="#8cbeff" height="35" width="35" x="0" y="360" /><rect fill="#8cbeff" height="35" width="35" x="36" y="360" /><rect fill="#8cbeff" height="35" width="35" x="72" y="360" /><rect fill="#8cbeff" height="35" width="35" x="108" y="360" /><rect fill="#8cbeff" height="35" width="35" x="144" y="360" /><rect fill="#8cbeff" height="35" width="35" x="180" y="360" /><rect fill="#516bd8" height="35" width="35" x="216" y="360" /><rect fill="#010000" height="35" width="35" x="252" y="360" /><rect fill="#010000" height="35" width="35" x="288" y="360" /><rect fill="#010000" height="35" width="35" x="324" y="360" /><rect fill="#010000" height="35" width="35" x="360" y="360" /><rect fill="#010000" height="35" width="35" x="396" y="360" /><rect fill="#010003" height="35" width="35" x="432" y="360" /><rect fill="#d21e1e" height="35" width="35" x="468" y="360" /><rect fill="#00fc45" height="35" width="35" x="504" y="360" /><rect fill="#d21e1e" height="35" width="35" x="540" y="360" /><rect fill="#00ff49" height="35" width="35" x="0" y="396" /><rect fill="#00fe50" height="35" width="35" x="36" y="396" /><rect fill="#00ff4c" height="35" width="35" x="72" y="396" /><rect fill="#00fe48" height="35" width="35" x="108" y="396" /><rect fill="#fbfec2" height="35" width="35" x="144" y="396" /><rect fill="#fbfec4" height="35" width="35" x="180" y="396" /><rect fill="#fbfec2" height="35" width="35" x="216" y="396" /><rect fill="#fbfec2" height="35" width="35" x="252" y="396" /><rect fill="#f9ffc4" height="35" width="35" x="288" y="396" /><rect fill="#fcffc6" height="35" width="35" x="324" y="396" /><rect fill="#fbfec2" height="35" width="35" x="360" y="396" /><rect fill="#fbfec4" height="35" width="35" x="396" y="396" /><rect fill="#00fe48" height="35" width="35" x="432" y="396" /><rect fill="#00ff47" height="35" width="35" x="468" y="396" /><rect fill="#00ff47" height="35" width="35" x="504" y="396" /><rect fill="#03fe47" height="35" width="35" x="540" y="396" /><rect fill="#01fe4a" height="35" width="35" x="0" y="432" /><rect fill="#5367cf" height="35" width="35" x="36" y="432" /><rect fill="#4f67d8" height="35" width="35" x="72" y="432" /><rect fill="#00ff49" height="35" width="35" x="108" y="432" /><rect fill="#fcffc3" height="35" width="35" x="144" y="432" /><rect fill="#fdfec2" height="35" width="35" x="180" y="432" /><rect fill="#fbfec2" height="35" width="35" x="216" y="432" /><rect fill="#fbfec2" height="35" width="35" x="252" y="432" /><rect fill="#fbfec2" height="35" width="35" x="288" y="432" /><rect fill="#fbfec2" height="35" width="35" x="324" y="432" /><rect fill="#fbfec3" height="35" width="35" x="360" y="432" /><rect fill="#fbfec0" height="35" width="35" x="396" y="432" /><rect fill="#00ff4b" height="35" width="35" x="432" y="432" /><rect fill="#00ff49" height="35" width="35" x="468" y="432" /><rect fill="#00ff49" height="35" width="35" x="504" y="432" /><rect fill="#00ff4b" height="35" width="35" x="540" y="432" /><rect fill="#8cbeff" height="35" width="35" x="0" y="468" /><rect fill="#8cbeff" height="35" width="35" x="36" y="468" /><rect fill="#8cbeff" height="35" width="35" x="72" y="468" /><rect fill="#8cbeff" height="35" width="35" x="108" y="468" /><rect fill="#8cbeff" height="35" width="35" x="144" y="468" /><rect fill="#4e62cf" height="35" width="35" x="180" y="468" /><rect fill="#fafdc3" height="35" width="35" x="216" y="468" /><rect fill="#fbfec2" height="35" width="35" x="252" y="468" /><rect fill="#fbfec2" height="35" width="35" x="288" y="468" /><rect fill="#fbfec4" height="35" width="35" x="324" y="468" /><rect fill="#fbfec2" height="35" width="35" x="360" y="468" /><rect fill="#fbfec2" height="35" width="35" x="396" y="468" /><rect fill="#00ff4a" height="35" width="35" x="432" y="468" /><rect fill="#00ff49" height="35" width="35" x="468" y="468" /><rect fill="#00ff4c" height="35" width="35" x="504" y="468" /><rect fill="#00ff49" height="35" width="35" x="540" y="468" /><rect fill="#00ff4c" height="35" width="35" x="0" y="504" /><rect fill="#00ff4b" height="35" width="35" x="36" y="504" /><rect fill="#00fe49" height="35" width="35" x="72" y="504" /><rect fill="#00ff4b" height="35" width="35" x="108" y="504" /><rect fill="#fbfec3" height="35" width="35" x="144" y="504" /><rect fill="#fcfbbe" height="35" width="35" x="180" y="504" /><rect fill="#fdfec2" height="35" width="35" x="216" y="504" /><rect fill="#fbfec2" height="35" width="35" x="252" y="504" /><rect fill="#fbfec4" height="35" width="35" x="288" y="504" /><rect fill="#fcffc6" height="35" width="35" x="324" y="504" /><rect fill="#fbfec3" height="35" width="35" x="360" y="504" /><rect fill="#fbfec4" height="35" width="35" x="396" y="504" /><rect fill="#d21e1e" height="35" width="35" x="432" y="504" /><rect fill="#00ff49" height="35" width="35" x="468" y="504" /><rect fill="#00ff4c" height="35" width="35" x="504" y="504" /><rect fill="#01fe4c" height="35" width="35" x="540" y="504" /><rect fill="#01fe49" height="35" width="35" x="0" y="540" /><rect fill="#00ff49" height="35" width="35" x="36" y="540" /><rect fill="#01fe4c" height="35" width="35" x="72" y="540" /><rect fill="#00ff49" height="35" width="35" x="108" y="540" /><rect fill="#fafdc3" height="35" width="35" x="144" y="540" /><rect fill="#fbfec4" height="35" width="35" x="180" y="540" /><rect fill="#fbfec4" height="35" width="35" x="216" y="540" /><rect fill="#fbfec0" height="35" width="35" x="252" y="540" /><rect fill="#fbfec2" height="35" width="35" x="288" y="540" /><rect fill="#fbfec4" height="35" width="35" x="324" y="540" /><rect fill="#fbfec3" height="35" width="35" x="360" y="540" /><rect fill="#fbfec4" height="35" width="35" x="396" y="540" /><rect fill="#03fe49" height="35" width="35" x="432" y="540" /><rect fill="#00ff49" height="35" width="35" x="468" y="540" /><rect fill="#01fe49" height="35" width="35" x="504" y="540" /><rect fill="#04ff4d" height="35" width="35" x="540" y="540" /></svg>