<?xml version="1.0" encoding="utf-8" ?>
<svg baseProfile="tiny" height="575" version="1.2" width="575" xmlns="http://www.w3.org/2000/svg" xmlns:ev="http://www.w3.org/2001/xml-events" xmlns:xlink="http://www.w3.org/1999/xlink"><defs /><rect fill="#8cbeff" height="35" width="35" x="0" y="0" /><rect fill="#8cbeff" height="35" width="35" x="36" y="0" /><rect fill="#8cbeff" height="35" width="35" x="72" y="0" /><rect fill="#8cbeff" height="35" width="35" x="108" y="0" /><rect fill="#8cbeff" height="35" width="35" x="144" y="0" /><rect fill="#8cbeff" height="35" width="35" x="180" y="0" /><rect fill="#8cbeff" height="35" width="35" x="216" y="0" /><rect fill="#8cbeff" height="35" width="35" x="252" y="0" /><rect fill="#8cbeff" height="35" width="35" x="288" y="0" /><rect fill="#8cbeff" height="35" width="35" x="324" y="0" /><rect fill="#8cbeff" height="35" width="35" x="360" y="0" /><rect fill="#8cbeff" height="35" width="35" x="396" y="0" /><rect fill="#8cbeff" height="35" width="35" x="432" y="0" /><rect fill="#8cbeff" height="35" width="35" x="468" y="0" /><rect fill="#8cbeff" height="35" width="35" x="504" y="0" /><rect fill="#8cbeff" height="35" width="35" x="540" y="0" /><rect fill="#8cbeff" height="35" width="35" x="0" y="36" /><rect fill="#8cbeff" height="35" width="35" x="36" y="36" /><rect fill="#8cbeff" height="35" width="35" x="72" y="36" /><rect fill="#8cbeff" height="35" width="35" x="108" y="36" /><rect fill="#8cbeff" height="35" width="35" x="144" y="36" /><rect fill="#8cbeff" height="35" width="35" x="180" y="36" /><rect fill="#8cbeff" height="35" width="35" x="216" y="36" /><rect fill="#8cbeff" height="35" width="35" x="252" y="36" /><rect fill="#8cbeff" height="35" width="35" x="288" y="36" /><rect fill="#8cbeff" height="35" width="35" x="324" y="36" /><rect fill="#8cbeff" height="35" width="35" x="360" y="36" /><rect fill="#8cbeff" height="35" width="35" x="396" y="36" /><rect fill="#8cbeff" height="35" width="35" x="432" y="36" /><rect fill="#8cbeff" height="35" width="35" x="468" y="36" /><rect fill="#8cbeff" height="35" width="35" x="504" y="36" /><rect fill="#8cbeff" height="35" width="35" x="540" y="36" /><rect fill="#8cbeff" height="35" width="35" x="0" y="72" /><rect fill="#8cbeff" height="35" width="35" x="36" y="72" /><rect fill="#8cbeff" height="35" width="35" x="72" y="72" /><rect fill="#020000" height="35" width="35" x="108" y="72" /><rect fill="#000000" height="35" width="35" x="144" y="72" /><rect fill="#000000" height="35" width="35" x="180" y="72" /><rect fill="#8cbeff" height="35" width="35" x="216" y="72" /><rect fill="#8cbeff" height="35" width="35" x="252" y="72" /><rect fill="#8cbeff" height="35" width="35" x="288" y="72" /><rect fill="#8cbeff" height="35" width="35" x="324" y="72" /><rect fill="#000000" height="35" width="35" x="360" y="72" /><rect fill="#000000" height="35" width="35" x="396" y="72" /><rect fill="#000003" height="35" width="35" x="432" y="72" /><rect fill="#8cbeff" height="35" width="35" x="468" y="72" /><rect fill="#8cbeff" height="35" width="35" x="504" y="72" /><rect fill="#8cbeff" height="35" width="35" x="540" y="72" /><rect fill="#8cbeff" height="35" width="35" x="0" y="108" /><rect fill="#8cbeff" height="35" width="35" x="36" y="108" /><rect fill="#000002" height="35" width="35" x="72" y="108" /><rect fill="#fbfbfe" height="35" width="35" x="108" y="108" /><rect fill="#fbfbfe" height="35" width="35" x="144" y="108" /><rect fill="#f7fbff" height="35" width="35" x="180" y="108" /><rect fill="#000100" height="35" width="35" x="216" y="108" /><rect fill="#8cbeff" height="35" width="35" x="252" y="108" /><rect fill="#8cbeff" height="35" width="35" x="288" y="108" /><rect fill="#000002" height="35" width="35" x="324" y="108" /><rect fill="#fafbff" height="35" width="35" x="360" y="108" /><rect fill="#fcfbfe" height="35" width="35" x="396" y="108" /><rect fill="#f9faff" height="35" width="35" x="432" y="108" /><rect fill="#000000" height="35" width="35" x="468" y="108" /><rect fill="#8cbeff" height="35" width="35" x="504" y="108" /><rect fill="#8cbeff" height="35" width="35" x="540" y="108" /><rect fill="#8cbeff" height="35" width="35" x="0" y="144" /><rect fill="#8cbeff" height="35" width="35" x="36" y="144" /><rect fill="#000001" height="35" width="35" x="72" y="144" /><rect fill="#d21e1e" height="35" width="35" x="108" y="144" /><rect fill="#f8fdfc" height="35" width="35" x="144" y="144" /><rect fill="#f9faff" height="35" width="35" x="180" y="144" /><rect fill="#000100" height="35" width="35" x="216" y="144" /><rect fill="#00ff49" height="35" width="35" x="252" y="144" /><rect fill="#03ff4a" height="35" width="35" x="288" y="144" /><rect fill="#000002" height="35" width="35" x="324" y="144" /><rect fill="#fbfbff" height="35" width="35" x="360" y="144" /><rect fill="#f9faff" height="35" width="35" x="396" y="144" /><rect fill="#f9fbfc" height="35" width="35" x="432" y="144" /><rect fill="#000000" height="35" width="35" x="468" y="144" /><rect fill="#8cbeff" height="35" width="35" x="504" y="144" /><rect fill="#8cbeff" height="35" width="35" x="540" y="144" /><rect fill="#8cbeff" height="35" width="35" x="0" y="180" /><rect fill="#8cbeff" height="35" width="35" x="36" y="180" /><rect fill="#000000" height="35" width="35" x="72" y="180" /><rect fill="#d21e1e" height="35" width="35" x="108" y="180" /><rect fill="#d21e1e" height="35" width="35" x="144" y="180" /><rect fill="#f9faff" height="35" width="35" x="180" y="180" /><rect fill="#000100" height="35" width="35" x="216" y="180" /><rect fill="#00ff4b" height="35" width="35" x="252" y="180" /><rect fill="#00ff4a" height="35" width="35" x="288" y="180" /><rect fill="#030000" height="35" width="35" x="324" y="180" /><rect fill="#d21e1e" height="35" width="35" x="360" y="180" /><rect fill="#d21e1e" height="35" width="35" x="396" y="180" /><rect fill="#d21e1e" height="35" width="35" x="432" y="180" /><rect fill="#000000" height="35" width="35" x="468" y="180" /><rect fill="#8cbeff" height="35" width="35" x="504" y="180" /><rect fill="#8cbeff" height="35" width="35" x="540" y="180" /><rect fill="#8cbeff" height="35" width="35" x="0" y="216" /><rect fill="#8cbeff" height="35" width="35" x="36" y="216" /><rect fill="#007820" height="35" width="35" x="72" y="216" /><rect fill="#020000" height="35" width="35" x="108" y="216" /><rect fill="#d21e1e" height="35" width="35" x="144" y="216" /><rect fill="#000001" height="35" width="35" x="180" y="216" /><rect fill="#007922" height="35" width="35" x="216" y="216" /><rect fill="#00ff49" height="35" width="35" x="252" y="216" /><rect fill="#00ff49" height="35" width="35" x="288" y="216" /><rect fill="#020000" height="35" width="35" x="324" y="216" /><rect fill="#d21e1e" height="35" width="35" x="360" y="216" /><rect fill="#000000" height="35" width="35" x="396" y="216" /><rect fill="#d21e1e" height="35" width="35" x="432" y="216" /><rect fill="#007723" height="35" width="35" x="468" y="216" /><rect fill="#8cbeff" height="35" width="35" x="504" y="216" /><rect fill="#8cbeff" height="35" width="35" x="540" y="216" /><rect fill="#8cbeff" height="35" width="35" x="0" y="252" /><rect fill="#00ff4b" height="35" width="35" x="36" y="252" /><rect fill="#02ff4c" height="35" width="35" x="72" y="252" /><rect fill="#007923" height="35" width="35" x="108" y="252" /><rect fill="#020000" height="35" width="35" x="144" y="252" /><rect fill="#007722" height="35" width="35" x="180" y="252" /><rect fill="#00ff4c" height="35" width="35" x="216" y="252" /><rect fill="#01ff47" height="35" width="35" x="252" y="252" /><rect fill="#00ff49" height="35" width="35" x="288" y="252" /><rect fill="#00fe47" height="35" width="35" x="324" y="252" /><rect fill="#04791d" height="35" width="35" x="360" y="252" /><rect fill="#047920" height="35" width="35" x="396" y="252" /><rect fill="#020000" height="35" width="35" x="432" y="252" /><rect fill="#00ff49" height="35" width="35" x="468" y="252" /><rect fill="#007821" height="35" width="35" x="504" y="252" /><rect fill="#8cbeff" height="35" width="35" x="540" y="252" /><rect fill="#8cbeff" height="35" width="35" x="0" y="288" /><rect fill="#00ff49" height="35" width="35" x="36" y="288" /><rect fill="#00ff47" height="35" width="35" x="72" y="288" /><rect fill="#00ff4b" height="35" width="35" x="108" y="288" /><rect fill="#d21e1e" height="35" width="35" x="144" y="288" /><rect fill="#00ff49" height="35" width="35" x="180" y="288" /><rect fill="#000000" height="35" width="35" x="216" y="288" /><rect fill="#00ff49" height="35" width="35" x="252" y="288" /><rect fill="#00ff49" height="35" width="35" x="288" y="288" /><rect fill="#000000" height="35" width="35" x="324" y="288" /><rect fill="#00ff49" height="35" width="35" x="360" y="288" /><rect fill="#00ff49" height="35" width="35" x="396" y="288" /><rect fill="#d21e1e" height="35" width="35" x="432" y="288" /><rect fill="#00ff49" height="35" width="35" x="468" y="288" /><rect fill="#007824" height="35" width="35" x="504" y="288" /><rect fill="#8cbeff" height="35" width="35" x="540" y="288" /><rect fill="#8cbeff" height="35" width="35" x="0" y="324" /><rect fill="#01ff47" height="35" width="35" x="36" y="324" /><rect fill="#000000" height="35" width="35" x="72" y="324" /><rect fill="#00ff48" height="35" width="35" x="108" y="324" /><rect fill="#00ff4b" height="35" width="35" x="144" y="324" /><rect fill="#00ff49" height="35" width="35" x="180" y="324" /><rect fill="#d21e1e" height="35" width="35" x="216" y="324" /><rect fill="#02fe49" height="35" width="35" x="252" y="324" /><rect fill="#02ff49" height="35" width="35" x="288" y="324" /><rect fill="#00fd4b" height="35" width="35" x="324" y="324" /><rect fill="#00fd4b" height="35" width="35" x="360" y="324" /><rect fill="#01fe4c" height="35" width="35" x="396" y="324" /><rect fill="#00fe46" height="35" width="35" x="432" y="324" /><rect fill="#000001" height="35" width="35" x="468" y="324" /><rect fill="#007720" height="35" width="35" x="504" y="324" /><rect fill="#8cbeff" height="35" width="35" x="540" y="324" /><rect fill="#8cbeff" height="35" width="35" x="0" y="360" /><rect fill="#00fe47" height="35" width="35" x="36" y="360" /><rect fill="#017820" height="35" width="35" x="72" y="360" /><rect fill="#030100" height="35" width="35" x="108" y="360" /><rect fill="#000000" height="35" width="35" x="144" y="360" /><rect fill="#000100" height="35" width="35" x="180" y="360" /><rect fill="#d21e1e" height="35" width="35" x="216" y="360" /><rect fill="#000000" height="35" width="35" x="252" y="360" /><rect fill="#010000" height="35" width="35" x="288" y="360" /><rect fill="#000000" height="35" width="35" x="324" y="360" /><rect fill="#000000" height="35" width="35" x="360" y="360" /><rect fill="#000000" height="35" width="35" x="396" y="360" /><rect fill="#030100" height="35" width="35" x="432" y="360" /><rect fill="#01781f" height="35" width="35" x="468" y="360" /><rect fill="#007820" height="35" width="35" x="504" y="360" /><rect fill="#8cbeff" height="35" width="35" x="540" y="360" /><rect fill="#00ff49" height="35" width="35" x="0" y="396" /><rect fill="#00ff49" height="35" width="35" x="36" y="396" /><rect fill="#03fe47" height="35" width="35" x="72" y="396" /><rect fill="#027822" height="35" width="35" x="108" y="396" /><rect fill="#76785a" height="35" width="35" x="144" y="396" /><rect fill="#74795a" height="35" width="35" x="180" y="396" /><rect fill="#d21e1e" height="35" width="35" x="216" y="396" /><rect fill="#767859" height="35" width="35" x="252" y="396" /><rect fill="#76785c" height="35" width="35" x="288" y="396" /><rect fill="#76785c" height="35" width="35" x="324" y="396" /><rect fill="#76785c" height="35" width="35" x="360" y="396" /><rect fill="#76785c" height="35" width="35" x="396" y="396" /><rect fill="#d21e1e" height="35" width="35" x="432" y="396" /><rect fill="#00ff47" height="35" width="35" x="468" y="396" /><rect fill="#007922" height="35" width="35" x="504" y="396" /><rect fill="#007922" height="35" width="35" x="540" y="396" /><rect fill="#01fe4a" height="35" width="35" x="0" y="432" /><rect fill="#00ff49" height="35" width="35" x="36" y="432" /><rect fill="#00ff49" height="35" width="35" x="72" y="432" /><rect fill="#00ff49" height="35" width="35" x="108" y="432" /><rect fill="#fcffc3" height="35" width="35" x="144" y="432" /><rect fill="#f8fdc3" height="35" width="35" x="180" y="432" /><rect fill="#d21e1e" height="35" width="35" x="216" y="432" /><rect fill="#fbfec2" height="35" width="35" x="252" y="432" /><rect fill="#fbfec2" height="35" width="35" x="288" y="432" /><rect fill="#fbfec2" height="35" width="35" x="324" y="432" /><rect fill="#fbfec3" height="35" width="35" x="360" y="432" /><rect fill="#fbfec0" height="35" width="35" x="396" y="432" /><rect fill="#d21e1e" height="35" width="35" x="432" y="432" /><rect fill="#00ff49" height="35" width="35" x="468" y="432" /><rect fill="#007924" height="35" width="35" x="504" y="432" /><rect fill="#007922" height="35" width="35" x="540" y="432" /><rect fill="#00ff49" height="35" width="35" x="0" y="468" /><rect fill="#00ff49" height="35" width="35" x="36" y="468" /><rect fill="#00ff49" height="35" width="35" x="72" y="468" /><rect fill="#00ff49" height="35" width="35" x="108" y="468" /><rect fill="#fcffc3" height="35" width="35" x="144" y="468" /><rect fill="#f9ffc4" height="35" width="35" x="180" y="468" /><rect fill="#fbfec1" height="35" width="35" x="216" y="468" /><rect fill="#fbfec2" height="35" width="35" x="252" y="468" /><rect fill="#fbfec2" height="35" width="35" x="288" y="468" /><rect fill="#fbfec2" height="35" width="35" x="324" y="468" /><rect fill="#fbfec3" height="35" width="35" x="360" y="468" /><rect fill="#fbfec2" height="35" width="35" x="396" y="468" /><rect fill="#d21e1e" height="35" width="35" x="432" y="468" /><rect fill="#027926" height="35" width="35" x="468" y="468" /><rect fill="#007922" height="35" width="35" x="504" y="468" /><rect fill="#007922" height="35" width="35" x="540" y="468" /><rect fill="#01fe4c" height="35" width="35" x="0" y="504" /><rect fill="#03fe4c" height="35" width="35" x="36" y="504" /><rect fill="#03fe4c" height="35" width="35" x="72" y="504" /><rect fill="#02ff4e" height="35" width="35" x="108" y="504" /><rect fill="#faffbd" height="35" width="35" x="144" y="504" /><rect fill="#f9fec5" height="35" width="35" x="180" y="504" /><rect fill="#f9fec8" height="35" width="35" x="216" y="504" /><rect fill="#f9fec8" height="35" width="35" x="252" y="504" /><rect fill="#f9fec8" height="35" width="35" x="288" y="504" /><rect fill="#faffca" height="35" width="35" x="324" y="504" /><rect fill="#f9fec8" height="35" width="35" x="360" y="504" /><rect fill="#f9fec8" height="35" width="35" x="396" y="504" /><rect fill="#007922" height="35" width="35" x="432" y="504" /><rect fill="#007820" height="35" width="35" x="468" y="504" /><rect fill="#007922" height="35" width="35" x="504" y="504" /><rect fill="#007922" height="35" width="35" x="540" y="504" /><rect fill="#007922" height="35" width="35" x="0" y="540" /><rect fill="#007922" height="35" width="35" x="36" y="540" /><rect fill="#007922" height="35" width="35" x="72" y="540" /><rect fill="#007922" height="35" width="35" x="108" y="540" /><rect fill="#79775e" height="35" width="35" x="144" y="540" /><rect fill="#76785c" height="35" width="35" x="180" y="540" /><rect fill="#74775b" height="35" width="35" x="216" y="540" /><rect fill="#76785c" height="35" width="35" x="252" y="540" /><rect fill="#76785c" height="35" width="35" x="288" y="540" /><rect fill="#76785c" height="35" width="35" x="324" y="540" /><rect fill="#76785c" height="35" width="35" x="360" y="540" /><rect fill="#76785c" height="35" width="35" x="396" y="540" /><rect fill="#007922" height="35" width="35" x="432" y="540" /><rect fill="#007922" height="35" width="35" x="468" y="540" /><rect fill="#007922" height="35" width="35" x="504" y="540" /><rect fill="#007922" height="35" width="35" x="540" y="540" /></svg>