<?xml version="1.0" encoding="utf-8" ?>
<svg baseProfile="tiny" height="575" version="1.2" width="575" xmlns="http://www.w3.org/2000/svg" xmlns:ev="http://www.w3.org/2001/xml-events" xmlns:xlink="http://www.w3.org/1999/xlink"><defs /><rect fill="#57afe7" height="35" width="35" x="0" y="0" /><rect fill="#58afe7" height="35" width="35" x="36" y="0" /><rect fill="#57aee6" height="35" width="35" x="72" y="0" /><rect fill="#57aee6" height="35" width="35" x="108" y="0" /><rect fill="#56ade5" height="35" width="35" x="144" y="0" /><rect fill="#57aee6" height="35" width="35" x="180" y="0" /><rect fill="#58afe7" height="35" width="35" x="216" y="0" /><rect fill="#56ade5" height="35" width="35" x="252" y="0" /><rect fill="#57aee6" height="35" width="35" x="288" y="0" /><rect fill="#57aee6" height="35" width="35" x="324" y="0" /><rect fill="#57aee6" height="35" width="35" x="360" y="0" /><rect fill="#57aee6" height="35" width="35" x="396" y="0" /><rect fill="#57aee6" height="35" width="35" x="432" y="0" /><rect fill="#57aee6" height="35" width="35" x="468" y="0" /><rect fill="#57aee6" height="35" width="35" x="504" y="0" /><rect fill="#57aee8" height="35" width="35" x="540" y="0" /><rect fill="#51afea" height="35" width="35" x="0" y="36" /><rect fill="#57afe9" height="35" width="35" x="36" y="36" /><rect fill="#52afe7" height="35" width="35" x="72" y="36" /><rect fill="#54aeec" height="35" width="35" x="108" y="36" /><rect fill="#57afe9" height="35" width="35" x="144" y="36" /><rect fill="#51b0e7" height="35" width="35" x="180" y="36" /><rect fill="#51b0e7" height="35" width="35" x="216" y="36" /><rect fill="#52afec" height="35" width="35" x="252" y="36" /><rect fill="#54afe7" height="35" width="35" x="288" y="36" /><rect fill="#54afe7" height="35" width="35" x="324" y="36" /><rect fill="#53adea" height="35" width="35" x="360" y="36" /><rect fill="#52afe7" height="35" width="35" x="396" y="36" /><rect fill="#54afe7" height="35" width="35" x="432" y="36" /><rect fill="#54aeec" height="35" width="35" x="468" y="36" /><rect fill="#52afe7" height="35" width="35" x="504" y="36" /><rect fill="#52aee9" height="35" width="35" x="540" y="36" /><rect fill="#51b0e8" height="35" width="35" x="0" y="72" /><rect fill="#51b0e7" height="35" width="35" x="36" y="72" /><rect fill="#51b0e7" height="35" width="35" x="72" y="72" /><rect fill="#51b0e7" height="35" width="35" x="108" y="72" /><rect fill="#4eade5" height="35" width="35" x="144" y="72" /><rect fill="#51b0e7" height="35" width="35" x="180" y="72" /><rect fill="#52b1e9" height="35" width="35" x="216" y="72" /><rect fill="#52b1e9" height="35" width="35" x="252" y="72" /><rect fill="#51b0e7" height="35" width="35" x="288" y="72" /><rect fill="#4fafe6" height="35" width="35" x="324" y="72" /><rect fill="#51b0e7" height="35" width="35" x="360" y="72" /><rect fill="#51b0e7" height="35" width="35" x="396" y="72" /><rect fill="#4fafe6" height="35" width="35" x="432" y="72" /><rect fill="#51b0e7" height="35" width="35" x="468" y="72" /><rect fill="#51b0e7" height="35" width="35" x="504" y="72" /><rect fill="#52aee9" height="35" width="35" x="540" y="72" /><rect fill="#4bb1ee" height="35" width="35" x="0" y="108" /><rect fill="#4bb1eb" height="35" width="35" x="36" y="108" /><rect fill="#4bb1ed" height="35" width="35" x="72" y="108" /><rect fill="#4ab1ec" height="35" width="35" x="108" y="108" /><rect fill="#4cb2ee" height="35" width="35" x="144" y="108" /><rect fill="#4bb1ec" height="35" width="35" x="180" y="108" /><rect fill="#4fb1ee" height="35" width="35" x="216" y="108" /><rect fill="#4bb1ec" height="35" width="35" x="252" y="108" /><rect fill="#4ab1ec" height="35" width="35" x="288" y="108" /><rect fill="#fffffc" height="35" width="35" x="324" y="108" /><rect fill="#f9f5df" height="35" width="35" x="360" y="108" /><rect fill="#f8f6db" height="35" width="35" x="396" y="108" /><rect fill="#4eb1ef" height="35" width="35" x="432" y="108" /><rect fill="#4bb1ed" height="35" width="35" x="468" y="108" /><rect fill="#4bb1ec" height="35" width="35" x="504" y="108" /><rect fill="#4cb0eb" height="35" width="35" x="540" y="108" /><rect fill="#49b3ef" height="35" width="35" x="0" y="144" /><rect fill="#49b3eb" height="35" width="35" x="36" y="144" /><rect fill="#48b2e9" height="35" width="35" x="72" y="144" /><rect fill="#49b3ef" height="35" width="35" x="108" y="144" /><rect fill="#49b3eb" height="35" width="35" x="144" y="144" /><rect fill="#fdfffb" height="35" width="35" x="180" y="144" /><rect fill="#43b5ef" height="35" width="35" x="216" y="144" /><rect fill="#49b3ed" height="35" width="35" x="252" y="144" /><rect fill="#49b3ed" height="35" width="35" x="288" y="144" /><rect fill="#fcfffa" height="35" width="35" x="324" y="144" /><rect fill="#000100" height="35" width="35" x="360" y="144" /><rect fill="#fffcff" height="35" width="35" x="396" y="144" /><rect fill="#4bb3ef" height="35" width="35" x="432" y="144" /><rect fill="#42b3ee" height="35" width="35" x="468" y="144" /><rect fill="#47b4ed" height="35" width="35" x="504" y="144" /><rect fill="#4cb4ee" height="35" width="35" x="540" y="144" /><rect fill="#43b4f1" height="35" width="35" x="0" y="180" /><rect fill="#42b5ef" height="35" width="35" x="36" y="180" /><rect fill="#45b4ec" height="35" width="35" x="72" y="180" /><rect fill="#42b5ed" height="35" width="35" x="108" y="180" /><rect fill="#42b5ef" height="35" width="35" x="144" y="180" /><rect fill="#fffffd" height="35" width="35" x="180" y="180" /><rect fill="#fdfcff" height="35" width="35" x="216" y="180" /><rect fill="#43b5ed" height="35" width="35" x="252" y="180" /><rect fill="#43b5ef" height="35" width="35" x="288" y="180" /><rect fill="#fafffc" height="35" width="35" x="324" y="180" /><rect fill="#feffff" height="35" width="35" x="360" y="180" /><rect fill="#f5a700" height="35" width="35" x="396" y="180" /><rect fill="#fea900" height="35" width="35" x="432" y="180" /><rect fill="#42b4eb" height="35" width="35" x="468" y="180" /><rect fill="#42b5ed" height="35" width="35" x="504" y="180" /><rect fill="#46b5ee" height="35" width="35" x="540" y="180" /><rect fill="#40b5f1" height="35" width="35" x="0" y="216" /><rect fill="#41b5ef" height="35" width="35" x="36" y="216" /><rect fill="#41b5ed" height="35" width="35" x="72" y="216" /><rect fill="#3cb7ef" height="35" width="35" x="108" y="216" /><rect fill="#41b5ef" height="35" width="35" x="144" y="216" /><rect fill="#fffffd" height="35" width="35" x="180" y="216" /><rect fill="#fdfdfd" height="35" width="35" x="216" y="216" /><rect fill="#fefeff" height="35" width="35" x="252" y="216" /><rect fill="#3cb7ee" height="35" width="35" x="288" y="216" /><rect fill="#faffff" height="35" width="35" x="324" y="216" /><rect fill="#fdffff" height="35" width="35" x="360" y="216" /><rect fill="#47b6f2" height="35" width="35" x="396" y="216" /><rect fill="#40b5f1" height="35" width="35" x="432" y="216" /><rect fill="#3eb6ef" height="35" width="35" x="468" y="216" /><rect fill="#3cb7ed" height="35" width="35" x="504" y="216" /><rect fill="#45b6ee" height="35" width="35" x="540" y="216" /><rect fill="#3bb9ee" height="35" width="35" x="0" y="252" /><rect fill="#3db8ec" height="35" width="35" x="36" y="252" /><rect fill="#3cb7eb" height="35" width="35" x="72" y="252" /><rect fill="#3db8f0" height="35" width="35" x="108" y="252" /><rect fill="#3fb9ed" height="35" width="35" x="144" y="252" /><rect fill="#41baf3" height="35" width="35" x="180" y="252" /><rect fill="#fbfdfb" height="35" width="35" x="216" y="252" /><rect fill="#fffffd" height="35" width="35" x="252" y="252" /><rect fill="#fffffe" height="35" width="35" x="288" y="252" /><rect fill="#fffffd" height="35" width="35" x="324" y="252" /><rect fill="#ffffff" height="35" width="35" x="360" y="252" /><rect fill="#fcffff" height="35" width="35" x="396" y="252" /><rect fill="#3db8f1" height="35" width="35" x="432" y="252" /><rect fill="#3cb9eb" height="35" width="35" x="468" y="252" /><rect fill="#3cb9eb" height="35" width="35" x="504" y="252" /><rect fill="#3cb9ed" height="35" width="35" x="540" y="252" /><rect fill="#33bbf2" height="35" width="35" x="0" y="288" /><rect fill="#35baee" height="35" width="35" x="36" y="288" /><rect fill="#36baf0" height="35" width="35" x="72" y="288" /><rect fill="#37baf0" height="35" width="35" x="108" y="288" /><rect fill="#39bbf1" height="35" width="35" x="144" y="288" /><rect fill="#3fb9f3" height="35" width="35" x="180" y="288" /><rect fill="#f7fef9" height="35" width="35" x="216" y="288" /><rect fill="#ffffff" height="35" width="35" x="252" y="288" /><rect fill="#ffffff" height="35" width="35" x="288" y="288" /><rect fill="#ffffff" height="35" width="35" x="324" y="288" /><rect fill="#ffffff" height="35" width="35" x="360" y="288" /><rect fill="#ffffff" height="35" width="35" x="396" y="288" /><rect fill="#fdfffd" height="35" width="35" x="432" y="288" /><rect fill="#fffffd" height="35" width="35" x="468" y="288" /><rect fill="#fffffd" height="35" width="35" x="504" y="288" /><rect fill="#fffefc" height="35" width="35" x="540" y="288" /><rect fill="#32bcf5" height="35" width="35" x="0" y="324" /><rect fill="#32baf1" height="35" width="35" x="36" y="324" /><rect fill="#31bbf2" height="35" width="35" x="72" y="324" /><rect fill="#33bbf2" height="35" width="35" x="108" y="324" /><rect fill="#30b8f0" height="35" width="35" x="144" y="324" /><rect fill="#33bbf2" height="35" width="35" x="180" y="324" /><rect fill="#30b8f0" height="35" width="35" x="216" y="324" /><rect fill="#34bcf3" height="35" width="35" x="252" y="324" /><rect fill="#f7feff" height="35" width="35" x="288" y="324" /><rect fill="#ffffff" height="35" width="35" x="324" y="324" /><rect fill="#fefdff" height="35" width="35" x="360" y="324" /><rect fill="#fefdff" height="35" width="35" x="396" y="324" /><rect fill="#fcfefd" height="35" width="35" x="432" y="324" /><rect fill="#fcfffc" height="35" width="35" x="468" y="324" /><rect fill="#fcfffc" height="35" width="35" x="504" y="324" /><rect fill="#37bdee" height="35" width="35" x="540" y="324" /><rect fill="#2fbff6" height="35" width="35" x="0" y="360" /><rect fill="#30bff7" height="35" width="35" x="36" y="360" /><rect fill="#2ebef2" height="35" width="35" x="72" y="360" /><rect fill="#2ebef3" height="35" width="35" x="108" y="360" /><rect fill="#31bff1" height="35" width="35" x="144" y="360" /><rect fill="#2ebef2" height="35" width="35" x="180" y="360" /><rect fill="#2ebef0" height="35" width="35" x="216" y="360" /><rect fill="#2ebcf2" height="35" width="35" x="252" y="360" /><rect fill="#fdfeff" height="35" width="35" x="288" y="360" /><rect fill="#fefeff" height="35" width="35" x="324" y="360" /><rect fill="#ffffff" height="35" width="35" x="360" y="360" /><rect fill="#2bbcf0" height="35" width="35" x="396" y="360" /><rect fill="#fafcf9" height="35" width="35" x="432" y="360" /><rect fill="#fdfefb" height="35" width="35" x="468" y="360" /><rect fill="#33c0f2" height="35" width="35" x="504" y="360" /><rect fill="#2bbaee" height="35" width="35" x="540" y="360" /><rect fill="#27bff5" height="35" width="35" x="0" y="396" /><rect fill="#2bbef5" height="35" width="35" x="36" y="396" /><rect fill="#2bbff1" height="35" width="35" x="72" y="396" /><rect fill="#2bbff1" height="35" width="35" x="108" y="396" /><rect fill="#2bbff1" height="35" width="35" x="144" y="396" /><rect fill="#29bff1" height="35" width="35" x="180" y="396" /><rect fill="#30bdf8" height="35" width="35" x="216" y="396" /><rect fill="#2bbff3" height="35" width="35" x="252" y="396" /><rect fill="#feb103" height="35" width="35" x="288" y="396" /><rect fill="#2cbcf6" height="35" width="35" x="324" y="396" /><rect fill="#feb600" height="35" width="35" x="360" y="396" /><rect fill="#28bef4" height="35" width="35" x="396" y="396" /><rect fill="#2bbff3" height="35" width="35" x="432" y="396" /><rect fill="#28bef0" height="35" width="35" x="468" y="396" /><rect fill="#28bef0" height="35" width="35" x="504" y="396" /><rect fill="#2abef0" height="35" width="35" x="540" y="396" /><rect fill="#1ac7f8" height="35" width="35" x="0" y="432" /><rect fill="#1bc6f8" height="35" width="35" x="36" y="432" /><rect fill="#1dc6f8" height="35" width="35" x="72" y="432" /><rect fill="#18c7f7" height="35" width="35" x="108" y="432" /><rect fill="#1ac7f8" height="35" width="35" x="144" y="432" /><rect fill="#1ac7f6" height="35" width="35" x="180" y="432" /><rect fill="#9c3105" height="35" width="35" x="216" y="432" /><rect fill="#1bc6f6" height="35" width="35" x="252" y="432" /><rect fill="#cb8f00" height="35" width="35" x="288" y="432" /><rect fill="#19c4f8" height="35" width="35" x="324" y="432" /><rect fill="#ffb401" height="35" width="35" x="360" y="432" /><rect fill="#fdb500" height="35" width="35" x="396" y="432" /><rect fill="#1cc6f4" height="35" width="35" x="432" y="432" /><rect fill="#1cc6f6" height="35" width="35" x="468" y="432" /><rect fill="#1ac7f8" height="35" width="35" x="504" y="432" /><rect fill="#1dc6f8" height="35" width="35" x="540" y="432" /><rect fill="#0cccf9" height="35" width="35" x="0" y="468" /><rect fill="#0bcbf8" height="35" width="35" x="36" y="468" /><rect fill="#0bcbf8" height="35" width="35" x="72" y="468" /><rect fill="#09cbf8" height="35" width="35" x="108" y="468" /><rect fill="#0cccf9" height="35" width="35" x="144" y="468" /><rect fill="#0cccf9" height="35" width="35" x="180" y="468" /><rect fill="#0bcbf8" height="35" width="35" x="216" y="468" /><rect fill="#923200" height="35" width="35" x="252" y="468" /><rect fill="#973001" height="35" width="35" x="288" y="468" /><rect fill="#933200" height="35" width="35" x="324" y="468" /><rect fill="#933200" height="35" width="35" x="360" y="468" /><rect fill="#933200" height="35" width="35" x="396" y="468" /><rect fill="#9c2e00" height="35" width="35" x="432" y="468" /><rect fill="#9b2f00" height="35" width="35" x="468" y="468" /><rect fill="#0dcbf9" height="35" width="35" x="504" y="468" /><rect fill="#0bcbf8" height="35" width="35" x="540" y="468" /><rect fill="#00d0fd" height="35" width="35" x="0" y="504" /><rect fill="#00d0fd" height="35" width="35" x="36" y="504" /><rect fill="#03cefd" height="35" width="35" x="72" y="504" /><rect fill="#02cefd" height="35" width="35" x="108" y="504" /><rect fill="#03cefd" height="35" width="35" x="144" y="504" /><rect fill="#03cffe" height="35" width="35" x="180" y="504" /><rect fill="#02cdfc" height="35" width="35" x="216" y="504" /><rect fill="#04d1fe" height="35" width="35" x="252" y="504" /><rect fill="#070300" height="35" width="35" x="288" y="504" /><rect fill="#02ceff" height="35" width="35" x="324" y="504" /><rect fill="#02d3ff" height="35" width="35" x="360" y="504" /><rect fill="#00d4ff" height="35" width="35" x="396" y="504" /><rect fill="#020001" height="35" width="35" x="432" y="504" /><rect fill="#00cffa" height="35" width="35" x="468" y="504" /><rect fill="#00d0fd" height="35" width="35" x="504" y="504" /><rect fill="#00d0fd" height="35" width="35" x="540" y="504" /><rect fill="#6d6668" height="35" width="35" x="0" y="540" /><rect fill="#686664" height="35" width="35" x="36" y="540" /><rect fill="#6b6766" height="35" width="35" x="72" y="540" /><rect fill="#686664" height="35" width="35" x="108" y="540" /><rect fill="#6b6867" height="35" width="35" x="144" y="540" /><rect fill="#686664" height="35" width="35" x="180" y="540" /><rect fill="#6a6664" height="35" width="35" x="216" y="540" /><rect fill="#686666" height="35" width="35" x="252" y="540" /><rect fill="#686664" height="35" width="35" x="288" y="540" /><rect fill="#666764" height="35" width="35" x="324" y="540" /><rect fill="#666764" height="35" width="35" x="360" y="540" /><rect fill="#686863" height="35" width="35" x="396" y="540" /><rect fill="#686863" height="35" width="35" x="432" y="540" /><rect fill="#666764" height="35" width="35" x="468" y="540" /><rect fill="#666764" height="35" width="35" x="504" y="540" /><rect fill="#666666" height="35" width="35" x="540" y="540" /></svg>