<?xml version="1.0" encoding="utf-8" ?>
<svg baseProfile="tiny" height="575" version="1.2" width="575" xmlns="http://www.w3.org/2000/svg" xmlns:ev="http://www.w3.org/2001/xml-events" xmlns:xlink="http://www.w3.org/1999/xlink"><defs /><rect fill="#56aeec" height="35" width="35" x="0" y="0" /><rect fill="#57aee8" height="35" width="35" x="36" y="0" /><rect fill="#57aee6" height="35" width="35" x="72" y="0" /><rect fill="#56ace9" height="35" width="35" x="108" y="0" /><rect fill="#56ade5" height="35" width="35" x="144" y="0" /><rect fill="#57aee6" height="35" width="35" x="180" y="0" /><rect fill="#58afe7" height="35" width="35" x="216" y="0" /><rect fill="#56ade6" height="35" width="35" x="252" y="0" /><rect fill="#57aee6" height="35" width="35" x="288" y="0" /><rect fill="#57aee7" height="35" width="35" x="324" y="0" /><rect fill="#57aee6" height="35" width="35" x="360" y="0" /><rect fill="#57adea" height="35" width="35" x="396" y="0" /><rect fill="#57aee6" height="35" width="35" x="432" y="0" /><rect fill="#56ade7" height="35" width="35" x="468" y="0" /><rect fill="#57aee7" height="35" width="35" x="504" y="0" /><rect fill="#56ace7" height="35" width="35" x="540" y="0" /><rect fill="#4fb0ed" height="35" width="35" x="0" y="36" /><rect fill="#57afe9" height="35" width="35" x="36" y="36" /><rect fill="#52afe7" height="35" width="35" x="72" y="36" /><rect fill="#51afec" height="35" width="35" x="108" y="36" /><rect fill="#54b0e9" height="35" width="35" x="144" y="36" /><rect fill="#51b0e9" height="35" width="35" x="180" y="36" /><rect fill="#51afec" height="35" width="35" x="216" y="36" /><rect fill="#51afec" height="35" width="35" x="252" y="36" /><rect fill="#51b0e9" height="35" width="35" x="288" y="36" /><rect fill="#54afe9" height="35" width="35" x="324" y="36" /><rect fill="#51aeea" height="35" width="35" x="360" y="36" /><rect fill="#51b0e9" height="35" width="35" x="396" y="36" /><rect fill="#54aeec" height="35" width="35" x="432" y="36" /><rect fill="#51afec" height="35" width="35" x="468" y="36" /><rect fill="#52afea" height="35" width="35" x="504" y="36" /><rect fill="#52afe9" height="35" width="35" x="540" y="36" /><rect fill="#4fb0ea" height="35" width="35" x="0" y="72" /><rect fill="#52afe7" height="35" width="35" x="36" y="72" /><rect fill="#51b0e7" height="35" width="35" x="72" y="72" /><rect fill="#51b0e7" height="35" width="35" x="108" y="72" /><rect fill="#4eade5" height="35" width="35" x="144" y="72" /><rect fill="#51b0e7" height="35" width="35" x="180" y="72" /><rect fill="#51b0e7" height="35" width="35" x="216" y="72" /><rect fill="#51b0e7" height="35" width="35" x="252" y="72" /><rect fill="#51b0e7" height="35" width="35" x="288" y="72" /><rect fill="#51b0e7" height="35" width="35" x="324" y="72" /><rect fill="#51b0e7" height="35" width="35" x="360" y="72" /><rect fill="#51b0e7" height="35" width="35" x="396" y="72" /><rect fill="#fffeff" height="35" width="35" x="432" y="72" /><rect fill="#fff4db" height="35" width="35" x="468" y="72" /><rect fill="#fff4db" height="35" width="35" x="504" y="72" /><rect fill="#51aee8" height="35" width="35" x="540" y="72" /><rect fill="#4bb1f0" height="35" width="35" x="0" y="108" /><rect fill="#4bb1eb" height="35" width="35" x="36" y="108" /><rect fill="#4bb1ed" height="35" width="35" x="72" y="108" /><rect fill="#4bb1ed" height="35" width="35" x="108" y="108" /><rect fill="#4cb2ee" height="35" width="35" x="144" y="108" /><rect fill="#4bb1ed" height="35" width="35" x="180" y="108" /><rect fill="#4bb1ee" height="35" width="35" x="216" y="108" /><rect fill="#49b1ed" height="35" width="35" x="252" y="108" /><rect fill="#fffeff" height="35" width="35" x="288" y="108" /><rect fill="#4bb1ec" height="35" width="35" x="324" y="108" /><rect fill="#47b2ee" height="35" width="35" x="360" y="108" /><rect fill="#4bb1ee" height="35" width="35" x="396" y="108" /><rect fill="#ffffff" height="35" width="35" x="432" y="108" /><rect fill="#000002" height="35" width="35" x="468" y="108" /><rect fill="#fcfdfe" height="35" width="35" x="504" y="108" /><rect fill="#4dafed" height="35" width="35" x="540" y="108" /><rect fill="#49b3ef" height="35" width="35" x="0" y="144" /><rect fill="#49b3eb" height="35" width="35" x="36" y="144" /><rect fill="#48b2e9" height="35" width="35" x="72" y="144" /><rect fill="#49b3ed" height="35" width="35" x="108" y="144" /><rect fill="#49b3eb" height="35" width="35" x="144" y="144" /><rect fill="#49b3ed" height="35" width="35" x="180" y="144" /><rect fill="#49b3ed" height="35" width="35" x="216" y="144" /><rect fill="#47b4ed" height="35" width="35" x="252" y="144" /><rect fill="#fffffd" height="35" width="35" x="288" y="144" /><rect fill="#ffffff" height="35" width="35" x="324" y="144" /><rect fill="#47b3f1" height="35" width="35" x="360" y="144" /><rect fill="#47b3ef" height="35" width="35" x="396" y="144" /><rect fill="#fffffd" height="35" width="35" x="432" y="144" /><rect fill="#ffffff" height="35" width="35" x="468" y="144" /><rect fill="#f5a700" height="35" width="35" x="504" y="144" /><rect fill="#faa601" height="35" width="35" x="540" y="144" /><rect fill="#43b4f1" height="35" width="35" x="0" y="180" /><rect fill="#42b5ef" height="35" width="35" x="36" y="180" /><rect fill="#42b5ef" height="35" width="35" x="72" y="180" /><rect fill="#40b5ef" height="35" width="35" x="108" y="180" /><rect fill="#42b5ef" height="35" width="35" x="144" y="180" /><rect fill="#40b6ef" height="35" width="35" x="180" y="180" /><rect fill="#40b6ef" height="35" width="35" x="216" y="180" /><rect fill="#42b5f1" height="35" width="35" x="252" y="180" /><rect fill="#ffffff" height="35" width="35" x="288" y="180" /><rect fill="#ffffff" height="35" width="35" x="324" y="180" /><rect fill="#ffffff" height="35" width="35" x="360" y="180" /><rect fill="#45b4f3" height="35" width="35" x="396" y="180" /><rect fill="#fffffd" height="35" width="35" x="432" y="180" /><rect fill="#ffffff" height="35" width="35" x="468" y="180" /><rect fill="#40b6ef" height="35" width="35" x="504" y="180" /><rect fill="#46b5ee" height="35" width="35" x="540" y="180" /><rect fill="#3db6f1" height="35" width="35" x="0" y="216" /><rect fill="#42b5ef" height="35" width="35" x="36" y="216" /><rect fill="#42b5ed" height="35" width="35" x="72" y="216" /><rect fill="#3cb7f0" height="35" width="35" x="108" y="216" /><rect fill="#41b5ef" height="35" width="35" x="144" y="216" /><rect fill="#40b6ed" height="35" width="35" x="180" y="216" /><rect fill="#40b6eb" height="35" width="35" x="216" y="216" /><rect fill="#3eb6ed" height="35" width="35" x="252" y="216" /><rect fill="#45b9f3" height="35" width="35" x="288" y="216" /><rect fill="#ffffff" height="35" width="35" x="324" y="216" /><rect fill="#ffffff" height="35" width="35" x="360" y="216" /><rect fill="#fcfbfe" height="35" width="35" x="396" y="216" /><rect fill="#ffffff" height="35" width="35" x="432" y="216" /><rect fill="#ffffff" height="35" width="35" x="468" y="216" /><rect fill="#fcffff" height="35" width="35" x="504" y="216" /><rect fill="#44b5f2" height="35" width="35" x="540" y="216" /><rect fill="#fdffff" height="35" width="35" x="0" y="252" /><rect fill="#fffeff" height="35" width="35" x="36" y="252" /><rect fill="#feffff" height="35" width="35" x="72" y="252" /><rect fill="#3db8f0" height="35" width="35" x="108" y="252" /><rect fill="#3fb9ed" height="35" width="35" x="144" y="252" /><rect fill="#3dbaef" height="35" width="35" x="180" y="252" /><rect fill="#3cb9ec" height="35" width="35" x="216" y="252" /><rect fill="#3cb9ee" height="35" width="35" x="252" y="252" /><rect fill="#3cb9ee" height="35" width="35" x="288" y="252" /><rect fill="#fffffd" height="35" width="35" x="324" y="252" /><rect fill="#fefffe" height="35" width="35" x="360" y="252" /><rect fill="#ffffff" height="35" width="35" x="396" y="252" /><rect fill="#ffffff" height="35" width="35" x="432" y="252" /><rect fill="#fcfffc" height="35" width="35" x="468" y="252" /><rect fill="#ffffff" height="35" width="35" x="504" y="252" /><rect fill="#fcfffc" height="35" width="35" x="540" y="252" /><rect fill="#ffffff" height="35" width="35" x="0" y="288" /><rect fill="#ffffff" height="35" width="35" x="36" y="288" /><rect fill="#34baf4" height="35" width="35" x="72" y="288" /><rect fill="#34baf2" height="35" width="35" x="108" y="288" /><rect fill="#39bbf1" height="35" width="35" x="144" y="288" /><rect fill="#39baf3" height="35" width="35" x="180" y="288" /><rect fill="#38b9f2" height="35" width="35" x="216" y="288" /><rect fill="#34baf2" height="35" width="35" x="252" y="288" /><rect fill="#36baf0" height="35" width="35" x="288" y="288" /><rect fill="#33bbf0" height="35" width="35" x="324" y="288" /><rect fill="#36baf4" height="35" width="35" x="360" y="288" /><rect fill="#fefefe" height="35" width="35" x="396" y="288" /><rect fill="#fdfffd" height="35" width="35" x="432" y="288" /><rect fill="#fffffd" height="35" width="35" x="468" y="288" /><rect fill="#ffffff" height="35" width="35" x="504" y="288" /><rect fill="#fffefc" height="35" width="35" x="540" y="288" /><rect fill="#fdfffd" height="35" width="35" x="0" y="324" /><rect fill="#33bbed" height="35" width="35" x="36" y="324" /><rect fill="#31bbf2" height="35" width="35" x="72" y="324" /><rect fill="#33bbf2" height="35" width="35" x="108" y="324" /><rect fill="#30b8f0" height="35" width="35" x="144" y="324" /><rect fill="#33bbf2" height="35" width="35" x="180" y="324" /><rect fill="#34bcf3" height="35" width="35" x="216" y="324" /><rect fill="#34bcf3" height="35" width="35" x="252" y="324" /><rect fill="#33bbf2" height="35" width="35" x="288" y="324" /><rect fill="#33bbf2" height="35" width="35" x="324" y="324" /><rect fill="#33bbf2" height="35" width="35" x="360" y="324" /><rect fill="#fdfdfd" height="35" width="35" x="396" y="324" /><rect fill="#fcfefd" height="35" width="35" x="432" y="324" /><rect fill="#fdfffd" height="35" width="35" x="468" y="324" /><rect fill="#31bbf2" height="35" width="35" x="504" y="324" /><rect fill="#fdfbf9" height="35" width="35" x="540" y="324" /><rect fill="#30bff6" height="35" width="35" x="0" y="360" /><rect fill="#2dbdef" height="35" width="35" x="36" y="360" /><rect fill="#2ebef2" height="35" width="35" x="72" y="360" /><rect fill="#2ebef3" height="35" width="35" x="108" y="360" /><rect fill="#31bff1" height="35" width="35" x="144" y="360" /><rect fill="#2ebef2" height="35" width="35" x="180" y="360" /><rect fill="#2ebef0" height="35" width="35" x="216" y="360" /><rect fill="#2ebcf2" height="35" width="35" x="252" y="360" /><rect fill="#30bdf2" height="35" width="35" x="288" y="360" /><rect fill="#2ebcf2" height="35" width="35" x="324" y="360" /><rect fill="#2ebcf2" height="35" width="35" x="360" y="360" /><rect fill="#ffb403" height="35" width="35" x="396" y="360" /><rect fill="#2dbcf8" height="35" width="35" x="432" y="360" /><rect fill="#feb600" height="35" width="35" x="468" y="360" /><rect fill="#2fbcf1" height="35" width="35" x="504" y="360" /><rect fill="#2bbbf1" height="35" width="35" x="540" y="360" /><rect fill="#27bff5" height="35" width="35" x="0" y="396" /><rect fill="#2bbff1" height="35" width="35" x="36" y="396" /><rect fill="#2bbff1" height="35" width="35" x="72" y="396" /><rect fill="#2bbff1" height="35" width="35" x="108" y="396" /><rect fill="#2bbff1" height="35" width="35" x="144" y="396" /><rect fill="#2abef0" height="35" width="35" x="180" y="396" /><rect fill="#27bbf0" height="35" width="35" x="216" y="396" /><rect fill="#2bbff3" height="35" width="35" x="252" y="396" /><rect fill="#2bbef5" height="35" width="35" x="288" y="396" /><rect fill="#30bdf3" height="35" width="35" x="324" y="396" /><rect fill="#27c0f3" height="35" width="35" x="360" y="396" /><rect fill="#fdb403" height="35" width="35" x="396" y="396" /><rect fill="#2abcf1" height="35" width="35" x="432" y="396" /><rect fill="#ffb400" height="35" width="35" x="468" y="396" /><rect fill="#28beee" height="35" width="35" x="504" y="396" /><rect fill="#26bef4" height="35" width="35" x="540" y="396" /><rect fill="#1ac7f8" height="35" width="35" x="0" y="432" /><rect fill="#1bc6f8" height="35" width="35" x="36" y="432" /><rect fill="#1bc6f8" height="35" width="35" x="72" y="432" /><rect fill="#1ac6f9" height="35" width="35" x="108" y="432" /><rect fill="#1cc6f8" height="35" width="35" x="144" y="432" /><rect fill="#1bc8f7" height="35" width="35" x="180" y="432" /><rect fill="#1cc6f6" height="35" width="35" x="216" y="432" /><rect fill="#1ac7f6" height="35" width="35" x="252" y="432" /><rect fill="#1ac7f6" height="35" width="35" x="288" y="432" /><rect fill="#9d3000" height="35" width="35" x="324" y="432" /><rect fill="#19c7f9" height="35" width="35" x="360" y="432" /><rect fill="#c79100" height="35" width="35" x="396" y="432" /><rect fill="#18c7f8" height="35" width="35" x="432" y="432" /><rect fill="#fdb500" height="35" width="35" x="468" y="432" /><rect fill="#ffb400" height="35" width="35" x="504" y="432" /><rect fill="#1dc5f8" height="35" width="35" x="540" y="432" /><rect fill="#9b2d00" height="35" width="35" x="0" y="468" /><rect fill="#08cbf8" height="35" width="35" x="36" y="468" /><rect fill="#0bcbf8" height="35" width="35" x="72" y="468" /><rect fill="#0cccfa" height="35" width="35" x="108" y="468" /><rect fill="#0ecbf9" height="35" width="35" x="144" y="468" /><rect fill="#0dcaf8" height="35" width="35" x="180" y="468" /><rect fill="#0dcbf9" height="35" width="35" x="216" y="468" /><rect fill="#0bcbf6" height="35" width="35" x="252" y="468" /><rect fill="#0bcbf8" height="35" width="35" x="288" y="468" /><rect fill="#08c7f8" height="35" width="35" x="324" y="468" /><rect fill="#992e00" height="35" width="35" x="360" y="468" /><rect fill="#972f03" height="35" width="35" x="396" y="468" /><rect fill="#962d01" height="35" width="35" x="432" y="468" /><rect fill="#982f01" height="35" width="35" x="468" y="468" /><rect fill="#952f00" height="35" width="35" x="504" y="468" /><rect fill="#982f05" height="35" width="35" x="540" y="468" /><rect fill="#00d0fd" height="35" width="35" x="0" y="504" /><rect fill="#00d0fd" height="35" width="35" x="36" y="504" /><rect fill="#03cefd" height="35" width="35" x="72" y="504" /><rect fill="#01cffd" height="35" width="35" x="108" y="504" /><rect fill="#03cefd" height="35" width="35" x="144" y="504" /><rect fill="#02cdfc" height="35" width="35" x="180" y="504" /><rect fill="#04cffe" height="35" width="35" x="216" y="504" /><rect fill="#03cefd" height="35" width="35" x="252" y="504" /><rect fill="#05cfff" height="35" width="35" x="288" y="504" /><rect fill="#02ceff" height="35" width="35" x="324" y="504" /><rect fill="#03cfff" height="35" width="35" x="360" y="504" /><rect fill="#070102" height="35" width="35" x="396" y="504" /><rect fill="#00d2ff" height="35" width="35" x="432" y="504" /><rect fill="#00d1fe" height="35" width="35" x="468" y="504" /><rect fill="#00d4ff" height="35" width="35" x="504" y="504" /><rect fill="#000001" height="35" width="35" x="540" y="504" /><rect fill="#686666" height="35" width="35" x="0" y="540" /><rect fill="#686664" height="35" width="35" x="36" y="540" /><rect fill="#6b6766" height="35" width="35" x="72" y="540" /><rect fill="#686664" height="35" width="35" x="108" y="540" /><rect fill="#6b6867" height="35" width="35" x="144" y="540" /><rect fill="#686664" height="35" width="35" x="180" y="540" /><rect fill="#686664" height="35" width="35" x="216" y="540" /><rect fill="#686664" height="35" width="35" x="252" y="540" /><rect fill="#686664" height="35" width="35" x="288" y="540" /><rect fill="#686664" height="35" width="35" x="324" y="540" /><rect fill="#686664" height="35" width="35" x="360" y="540" /><rect fill="#686664" height="35" width="35" x="396" y="540" /><rect fill="#696766" height="35" width="35" x="432" y="540" /><rect fill="#666762" height="35" width="35" x="468" y="540" /><rect fill="#686662" height="35" width="35" x="504" y="540" /><rect fill="#686666" height="35" width="35" x="540" y="540" /></svg>