<?xml version="1.0" encoding="utf-8" ?>
<svg baseProfile="tiny" height="575" version="1.2" width="575" xmlns="http://www.w3.org/2000/svg" xmlns:ev="http://www.w3.org/2001/xml-events" xmlns:xlink="http://www.w3.org/1999/xlink"><defs /><rect fill="#000000" height="35" width="35" x="0" y="0" /><rect fill="#000000" height="35" width="35" x="36" y="0" /><rect fill="#000000" height="35" width="35" x="72" y="0" /><rect fill="#000000" height="35" width="35" x="108" y="0" /><rect fill="#000000" height="35" width="35" x="144" y="0" /><rect fill="#000000" height="35" width="35" x="180" y="0" /><rect fill="#000000" height="35" width="35" x="216" y="0" /><rect fill="#000000" height="35" width="35" x="252" y="0" /><rect fill="#000000" height="35" width="35" x="288" y="0" /><rect fill="#000000" height="35" width="35" x="324" y="0" /><rect fill="#000000" height="35" width="35" x="360" y="0" /><rect fill="#000000" height="35" width="35" x="396" y="0" /><rect fill="#000000" height="35" width="35" x="432" y="0" /><rect fill="#000000" height="35" width="35" x="468" y="0" /><rect fill="#000000" height="35" width="35" x="504" y="0" /><rect fill="#000000" height="35" width="35" x="540" y="0" /><rect fill="#000000" height="35" width="35" x="0" y="36" /><rect fill="#000000" height="35" width="35" x="36" y="36" /><rect fill="#000000" height="35" width="35" x="72" y="36" /><rect fill="#000000" height="35" width="35" x="108" y="36" /><rect fill="#000000" height="35" width="35" x="144" y="36" /><rect fill="#000000" height="35" width="35" x="180" y="36" /><rect fill="#000000" height="35" width="35" x="216" y="36" /><rect fill="#000000" height="35" width="35" x="252" y="36" /><rect fill="#000000" height="35" width="35" x="288" y="36" /><rect fill="#000000" height="35" width="35" x="324" y="36" /><rect fill="#000000" height="35" width="35" x="360" y="36" /><rect fill="#000000" height="35" width="35" x="396" y="36" /><rect fill="#000000" height="35" width="35" x="432" y="36" /><rect fill="#000000" height="35" width="35" x="468" y="36" /><rect fill="#000000" height="35" width="35" x="504" y="36" /><rect fill="#000000" height="35" width="35" x="540" y="36" /><rect fill="#000000" height="35" width="35" x="0" y="72" /><rect fill="#000000" height="35" width="35" x="36" y="72" /><rect fill="#000000" height="35" width="35" x="72" y="72" /><rect fill="#000000" height="35" width="35" x="108" y="72" /><rect fill="#000000" height="35" width="35" x="144" y="72" /><rect fill="#000000" height="35" width="35" x="180" y="72" /><rect fill="#000000" height="35" width="35" x="216" y="72" /><rect fill="#000000" height="35" width="35" x="252" y="72" /><rect fill="#000000" height="35" width="35" x="288" y="72" /><rect fill="#000000" height="35" width="35" x="324" y="72" /><rect fill="#000000" height="35" width="35" x="360" y="72" /><rect fill="#000000" height="35" width="35" x="396" y="72" /><rect fill="#000000" height="35" width="35" x="432" y="72" /><rect fill="#000000" height="35" width="35" x="468" y="72" /><rect fill="#000000" height="35" width="35" x="504" y="72" /><rect fill="#000000" height="35" width="35" x="540" y="72" /><rect fill="#000000" height="35" width="35" x="0" y="108" /><rect fill="#000000" height="35" width="35" x="36" y="108" /><rect fill="#000000" height="35" width="35" x="72" y="108" /><rect fill="#000000" height="35" width="35" x="108" y="108" /><rect fill="#000000" height="35" width="35" x="144" y="108" /><rect fill="#000000" height="35" width="35" x="180" y="108" /><rect fill="#000000" height="35" width="35" x="216" y="108" /><rect fill="#000000" height="35" width="35" x="252" y="108" /><rect fill="#000000" height="35" width="35" x="288" y="108" /><rect fill="#b84a04" height="35" width="35" x="324" y="108" /><rect fill="#bc5204" height="35" width="35" x="360" y="108" /><rect fill="#bc5104" height="35" width="35" x="396" y="108" /><rect fill="#b84904" height="35" width="35" x="432" y="108" /><rect fill="#000000" height="35" width="35" x="468" y="108" /><rect fill="#000000" height="35" width="35" x="504" y="108" /><rect fill="#000000" height="35" width="35" x="540" y="108" /><rect fill="#000000" height="35" width="35" x="0" y="144" /><rect fill="#000000" height="35" width="35" x="36" y="144" /><rect fill="#000000" height="35" width="35" x="72" y="144" /><rect fill="#b44204" height="35" width="35" x="108" y="144" /><rect fill="#b44204" height="35" width="35" x="144" y="144" /><rect fill="#000000" height="35" width="35" x="180" y="144" /><rect fill="#000000" height="35" width="35" x="216" y="144" /><rect fill="#ba4a04" height="35" width="35" x="252" y="144" /><rect fill="#c25c04" height="35" width="35" x="288" y="144" /><rect fill="#c86b04" height="35" width="35" x="324" y="144" /><rect fill="#c86c04" height="35" width="35" x="360" y="144" /><rect fill="#c05b04" height="35" width="35" x="396" y="144" /><rect fill="#b64904" height="35" width="35" x="432" y="144" /><rect fill="#000000" height="35" width="35" x="468" y="144" /><rect fill="#000000" height="35" width="35" x="504" y="144" /><rect fill="#000000" height="35" width="35" x="540" y="144" /><rect fill="#000000" height="35" width="35" x="0" y="180" /><rect fill="#000000" height="35" width="35" x="36" y="180" /><rect fill="#000000" height="35" width="35" x="72" y="180" /><rect fill="#000000" height="35" width="35" x="108" y="180" /><rect fill="#000000" height="35" width="35" x="144" y="180" /><rect fill="#000000" height="35" width="35" x="180" y="180" /><rect fill="#b84c04" height="35" width="35" x="216" y="180" /><rect fill="#c25e04" height="35" width="35" x="252" y="180" /><rect fill="#c86c04" height="35" width="35" x="288" y="180" /><rect fill="#ca7004" height="35" width="35" x="324" y="180" /><rect fill="#c86904" height="35" width="35" x="360" y="180" /><rect fill="#c05904" height="35" width="35" x="396" y="180" /><rect fill="#b84b04" height="35" width="35" x="432" y="180" /><rect fill="#b64a04" height="35" width="35" x="468" y="180" /><rect fill="#000000" height="35" width="35" x="504" y="180" /><rect fill="#000000" height="35" width="35" x="540" y="180" /><rect fill="#000000" height="35" width="35" x="0" y="216" /><rect fill="#000000" height="35" width="35" x="36" y="216" /><rect fill="#000000" height="35" width="35" x="72" y="216" /><rect fill="#000000" height="35" width="35" x="108" y="216" /><rect fill="#000000" height="35" width="35" x="144" y="216" /><rect fill="#000000" height="35" width="35" x="180" y="216" /><rect fill="#b44204" height="35" width="35" x="216" y="216" /><rect fill="#b84e04" height="35" width="35" x="252" y="216" /><rect fill="#c25a04" height="35" width="35" x="288" y="216" /><rect fill="#c05b04" height="35" width="35" x="324" y="216" /><rect fill="#c05904" height="35" width="35" x="360" y="216" /><rect fill="#be5504" height="35" width="35" x="396" y="216" /><rect fill="#c05c04" height="35" width="35" x="432" y="216" /><rect fill="#c05804" height="35" width="35" x="468" y="216" /><rect fill="#b44204" height="35" width="35" x="504" y="216" /><rect fill="#000000" height="35" width="35" x="540" y="216" /><rect fill="#000000" height="35" width="35" x="0" y="252" /><rect fill="#b44204" height="35" width="35" x="36" y="252" /><rect fill="#ba4d04" height="35" width="35" x="72" y="252" /><rect fill="#ba4c04" height="35" width="35" x="108" y="252" /><rect fill="#b84a04" height="35" width="35" x="144" y="252" /><rect fill="#b84904" height="35" width="35" x="180" y="252" /><rect fill="#b43f04" height="35" width="35" x="216" y="252" /><rect fill="#000000" height="35" width="35" x="252" y="252" /><rect fill="#b44604" height="35" width="35" x="288" y="252" /><rect fill="#c05904" height="35" width="35" x="324" y="252" /><rect fill="#ce7a04" height="35" width="35" x="360" y="252" /><rect fill="#d88e0c" height="35" width="35" x="396" y="252" /><rect fill="#cc7704" height="35" width="35" x="432" y="252" /><rect fill="#ce7804" height="35" width="35" x="468" y="252" /><rect fill="#c86904" height="35" width="35" x="504" y="252" /><rect fill="#000000" height="35" width="35" x="540" y="252" /><rect fill="#000000" height="35" width="35" x="0" y="288" /><rect fill="#be5904" height="35" width="35" x="36" y="288" /><rect fill="#c05804" height="35" width="35" x="72" y="288" /><rect fill="#ba5004" height="35" width="35" x="108" y="288" /><rect fill="#bc5204" height="35" width="35" x="144" y="288" /><rect fill="#ba4d04" height="35" width="35" x="180" y="288" /><rect fill="#ba5004" height="35" width="35" x="216" y="288" /><rect fill="#c25e04" height="35" width="35" x="252" y="288" /><rect fill="#d07d06" height="35" width="35" x="288" y="288" /><rect fill="#d4870c" height="35" width="35" x="324" y="288" /><rect fill="#e4ac24" height="35" width="35" x="360" y="288" /><rect fill="#e4af26" height="35" width="35" x="396" y="288" /><rect fill="#de9c16" height="35" width="35" x="432" y="288" /><rect fill="#d4820c" height="35" width="35" x="468" y="288" /><rect fill="#ca6e04" height="35" width="35" x="504" y="288" /><rect fill="#000000" height="35" width="35" x="540" y="288" /><rect fill="#000000" height="35" width="35" x="0" y="324" /><rect fill="#b44204" height="35" width="35" x="36" y="324" /><rect fill="#b64804" height="35" width="35" x="72" y="324" /><rect fill="#b44304" height="35" width="35" x="108" y="324" /><rect fill="#b84a04" height="35" width="35" x="144" y="324" /><rect fill="#b84e04" height="35" width="35" x="180" y="324" /><rect fill="#bc5404" height="35" width="35" x="216" y="324" /><rect fill="#cc7304" height="35" width="35" x="252" y="324" /><rect fill="#d8900e" height="35" width="35" x="288" y="324" /><rect fill="#e6b52e" height="35" width="35" x="324" y="324" /><rect fill="#e2a31c" height="35" width="35" x="360" y="324" /><rect fill="#e0a51e" height="35" width="35" x="396" y="324" /><rect fill="#d89010" height="35" width="35" x="432" y="324" /><rect fill="#c86a04" height="35" width="35" x="468" y="324" /><rect fill="#bc5204" height="35" width="35" x="504" y="324" /><rect fill="#000000" height="35" width="35" x="540" y="324" /><rect fill="#000000" height="35" width="35" x="0" y="360" /><rect fill="#000000" height="35" width="35" x="36" y="360" /><rect fill="#c86a04" height="35" width="35" x="72" y="360" /><rect fill="#b64704" height="35" width="35" x="108" y="360" /><rect fill="#b64904" height="35" width="35" x="144" y="360" /><rect fill="#c86804" height="35" width="35" x="180" y="360" /><rect fill="#c05804" height="35" width="35" x="216" y="360" /><rect fill="#c66604" height="35" width="35" x="252" y="360" /><rect fill="#e4ae24" height="35" width="35" x="288" y="360" /><rect fill="#ecc94a" height="35" width="35" x="324" y="360" /><rect fill="#fcfefc" height="35" width="35" x="360" y="360" /><rect fill="#f4e28c" height="35" width="35" x="396" y="360" /><rect fill="#e8b834" height="35" width="35" x="432" y="360" /><rect fill="#d4890c" height="35" width="35" x="468" y="360" /><rect fill="#d4820c" height="35" width="35" x="504" y="360" /><rect fill="#000000" height="35" width="35" x="540" y="360" /><rect fill="#000000" height="35" width="35" x="0" y="396" /><rect fill="#000000" height="35" width="35" x="36" y="396" /><rect fill="#d2800a" height="35" width="35" x="72" y="396" /><rect fill="#f2d568" height="35" width="35" x="108" y="396" /><rect fill="#e4ac24" height="35" width="35" x="144" y="396" /><rect fill="#c86904" height="35" width="35" x="180" y="396" /><rect fill="#c05904" height="35" width="35" x="216" y="396" /><rect fill="#c46304" height="35" width="35" x="252" y="396" /><rect fill="#cc7204" height="35" width="35" x="288" y="396" /><rect fill="#e4ae26" height="35" width="35" x="324" y="396" /><rect fill="#f4e28c" height="35" width="35" x="360" y="396" /><rect fill="#f4d66c" height="35" width="35" x="396" y="396" /><rect fill="#e6b42e" height="35" width="35" x="432" y="396" /><rect fill="#e4af26" height="35" width="35" x="468" y="396" /><rect fill="#d2800a" height="35" width="35" x="504" y="396" /><rect fill="#c46304" height="35" width="35" x="540" y="396" /><rect fill="#000000" height="35" width="35" x="0" y="432" /><rect fill="#000000" height="35" width="35" x="36" y="432" /><rect fill="#d4830c" height="35" width="35" x="72" y="432" /><rect fill="#ecc23c" height="35" width="35" x="108" y="432" /><rect fill="#eed15c" height="35" width="35" x="144" y="432" /><rect fill="#ce7804" height="35" width="35" x="180" y="432" /><rect fill="#bc5004" height="35" width="35" x="216" y="432" /><rect fill="#ca7004" height="35" width="35" x="252" y="432" /><rect fill="#d68c0c" height="35" width="35" x="288" y="432" /><rect fill="#d89010" height="35" width="35" x="324" y="432" /><rect fill="#d4860c" height="35" width="35" x="360" y="432" /><rect fill="#dea018" height="35" width="35" x="396" y="432" /><rect fill="#e6b72e" height="35" width="35" x="432" y="432" /><rect fill="#fcfefc" height="35" width="35" x="468" y="432" /><rect fill="#e4b22c" height="35" width="35" x="504" y="432" /><rect fill="#000000" height="35" width="35" x="540" y="432" /><rect fill="#dc9a14" height="35" width="35" x="0" y="468" /><rect fill="#ecba34" height="35" width="35" x="36" y="468" /><rect fill="#d68e0c" height="35" width="35" x="72" y="468" /><rect fill="#eabf3a" height="35" width="35" x="108" y="468" /><rect fill="#fcfefc" height="35" width="35" x="144" y="468" /><rect fill="#fcfefc" height="35" width="35" x="180" y="468" /><rect fill="#e0a31c" height="35" width="35" x="216" y="468" /><rect fill="#d89410" height="35" width="35" x="252" y="468" /><rect fill="#c86a04" height="35" width="35" x="288" y="468" /><rect fill="#c46104" height="35" width="35" x="324" y="468" /><rect fill="#c45f04" height="35" width="35" x="360" y="468" /><rect fill="#bc5304" height="35" width="35" x="396" y="468" /><rect fill="#cc7504" height="35" width="35" x="432" y="468" /><rect fill="#e6b936" height="35" width="35" x="468" y="468" /><rect fill="#fcfefc" height="35" width="35" x="504" y="468" /><rect fill="#cc7604" height="35" width="35" x="540" y="468" /><rect fill="#c05904" height="35" width="35" x="0" y="504" /><rect fill="#cc7404" height="35" width="35" x="36" y="504" /><rect fill="#d4890c" height="35" width="35" x="72" y="504" /><rect fill="#fcfefc" height="35" width="35" x="108" y="504" /><rect fill="#fcfefc" height="35" width="35" x="144" y="504" /><rect fill="#fcfefc" height="35" width="35" x="180" y="504" /><rect fill="#fcfefc" height="35" width="35" x="216" y="504" /><rect fill="#e4ab24" height="35" width="35" x="252" y="504" /><rect fill="#c25d04" height="35" width="35" x="288" y="504" /><rect fill="#bc5404" height="35" width="35" x="324" y="504" /><rect fill="#b44204" height="35" width="35" x="360" y="504" /><rect fill="#cc7404" height="35" width="35" x="396" y="504" /><rect fill="#fcfefc" height="35" width="35" x="432" y="504" /><rect fill="#fcfefc" height="35" width="35" x="468" y="504" /><rect fill="#fcfefc" height="35" width="35" x="504" y="504" /><rect fill="#de9e16" height="35" width="35" x="540" y="504" /><rect fill="#c05a04" height="35" width="35" x="0" y="540" /><rect fill="#b64a04" height="35" width="35" x="36" y="540" /><rect fill="#c46204" height="35" width="35" x="72" y="540" /><rect fill="#d8900e" height="35" width="35" x="108" y="540" /><rect fill="#fcfefc" height="35" width="35" x="144" y="540" /><rect fill="#fcfefc" height="35" width="35" x="180" y="540" /><rect fill="#f4d66c" height="35" width="35" x="216" y="540" /><rect fill="#fcfefc" height="35" width="35" x="252" y="540" /><rect fill="#fcfefc" height="35" width="35" x="288" y="540" /><rect fill="#fcfefc" height="35" width="35" x="324" y="540" /><rect fill="#ecc94a" height="35" width="35" x="360" y="540" /><rect fill="#fcfefc" height="35" width="35" x="396" y="540" /><rect fill="#ecc644" height="35" width="35" x="432" y="540" /><rect fill="#fcfae4" height="35" width="35" x="468" y="540" /><rect fill="#fcfefc" height="35" width="35" x="504" y="540" /><rect fill="#c46304" height="35" width="35" x="540" y="540" /></svg>