<?xml version="1.0" encoding="utf-8" ?>
<svg baseProfile="tiny" height="575" version="1.2" width="575" xmlns="http://www.w3.org/2000/svg" xmlns:ev="http://www.w3.org/2001/xml-events" xmlns:xlink="http://www.w3.org/1999/xlink"><defs /><rect fill="#57aded" height="35" width="35" x="0" y="0" /><rect fill="#57adeb" height="35" width="35" x="36" y="0" /><rect fill="#57aee6" height="35" width="35" x="72" y="0" /><rect fill="#56ace9" height="35" width="35" x="108" y="0" /><rect fill="#56ade5" height="35" width="35" x="144" y="0" /><rect fill="#57adec" height="35" width="35" x="180" y="0" /><rect fill="#58afeb" height="35" width="35" x="216" y="0" /><rect fill="#57aded" height="35" width="35" x="252" y="0" /><rect fill="#57adec" height="35" width="35" x="288" y="0" /><rect fill="#56acea" height="35" width="35" x="324" y="0" /><rect fill="#55adea" height="35" width="35" x="360" y="0" /><rect fill="#56aeec" height="35" width="35" x="396" y="0" /><rect fill="#57adea" height="35" width="35" x="432" y="0" /><rect fill="#56ace9" height="35" width="35" x="468" y="0" /><rect fill="#57adea" height="35" width="35" x="504" y="0" /><rect fill="#56ace8" height="35" width="35" x="540" y="0" /><rect fill="#4fb0ed" height="35" width="35" x="0" y="36" /><rect fill="#52afe9" height="35" width="35" x="36" y="36" /><rect fill="#52afe9" height="35" width="35" x="72" y="36" /><rect fill="#51afec" height="35" width="35" x="108" y="36" /><rect fill="#54b0e9" height="35" width="35" x="144" y="36" /><rect fill="#51b0e9" height="35" width="35" x="180" y="36" /><rect fill="#51afec" height="35" width="35" x="216" y="36" /><rect fill="#51afec" height="35" width="35" x="252" y="36" /><rect fill="#52afe9" height="35" width="35" x="288" y="36" /><rect fill="#54aeec" height="35" width="35" x="324" y="36" /><rect fill="#52afec" height="35" width="35" x="360" y="36" /><rect fill="#51b0e9" height="35" width="35" x="396" y="36" /><rect fill="#54aeec" height="35" width="35" x="432" y="36" /><rect fill="#4fb0ec" height="35" width="35" x="468" y="36" /><rect fill="#51afec" height="35" width="35" x="504" y="36" /><rect fill="#51b0e9" height="35" width="35" x="540" y="36" /><rect fill="#fbf5d9" height="35" width="35" x="0" y="72" /><rect fill="#fbf5db" height="35" width="35" x="36" y="72" /><rect fill="#51b0e7" height="35" width="35" x="72" y="72" /><rect fill="#51b0e7" height="35" width="35" x="108" y="72" /><rect fill="#4eade5" height="35" width="35" x="144" y="72" /><rect fill="#51afec" height="35" width="35" x="180" y="72" /><rect fill="#51afec" height="35" width="35" x="216" y="72" /><rect fill="#4fb0ec" height="35" width="35" x="252" y="72" /><rect fill="#51afec" height="35" width="35" x="288" y="72" /><rect fill="#51afec" height="35" width="35" x="324" y="72" /><rect fill="#4eb0e9" height="35" width="35" x="360" y="72" /><rect fill="#51b0e9" height="35" width="35" x="396" y="72" /><rect fill="#51b0e9" height="35" width="35" x="432" y="72" /><rect fill="#51afec" height="35" width="35" x="468" y="72" /><rect fill="#51afec" height="35" width="35" x="504" y="72" /><rect fill="#fefdfe" height="35" width="35" x="540" y="72" /><rect fill="#010302" height="35" width="35" x="0" y="108" /><rect fill="#fffcff" height="35" width="35" x="36" y="108" /><rect fill="#4bb1ee" height="35" width="35" x="72" y="108" /><rect fill="#49b1ed" height="35" width="35" x="108" y="108" /><rect fill="#4cb2eb" height="35" width="35" x="144" y="108" /><rect fill="#4bb1ed" height="35" width="35" x="180" y="108" /><rect fill="#48b2ed" height="35" width="35" x="216" y="108" /><rect fill="#49b1ed" height="35" width="35" x="252" y="108" /><rect fill="#49b1ec" height="35" width="35" x="288" y="108" /><rect fill="#48b2ec" height="35" width="35" x="324" y="108" /><rect fill="#4bb2ef" height="35" width="35" x="360" y="108" /><rect fill="#ffffff" height="35" width="35" x="396" y="108" /><rect fill="#4ab1ee" height="35" width="35" x="432" y="108" /><rect fill="#4ab0ed" height="35" width="35" x="468" y="108" /><rect fill="#4ab0ed" height="35" width="35" x="504" y="108" /><rect fill="#ffffff" height="35" width="35" x="540" y="108" /><rect fill="#ffffff" height="35" width="35" x="0" y="144" /><rect fill="#ffa600" height="35" width="35" x="36" y="144" /><rect fill="#fda600" height="35" width="35" x="72" y="144" /><rect fill="#49b3ed" height="35" width="35" x="108" y="144" /><rect fill="#49b3eb" height="35" width="35" x="144" y="144" /><rect fill="#49b3ed" height="35" width="35" x="180" y="144" /><rect fill="#49b3ed" height="35" width="35" x="216" y="144" /><rect fill="#47b3ef" height="35" width="35" x="252" y="144" /><rect fill="#45b4ef" height="35" width="35" x="288" y="144" /><rect fill="#49b3ed" height="35" width="35" x="324" y="144" /><rect fill="#45b4ed" height="35" width="35" x="360" y="144" /><rect fill="#fffeff" height="35" width="35" x="396" y="144" /><rect fill="#ffffff" height="35" width="35" x="432" y="144" /><rect fill="#43b5ef" height="35" width="35" x="468" y="144" /><rect fill="#49b3eb" height="35" width="35" x="504" y="144" /><rect fill="#ffffff" height="35" width="35" x="540" y="144" /><rect fill="#ffffff" height="35" width="35" x="0" y="180" /><rect fill="#42b5ef" height="35" width="35" x="36" y="180" /><rect fill="#42b5ef" height="35" width="35" x="72" y="180" /><rect fill="#41b5ef" height="35" width="35" x="108" y="180" /><rect fill="#42b5ed" height="35" width="35" x="144" y="180" /><rect fill="#42b5ed" height="35" width="35" x="180" y="180" /><rect fill="#40b6ec" height="35" width="35" x="216" y="180" /><rect fill="#42b5ef" height="35" width="35" x="252" y="180" /><rect fill="#43b5ef" height="35" width="35" x="288" y="180" /><rect fill="#42b5ef" height="35" width="35" x="324" y="180" /><rect fill="#41b5f2" height="35" width="35" x="360" y="180" /><rect fill="#ffffff" height="35" width="35" x="396" y="180" /><rect fill="#ffffff" height="35" width="35" x="432" y="180" /><rect fill="#ffffff" height="35" width="35" x="468" y="180" /><rect fill="#40b5ef" height="35" width="35" x="504" y="180" /><rect fill="#ffffff" height="35" width="35" x="540" y="180" /><rect fill="#ffffff" height="35" width="35" x="0" y="216" /><rect fill="#ffffff" height="35" width="35" x="36" y="216" /><rect fill="#3ab7ed" height="35" width="35" x="72" y="216" /><rect fill="#3cb7ef" height="35" width="35" x="108" y="216" /><rect fill="#41b5ef" height="35" width="35" x="144" y="216" /><rect fill="#40b6ed" height="35" width="35" x="180" y="216" /><rect fill="#3eb6ed" height="35" width="35" x="216" y="216" /><rect fill="#3cb7ef" height="35" width="35" x="252" y="216" /><rect fill="#3eb6ed" height="35" width="35" x="288" y="216" /><rect fill="#3eb6ed" height="35" width="35" x="324" y="216" /><rect fill="#3eb6ef" height="35" width="35" x="360" y="216" /><rect fill="#3eb6ed" height="35" width="35" x="396" y="216" /><rect fill="#ffffff" height="35" width="35" x="432" y="216" /><rect fill="#ffffff" height="35" width="35" x="468" y="216" /><rect fill="#ffffff" height="35" width="35" x="504" y="216" /><rect fill="#fffeff" height="35" width="35" x="540" y="216" /><rect fill="#fefefe" height="35" width="35" x="0" y="252" /><rect fill="#fffeff" height="35" width="35" x="36" y="252" /><rect fill="#ffffff" height="35" width="35" x="72" y="252" /><rect fill="#ffffff" height="35" width="35" x="108" y="252" /><rect fill="#ffffff" height="35" width="35" x="144" y="252" /><rect fill="#fbffff" height="35" width="35" x="180" y="252" /><rect fill="#3cb9ec" height="35" width="35" x="216" y="252" /><rect fill="#3cb8f0" height="35" width="35" x="252" y="252" /><rect fill="#3db8f0" height="35" width="35" x="288" y="252" /><rect fill="#3db8f0" height="35" width="35" x="324" y="252" /><rect fill="#3cb8f0" height="35" width="35" x="360" y="252" /><rect fill="#3cb8f0" height="35" width="35" x="396" y="252" /><rect fill="#ffffff" height="35" width="35" x="432" y="252" /><rect fill="#fefefe" height="35" width="35" x="468" y="252" /><rect fill="#ffffff" height="35" width="35" x="504" y="252" /><rect fill="#fcfefe" height="35" width="35" x="540" y="252" /><rect fill="#fffffd" height="35" width="35" x="0" y="288" /><rect fill="#ffffff" height="35" width="35" x="36" y="288" /><rect fill="#ffffff" height="35" width="35" x="72" y="288" /><rect fill="#ffffff" height="35" width="35" x="108" y="288" /><rect fill="#ffffff" height="35" width="35" x="144" y="288" /><rect fill="#36baf2" height="35" width="35" x="180" y="288" /><rect fill="#36baf0" height="35" width="35" x="216" y="288" /><rect fill="#35b9f0" height="35" width="35" x="252" y="288" /><rect fill="#34baf2" height="35" width="35" x="288" y="288" /><rect fill="#36baf0" height="35" width="35" x="324" y="288" /><rect fill="#34baf2" height="35" width="35" x="360" y="288" /><rect fill="#34baf0" height="35" width="35" x="396" y="288" /><rect fill="#36baf2" height="35" width="35" x="432" y="288" /><rect fill="#33bbf2" height="35" width="35" x="468" y="288" /><rect fill="#ffffff" height="35" width="35" x="504" y="288" /><rect fill="#fffefc" height="35" width="35" x="540" y="288" /><rect fill="#fffffd" height="35" width="35" x="0" y="324" /><rect fill="#30bdf4" height="35" width="35" x="36" y="324" /><rect fill="#fdffff" height="35" width="35" x="72" y="324" /><rect fill="#fdffff" height="35" width="35" x="108" y="324" /><rect fill="#2ebbf1" height="35" width="35" x="144" y="324" /><rect fill="#33bbf2" height="35" width="35" x="180" y="324" /><rect fill="#34bcf3" height="35" width="35" x="216" y="324" /><rect fill="#32bcf3" height="35" width="35" x="252" y="324" /><rect fill="#33bbf2" height="35" width="35" x="288" y="324" /><rect fill="#33bbf2" height="35" width="35" x="324" y="324" /><rect fill="#31bbf2" height="35" width="35" x="360" y="324" /><rect fill="#31bbf2" height="35" width="35" x="396" y="324" /><rect fill="#32bbf2" height="35" width="35" x="432" y="324" /><rect fill="#32bbf2" height="35" width="35" x="468" y="324" /><rect fill="#ffffff" height="35" width="35" x="504" y="324" /><rect fill="#fdfffd" height="35" width="35" x="540" y="324" /><rect fill="#ffb100" height="35" width="35" x="0" y="360" /><rect fill="#2fbff4" height="35" width="35" x="36" y="360" /><rect fill="#2dbef2" height="35" width="35" x="72" y="360" /><rect fill="#2abdf2" height="35" width="35" x="108" y="360" /><rect fill="#30bff1" height="35" width="35" x="144" y="360" /><rect fill="#2ebef2" height="35" width="35" x="180" y="360" /><rect fill="#2ebef0" height="35" width="35" x="216" y="360" /><rect fill="#2cbdf1" height="35" width="35" x="252" y="360" /><rect fill="#30bdf3" height="35" width="35" x="288" y="360" /><rect fill="#30bff4" height="35" width="35" x="324" y="360" /><rect fill="#2ebcf2" height="35" width="35" x="360" y="360" /><rect fill="#2dbef3" height="35" width="35" x="396" y="360" /><rect fill="#2dbef3" height="35" width="35" x="432" y="360" /><rect fill="#2dbef1" height="35" width="35" x="468" y="360" /><rect fill="#fdb300" height="35" width="35" x="504" y="360" /><rect fill="#2dbcf8" height="35" width="35" x="540" y="360" /><rect fill="#feb403" height="35" width="35" x="0" y="396" /><rect fill="#2ac0f4" height="35" width="35" x="36" y="396" /><rect fill="#2bbff1" height="35" width="35" x="72" y="396" /><rect fill="#2bbff1" height="35" width="35" x="108" y="396" /><rect fill="#2bbff1" height="35" width="35" x="144" y="396" /><rect fill="#2abef0" height="35" width="35" x="180" y="396" /><rect fill="#29bcf1" height="35" width="35" x="216" y="396" /><rect fill="#2bbff3" height="35" width="35" x="252" y="396" /><rect fill="#2dbef3" height="35" width="35" x="288" y="396" /><rect fill="#2bbff1" height="35" width="35" x="324" y="396" /><rect fill="#29bff1" height="35" width="35" x="360" y="396" /><rect fill="#29bff1" height="35" width="35" x="396" y="396" /><rect fill="#2bbef5" height="35" width="35" x="432" y="396" /><rect fill="#2bbff2" height="35" width="35" x="468" y="396" /><rect fill="#f8b400" height="35" width="35" x="504" y="396" /><rect fill="#27bdf1" height="35" width="35" x="540" y="396" /><rect fill="#ffb400" height="35" width="35" x="0" y="432" /><rect fill="#fcb300" height="35" width="35" x="36" y="432" /><rect fill="#1bc6f8" height="35" width="35" x="72" y="432" /><rect fill="#18c7f9" height="35" width="35" x="108" y="432" /><rect fill="#1ac7f8" height="35" width="35" x="144" y="432" /><rect fill="#1ac7f8" height="35" width="35" x="180" y="432" /><rect fill="#1ac7f6" height="35" width="35" x="216" y="432" /><rect fill="#1ac7f8" height="35" width="35" x="252" y="432" /><rect fill="#1ac7f6" height="35" width="35" x="288" y="432" /><rect fill="#1ac7f8" height="35" width="35" x="324" y="432" /><rect fill="#1ac7f8" height="35" width="35" x="360" y="432" /><rect fill="#19c6fa" height="35" width="35" x="396" y="432" /><rect fill="#983000" height="35" width="35" x="432" y="432" /><rect fill="#19c7f6" height="35" width="35" x="468" y="432" /><rect fill="#c89100" height="35" width="35" x="504" y="432" /><rect fill="#1ac6fa" height="35" width="35" x="540" y="432" /><rect fill="#983001" height="35" width="35" x="0" y="468" /><rect fill="#963003" height="35" width="35" x="36" y="468" /><rect fill="#972e00" height="35" width="35" x="72" y="468" /><rect fill="#9a2f00" height="35" width="35" x="108" y="468" /><rect fill="#0acdf5" height="35" width="35" x="144" y="468" /><rect fill="#0ccbf8" height="35" width="35" x="180" y="468" /><rect fill="#0bcbf9" height="35" width="35" x="216" y="468" /><rect fill="#09cbfa" height="35" width="35" x="252" y="468" /><rect fill="#0bccfb" height="35" width="35" x="288" y="468" /><rect fill="#08ccf8" height="35" width="35" x="324" y="468" /><rect fill="#0bcdf9" height="35" width="35" x="360" y="468" /><rect fill="#0bcdf9" height="35" width="35" x="396" y="468" /><rect fill="#09cbfa" height="35" width="35" x="432" y="468" /><rect fill="#982e00" height="35" width="35" x="468" y="468" /><rect fill="#962f00" height="35" width="35" x="504" y="468" /><rect fill="#973001" height="35" width="35" x="540" y="468" /><rect fill="#02cff9" height="35" width="35" x="0" y="504" /><rect fill="#01cffb" height="35" width="35" x="36" y="504" /><rect fill="#050001" height="35" width="35" x="72" y="504" /><rect fill="#00d0fe" height="35" width="35" x="108" y="504" /><rect fill="#02cdfc" height="35" width="35" x="144" y="504" /><rect fill="#01cdfd" height="35" width="35" x="180" y="504" /><rect fill="#01d0fe" height="35" width="35" x="216" y="504" /><rect fill="#01d0ff" height="35" width="35" x="252" y="504" /><rect fill="#03d0fa" height="35" width="35" x="288" y="504" /><rect fill="#01cffe" height="35" width="35" x="324" y="504" /><rect fill="#00cffe" height="35" width="35" x="360" y="504" /><rect fill="#02cffd" height="35" width="35" x="396" y="504" /><rect fill="#03cfff" height="35" width="35" x="432" y="504" /><rect fill="#04cfff" height="35" width="35" x="468" y="504" /><rect fill="#040000" height="35" width="35" x="504" y="504" /><rect fill="#00d1ff" height="35" width="35" x="540" y="504" /><rect fill="#686662" height="35" width="35" x="0" y="540" /><rect fill="#696663" height="35" width="35" x="36" y="540" /><rect fill="#686664" height="35" width="35" x="72" y="540" /><rect fill="#686664" height="35" width="35" x="108" y="540" /><rect fill="#6b6867" height="35" width="35" x="144" y="540" /><rect fill="#686664" height="35" width="35" x="180" y="540" /><rect fill="#686664" height="35" width="35" x="216" y="540" /><rect fill="#686664" height="35" width="35" x="252" y="540" /><rect fill="#686664" height="35" width="35" x="288" y="540" /><rect fill="#686664" height="35" width="35" x="324" y="540" /><rect fill="#686664" height="35" width="35" x="360" y="540" /><rect fill="#686664" height="35" width="35" x="396" y="540" /><rect fill="#686664" height="35" width="35" x="432" y="540" /><rect fill="#686663" height="35" width="35" x="468" y="540" /><rect fill="#686664" height="35" width="35" x="504" y="540" /><rect fill="#666764" height="35" width="35" x="540" y="540" /></svg>