<?xml version="1.0" encoding="utf-8" ?>
<svg baseProfile="tiny" height="575" version="1.2" width="575" xmlns="http://www.w3.org/2000/svg" xmlns:ev="http://www.w3.org/2001/xml-events" xmlns:xlink="http://www.w3.org/1999/xlink"><defs /><rect fill="#56aeed" height="35" width="35" x="0" y="0" /><rect fill="#59adeb" height="35" width="35" x="36" y="0" /><rect fill="#57aee8" height="35" width="35" x="72" y="0" /><rect fill="#58aeef" height="35" width="35" x="108" y="0" /><rect fill="#58ace8" height="35" width="35" x="144" y="0" /><rect fill="#57adec" height="35" width="35" x="180" y="0" /><rect fill="#58afeb" height="35" width="35" x="216" y="0" /><rect fill="#57adeb" height="35" width="35" x="252" y="0" /><rect fill="#56aeec" height="35" width="35" x="288" y="0" /><rect fill="#58ade9" height="35" width="35" x="324" y="0" /><rect fill="#58adec" height="35" width="35" x="360" y="0" /><rect fill="#58ade9" height="35" width="35" x="396" y="0" /><rect fill="#55aeea" height="35" width="35" x="432" y="0" /><rect fill="#58adea" height="35" width="35" x="468" y="0" /><rect fill="#58adea" height="35" width="35" x="504" y="0" /><rect fill="#57ace8" height="35" width="35" x="540" y="0" /><rect fill="#4fb0ed" height="35" width="35" x="0" y="36" /><rect fill="#52afe9" height="35" width="35" x="36" y="36" /><rect fill="#4fb0e9" height="35" width="35" x="72" y="36" /><rect fill="#51afec" height="35" width="35" x="108" y="36" /><rect fill="#51afec" height="35" width="35" x="144" y="36" /><rect fill="#51b0e9" height="35" width="35" x="180" y="36" /><rect fill="#51afec" height="35" width="35" x="216" y="36" /><rect fill="#51afec" height="35" width="35" x="252" y="36" /><rect fill="#52afec" height="35" width="35" x="288" y="36" /><rect fill="#52afec" height="35" width="35" x="324" y="36" /><rect fill="#50b0ec" height="35" width="35" x="360" y="36" /><rect fill="#4fb0e9" height="35" width="35" x="396" y="36" /><rect fill="#54aeec" height="35" width="35" x="432" y="36" /><rect fill="#51afec" height="35" width="35" x="468" y="36" /><rect fill="#4fb0ec" height="35" width="35" x="504" y="36" /><rect fill="#51b0e9" height="35" width="35" x="540" y="36" /><rect fill="#4bb1ea" height="35" width="35" x="0" y="72" /><rect fill="#4eb0eb" height="35" width="35" x="36" y="72" /><rect fill="#4db1e9" height="35" width="35" x="72" y="72" /><rect fill="#fffefd" height="35" width="35" x="108" y="72" /><rect fill="#fdf5d7" height="35" width="35" x="144" y="72" /><rect fill="#fdf5d7" height="35" width="35" x="180" y="72" /><rect fill="#4fb0ec" height="35" width="35" x="216" y="72" /><rect fill="#4db0ec" height="35" width="35" x="252" y="72" /><rect fill="#4fb0e9" height="35" width="35" x="288" y="72" /><rect fill="#4db0ec" height="35" width="35" x="324" y="72" /><rect fill="#4cb1ec" height="35" width="35" x="360" y="72" /><rect fill="#4db1e9" height="35" width="35" x="396" y="72" /><rect fill="#51b0e9" height="35" width="35" x="432" y="72" /><rect fill="#4db0ec" height="35" width="35" x="468" y="72" /><rect fill="#4bb1ec" height="35" width="35" x="504" y="72" /><rect fill="#4fb0e9" height="35" width="35" x="540" y="72" /><rect fill="#4ab1ed" height="35" width="35" x="0" y="108" /><rect fill="#4ab3ed" height="35" width="35" x="36" y="108" /><rect fill="#4bb1ed" height="35" width="35" x="72" y="108" /><rect fill="#ffffff" height="35" width="35" x="108" y="108" /><rect fill="#000000" height="35" width="35" x="144" y="108" /><rect fill="#feffff" height="35" width="35" x="180" y="108" /><rect fill="#4ab1ee" height="35" width="35" x="216" y="108" /><rect fill="#48b2ed" height="35" width="35" x="252" y="108" /><rect fill="#49b1ed" height="35" width="35" x="288" y="108" /><rect fill="#4bb1ed" height="35" width="35" x="324" y="108" /><rect fill="#49b1ee" height="35" width="35" x="360" y="108" /><rect fill="#49b1ed" height="35" width="35" x="396" y="108" /><rect fill="#49b1ed" height="35" width="35" x="432" y="108" /><rect fill="#49b1ef" height="35" width="35" x="468" y="108" /><rect fill="#49b1ed" height="35" width="35" x="504" y="108" /><rect fill="#fffffe" height="35" width="35" x="540" y="108" /><rect fill="#feffff" height="35" width="35" x="0" y="144" /><rect fill="#45b3f0" height="35" width="35" x="36" y="144" /><rect fill="#4bb2f3" height="35" width="35" x="72" y="144" /><rect fill="#feffff" height="35" width="35" x="108" y="144" /><rect fill="#ffffff" height="35" width="35" x="144" y="144" /><rect fill="#f8a600" height="35" width="35" x="180" y="144" /><rect fill="#fda600" height="35" width="35" x="216" y="144" /><rect fill="#49b3ef" height="35" width="35" x="252" y="144" /><rect fill="#47b3ef" height="35" width="35" x="288" y="144" /><rect fill="#45b4ef" height="35" width="35" x="324" y="144" /><rect fill="#47b3ef" height="35" width="35" x="360" y="144" /><rect fill="#47b3ef" height="35" width="35" x="396" y="144" /><rect fill="#49b3ed" height="35" width="35" x="432" y="144" /><rect fill="#47b3ef" height="35" width="35" x="468" y="144" /><rect fill="#47b3ef" height="35" width="35" x="504" y="144" /><rect fill="#ffffff" height="35" width="35" x="540" y="144" /><rect fill="#ffffff" height="35" width="35" x="0" y="180" /><rect fill="#ffffff" height="35" width="35" x="36" y="180" /><rect fill="#43b4f1" height="35" width="35" x="72" y="180" /><rect fill="#ffffff" height="35" width="35" x="108" y="180" /><rect fill="#ffffff" height="35" width="35" x="144" y="180" /><rect fill="#40b6ef" height="35" width="35" x="180" y="180" /><rect fill="#42b5ef" height="35" width="35" x="216" y="180" /><rect fill="#42b5ef" height="35" width="35" x="252" y="180" /><rect fill="#42b5ef" height="35" width="35" x="288" y="180" /><rect fill="#40b6ef" height="35" width="35" x="324" y="180" /><rect fill="#3fb5f2" height="35" width="35" x="360" y="180" /><rect fill="#42b5ef" height="35" width="35" x="396" y="180" /><rect fill="#42b5ef" height="35" width="35" x="432" y="180" /><rect fill="#42b5ef" height="35" width="35" x="468" y="180" /><rect fill="#42b5ef" height="35" width="35" x="504" y="180" /><rect fill="#ffffff" height="35" width="35" x="540" y="180" /><rect fill="#ffffff" height="35" width="35" x="0" y="216" /><rect fill="#ffffff" height="35" width="35" x="36" y="216" /><rect fill="#fdffff" height="35" width="35" x="72" y="216" /><rect fill="#feffff" height="35" width="35" x="108" y="216" /><rect fill="#ffffff" height="35" width="35" x="144" y="216" /><rect fill="#fffeff" height="35" width="35" x="180" y="216" /><rect fill="#3cb7ed" height="35" width="35" x="216" y="216" /><rect fill="#3ab7ef" height="35" width="35" x="252" y="216" /><rect fill="#3cb7ef" height="35" width="35" x="288" y="216" /><rect fill="#3eb6ed" height="35" width="35" x="324" y="216" /><rect fill="#3eb6ef" height="35" width="35" x="360" y="216" /><rect fill="#3cb7ed" height="35" width="35" x="396" y="216" /><rect fill="#3eb6ed" height="35" width="35" x="432" y="216" /><rect fill="#3cb7ed" height="35" width="35" x="468" y="216" /><rect fill="#3db6ec" height="35" width="35" x="504" y="216" /><rect fill="#3db8f0" height="35" width="35" x="540" y="216" /><rect fill="#fffffc" height="35" width="35" x="0" y="252" /><rect fill="#fefdff" height="35" width="35" x="36" y="252" /><rect fill="#ffffff" height="35" width="35" x="72" y="252" /><rect fill="#ffffff" height="35" width="35" x="108" y="252" /><rect fill="#ffffff" height="35" width="35" x="144" y="252" /><rect fill="#fffeff" height="35" width="35" x="180" y="252" /><rect fill="#ffffff" height="35" width="35" x="216" y="252" /><rect fill="#ffffff" height="35" width="35" x="252" y="252" /><rect fill="#ffffff" height="35" width="35" x="288" y="252" /><rect fill="#fdffff" height="35" width="35" x="324" y="252" /><rect fill="#3cb8f0" height="35" width="35" x="360" y="252" /><rect fill="#3cb8f0" height="35" width="35" x="396" y="252" /><rect fill="#3db8f0" height="35" width="35" x="432" y="252" /><rect fill="#3db8ee" height="35" width="35" x="468" y="252" /><rect fill="#3db8ee" height="35" width="35" x="504" y="252" /><rect fill="#3db8f2" height="35" width="35" x="540" y="252" /><rect fill="#33bbf2" height="35" width="35" x="0" y="288" /><rect fill="#34baf2" height="35" width="35" x="36" y="288" /><rect fill="#ffffff" height="35" width="35" x="72" y="288" /><rect fill="#ffffff" height="35" width="35" x="108" y="288" /><rect fill="#ffffff" height="35" width="35" x="144" y="288" /><rect fill="#ffffff" height="35" width="35" x="180" y="288" /><rect fill="#ffffff" height="35" width="35" x="216" y="288" /><rect fill="#ffffff" height="35" width="35" x="252" y="288" /><rect fill="#ffffff" height="35" width="35" x="288" y="288" /><rect fill="#33bbf2" height="35" width="35" x="324" y="288" /><rect fill="#33bbf2" height="35" width="35" x="360" y="288" /><rect fill="#34baf2" height="35" width="35" x="396" y="288" /><rect fill="#34baf2" height="35" width="35" x="432" y="288" /><rect fill="#33bbf4" height="35" width="35" x="468" y="288" /><rect fill="#34baf2" height="35" width="35" x="504" y="288" /><rect fill="#36baf0" height="35" width="35" x="540" y="288" /><rect fill="#31bbf2" height="35" width="35" x="0" y="324" /><rect fill="#fbb200" height="35" width="35" x="36" y="324" /><rect fill="#feb200" height="35" width="35" x="72" y="324" /><rect fill="#ffffff" height="35" width="35" x="108" y="324" /><rect fill="#f8b201" height="35" width="35" x="144" y="324" /><rect fill="#31bbf1" height="35" width="35" x="180" y="324" /><rect fill="#fefefe" height="35" width="35" x="216" y="324" /><rect fill="#fefefe" height="35" width="35" x="252" y="324" /><rect fill="#2ebbf1" height="35" width="35" x="288" y="324" /><rect fill="#33bbf2" height="35" width="35" x="324" y="324" /><rect fill="#31bbf2" height="35" width="35" x="360" y="324" /><rect fill="#31bbf2" height="35" width="35" x="396" y="324" /><rect fill="#31bcf0" height="35" width="35" x="432" y="324" /><rect fill="#30bcf2" height="35" width="35" x="468" y="324" /><rect fill="#32bcf2" height="35" width="35" x="504" y="324" /><rect fill="#34bcf3" height="35" width="35" x="540" y="324" /><rect fill="#2dbef3" height="35" width="35" x="0" y="360" /><rect fill="#fcb100" height="35" width="35" x="36" y="360" /><rect fill="#2fc0f6" height="35" width="35" x="72" y="360" /><rect fill="#2ebff4" height="35" width="35" x="108" y="360" /><rect fill="#2dbef0" height="35" width="35" x="144" y="360" /><rect fill="#fdb100" height="35" width="35" x="180" y="360" /><rect fill="#2cbff0" height="35" width="35" x="216" y="360" /><rect fill="#2ebef2" height="35" width="35" x="252" y="360" /><rect fill="#2ebef0" height="35" width="35" x="288" y="360" /><rect fill="#2dc0f2" height="35" width="35" x="324" y="360" /><rect fill="#2dbef3" height="35" width="35" x="360" y="360" /><rect fill="#2dbef2" height="35" width="35" x="396" y="360" /><rect fill="#2cbef3" height="35" width="35" x="432" y="360" /><rect fill="#2ebff4" height="35" width="35" x="468" y="360" /><rect fill="#2ebff4" height="35" width="35" x="504" y="360" /><rect fill="#2cbff2" height="35" width="35" x="540" y="360" /><rect fill="#29bff3" height="35" width="35" x="0" y="396" /><rect fill="#cd9200" height="35" width="35" x="36" y="396" /><rect fill="#29bff3" height="35" width="35" x="72" y="396" /><rect fill="#29bff3" height="35" width="35" x="108" y="396" /><rect fill="#29bff3" height="35" width="35" x="144" y="396" /><rect fill="#ffb001" height="35" width="35" x="180" y="396" /><rect fill="#983000" height="35" width="35" x="216" y="396" /><rect fill="#973000" height="35" width="35" x="252" y="396" /><rect fill="#982f01" height="35" width="35" x="288" y="396" /><rect fill="#29bff3" height="35" width="35" x="324" y="396" /><rect fill="#27c0f3" height="35" width="35" x="360" y="396" /><rect fill="#27c0f1" height="35" width="35" x="396" y="396" /><rect fill="#2abdf4" height="35" width="35" x="432" y="396" /><rect fill="#29bff3" height="35" width="35" x="468" y="396" /><rect fill="#29bff3" height="35" width="35" x="504" y="396" /><rect fill="#29bff1" height="35" width="35" x="540" y="396" /><rect fill="#1ac7f8" height="35" width="35" x="0" y="432" /><rect fill="#1ac5f7" height="35" width="35" x="36" y="432" /><rect fill="#982f01" height="35" width="35" x="72" y="432" /><rect fill="#982f01" height="35" width="35" x="108" y="432" /><rect fill="#982f01" height="35" width="35" x="144" y="432" /><rect fill="#9a2f00" height="35" width="35" x="180" y="432" /><rect fill="#1bc7f9" height="35" width="35" x="216" y="432" /><rect fill="#000000" height="35" width="35" x="252" y="432" /><rect fill="#1ac5f4" height="35" width="35" x="288" y="432" /><rect fill="#19c7f8" height="35" width="35" x="324" y="432" /><rect fill="#1ac7f8" height="35" width="35" x="360" y="432" /><rect fill="#19c6fa" height="35" width="35" x="396" y="432" /><rect fill="#18c7fa" height="35" width="35" x="432" y="432" /><rect fill="#1ac7f8" height="35" width="35" x="468" y="432" /><rect fill="#19c7f8" height="35" width="35" x="504" y="432" /><rect fill="#1bc6f6" height="35" width="35" x="540" y="432" /><rect fill="#0bccfb" height="35" width="35" x="0" y="468" /><rect fill="#0cccf8" height="35" width="35" x="36" y="468" /><rect fill="#0ccdff" height="35" width="35" x="72" y="468" /><rect fill="#000100" height="35" width="35" x="108" y="468" /><rect fill="#0bccfc" height="35" width="35" x="144" y="468" /><rect fill="#0cccf9" height="35" width="35" x="180" y="468" /><rect fill="#0ccdfe" height="35" width="35" x="216" y="468" /><rect fill="#0ccdfe" height="35" width="35" x="252" y="468" /><rect fill="#0bccfb" height="35" width="35" x="288" y="468" /><rect fill="#0bcdf9" height="35" width="35" x="324" y="468" /><rect fill="#09cdfa" height="35" width="35" x="360" y="468" /><rect fill="#0bccfb" height="35" width="35" x="396" y="468" /><rect fill="#09cdfb" height="35" width="35" x="432" y="468" /><rect fill="#0bccfb" height="35" width="35" x="468" y="468" /><rect fill="#09cdfb" height="35" width="35" x="504" y="468" /><rect fill="#0cccfb" height="35" width="35" x="540" y="468" /><rect fill="#00d0fb" height="35" width="35" x="0" y="504" /><rect fill="#00d0fd" height="35" width="35" x="36" y="504" /><rect fill="#01d1fc" height="35" width="35" x="72" y="504" /><rect fill="#01d1fc" height="35" width="35" x="108" y="504" /><rect fill="#02cffa" height="35" width="35" x="144" y="504" /><rect fill="#03d0fc" height="35" width="35" x="180" y="504" /><rect fill="#01cffc" height="35" width="35" x="216" y="504" /><rect fill="#01d0ff" height="35" width="35" x="252" y="504" /><rect fill="#03d0fa" height="35" width="35" x="288" y="504" /><rect fill="#01cffe" height="35" width="35" x="324" y="504" /><rect fill="#00cffe" height="35" width="35" x="360" y="504" /><rect fill="#02cffd" height="35" width="35" x="396" y="504" /><rect fill="#00d0ff" height="35" width="35" x="432" y="504" /><rect fill="#01d1fd" height="35" width="35" x="468" y="504" /><rect fill="#01d0ff" height="35" width="35" x="504" y="504" /><rect fill="#01d0ff" height="35" width="35" x="540" y="504" /><rect fill="#686664" height="35" width="35" x="0" y="540" /><rect fill="#686663" height="35" width="35" x="36" y="540" /><rect fill="#686866" height="35" width="35" x="72" y="540" /><rect fill="#686664" height="35" width="35" x="108" y="540" /><rect fill="#686664" height="35" width="35" x="144" y="540" /><rect fill="#686664" height="35" width="35" x="180" y="540" /><rect fill="#686664" height="35" width="35" x="216" y="540" /><rect fill="#686664" height="35" width="35" x="252" y="540" /><rect fill="#686664" height="35" width="35" x="288" y="540" /><rect fill="#686664" height="35" width="35" x="324" y="540" /><rect fill="#686664" height="35" width="35" x="360" y="540" /><rect fill="#686664" height="35" width="35" x="396" y="540" /><rect fill="#686664" height="35" width="35" x="432" y="540" /><rect fill="#686663" height="35" width="35" x="468" y="540" /><rect fill="#686664" height="35" width="35" x="504" y="540" /><rect fill="#686666" height="35" width="35" x="540" y="540" /></svg>