<?xml version="1.0" encoding="utf-8" ?>
<svg baseProfile="tiny" height="575" version="1.2" width="575" xmlns="http://www.w3.org/2000/svg" xmlns:ev="http://www.w3.org/2001/xml-events" xmlns:xlink="http://www.w3.org/1999/xlink"><defs /><rect fill="#000000" height="35" width="35" x="0" y="0" /><rect fill="#000001" height="35" width="35" x="36" y="0" /><rect fill="#000000" height="35" width="35" x="72" y="0" /><rect fill="#000000" height="35" width="35" x="108" y="0" /><rect fill="#a22537" height="35" width="35" x="144" y="0" /><rect fill="#de3644" height="35" width="35" x="180" y="0" /><rect fill="#da3841" height="35" width="35" x="216" y="0" /><rect fill="#db3943" height="35" width="35" x="252" y="0" /><rect fill="#db3943" height="35" width="35" x="288" y="0" /><rect fill="#df3843" height="35" width="35" x="324" y="0" /><rect fill="#a22538" height="35" width="35" x="360" y="0" /><rect fill="#a62437" height="35" width="35" x="396" y="0" /><rect fill="#010000" height="35" width="35" x="432" y="0" /><rect fill="#000000" height="35" width="35" x="468" y="0" /><rect fill="#000000" height="35" width="35" x="504" y="0" /><rect fill="#000000" height="35" width="35" x="540" y="0" /><rect fill="#000000" height="35" width="35" x="0" y="36" /><rect fill="#000000" height="35" width="35" x="36" y="36" /><rect fill="#000000" height="35" width="35" x="72" y="36" /><rect fill="#711b2c" height="35" width="35" x="108" y="36" /><rect fill="#a32537" height="35" width="35" x="144" y="36" /><rect fill="#da3744" height="35" width="35" x="180" y="36" /><rect fill="#fffffd" height="35" width="35" x="216" y="36" /><rect fill="#ffffff" height="35" width="35" x="252" y="36" /><rect fill="#ffffff" height="35" width="35" x="288" y="36" /><rect fill="#fffffd" height="35" width="35" x="324" y="36" /><rect fill="#a42537" height="35" width="35" x="360" y="36" /><rect fill="#a42537" height="35" width="35" x="396" y="36" /><rect fill="#711b2c" height="35" width="35" x="432" y="36" /><rect fill="#000000" height="35" width="35" x="468" y="36" /><rect fill="#000000" height="35" width="35" x="504" y="36" /><rect fill="#000000" height="35" width="35" x="540" y="36" /><rect fill="#000000" height="35" width="35" x="0" y="72" /><rect fill="#000000" height="35" width="35" x="36" y="72" /><rect fill="#010101" height="35" width="35" x="72" y="72" /><rect fill="#ffffff" height="35" width="35" x="108" y="72" /><rect fill="#ffffff" height="35" width="35" x="144" y="72" /><rect fill="#ffffff" height="35" width="35" x="180" y="72" /><rect fill="#4cb7ea" height="35" width="35" x="216" y="72" /><rect fill="#4fbae8" height="35" width="35" x="252" y="72" /><rect fill="#4fbae8" height="35" width="35" x="288" y="72" /><rect fill="#4db9e7" height="35" width="35" x="324" y="72" /><rect fill="#fefeff" height="35" width="35" x="360" y="72" /><rect fill="#ffffff" height="35" width="35" x="396" y="72" /><rect fill="#ffffff" height="35" width="35" x="432" y="72" /><rect fill="#000000" height="35" width="35" x="468" y="72" /><rect fill="#000000" height="35" width="35" x="504" y="72" /><rect fill="#000000" height="35" width="35" x="540" y="72" /><rect fill="#000000" height="35" width="35" x="0" y="108" /><rect fill="#000000" height="35" width="35" x="36" y="108" /><rect fill="#b4b4b4" height="35" width="35" x="72" y="108" /><rect fill="#50bbed" height="35" width="35" x="108" y="108" /><rect fill="#50bbed" height="35" width="35" x="144" y="108" /><rect fill="#4fbaea" height="35" width="35" x="180" y="108" /><rect fill="#4fbaea" height="35" width="35" x="216" y="108" /><rect fill="#4fbaea" height="35" width="35" x="252" y="108" /><rect fill="#50b9ea" height="35" width="35" x="288" y="108" /><rect fill="#4cb9e8" height="35" width="35" x="324" y="108" /><rect fill="#4db8ea" height="35" width="35" x="360" y="108" /><rect fill="#4ebaeb" height="35" width="35" x="396" y="108" /><rect fill="#4eb7e8" height="35" width="35" x="432" y="108" /><rect fill="#b7b7b7" height="35" width="35" x="468" y="108" /><rect fill="#000000" height="35" width="35" x="504" y="108" /><rect fill="#000000" height="35" width="35" x="540" y="108" /><rect fill="#000000" height="35" width="35" x="0" y="144" /><rect fill="#000000" height="35" width="35" x="36" y="144" /><rect fill="#b7b7b7" height="35" width="35" x="72" y="144" /><rect fill="#4fbae8" height="35" width="35" x="108" y="144" /><rect fill="#86dafb" height="35" width="35" x="144" y="144" /><rect fill="#fefefe" height="35" width="35" x="180" y="144" /><rect fill="#8bdbff" height="35" width="35" x="216" y="144" /><rect fill="#4fbaea" height="35" width="35" x="252" y="144" /><rect fill="#4fbaea" height="35" width="35" x="288" y="144" /><rect fill="#8bdafe" height="35" width="35" x="324" y="144" /><rect fill="#fffdff" height="35" width="35" x="360" y="144" /><rect fill="#8dd9fe" height="35" width="35" x="396" y="144" /><rect fill="#50b9ea" height="35" width="35" x="432" y="144" /><rect fill="#b7b7b7" height="35" width="35" x="468" y="144" /><rect fill="#000000" height="35" width="35" x="504" y="144" /><rect fill="#000000" height="35" width="35" x="540" y="144" /><rect fill="#000000" height="35" width="35" x="0" y="180" /><rect fill="#000000" height="35" width="35" x="36" y="180" /><rect fill="#b7b7b7" height="35" width="35" x="72" y="180" /><rect fill="#4fbaea" height="35" width="35" x="108" y="180" /><rect fill="#fdffff" height="35" width="35" x="144" y="180" /><rect fill="#000000" height="35" width="35" x="180" y="180" /><rect fill="#fefefe" height="35" width="35" x="216" y="180" /><rect fill="#4fbaea" height="35" width="35" x="252" y="180" /><rect fill="#4fbaea" height="35" width="35" x="288" y="180" /><rect fill="#ffffff" height="35" width="35" x="324" y="180" /><rect fill="#000000" height="35" width="35" x="360" y="180" /><rect fill="#ffffff" height="35" width="35" x="396" y="180" /><rect fill="#4dbaea" height="35" width="35" x="432" y="180" /><rect fill="#b7b7b7" height="35" width="35" x="468" y="180" /><rect fill="#000000" height="35" width="35" x="504" y="180" /><rect fill="#000000" height="35" width="35" x="540" y="180" /><rect fill="#000000" height="35" width="35" x="0" y="216" /><rect fill="#000000" height="35" width="35" x="36" y="216" /><rect fill="#010101" height="35" width="35" x="72" y="216" /><rect fill="#4fbaea" height="35" width="35" x="108" y="216" /><rect fill="#8ad8ff" height="35" width="35" x="144" y="216" /><rect fill="#fafcf8" height="35" width="35" x="180" y="216" /><rect fill="#89dcff" height="35" width="35" x="216" y="216" /><rect fill="#50b9ea" height="35" width="35" x="252" y="216" /><rect fill="#4fbaea" height="35" width="35" x="288" y="216" /><rect fill="#8ad9fd" height="35" width="35" x="324" y="216" /><rect fill="#fdfefe" height="35" width="35" x="360" y="216" /><rect fill="#88d9fd" height="35" width="35" x="396" y="216" /><rect fill="#52b9ea" height="35" width="35" x="432" y="216" /><rect fill="#000004" height="35" width="35" x="468" y="216" /><rect fill="#000000" height="35" width="35" x="504" y="216" /><rect fill="#000000" height="35" width="35" x="540" y="216" /><rect fill="#000000" height="35" width="35" x="0" y="252" /><rect fill="#000000" height="35" width="35" x="36" y="252" /><rect fill="#010101" height="35" width="35" x="72" y="252" /><rect fill="#4ebaea" height="35" width="35" x="108" y="252" /><rect fill="#4dbaea" height="35" width="35" x="144" y="252" /><rect fill="#4fbbe9" height="35" width="35" x="180" y="252" /><rect fill="#52bae9" height="35" width="35" x="216" y="252" /><rect fill="#4fbaea" height="35" width="35" x="252" y="252" /><rect fill="#4fbaea" height="35" width="35" x="288" y="252" /><rect fill="#52baeb" height="35" width="35" x="324" y="252" /><rect fill="#4fbaea" height="35" width="35" x="360" y="252" /><rect fill="#50b9ea" height="35" width="35" x="396" y="252" /><rect fill="#50b9ea" height="35" width="35" x="432" y="252" /><rect fill="#000000" height="35" width="35" x="468" y="252" /><rect fill="#000000" height="35" width="35" x="504" y="252" /><rect fill="#000000" height="35" width="35" x="540" y="252" /><rect fill="#000000" height="35" width="35" x="0" y="288" /><rect fill="#000000" height="35" width="35" x="36" y="288" /><rect fill="#000000" height="35" width="35" x="72" y="288" /><rect fill="#4fbaea" height="35" width="35" x="108" y="288" /><rect fill="#50b9ea" height="35" width="35" x="144" y="288" /><rect fill="#dc3741" height="35" width="35" x="180" y="288" /><rect fill="#4dbaea" height="35" width="35" x="216" y="288" /><rect fill="#4fbaea" height="35" width="35" x="252" y="288" /><rect fill="#4fbae8" height="35" width="35" x="288" y="288" /><rect fill="#4ebbeb" height="35" width="35" x="324" y="288" /><rect fill="#dc3744" height="35" width="35" x="360" y="288" /><rect fill="#50b9ea" height="35" width="35" x="396" y="288" /><rect fill="#50b9ea" height="35" width="35" x="432" y="288" /><rect fill="#000000" height="35" width="35" x="468" y="288" /><rect fill="#000000" height="35" width="35" x="504" y="288" /><rect fill="#000000" height="35" width="35" x="540" y="288" /><rect fill="#000001" height="35" width="35" x="0" y="324" /><rect fill="#000000" height="35" width="35" x="36" y="324" /><rect fill="#000000" height="35" width="35" x="72" y="324" /><rect fill="#4fbaea" height="35" width="35" x="108" y="324" /><rect fill="#50bbeb" height="35" width="35" x="144" y="324" /><rect fill="#50bbeb" height="35" width="35" x="180" y="324" /><rect fill="#db3642" height="35" width="35" x="216" y="324" /><rect fill="#dc3744" height="35" width="35" x="252" y="324" /><rect fill="#dc3744" height="35" width="35" x="288" y="324" /><rect fill="#df3644" height="35" width="35" x="324" y="324" /><rect fill="#4ebaea" height="35" width="35" x="360" y="324" /><rect fill="#4fbae6" height="35" width="35" x="396" y="324" /><rect fill="#4fbaea" height="35" width="35" x="432" y="324" /><rect fill="#000000" height="35" width="35" x="468" y="324" /><rect fill="#000000" height="35" width="35" x="504" y="324" /><rect fill="#000000" height="35" width="35" x="540" y="324" /><rect fill="#000000" height="35" width="35" x="0" y="360" /><rect fill="#000000" height="35" width="35" x="36" y="360" /><rect fill="#000000" height="35" width="35" x="72" y="360" /><rect fill="#3e83d1" height="35" width="35" x="108" y="360" /><rect fill="#50b9ed" height="35" width="35" x="144" y="360" /><rect fill="#4db9e9" height="35" width="35" x="180" y="360" /><rect fill="#4ebae9" height="35" width="35" x="216" y="360" /><rect fill="#4cbaea" height="35" width="35" x="252" y="360" /><rect fill="#4cbaea" height="35" width="35" x="288" y="360" /><rect fill="#50bbef" height="35" width="35" x="324" y="360" /><rect fill="#4fbaea" height="35" width="35" x="360" y="360" /><rect fill="#4fbae8" height="35" width="35" x="396" y="360" /><rect fill="#3f86d3" height="35" width="35" x="432" y="360" /><rect fill="#000000" height="35" width="35" x="468" y="360" /><rect fill="#000000" height="35" width="35" x="504" y="360" /><rect fill="#000000" height="35" width="35" x="540" y="360" /><rect fill="#000000" height="35" width="35" x="0" y="396" /><rect fill="#010000" height="35" width="35" x="36" y="396" /><rect fill="#000000" height="35" width="35" x="72" y="396" /><rect fill="#000000" height="35" width="35" x="108" y="396" /><rect fill="#3c84d1" height="35" width="35" x="144" y="396" /><rect fill="#4fb8eb" height="35" width="35" x="180" y="396" /><rect fill="#50b9ea" height="35" width="35" x="216" y="396" /><rect fill="#4fbae8" height="35" width="35" x="252" y="396" /><rect fill="#4fbae8" height="35" width="35" x="288" y="396" /><rect fill="#50bbe9" height="35" width="35" x="324" y="396" /><rect fill="#4fbae8" height="35" width="35" x="360" y="396" /><rect fill="#3984d0" height="35" width="35" x="396" y="396" /><rect fill="#000000" height="35" width="35" x="432" y="396" /><rect fill="#000000" height="35" width="35" x="468" y="396" /><rect fill="#000000" height="35" width="35" x="504" y="396" /><rect fill="#000000" height="35" width="35" x="540" y="396" /><rect fill="#000000" height="35" width="35" x="0" y="432" /><rect fill="#000000" height="35" width="35" x="36" y="432" /><rect fill="#000000" height="35" width="35" x="72" y="432" /><rect fill="#000000" height="35" width="35" x="108" y="432" /><rect fill="#3a83d2" height="35" width="35" x="144" y="432" /><rect fill="#3c84d1" height="35" width="35" x="180" y="432" /><rect fill="#3c84d1" height="35" width="35" x="216" y="432" /><rect fill="#3c84d1" height="35" width="35" x="252" y="432" /><rect fill="#3c84d1" height="35" width="35" x="288" y="432" /><rect fill="#3c84d1" height="35" width="35" x="324" y="432" /><rect fill="#3c84d1" height="35" width="35" x="360" y="432" /><rect fill="#3c84d1" height="35" width="35" x="396" y="432" /><rect fill="#000000" height="35" width="35" x="432" y="432" /><rect fill="#000000" height="35" width="35" x="468" y="432" /><rect fill="#000000" height="35" width="35" x="504" y="432" /><rect fill="#000000" height="35" width="35" x="540" y="432" /><rect fill="#000000" height="35" width="35" x="0" y="468" /><rect fill="#000000" height="35" width="35" x="36" y="468" /><rect fill="#000000" height="35" width="35" x="72" y="468" /><rect fill="#000000" height="35" width="35" x="108" y="468" /><rect fill="#020000" height="35" width="35" x="144" y="468" /><rect fill="#3c84cf" height="35" width="35" x="180" y="468" /><rect fill="#3d84d1" height="35" width="35" x="216" y="468" /><rect fill="#3c84d1" height="35" width="35" x="252" y="468" /><rect fill="#3c84d1" height="35" width="35" x="288" y="468" /><rect fill="#3d84cf" height="35" width="35" x="324" y="468" /><rect fill="#3c84d1" height="35" width="35" x="360" y="468" /><rect fill="#000000" height="35" width="35" x="396" y="468" /><rect fill="#000000" height="35" width="35" x="432" y="468" /><rect fill="#000000" height="35" width="35" x="468" y="468" /><rect fill="#000000" height="35" width="35" x="504" y="468" /><rect fill="#000000" height="35" width="35" x="540" y="468" /><rect fill="#000000" height="35" width="35" x="0" y="504" /><rect fill="#000000" height="35" width="35" x="36" y="504" /><rect fill="#000000" height="35" width="35" x="72" y="504" /><rect fill="#000000" height="35" width="35" x="108" y="504" /><rect fill="#000000" height="35" width="35" x="144" y="504" /><rect fill="#000000" height="35" width="35" x="180" y="504" /><rect fill="#3e83d1" height="35" width="35" x="216" y="504" /><rect fill="#3c84d1" height="35" width="35" x="252" y="504" /><rect fill="#3c84d1" height="35" width="35" x="288" y="504" /><rect fill="#3c84d1" height="35" width="35" x="324" y="504" /><rect fill="#000100" height="35" width="35" x="360" y="504" /><rect fill="#000000" height="35" width="35" x="396" y="504" /><rect fill="#000000" height="35" width="35" x="432" y="504" /><rect fill="#000000" height="35" width="35" x="468" y="504" /><rect fill="#000000" height="35" width="35" x="504" y="504" /><rect fill="#000000" height="35" width="35" x="540" y="504" /><rect fill="#000000" height="35" width="35" x="0" y="540" /><rect fill="#000000" height="35" width="35" x="36" y="540" /><rect fill="#000000" height="35" width="35" x="72" y="540" /><rect fill="#000000" height="35" width="35" x="108" y="540" /><rect fill="#000000" height="35" width="35" x="144" y="540" /><rect fill="#000000" height="35" width="35" x="180" y="540" /><rect fill="#000000" height="35" width="35" x="216" y="540" /><rect fill="#000000" height="35" width="35" x="252" y="540" /><rect fill="#000000" height="35" width="35" x="288" y="540" /><rect fill="#000000" height="35" width="35" x="324" y="540" /><rect fill="#010000" height="35" width="35" x="360" y="540" /><rect fill="#000000" height="35" width="35" x="396" y="540" /><rect fill="#000000" height="35" width="35" x="432" y="540" /><rect fill="#000000" height="35" width="35" x="468" y="540" /><rect fill="#000000" height="35" width="35" x="504" y="540" /><rect fill="#000000" height="35" width="35" x="540" y="540" /></svg>