<?xml version="1.0" encoding="utf-8" ?>
<svg baseProfile="tiny" height="575" version="1.2" width="575" xmlns="http://www.w3.org/2000/svg" xmlns:ev="http://www.w3.org/2001/xml-events" xmlns:xlink="http://www.w3.org/1999/xlink"><defs /><rect fill="#000000" height="35" width="35" x="0" y="0" /><rect fill="#000000" height="35" width="35" x="36" y="0" /><rect fill="#000000" height="35" width="35" x="72" y="0" /><rect fill="#000000" height="35" width="35" x="108" y="0" /><rect fill="#000000" height="35" width="35" x="144" y="0" /><rect fill="#000000" height="35" width="35" x="180" y="0" /><rect fill="#b7b7b7" height="35" width="35" x="216" y="0" /><rect fill="#ffffff" height="35" width="35" x="252" y="0" /><rect fill="#ffffff" height="35" width="35" x="288" y="0" /><rect fill="#b7b7b7" height="35" width="35" x="324" y="0" /><rect fill="#000000" height="35" width="35" x="360" y="0" /><rect fill="#000000" height="35" width="35" x="396" y="0" /><rect fill="#000000" height="35" width="35" x="432" y="0" /><rect fill="#000000" height="35" width="35" x="468" y="0" /><rect fill="#000000" height="35" width="35" x="504" y="0" /><rect fill="#000000" height="35" width="35" x="540" y="0" /><rect fill="#000000" height="35" width="35" x="0" y="36" /><rect fill="#000000" height="35" width="35" x="36" y="36" /><rect fill="#000000" height="35" width="35" x="72" y="36" /><rect fill="#000000" height="35" width="35" x="108" y="36" /><rect fill="#000000" height="35" width="35" x="144" y="36" /><rect fill="#000000" height="35" width="35" x="180" y="36" /><rect fill="#b7b7b7" height="35" width="35" x="216" y="36" /><rect fill="#ffffff" height="35" width="35" x="252" y="36" /><rect fill="#ffffff" height="35" width="35" x="288" y="36" /><rect fill="#b7b7b7" height="35" width="35" x="324" y="36" /><rect fill="#000000" height="35" width="35" x="360" y="36" /><rect fill="#000000" height="35" width="35" x="396" y="36" /><rect fill="#000000" height="35" width="35" x="432" y="36" /><rect fill="#000000" height="35" width="35" x="468" y="36" /><rect fill="#000000" height="35" width="35" x="504" y="36" /><rect fill="#000000" height="35" width="35" x="540" y="36" /><rect fill="#000000" height="35" width="35" x="0" y="72" /><rect fill="#000000" height="35" width="35" x="36" y="72" /><rect fill="#000000" height="35" width="35" x="72" y="72" /><rect fill="#000000" height="35" width="35" x="108" y="72" /><rect fill="#000000" height="35" width="35" x="144" y="72" /><rect fill="#000000" height="35" width="35" x="180" y="72" /><rect fill="#711b2d" height="35" width="35" x="216" y="72" /><rect fill="#a22537" height="35" width="35" x="252" y="72" /><rect fill="#a42538" height="35" width="35" x="288" y="72" /><rect fill="#6e1a2c" height="35" width="35" x="324" y="72" /><rect fill="#000000" height="35" width="35" x="360" y="72" /><rect fill="#000000" height="35" width="35" x="396" y="72" /><rect fill="#000000" height="35" width="35" x="432" y="72" /><rect fill="#000000" height="35" width="35" x="468" y="72" /><rect fill="#000000" height="35" width="35" x="504" y="72" /><rect fill="#000000" height="35" width="35" x="540" y="72" /><rect fill="#000000" height="35" width="35" x="0" y="108" /><rect fill="#000000" height="35" width="35" x="36" y="108" /><rect fill="#000000" height="35" width="35" x="72" y="108" /><rect fill="#000000" height="35" width="35" x="108" y="108" /><rect fill="#000000" height="35" width="35" x="144" y="108" /><rect fill="#6e1c2c" height="35" width="35" x="180" y="108" /><rect fill="#a52638" height="35" width="35" x="216" y="108" /><rect fill="#dc3744" height="35" width="35" x="252" y="108" /><rect fill="#db3744" height="35" width="35" x="288" y="108" /><rect fill="#a52636" height="35" width="35" x="324" y="108" /><rect fill="#711b2b" height="35" width="35" x="360" y="108" /><rect fill="#000000" height="35" width="35" x="396" y="108" /><rect fill="#000000" height="35" width="35" x="432" y="108" /><rect fill="#000000" height="35" width="35" x="468" y="108" /><rect fill="#000000" height="35" width="35" x="504" y="108" /><rect fill="#000000" height="35" width="35" x="540" y="108" /><rect fill="#000000" height="35" width="35" x="0" y="144" /><rect fill="#000000" height="35" width="35" x="36" y="144" /><rect fill="#000000" height="35" width="35" x="72" y="144" /><rect fill="#000000" height="35" width="35" x="108" y="144" /><rect fill="#000000" height="35" width="35" x="144" y="144" /><rect fill="#a42537" height="35" width="35" x="180" y="144" /><rect fill="#da3744" height="35" width="35" x="216" y="144" /><rect fill="#dc3745" height="35" width="35" x="252" y="144" /><rect fill="#dc3744" height="35" width="35" x="288" y="144" /><rect fill="#dc3744" height="35" width="35" x="324" y="144" /><rect fill="#a42537" height="35" width="35" x="360" y="144" /><rect fill="#000100" height="35" width="35" x="396" y="144" /><rect fill="#000000" height="35" width="35" x="432" y="144" /><rect fill="#000000" height="35" width="35" x="468" y="144" /><rect fill="#000000" height="35" width="35" x="504" y="144" /><rect fill="#000000" height="35" width="35" x="540" y="144" /><rect fill="#000000" height="35" width="35" x="0" y="180" /><rect fill="#000000" height="35" width="35" x="36" y="180" /><rect fill="#000000" height="35" width="35" x="72" y="180" /><rect fill="#000000" height="35" width="35" x="108" y="180" /><rect fill="#a32435" height="35" width="35" x="144" y="180" /><rect fill="#dd3644" height="35" width="35" x="180" y="180" /><rect fill="#dc3744" height="35" width="35" x="216" y="180" /><rect fill="#dc3744" height="35" width="35" x="252" y="180" /><rect fill="#dc3744" height="35" width="35" x="288" y="180" /><rect fill="#dc3744" height="35" width="35" x="324" y="180" /><rect fill="#a42537" height="35" width="35" x="360" y="180" /><rect fill="#a42537" height="35" width="35" x="396" y="180" /><rect fill="#000000" height="35" width="35" x="432" y="180" /><rect fill="#000000" height="35" width="35" x="468" y="180" /><rect fill="#000000" height="35" width="35" x="504" y="180" /><rect fill="#000000" height="35" width="35" x="540" y="180" /><rect fill="#000000" height="35" width="35" x="0" y="216" /><rect fill="#000000" height="35" width="35" x="36" y="216" /><rect fill="#010000" height="35" width="35" x="72" y="216" /><rect fill="#6e1a2d" height="35" width="35" x="108" y="216" /><rect fill="#a52535" height="35" width="35" x="144" y="216" /><rect fill="#dc3744" height="35" width="35" x="180" y="216" /><rect fill="#fffffd" height="35" width="35" x="216" y="216" /><rect fill="#fffffd" height="35" width="35" x="252" y="216" /><rect fill="#fffffd" height="35" width="35" x="288" y="216" /><rect fill="#fefefc" height="35" width="35" x="324" y="216" /><rect fill="#a42537" height="35" width="35" x="360" y="216" /><rect fill="#a42537" height="35" width="35" x="396" y="216" /><rect fill="#721c2d" height="35" width="35" x="432" y="216" /><rect fill="#000000" height="35" width="35" x="468" y="216" /><rect fill="#000000" height="35" width="35" x="504" y="216" /><rect fill="#000000" height="35" width="35" x="540" y="216" /><rect fill="#000000" height="35" width="35" x="0" y="252" /><rect fill="#000000" height="35" width="35" x="36" y="252" /><rect fill="#b5b7b7" height="35" width="35" x="72" y="252" /><rect fill="#fcfefe" height="35" width="35" x="108" y="252" /><rect fill="#fdffff" height="35" width="35" x="144" y="252" /><rect fill="#ffffff" height="35" width="35" x="180" y="252" /><rect fill="#50b9ea" height="35" width="35" x="216" y="252" /><rect fill="#4fbaea" height="35" width="35" x="252" y="252" /><rect fill="#4fbae9" height="35" width="35" x="288" y="252" /><rect fill="#4ebaea" height="35" width="35" x="324" y="252" /><rect fill="#fdfefc" height="35" width="35" x="360" y="252" /><rect fill="#fdffff" height="35" width="35" x="396" y="252" /><rect fill="#ffffff" height="35" width="35" x="432" y="252" /><rect fill="#b7b7b7" height="35" width="35" x="468" y="252" /><rect fill="#000000" height="35" width="35" x="504" y="252" /><rect fill="#000000" height="35" width="35" x="540" y="252" /><rect fill="#000000" height="35" width="35" x="0" y="288" /><rect fill="#b7b7b7" height="35" width="35" x="36" y="288" /><rect fill="#ffffff" height="35" width="35" x="72" y="288" /><rect fill="#4fbaea" height="35" width="35" x="108" y="288" /><rect fill="#4fbaea" height="35" width="35" x="144" y="288" /><rect fill="#4fbaea" height="35" width="35" x="180" y="288" /><rect fill="#4fbaea" height="35" width="35" x="216" y="288" /><rect fill="#4fbaea" height="35" width="35" x="252" y="288" /><rect fill="#4fbaea" height="35" width="35" x="288" y="288" /><rect fill="#50b9ea" height="35" width="35" x="324" y="288" /><rect fill="#4fbaea" height="35" width="35" x="360" y="288" /><rect fill="#4fbaea" height="35" width="35" x="396" y="288" /><rect fill="#4fbaea" height="35" width="35" x="432" y="288" /><rect fill="#ffffff" height="35" width="35" x="468" y="288" /><rect fill="#b7b7b7" height="35" width="35" x="504" y="288" /><rect fill="#000000" height="35" width="35" x="540" y="288" /><rect fill="#000001" height="35" width="35" x="0" y="324" /><rect fill="#b7b5b6" height="35" width="35" x="36" y="324" /><rect fill="#50bbeb" height="35" width="35" x="72" y="324" /><rect fill="#4fbaea" height="35" width="35" x="108" y="324" /><rect fill="#89dafe" height="35" width="35" x="144" y="324" /><rect fill="#feffff" height="35" width="35" x="180" y="324" /><rect fill="#89dafe" height="35" width="35" x="216" y="324" /><rect fill="#4fbaec" height="35" width="35" x="252" y="324" /><rect fill="#4fbaea" height="35" width="35" x="288" y="324" /><rect fill="#8bdafe" height="35" width="35" x="324" y="324" /><rect fill="#fdfffd" height="35" width="35" x="360" y="324" /><rect fill="#89dafd" height="35" width="35" x="396" y="324" /><rect fill="#50b9ea" height="35" width="35" x="432" y="324" /><rect fill="#50bbeb" height="35" width="35" x="468" y="324" /><rect fill="#b7b7b7" height="35" width="35" x="504" y="324" /><rect fill="#020000" height="35" width="35" x="540" y="324" /><rect fill="#4db9e8" height="35" width="35" x="0" y="360" /><rect fill="#4db9e9" height="35" width="35" x="36" y="360" /><rect fill="#4fbaeb" height="35" width="35" x="72" y="360" /><rect fill="#4fbaea" height="35" width="35" x="108" y="360" /><rect fill="#fdffff" height="35" width="35" x="144" y="360" /><rect fill="#000000" height="35" width="35" x="180" y="360" /><rect fill="#fffffe" height="35" width="35" x="216" y="360" /><rect fill="#4fbaea" height="35" width="35" x="252" y="360" /><rect fill="#4fbaea" height="35" width="35" x="288" y="360" /><rect fill="#fdfdfc" height="35" width="35" x="324" y="360" /><rect fill="#010000" height="35" width="35" x="360" y="360" /><rect fill="#fffeff" height="35" width="35" x="396" y="360" /><rect fill="#50b9ea" height="35" width="35" x="432" y="360" /><rect fill="#4db9e9" height="35" width="35" x="468" y="360" /><rect fill="#4fbaea" height="35" width="35" x="504" y="360" /><rect fill="#50b9ea" height="35" width="35" x="540" y="360" /><rect fill="#4fbaea" height="35" width="35" x="0" y="396" /><rect fill="#50b9ea" height="35" width="35" x="36" y="396" /><rect fill="#4fbae8" height="35" width="35" x="72" y="396" /><rect fill="#4fbaea" height="35" width="35" x="108" y="396" /><rect fill="#8bdafd" height="35" width="35" x="144" y="396" /><rect fill="#fffeff" height="35" width="35" x="180" y="396" /><rect fill="#89dafe" height="35" width="35" x="216" y="396" /><rect fill="#4fbaea" height="35" width="35" x="252" y="396" /><rect fill="#4fbaea" height="35" width="35" x="288" y="396" /><rect fill="#88d9fb" height="35" width="35" x="324" y="396" /><rect fill="#ffffff" height="35" width="35" x="360" y="396" /><rect fill="#89dcff" height="35" width="35" x="396" y="396" /><rect fill="#4dbbe8" height="35" width="35" x="432" y="396" /><rect fill="#4fbaea" height="35" width="35" x="468" y="396" /><rect fill="#4fbaea" height="35" width="35" x="504" y="396" /><rect fill="#4fbaea" height="35" width="35" x="540" y="396" /><rect fill="#3c82d0" height="35" width="35" x="0" y="432" /><rect fill="#3d84cf" height="35" width="35" x="36" y="432" /><rect fill="#4fbaea" height="35" width="35" x="72" y="432" /><rect fill="#4fbaea" height="35" width="35" x="108" y="432" /><rect fill="#50b9ea" height="35" width="35" x="144" y="432" /><rect fill="#da3746" height="35" width="35" x="180" y="432" /><rect fill="#4fbaea" height="35" width="35" x="216" y="432" /><rect fill="#4fbaea" height="35" width="35" x="252" y="432" /><rect fill="#4fbaea" height="35" width="35" x="288" y="432" /><rect fill="#52b9ea" height="35" width="35" x="324" y="432" /><rect fill="#dd3744" height="35" width="35" x="360" y="432" /><rect fill="#4fbaea" height="35" width="35" x="396" y="432" /><rect fill="#4fbaea" height="35" width="35" x="432" y="432" /><rect fill="#4fbaea" height="35" width="35" x="468" y="432" /><rect fill="#3c84d1" height="35" width="35" x="504" y="432" /><rect fill="#3d84d1" height="35" width="35" x="540" y="432" /><rect fill="#010000" height="35" width="35" x="0" y="468" /><rect fill="#3985cc" height="35" width="35" x="36" y="468" /><rect fill="#3c84d1" height="35" width="35" x="72" y="468" /><rect fill="#4fbaea" height="35" width="35" x="108" y="468" /><rect fill="#50b9ea" height="35" width="35" x="144" y="468" /><rect fill="#4cb9e9" height="35" width="35" x="180" y="468" /><rect fill="#db3641" height="35" width="35" x="216" y="468" /><rect fill="#d93641" height="35" width="35" x="252" y="468" /><rect fill="#d93641" height="35" width="35" x="288" y="468" /><rect fill="#db3546" height="35" width="35" x="324" y="468" /><rect fill="#50baea" height="35" width="35" x="360" y="468" /><rect fill="#4fbaea" height="35" width="35" x="396" y="468" /><rect fill="#4fbaea" height="35" width="35" x="432" y="468" /><rect fill="#3a85cf" height="35" width="35" x="468" y="468" /><rect fill="#3c84d1" height="35" width="35" x="504" y="468" /><rect fill="#000002" height="35" width="35" x="540" y="468" /><rect fill="#000000" height="35" width="35" x="0" y="504" /><rect fill="#000000" height="35" width="35" x="36" y="504" /><rect fill="#3d85d2" height="35" width="35" x="72" y="504" /><rect fill="#3c84d1" height="35" width="35" x="108" y="504" /><rect fill="#4fbaea" height="35" width="35" x="144" y="504" /><rect fill="#4db8eb" height="35" width="35" x="180" y="504" /><rect fill="#4dbaec" height="35" width="35" x="216" y="504" /><rect fill="#4fbaea" height="35" width="35" x="252" y="504" /><rect fill="#4fbaea" height="35" width="35" x="288" y="504" /><rect fill="#4fbaea" height="35" width="35" x="324" y="504" /><rect fill="#50baea" height="35" width="35" x="360" y="504" /><rect fill="#4fbaea" height="35" width="35" x="396" y="504" /><rect fill="#3f83d1" height="35" width="35" x="432" y="504" /><rect fill="#4084d0" height="35" width="35" x="468" y="504" /><rect fill="#000000" height="35" width="35" x="504" y="504" /><rect fill="#000000" height="35" width="35" x="540" y="504" /><rect fill="#000000" height="35" width="35" x="0" y="540" /><rect fill="#000000" height="35" width="35" x="36" y="540" /><rect fill="#000000" height="35" width="35" x="72" y="540" /><rect fill="#3c84d1" height="35" width="35" x="108" y="540" /><rect fill="#3a83d0" height="35" width="35" x="144" y="540" /><rect fill="#3c84d3" height="35" width="35" x="180" y="540" /><rect fill="#3d84d1" height="35" width="35" x="216" y="540" /><rect fill="#3c84d1" height="35" width="35" x="252" y="540" /><rect fill="#3c84d1" height="35" width="35" x="288" y="540" /><rect fill="#3c84d1" height="35" width="35" x="324" y="540" /><rect fill="#3c84d1" height="35" width="35" x="360" y="540" /><rect fill="#3c84d1" height="35" width="35" x="396" y="540" /><rect fill="#3a83ce" height="35" width="35" x="432" y="540" /><rect fill="#000000" height="35" width="35" x="468" y="540" /><rect fill="#000000" height="35" width="35" x="504" y="540" /><rect fill="#000000" height="35" width="35" x="540" y="540" /></svg>