<?xml version="1.0" encoding="utf-8" ?>
<svg baseProfile="tiny" height="575" version="1.2" width="575" xmlns="http://www.w3.org/2000/svg" xmlns:ev="http://www.w3.org/2001/xml-events" xmlns:xlink="http://www.w3.org/1999/xlink"><defs /><rect fill="#000000" height="35" width="35" x="0" y="0" /><rect fill="#000000" height="35" width="35" x="36" y="0" /><rect fill="#000000" height="35" width="35" x="72" y="0" /><rect fill="#000000" height="35" width="35" x="108" y="0" /><rect fill="#000000" height="35" width="35" x="144" y="0" /><rect fill="#000000" height="35" width="35" x="180" y="0" /><rect fill="#000000" height="35" width="35" x="216" y="0" /><rect fill="#000000" height="35" width="35" x="252" y="0" /><rect fill="#000000" height="35" width="35" x="288" y="0" /><rect fill="#000000" height="35" width="35" x="324" y="0" /><rect fill="#000000" height="35" width="35" x="360" y="0" /><rect fill="#000000" height="35" width="35" x="396" y="0" /><rect fill="#000000" height="35" width="35" x="432" y="0" /><rect fill="#000000" height="35" width="35" x="468" y="0" /><rect fill="#000000" height="35" width="35" x="504" y="0" /><rect fill="#000000" height="35" width="35" x="540" y="0" /><rect fill="#000000" height="35" width="35" x="0" y="36" /><rect fill="#000000" height="35" width="35" x="36" y="36" /><rect fill="#000000" height="35" width="35" x="72" y="36" /><rect fill="#000000" height="35" width="35" x="108" y="36" /><rect fill="#000000" height="35" width="35" x="144" y="36" /><rect fill="#fe002c" height="35" width="35" x="180" y="36" /><rect fill="#fc0128" height="35" width="35" x="216" y="36" /><rect fill="#fd002d" height="35" width="35" x="252" y="36" /><rect fill="#ff002c" height="35" width="35" x="288" y="36" /><rect fill="#fd0029" height="35" width="35" x="324" y="36" /><rect fill="#fd002b" height="35" width="35" x="360" y="36" /><rect fill="#000000" height="35" width="35" x="396" y="36" /><rect fill="#000000" height="35" width="35" x="432" y="36" /><rect fill="#000000" height="35" width="35" x="468" y="36" /><rect fill="#000000" height="35" width="35" x="504" y="36" /><rect fill="#000000" height="35" width="35" x="540" y="36" /><rect fill="#000000" height="35" width="35" x="0" y="72" /><rect fill="#000000" height="35" width="35" x="36" y="72" /><rect fill="#000000" height="35" width="35" x="72" y="72" /><rect fill="#000000" height="35" width="35" x="108" y="72" /><rect fill="#fe0430" height="35" width="35" x="144" y="72" /><rect fill="#fb012a" height="35" width="35" x="180" y="72" /><rect fill="#fb012a" height="35" width="35" x="216" y="72" /><rect fill="#fc0128" height="35" width="35" x="252" y="72" /><rect fill="#fb0128" height="35" width="35" x="288" y="72" /><rect fill="#fa0027" height="35" width="35" x="324" y="72" /><rect fill="#f80127" height="35" width="35" x="360" y="72" /><rect fill="#ff0027" height="35" width="35" x="396" y="72" /><rect fill="#000000" height="35" width="35" x="432" y="72" /><rect fill="#000000" height="35" width="35" x="468" y="72" /><rect fill="#000000" height="35" width="35" x="504" y="72" /><rect fill="#000000" height="35" width="35" x="540" y="72" /><rect fill="#000000" height="35" width="35" x="0" y="108" /><rect fill="#000000" height="35" width="35" x="36" y="108" /><rect fill="#f3f4f0" height="35" width="35" x="72" y="108" /><rect fill="#f3f4f1" height="35" width="35" x="108" y="108" /><rect fill="#ff0333" height="35" width="35" x="144" y="108" /><rect fill="#edf4f0" height="35" width="35" x="180" y="108" /><rect fill="#eef3f0" height="35" width="35" x="216" y="108" /><rect fill="#eef4f0" height="35" width="35" x="252" y="108" /><rect fill="#f5f2f0" height="35" width="35" x="288" y="108" /><rect fill="#f9f5f4" height="35" width="35" x="324" y="108" /><rect fill="#f6f3f1" height="35" width="35" x="360" y="108" /><rect fill="#f6f3f1" height="35" width="35" x="396" y="108" /><rect fill="#000000" height="35" width="35" x="432" y="108" /><rect fill="#000000" height="35" width="35" x="468" y="108" /><rect fill="#000000" height="35" width="35" x="504" y="108" /><rect fill="#000000" height="35" width="35" x="540" y="108" /><rect fill="#000000" height="35" width="35" x="0" y="144" /><rect fill="#000000" height="35" width="35" x="36" y="144" /><rect fill="#eff4ec" height="35" width="35" x="72" y="144" /><rect fill="#f2f4ee" height="35" width="35" x="108" y="144" /><rect fill="#000000" height="35" width="35" x="144" y="144" /><rect fill="#ffce78" height="35" width="35" x="180" y="144" /><rect fill="#f6ef74" height="35" width="35" x="216" y="144" /><rect fill="#fef076" height="35" width="35" x="252" y="144" /><rect fill="#fef076" height="35" width="35" x="288" y="144" /><rect fill="#fcf076" height="35" width="35" x="324" y="144" /><rect fill="#fcf170" height="35" width="35" x="360" y="144" /><rect fill="#ffca78" height="35" width="35" x="396" y="144" /><rect fill="#000000" height="35" width="35" x="432" y="144" /><rect fill="#000000" height="35" width="35" x="468" y="144" /><rect fill="#000000" height="35" width="35" x="504" y="144" /><rect fill="#000000" height="35" width="35" x="540" y="144" /><rect fill="#000000" height="35" width="35" x="0" y="180" /><rect fill="#000000" height="35" width="35" x="36" y="180" /><rect fill="#000000" height="35" width="35" x="72" y="180" /><rect fill="#000000" height="35" width="35" x="108" y="180" /><rect fill="#000000" height="35" width="35" x="144" y="180" /><rect fill="#ffcb73" height="35" width="35" x="180" y="180" /><rect fill="#1b1c2a" height="35" width="35" x="216" y="180" /><rect fill="#fef076" height="35" width="35" x="252" y="180" /><rect fill="#fef074" height="35" width="35" x="288" y="180" /><rect fill="#fff070" height="35" width="35" x="324" y="180" /><rect fill="#1a1b2d" height="35" width="35" x="360" y="180" /><rect fill="#ffcc73" height="35" width="35" x="396" y="180" /><rect fill="#000000" height="35" width="35" x="432" y="180" /><rect fill="#000000" height="35" width="35" x="468" y="180" /><rect fill="#000000" height="35" width="35" x="504" y="180" /><rect fill="#000000" height="35" width="35" x="540" y="180" /><rect fill="#000000" height="35" width="35" x="0" y="216" /><rect fill="#000000" height="35" width="35" x="36" y="216" /><rect fill="#000000" height="35" width="35" x="72" y="216" /><rect fill="#f07d5a" height="35" width="35" x="108" y="216" /><rect fill="#000000" height="35" width="35" x="144" y="216" /><rect fill="#fccd70" height="35" width="35" x="180" y="216" /><rect fill="#face6f" height="35" width="35" x="216" y="216" /><rect fill="#f18205" height="35" width="35" x="252" y="216" /><rect fill="#f18205" height="35" width="35" x="288" y="216" /><rect fill="#f18201" height="35" width="35" x="324" y="216" /><rect fill="#ffc96e" height="35" width="35" x="360" y="216" /><rect fill="#f9c979" height="35" width="35" x="396" y="216" /><rect fill="#000000" height="35" width="35" x="432" y="216" /><rect fill="#000000" height="35" width="35" x="468" y="216" /><rect fill="#000000" height="35" width="35" x="504" y="216" /><rect fill="#000000" height="35" width="35" x="540" y="216" /><rect fill="#000000" height="35" width="35" x="0" y="252" /><rect fill="#000000" height="35" width="35" x="36" y="252" /><rect fill="#000000" height="35" width="35" x="72" y="252" /><rect fill="#ee7c52" height="35" width="35" x="108" y="252" /><rect fill="#e87950" height="35" width="35" x="144" y="252" /><rect fill="#feca77" height="35" width="35" x="180" y="252" /><rect fill="#fdcc74" height="35" width="35" x="216" y="252" /><rect fill="#fece70" height="35" width="35" x="252" y="252" /><rect fill="#fece70" height="35" width="35" x="288" y="252" /><rect fill="#fece70" height="35" width="35" x="324" y="252" /><rect fill="#fece70" height="35" width="35" x="360" y="252" /><rect fill="#fdce75" height="35" width="35" x="396" y="252" /><rect fill="#000000" height="35" width="35" x="432" y="252" /><rect fill="#000000" height="35" width="35" x="468" y="252" /><rect fill="#000000" height="35" width="35" x="504" y="252" /><rect fill="#000000" height="35" width="35" x="540" y="252" /><rect fill="#000000" height="35" width="35" x="0" y="288" /><rect fill="#000000" height="35" width="35" x="36" y="288" /><rect fill="#000000" height="35" width="35" x="72" y="288" /><rect fill="#ef7c55" height="35" width="35" x="108" y="288" /><rect fill="#ffee73" height="35" width="35" x="144" y="288" /><rect fill="#ffcc71" height="35" width="35" x="180" y="288" /><rect fill="#fece73" height="35" width="35" x="216" y="288" /><rect fill="#fef075" height="35" width="35" x="252" y="288" /><rect fill="#ffef73" height="35" width="35" x="288" y="288" /><rect fill="#fff175" height="35" width="35" x="324" y="288" /><rect fill="#ffef75" height="35" width="35" x="360" y="288" /><rect fill="#fece75" height="35" width="35" x="396" y="288" /><rect fill="#f27b56" height="35" width="35" x="432" y="288" /><rect fill="#000000" height="35" width="35" x="468" y="288" /><rect fill="#000000" height="35" width="35" x="504" y="288" /><rect fill="#000000" height="35" width="35" x="540" y="288" /><rect fill="#000000" height="35" width="35" x="0" y="324" /><rect fill="#000000" height="35" width="35" x="36" y="324" /><rect fill="#000000" height="35" width="35" x="72" y="324" /><rect fill="#ed7c52" height="35" width="35" x="108" y="324" /><rect fill="#ffed71" height="35" width="35" x="144" y="324" /><rect fill="#fbcf73" height="35" width="35" x="180" y="324" /><rect fill="#feee75" height="35" width="35" x="216" y="324" /><rect fill="#fff278" height="35" width="35" x="252" y="324" /><rect fill="#fff177" height="35" width="35" x="288" y="324" /><rect fill="#ffef76" height="35" width="35" x="324" y="324" /><rect fill="#fff177" height="35" width="35" x="360" y="324" /><rect fill="#fdcd74" height="35" width="35" x="396" y="324" /><rect fill="#ef7751" height="35" width="35" x="432" y="324" /><rect fill="#000000" height="35" width="35" x="468" y="324" /><rect fill="#000000" height="35" width="35" x="504" y="324" /><rect fill="#000000" height="35" width="35" x="540" y="324" /><rect fill="#000000" height="35" width="35" x="0" y="360" /><rect fill="#000000" height="35" width="35" x="36" y="360" /><rect fill="#000000" height="35" width="35" x="72" y="360" /><rect fill="#fccb74" height="35" width="35" x="108" y="360" /><rect fill="#f08055" height="35" width="35" x="144" y="360" /><rect fill="#fbcd73" height="35" width="35" x="180" y="360" /><rect fill="#fff177" height="35" width="35" x="216" y="360" /><rect fill="#fff176" height="35" width="35" x="252" y="360" /><rect fill="#fff176" height="35" width="35" x="288" y="360" /><rect fill="#fdef75" height="35" width="35" x="324" y="360" /><rect fill="#fef075" height="35" width="35" x="360" y="360" /><rect fill="#fef074" height="35" width="35" x="396" y="360" /><rect fill="#ffcf7d" height="35" width="35" x="432" y="360" /><rect fill="#000000" height="35" width="35" x="468" y="360" /><rect fill="#000000" height="35" width="35" x="504" y="360" /><rect fill="#000000" height="35" width="35" x="540" y="360" /><rect fill="#000000" height="35" width="35" x="0" y="396" /><rect fill="#000000" height="35" width="35" x="36" y="396" /><rect fill="#000000" height="35" width="35" x="72" y="396" /><rect fill="#fdcc76" height="35" width="35" x="108" y="396" /><rect fill="#fdcc73" height="35" width="35" x="144" y="396" /><rect fill="#fdce73" height="35" width="35" x="180" y="396" /><rect fill="#fff177" height="35" width="35" x="216" y="396" /><rect fill="#fef074" height="35" width="35" x="252" y="396" /><rect fill="#fef074" height="35" width="35" x="288" y="396" /><rect fill="#fdef73" height="35" width="35" x="324" y="396" /><rect fill="#fef074" height="35" width="35" x="360" y="396" /><rect fill="#fef074" height="35" width="35" x="396" y="396" /><rect fill="#fccb79" height="35" width="35" x="432" y="396" /><rect fill="#000000" height="35" width="35" x="468" y="396" /><rect fill="#000000" height="35" width="35" x="504" y="396" /><rect fill="#000000" height="35" width="35" x="540" y="396" /><rect fill="#000000" height="35" width="35" x="0" y="432" /><rect fill="#000000" height="35" width="35" x="36" y="432" /><rect fill="#000000" height="35" width="35" x="72" y="432" /><rect fill="#000000" height="35" width="35" x="108" y="432" /><rect fill="#fdcc73" height="35" width="35" x="144" y="432" /><rect fill="#fdcc73" height="35" width="35" x="180" y="432" /><rect fill="#fdcd6f" height="35" width="35" x="216" y="432" /><rect fill="#fef074" height="35" width="35" x="252" y="432" /><rect fill="#fef074" height="35" width="35" x="288" y="432" /><rect fill="#fff175" height="35" width="35" x="324" y="432" /><rect fill="#ffef76" height="35" width="35" x="360" y="432" /><rect fill="#fbce6d" height="35" width="35" x="396" y="432" /><rect fill="#000000" height="35" width="35" x="432" y="432" /><rect fill="#000000" height="35" width="35" x="468" y="432" /><rect fill="#000000" height="35" width="35" x="504" y="432" /><rect fill="#000000" height="35" width="35" x="540" y="432" /><rect fill="#000000" height="35" width="35" x="0" y="468" /><rect fill="#000000" height="35" width="35" x="36" y="468" /><rect fill="#000000" height="35" width="35" x="72" y="468" /><rect fill="#000000" height="35" width="35" x="108" y="468" /><rect fill="#000000" height="35" width="35" x="144" y="468" /><rect fill="#fccb74" height="35" width="35" x="180" y="468" /><rect fill="#fecc74" height="35" width="35" x="216" y="468" /><rect fill="#fbcd72" height="35" width="35" x="252" y="468" /><rect fill="#fbcd72" height="35" width="35" x="288" y="468" /><rect fill="#ffcf74" height="35" width="35" x="324" y="468" /><rect fill="#fdcd72" height="35" width="35" x="360" y="468" /><rect fill="#000000" height="35" width="35" x="396" y="468" /><rect fill="#000000" height="35" width="35" x="432" y="468" /><rect fill="#000000" height="35" width="35" x="468" y="468" /><rect fill="#000000" height="35" width="35" x="504" y="468" /><rect fill="#000000" height="35" width="35" x="540" y="468" /><rect fill="#000000" height="35" width="35" x="0" y="504" /><rect fill="#000000" height="35" width="35" x="36" y="504" /><rect fill="#000000" height="35" width="35" x="72" y="504" /><rect fill="#000000" height="35" width="35" x="108" y="504" /><rect fill="#f38103" height="35" width="35" x="144" y="504" /><rect fill="#f38103" height="35" width="35" x="180" y="504" /><rect fill="#000000" height="35" width="35" x="216" y="504" /><rect fill="#000000" height="35" width="35" x="252" y="504" /><rect fill="#000000" height="35" width="35" x="288" y="504" /><rect fill="#f38103" height="35" width="35" x="324" y="504" /><rect fill="#000000" height="35" width="35" x="360" y="504" /><rect fill="#000000" height="35" width="35" x="396" y="504" /><rect fill="#000000" height="35" width="35" x="432" y="504" /><rect fill="#000000" height="35" width="35" x="468" y="504" /><rect fill="#000000" height="35" width="35" x="504" y="504" /><rect fill="#000000" height="35" width="35" x="540" y="504" /><rect fill="#f3f5f5" height="35" width="35" x="0" y="540" /><rect fill="#f2f4f3" height="35" width="35" x="36" y="540" /><rect fill="#f5f3f3" height="35" width="35" x="72" y="540" /><rect fill="#f3f3f2" height="35" width="35" x="108" y="540" /><rect fill="#f38103" height="35" width="35" x="144" y="540" /><rect fill="#f38103" height="35" width="35" x="180" y="540" /><rect fill="#f4f1f6" height="35" width="35" x="216" y="540" /><rect fill="#f2f4f1" height="35" width="35" x="252" y="540" /><rect fill="#f3f3f5" height="35" width="35" x="288" y="540" /><rect fill="#f38103" height="35" width="35" x="324" y="540" /><rect fill="#f38103" height="35" width="35" x="360" y="540" /><rect fill="#f4f2f0" height="35" width="35" x="396" y="540" /><rect fill="#f3f4f1" height="35" width="35" x="432" y="540" /><rect fill="#f3f4f1" height="35" width="35" x="468" y="540" /><rect fill="#f0f4f3" height="35" width="35" x="504" y="540" /><rect fill="#f0f5f1" height="35" width="35" x="540" y="540" /></svg>