<?xml version="1.0" encoding="utf-8" ?>
<svg baseProfile="tiny" height="575" version="1.2" width="575" xmlns="http://www.w3.org/2000/svg" xmlns:ev="http://www.w3.org/2001/xml-events" xmlns:xlink="http://www.w3.org/1999/xlink"><defs /><rect fill="#000000" height="35" width="35" x="0" y="0" /><rect fill="#000000" height="35" width="35" x="36" y="0" /><rect fill="#000000" height="35" width="35" x="72" y="0" /><rect fill="#000000" height="35" width="35" x="108" y="0" /><rect fill="#000000" height="35" width="35" x="144" y="0" /><rect fill="#000000" height="35" width="35" x="180" y="0" /><rect fill="#000000" height="35" width="35" x="216" y="0" /><rect fill="#000000" height="35" width="35" x="252" y="0" /><rect fill="#000000" height="35" width="35" x="288" y="0" /><rect fill="#000000" height="35" width="35" x="324" y="0" /><rect fill="#000000" height="35" width="35" x="360" y="0" /><rect fill="#000000" height="35" width="35" x="396" y="0" /><rect fill="#000000" height="35" width="35" x="432" y="0" /><rect fill="#000000" height="35" width="35" x="468" y="0" /><rect fill="#000000" height="35" width="35" x="504" y="0" /><rect fill="#000000" height="35" width="35" x="540" y="0" /><rect fill="#000000" height="35" width="35" x="0" y="36" /><rect fill="#000000" height="35" width="35" x="36" y="36" /><rect fill="#000000" height="35" width="35" x="72" y="36" /><rect fill="#000000" height="35" width="35" x="108" y="36" /><rect fill="#fb0027" height="35" width="35" x="144" y="36" /><rect fill="#fe0028" height="35" width="35" x="180" y="36" /><rect fill="#fc0128" height="35" width="35" x="216" y="36" /><rect fill="#fd0125" height="35" width="35" x="252" y="36" /><rect fill="#fe0028" height="35" width="35" x="288" y="36" /><rect fill="#ff0025" height="35" width="35" x="324" y="36" /><rect fill="#000000" height="35" width="35" x="360" y="36" /><rect fill="#000000" height="35" width="35" x="396" y="36" /><rect fill="#000000" height="35" width="35" x="432" y="36" /><rect fill="#000000" height="35" width="35" x="468" y="36" /><rect fill="#000000" height="35" width="35" x="504" y="36" /><rect fill="#000000" height="35" width="35" x="540" y="36" /><rect fill="#000000" height="35" width="35" x="0" y="72" /><rect fill="#000000" height="35" width="35" x="36" y="72" /><rect fill="#000000" height="35" width="35" x="72" y="72" /><rect fill="#fc0129" height="35" width="35" x="108" y="72" /><rect fill="#fd0027" height="35" width="35" x="144" y="72" /><rect fill="#ff0027" height="35" width="35" x="180" y="72" /><rect fill="#fc0027" height="35" width="35" x="216" y="72" /><rect fill="#fe0028" height="35" width="35" x="252" y="72" /><rect fill="#ff0028" height="35" width="35" x="288" y="72" /><rect fill="#ff0028" height="35" width="35" x="324" y="72" /><rect fill="#fc0128" height="35" width="35" x="360" y="72" /><rect fill="#f6f0f2" height="35" width="35" x="396" y="72" /><rect fill="#f4f2f0" height="35" width="35" x="432" y="72" /><rect fill="#000000" height="35" width="35" x="468" y="72" /><rect fill="#000000" height="35" width="35" x="504" y="72" /><rect fill="#000000" height="35" width="35" x="540" y="72" /><rect fill="#000000" height="35" width="35" x="0" y="108" /><rect fill="#000000" height="35" width="35" x="36" y="108" /><rect fill="#000000" height="35" width="35" x="72" y="108" /><rect fill="#f3f3f2" height="35" width="35" x="108" y="108" /><rect fill="#f0f1f2" height="35" width="35" x="144" y="108" /><rect fill="#f0f1f2" height="35" width="35" x="180" y="108" /><rect fill="#f0f1f2" height="35" width="35" x="216" y="108" /><rect fill="#f0f3f3" height="35" width="35" x="252" y="108" /><rect fill="#f5f1f4" height="35" width="35" x="288" y="108" /><rect fill="#f5f6f6" height="35" width="35" x="324" y="108" /><rect fill="#ff002d" height="35" width="35" x="360" y="108" /><rect fill="#f0f4f3" height="35" width="35" x="396" y="108" /><rect fill="#f0f3f5" height="35" width="35" x="432" y="108" /><rect fill="#000000" height="35" width="35" x="468" y="108" /><rect fill="#000000" height="35" width="35" x="504" y="108" /><rect fill="#000000" height="35" width="35" x="540" y="108" /><rect fill="#000000" height="35" width="35" x="0" y="144" /><rect fill="#000000" height="35" width="35" x="36" y="144" /><rect fill="#000000" height="35" width="35" x="72" y="144" /><rect fill="#ffcb71" height="35" width="35" x="108" y="144" /><rect fill="#f7ee70" height="35" width="35" x="144" y="144" /><rect fill="#fcf172" height="35" width="35" x="180" y="144" /><rect fill="#fcef73" height="35" width="35" x="216" y="144" /><rect fill="#fef072" height="35" width="35" x="252" y="144" /><rect fill="#fef072" height="35" width="35" x="288" y="144" /><rect fill="#fcce6d" height="35" width="35" x="324" y="144" /><rect fill="#ed7d54" height="35" width="35" x="360" y="144" /><rect fill="#000000" height="35" width="35" x="396" y="144" /><rect fill="#000000" height="35" width="35" x="432" y="144" /><rect fill="#000000" height="35" width="35" x="468" y="144" /><rect fill="#000000" height="35" width="35" x="504" y="144" /><rect fill="#000000" height="35" width="35" x="540" y="144" /><rect fill="#000000" height="35" width="35" x="0" y="180" /><rect fill="#000000" height="35" width="35" x="36" y="180" /><rect fill="#000000" height="35" width="35" x="72" y="180" /><rect fill="#fdcd70" height="35" width="35" x="108" y="180" /><rect fill="#1b1c2e" height="35" width="35" x="144" y="180" /><rect fill="#fcf16e" height="35" width="35" x="180" y="180" /><rect fill="#fbf070" height="35" width="35" x="216" y="180" /><rect fill="#fef170" height="35" width="35" x="252" y="180" /><rect fill="#1c1c2a" height="35" width="35" x="288" y="180" /><rect fill="#f9cb6d" height="35" width="35" x="324" y="180" /><rect fill="#ef7c53" height="35" width="35" x="360" y="180" /><rect fill="#000000" height="35" width="35" x="396" y="180" /><rect fill="#000000" height="35" width="35" x="432" y="180" /><rect fill="#000000" height="35" width="35" x="468" y="180" /><rect fill="#000000" height="35" width="35" x="504" y="180" /><rect fill="#000000" height="35" width="35" x="540" y="180" /><rect fill="#000000" height="35" width="35" x="0" y="216" /><rect fill="#000000" height="35" width="35" x="36" y="216" /><rect fill="#000000" height="35" width="35" x="72" y="216" /><rect fill="#fccd71" height="35" width="35" x="108" y="216" /><rect fill="#face6f" height="35" width="35" x="144" y="216" /><rect fill="#f18205" height="35" width="35" x="180" y="216" /><rect fill="#f18205" height="35" width="35" x="216" y="216" /><rect fill="#ef8203" height="35" width="35" x="252" y="216" /><rect fill="#fdcd6f" height="35" width="35" x="288" y="216" /><rect fill="#facc6e" height="35" width="35" x="324" y="216" /><rect fill="#ee7c53" height="35" width="35" x="360" y="216" /><rect fill="#000000" height="35" width="35" x="396" y="216" /><rect fill="#eb7a54" height="35" width="35" x="432" y="216" /><rect fill="#000000" height="35" width="35" x="468" y="216" /><rect fill="#000000" height="35" width="35" x="504" y="216" /><rect fill="#000000" height="35" width="35" x="540" y="216" /><rect fill="#000000" height="35" width="35" x="0" y="252" /><rect fill="#000000" height="35" width="35" x="36" y="252" /><rect fill="#000000" height="35" width="35" x="72" y="252" /><rect fill="#fecc71" height="35" width="35" x="108" y="252" /><rect fill="#fdcc74" height="35" width="35" x="144" y="252" /><rect fill="#fece75" height="35" width="35" x="180" y="252" /><rect fill="#fece73" height="35" width="35" x="216" y="252" /><rect fill="#fcce75" height="35" width="35" x="252" y="252" /><rect fill="#fbcd73" height="35" width="35" x="288" y="252" /><rect fill="#fdcc73" height="35" width="35" x="324" y="252" /><rect fill="#fdcc73" height="35" width="35" x="360" y="252" /><rect fill="#eb7a58" height="35" width="35" x="396" y="252" /><rect fill="#eb7d54" height="35" width="35" x="432" y="252" /><rect fill="#000000" height="35" width="35" x="468" y="252" /><rect fill="#000000" height="35" width="35" x="504" y="252" /><rect fill="#000000" height="35" width="35" x="540" y="252" /><rect fill="#000000" height="35" width="35" x="0" y="288" /><rect fill="#000000" height="35" width="35" x="36" y="288" /><rect fill="#000000" height="35" width="35" x="72" y="288" /><rect fill="#fecc71" height="35" width="35" x="108" y="288" /><rect fill="#fbcd71" height="35" width="35" x="144" y="288" /><rect fill="#fff072" height="35" width="35" x="180" y="288" /><rect fill="#fff074" height="35" width="35" x="216" y="288" /><rect fill="#fff072" height="35" width="35" x="252" y="288" /><rect fill="#ffef76" height="35" width="35" x="288" y="288" /><rect fill="#fbcd71" height="35" width="35" x="324" y="288" /><rect fill="#fdcd71" height="35" width="35" x="360" y="288" /><rect fill="#ffef72" height="35" width="35" x="396" y="288" /><rect fill="#eb7d54" height="35" width="35" x="432" y="288" /><rect fill="#000000" height="35" width="35" x="468" y="288" /><rect fill="#000000" height="35" width="35" x="504" y="288" /><rect fill="#000000" height="35" width="35" x="540" y="288" /><rect fill="#000000" height="35" width="35" x="0" y="324" /><rect fill="#000000" height="35" width="35" x="36" y="324" /><rect fill="#000000" height="35" width="35" x="72" y="324" /><rect fill="#fcce74" height="35" width="35" x="108" y="324" /><rect fill="#ffee75" height="35" width="35" x="144" y="324" /><rect fill="#feee73" height="35" width="35" x="180" y="324" /><rect fill="#fdef75" height="35" width="35" x="216" y="324" /><rect fill="#fff177" height="35" width="35" x="252" y="324" /><rect fill="#fff177" height="35" width="35" x="288" y="324" /><rect fill="#ffef77" height="35" width="35" x="324" y="324" /><rect fill="#fccc70" height="35" width="35" x="360" y="324" /><rect fill="#fff072" height="35" width="35" x="396" y="324" /><rect fill="#ec7b53" height="35" width="35" x="432" y="324" /><rect fill="#000000" height="35" width="35" x="468" y="324" /><rect fill="#000000" height="35" width="35" x="504" y="324" /><rect fill="#000000" height="35" width="35" x="540" y="324" /><rect fill="#000000" height="35" width="35" x="0" y="360" /><rect fill="#000000" height="35" width="35" x="36" y="360" /><rect fill="#000000" height="35" width="35" x="72" y="360" /><rect fill="#fdcb72" height="35" width="35" x="108" y="360" /><rect fill="#fff174" height="35" width="35" x="144" y="360" /><rect fill="#fbee74" height="35" width="35" x="180" y="360" /><rect fill="#fff177" height="35" width="35" x="216" y="360" /><rect fill="#fef072" height="35" width="35" x="252" y="360" /><rect fill="#fef074" height="35" width="35" x="288" y="360" /><rect fill="#fcf170" height="35" width="35" x="324" y="360" /><rect fill="#f37d4e" height="35" width="35" x="360" y="360" /><rect fill="#f27d4e" height="35" width="35" x="396" y="360" /><rect fill="#fbce7c" height="35" width="35" x="432" y="360" /><rect fill="#000000" height="35" width="35" x="468" y="360" /><rect fill="#000000" height="35" width="35" x="504" y="360" /><rect fill="#000000" height="35" width="35" x="540" y="360" /><rect fill="#000000" height="35" width="35" x="0" y="396" /><rect fill="#000000" height="35" width="35" x="36" y="396" /><rect fill="#000000" height="35" width="35" x="72" y="396" /><rect fill="#fbd076" height="35" width="35" x="108" y="396" /><rect fill="#fff375" height="35" width="35" x="144" y="396" /><rect fill="#ffef76" height="35" width="35" x="180" y="396" /><rect fill="#fff177" height="35" width="35" x="216" y="396" /><rect fill="#fef074" height="35" width="35" x="252" y="396" /><rect fill="#fef074" height="35" width="35" x="288" y="396" /><rect fill="#feee75" height="35" width="35" x="324" y="396" /><rect fill="#fdce70" height="35" width="35" x="360" y="396" /><rect fill="#fece72" height="35" width="35" x="396" y="396" /><rect fill="#facc74" height="35" width="35" x="432" y="396" /><rect fill="#000000" height="35" width="35" x="468" y="396" /><rect fill="#000000" height="35" width="35" x="504" y="396" /><rect fill="#000000" height="35" width="35" x="540" y="396" /><rect fill="#000000" height="35" width="35" x="0" y="432" /><rect fill="#000000" height="35" width="35" x="36" y="432" /><rect fill="#000000" height="35" width="35" x="72" y="432" /><rect fill="#000000" height="35" width="35" x="108" y="432" /><rect fill="#fdcc73" height="35" width="35" x="144" y="432" /><rect fill="#feee75" height="35" width="35" x="180" y="432" /><rect fill="#fff177" height="35" width="35" x="216" y="432" /><rect fill="#fef072" height="35" width="35" x="252" y="432" /><rect fill="#fef072" height="35" width="35" x="288" y="432" /><rect fill="#fece73" height="35" width="35" x="324" y="432" /><rect fill="#fecc73" height="35" width="35" x="360" y="432" /><rect fill="#fdcd73" height="35" width="35" x="396" y="432" /><rect fill="#000000" height="35" width="35" x="432" y="432" /><rect fill="#000000" height="35" width="35" x="468" y="432" /><rect fill="#000000" height="35" width="35" x="504" y="432" /><rect fill="#000000" height="35" width="35" x="540" y="432" /><rect fill="#000000" height="35" width="35" x="0" y="468" /><rect fill="#000000" height="35" width="35" x="36" y="468" /><rect fill="#000000" height="35" width="35" x="72" y="468" /><rect fill="#000000" height="35" width="35" x="108" y="468" /><rect fill="#000000" height="35" width="35" x="144" y="468" /><rect fill="#fbcb6d" height="35" width="35" x="180" y="468" /><rect fill="#fccd72" height="35" width="35" x="216" y="468" /><rect fill="#fbcd72" height="35" width="35" x="252" y="468" /><rect fill="#fbcd72" height="35" width="35" x="288" y="468" /><rect fill="#fbcf75" height="35" width="35" x="324" y="468" /><rect fill="#fccd73" height="35" width="35" x="360" y="468" /><rect fill="#000000" height="35" width="35" x="396" y="468" /><rect fill="#000000" height="35" width="35" x="432" y="468" /><rect fill="#000000" height="35" width="35" x="468" y="468" /><rect fill="#000000" height="35" width="35" x="504" y="468" /><rect fill="#000000" height="35" width="35" x="540" y="468" /><rect fill="#000000" height="35" width="35" x="0" y="504" /><rect fill="#000000" height="35" width="35" x="36" y="504" /><rect fill="#000000" height="35" width="35" x="72" y="504" /><rect fill="#000000" height="35" width="35" x="108" y="504" /><rect fill="#000000" height="35" width="35" x="144" y="504" /><rect fill="#000000" height="35" width="35" x="180" y="504" /><rect fill="#f48300" height="35" width="35" x="216" y="504" /><rect fill="#000000" height="35" width="35" x="252" y="504" /><rect fill="#000000" height="35" width="35" x="288" y="504" /><rect fill="#000000" height="35" width="35" x="324" y="504" /><rect fill="#f08100" height="35" width="35" x="360" y="504" /><rect fill="#f08100" height="35" width="35" x="396" y="504" /><rect fill="#000000" height="35" width="35" x="432" y="504" /><rect fill="#000000" height="35" width="35" x="468" y="504" /><rect fill="#000000" height="35" width="35" x="504" y="504" /><rect fill="#000000" height="35" width="35" x="540" y="504" /><rect fill="#f3f3f3" height="35" width="35" x="0" y="540" /><rect fill="#f2f4f3" height="35" width="35" x="36" y="540" /><rect fill="#f5f3f3" height="35" width="35" x="72" y="540" /><rect fill="#f3f3f2" height="35" width="35" x="108" y="540" /><rect fill="#f3f3f3" height="35" width="35" x="144" y="540" /><rect fill="#f28002" height="35" width="35" x="180" y="540" /><rect fill="#f48300" height="35" width="35" x="216" y="540" /><rect fill="#f3f3f3" height="35" width="35" x="252" y="540" /><rect fill="#f5f3f5" height="35" width="35" x="288" y="540" /><rect fill="#f3f3fa" height="35" width="35" x="324" y="540" /><rect fill="#f58101" height="35" width="35" x="360" y="540" /><rect fill="#f18200" height="35" width="35" x="396" y="540" /><rect fill="#f4f3f1" height="35" width="35" x="432" y="540" /><rect fill="#f3f4f1" height="35" width="35" x="468" y="540" /><rect fill="#f3f3f3" height="35" width="35" x="504" y="540" /><rect fill="#f0f5f2" height="35" width="35" x="540" y="540" /></svg>