<?xml version="1.0" encoding="utf-8" ?>
<svg baseProfile="tiny" height="575" version="1.2" width="575" xmlns="http://www.w3.org/2000/svg" xmlns:ev="http://www.w3.org/2001/xml-events" xmlns:xlink="http://www.w3.org/1999/xlink"><defs /><rect fill="#000000" height="35" width="35" x="0" y="0" /><rect fill="#000000" height="35" width="35" x="36" y="0" /><rect fill="#000000" height="35" width="35" x="72" y="0" /><rect fill="#ff0028" height="35" width="35" x="108" y="0" /><rect fill="#fe0028" height="35" width="35" x="144" y="0" /><rect fill="#fe002a" height="35" width="35" x="180" y="0" /><rect fill="#fe0028" height="35" width="35" x="216" y="0" /><rect fill="#fe0027" height="35" width="35" x="252" y="0" /><rect fill="#000000" height="35" width="35" x="288" y="0" /><rect fill="#000000" height="35" width="35" x="324" y="0" /><rect fill="#000000" height="35" width="35" x="360" y="0" /><rect fill="#000000" height="35" width="35" x="396" y="0" /><rect fill="#000000" height="35" width="35" x="432" y="0" /><rect fill="#000000" height="35" width="35" x="468" y="0" /><rect fill="#000000" height="35" width="35" x="504" y="0" /><rect fill="#000000" height="35" width="35" x="540" y="0" /><rect fill="#000000" height="35" width="35" x="0" y="36" /><rect fill="#000000" height="35" width="35" x="36" y="36" /><rect fill="#fe002a" height="35" width="35" x="72" y="36" /><rect fill="#fe0028" height="35" width="35" x="108" y="36" /><rect fill="#ff0028" height="35" width="35" x="144" y="36" /><rect fill="#fe0028" height="35" width="35" x="180" y="36" /><rect fill="#fc0028" height="35" width="35" x="216" y="36" /><rect fill="#ff0028" height="35" width="35" x="252" y="36" /><rect fill="#ff0129" height="35" width="35" x="288" y="36" /><rect fill="#f3f1f2" height="35" width="35" x="324" y="36" /><rect fill="#f3f3f5" height="35" width="35" x="360" y="36" /><rect fill="#000000" height="35" width="35" x="396" y="36" /><rect fill="#000000" height="35" width="35" x="432" y="36" /><rect fill="#000000" height="35" width="35" x="468" y="36" /><rect fill="#000000" height="35" width="35" x="504" y="36" /><rect fill="#000000" height="35" width="35" x="540" y="36" /><rect fill="#000000" height="35" width="35" x="0" y="72" /><rect fill="#f1f4f5" height="35" width="35" x="36" y="72" /><rect fill="#f5f3ef" height="35" width="35" x="72" y="72" /><rect fill="#f5f3f1" height="35" width="35" x="108" y="72" /><rect fill="#f7f5f4" height="35" width="35" x="144" y="72" /><rect fill="#f6f4f2" height="35" width="35" x="180" y="72" /><rect fill="#f5f3f1" height="35" width="35" x="216" y="72" /><rect fill="#f4f2f0" height="35" width="35" x="252" y="72" /><rect fill="#ff0029" height="35" width="35" x="288" y="72" /><rect fill="#f2f2f0" height="35" width="35" x="324" y="72" /><rect fill="#f3f3f2" height="35" width="35" x="360" y="72" /><rect fill="#000000" height="35" width="35" x="396" y="72" /><rect fill="#000000" height="35" width="35" x="432" y="72" /><rect fill="#000000" height="35" width="35" x="468" y="72" /><rect fill="#000000" height="35" width="35" x="504" y="72" /><rect fill="#000000" height="35" width="35" x="540" y="72" /><rect fill="#000000" height="35" width="35" x="0" y="108" /><rect fill="#fdcd72" height="35" width="35" x="36" y="108" /><rect fill="#f9f073" height="35" width="35" x="72" y="108" /><rect fill="#fdf173" height="35" width="35" x="108" y="108" /><rect fill="#fdf275" height="35" width="35" x="144" y="108" /><rect fill="#fef274" height="35" width="35" x="180" y="108" /><rect fill="#fdef72" height="35" width="35" x="216" y="108" /><rect fill="#fdce72" height="35" width="35" x="252" y="108" /><rect fill="#000000" height="35" width="35" x="288" y="108" /><rect fill="#000000" height="35" width="35" x="324" y="108" /><rect fill="#000000" height="35" width="35" x="360" y="108" /><rect fill="#000000" height="35" width="35" x="396" y="108" /><rect fill="#000000" height="35" width="35" x="432" y="108" /><rect fill="#000000" height="35" width="35" x="468" y="108" /><rect fill="#000000" height="35" width="35" x="504" y="108" /><rect fill="#000000" height="35" width="35" x="540" y="108" /><rect fill="#000000" height="35" width="35" x="0" y="144" /><rect fill="#fbcd71" height="35" width="35" x="36" y="144" /><rect fill="#1a1b2f" height="35" width="35" x="72" y="144" /><rect fill="#fbf072" height="35" width="35" x="108" y="144" /><rect fill="#ffee74" height="35" width="35" x="144" y="144" /><rect fill="#fff073" height="35" width="35" x="180" y="144" /><rect fill="#161b30" height="35" width="35" x="216" y="144" /><rect fill="#fccd71" height="35" width="35" x="252" y="144" /><rect fill="#000000" height="35" width="35" x="288" y="144" /><rect fill="#000000" height="35" width="35" x="324" y="144" /><rect fill="#000000" height="35" width="35" x="360" y="144" /><rect fill="#000000" height="35" width="35" x="396" y="144" /><rect fill="#ec7d52" height="35" width="35" x="432" y="144" /><rect fill="#000000" height="35" width="35" x="468" y="144" /><rect fill="#000000" height="35" width="35" x="504" y="144" /><rect fill="#000000" height="35" width="35" x="540" y="144" /><rect fill="#000000" height="35" width="35" x="0" y="180" /><rect fill="#fbcd71" height="35" width="35" x="36" y="180" /><rect fill="#fdcc73" height="35" width="35" x="72" y="180" /><rect fill="#f08100" height="35" width="35" x="108" y="180" /><rect fill="#f58101" height="35" width="35" x="144" y="180" /><rect fill="#f08102" height="35" width="35" x="180" y="180" /><rect fill="#f9ce6f" height="35" width="35" x="216" y="180" /><rect fill="#fdcd73" height="35" width="35" x="252" y="180" /><rect fill="#ef7c52" height="35" width="35" x="288" y="180" /><rect fill="#f27b50" height="35" width="35" x="324" y="180" /><rect fill="#fdf172" height="35" width="35" x="360" y="180" /><rect fill="#fdcf70" height="35" width="35" x="396" y="180" /><rect fill="#ee7b51" height="35" width="35" x="432" y="180" /><rect fill="#000000" height="35" width="35" x="468" y="180" /><rect fill="#000000" height="35" width="35" x="504" y="180" /><rect fill="#000000" height="35" width="35" x="540" y="180" /><rect fill="#000000" height="35" width="35" x="0" y="216" /><rect fill="#fbcd72" height="35" width="35" x="36" y="216" /><rect fill="#fecd77" height="35" width="35" x="72" y="216" /><rect fill="#ffcc73" height="35" width="35" x="108" y="216" /><rect fill="#ffcf74" height="35" width="35" x="144" y="216" /><rect fill="#fdce75" height="35" width="35" x="180" y="216" /><rect fill="#fece75" height="35" width="35" x="216" y="216" /><rect fill="#fdcc73" height="35" width="35" x="252" y="216" /><rect fill="#ed7d54" height="35" width="35" x="288" y="216" /><rect fill="#fded71" height="35" width="35" x="324" y="216" /><rect fill="#fdf072" height="35" width="35" x="360" y="216" /><rect fill="#fbcd71" height="35" width="35" x="396" y="216" /><rect fill="#ee7b51" height="35" width="35" x="432" y="216" /><rect fill="#000000" height="35" width="35" x="468" y="216" /><rect fill="#000000" height="35" width="35" x="504" y="216" /><rect fill="#000000" height="35" width="35" x="540" y="216" /><rect fill="#000000" height="35" width="35" x="0" y="252" /><rect fill="#000000" height="35" width="35" x="36" y="252" /><rect fill="#fbcd73" height="35" width="35" x="72" y="252" /><rect fill="#fef073" height="35" width="35" x="108" y="252" /><rect fill="#fcf175" height="35" width="35" x="144" y="252" /><rect fill="#fdef72" height="35" width="35" x="180" y="252" /><rect fill="#fdce75" height="35" width="35" x="216" y="252" /><rect fill="#fbcd71" height="35" width="35" x="252" y="252" /><rect fill="#fbcd71" height="35" width="35" x="288" y="252" /><rect fill="#fdcc73" height="35" width="35" x="324" y="252" /><rect fill="#fccb73" height="35" width="35" x="360" y="252" /><rect fill="#ffcc71" height="35" width="35" x="396" y="252" /><rect fill="#ed7d54" height="35" width="35" x="432" y="252" /><rect fill="#000000" height="35" width="35" x="468" y="252" /><rect fill="#000000" height="35" width="35" x="504" y="252" /><rect fill="#000000" height="35" width="35" x="540" y="252" /><rect fill="#000000" height="35" width="35" x="0" y="288" /><rect fill="#000000" height="35" width="35" x="36" y="288" /><rect fill="#fbcd73" height="35" width="35" x="72" y="288" /><rect fill="#fef072" height="35" width="35" x="108" y="288" /><rect fill="#fcf076" height="35" width="35" x="144" y="288" /><rect fill="#fff072" height="35" width="35" x="180" y="288" /><rect fill="#fff072" height="35" width="35" x="216" y="288" /><rect fill="#fdcd72" height="35" width="35" x="252" y="288" /><rect fill="#fbcd71" height="35" width="35" x="288" y="288" /><rect fill="#fecb6e" height="35" width="35" x="324" y="288" /><rect fill="#f07c53" height="35" width="35" x="360" y="288" /><rect fill="#ffee6e" height="35" width="35" x="396" y="288" /><rect fill="#ed7d54" height="35" width="35" x="432" y="288" /><rect fill="#000000" height="35" width="35" x="468" y="288" /><rect fill="#000000" height="35" width="35" x="504" y="288" /><rect fill="#000000" height="35" width="35" x="540" y="288" /><rect fill="#000000" height="35" width="35" x="0" y="324" /><rect fill="#000000" height="35" width="35" x="36" y="324" /><rect fill="#ffcc73" height="35" width="35" x="72" y="324" /><rect fill="#fbef73" height="35" width="35" x="108" y="324" /><rect fill="#fbf070" height="35" width="35" x="144" y="324" /><rect fill="#fdef73" height="35" width="35" x="180" y="324" /><rect fill="#fdef75" height="35" width="35" x="216" y="324" /><rect fill="#fccc70" height="35" width="35" x="252" y="324" /><rect fill="#ef7c53" height="35" width="35" x="288" y="324" /><rect fill="#ea7c4d" height="35" width="35" x="324" y="324" /><rect fill="#fff26f" height="35" width="35" x="360" y="324" /><rect fill="#fff072" height="35" width="35" x="396" y="324" /><rect fill="#000000" height="35" width="35" x="432" y="324" /><rect fill="#000000" height="35" width="35" x="468" y="324" /><rect fill="#000000" height="35" width="35" x="504" y="324" /><rect fill="#000000" height="35" width="35" x="540" y="324" /><rect fill="#000000" height="35" width="35" x="0" y="360" /><rect fill="#000000" height="35" width="35" x="36" y="360" /><rect fill="#ffcb70" height="35" width="35" x="72" y="360" /><rect fill="#fef072" height="35" width="35" x="108" y="360" /><rect fill="#fef176" height="35" width="35" x="144" y="360" /><rect fill="#fdef75" height="35" width="35" x="180" y="360" /><rect fill="#fff177" height="35" width="35" x="216" y="360" /><rect fill="#f9ef70" height="35" width="35" x="252" y="360" /><rect fill="#fdce78" height="35" width="35" x="288" y="360" /><rect fill="#fdcd74" height="35" width="35" x="324" y="360" /><rect fill="#fbca72" height="35" width="35" x="360" y="360" /><rect fill="#faca71" height="35" width="35" x="396" y="360" /><rect fill="#000000" height="35" width="35" x="432" y="360" /><rect fill="#000000" height="35" width="35" x="468" y="360" /><rect fill="#000000" height="35" width="35" x="504" y="360" /><rect fill="#000000" height="35" width="35" x="540" y="360" /><rect fill="#000000" height="35" width="35" x="0" y="396" /><rect fill="#000000" height="35" width="35" x="36" y="396" /><rect fill="#facc74" height="35" width="35" x="72" y="396" /><rect fill="#fff376" height="35" width="35" x="108" y="396" /><rect fill="#fff175" height="35" width="35" x="144" y="396" /><rect fill="#fef074" height="35" width="35" x="180" y="396" /><rect fill="#fff175" height="35" width="35" x="216" y="396" /><rect fill="#feef70" height="35" width="35" x="252" y="396" /><rect fill="#fcce70" height="35" width="35" x="288" y="396" /><rect fill="#fece72" height="35" width="35" x="324" y="396" /><rect fill="#fecc73" height="35" width="35" x="360" y="396" /><rect fill="#000000" height="35" width="35" x="396" y="396" /><rect fill="#000000" height="35" width="35" x="432" y="396" /><rect fill="#000000" height="35" width="35" x="468" y="396" /><rect fill="#000000" height="35" width="35" x="504" y="396" /><rect fill="#000000" height="35" width="35" x="540" y="396" /><rect fill="#000000" height="35" width="35" x="0" y="432" /><rect fill="#000000" height="35" width="35" x="36" y="432" /><rect fill="#000000" height="35" width="35" x="72" y="432" /><rect fill="#fdcd6f" height="35" width="35" x="108" y="432" /><rect fill="#fdcd71" height="35" width="35" x="144" y="432" /><rect fill="#fbee6f" height="35" width="35" x="180" y="432" /><rect fill="#fff173" height="35" width="35" x="216" y="432" /><rect fill="#ffce71" height="35" width="35" x="252" y="432" /><rect fill="#fece73" height="35" width="35" x="288" y="432" /><rect fill="#fdcd6d" height="35" width="35" x="324" y="432" /><rect fill="#ef8000" height="35" width="35" x="360" y="432" /><rect fill="#ef8000" height="35" width="35" x="396" y="432" /><rect fill="#000000" height="35" width="35" x="432" y="432" /><rect fill="#000000" height="35" width="35" x="468" y="432" /><rect fill="#000000" height="35" width="35" x="504" y="432" /><rect fill="#000000" height="35" width="35" x="540" y="432" /><rect fill="#000000" height="35" width="35" x="0" y="468" /><rect fill="#000000" height="35" width="35" x="36" y="468" /><rect fill="#000000" height="35" width="35" x="72" y="468" /><rect fill="#000000" height="35" width="35" x="108" y="468" /><rect fill="#000000" height="35" width="35" x="144" y="468" /><rect fill="#fac96e" height="35" width="35" x="180" y="468" /><rect fill="#fccd72" height="35" width="35" x="216" y="468" /><rect fill="#fdcc73" height="35" width="35" x="252" y="468" /><rect fill="#fdcc73" height="35" width="35" x="288" y="468" /><rect fill="#ffcd6e" height="35" width="35" x="324" y="468" /><rect fill="#f88202" height="35" width="35" x="360" y="468" /><rect fill="#f48000" height="35" width="35" x="396" y="468" /><rect fill="#f28100" height="35" width="35" x="432" y="468" /><rect fill="#000000" height="35" width="35" x="468" y="468" /><rect fill="#000000" height="35" width="35" x="504" y="468" /><rect fill="#000000" height="35" width="35" x="540" y="468" /><rect fill="#000000" height="35" width="35" x="0" y="504" /><rect fill="#000000" height="35" width="35" x="36" y="504" /><rect fill="#000000" height="35" width="35" x="72" y="504" /><rect fill="#000000" height="35" width="35" x="108" y="504" /><rect fill="#000000" height="35" width="35" x="144" y="504" /><rect fill="#000000" height="35" width="35" x="180" y="504" /><rect fill="#000000" height="35" width="35" x="216" y="504" /><rect fill="#ef8000" height="35" width="35" x="252" y="504" /><rect fill="#000000" height="35" width="35" x="288" y="504" /><rect fill="#000000" height="35" width="35" x="324" y="504" /><rect fill="#f58102" height="35" width="35" x="360" y="504" /><rect fill="#f88000" height="35" width="35" x="396" y="504" /><rect fill="#fa8102" height="35" width="35" x="432" y="504" /><rect fill="#000000" height="35" width="35" x="468" y="504" /><rect fill="#000000" height="35" width="35" x="504" y="504" /><rect fill="#000000" height="35" width="35" x="540" y="504" /><rect fill="#f3f3f3" height="35" width="35" x="0" y="540" /><rect fill="#f2f4f3" height="35" width="35" x="36" y="540" /><rect fill="#f5f3f3" height="35" width="35" x="72" y="540" /><rect fill="#f3f3f2" height="35" width="35" x="108" y="540" /><rect fill="#f3f3f3" height="35" width="35" x="144" y="540" /><rect fill="#f3f5f2" height="35" width="35" x="180" y="540" /><rect fill="#f38200" height="35" width="35" x="216" y="540" /><rect fill="#f38200" height="35" width="35" x="252" y="540" /><rect fill="#f6f4f7" height="35" width="35" x="288" y="540" /><rect fill="#f3f5f5" height="35" width="35" x="324" y="540" /><rect fill="#f3f3f3" height="35" width="35" x="360" y="540" /><rect fill="#f3f3f3" height="35" width="35" x="396" y="540" /><rect fill="#f5f3f1" height="35" width="35" x="432" y="540" /><rect fill="#f3f3f3" height="35" width="35" x="468" y="540" /><rect fill="#f3f3f3" height="35" width="35" x="504" y="540" /><rect fill="#f2f4f2" height="35" width="35" x="540" y="540" /></svg>