<?xml version="1.0" encoding="utf-8" ?>
<svg baseProfile="tiny" height="575" version="1.2" width="575" xmlns="http://www.w3.org/2000/svg" xmlns:ev="http://www.w3.org/2001/xml-events" xmlns:xlink="http://www.w3.org/1999/xlink"><defs /><rect fill="#000000" height="35" width="35" x="0" y="0" /><rect fill="#000000" height="35" width="35" x="36" y="0" /><rect fill="#000000" height="35" width="35" x="72" y="0" /><rect fill="#000000" height="35" width="35" x="108" y="0" /><rect fill="#000000" height="35" width="35" x="144" y="0" /><rect fill="#000000" height="35" width="35" x="180" y="0" /><rect fill="#000000" height="35" width="35" x="216" y="0" /><rect fill="#000000" height="35" width="35" x="252" y="0" /><rect fill="#000000" height="35" width="35" x="288" y="0" /><rect fill="#000000" height="35" width="35" x="324" y="0" /><rect fill="#000000" height="35" width="35" x="360" y="0" /><rect fill="#000000" height="35" width="35" x="396" y="0" /><rect fill="#000000" height="35" width="35" x="432" y="0" /><rect fill="#000000" height="35" width="35" x="468" y="0" /><rect fill="#000000" height="35" width="35" x="504" y="0" /><rect fill="#000000" height="35" width="35" x="540" y="0" /><rect fill="#000000" height="35" width="35" x="0" y="36" /><rect fill="#000000" height="35" width="35" x="36" y="36" /><rect fill="#000000" height="35" width="35" x="72" y="36" /><rect fill="#000000" height="35" width="35" x="108" y="36" /><rect fill="#000000" height="35" width="35" x="144" y="36" /><rect fill="#ff0028" height="35" width="35" x="180" y="36" /><rect fill="#fe0028" height="35" width="35" x="216" y="36" /><rect fill="#fe0028" height="35" width="35" x="252" y="36" /><rect fill="#fe0028" height="35" width="35" x="288" y="36" /><rect fill="#fe0028" height="35" width="35" x="324" y="36" /><rect fill="#fe0028" height="35" width="35" x="360" y="36" /><rect fill="#000000" height="35" width="35" x="396" y="36" /><rect fill="#000000" height="35" width="35" x="432" y="36" /><rect fill="#000000" height="35" width="35" x="468" y="36" /><rect fill="#000000" height="35" width="35" x="504" y="36" /><rect fill="#000000" height="35" width="35" x="540" y="36" /><rect fill="#000000" height="35" width="35" x="0" y="72" /><rect fill="#000000" height="35" width="35" x="36" y="72" /><rect fill="#000000" height="35" width="35" x="72" y="72" /><rect fill="#000000" height="35" width="35" x="108" y="72" /><rect fill="#fb012d" height="35" width="35" x="144" y="72" /><rect fill="#fe0028" height="35" width="35" x="180" y="72" /><rect fill="#fe0028" height="35" width="35" x="216" y="72" /><rect fill="#fe0028" height="35" width="35" x="252" y="72" /><rect fill="#fe0028" height="35" width="35" x="288" y="72" /><rect fill="#fe002a" height="35" width="35" x="324" y="72" /><rect fill="#fe0028" height="35" width="35" x="360" y="72" /><rect fill="#fe0028" height="35" width="35" x="396" y="72" /><rect fill="#000000" height="35" width="35" x="432" y="72" /><rect fill="#000000" height="35" width="35" x="468" y="72" /><rect fill="#000000" height="35" width="35" x="504" y="72" /><rect fill="#000000" height="35" width="35" x="540" y="72" /><rect fill="#000000" height="35" width="35" x="0" y="108" /><rect fill="#000000" height="35" width="35" x="36" y="108" /><rect fill="#f2f2f2" height="35" width="35" x="72" y="108" /><rect fill="#f2f2f2" height="35" width="35" x="108" y="108" /><rect fill="#ff0028" height="35" width="35" x="144" y="108" /><rect fill="#f3f3f3" height="35" width="35" x="180" y="108" /><rect fill="#f2f2f3" height="35" width="35" x="216" y="108" /><rect fill="#f2f2f2" height="35" width="35" x="252" y="108" /><rect fill="#f2f2f2" height="35" width="35" x="288" y="108" /><rect fill="#f5f6f6" height="35" width="35" x="324" y="108" /><rect fill="#f2f2f3" height="35" width="35" x="360" y="108" /><rect fill="#f3f2f3" height="35" width="35" x="396" y="108" /><rect fill="#000000" height="35" width="35" x="432" y="108" /><rect fill="#000000" height="35" width="35" x="468" y="108" /><rect fill="#000000" height="35" width="35" x="504" y="108" /><rect fill="#000000" height="35" width="35" x="540" y="108" /><rect fill="#000000" height="35" width="35" x="0" y="144" /><rect fill="#000000" height="35" width="35" x="36" y="144" /><rect fill="#f2f2f4" height="35" width="35" x="72" y="144" /><rect fill="#f3f3f5" height="35" width="35" x="108" y="144" /><rect fill="#000000" height="35" width="35" x="144" y="144" /><rect fill="#ffcc73" height="35" width="35" x="180" y="144" /><rect fill="#fff175" height="35" width="35" x="216" y="144" /><rect fill="#fcf172" height="35" width="35" x="252" y="144" /><rect fill="#fcf172" height="35" width="35" x="288" y="144" /><rect fill="#fff072" height="35" width="35" x="324" y="144" /><rect fill="#f9f06e" height="35" width="35" x="360" y="144" /><rect fill="#fdcc74" height="35" width="35" x="396" y="144" /><rect fill="#000000" height="35" width="35" x="432" y="144" /><rect fill="#000000" height="35" width="35" x="468" y="144" /><rect fill="#000000" height="35" width="35" x="504" y="144" /><rect fill="#000000" height="35" width="35" x="540" y="144" /><rect fill="#000000" height="35" width="35" x="0" y="180" /><rect fill="#000000" height="35" width="35" x="36" y="180" /><rect fill="#000000" height="35" width="35" x="72" y="180" /><rect fill="#000000" height="35" width="35" x="108" y="180" /><rect fill="#000000" height="35" width="35" x="144" y="180" /><rect fill="#ffcc73" height="35" width="35" x="180" y="180" /><rect fill="#171c2c" height="35" width="35" x="216" y="180" /><rect fill="#fcf174" height="35" width="35" x="252" y="180" /><rect fill="#fcf173" height="35" width="35" x="288" y="180" /><rect fill="#fcf078" height="35" width="35" x="324" y="180" /><rect fill="#171d2c" height="35" width="35" x="360" y="180" /><rect fill="#face73" height="35" width="35" x="396" y="180" /><rect fill="#000000" height="35" width="35" x="432" y="180" /><rect fill="#000000" height="35" width="35" x="468" y="180" /><rect fill="#000000" height="35" width="35" x="504" y="180" /><rect fill="#000000" height="35" width="35" x="540" y="180" /><rect fill="#000000" height="35" width="35" x="0" y="216" /><rect fill="#000000" height="35" width="35" x="36" y="216" /><rect fill="#000000" height="35" width="35" x="72" y="216" /><rect fill="#f27d51" height="35" width="35" x="108" y="216" /><rect fill="#000000" height="35" width="35" x="144" y="216" /><rect fill="#ffcc71" height="35" width="35" x="180" y="216" /><rect fill="#ffcd75" height="35" width="35" x="216" y="216" /><rect fill="#f28200" height="35" width="35" x="252" y="216" /><rect fill="#f18200" height="35" width="35" x="288" y="216" /><rect fill="#f68100" height="35" width="35" x="324" y="216" /><rect fill="#fbcd70" height="35" width="35" x="360" y="216" /><rect fill="#ffcc71" height="35" width="35" x="396" y="216" /><rect fill="#000000" height="35" width="35" x="432" y="216" /><rect fill="#000000" height="35" width="35" x="468" y="216" /><rect fill="#000000" height="35" width="35" x="504" y="216" /><rect fill="#000000" height="35" width="35" x="540" y="216" /><rect fill="#000000" height="35" width="35" x="0" y="252" /><rect fill="#000000" height="35" width="35" x="36" y="252" /><rect fill="#000000" height="35" width="35" x="72" y="252" /><rect fill="#ef7c54" height="35" width="35" x="108" y="252" /><rect fill="#ee7b53" height="35" width="35" x="144" y="252" /><rect fill="#fdcb70" height="35" width="35" x="180" y="252" /><rect fill="#fbcd71" height="35" width="35" x="216" y="252" /><rect fill="#fcce73" height="35" width="35" x="252" y="252" /><rect fill="#fdcd71" height="35" width="35" x="288" y="252" /><rect fill="#fece73" height="35" width="35" x="324" y="252" /><rect fill="#fdcd71" height="35" width="35" x="360" y="252" /><rect fill="#fdcd71" height="35" width="35" x="396" y="252" /><rect fill="#000000" height="35" width="35" x="432" y="252" /><rect fill="#000000" height="35" width="35" x="468" y="252" /><rect fill="#000000" height="35" width="35" x="504" y="252" /><rect fill="#000000" height="35" width="35" x="540" y="252" /><rect fill="#000000" height="35" width="35" x="0" y="288" /><rect fill="#000000" height="35" width="35" x="36" y="288" /><rect fill="#000000" height="35" width="35" x="72" y="288" /><rect fill="#ef7c52" height="35" width="35" x="108" y="288" /><rect fill="#fff070" height="35" width="35" x="144" y="288" /><rect fill="#fdcd71" height="35" width="35" x="180" y="288" /><rect fill="#fece75" height="35" width="35" x="216" y="288" /><rect fill="#fef071" height="35" width="35" x="252" y="288" /><rect fill="#fef072" height="35" width="35" x="288" y="288" /><rect fill="#fff074" height="35" width="35" x="324" y="288" /><rect fill="#fef072" height="35" width="35" x="360" y="288" /><rect fill="#fdcd71" height="35" width="35" x="396" y="288" /><rect fill="#ef7c53" height="35" width="35" x="432" y="288" /><rect fill="#000000" height="35" width="35" x="468" y="288" /><rect fill="#000000" height="35" width="35" x="504" y="288" /><rect fill="#000000" height="35" width="35" x="540" y="288" /><rect fill="#000000" height="35" width="35" x="0" y="324" /><rect fill="#000000" height="35" width="35" x="36" y="324" /><rect fill="#000000" height="35" width="35" x="72" y="324" /><rect fill="#ef7c54" height="35" width="35" x="108" y="324" /><rect fill="#fff271" height="35" width="35" x="144" y="324" /><rect fill="#ffcf76" height="35" width="35" x="180" y="324" /><rect fill="#fdef71" height="35" width="35" x="216" y="324" /><rect fill="#fdef73" height="35" width="35" x="252" y="324" /><rect fill="#fef072" height="35" width="35" x="288" y="324" /><rect fill="#fdef71" height="35" width="35" x="324" y="324" /><rect fill="#fef074" height="35" width="35" x="360" y="324" /><rect fill="#fbcd70" height="35" width="35" x="396" y="324" /><rect fill="#f07d55" height="35" width="35" x="432" y="324" /><rect fill="#000000" height="35" width="35" x="468" y="324" /><rect fill="#000000" height="35" width="35" x="504" y="324" /><rect fill="#000000" height="35" width="35" x="540" y="324" /><rect fill="#000000" height="35" width="35" x="0" y="360" /><rect fill="#000000" height="35" width="35" x="36" y="360" /><rect fill="#000000" height="35" width="35" x="72" y="360" /><rect fill="#ffcc71" height="35" width="35" x="108" y="360" /><rect fill="#ef7d4b" height="35" width="35" x="144" y="360" /><rect fill="#fccd73" height="35" width="35" x="180" y="360" /><rect fill="#fdef73" height="35" width="35" x="216" y="360" /><rect fill="#fef073" height="35" width="35" x="252" y="360" /><rect fill="#fef073" height="35" width="35" x="288" y="360" /><rect fill="#fff174" height="35" width="35" x="324" y="360" /><rect fill="#fef073" height="35" width="35" x="360" y="360" /><rect fill="#fff075" height="35" width="35" x="396" y="360" /><rect fill="#ffce76" height="35" width="35" x="432" y="360" /><rect fill="#000000" height="35" width="35" x="468" y="360" /><rect fill="#000000" height="35" width="35" x="504" y="360" /><rect fill="#000000" height="35" width="35" x="540" y="360" /><rect fill="#000000" height="35" width="35" x="0" y="396" /><rect fill="#000000" height="35" width="35" x="36" y="396" /><rect fill="#000000" height="35" width="35" x="72" y="396" /><rect fill="#fdcc75" height="35" width="35" x="108" y="396" /><rect fill="#fccb72" height="35" width="35" x="144" y="396" /><rect fill="#face71" height="35" width="35" x="180" y="396" /><rect fill="#fef074" height="35" width="35" x="216" y="396" /><rect fill="#fff175" height="35" width="35" x="252" y="396" /><rect fill="#fef072" height="35" width="35" x="288" y="396" /><rect fill="#fdef70" height="35" width="35" x="324" y="396" /><rect fill="#fff175" height="35" width="35" x="360" y="396" /><rect fill="#fef072" height="35" width="35" x="396" y="396" /><rect fill="#ffcd74" height="35" width="35" x="432" y="396" /><rect fill="#000000" height="35" width="35" x="468" y="396" /><rect fill="#000000" height="35" width="35" x="504" y="396" /><rect fill="#000000" height="35" width="35" x="540" y="396" /><rect fill="#000000" height="35" width="35" x="0" y="432" /><rect fill="#000000" height="35" width="35" x="36" y="432" /><rect fill="#000000" height="35" width="35" x="72" y="432" /><rect fill="#000000" height="35" width="35" x="108" y="432" /><rect fill="#fdcd71" height="35" width="35" x="144" y="432" /><rect fill="#fdcd71" height="35" width="35" x="180" y="432" /><rect fill="#ffcc71" height="35" width="35" x="216" y="432" /><rect fill="#fef072" height="35" width="35" x="252" y="432" /><rect fill="#fef072" height="35" width="35" x="288" y="432" /><rect fill="#fef072" height="35" width="35" x="324" y="432" /><rect fill="#fef072" height="35" width="35" x="360" y="432" /><rect fill="#fdcd71" height="35" width="35" x="396" y="432" /><rect fill="#000000" height="35" width="35" x="432" y="432" /><rect fill="#000000" height="35" width="35" x="468" y="432" /><rect fill="#000000" height="35" width="35" x="504" y="432" /><rect fill="#000000" height="35" width="35" x="540" y="432" /><rect fill="#000000" height="35" width="35" x="0" y="468" /><rect fill="#000000" height="35" width="35" x="36" y="468" /><rect fill="#000000" height="35" width="35" x="72" y="468" /><rect fill="#000000" height="35" width="35" x="108" y="468" /><rect fill="#000000" height="35" width="35" x="144" y="468" /><rect fill="#fdcc73" height="35" width="35" x="180" y="468" /><rect fill="#fdcc73" height="35" width="35" x="216" y="468" /><rect fill="#ffcc72" height="35" width="35" x="252" y="468" /><rect fill="#fccd72" height="35" width="35" x="288" y="468" /><rect fill="#fdcd73" height="35" width="35" x="324" y="468" /><rect fill="#fbcd71" height="35" width="35" x="360" y="468" /><rect fill="#000000" height="35" width="35" x="396" y="468" /><rect fill="#000000" height="35" width="35" x="432" y="468" /><rect fill="#000000" height="35" width="35" x="468" y="468" /><rect fill="#000000" height="35" width="35" x="504" y="468" /><rect fill="#000000" height="35" width="35" x="540" y="468" /><rect fill="#000000" height="35" width="35" x="0" y="504" /><rect fill="#000000" height="35" width="35" x="36" y="504" /><rect fill="#000000" height="35" width="35" x="72" y="504" /><rect fill="#000000" height="35" width="35" x="108" y="504" /><rect fill="#f38200" height="35" width="35" x="144" y="504" /><rect fill="#f38200" height="35" width="35" x="180" y="504" /><rect fill="#000000" height="35" width="35" x="216" y="504" /><rect fill="#000000" height="35" width="35" x="252" y="504" /><rect fill="#000000" height="35" width="35" x="288" y="504" /><rect fill="#f38200" height="35" width="35" x="324" y="504" /><rect fill="#000000" height="35" width="35" x="360" y="504" /><rect fill="#000000" height="35" width="35" x="396" y="504" /><rect fill="#000000" height="35" width="35" x="432" y="504" /><rect fill="#000000" height="35" width="35" x="468" y="504" /><rect fill="#000000" height="35" width="35" x="504" y="504" /><rect fill="#000000" height="35" width="35" x="540" y="504" /><rect fill="#f3f3f3" height="35" width="35" x="0" y="540" /><rect fill="#f3f3f3" height="35" width="35" x="36" y="540" /><rect fill="#f5f3f3" height="35" width="35" x="72" y="540" /><rect fill="#f3f3f3" height="35" width="35" x="108" y="540" /><rect fill="#f38200" height="35" width="35" x="144" y="540" /><rect fill="#f38200" height="35" width="35" x="180" y="540" /><rect fill="#f3f3f3" height="35" width="35" x="216" y="540" /><rect fill="#f3f3f3" height="35" width="35" x="252" y="540" /><rect fill="#f3f3f3" height="35" width="35" x="288" y="540" /><rect fill="#f38200" height="35" width="35" x="324" y="540" /><rect fill="#f38200" height="35" width="35" x="360" y="540" /><rect fill="#f3f3f5" height="35" width="35" x="396" y="540" /><rect fill="#f3f3f3" height="35" width="35" x="432" y="540" /><rect fill="#f3f4f1" height="35" width="35" x="468" y="540" /><rect fill="#f3f3f3" height="35" width="35" x="504" y="540" /><rect fill="#f3f4f2" height="35" width="35" x="540" y="540" /></svg>