<?xml version="1.0" encoding="utf-8" ?>
<svg baseProfile="tiny" height="575" version="1.2" width="575" xmlns="http://www.w3.org/2000/svg" xmlns:ev="http://www.w3.org/2001/xml-events" xmlns:xlink="http://www.w3.org/1999/xlink"><defs /><rect fill="#000000" height="35" width="35" x="0" y="0" /><rect fill="#000000" height="35" width="35" x="36" y="0" /><rect fill="#000000" height="35" width="35" x="72" y="0" /><rect fill="#000000" height="35" width="35" x="108" y="0" /><rect fill="#f3eff4" height="35" width="35" x="144" y="0" /><rect fill="#f5f3f5" height="35" width="35" x="180" y="0" /><rect fill="#fe0229" height="35" width="35" x="216" y="0" /><rect fill="#fc002a" height="35" width="35" x="252" y="0" /><rect fill="#fe0028" height="35" width="35" x="288" y="0" /><rect fill="#fe0028" height="35" width="35" x="324" y="0" /><rect fill="#fe0028" height="35" width="35" x="360" y="0" /><rect fill="#fe0028" height="35" width="35" x="396" y="0" /><rect fill="#fc002a" height="35" width="35" x="432" y="0" /><rect fill="#000000" height="35" width="35" x="468" y="0" /><rect fill="#000000" height="35" width="35" x="504" y="0" /><rect fill="#000000" height="35" width="35" x="540" y="0" /><rect fill="#000000" height="35" width="35" x="0" y="36" /><rect fill="#000000" height="35" width="35" x="36" y="36" /><rect fill="#000000" height="35" width="35" x="72" y="36" /><rect fill="#000000" height="35" width="35" x="108" y="36" /><rect fill="#f4f1f6" height="35" width="35" x="144" y="36" /><rect fill="#f0f3f4" height="35" width="35" x="180" y="36" /><rect fill="#000000" height="35" width="35" x="216" y="36" /><rect fill="#fe0028" height="35" width="35" x="252" y="36" /><rect fill="#fe0028" height="35" width="35" x="288" y="36" /><rect fill="#fe0028" height="35" width="35" x="324" y="36" /><rect fill="#fe0028" height="35" width="35" x="360" y="36" /><rect fill="#fe0028" height="35" width="35" x="396" y="36" /><rect fill="#fe002a" height="35" width="35" x="432" y="36" /><rect fill="#fe0028" height="35" width="35" x="468" y="36" /><rect fill="#fe0028" height="35" width="35" x="504" y="36" /><rect fill="#000000" height="35" width="35" x="540" y="36" /><rect fill="#000000" height="35" width="35" x="0" y="72" /><rect fill="#000000" height="35" width="35" x="36" y="72" /><rect fill="#000000" height="35" width="35" x="72" y="72" /><rect fill="#000000" height="35" width="35" x="108" y="72" /><rect fill="#000000" height="35" width="35" x="144" y="72" /><rect fill="#000000" height="35" width="35" x="180" y="72" /><rect fill="#000000" height="35" width="35" x="216" y="72" /><rect fill="#000000" height="35" width="35" x="252" y="72" /><rect fill="#f5f4f4" height="35" width="35" x="288" y="72" /><rect fill="#f4f3f3" height="35" width="35" x="324" y="72" /><rect fill="#f2f2f2" height="35" width="35" x="360" y="72" /><rect fill="#f2f2f2" height="35" width="35" x="396" y="72" /><rect fill="#f2f2f2" height="35" width="35" x="432" y="72" /><rect fill="#f2f2f2" height="35" width="35" x="468" y="72" /><rect fill="#f4f3f3" height="35" width="35" x="504" y="72" /><rect fill="#000000" height="35" width="35" x="540" y="72" /><rect fill="#000000" height="35" width="35" x="0" y="108" /><rect fill="#000000" height="35" width="35" x="36" y="108" /><rect fill="#000000" height="35" width="35" x="72" y="108" /><rect fill="#000000" height="35" width="35" x="108" y="108" /><rect fill="#000000" height="35" width="35" x="144" y="108" /><rect fill="#000000" height="35" width="35" x="180" y="108" /><rect fill="#000000" height="35" width="35" x="216" y="108" /><rect fill="#000000" height="35" width="35" x="252" y="108" /><rect fill="#ffce76" height="35" width="35" x="288" y="108" /><rect fill="#fef074" height="35" width="35" x="324" y="108" /><rect fill="#fff271" height="35" width="35" x="360" y="108" /><rect fill="#fff271" height="35" width="35" x="396" y="108" /><rect fill="#fef075" height="35" width="35" x="432" y="108" /><rect fill="#fef071" height="35" width="35" x="468" y="108" /><rect fill="#ffcc73" height="35" width="35" x="504" y="108" /><rect fill="#000000" height="35" width="35" x="540" y="108" /><rect fill="#000000" height="35" width="35" x="0" y="144" /><rect fill="#000000" height="35" width="35" x="36" y="144" /><rect fill="#000000" height="35" width="35" x="72" y="144" /><rect fill="#f07c53" height="35" width="35" x="108" y="144" /><rect fill="#000000" height="35" width="35" x="144" y="144" /><rect fill="#000000" height="35" width="35" x="180" y="144" /><rect fill="#000000" height="35" width="35" x="216" y="144" /><rect fill="#000000" height="35" width="35" x="252" y="144" /><rect fill="#ffce70" height="35" width="35" x="288" y="144" /><rect fill="#1e1f2c" height="35" width="35" x="324" y="144" /><rect fill="#fdef70" height="35" width="35" x="360" y="144" /><rect fill="#fdef70" height="35" width="35" x="396" y="144" /><rect fill="#faf176" height="35" width="35" x="432" y="144" /><rect fill="#141d2b" height="35" width="35" x="468" y="144" /><rect fill="#fdcc73" height="35" width="35" x="504" y="144" /><rect fill="#000000" height="35" width="35" x="540" y="144" /><rect fill="#000000" height="35" width="35" x="0" y="180" /><rect fill="#000000" height="35" width="35" x="36" y="180" /><rect fill="#000000" height="35" width="35" x="72" y="180" /><rect fill="#ef7c52" height="35" width="35" x="108" y="180" /><rect fill="#fece74" height="35" width="35" x="144" y="180" /><rect fill="#feef70" height="35" width="35" x="180" y="180" /><rect fill="#ee7b53" height="35" width="35" x="216" y="180" /><rect fill="#ef7c52" height="35" width="35" x="252" y="180" /><rect fill="#ffcd72" height="35" width="35" x="288" y="180" /><rect fill="#fbcb6d" height="35" width="35" x="324" y="180" /><rect fill="#f38200" height="35" width="35" x="360" y="180" /><rect fill="#f38200" height="35" width="35" x="396" y="180" /><rect fill="#f58100" height="35" width="35" x="432" y="180" /><rect fill="#fdcd71" height="35" width="35" x="468" y="180" /><rect fill="#fdcd72" height="35" width="35" x="504" y="180" /><rect fill="#000000" height="35" width="35" x="540" y="180" /><rect fill="#000000" height="35" width="35" x="0" y="216" /><rect fill="#000000" height="35" width="35" x="36" y="216" /><rect fill="#000000" height="35" width="35" x="72" y="216" /><rect fill="#ef7c52" height="35" width="35" x="108" y="216" /><rect fill="#fecc75" height="35" width="35" x="144" y="216" /><rect fill="#fef076" height="35" width="35" x="180" y="216" /><rect fill="#fff177" height="35" width="35" x="216" y="216" /><rect fill="#ef7c52" height="35" width="35" x="252" y="216" /><rect fill="#ffcd73" height="35" width="35" x="288" y="216" /><rect fill="#fdcc73" height="35" width="35" x="324" y="216" /><rect fill="#fdcd72" height="35" width="35" x="360" y="216" /><rect fill="#fdcd71" height="35" width="35" x="396" y="216" /><rect fill="#fdcd71" height="35" width="35" x="432" y="216" /><rect fill="#fdcd71" height="35" width="35" x="468" y="216" /><rect fill="#fdcc70" height="35" width="35" x="504" y="216" /><rect fill="#000000" height="35" width="35" x="540" y="216" /><rect fill="#000000" height="35" width="35" x="0" y="252" /><rect fill="#000000" height="35" width="35" x="36" y="252" /><rect fill="#000000" height="35" width="35" x="72" y="252" /><rect fill="#ef7c52" height="35" width="35" x="108" y="252" /><rect fill="#fdcd72" height="35" width="35" x="144" y="252" /><rect fill="#fdcd71" height="35" width="35" x="180" y="252" /><rect fill="#fbcd71" height="35" width="35" x="216" y="252" /><rect fill="#fece75" height="35" width="35" x="252" y="252" /><rect fill="#fece73" height="35" width="35" x="288" y="252" /><rect fill="#ffcd75" height="35" width="35" x="324" y="252" /><rect fill="#fef073" height="35" width="35" x="360" y="252" /><rect fill="#fef073" height="35" width="35" x="396" y="252" /><rect fill="#fff175" height="35" width="35" x="432" y="252" /><rect fill="#fdcd73" height="35" width="35" x="468" y="252" /><rect fill="#000000" height="35" width="35" x="504" y="252" /><rect fill="#000000" height="35" width="35" x="540" y="252" /><rect fill="#000000" height="35" width="35" x="0" y="288" /><rect fill="#000000" height="35" width="35" x="36" y="288" /><rect fill="#000000" height="35" width="35" x="72" y="288" /><rect fill="#ef7c52" height="35" width="35" x="108" y="288" /><rect fill="#fff070" height="35" width="35" x="144" y="288" /><rect fill="#ef7c52" height="35" width="35" x="180" y="288" /><rect fill="#fdcd71" height="35" width="35" x="216" y="288" /><rect fill="#fdcd71" height="35" width="35" x="252" y="288" /><rect fill="#fdcd71" height="35" width="35" x="288" y="288" /><rect fill="#fef074" height="35" width="35" x="324" y="288" /><rect fill="#fef072" height="35" width="35" x="360" y="288" /><rect fill="#fef072" height="35" width="35" x="396" y="288" /><rect fill="#fff173" height="35" width="35" x="432" y="288" /><rect fill="#fdcd71" height="35" width="35" x="468" y="288" /><rect fill="#000000" height="35" width="35" x="504" y="288" /><rect fill="#000000" height="35" width="35" x="540" y="288" /><rect fill="#000000" height="35" width="35" x="0" y="324" /><rect fill="#000000" height="35" width="35" x="36" y="324" /><rect fill="#000000" height="35" width="35" x="72" y="324" /><rect fill="#000000" height="35" width="35" x="108" y="324" /><rect fill="#fef074" height="35" width="35" x="144" y="324" /><rect fill="#ffef70" height="35" width="35" x="180" y="324" /><rect fill="#ef7c54" height="35" width="35" x="216" y="324" /><rect fill="#ee7b51" height="35" width="35" x="252" y="324" /><rect fill="#fcf076" height="35" width="35" x="288" y="324" /><rect fill="#fdef71" height="35" width="35" x="324" y="324" /><rect fill="#fef074" height="35" width="35" x="360" y="324" /><rect fill="#fef074" height="35" width="35" x="396" y="324" /><rect fill="#fdef70" height="35" width="35" x="432" y="324" /><rect fill="#fece73" height="35" width="35" x="468" y="324" /><rect fill="#000000" height="35" width="35" x="504" y="324" /><rect fill="#000000" height="35" width="35" x="540" y="324" /><rect fill="#000000" height="35" width="35" x="0" y="360" /><rect fill="#000000" height="35" width="35" x="36" y="360" /><rect fill="#000000" height="35" width="35" x="72" y="360" /><rect fill="#000000" height="35" width="35" x="108" y="360" /><rect fill="#ffcf77" height="35" width="35" x="144" y="360" /><rect fill="#face70" height="35" width="35" x="180" y="360" /><rect fill="#fece73" height="35" width="35" x="216" y="360" /><rect fill="#fece73" height="35" width="35" x="252" y="360" /><rect fill="#fcef72" height="35" width="35" x="288" y="360" /><rect fill="#fff271" height="35" width="35" x="324" y="360" /><rect fill="#fef072" height="35" width="35" x="360" y="360" /><rect fill="#fef072" height="35" width="35" x="396" y="360" /><rect fill="#fff173" height="35" width="35" x="432" y="360" /><rect fill="#fecc72" height="35" width="35" x="468" y="360" /><rect fill="#000000" height="35" width="35" x="504" y="360" /><rect fill="#000000" height="35" width="35" x="540" y="360" /><rect fill="#000000" height="35" width="35" x="0" y="396" /><rect fill="#000000" height="35" width="35" x="36" y="396" /><rect fill="#000000" height="35" width="35" x="72" y="396" /><rect fill="#000000" height="35" width="35" x="108" y="396" /><rect fill="#000000" height="35" width="35" x="144" y="396" /><rect fill="#ffcb7a" height="35" width="35" x="180" y="396" /><rect fill="#fdcc72" height="35" width="35" x="216" y="396" /><rect fill="#fdcd72" height="35" width="35" x="252" y="396" /><rect fill="#fff171" height="35" width="35" x="288" y="396" /><rect fill="#fdef6e" height="35" width="35" x="324" y="396" /><rect fill="#fef074" height="35" width="35" x="360" y="396" /><rect fill="#fef072" height="35" width="35" x="396" y="396" /><rect fill="#fef072" height="35" width="35" x="432" y="396" /><rect fill="#fbcd73" height="35" width="35" x="468" y="396" /><rect fill="#000000" height="35" width="35" x="504" y="396" /><rect fill="#000000" height="35" width="35" x="540" y="396" /><rect fill="#000000" height="35" width="35" x="0" y="432" /><rect fill="#000000" height="35" width="35" x="36" y="432" /><rect fill="#000000" height="35" width="35" x="72" y="432" /><rect fill="#000000" height="35" width="35" x="108" y="432" /><rect fill="#f28303" height="35" width="35" x="144" y="432" /><rect fill="#f18304" height="35" width="35" x="180" y="432" /><rect fill="#fdcd71" height="35" width="35" x="216" y="432" /><rect fill="#fccc6e" height="35" width="35" x="252" y="432" /><rect fill="#fbcd73" height="35" width="35" x="288" y="432" /><rect fill="#fef072" height="35" width="35" x="324" y="432" /><rect fill="#fef072" height="35" width="35" x="360" y="432" /><rect fill="#fdcd71" height="35" width="35" x="396" y="432" /><rect fill="#fece73" height="35" width="35" x="432" y="432" /><rect fill="#000000" height="35" width="35" x="468" y="432" /><rect fill="#000000" height="35" width="35" x="504" y="432" /><rect fill="#000000" height="35" width="35" x="540" y="432" /><rect fill="#000000" height="35" width="35" x="0" y="468" /><rect fill="#000000" height="35" width="35" x="36" y="468" /><rect fill="#000000" height="35" width="35" x="72" y="468" /><rect fill="#f18503" height="35" width="35" x="108" y="468" /><rect fill="#f28002" height="35" width="35" x="144" y="468" /><rect fill="#f18304" height="35" width="35" x="180" y="468" /><rect fill="#fdcc73" height="35" width="35" x="216" y="468" /><rect fill="#fdcc73" height="35" width="35" x="252" y="468" /><rect fill="#fecc72" height="35" width="35" x="288" y="468" /><rect fill="#fdcd6f" height="35" width="35" x="324" y="468" /><rect fill="#fbcd71" height="35" width="35" x="360" y="468" /><rect fill="#ffcc73" height="35" width="35" x="396" y="468" /><rect fill="#000000" height="35" width="35" x="432" y="468" /><rect fill="#000000" height="35" width="35" x="468" y="468" /><rect fill="#000000" height="35" width="35" x="504" y="468" /><rect fill="#000000" height="35" width="35" x="540" y="468" /><rect fill="#000000" height="35" width="35" x="0" y="504" /><rect fill="#000000" height="35" width="35" x="36" y="504" /><rect fill="#000000" height="35" width="35" x="72" y="504" /><rect fill="#f18201" height="35" width="35" x="108" y="504" /><rect fill="#f18201" height="35" width="35" x="144" y="504" /><rect fill="#ef8300" height="35" width="35" x="180" y="504" /><rect fill="#000000" height="35" width="35" x="216" y="504" /><rect fill="#000000" height="35" width="35" x="252" y="504" /><rect fill="#f18304" height="35" width="35" x="288" y="504" /><rect fill="#000000" height="35" width="35" x="324" y="504" /><rect fill="#000000" height="35" width="35" x="360" y="504" /><rect fill="#000000" height="35" width="35" x="396" y="504" /><rect fill="#000000" height="35" width="35" x="432" y="504" /><rect fill="#000000" height="35" width="35" x="468" y="504" /><rect fill="#000000" height="35" width="35" x="504" y="504" /><rect fill="#000000" height="35" width="35" x="540" y="504" /><rect fill="#f3f3f3" height="35" width="35" x="0" y="540" /><rect fill="#f3f3f3" height="35" width="35" x="36" y="540" /><rect fill="#f3f4f1" height="35" width="35" x="72" y="540" /><rect fill="#f3f3f3" height="35" width="35" x="108" y="540" /><rect fill="#f5f3f3" height="35" width="35" x="144" y="540" /><rect fill="#f3f3f5" height="35" width="35" x="180" y="540" /><rect fill="#f3f3f3" height="35" width="35" x="216" y="540" /><rect fill="#f3f3f3" height="35" width="35" x="252" y="540" /><rect fill="#f38201" height="35" width="35" x="288" y="540" /><rect fill="#f28100" height="35" width="35" x="324" y="540" /><rect fill="#f3f3f3" height="35" width="35" x="360" y="540" /><rect fill="#f3f3f3" height="35" width="35" x="396" y="540" /><rect fill="#f3f3f3" height="35" width="35" x="432" y="540" /><rect fill="#f3f4f2" height="35" width="35" x="468" y="540" /><rect fill="#f3f3f3" height="35" width="35" x="504" y="540" /><rect fill="#f3f4f0" height="35" width="35" x="540" y="540" /></svg>