<?xml version="1.0" encoding="utf-8" ?>
<svg baseProfile="tiny" height="575" version="1.2" width="575" xmlns="http://www.w3.org/2000/svg" xmlns:ev="http://www.w3.org/2001/xml-events" xmlns:xlink="http://www.w3.org/1999/xlink"><defs /><rect fill="#050500" height="35" width="35" x="0" y="0" /><rect fill="#050500" height="35" width="35" x="36" y="0" /><rect fill="#050500" height="35" width="35" x="72" y="0" /><rect fill="#0e1100" height="35" width="35" x="108" y="0" /><rect fill="#181800" height="35" width="35" x="144" y="0" /><rect fill="#222300" height="35" width="35" x="180" y="0" /><rect fill="#282a00" height="35" width="35" x="216" y="0" /><rect fill="#020000" height="35" width="35" x="252" y="0" /><rect fill="#020001" height="35" width="35" x="288" y="0" /><rect fill="#292d01" height="35" width="35" x="324" y="0" /><rect fill="#242500" height="35" width="35" x="360" y="0" /><rect fill="#181800" height="35" width="35" x="396" y="0" /><rect fill="#0d1100" height="35" width="35" x="432" y="0" /><rect fill="#050500" height="35" width="35" x="468" y="0" /><rect fill="#050500" height="35" width="35" x="504" y="0" /><rect fill="#050500" height="35" width="35" x="540" y="0" /><rect fill="#0d1100" height="35" width="35" x="0" y="36" /><rect fill="#0d1100" height="35" width="35" x="36" y="36" /><rect fill="#0f1100" height="35" width="35" x="72" y="36" /><rect fill="#181800" height="35" width="35" x="108" y="36" /><rect fill="#242500" height="35" width="35" x="144" y="36" /><rect fill="#2b2c00" height="35" width="35" x="180" y="36" /><rect fill="#000100" height="35" width="35" x="216" y="36" /><rect fill="#3f3f3f" height="35" width="35" x="252" y="36" /><rect fill="#3f3f3f" height="35" width="35" x="288" y="36" /><rect fill="#000000" height="35" width="35" x="324" y="36" /><rect fill="#2b2c00" height="35" width="35" x="360" y="36" /><rect fill="#252400" height="35" width="35" x="396" y="36" /><rect fill="#181800" height="35" width="35" x="432" y="36" /><rect fill="#0d1100" height="35" width="35" x="468" y="36" /><rect fill="#0d1100" height="35" width="35" x="504" y="36" /><rect fill="#0d1100" height="35" width="35" x="540" y="36" /><rect fill="#181800" height="35" width="35" x="0" y="72" /><rect fill="#181800" height="35" width="35" x="36" y="72" /><rect fill="#181800" height="35" width="35" x="72" y="72" /><rect fill="#242500" height="35" width="35" x="108" y="72" /><rect fill="#242500" height="35" width="35" x="144" y="72" /><rect fill="#2b2c00" height="35" width="35" x="180" y="72" /><rect fill="#020002" height="35" width="35" x="216" y="72" /><rect fill="#3f3f3f" height="35" width="35" x="252" y="72" /><rect fill="#3c3f01" height="35" width="35" x="288" y="72" /><rect fill="#000000" height="35" width="35" x="324" y="72" /><rect fill="#2b2c00" height="35" width="35" x="360" y="72" /><rect fill="#242300" height="35" width="35" x="396" y="72" /><rect fill="#181800" height="35" width="35" x="432" y="72" /><rect fill="#181800" height="35" width="35" x="468" y="72" /><rect fill="#181800" height="35" width="35" x="504" y="72" /><rect fill="#181800" height="35" width="35" x="540" y="72" /><rect fill="#242500" height="35" width="35" x="0" y="108" /><rect fill="#242500" height="35" width="35" x="36" y="108" /><rect fill="#242500" height="35" width="35" x="72" y="108" /><rect fill="#242500" height="35" width="35" x="108" y="108" /><rect fill="#2b2c00" height="35" width="35" x="144" y="108" /><rect fill="#000000" height="35" width="35" x="180" y="108" /><rect fill="#3e3e3a" height="35" width="35" x="216" y="108" /><rect fill="#3e3f00" height="35" width="35" x="252" y="108" /><rect fill="#3e3f01" height="35" width="35" x="288" y="108" /><rect fill="#3d3e00" height="35" width="35" x="324" y="108" /><rect fill="#000000" height="35" width="35" x="360" y="108" /><rect fill="#2b2b00" height="35" width="35" x="396" y="108" /><rect fill="#242500" height="35" width="35" x="432" y="108" /><rect fill="#242500" height="35" width="35" x="468" y="108" /><rect fill="#242500" height="35" width="35" x="504" y="108" /><rect fill="#242500" height="35" width="35" x="540" y="108" /><rect fill="#292b00" height="35" width="35" x="0" y="144" /><rect fill="#292b00" height="35" width="35" x="36" y="144" /><rect fill="#292b00" height="35" width="35" x="72" y="144" /><rect fill="#292b00" height="35" width="35" x="108" y="144" /><rect fill="#292b00" height="35" width="35" x="144" y="144" /><rect fill="#000000" height="35" width="35" x="180" y="144" /><rect fill="#3f3f3f" height="35" width="35" x="216" y="144" /><rect fill="#3e3f00" height="35" width="35" x="252" y="144" /><rect fill="#3e3f00" height="35" width="35" x="288" y="144" /><rect fill="#3e3f00" height="35" width="35" x="324" y="144" /><rect fill="#010000" height="35" width="35" x="360" y="144" /><rect fill="#2c2c00" height="35" width="35" x="396" y="144" /><rect fill="#292d00" height="35" width="35" x="432" y="144" /><rect fill="#292d00" height="35" width="35" x="468" y="144" /><rect fill="#292d00" height="35" width="35" x="504" y="144" /><rect fill="#292d00" height="35" width="35" x="540" y="144" /><rect fill="#000000" height="35" width="35" x="0" y="180" /><rect fill="#000000" height="35" width="35" x="36" y="180" /><rect fill="#000000" height="35" width="35" x="72" y="180" /><rect fill="#000000" height="35" width="35" x="108" y="180" /><rect fill="#000000" height="35" width="35" x="144" y="180" /><rect fill="#3f3f3f" height="35" width="35" x="180" y="180" /><rect fill="#3e3f00" height="35" width="35" x="216" y="180" /><rect fill="#3e3f00" height="35" width="35" x="252" y="180" /><rect fill="#3e3f00" height="35" width="35" x="288" y="180" /><rect fill="#3e3f00" height="35" width="35" x="324" y="180" /><rect fill="#3e3f00" height="35" width="35" x="360" y="180" /><rect fill="#000000" height="35" width="35" x="396" y="180" /><rect fill="#000000" height="35" width="35" x="432" y="180" /><rect fill="#000000" height="35" width="35" x="468" y="180" /><rect fill="#000000" height="35" width="35" x="504" y="180" /><rect fill="#000000" height="35" width="35" x="540" y="180" /><rect fill="#000000" height="35" width="35" x="0" y="216" /><rect fill="#404040" height="35" width="35" x="36" y="216" /><rect fill="#3f3f3f" height="35" width="35" x="72" y="216" /><rect fill="#3f3f3f" height="35" width="35" x="108" y="216" /><rect fill="#3f3f3f" height="35" width="35" x="144" y="216" /><rect fill="#3d3e00" height="35" width="35" x="180" y="216" /><rect fill="#000002" height="35" width="35" x="216" y="216" /><rect fill="#3e3f00" height="35" width="35" x="252" y="216" /><rect fill="#3e3f00" height="35" width="35" x="288" y="216" /><rect fill="#010200" height="35" width="35" x="324" y="216" /><rect fill="#3e3f00" height="35" width="35" x="360" y="216" /><rect fill="#3e3f00" height="35" width="35" x="396" y="216" /><rect fill="#3d3e00" height="35" width="35" x="432" y="216" /><rect fill="#3e3f00" height="35" width="35" x="468" y="216" /><rect fill="#3c2900" height="35" width="35" x="504" y="216" /><rect fill="#000100" height="35" width="35" x="540" y="216" /><rect fill="#2a2d00" height="35" width="35" x="0" y="252" /><rect fill="#000000" height="35" width="35" x="36" y="252" /><rect fill="#404040" height="35" width="35" x="72" y="252" /><rect fill="#3d3f00" height="35" width="35" x="108" y="252" /><rect fill="#3e3f00" height="35" width="35" x="144" y="252" /><rect fill="#3e3f03" height="35" width="35" x="180" y="252" /><rect fill="#000000" height="35" width="35" x="216" y="252" /><rect fill="#3e3f00" height="35" width="35" x="252" y="252" /><rect fill="#3e3f00" height="35" width="35" x="288" y="252" /><rect fill="#010101" height="35" width="35" x="324" y="252" /><rect fill="#3e3f00" height="35" width="35" x="360" y="252" /><rect fill="#3e3f00" height="35" width="35" x="396" y="252" /><rect fill="#3e3f00" height="35" width="35" x="432" y="252" /><rect fill="#3b2900" height="35" width="35" x="468" y="252" /><rect fill="#000001" height="35" width="35" x="504" y="252" /><rect fill="#2b2d00" height="35" width="35" x="540" y="252" /><rect fill="#242500" height="35" width="35" x="0" y="288" /><rect fill="#292d00" height="35" width="35" x="36" y="288" /><rect fill="#000000" height="35" width="35" x="72" y="288" /><rect fill="#3f3f3f" height="35" width="35" x="108" y="288" /><rect fill="#3e3f00" height="35" width="35" x="144" y="288" /><rect fill="#3e3f01" height="35" width="35" x="180" y="288" /><rect fill="#3e3f00" height="35" width="35" x="216" y="288" /><rect fill="#3e3f00" height="35" width="35" x="252" y="288" /><rect fill="#3e3f00" height="35" width="35" x="288" y="288" /><rect fill="#3e3f00" height="35" width="35" x="324" y="288" /><rect fill="#3e3f00" height="35" width="35" x="360" y="288" /><rect fill="#3e3f00" height="35" width="35" x="396" y="288" /><rect fill="#3f2a00" height="35" width="35" x="432" y="288" /><rect fill="#000000" height="35" width="35" x="468" y="288" /><rect fill="#2b2c00" height="35" width="35" x="504" y="288" /><rect fill="#242500" height="35" width="35" x="540" y="288" /><rect fill="#181800" height="35" width="35" x="0" y="324" /><rect fill="#242500" height="35" width="35" x="36" y="324" /><rect fill="#2b2d00" height="35" width="35" x="72" y="324" /><rect fill="#000000" height="35" width="35" x="108" y="324" /><rect fill="#3f3f3f" height="35" width="35" x="144" y="324" /><rect fill="#3e3f03" height="35" width="35" x="180" y="324" /><rect fill="#010101" height="35" width="35" x="216" y="324" /><rect fill="#3e3f00" height="35" width="35" x="252" y="324" /><rect fill="#3e3f00" height="35" width="35" x="288" y="324" /><rect fill="#020000" height="35" width="35" x="324" y="324" /><rect fill="#3e3f00" height="35" width="35" x="360" y="324" /><rect fill="#3d2a01" height="35" width="35" x="396" y="324" /><rect fill="#000000" height="35" width="35" x="432" y="324" /><rect fill="#2b2d00" height="35" width="35" x="468" y="324" /><rect fill="#242500" height="35" width="35" x="504" y="324" /><rect fill="#181800" height="35" width="35" x="540" y="324" /><rect fill="#181800" height="35" width="35" x="0" y="360" /><rect fill="#242500" height="35" width="35" x="36" y="360" /><rect fill="#2b2c01" height="35" width="35" x="72" y="360" /><rect fill="#000000" height="35" width="35" x="108" y="360" /><rect fill="#3e3e3d" height="35" width="35" x="144" y="360" /><rect fill="#3d3f03" height="35" width="35" x="180" y="360" /><rect fill="#3e3f01" height="35" width="35" x="216" y="360" /><rect fill="#010100" height="35" width="35" x="252" y="360" /><rect fill="#010100" height="35" width="35" x="288" y="360" /><rect fill="#3b4000" height="35" width="35" x="324" y="360" /><rect fill="#3e3f00" height="35" width="35" x="360" y="360" /><rect fill="#3d2a01" height="35" width="35" x="396" y="360" /><rect fill="#020100" height="35" width="35" x="432" y="360" /><rect fill="#2c2e00" height="35" width="35" x="468" y="360" /><rect fill="#242500" height="35" width="35" x="504" y="360" /><rect fill="#181800" height="35" width="35" x="540" y="360" /><rect fill="#242500" height="35" width="35" x="0" y="396" /><rect fill="#2b2c00" height="35" width="35" x="36" y="396" /><rect fill="#020000" height="35" width="35" x="72" y="396" /><rect fill="#3f3f3f" height="35" width="35" x="108" y="396" /><rect fill="#3e3d00" height="35" width="35" x="144" y="396" /><rect fill="#3e3f00" height="35" width="35" x="180" y="396" /><rect fill="#3f4002" height="35" width="35" x="216" y="396" /><rect fill="#3e3f01" height="35" width="35" x="252" y="396" /><rect fill="#3e3f01" height="35" width="35" x="288" y="396" /><rect fill="#3f4000" height="35" width="35" x="324" y="396" /><rect fill="#3e3f00" height="35" width="35" x="360" y="396" /><rect fill="#3e3f01" height="35" width="35" x="396" y="396" /><rect fill="#3f2a00" height="35" width="35" x="432" y="396" /><rect fill="#000000" height="35" width="35" x="468" y="396" /><rect fill="#2b2c01" height="35" width="35" x="504" y="396" /><rect fill="#242500" height="35" width="35" x="540" y="396" /><rect fill="#242500" height="35" width="35" x="0" y="432" /><rect fill="#2b2c01" height="35" width="35" x="36" y="432" /><rect fill="#020000" height="35" width="35" x="72" y="432" /><rect fill="#3f3f3f" height="35" width="35" x="108" y="432" /><rect fill="#3e3f00" height="35" width="35" x="144" y="432" /><rect fill="#3e3f00" height="35" width="35" x="180" y="432" /><rect fill="#3e3f00" height="35" width="35" x="216" y="432" /><rect fill="#3f2a00" height="35" width="35" x="252" y="432" /><rect fill="#3f2a00" height="35" width="35" x="288" y="432" /><rect fill="#3e3f01" height="35" width="35" x="324" y="432" /><rect fill="#3e3f00" height="35" width="35" x="360" y="432" /><rect fill="#3e3f00" height="35" width="35" x="396" y="432" /><rect fill="#3d2a00" height="35" width="35" x="432" y="432" /><rect fill="#000000" height="35" width="35" x="468" y="432" /><rect fill="#2b2c00" height="35" width="35" x="504" y="432" /><rect fill="#242500" height="35" width="35" x="540" y="432" /><rect fill="#242500" height="35" width="35" x="0" y="468" /><rect fill="#2b2c01" height="35" width="35" x="36" y="468" /><rect fill="#020000" height="35" width="35" x="72" y="468" /><rect fill="#3f3f3f" height="35" width="35" x="108" y="468" /><rect fill="#3e3f00" height="35" width="35" x="144" y="468" /><rect fill="#402901" height="35" width="35" x="180" y="468" /><rect fill="#3f2901" height="35" width="35" x="216" y="468" /><rect fill="#000000" height="35" width="35" x="252" y="468" /><rect fill="#020000" height="35" width="35" x="288" y="468" /><rect fill="#3f2a00" height="35" width="35" x="324" y="468" /><rect fill="#3f2a00" height="35" width="35" x="360" y="468" /><rect fill="#3e3f00" height="35" width="35" x="396" y="468" /><rect fill="#3d2a00" height="35" width="35" x="432" y="468" /><rect fill="#010000" height="35" width="35" x="468" y="468" /><rect fill="#2b2c00" height="35" width="35" x="504" y="468" /><rect fill="#242500" height="35" width="35" x="540" y="468" /><rect fill="#2b2c00" height="35" width="35" x="0" y="504" /><rect fill="#000103" height="35" width="35" x="36" y="504" /><rect fill="#413e3f" height="35" width="35" x="72" y="504" /><rect fill="#3e3f01" height="35" width="35" x="108" y="504" /><rect fill="#3f2a00" height="35" width="35" x="144" y="504" /><rect fill="#010000" height="35" width="35" x="180" y="504" /><rect fill="#010000" height="35" width="35" x="216" y="504" /><rect fill="#323f13" height="35" width="35" x="252" y="504" /><rect fill="#323f13" height="35" width="35" x="288" y="504" /><rect fill="#000100" height="35" width="35" x="324" y="504" /><rect fill="#000100" height="35" width="35" x="360" y="504" /><rect fill="#3a2900" height="35" width="35" x="396" y="504" /><rect fill="#3e3f00" height="35" width="35" x="432" y="504" /><rect fill="#3d2a00" height="35" width="35" x="468" y="504" /><rect fill="#000000" height="35" width="35" x="504" y="504" /><rect fill="#2b2c00" height="35" width="35" x="540" y="504" /><rect fill="#2b2c00" height="35" width="35" x="0" y="540" /><rect fill="#000103" height="35" width="35" x="36" y="540" /><rect fill="#413e3f" height="35" width="35" x="72" y="540" /><rect fill="#3f2a00" height="35" width="35" x="108" y="540" /><rect fill="#000000" height="35" width="35" x="144" y="540" /><rect fill="#323f15" height="35" width="35" x="180" y="540" /><rect fill="#323f13" height="35" width="35" x="216" y="540" /><rect fill="#323f13" height="35" width="35" x="252" y="540" /><rect fill="#323f13" height="35" width="35" x="288" y="540" /><rect fill="#323f15" height="35" width="35" x="324" y="540" /><rect fill="#323f13" height="35" width="35" x="360" y="540" /><rect fill="#010001" height="35" width="35" x="396" y="540" /><rect fill="#3f2a00" height="35" width="35" x="432" y="540" /><rect fill="#3f2a00" height="35" width="35" x="468" y="540" /><rect fill="#000000" height="35" width="35" x="504" y="540" /><rect fill="#2b2c00" height="35" width="35" x="540" y="540" /></svg>