<?xml version="1.0" encoding="utf-8" ?>
<svg baseProfile="tiny" height="575" version="1.2" width="575" xmlns="http://www.w3.org/2000/svg" xmlns:ev="http://www.w3.org/2001/xml-events" xmlns:xlink="http://www.w3.org/1999/xlink"><defs /><rect fill="#0a0e00" height="35" width="35" x="0" y="0" /><rect fill="#0d0c00" height="35" width="35" x="36" y="0" /><rect fill="#0c0d00" height="35" width="35" x="72" y="0" /><rect fill="#1e2200" height="35" width="35" x="108" y="0" /><rect fill="#333504" height="35" width="35" x="144" y="0" /><rect fill="#474a00" height="35" width="35" x="180" y="0" /><rect fill="#585900" height="35" width="35" x="216" y="0" /><rect fill="#020000" height="35" width="35" x="252" y="0" /><rect fill="#000000" height="35" width="35" x="288" y="0" /><rect fill="#545c04" height="35" width="35" x="324" y="0" /><rect fill="#4a4900" height="35" width="35" x="360" y="0" /><rect fill="#313400" height="35" width="35" x="396" y="0" /><rect fill="#1e2200" height="35" width="35" x="432" y="0" /><rect fill="#0c0d00" height="35" width="35" x="468" y="0" /><rect fill="#0c0d00" height="35" width="35" x="504" y="0" /><rect fill="#0d0e00" height="35" width="35" x="540" y="0" /><rect fill="#202100" height="35" width="35" x="0" y="36" /><rect fill="#202100" height="35" width="35" x="36" y="36" /><rect fill="#1e2100" height="35" width="35" x="72" y="36" /><rect fill="#323400" height="35" width="35" x="108" y="36" /><rect fill="#474900" height="35" width="35" x="144" y="36" /><rect fill="#565c00" height="35" width="35" x="180" y="36" /><rect fill="#000000" height="35" width="35" x="216" y="36" /><rect fill="#7f7f7f" height="35" width="35" x="252" y="36" /><rect fill="#7f7f7f" height="35" width="35" x="288" y="36" /><rect fill="#000100" height="35" width="35" x="324" y="36" /><rect fill="#575b00" height="35" width="35" x="360" y="36" /><rect fill="#494900" height="35" width="35" x="396" y="36" /><rect fill="#323400" height="35" width="35" x="432" y="36" /><rect fill="#202100" height="35" width="35" x="468" y="36" /><rect fill="#202100" height="35" width="35" x="504" y="36" /><rect fill="#202100" height="35" width="35" x="540" y="36" /><rect fill="#323401" height="35" width="35" x="0" y="72" /><rect fill="#323401" height="35" width="35" x="36" y="72" /><rect fill="#323401" height="35" width="35" x="72" y="72" /><rect fill="#4a4700" height="35" width="35" x="108" y="72" /><rect fill="#494900" height="35" width="35" x="144" y="72" /><rect fill="#565b03" height="35" width="35" x="180" y="72" /><rect fill="#000000" height="35" width="35" x="216" y="72" /><rect fill="#818181" height="35" width="35" x="252" y="72" /><rect fill="#798001" height="35" width="35" x="288" y="72" /><rect fill="#000004" height="35" width="35" x="324" y="72" /><rect fill="#575b00" height="35" width="35" x="360" y="72" /><rect fill="#4a4a01" height="35" width="35" x="396" y="72" /><rect fill="#303300" height="35" width="35" x="432" y="72" /><rect fill="#323401" height="35" width="35" x="468" y="72" /><rect fill="#323401" height="35" width="35" x="504" y="72" /><rect fill="#323401" height="35" width="35" x="540" y="72" /><rect fill="#494900" height="35" width="35" x="0" y="108" /><rect fill="#494900" height="35" width="35" x="36" y="108" /><rect fill="#494900" height="35" width="35" x="72" y="108" /><rect fill="#494900" height="35" width="35" x="108" y="108" /><rect fill="#575900" height="35" width="35" x="144" y="108" /><rect fill="#020101" height="35" width="35" x="180" y="108" /><rect fill="#818181" height="35" width="35" x="216" y="108" /><rect fill="#7e8001" height="35" width="35" x="252" y="108" /><rect fill="#7e7f00" height="35" width="35" x="288" y="108" /><rect fill="#7b8000" height="35" width="35" x="324" y="108" /><rect fill="#040001" height="35" width="35" x="360" y="108" /><rect fill="#595b01" height="35" width="35" x="396" y="108" /><rect fill="#494900" height="35" width="35" x="432" y="108" /><rect fill="#494900" height="35" width="35" x="468" y="108" /><rect fill="#494900" height="35" width="35" x="504" y="108" /><rect fill="#494900" height="35" width="35" x="540" y="108" /><rect fill="#575d01" height="35" width="35" x="0" y="144" /><rect fill="#575b01" height="35" width="35" x="36" y="144" /><rect fill="#575b00" height="35" width="35" x="72" y="144" /><rect fill="#575b00" height="35" width="35" x="108" y="144" /><rect fill="#575b00" height="35" width="35" x="144" y="144" /><rect fill="#010101" height="35" width="35" x="180" y="144" /><rect fill="#7c7e80" height="35" width="35" x="216" y="144" /><rect fill="#7d7f00" height="35" width="35" x="252" y="144" /><rect fill="#7d7f00" height="35" width="35" x="288" y="144" /><rect fill="#7b8000" height="35" width="35" x="324" y="144" /><rect fill="#000100" height="35" width="35" x="360" y="144" /><rect fill="#545a05" height="35" width="35" x="396" y="144" /><rect fill="#545a00" height="35" width="35" x="432" y="144" /><rect fill="#545a00" height="35" width="35" x="468" y="144" /><rect fill="#545a00" height="35" width="35" x="504" y="144" /><rect fill="#565a00" height="35" width="35" x="540" y="144" /><rect fill="#000000" height="35" width="35" x="0" y="180" /><rect fill="#000000" height="35" width="35" x="36" y="180" /><rect fill="#000000" height="35" width="35" x="72" y="180" /><rect fill="#000000" height="35" width="35" x="108" y="180" /><rect fill="#000000" height="35" width="35" x="144" y="180" /><rect fill="#828080" height="35" width="35" x="180" y="180" /><rect fill="#7d7f00" height="35" width="35" x="216" y="180" /><rect fill="#7d8000" height="35" width="35" x="252" y="180" /><rect fill="#7d7f00" height="35" width="35" x="288" y="180" /><rect fill="#7d7f00" height="35" width="35" x="324" y="180" /><rect fill="#7d7f00" height="35" width="35" x="360" y="180" /><rect fill="#010000" height="35" width="35" x="396" y="180" /><rect fill="#000000" height="35" width="35" x="432" y="180" /><rect fill="#000000" height="35" width="35" x="468" y="180" /><rect fill="#000000" height="35" width="35" x="504" y="180" /><rect fill="#000000" height="35" width="35" x="540" y="180" /><rect fill="#010000" height="35" width="35" x="0" y="216" /><rect fill="#818181" height="35" width="35" x="36" y="216" /><rect fill="#7f7f7f" height="35" width="35" x="72" y="216" /><rect fill="#7f7f7f" height="35" width="35" x="108" y="216" /><rect fill="#7f7f7f" height="35" width="35" x="144" y="216" /><rect fill="#7c8103" height="35" width="35" x="180" y="216" /><rect fill="#030306" height="35" width="35" x="216" y="216" /><rect fill="#7d7f00" height="35" width="35" x="252" y="216" /><rect fill="#7d7f00" height="35" width="35" x="288" y="216" /><rect fill="#030005" height="35" width="35" x="324" y="216" /><rect fill="#7d7f00" height="35" width="35" x="360" y="216" /><rect fill="#7e8100" height="35" width="35" x="396" y="216" /><rect fill="#7d7f00" height="35" width="35" x="432" y="216" /><rect fill="#7d7f00" height="35" width="35" x="468" y="216" /><rect fill="#7e5700" height="35" width="35" x="504" y="216" /><rect fill="#040000" height="35" width="35" x="540" y="216" /><rect fill="#575b01" height="35" width="35" x="0" y="252" /><rect fill="#020000" height="35" width="35" x="36" y="252" /><rect fill="#7e7e7e" height="35" width="35" x="72" y="252" /><rect fill="#7a8001" height="35" width="35" x="108" y="252" /><rect fill="#7f7f01" height="35" width="35" x="144" y="252" /><rect fill="#7b8001" height="35" width="35" x="180" y="252" /><rect fill="#040003" height="35" width="35" x="216" y="252" /><rect fill="#7d7f00" height="35" width="35" x="252" y="252" /><rect fill="#7d7f00" height="35" width="35" x="288" y="252" /><rect fill="#030101" height="35" width="35" x="324" y="252" /><rect fill="#7d7f00" height="35" width="35" x="360" y="252" /><rect fill="#7d7f00" height="35" width="35" x="396" y="252" /><rect fill="#7c7e00" height="35" width="35" x="432" y="252" /><rect fill="#7f5403" height="35" width="35" x="468" y="252" /><rect fill="#000001" height="35" width="35" x="504" y="252" /><rect fill="#575b03" height="35" width="35" x="540" y="252" /><rect fill="#494900" height="35" width="35" x="0" y="288" /><rect fill="#575b01" height="35" width="35" x="36" y="288" /><rect fill="#030005" height="35" width="35" x="72" y="288" /><rect fill="#7f7f7f" height="35" width="35" x="108" y="288" /><rect fill="#7b8000" height="35" width="35" x="144" y="288" /><rect fill="#7d7f00" height="35" width="35" x="180" y="288" /><rect fill="#7d7f00" height="35" width="35" x="216" y="288" /><rect fill="#7d7f00" height="35" width="35" x="252" y="288" /><rect fill="#7d7f00" height="35" width="35" x="288" y="288" /><rect fill="#7d7f00" height="35" width="35" x="324" y="288" /><rect fill="#7d7f00" height="35" width="35" x="360" y="288" /><rect fill="#7d7f00" height="35" width="35" x="396" y="288" /><rect fill="#7e5300" height="35" width="35" x="432" y="288" /><rect fill="#000000" height="35" width="35" x="468" y="288" /><rect fill="#575b00" height="35" width="35" x="504" y="288" /><rect fill="#494900" height="35" width="35" x="540" y="288" /><rect fill="#323400" height="35" width="35" x="0" y="324" /><rect fill="#474a00" height="35" width="35" x="36" y="324" /><rect fill="#555900" height="35" width="35" x="72" y="324" /><rect fill="#000000" height="35" width="35" x="108" y="324" /><rect fill="#818181" height="35" width="35" x="144" y="324" /><rect fill="#7f8204" height="35" width="35" x="180" y="324" /><rect fill="#010000" height="35" width="35" x="216" y="324" /><rect fill="#7d7f00" height="35" width="35" x="252" y="324" /><rect fill="#7d7f00" height="35" width="35" x="288" y="324" /><rect fill="#010003" height="35" width="35" x="324" y="324" /><rect fill="#7d7f00" height="35" width="35" x="360" y="324" /><rect fill="#805400" height="35" width="35" x="396" y="324" /><rect fill="#020000" height="35" width="35" x="432" y="324" /><rect fill="#575b00" height="35" width="35" x="468" y="324" /><rect fill="#494900" height="35" width="35" x="504" y="324" /><rect fill="#353301" height="35" width="35" x="540" y="324" /><rect fill="#323400" height="35" width="35" x="0" y="360" /><rect fill="#474a00" height="35" width="35" x="36" y="360" /><rect fill="#545900" height="35" width="35" x="72" y="360" /><rect fill="#000000" height="35" width="35" x="108" y="360" /><rect fill="#7f7f7f" height="35" width="35" x="144" y="360" /><rect fill="#7d8100" height="35" width="35" x="180" y="360" /><rect fill="#7d8004" height="35" width="35" x="216" y="360" /><rect fill="#020000" height="35" width="35" x="252" y="360" /><rect fill="#010000" height="35" width="35" x="288" y="360" /><rect fill="#7b8103" height="35" width="35" x="324" y="360" /><rect fill="#7d7f00" height="35" width="35" x="360" y="360" /><rect fill="#805402" height="35" width="35" x="396" y="360" /><rect fill="#020000" height="35" width="35" x="432" y="360" /><rect fill="#575b00" height="35" width="35" x="468" y="360" /><rect fill="#494900" height="35" width="35" x="504" y="360" /><rect fill="#343301" height="35" width="35" x="540" y="360" /><rect fill="#4a4900" height="35" width="35" x="0" y="396" /><rect fill="#575b00" height="35" width="35" x="36" y="396" /><rect fill="#010000" height="35" width="35" x="72" y="396" /><rect fill="#7f7f7f" height="35" width="35" x="108" y="396" /><rect fill="#7d8000" height="35" width="35" x="144" y="396" /><rect fill="#7b8004" height="35" width="35" x="180" y="396" /><rect fill="#7c8100" height="35" width="35" x="216" y="396" /><rect fill="#7b8000" height="35" width="35" x="252" y="396" /><rect fill="#7d7f00" height="35" width="35" x="288" y="396" /><rect fill="#7d7f00" height="35" width="35" x="324" y="396" /><rect fill="#7f7f00" height="35" width="35" x="360" y="396" /><rect fill="#798000" height="35" width="35" x="396" y="396" /><rect fill="#7f5403" height="35" width="35" x="432" y="396" /><rect fill="#000000" height="35" width="35" x="468" y="396" /><rect fill="#595c05" height="35" width="35" x="504" y="396" /><rect fill="#474902" height="35" width="35" x="540" y="396" /><rect fill="#484900" height="35" width="35" x="0" y="432" /><rect fill="#575b00" height="35" width="35" x="36" y="432" /><rect fill="#050000" height="35" width="35" x="72" y="432" /><rect fill="#7f7f7f" height="35" width="35" x="108" y="432" /><rect fill="#7e8100" height="35" width="35" x="144" y="432" /><rect fill="#7d7f01" height="35" width="35" x="180" y="432" /><rect fill="#7d7f01" height="35" width="35" x="216" y="432" /><rect fill="#805400" height="35" width="35" x="252" y="432" /><rect fill="#805400" height="35" width="35" x="288" y="432" /><rect fill="#7d7f01" height="35" width="35" x="324" y="432" /><rect fill="#7d7f00" height="35" width="35" x="360" y="432" /><rect fill="#7d7f00" height="35" width="35" x="396" y="432" /><rect fill="#7f5401" height="35" width="35" x="432" y="432" /><rect fill="#000000" height="35" width="35" x="468" y="432" /><rect fill="#575b00" height="35" width="35" x="504" y="432" /><rect fill="#474a00" height="35" width="35" x="540" y="432" /><rect fill="#484900" height="35" width="35" x="0" y="468" /><rect fill="#575b00" height="35" width="35" x="36" y="468" /><rect fill="#050000" height="35" width="35" x="72" y="468" /><rect fill="#7f7f7f" height="35" width="35" x="108" y="468" /><rect fill="#7d7f00" height="35" width="35" x="144" y="468" /><rect fill="#815400" height="35" width="35" x="180" y="468" /><rect fill="#7f5500" height="35" width="35" x="216" y="468" /><rect fill="#000000" height="35" width="35" x="252" y="468" /><rect fill="#000000" height="35" width="35" x="288" y="468" /><rect fill="#7c5400" height="35" width="35" x="324" y="468" /><rect fill="#7c5400" height="35" width="35" x="360" y="468" /><rect fill="#7e8001" height="35" width="35" x="396" y="468" /><rect fill="#7f5401" height="35" width="35" x="432" y="468" /><rect fill="#000000" height="35" width="35" x="468" y="468" /><rect fill="#575b00" height="35" width="35" x="504" y="468" /><rect fill="#474a00" height="35" width="35" x="540" y="468" /><rect fill="#575c00" height="35" width="35" x="0" y="504" /><rect fill="#020000" height="35" width="35" x="36" y="504" /><rect fill="#828080" height="35" width="35" x="72" y="504" /><rect fill="#7c8000" height="35" width="35" x="108" y="504" /><rect fill="#7b5600" height="35" width="35" x="144" y="504" /><rect fill="#030101" height="35" width="35" x="180" y="504" /><rect fill="#020000" height="35" width="35" x="216" y="504" /><rect fill="#657f2e" height="35" width="35" x="252" y="504" /><rect fill="#657f2e" height="35" width="35" x="288" y="504" /><rect fill="#000000" height="35" width="35" x="324" y="504" /><rect fill="#000000" height="35" width="35" x="360" y="504" /><rect fill="#7c5300" height="35" width="35" x="396" y="504" /><rect fill="#7b7b00" height="35" width="35" x="432" y="504" /><rect fill="#7f5500" height="35" width="35" x="468" y="504" /><rect fill="#000000" height="35" width="35" x="504" y="504" /><rect fill="#565a00" height="35" width="35" x="540" y="504" /><rect fill="#575c00" height="35" width="35" x="0" y="540" /><rect fill="#020000" height="35" width="35" x="36" y="540" /><rect fill="#7d7f7f" height="35" width="35" x="72" y="540" /><rect fill="#7f5500" height="35" width="35" x="108" y="540" /><rect fill="#000000" height="35" width="35" x="144" y="540" /><rect fill="#66802d" height="35" width="35" x="180" y="540" /><rect fill="#657f2b" height="35" width="35" x="216" y="540" /><rect fill="#657f2b" height="35" width="35" x="252" y="540" /><rect fill="#657f2b" height="35" width="35" x="288" y="540" /><rect fill="#647e2a" height="35" width="35" x="324" y="540" /><rect fill="#657f2b" height="35" width="35" x="360" y="540" /><rect fill="#000002" height="35" width="35" x="396" y="540" /><rect fill="#805600" height="35" width="35" x="432" y="540" /><rect fill="#7f5500" height="35" width="35" x="468" y="540" /><rect fill="#000000" height="35" width="35" x="504" y="540" /><rect fill="#565a00" height="35" width="35" x="540" y="540" /></svg>