<?xml version="1.0" encoding="utf-8" ?>
<svg baseProfile="tiny" height="575" version="1.2" width="575" xmlns="http://www.w3.org/2000/svg" xmlns:ev="http://www.w3.org/2001/xml-events" xmlns:xlink="http://www.w3.org/1999/xlink"><defs /><rect fill="#101200" height="35" width="35" x="0" y="0" /><rect fill="#101200" height="35" width="35" x="36" y="0" /><rect fill="#101200" height="35" width="35" x="72" y="0" /><rect fill="#2d3200" height="35" width="35" x="108" y="0" /><rect fill="#4f4f02" height="35" width="35" x="144" y="0" /><rect fill="#6e6f01" height="35" width="35" x="180" y="0" /><rect fill="#888a01" height="35" width="35" x="216" y="0" /><rect fill="#020000" height="35" width="35" x="252" y="0" /><rect fill="#000000" height="35" width="35" x="288" y="0" /><rect fill="#888c03" height="35" width="35" x="324" y="0" /><rect fill="#6b6e00" height="35" width="35" x="360" y="0" /><rect fill="#4e4e00" height="35" width="35" x="396" y="0" /><rect fill="#303300" height="35" width="35" x="432" y="0" /><rect fill="#101401" height="35" width="35" x="468" y="0" /><rect fill="#101401" height="35" width="35" x="504" y="0" /><rect fill="#101200" height="35" width="35" x="540" y="0" /><rect fill="#2d3200" height="35" width="35" x="0" y="36" /><rect fill="#2d3200" height="35" width="35" x="36" y="36" /><rect fill="#2d3200" height="35" width="35" x="72" y="36" /><rect fill="#4f4f00" height="35" width="35" x="108" y="36" /><rect fill="#6b6e00" height="35" width="35" x="144" y="36" /><rect fill="#898a01" height="35" width="35" x="180" y="36" /><rect fill="#000001" height="35" width="35" x="216" y="36" /><rect fill="#c0c0c0" height="35" width="35" x="252" y="36" /><rect fill="#c0c0c0" height="35" width="35" x="288" y="36" /><rect fill="#020000" height="35" width="35" x="324" y="36" /><rect fill="#898a00" height="35" width="35" x="360" y="36" /><rect fill="#6b6e00" height="35" width="35" x="396" y="36" /><rect fill="#4d5000" height="35" width="35" x="432" y="36" /><rect fill="#2d3200" height="35" width="35" x="468" y="36" /><rect fill="#2d3200" height="35" width="35" x="504" y="36" /><rect fill="#2d3200" height="35" width="35" x="540" y="36" /><rect fill="#4f4f00" height="35" width="35" x="0" y="72" /><rect fill="#4f4f02" height="35" width="35" x="36" y="72" /><rect fill="#4f4f00" height="35" width="35" x="72" y="72" /><rect fill="#6c6f00" height="35" width="35" x="108" y="72" /><rect fill="#6b6e00" height="35" width="35" x="144" y="72" /><rect fill="#8b8a01" height="35" width="35" x="180" y="72" /><rect fill="#000002" height="35" width="35" x="216" y="72" /><rect fill="#bfbfbf" height="35" width="35" x="252" y="72" /><rect fill="#bcc302" height="35" width="35" x="288" y="72" /><rect fill="#020000" height="35" width="35" x="324" y="72" /><rect fill="#8a8c01" height="35" width="35" x="360" y="72" /><rect fill="#6b6e00" height="35" width="35" x="396" y="72" /><rect fill="#505003" height="35" width="35" x="432" y="72" /><rect fill="#4f4f01" height="35" width="35" x="468" y="72" /><rect fill="#4f4f02" height="35" width="35" x="504" y="72" /><rect fill="#4f4f00" height="35" width="35" x="540" y="72" /><rect fill="#6c6f00" height="35" width="35" x="0" y="108" /><rect fill="#6b6e00" height="35" width="35" x="36" y="108" /><rect fill="#6b6e00" height="35" width="35" x="72" y="108" /><rect fill="#6b6e00" height="35" width="35" x="108" y="108" /><rect fill="#878a00" height="35" width="35" x="144" y="108" /><rect fill="#040001" height="35" width="35" x="180" y="108" /><rect fill="#c0bfbb" height="35" width="35" x="216" y="108" /><rect fill="#bfc200" height="35" width="35" x="252" y="108" /><rect fill="#bec202" height="35" width="35" x="288" y="108" /><rect fill="#bdc101" height="35" width="35" x="324" y="108" /><rect fill="#030100" height="35" width="35" x="360" y="108" /><rect fill="#868900" height="35" width="35" x="396" y="108" /><rect fill="#6e6f00" height="35" width="35" x="432" y="108" /><rect fill="#6a6d00" height="35" width="35" x="468" y="108" /><rect fill="#6c6c00" height="35" width="35" x="504" y="108" /><rect fill="#6b6e00" height="35" width="35" x="540" y="108" /><rect fill="#898a01" height="35" width="35" x="0" y="144" /><rect fill="#888900" height="35" width="35" x="36" y="144" /><rect fill="#888900" height="35" width="35" x="72" y="144" /><rect fill="#898a01" height="35" width="35" x="108" y="144" /><rect fill="#888900" height="35" width="35" x="144" y="144" /><rect fill="#030101" height="35" width="35" x="180" y="144" /><rect fill="#bfbfbf" height="35" width="35" x="216" y="144" /><rect fill="#bfc100" height="35" width="35" x="252" y="144" /><rect fill="#bfc001" height="35" width="35" x="288" y="144" /><rect fill="#bfc305" height="35" width="35" x="324" y="144" /><rect fill="#040002" height="35" width="35" x="360" y="144" /><rect fill="#8a8900" height="35" width="35" x="396" y="144" /><rect fill="#888900" height="35" width="35" x="432" y="144" /><rect fill="#888c00" height="35" width="35" x="468" y="144" /><rect fill="#888c00" height="35" width="35" x="504" y="144" /><rect fill="#878b00" height="35" width="35" x="540" y="144" /><rect fill="#000000" height="35" width="35" x="0" y="180" /><rect fill="#000000" height="35" width="35" x="36" y="180" /><rect fill="#000000" height="35" width="35" x="72" y="180" /><rect fill="#000000" height="35" width="35" x="108" y="180" /><rect fill="#000000" height="35" width="35" x="144" y="180" /><rect fill="#c0c0c0" height="35" width="35" x="180" y="180" /><rect fill="#bfc000" height="35" width="35" x="216" y="180" /><rect fill="#bfc100" height="35" width="35" x="252" y="180" /><rect fill="#bfc001" height="35" width="35" x="288" y="180" /><rect fill="#bfc100" height="35" width="35" x="324" y="180" /><rect fill="#bfc100" height="35" width="35" x="360" y="180" /><rect fill="#020000" height="35" width="35" x="396" y="180" /><rect fill="#000000" height="35" width="35" x="432" y="180" /><rect fill="#000000" height="35" width="35" x="468" y="180" /><rect fill="#000000" height="35" width="35" x="504" y="180" /><rect fill="#000000" height="35" width="35" x="540" y="180" /><rect fill="#000000" height="35" width="35" x="0" y="216" /><rect fill="#bfbfbf" height="35" width="35" x="36" y="216" /><rect fill="#c0c0c0" height="35" width="35" x="72" y="216" /><rect fill="#c0c0c0" height="35" width="35" x="108" y="216" /><rect fill="#c0c0c0" height="35" width="35" x="144" y="216" /><rect fill="#c0bc00" height="35" width="35" x="180" y="216" /><rect fill="#040202" height="35" width="35" x="216" y="216" /><rect fill="#bfc100" height="35" width="35" x="252" y="216" /><rect fill="#bfc100" height="35" width="35" x="288" y="216" /><rect fill="#070005" height="35" width="35" x="324" y="216" /><rect fill="#bfc100" height="35" width="35" x="360" y="216" /><rect fill="#c0c200" height="35" width="35" x="396" y="216" /><rect fill="#c0c101" height="35" width="35" x="432" y="216" /><rect fill="#c0c102" height="35" width="35" x="468" y="216" /><rect fill="#bf8300" height="35" width="35" x="504" y="216" /><rect fill="#000000" height="35" width="35" x="540" y="216" /><rect fill="#888c02" height="35" width="35" x="0" y="252" /><rect fill="#000000" height="35" width="35" x="36" y="252" /><rect fill="#c1c1c1" height="35" width="35" x="72" y="252" /><rect fill="#c0c200" height="35" width="35" x="108" y="252" /><rect fill="#bebf00" height="35" width="35" x="144" y="252" /><rect fill="#bdc104" height="35" width="35" x="180" y="252" /><rect fill="#000101" height="35" width="35" x="216" y="252" /><rect fill="#bfc100" height="35" width="35" x="252" y="252" /><rect fill="#bfc000" height="35" width="35" x="288" y="252" /><rect fill="#030100" height="35" width="35" x="324" y="252" /><rect fill="#bfc100" height="35" width="35" x="360" y="252" /><rect fill="#bfc100" height="35" width="35" x="396" y="252" /><rect fill="#c0c200" height="35" width="35" x="432" y="252" /><rect fill="#bf7f00" height="35" width="35" x="468" y="252" /><rect fill="#020000" height="35" width="35" x="504" y="252" /><rect fill="#888c03" height="35" width="35" x="540" y="252" /><rect fill="#6b6e00" height="35" width="35" x="0" y="288" /><rect fill="#898b00" height="35" width="35" x="36" y="288" /><rect fill="#010103" height="35" width="35" x="72" y="288" /><rect fill="#c1c0c0" height="35" width="35" x="108" y="288" /><rect fill="#bfc001" height="35" width="35" x="144" y="288" /><rect fill="#bfc001" height="35" width="35" x="180" y="288" /><rect fill="#bfc100" height="35" width="35" x="216" y="288" /><rect fill="#bfc100" height="35" width="35" x="252" y="288" /><rect fill="#bfc100" height="35" width="35" x="288" y="288" /><rect fill="#bfc001" height="35" width="35" x="324" y="288" /><rect fill="#bfc000" height="35" width="35" x="360" y="288" /><rect fill="#bfc100" height="35" width="35" x="396" y="288" /><rect fill="#c17f00" height="35" width="35" x="432" y="288" /><rect fill="#000000" height="35" width="35" x="468" y="288" /><rect fill="#878b00" height="35" width="35" x="504" y="288" /><rect fill="#6e6d02" height="35" width="35" x="540" y="288" /><rect fill="#4e4f00" height="35" width="35" x="0" y="324" /><rect fill="#6a6d00" height="35" width="35" x="36" y="324" /><rect fill="#838900" height="35" width="35" x="72" y="324" /><rect fill="#030002" height="35" width="35" x="108" y="324" /><rect fill="#c5c0c3" height="35" width="35" x="144" y="324" /><rect fill="#bebf03" height="35" width="35" x="180" y="324" /><rect fill="#010000" height="35" width="35" x="216" y="324" /><rect fill="#c0c102" height="35" width="35" x="252" y="324" /><rect fill="#bdc101" height="35" width="35" x="288" y="324" /><rect fill="#010004" height="35" width="35" x="324" y="324" /><rect fill="#bec202" height="35" width="35" x="360" y="324" /><rect fill="#b97e00" height="35" width="35" x="396" y="324" /><rect fill="#020000" height="35" width="35" x="432" y="324" /><rect fill="#918901" height="35" width="35" x="468" y="324" /><rect fill="#6b6e00" height="35" width="35" x="504" y="324" /><rect fill="#514f00" height="35" width="35" x="540" y="324" /><rect fill="#4f5102" height="35" width="35" x="0" y="360" /><rect fill="#6c6c00" height="35" width="35" x="36" y="360" /><rect fill="#878900" height="35" width="35" x="72" y="360" /><rect fill="#000000" height="35" width="35" x="108" y="360" /><rect fill="#c2c0c2" height="35" width="35" x="144" y="360" /><rect fill="#bbc200" height="35" width="35" x="180" y="360" /><rect fill="#bcc100" height="35" width="35" x="216" y="360" /><rect fill="#050003" height="35" width="35" x="252" y="360" /><rect fill="#050003" height="35" width="35" x="288" y="360" /><rect fill="#bcc000" height="35" width="35" x="324" y="360" /><rect fill="#c0c000" height="35" width="35" x="360" y="360" /><rect fill="#bb8002" height="35" width="35" x="396" y="360" /><rect fill="#020000" height="35" width="35" x="432" y="360" /><rect fill="#8a8b03" height="35" width="35" x="468" y="360" /><rect fill="#6b6e00" height="35" width="35" x="504" y="360" /><rect fill="#514e02" height="35" width="35" x="540" y="360" /><rect fill="#6a6e00" height="35" width="35" x="0" y="396" /><rect fill="#8b8d04" height="35" width="35" x="36" y="396" /><rect fill="#010101" height="35" width="35" x="72" y="396" /><rect fill="#c2c3c0" height="35" width="35" x="108" y="396" /><rect fill="#bdc005" height="35" width="35" x="144" y="396" /><rect fill="#bdc100" height="35" width="35" x="180" y="396" /><rect fill="#bdc100" height="35" width="35" x="216" y="396" /><rect fill="#bec200" height="35" width="35" x="252" y="396" /><rect fill="#c0c102" height="35" width="35" x="288" y="396" /><rect fill="#c1c001" height="35" width="35" x="324" y="396" /><rect fill="#bec200" height="35" width="35" x="360" y="396" /><rect fill="#bec202" height="35" width="35" x="396" y="396" /><rect fill="#be8104" height="35" width="35" x="432" y="396" /><rect fill="#000000" height="35" width="35" x="468" y="396" /><rect fill="#868a00" height="35" width="35" x="504" y="396" /><rect fill="#6e6f01" height="35" width="35" x="540" y="396" /><rect fill="#696e00" height="35" width="35" x="0" y="432" /><rect fill="#898a01" height="35" width="35" x="36" y="432" /><rect fill="#030101" height="35" width="35" x="72" y="432" /><rect fill="#c0c0c0" height="35" width="35" x="108" y="432" /><rect fill="#bdc100" height="35" width="35" x="144" y="432" /><rect fill="#bfc003" height="35" width="35" x="180" y="432" /><rect fill="#bfc004" height="35" width="35" x="216" y="432" /><rect fill="#bd8000" height="35" width="35" x="252" y="432" /><rect fill="#bd8000" height="35" width="35" x="288" y="432" /><rect fill="#bfc000" height="35" width="35" x="324" y="432" /><rect fill="#bec100" height="35" width="35" x="360" y="432" /><rect fill="#bec100" height="35" width="35" x="396" y="432" /><rect fill="#bd8000" height="35" width="35" x="432" y="432" /><rect fill="#000000" height="35" width="35" x="468" y="432" /><rect fill="#898a00" height="35" width="35" x="504" y="432" /><rect fill="#6e6f00" height="35" width="35" x="540" y="432" /><rect fill="#6a6e00" height="35" width="35" x="0" y="468" /><rect fill="#888a01" height="35" width="35" x="36" y="468" /><rect fill="#030100" height="35" width="35" x="72" y="468" /><rect fill="#c0c0c0" height="35" width="35" x="108" y="468" /><rect fill="#bcc000" height="35" width="35" x="144" y="468" /><rect fill="#ba8100" height="35" width="35" x="180" y="468" /><rect fill="#b87f00" height="35" width="35" x="216" y="468" /><rect fill="#000000" height="35" width="35" x="252" y="468" /><rect fill="#000000" height="35" width="35" x="288" y="468" /><rect fill="#ba7f00" height="35" width="35" x="324" y="468" /><rect fill="#bb8100" height="35" width="35" x="360" y="468" /><rect fill="#bfc000" height="35" width="35" x="396" y="468" /><rect fill="#bd8000" height="35" width="35" x="432" y="468" /><rect fill="#000000" height="35" width="35" x="468" y="468" /><rect fill="#898a01" height="35" width="35" x="504" y="468" /><rect fill="#6c6e00" height="35" width="35" x="540" y="468" /><rect fill="#888d00" height="35" width="35" x="0" y="504" /><rect fill="#040002" height="35" width="35" x="36" y="504" /><rect fill="#c1c1c1" height="35" width="35" x="72" y="504" /><rect fill="#bdc300" height="35" width="35" x="108" y="504" /><rect fill="#bf8000" height="35" width="35" x="144" y="504" /><rect fill="#030005" height="35" width="35" x="180" y="504" /><rect fill="#030002" height="35" width="35" x="216" y="504" /><rect fill="#98be44" height="35" width="35" x="252" y="504" /><rect fill="#99c045" height="35" width="35" x="288" y="504" /><rect fill="#010301" height="35" width="35" x="324" y="504" /><rect fill="#040000" height="35" width="35" x="360" y="504" /><rect fill="#ba7c00" height="35" width="35" x="396" y="504" /><rect fill="#c3bd00" height="35" width="35" x="432" y="504" /><rect fill="#bf8000" height="35" width="35" x="468" y="504" /><rect fill="#000000" height="35" width="35" x="504" y="504" /><rect fill="#888a06" height="35" width="35" x="540" y="504" /><rect fill="#898a00" height="35" width="35" x="0" y="540" /><rect fill="#040003" height="35" width="35" x="36" y="540" /><rect fill="#c1c1c1" height="35" width="35" x="72" y="540" /><rect fill="#bf7f00" height="35" width="35" x="108" y="540" /><rect fill="#000000" height="35" width="35" x="144" y="540" /><rect fill="#96c145" height="35" width="35" x="180" y="540" /><rect fill="#9bbf43" height="35" width="35" x="216" y="540" /><rect fill="#97c143" height="35" width="35" x="252" y="540" /><rect fill="#99c043" height="35" width="35" x="288" y="540" /><rect fill="#98bf42" height="35" width="35" x="324" y="540" /><rect fill="#99c043" height="35" width="35" x="360" y="540" /><rect fill="#030101" height="35" width="35" x="396" y="540" /><rect fill="#bf7f00" height="35" width="35" x="432" y="540" /><rect fill="#bf7f00" height="35" width="35" x="468" y="540" /><rect fill="#000002" height="35" width="35" x="504" y="540" /><rect fill="#898a00" height="35" width="35" x="540" y="540" /></svg>