<?xml version="1.0" encoding="utf-8" ?>
<svg baseProfile="tiny" height="575" version="1.2" width="575" xmlns="http://www.w3.org/2000/svg" xmlns:ev="http://www.w3.org/2001/xml-events" xmlns:xlink="http://www.w3.org/1999/xlink"><defs /><rect fill="#000000" height="35" width="35" x="0" y="0" /><rect fill="#000000" height="35" width="35" x="36" y="0" /><rect fill="#181800" height="35" width="35" x="72" y="0" /><rect fill="#181800" height="35" width="35" x="108" y="0" /><rect fill="#181800" height="35" width="35" x="144" y="0" /><rect fill="#414300" height="35" width="35" x="180" y="0" /><rect fill="#686800" height="35" width="35" x="216" y="0" /><rect fill="#919400" height="35" width="35" x="252" y="0" /><rect fill="#919301" height="35" width="35" x="288" y="0" /><rect fill="#676700" height="35" width="35" x="324" y="0" /><rect fill="#434200" height="35" width="35" x="360" y="0" /><rect fill="#181800" height="35" width="35" x="396" y="0" /><rect fill="#181800" height="35" width="35" x="432" y="0" /><rect fill="#181800" height="35" width="35" x="468" y="0" /><rect fill="#000000" height="35" width="35" x="504" y="0" /><rect fill="#000000" height="35" width="35" x="540" y="0" /><rect fill="#000000" height="35" width="35" x="0" y="36" /><rect fill="#181800" height="35" width="35" x="36" y="36" /><rect fill="#414300" height="35" width="35" x="72" y="36" /><rect fill="#414300" height="35" width="35" x="108" y="36" /><rect fill="#414300" height="35" width="35" x="144" y="36" /><rect fill="#656700" height="35" width="35" x="180" y="36" /><rect fill="#919300" height="35" width="35" x="216" y="36" /><rect fill="#b5b600" height="35" width="35" x="252" y="36" /><rect fill="#b5b600" height="35" width="35" x="288" y="36" /><rect fill="#939301" height="35" width="35" x="324" y="36" /><rect fill="#676700" height="35" width="35" x="360" y="36" /><rect fill="#414300" height="35" width="35" x="396" y="36" /><rect fill="#414300" height="35" width="35" x="432" y="36" /><rect fill="#414300" height="35" width="35" x="468" y="36" /><rect fill="#181800" height="35" width="35" x="504" y="36" /><rect fill="#000000" height="35" width="35" x="540" y="36" /><rect fill="#181800" height="35" width="35" x="0" y="72" /><rect fill="#414300" height="35" width="35" x="36" y="72" /><rect fill="#676700" height="35" width="35" x="72" y="72" /><rect fill="#676700" height="35" width="35" x="108" y="72" /><rect fill="#676700" height="35" width="35" x="144" y="72" /><rect fill="#919301" height="35" width="35" x="180" y="72" /><rect fill="#b5b600" height="35" width="35" x="216" y="72" /><rect fill="#000002" height="35" width="35" x="252" y="72" /><rect fill="#000002" height="35" width="35" x="288" y="72" /><rect fill="#b6b600" height="35" width="35" x="324" y="72" /><rect fill="#919300" height="35" width="35" x="360" y="72" /><rect fill="#676700" height="35" width="35" x="396" y="72" /><rect fill="#676700" height="35" width="35" x="432" y="72" /><rect fill="#676700" height="35" width="35" x="468" y="72" /><rect fill="#414300" height="35" width="35" x="504" y="72" /><rect fill="#181800" height="35" width="35" x="540" y="72" /><rect fill="#414300" height="35" width="35" x="0" y="108" /><rect fill="#646600" height="35" width="35" x="36" y="108" /><rect fill="#919300" height="35" width="35" x="72" y="108" /><rect fill="#919300" height="35" width="35" x="108" y="108" /><rect fill="#919300" height="35" width="35" x="144" y="108" /><rect fill="#b4b500" height="35" width="35" x="180" y="108" /><rect fill="#000000" height="35" width="35" x="216" y="108" /><rect fill="#fefefe" height="35" width="35" x="252" y="108" /><rect fill="#feff00" height="35" width="35" x="288" y="108" /><rect fill="#020001" height="35" width="35" x="324" y="108" /><rect fill="#b5b601" height="35" width="35" x="360" y="108" /><rect fill="#909400" height="35" width="35" x="396" y="108" /><rect fill="#909400" height="35" width="35" x="432" y="108" /><rect fill="#919300" height="35" width="35" x="468" y="108" /><rect fill="#676700" height="35" width="35" x="504" y="108" /><rect fill="#434300" height="35" width="35" x="540" y="108" /><rect fill="#676700" height="35" width="35" x="0" y="144" /><rect fill="#909400" height="35" width="35" x="36" y="144" /><rect fill="#b4b503" height="35" width="35" x="72" y="144" /><rect fill="#b2b700" height="35" width="35" x="108" y="144" /><rect fill="#b4b602" height="35" width="35" x="144" y="144" /><rect fill="#b2b600" height="35" width="35" x="180" y="144" /><rect fill="#000000" height="35" width="35" x="216" y="144" /><rect fill="#fffffd" height="35" width="35" x="252" y="144" /><rect fill="#ffff00" height="35" width="35" x="288" y="144" /><rect fill="#020000" height="35" width="35" x="324" y="144" /><rect fill="#b2b501" height="35" width="35" x="360" y="144" /><rect fill="#b4b800" height="35" width="35" x="396" y="144" /><rect fill="#b4b700" height="35" width="35" x="432" y="144" /><rect fill="#b4b602" height="35" width="35" x="468" y="144" /><rect fill="#909400" height="35" width="35" x="504" y="144" /><rect fill="#646700" height="35" width="35" x="540" y="144" /><rect fill="#919300" height="35" width="35" x="0" y="180" /><rect fill="#b4b602" height="35" width="35" x="36" y="180" /><rect fill="#000000" height="35" width="35" x="72" y="180" /><rect fill="#000000" height="35" width="35" x="108" y="180" /><rect fill="#000000" height="35" width="35" x="144" y="180" /><rect fill="#000000" height="35" width="35" x="180" y="180" /><rect fill="#fffffd" height="35" width="35" x="216" y="180" /><rect fill="#feff00" height="35" width="35" x="252" y="180" /><rect fill="#feff00" height="35" width="35" x="288" y="180" /><rect fill="#fdfe00" height="35" width="35" x="324" y="180" /><rect fill="#000002" height="35" width="35" x="360" y="180" /><rect fill="#000002" height="35" width="35" x="396" y="180" /><rect fill="#000000" height="35" width="35" x="432" y="180" /><rect fill="#000000" height="35" width="35" x="468" y="180" /><rect fill="#b4b700" height="35" width="35" x="504" y="180" /><rect fill="#8d9100" height="35" width="35" x="540" y="180" /><rect fill="#919300" height="35" width="35" x="0" y="216" /><rect fill="#b5b600" height="35" width="35" x="36" y="216" /><rect fill="#020001" height="35" width="35" x="72" y="216" /><rect fill="#ffffff" height="35" width="35" x="108" y="216" /><rect fill="#fefefe" height="35" width="35" x="144" y="216" /><rect fill="#ffffff" height="35" width="35" x="180" y="216" /><rect fill="#feff00" height="35" width="35" x="216" y="216" /><rect fill="#feff00" height="35" width="35" x="252" y="216" /><rect fill="#feff00" height="35" width="35" x="288" y="216" /><rect fill="#fdfe00" height="35" width="35" x="324" y="216" /><rect fill="#feff00" height="35" width="35" x="360" y="216" /><rect fill="#feff00" height="35" width="35" x="396" y="216" /><rect fill="#fcab00" height="35" width="35" x="432" y="216" /><rect fill="#000000" height="35" width="35" x="468" y="216" /><rect fill="#b4b700" height="35" width="35" x="504" y="216" /><rect fill="#919301" height="35" width="35" x="540" y="216" /><rect fill="#676700" height="35" width="35" x="0" y="252" /><rect fill="#919300" height="35" width="35" x="36" y="252" /><rect fill="#b7b600" height="35" width="35" x="72" y="252" /><rect fill="#020002" height="35" width="35" x="108" y="252" /><rect fill="#fffffc" height="35" width="35" x="144" y="252" /><rect fill="#feff00" height="35" width="35" x="180" y="252" /><rect fill="#000101" height="35" width="35" x="216" y="252" /><rect fill="#fcfe00" height="35" width="35" x="252" y="252" /><rect fill="#fdfe00" height="35" width="35" x="288" y="252" /><rect fill="#050000" height="35" width="35" x="324" y="252" /><rect fill="#feff00" height="35" width="35" x="360" y="252" /><rect fill="#fea900" height="35" width="35" x="396" y="252" /><rect fill="#020000" height="35" width="35" x="432" y="252" /><rect fill="#b5b600" height="35" width="35" x="468" y="252" /><rect fill="#919300" height="35" width="35" x="504" y="252" /><rect fill="#676700" height="35" width="35" x="540" y="252" /><rect fill="#414300" height="35" width="35" x="0" y="288" /><rect fill="#676700" height="35" width="35" x="36" y="288" /><rect fill="#939301" height="35" width="35" x="72" y="288" /><rect fill="#b5b600" height="35" width="35" x="108" y="288" /><rect fill="#000000" height="35" width="35" x="144" y="288" /><rect fill="#fffeff" height="35" width="35" x="180" y="288" /><rect fill="#feff00" height="35" width="35" x="216" y="288" /><rect fill="#000000" height="35" width="35" x="252" y="288" /><rect fill="#000000" height="35" width="35" x="288" y="288" /><rect fill="#feff00" height="35" width="35" x="324" y="288" /><rect fill="#ffaa00" height="35" width="35" x="360" y="288" /><rect fill="#000000" height="35" width="35" x="396" y="288" /><rect fill="#b5b600" height="35" width="35" x="432" y="288" /><rect fill="#919300" height="35" width="35" x="468" y="288" /><rect fill="#676700" height="35" width="35" x="504" y="288" /><rect fill="#454200" height="35" width="35" x="540" y="288" /><rect fill="#404300" height="35" width="35" x="0" y="324" /><rect fill="#656600" height="35" width="35" x="36" y="324" /><rect fill="#939301" height="35" width="35" x="72" y="324" /><rect fill="#b5b600" height="35" width="35" x="108" y="324" /><rect fill="#000000" height="35" width="35" x="144" y="324" /><rect fill="#fefdff" height="35" width="35" x="180" y="324" /><rect fill="#fffd00" height="35" width="35" x="216" y="324" /><rect fill="#f9fa00" height="35" width="35" x="252" y="324" /><rect fill="#feff00" height="35" width="35" x="288" y="324" /><rect fill="#feff00" height="35" width="35" x="324" y="324" /><rect fill="#ffaa00" height="35" width="35" x="360" y="324" /><rect fill="#020000" height="35" width="35" x="396" y="324" /><rect fill="#b7b800" height="35" width="35" x="432" y="324" /><rect fill="#919400" height="35" width="35" x="468" y="324" /><rect fill="#686602" height="35" width="35" x="504" y="324" /><rect fill="#424200" height="35" width="35" x="540" y="324" /><rect fill="#404300" height="35" width="35" x="0" y="360" /><rect fill="#676700" height="35" width="35" x="36" y="360" /><rect fill="#919301" height="35" width="35" x="72" y="360" /><rect fill="#b4b601" height="35" width="35" x="108" y="360" /><rect fill="#000000" height="35" width="35" x="144" y="360" /><rect fill="#ffffff" height="35" width="35" x="180" y="360" /><rect fill="#ffff01" height="35" width="35" x="216" y="360" /><rect fill="#feff00" height="35" width="35" x="252" y="360" /><rect fill="#feff00" height="35" width="35" x="288" y="360" /><rect fill="#ffff00" height="35" width="35" x="324" y="360" /><rect fill="#ffaa00" height="35" width="35" x="360" y="360" /><rect fill="#000000" height="35" width="35" x="396" y="360" /><rect fill="#b4b500" height="35" width="35" x="432" y="360" /><rect fill="#919300" height="35" width="35" x="468" y="360" /><rect fill="#676700" height="35" width="35" x="504" y="360" /><rect fill="#444200" height="35" width="35" x="540" y="360" /><rect fill="#404300" height="35" width="35" x="0" y="396" /><rect fill="#676700" height="35" width="35" x="36" y="396" /><rect fill="#919301" height="35" width="35" x="72" y="396" /><rect fill="#b6b401" height="35" width="35" x="108" y="396" /><rect fill="#000002" height="35" width="35" x="144" y="396" /><rect fill="#ffffff" height="35" width="35" x="180" y="396" /><rect fill="#ffaa00" height="35" width="35" x="216" y="396" /><rect fill="#ffaa00" height="35" width="35" x="252" y="396" /><rect fill="#ffaa00" height="35" width="35" x="288" y="396" /><rect fill="#fea901" height="35" width="35" x="324" y="396" /><rect fill="#ffaa00" height="35" width="35" x="360" y="396" /><rect fill="#020001" height="35" width="35" x="396" y="396" /><rect fill="#b5b600" height="35" width="35" x="432" y="396" /><rect fill="#8e9401" height="35" width="35" x="468" y="396" /><rect fill="#676700" height="35" width="35" x="504" y="396" /><rect fill="#434200" height="35" width="35" x="540" y="396" /><rect fill="#676700" height="35" width="35" x="0" y="432" /><rect fill="#929300" height="35" width="35" x="36" y="432" /><rect fill="#b6b703" height="35" width="35" x="72" y="432" /><rect fill="#000000" height="35" width="35" x="108" y="432" /><rect fill="#ffffff" height="35" width="35" x="144" y="432" /><rect fill="#fffe00" height="35" width="35" x="180" y="432" /><rect fill="#000000" height="35" width="35" x="216" y="432" /><rect fill="#000000" height="35" width="35" x="252" y="432" /><rect fill="#000000" height="35" width="35" x="288" y="432" /><rect fill="#000000" height="35" width="35" x="324" y="432" /><rect fill="#ffaa00" height="35" width="35" x="360" y="432" /><rect fill="#fdab00" height="35" width="35" x="396" y="432" /><rect fill="#000000" height="35" width="35" x="432" y="432" /><rect fill="#b5b602" height="35" width="35" x="468" y="432" /><rect fill="#909300" height="35" width="35" x="504" y="432" /><rect fill="#676700" height="35" width="35" x="540" y="432" /><rect fill="#676700" height="35" width="35" x="0" y="468" /><rect fill="#919301" height="35" width="35" x="36" y="468" /><rect fill="#b5b604" height="35" width="35" x="72" y="468" /><rect fill="#000000" height="35" width="35" x="108" y="468" /><rect fill="#feff00" height="35" width="35" x="144" y="468" /><rect fill="#000101" height="35" width="35" x="180" y="468" /><rect fill="#c9ff58" height="35" width="35" x="216" y="468" /><rect fill="#cbff4e" height="35" width="35" x="252" y="468" /><rect fill="#cbff5a" height="35" width="35" x="288" y="468" /><rect fill="#c6ff55" height="35" width="35" x="324" y="468" /><rect fill="#050002" height="35" width="35" x="360" y="468" /><rect fill="#fba800" height="35" width="35" x="396" y="468" /><rect fill="#000000" height="35" width="35" x="432" y="468" /><rect fill="#b5b602" height="35" width="35" x="468" y="468" /><rect fill="#919301" height="35" width="35" x="504" y="468" /><rect fill="#686800" height="35" width="35" x="540" y="468" /><rect fill="#3f4400" height="35" width="35" x="0" y="504" /><rect fill="#686900" height="35" width="35" x="36" y="504" /><rect fill="#919300" height="35" width="35" x="72" y="504" /><rect fill="#b7b800" height="35" width="35" x="108" y="504" /><rect fill="#000000" height="35" width="35" x="144" y="504" /><rect fill="#cbff57" height="35" width="35" x="180" y="504" /><rect fill="#c9ff58" height="35" width="35" x="216" y="504" /><rect fill="#c9ff57" height="35" width="35" x="252" y="504" /><rect fill="#c9ff56" height="35" width="35" x="288" y="504" /><rect fill="#c9ff5a" height="35" width="35" x="324" y="504" /><rect fill="#c9ff58" height="35" width="35" x="360" y="504" /><rect fill="#000001" height="35" width="35" x="396" y="504" /><rect fill="#b3b500" height="35" width="35" x="432" y="504" /><rect fill="#919300" height="35" width="35" x="468" y="504" /><rect fill="#656700" height="35" width="35" x="504" y="504" /><rect fill="#434300" height="35" width="35" x="540" y="504" /><rect fill="#171800" height="35" width="35" x="0" y="540" /><rect fill="#414300" height="35" width="35" x="36" y="540" /><rect fill="#646601" height="35" width="35" x="72" y="540" /><rect fill="#919301" height="35" width="35" x="108" y="540" /><rect fill="#c9ff5b" height="35" width="35" x="144" y="540" /><rect fill="#c7ff58" height="35" width="35" x="180" y="540" /><rect fill="#abfe00" height="35" width="35" x="216" y="540" /><rect fill="#acff00" height="35" width="35" x="252" y="540" /><rect fill="#acff00" height="35" width="35" x="288" y="540" /><rect fill="#acff00" height="35" width="35" x="324" y="540" /><rect fill="#c9ff58" height="35" width="35" x="360" y="540" /><rect fill="#c9ff58" height="35" width="35" x="396" y="540" /><rect fill="#949400" height="35" width="35" x="432" y="540" /><rect fill="#656600" height="35" width="35" x="468" y="540" /><rect fill="#414300" height="35" width="35" x="504" y="540" /><rect fill="#181800" height="35" width="35" x="540" y="540" /></svg>