<?xml version="1.0" encoding="utf-8" ?>
<svg baseProfile="tiny" height="575" version="1.2" width="575" xmlns="http://www.w3.org/2000/svg" xmlns:ev="http://www.w3.org/2001/xml-events" xmlns:xlink="http://www.w3.org/1999/xlink"><defs /><rect fill="#000000" height="35" width="35" x="0" y="0" /><rect fill="#000000" height="35" width="35" x="36" y="0" /><rect fill="#000000" height="35" width="35" x="72" y="0" /><rect fill="#000000" height="35" width="35" x="108" y="0" /><rect fill="#181800" height="35" width="35" x="144" y="0" /><rect fill="#414300" height="35" width="35" x="180" y="0" /><rect fill="#656800" height="35" width="35" x="216" y="0" /><rect fill="#929200" height="35" width="35" x="252" y="0" /><rect fill="#939301" height="35" width="35" x="288" y="0" /><rect fill="#686800" height="35" width="35" x="324" y="0" /><rect fill="#434203" height="35" width="35" x="360" y="0" /><rect fill="#181800" height="35" width="35" x="396" y="0" /><rect fill="#000000" height="35" width="35" x="432" y="0" /><rect fill="#000000" height="35" width="35" x="468" y="0" /><rect fill="#000000" height="35" width="35" x="504" y="0" /><rect fill="#000000" height="35" width="35" x="540" y="0" /><rect fill="#000000" height="35" width="35" x="0" y="36" /><rect fill="#000000" height="35" width="35" x="36" y="36" /><rect fill="#000000" height="35" width="35" x="72" y="36" /><rect fill="#181800" height="35" width="35" x="108" y="36" /><rect fill="#414300" height="35" width="35" x="144" y="36" /><rect fill="#656600" height="35" width="35" x="180" y="36" /><rect fill="#919300" height="35" width="35" x="216" y="36" /><rect fill="#b5b600" height="35" width="35" x="252" y="36" /><rect fill="#b5b602" height="35" width="35" x="288" y="36" /><rect fill="#919301" height="35" width="35" x="324" y="36" /><rect fill="#676700" height="35" width="35" x="360" y="36" /><rect fill="#414300" height="35" width="35" x="396" y="36" /><rect fill="#161800" height="35" width="35" x="432" y="36" /><rect fill="#000000" height="35" width="35" x="468" y="36" /><rect fill="#000000" height="35" width="35" x="504" y="36" /><rect fill="#000000" height="35" width="35" x="540" y="36" /><rect fill="#000000" height="35" width="35" x="0" y="72" /><rect fill="#000000" height="35" width="35" x="36" y="72" /><rect fill="#181800" height="35" width="35" x="72" y="72" /><rect fill="#414300" height="35" width="35" x="108" y="72" /><rect fill="#666700" height="35" width="35" x="144" y="72" /><rect fill="#919300" height="35" width="35" x="180" y="72" /><rect fill="#bab802" height="35" width="35" x="216" y="72" /><rect fill="#ffffff" height="35" width="35" x="252" y="72" /><rect fill="#feff02" height="35" width="35" x="288" y="72" /><rect fill="#b5b702" height="35" width="35" x="324" y="72" /><rect fill="#929402" height="35" width="35" x="360" y="72" /><rect fill="#656800" height="35" width="35" x="396" y="72" /><rect fill="#414300" height="35" width="35" x="432" y="72" /><rect fill="#181800" height="35" width="35" x="468" y="72" /><rect fill="#000000" height="35" width="35" x="504" y="72" /><rect fill="#000000" height="35" width="35" x="540" y="72" /><rect fill="#000000" height="35" width="35" x="0" y="108" /><rect fill="#000000" height="35" width="35" x="36" y="108" /><rect fill="#181800" height="35" width="35" x="72" y="108" /><rect fill="#414301" height="35" width="35" x="108" y="108" /><rect fill="#666700" height="35" width="35" x="144" y="108" /><rect fill="#929300" height="35" width="35" x="180" y="108" /><rect fill="#b4b601" height="35" width="35" x="216" y="108" /><rect fill="#fdfe00" height="35" width="35" x="252" y="108" /><rect fill="#fefcfe" height="35" width="35" x="288" y="108" /><rect fill="#b3b700" height="35" width="35" x="324" y="108" /><rect fill="#919300" height="35" width="35" x="360" y="108" /><rect fill="#656800" height="35" width="35" x="396" y="108" /><rect fill="#424400" height="35" width="35" x="432" y="108" /><rect fill="#181800" height="35" width="35" x="468" y="108" /><rect fill="#000000" height="35" width="35" x="504" y="108" /><rect fill="#000000" height="35" width="35" x="540" y="108" /><rect fill="#000000" height="35" width="35" x="0" y="144" /><rect fill="#000000" height="35" width="35" x="36" y="144" /><rect fill="#000000" height="35" width="35" x="72" y="144" /><rect fill="#181800" height="35" width="35" x="108" y="144" /><rect fill="#414300" height="35" width="35" x="144" y="144" /><rect fill="#656600" height="35" width="35" x="180" y="144" /><rect fill="#929402" height="35" width="35" x="216" y="144" /><rect fill="#dee002" height="35" width="35" x="252" y="144" /><rect fill="#dce000" height="35" width="35" x="288" y="144" /><rect fill="#919400" height="35" width="35" x="324" y="144" /><rect fill="#676700" height="35" width="35" x="360" y="144" /><rect fill="#3c4000" height="35" width="35" x="396" y="144" /><rect fill="#171602" height="35" width="35" x="432" y="144" /><rect fill="#000000" height="35" width="35" x="468" y="144" /><rect fill="#000000" height="35" width="35" x="504" y="144" /><rect fill="#000000" height="35" width="35" x="540" y="144" /><rect fill="#000000" height="35" width="35" x="0" y="180" /><rect fill="#000000" height="35" width="35" x="36" y="180" /><rect fill="#000000" height="35" width="35" x="72" y="180" /><rect fill="#000000" height="35" width="35" x="108" y="180" /><rect fill="#181800" height="35" width="35" x="144" y="180" /><rect fill="#414300" height="35" width="35" x="180" y="180" /><rect fill="#676700" height="35" width="35" x="216" y="180" /><rect fill="#c9ff58" height="35" width="35" x="252" y="180" /><rect fill="#c9ff58" height="35" width="35" x="288" y="180" /><rect fill="#676700" height="35" width="35" x="324" y="180" /><rect fill="#414300" height="35" width="35" x="360" y="180" /><rect fill="#181800" height="35" width="35" x="396" y="180" /><rect fill="#000000" height="35" width="35" x="432" y="180" /><rect fill="#000000" height="35" width="35" x="468" y="180" /><rect fill="#000000" height="35" width="35" x="504" y="180" /><rect fill="#000000" height="35" width="35" x="540" y="180" /><rect fill="#000000" height="35" width="35" x="0" y="216" /><rect fill="#000000" height="35" width="35" x="36" y="216" /><rect fill="#000000" height="35" width="35" x="72" y="216" /><rect fill="#000000" height="35" width="35" x="108" y="216" /><rect fill="#000000" height="35" width="35" x="144" y="216" /><rect fill="#111800" height="35" width="35" x="180" y="216" /><rect fill="#cbff5c" height="35" width="35" x="216" y="216" /><rect fill="#c9ff58" height="35" width="35" x="252" y="216" /><rect fill="#c9ff58" height="35" width="35" x="288" y="216" /><rect fill="#cdff61" height="35" width="35" x="324" y="216" /><rect fill="#171700" height="35" width="35" x="360" y="216" /><rect fill="#010000" height="35" width="35" x="396" y="216" /><rect fill="#000000" height="35" width="35" x="432" y="216" /><rect fill="#000000" height="35" width="35" x="468" y="216" /><rect fill="#000000" height="35" width="35" x="504" y="216" /><rect fill="#000000" height="35" width="35" x="540" y="216" /><rect fill="#000000" height="35" width="35" x="0" y="252" /><rect fill="#000000" height="35" width="35" x="36" y="252" /><rect fill="#000000" height="35" width="35" x="72" y="252" /><rect fill="#000000" height="35" width="35" x="108" y="252" /><rect fill="#000000" height="35" width="35" x="144" y="252" /><rect fill="#00dd04" height="35" width="35" x="180" y="252" /><rect fill="#ccff5a" height="35" width="35" x="216" y="252" /><rect fill="#c9ff58" height="35" width="35" x="252" y="252" /><rect fill="#c9ff58" height="35" width="35" x="288" y="252" /><rect fill="#ceff55" height="35" width="35" x="324" y="252" /><rect fill="#01db03" height="35" width="35" x="360" y="252" /><rect fill="#000000" height="35" width="35" x="396" y="252" /><rect fill="#000000" height="35" width="35" x="432" y="252" /><rect fill="#000000" height="35" width="35" x="468" y="252" /><rect fill="#000000" height="35" width="35" x="504" y="252" /><rect fill="#000000" height="35" width="35" x="540" y="252" /><rect fill="#000000" height="35" width="35" x="0" y="288" /><rect fill="#000000" height="35" width="35" x="36" y="288" /><rect fill="#000000" height="35" width="35" x="72" y="288" /><rect fill="#000000" height="35" width="35" x="108" y="288" /><rect fill="#000000" height="35" width="35" x="144" y="288" /><rect fill="#000000" height="35" width="35" x="180" y="288" /><rect fill="#00dc01" height="35" width="35" x="216" y="288" /><rect fill="#cbff58" height="35" width="35" x="252" y="288" /><rect fill="#c9ff58" height="35" width="35" x="288" y="288" /><rect fill="#00dc01" height="35" width="35" x="324" y="288" /><rect fill="#000000" height="35" width="35" x="360" y="288" /><rect fill="#000000" height="35" width="35" x="396" y="288" /><rect fill="#000000" height="35" width="35" x="432" y="288" /><rect fill="#000000" height="35" width="35" x="468" y="288" /><rect fill="#000000" height="35" width="35" x="504" y="288" /><rect fill="#000000" height="35" width="35" x="540" y="288" /><rect fill="#000000" height="35" width="35" x="0" y="324" /><rect fill="#000000" height="35" width="35" x="36" y="324" /><rect fill="#000000" height="35" width="35" x="72" y="324" /><rect fill="#000000" height="35" width="35" x="108" y="324" /><rect fill="#000000" height="35" width="35" x="144" y="324" /><rect fill="#039e02" height="35" width="35" x="180" y="324" /><rect fill="#00dd04" height="35" width="35" x="216" y="324" /><rect fill="#00d900" height="35" width="35" x="252" y="324" /><rect fill="#00dc03" height="35" width="35" x="288" y="324" /><rect fill="#00dc00" height="35" width="35" x="324" y="324" /><rect fill="#039e02" height="35" width="35" x="360" y="324" /><rect fill="#000000" height="35" width="35" x="396" y="324" /><rect fill="#000000" height="35" width="35" x="432" y="324" /><rect fill="#000000" height="35" width="35" x="468" y="324" /><rect fill="#000000" height="35" width="35" x="504" y="324" /><rect fill="#000000" height="35" width="35" x="540" y="324" /><rect fill="#000000" height="35" width="35" x="0" y="360" /><rect fill="#000000" height="35" width="35" x="36" y="360" /><rect fill="#000000" height="35" width="35" x="72" y="360" /><rect fill="#000000" height="35" width="35" x="108" y="360" /><rect fill="#039e03" height="35" width="35" x="144" y="360" /><rect fill="#039e04" height="35" width="35" x="180" y="360" /><rect fill="#039e04" height="35" width="35" x="216" y="360" /><rect fill="#04dd05" height="35" width="35" x="252" y="360" /><rect fill="#01db02" height="35" width="35" x="288" y="360" /><rect fill="#059f04" height="35" width="35" x="324" y="360" /><rect fill="#049e04" height="35" width="35" x="360" y="360" /><rect fill="#059f05" height="35" width="35" x="396" y="360" /><rect fill="#010000" height="35" width="35" x="432" y="360" /><rect fill="#000000" height="35" width="35" x="468" y="360" /><rect fill="#000000" height="35" width="35" x="504" y="360" /><rect fill="#000000" height="35" width="35" x="540" y="360" /><rect fill="#000000" height="35" width="35" x="0" y="396" /><rect fill="#000000" height="35" width="35" x="36" y="396" /><rect fill="#000000" height="35" width="35" x="72" y="396" /><rect fill="#04dc02" height="35" width="35" x="108" y="396" /><rect fill="#007f00" height="35" width="35" x="144" y="396" /><rect fill="#038206" height="35" width="35" x="180" y="396" /><rect fill="#019f04" height="35" width="35" x="216" y="396" /><rect fill="#009e03" height="35" width="35" x="252" y="396" /><rect fill="#039e04" height="35" width="35" x="288" y="396" /><rect fill="#069f08" height="35" width="35" x="324" y="396" /><rect fill="#048104" height="35" width="35" x="360" y="396" /><rect fill="#028102" height="35" width="35" x="396" y="396" /><rect fill="#04dd07" height="35" width="35" x="432" y="396" /><rect fill="#000000" height="35" width="35" x="468" y="396" /><rect fill="#000000" height="35" width="35" x="504" y="396" /><rect fill="#000000" height="35" width="35" x="540" y="396" /><rect fill="#000000" height="35" width="35" x="0" y="432" /><rect fill="#000000" height="35" width="35" x="36" y="432" /><rect fill="#000000" height="35" width="35" x="72" y="432" /><rect fill="#000000" height="35" width="35" x="108" y="432" /><rect fill="#000000" height="35" width="35" x="144" y="432" /><rect fill="#007000" height="35" width="35" x="180" y="432" /><rect fill="#028102" height="35" width="35" x="216" y="432" /><rect fill="#029e04" height="35" width="35" x="252" y="432" /><rect fill="#059e06" height="35" width="35" x="288" y="432" /><rect fill="#008001" height="35" width="35" x="324" y="432" /><rect fill="#007000" height="35" width="35" x="360" y="432" /><rect fill="#000000" height="35" width="35" x="396" y="432" /><rect fill="#000000" height="35" width="35" x="432" y="432" /><rect fill="#000000" height="35" width="35" x="468" y="432" /><rect fill="#000000" height="35" width="35" x="504" y="432" /><rect fill="#000000" height="35" width="35" x="540" y="432" /><rect fill="#000000" height="35" width="35" x="0" y="468" /><rect fill="#000000" height="35" width="35" x="36" y="468" /><rect fill="#000000" height="35" width="35" x="72" y="468" /><rect fill="#000000" height="35" width="35" x="108" y="468" /><rect fill="#059e04" height="35" width="35" x="144" y="468" /><rect fill="#039e04" height="35" width="35" x="180" y="468" /><rect fill="#007000" height="35" width="35" x="216" y="468" /><rect fill="#017200" height="35" width="35" x="252" y="468" /><rect fill="#059d08" height="35" width="35" x="288" y="468" /><rect fill="#069e0a" height="35" width="35" x="324" y="468" /><rect fill="#059e04" height="35" width="35" x="360" y="468" /><rect fill="#059d06" height="35" width="35" x="396" y="468" /><rect fill="#000002" height="35" width="35" x="432" y="468" /><rect fill="#000000" height="35" width="35" x="468" y="468" /><rect fill="#000000" height="35" width="35" x="504" y="468" /><rect fill="#000000" height="35" width="35" x="540" y="468" /><rect fill="#000000" height="35" width="35" x="0" y="504" /><rect fill="#000000" height="35" width="35" x="36" y="504" /><rect fill="#000000" height="35" width="35" x="72" y="504" /><rect fill="#008204" height="35" width="35" x="108" y="504" /><rect fill="#028104" height="35" width="35" x="144" y="504" /><rect fill="#049f05" height="35" width="35" x="180" y="504" /><rect fill="#029d03" height="35" width="35" x="216" y="504" /><rect fill="#029d03" height="35" width="35" x="252" y="504" /><rect fill="#029d03" height="35" width="35" x="288" y="504" /><rect fill="#059e04" height="35" width="35" x="324" y="504" /><rect fill="#049d03" height="35" width="35" x="360" y="504" /><rect fill="#018001" height="35" width="35" x="396" y="504" /><rect fill="#018301" height="35" width="35" x="432" y="504" /><rect fill="#010100" height="35" width="35" x="468" y="504" /><rect fill="#000000" height="35" width="35" x="504" y="504" /><rect fill="#000000" height="35" width="35" x="540" y="504" /><rect fill="#000000" height="35" width="35" x="0" y="540" /><rect fill="#000000" height="35" width="35" x="36" y="540" /><rect fill="#017002" height="35" width="35" x="72" y="540" /><rect fill="#007000" height="35" width="35" x="108" y="540" /><rect fill="#007000" height="35" width="35" x="144" y="540" /><rect fill="#028102" height="35" width="35" x="180" y="540" /><rect fill="#028102" height="35" width="35" x="216" y="540" /><rect fill="#028102" height="35" width="35" x="252" y="540" /><rect fill="#028102" height="35" width="35" x="288" y="540" /><rect fill="#028102" height="35" width="35" x="324" y="540" /><rect fill="#028102" height="35" width="35" x="360" y="540" /><rect fill="#007000" height="35" width="35" x="396" y="540" /><rect fill="#007000" height="35" width="35" x="432" y="540" /><rect fill="#007000" height="35" width="35" x="468" y="540" /><rect fill="#000000" height="35" width="35" x="504" y="540" /><rect fill="#000000" height="35" width="35" x="540" y="540" /></svg>