<?xml version="1.0" encoding="utf-8" ?>
<svg baseProfile="tiny" height="575" version="1.2" width="575" xmlns="http://www.w3.org/2000/svg" xmlns:ev="http://www.w3.org/2001/xml-events" xmlns:xlink="http://www.w3.org/1999/xlink"><defs /><rect fill="#000000" height="35" width="35" x="0" y="0" /><rect fill="#010000" height="35" width="35" x="36" y="0" /><rect fill="#000000" height="35" width="35" x="72" y="0" /><rect fill="#181800" height="35" width="35" x="108" y="0" /><rect fill="#404400" height="35" width="35" x="144" y="0" /><rect fill="#686802" height="35" width="35" x="180" y="0" /><rect fill="#919301" height="35" width="35" x="216" y="0" /><rect fill="#fffffe" height="35" width="35" x="252" y="0" /><rect fill="#ffff00" height="35" width="35" x="288" y="0" /><rect fill="#949601" height="35" width="35" x="324" y="0" /><rect fill="#676700" height="35" width="35" x="360" y="0" /><rect fill="#424100" height="35" width="35" x="396" y="0" /><rect fill="#161801" height="35" width="35" x="432" y="0" /><rect fill="#000000" height="35" width="35" x="468" y="0" /><rect fill="#000000" height="35" width="35" x="504" y="0" /><rect fill="#000000" height="35" width="35" x="540" y="0" /><rect fill="#000000" height="35" width="35" x="0" y="36" /><rect fill="#010000" height="35" width="35" x="36" y="36" /><rect fill="#000000" height="35" width="35" x="72" y="36" /><rect fill="#181800" height="35" width="35" x="108" y="36" /><rect fill="#414300" height="35" width="35" x="144" y="36" /><rect fill="#676700" height="35" width="35" x="180" y="36" /><rect fill="#919300" height="35" width="35" x="216" y="36" /><rect fill="#feff00" height="35" width="35" x="252" y="36" /><rect fill="#ffffff" height="35" width="35" x="288" y="36" /><rect fill="#919300" height="35" width="35" x="324" y="36" /><rect fill="#676700" height="35" width="35" x="360" y="36" /><rect fill="#414300" height="35" width="35" x="396" y="36" /><rect fill="#161801" height="35" width="35" x="432" y="36" /><rect fill="#000000" height="35" width="35" x="468" y="36" /><rect fill="#000000" height="35" width="35" x="504" y="36" /><rect fill="#000000" height="35" width="35" x="540" y="36" /><rect fill="#000000" height="35" width="35" x="0" y="72" /><rect fill="#000000" height="35" width="35" x="36" y="72" /><rect fill="#000000" height="35" width="35" x="72" y="72" /><rect fill="#000000" height="35" width="35" x="108" y="72" /><rect fill="#181800" height="35" width="35" x="144" y="72" /><rect fill="#414300" height="35" width="35" x="180" y="72" /><rect fill="#656800" height="35" width="35" x="216" y="72" /><rect fill="#c8fe56" height="35" width="35" x="252" y="72" /><rect fill="#c9ff58" height="35" width="35" x="288" y="72" /><rect fill="#676600" height="35" width="35" x="324" y="72" /><rect fill="#424300" height="35" width="35" x="360" y="72" /><rect fill="#161900" height="35" width="35" x="396" y="72" /><rect fill="#000002" height="35" width="35" x="432" y="72" /><rect fill="#000000" height="35" width="35" x="468" y="72" /><rect fill="#000000" height="35" width="35" x="504" y="72" /><rect fill="#000000" height="35" width="35" x="540" y="72" /><rect fill="#000000" height="35" width="35" x="0" y="108" /><rect fill="#000000" height="35" width="35" x="36" y="108" /><rect fill="#000000" height="35" width="35" x="72" y="108" /><rect fill="#000000" height="35" width="35" x="108" y="108" /><rect fill="#020000" height="35" width="35" x="144" y="108" /><rect fill="#191801" height="35" width="35" x="180" y="108" /><rect fill="#aafe00" height="35" width="35" x="216" y="108" /><rect fill="#c9ff58" height="35" width="35" x="252" y="108" /><rect fill="#c9ff58" height="35" width="35" x="288" y="108" /><rect fill="#a9ff00" height="35" width="35" x="324" y="108" /><rect fill="#181801" height="35" width="35" x="360" y="108" /><rect fill="#020202" height="35" width="35" x="396" y="108" /><rect fill="#000000" height="35" width="35" x="432" y="108" /><rect fill="#000000" height="35" width="35" x="468" y="108" /><rect fill="#000000" height="35" width="35" x="504" y="108" /><rect fill="#000000" height="35" width="35" x="540" y="108" /><rect fill="#000000" height="35" width="35" x="0" y="144" /><rect fill="#000000" height="35" width="35" x="36" y="144" /><rect fill="#000000" height="35" width="35" x="72" y="144" /><rect fill="#000000" height="35" width="35" x="108" y="144" /><rect fill="#000000" height="35" width="35" x="144" y="144" /><rect fill="#038303" height="35" width="35" x="180" y="144" /><rect fill="#009d03" height="35" width="35" x="216" y="144" /><rect fill="#adfd00" height="35" width="35" x="252" y="144" /><rect fill="#afff00" height="35" width="35" x="288" y="144" /><rect fill="#028105" height="35" width="35" x="324" y="144" /><rect fill="#028200" height="35" width="35" x="360" y="144" /><rect fill="#010101" height="35" width="35" x="396" y="144" /><rect fill="#000000" height="35" width="35" x="432" y="144" /><rect fill="#000000" height="35" width="35" x="468" y="144" /><rect fill="#000000" height="35" width="35" x="504" y="144" /><rect fill="#000000" height="35" width="35" x="540" y="144" /><rect fill="#000000" height="35" width="35" x="0" y="180" /><rect fill="#000000" height="35" width="35" x="36" y="180" /><rect fill="#000000" height="35" width="35" x="72" y="180" /><rect fill="#000000" height="35" width="35" x="108" y="180" /><rect fill="#000000" height="35" width="35" x="144" y="180" /><rect fill="#000000" height="35" width="35" x="180" y="180" /><rect fill="#039e04" height="35" width="35" x="216" y="180" /><rect fill="#039e04" height="35" width="35" x="252" y="180" /><rect fill="#038206" height="35" width="35" x="288" y="180" /><rect fill="#007002" height="35" width="35" x="324" y="180" /><rect fill="#000000" height="35" width="35" x="360" y="180" /><rect fill="#000000" height="35" width="35" x="396" y="180" /><rect fill="#000000" height="35" width="35" x="432" y="180" /><rect fill="#000000" height="35" width="35" x="468" y="180" /><rect fill="#000000" height="35" width="35" x="504" y="180" /><rect fill="#000000" height="35" width="35" x="540" y="180" /><rect fill="#000000" height="35" width="35" x="0" y="216" /><rect fill="#000000" height="35" width="35" x="36" y="216" /><rect fill="#000000" height="35" width="35" x="72" y="216" /><rect fill="#000000" height="35" width="35" x="108" y="216" /><rect fill="#000000" height="35" width="35" x="144" y="216" /><rect fill="#039e05" height="35" width="35" x="180" y="216" /><rect fill="#059e04" height="35" width="35" x="216" y="216" /><rect fill="#007000" height="35" width="35" x="252" y="216" /><rect fill="#007100" height="35" width="35" x="288" y="216" /><rect fill="#009f04" height="35" width="35" x="324" y="216" /><rect fill="#07b706" height="35" width="35" x="360" y="216" /><rect fill="#000000" height="35" width="35" x="396" y="216" /><rect fill="#000000" height="35" width="35" x="432" y="216" /><rect fill="#000000" height="35" width="35" x="468" y="216" /><rect fill="#000000" height="35" width="35" x="504" y="216" /><rect fill="#000000" height="35" width="35" x="540" y="216" /><rect fill="#000000" height="35" width="35" x="0" y="252" /><rect fill="#000000" height="35" width="35" x="36" y="252" /><rect fill="#000000" height="35" width="35" x="72" y="252" /><rect fill="#000000" height="35" width="35" x="108" y="252" /><rect fill="#069f03" height="35" width="35" x="144" y="252" /><rect fill="#069f05" height="35" width="35" x="180" y="252" /><rect fill="#039e04" height="35" width="35" x="216" y="252" /><rect fill="#039e04" height="35" width="35" x="252" y="252" /><rect fill="#039e04" height="35" width="35" x="288" y="252" /><rect fill="#029d03" height="35" width="35" x="324" y="252" /><rect fill="#039e04" height="35" width="35" x="360" y="252" /><rect fill="#03b908" height="35" width="35" x="396" y="252" /><rect fill="#040000" height="35" width="35" x="432" y="252" /><rect fill="#000000" height="35" width="35" x="468" y="252" /><rect fill="#000000" height="35" width="35" x="504" y="252" /><rect fill="#000000" height="35" width="35" x="540" y="252" /><rect fill="#000000" height="35" width="35" x="0" y="288" /><rect fill="#000000" height="35" width="35" x="36" y="288" /><rect fill="#000000" height="35" width="35" x="72" y="288" /><rect fill="#028103" height="35" width="35" x="108" y="288" /><rect fill="#028102" height="35" width="35" x="144" y="288" /><rect fill="#028104" height="35" width="35" x="180" y="288" /><rect fill="#039e04" height="35" width="35" x="216" y="288" /><rect fill="#039e04" height="35" width="35" x="252" y="288" /><rect fill="#039e04" height="35" width="35" x="288" y="288" /><rect fill="#039e04" height="35" width="35" x="324" y="288" /><rect fill="#028102" height="35" width="35" x="360" y="288" /><rect fill="#028102" height="35" width="35" x="396" y="288" /><rect fill="#008202" height="35" width="35" x="432" y="288" /><rect fill="#000000" height="35" width="35" x="468" y="288" /><rect fill="#000000" height="35" width="35" x="504" y="288" /><rect fill="#000000" height="35" width="35" x="540" y="288" /><rect fill="#000000" height="35" width="35" x="0" y="324" /><rect fill="#000000" height="35" width="35" x="36" y="324" /><rect fill="#000000" height="35" width="35" x="72" y="324" /><rect fill="#000000" height="35" width="35" x="108" y="324" /><rect fill="#010101" height="35" width="35" x="144" y="324" /><rect fill="#017000" height="35" width="35" x="180" y="324" /><rect fill="#038104" height="35" width="35" x="216" y="324" /><rect fill="#049f07" height="35" width="35" x="252" y="324" /><rect fill="#039e06" height="35" width="35" x="288" y="324" /><rect fill="#038303" height="35" width="35" x="324" y="324" /><rect fill="#007000" height="35" width="35" x="360" y="324" /><rect fill="#000002" height="35" width="35" x="396" y="324" /><rect fill="#000002" height="35" width="35" x="432" y="324" /><rect fill="#000000" height="35" width="35" x="468" y="324" /><rect fill="#000000" height="35" width="35" x="504" y="324" /><rect fill="#000000" height="35" width="35" x="540" y="324" /><rect fill="#000000" height="35" width="35" x="0" y="360" /><rect fill="#000000" height="35" width="35" x="36" y="360" /><rect fill="#000000" height="35" width="35" x="72" y="360" /><rect fill="#000000" height="35" width="35" x="108" y="360" /><rect fill="#039e04" height="35" width="35" x="144" y="360" /><rect fill="#049e04" height="35" width="35" x="180" y="360" /><rect fill="#007000" height="35" width="35" x="216" y="360" /><rect fill="#007000" height="35" width="35" x="252" y="360" /><rect fill="#039e03" height="35" width="35" x="288" y="360" /><rect fill="#029f04" height="35" width="35" x="324" y="360" /><rect fill="#039d03" height="35" width="35" x="360" y="360" /><rect fill="#04b804" height="35" width="35" x="396" y="360" /><rect fill="#010000" height="35" width="35" x="432" y="360" /><rect fill="#000000" height="35" width="35" x="468" y="360" /><rect fill="#000000" height="35" width="35" x="504" y="360" /><rect fill="#000000" height="35" width="35" x="540" y="360" /><rect fill="#000000" height="35" width="35" x="0" y="396" /><rect fill="#000000" height="35" width="35" x="36" y="396" /><rect fill="#000000" height="35" width="35" x="72" y="396" /><rect fill="#028103" height="35" width="35" x="108" y="396" /><rect fill="#008204" height="35" width="35" x="144" y="396" /><rect fill="#039e04" height="35" width="35" x="180" y="396" /><rect fill="#039e04" height="35" width="35" x="216" y="396" /><rect fill="#039e04" height="35" width="35" x="252" y="396" /><rect fill="#039e06" height="35" width="35" x="288" y="396" /><rect fill="#039e04" height="35" width="35" x="324" y="396" /><rect fill="#039e04" height="35" width="35" x="360" y="396" /><rect fill="#028102" height="35" width="35" x="396" y="396" /><rect fill="#008101" height="35" width="35" x="432" y="396" /><rect fill="#000002" height="35" width="35" x="468" y="396" /><rect fill="#000000" height="35" width="35" x="504" y="396" /><rect fill="#000000" height="35" width="35" x="540" y="396" /><rect fill="#000000" height="35" width="35" x="0" y="432" /><rect fill="#000000" height="35" width="35" x="36" y="432" /><rect fill="#007000" height="35" width="35" x="72" y="432" /><rect fill="#007000" height="35" width="35" x="108" y="432" /><rect fill="#007000" height="35" width="35" x="144" y="432" /><rect fill="#028102" height="35" width="35" x="180" y="432" /><rect fill="#028102" height="35" width="35" x="216" y="432" /><rect fill="#038103" height="35" width="35" x="252" y="432" /><rect fill="#028102" height="35" width="35" x="288" y="432" /><rect fill="#028102" height="35" width="35" x="324" y="432" /><rect fill="#028102" height="35" width="35" x="360" y="432" /><rect fill="#007000" height="35" width="35" x="396" y="432" /><rect fill="#007000" height="35" width="35" x="432" y="432" /><rect fill="#007100" height="35" width="35" x="468" y="432" /><rect fill="#000000" height="35" width="35" x="504" y="432" /><rect fill="#000000" height="35" width="35" x="540" y="432" /><rect fill="#000000" height="35" width="35" x="0" y="468" /><rect fill="#000000" height="35" width="35" x="36" y="468" /><rect fill="#000000" height="35" width="35" x="72" y="468" /><rect fill="#000000" height="35" width="35" x="108" y="468" /><rect fill="#000002" height="35" width="35" x="144" y="468" /><rect fill="#007100" height="35" width="35" x="180" y="468" /><rect fill="#007100" height="35" width="35" x="216" y="468" /><rect fill="#007000" height="35" width="35" x="252" y="468" /><rect fill="#007000" height="35" width="35" x="288" y="468" /><rect fill="#007000" height="35" width="35" x="324" y="468" /><rect fill="#007000" height="35" width="35" x="360" y="468" /><rect fill="#000000" height="35" width="35" x="396" y="468" /><rect fill="#000100" height="35" width="35" x="432" y="468" /><rect fill="#000000" height="35" width="35" x="468" y="468" /><rect fill="#000000" height="35" width="35" x="504" y="468" /><rect fill="#000000" height="35" width="35" x="540" y="468" /><rect fill="#000000" height="35" width="35" x="0" y="504" /><rect fill="#000000" height="35" width="35" x="36" y="504" /><rect fill="#000000" height="35" width="35" x="72" y="504" /><rect fill="#000000" height="35" width="35" x="108" y="504" /><rect fill="#000000" height="35" width="35" x="144" y="504" /><rect fill="#000000" height="35" width="35" x="180" y="504" /><rect fill="#000000" height="35" width="35" x="216" y="504" /><rect fill="#632200" height="35" width="35" x="252" y="504" /><rect fill="#933100" height="35" width="35" x="288" y="504" /><rect fill="#000000" height="35" width="35" x="324" y="504" /><rect fill="#000000" height="35" width="35" x="360" y="504" /><rect fill="#000000" height="35" width="35" x="396" y="504" /><rect fill="#000000" height="35" width="35" x="432" y="504" /><rect fill="#000000" height="35" width="35" x="468" y="504" /><rect fill="#000000" height="35" width="35" x="504" y="504" /><rect fill="#000000" height="35" width="35" x="540" y="504" /><rect fill="#000000" height="35" width="35" x="0" y="540" /><rect fill="#000000" height="35" width="35" x="36" y="540" /><rect fill="#000000" height="35" width="35" x="72" y="540" /><rect fill="#000000" height="35" width="35" x="108" y="540" /><rect fill="#000000" height="35" width="35" x="144" y="540" /><rect fill="#000000" height="35" width="35" x="180" y="540" /><rect fill="#000000" height="35" width="35" x="216" y="540" /><rect fill="#6e2700" height="35" width="35" x="252" y="540" /><rect fill="#a73800" height="35" width="35" x="288" y="540" /><rect fill="#000000" height="35" width="35" x="324" y="540" /><rect fill="#000000" height="35" width="35" x="360" y="540" /><rect fill="#000000" height="35" width="35" x="396" y="540" /><rect fill="#000000" height="35" width="35" x="432" y="540" /><rect fill="#000000" height="35" width="35" x="468" y="540" /><rect fill="#000000" height="35" width="35" x="504" y="540" /><rect fill="#000000" height="35" width="35" x="540" y="540" /></svg>