<?xml version="1.0" encoding="utf-8" ?>
<svg baseProfile="tiny" height="575" version="1.2" width="575" xmlns="http://www.w3.org/2000/svg" xmlns:ev="http://www.w3.org/2001/xml-events" xmlns:xlink="http://www.w3.org/1999/xlink"><defs /><rect fill="#000000" height="35" width="35" x="0" y="0" /><rect fill="#181801" height="35" width="35" x="36" y="0" /><rect fill="#404400" height="35" width="35" x="72" y="0" /><rect fill="#676700" height="35" width="35" x="108" y="0" /><rect fill="#919301" height="35" width="35" x="144" y="0" /><rect fill="#b4b404" height="35" width="35" x="180" y="0" /><rect fill="#dede00" height="35" width="35" x="216" y="0" /><rect fill="#ffffff" height="35" width="35" x="252" y="0" /><rect fill="#ffffff" height="35" width="35" x="288" y="0" /><rect fill="#e1e200" height="35" width="35" x="324" y="0" /><rect fill="#b5b600" height="35" width="35" x="360" y="0" /><rect fill="#929500" height="35" width="35" x="396" y="0" /><rect fill="#676700" height="35" width="35" x="432" y="0" /><rect fill="#434300" height="35" width="35" x="468" y="0" /><rect fill="#181800" height="35" width="35" x="504" y="0" /><rect fill="#000000" height="35" width="35" x="540" y="0" /><rect fill="#000000" height="35" width="35" x="0" y="36" /><rect fill="#181801" height="35" width="35" x="36" y="36" /><rect fill="#414300" height="35" width="35" x="72" y="36" /><rect fill="#676700" height="35" width="35" x="108" y="36" /><rect fill="#919301" height="35" width="35" x="144" y="36" /><rect fill="#b7b701" height="35" width="35" x="180" y="36" /><rect fill="#dbdd00" height="35" width="35" x="216" y="36" /><rect fill="#ffffff" height="35" width="35" x="252" y="36" /><rect fill="#ffffff" height="35" width="35" x="288" y="36" /><rect fill="#dcdf01" height="35" width="35" x="324" y="36" /><rect fill="#b5b600" height="35" width="35" x="360" y="36" /><rect fill="#909200" height="35" width="35" x="396" y="36" /><rect fill="#676700" height="35" width="35" x="432" y="36" /><rect fill="#414300" height="35" width="35" x="468" y="36" /><rect fill="#181800" height="35" width="35" x="504" y="36" /><rect fill="#000000" height="35" width="35" x="540" y="36" /><rect fill="#000000" height="35" width="35" x="0" y="72" /><rect fill="#000000" height="35" width="35" x="36" y="72" /><rect fill="#181800" height="35" width="35" x="72" y="72" /><rect fill="#414300" height="35" width="35" x="108" y="72" /><rect fill="#656800" height="35" width="35" x="144" y="72" /><rect fill="#919300" height="35" width="35" x="180" y="72" /><rect fill="#b5b602" height="35" width="35" x="216" y="72" /><rect fill="#c9ff54" height="35" width="35" x="252" y="72" /><rect fill="#cbff58" height="35" width="35" x="288" y="72" /><rect fill="#b9ba03" height="35" width="35" x="324" y="72" /><rect fill="#919400" height="35" width="35" x="360" y="72" /><rect fill="#676700" height="35" width="35" x="396" y="72" /><rect fill="#424300" height="35" width="35" x="432" y="72" /><rect fill="#191900" height="35" width="35" x="468" y="72" /><rect fill="#000000" height="35" width="35" x="504" y="72" /><rect fill="#000000" height="35" width="35" x="540" y="72" /><rect fill="#000000" height="35" width="35" x="0" y="108" /><rect fill="#000000" height="35" width="35" x="36" y="108" /><rect fill="#010000" height="35" width="35" x="72" y="108" /><rect fill="#191800" height="35" width="35" x="108" y="108" /><rect fill="#414300" height="35" width="35" x="144" y="108" /><rect fill="#656800" height="35" width="35" x="180" y="108" /><rect fill="#cbfd59" height="35" width="35" x="216" y="108" /><rect fill="#c9ff57" height="35" width="35" x="252" y="108" /><rect fill="#c9ff58" height="35" width="35" x="288" y="108" /><rect fill="#ccff59" height="35" width="35" x="324" y="108" /><rect fill="#676700" height="35" width="35" x="360" y="108" /><rect fill="#424300" height="35" width="35" x="396" y="108" /><rect fill="#161900" height="35" width="35" x="432" y="108" /><rect fill="#010102" height="35" width="35" x="468" y="108" /><rect fill="#000000" height="35" width="35" x="504" y="108" /><rect fill="#000000" height="35" width="35" x="540" y="108" /><rect fill="#000000" height="35" width="35" x="0" y="144" /><rect fill="#000000" height="35" width="35" x="36" y="144" /><rect fill="#000000" height="35" width="35" x="72" y="144" /><rect fill="#000000" height="35" width="35" x="108" y="144" /><rect fill="#181800" height="35" width="35" x="144" y="144" /><rect fill="#affc02" height="35" width="35" x="180" y="144" /><rect fill="#c7fe55" height="35" width="35" x="216" y="144" /><rect fill="#c9ff58" height="35" width="35" x="252" y="144" /><rect fill="#c9ff5a" height="35" width="35" x="288" y="144" /><rect fill="#c9ff58" height="35" width="35" x="324" y="144" /><rect fill="#acff00" height="35" width="35" x="360" y="144" /><rect fill="#181800" height="35" width="35" x="396" y="144" /><rect fill="#000000" height="35" width="35" x="432" y="144" /><rect fill="#000000" height="35" width="35" x="468" y="144" /><rect fill="#000000" height="35" width="35" x="504" y="144" /><rect fill="#000000" height="35" width="35" x="540" y="144" /><rect fill="#000000" height="35" width="35" x="0" y="180" /><rect fill="#000000" height="35" width="35" x="36" y="180" /><rect fill="#000000" height="35" width="35" x="72" y="180" /><rect fill="#000000" height="35" width="35" x="108" y="180" /><rect fill="#000000" height="35" width="35" x="144" y="180" /><rect fill="#040000" height="35" width="35" x="180" y="180" /><rect fill="#acff00" height="35" width="35" x="216" y="180" /><rect fill="#c9ff58" height="35" width="35" x="252" y="180" /><rect fill="#c9ff58" height="35" width="35" x="288" y="180" /><rect fill="#acff00" height="35" width="35" x="324" y="180" /><rect fill="#000000" height="35" width="35" x="360" y="180" /><rect fill="#000000" height="35" width="35" x="396" y="180" /><rect fill="#000000" height="35" width="35" x="432" y="180" /><rect fill="#000000" height="35" width="35" x="468" y="180" /><rect fill="#000000" height="35" width="35" x="504" y="180" /><rect fill="#000000" height="35" width="35" x="540" y="180" /><rect fill="#000000" height="35" width="35" x="0" y="216" /><rect fill="#000000" height="35" width="35" x="36" y="216" /><rect fill="#000000" height="35" width="35" x="72" y="216" /><rect fill="#000000" height="35" width="35" x="108" y="216" /><rect fill="#000000" height="35" width="35" x="144" y="216" /><rect fill="#00dc00" height="35" width="35" x="180" y="216" /><rect fill="#acff00" height="35" width="35" x="216" y="216" /><rect fill="#acff03" height="35" width="35" x="252" y="216" /><rect fill="#acff03" height="35" width="35" x="288" y="216" /><rect fill="#acff00" height="35" width="35" x="324" y="216" /><rect fill="#00da02" height="35" width="35" x="360" y="216" /><rect fill="#000000" height="35" width="35" x="396" y="216" /><rect fill="#000000" height="35" width="35" x="432" y="216" /><rect fill="#000000" height="35" width="35" x="468" y="216" /><rect fill="#000000" height="35" width="35" x="504" y="216" /><rect fill="#000000" height="35" width="35" x="540" y="216" /><rect fill="#000000" height="35" width="35" x="0" y="252" /><rect fill="#000000" height="35" width="35" x="36" y="252" /><rect fill="#000000" height="35" width="35" x="72" y="252" /><rect fill="#010101" height="35" width="35" x="108" y="252" /><rect fill="#04be00" height="35" width="35" x="144" y="252" /><rect fill="#00d900" height="35" width="35" x="180" y="252" /><rect fill="#02db01" height="35" width="35" x="216" y="252" /><rect fill="#acff03" height="35" width="35" x="252" y="252" /><rect fill="#acff03" height="35" width="35" x="288" y="252" /><rect fill="#00dc00" height="35" width="35" x="324" y="252" /><rect fill="#00dc03" height="35" width="35" x="360" y="252" /><rect fill="#01bd01" height="35" width="35" x="396" y="252" /><rect fill="#040002" height="35" width="35" x="432" y="252" /><rect fill="#000000" height="35" width="35" x="468" y="252" /><rect fill="#000000" height="35" width="35" x="504" y="252" /><rect fill="#000000" height="35" width="35" x="540" y="252" /><rect fill="#000000" height="35" width="35" x="0" y="288" /><rect fill="#000000" height="35" width="35" x="36" y="288" /><rect fill="#000000" height="35" width="35" x="72" y="288" /><rect fill="#007000" height="35" width="35" x="108" y="288" /><rect fill="#017000" height="35" width="35" x="144" y="288" /><rect fill="#02bc00" height="35" width="35" x="180" y="288" /><rect fill="#00dc03" height="35" width="35" x="216" y="288" /><rect fill="#00dc00" height="35" width="35" x="252" y="288" /><rect fill="#01db01" height="35" width="35" x="288" y="288" /><rect fill="#00dd00" height="35" width="35" x="324" y="288" /><rect fill="#01bd00" height="35" width="35" x="360" y="288" /><rect fill="#039e03" height="35" width="35" x="396" y="288" /><rect fill="#049d01" height="35" width="35" x="432" y="288" /><rect fill="#000000" height="35" width="35" x="468" y="288" /><rect fill="#000000" height="35" width="35" x="504" y="288" /><rect fill="#000000" height="35" width="35" x="540" y="288" /><rect fill="#000000" height="35" width="35" x="0" y="324" /><rect fill="#000000" height="35" width="35" x="36" y="324" /><rect fill="#000002" height="35" width="35" x="72" y="324" /><rect fill="#000000" height="35" width="35" x="108" y="324" /><rect fill="#010101" height="35" width="35" x="144" y="324" /><rect fill="#037000" height="35" width="35" x="180" y="324" /><rect fill="#01bb00" height="35" width="35" x="216" y="324" /><rect fill="#01bd00" height="35" width="35" x="252" y="324" /><rect fill="#00bd00" height="35" width="35" x="288" y="324" /><rect fill="#01bf00" height="35" width="35" x="324" y="324" /><rect fill="#007203" height="35" width="35" x="360" y="324" /><rect fill="#000002" height="35" width="35" x="396" y="324" /><rect fill="#000000" height="35" width="35" x="432" y="324" /><rect fill="#000000" height="35" width="35" x="468" y="324" /><rect fill="#000000" height="35" width="35" x="504" y="324" /><rect fill="#000000" height="35" width="35" x="540" y="324" /><rect fill="#000000" height="35" width="35" x="0" y="360" /><rect fill="#000000" height="35" width="35" x="36" y="360" /><rect fill="#000000" height="35" width="35" x="72" y="360" /><rect fill="#000000" height="35" width="35" x="108" y="360" /><rect fill="#039e04" height="35" width="35" x="144" y="360" /><rect fill="#029f04" height="35" width="35" x="180" y="360" /><rect fill="#017000" height="35" width="35" x="216" y="360" /><rect fill="#007000" height="35" width="35" x="252" y="360" /><rect fill="#029e03" height="35" width="35" x="288" y="360" /><rect fill="#059f05" height="35" width="35" x="324" y="360" /><rect fill="#039d03" height="35" width="35" x="360" y="360" /><rect fill="#039d03" height="35" width="35" x="396" y="360" /><rect fill="#010000" height="35" width="35" x="432" y="360" /><rect fill="#000000" height="35" width="35" x="468" y="360" /><rect fill="#000000" height="35" width="35" x="504" y="360" /><rect fill="#000000" height="35" width="35" x="540" y="360" /><rect fill="#000000" height="35" width="35" x="0" y="396" /><rect fill="#000000" height="35" width="35" x="36" y="396" /><rect fill="#000000" height="35" width="35" x="72" y="396" /><rect fill="#028103" height="35" width="35" x="108" y="396" /><rect fill="#008204" height="35" width="35" x="144" y="396" /><rect fill="#039e04" height="35" width="35" x="180" y="396" /><rect fill="#039e04" height="35" width="35" x="216" y="396" /><rect fill="#039e04" height="35" width="35" x="252" y="396" /><rect fill="#039e06" height="35" width="35" x="288" y="396" /><rect fill="#039e04" height="35" width="35" x="324" y="396" /><rect fill="#039e04" height="35" width="35" x="360" y="396" /><rect fill="#028102" height="35" width="35" x="396" y="396" /><rect fill="#008101" height="35" width="35" x="432" y="396" /><rect fill="#000006" height="35" width="35" x="468" y="396" /><rect fill="#000000" height="35" width="35" x="504" y="396" /><rect fill="#000000" height="35" width="35" x="540" y="396" /><rect fill="#000000" height="35" width="35" x="0" y="432" /><rect fill="#000000" height="35" width="35" x="36" y="432" /><rect fill="#039e04" height="35" width="35" x="72" y="432" /><rect fill="#007000" height="35" width="35" x="108" y="432" /><rect fill="#007000" height="35" width="35" x="144" y="432" /><rect fill="#028102" height="35" width="35" x="180" y="432" /><rect fill="#028102" height="35" width="35" x="216" y="432" /><rect fill="#038103" height="35" width="35" x="252" y="432" /><rect fill="#028102" height="35" width="35" x="288" y="432" /><rect fill="#028102" height="35" width="35" x="324" y="432" /><rect fill="#028102" height="35" width="35" x="360" y="432" /><rect fill="#007000" height="35" width="35" x="396" y="432" /><rect fill="#007000" height="35" width="35" x="432" y="432" /><rect fill="#039e04" height="35" width="35" x="468" y="432" /><rect fill="#000000" height="35" width="35" x="504" y="432" /><rect fill="#000000" height="35" width="35" x="540" y="432" /><rect fill="#000000" height="35" width="35" x="0" y="468" /><rect fill="#000000" height="35" width="35" x="36" y="468" /><rect fill="#000000" height="35" width="35" x="72" y="468" /><rect fill="#000000" height="35" width="35" x="108" y="468" /><rect fill="#000002" height="35" width="35" x="144" y="468" /><rect fill="#007100" height="35" width="35" x="180" y="468" /><rect fill="#007100" height="35" width="35" x="216" y="468" /><rect fill="#007000" height="35" width="35" x="252" y="468" /><rect fill="#007000" height="35" width="35" x="288" y="468" /><rect fill="#007000" height="35" width="35" x="324" y="468" /><rect fill="#007000" height="35" width="35" x="360" y="468" /><rect fill="#000000" height="35" width="35" x="396" y="468" /><rect fill="#020000" height="35" width="35" x="432" y="468" /><rect fill="#000100" height="35" width="35" x="468" y="468" /><rect fill="#000000" height="35" width="35" x="504" y="468" /><rect fill="#000000" height="35" width="35" x="540" y="468" /><rect fill="#000000" height="35" width="35" x="0" y="504" /><rect fill="#000000" height="35" width="35" x="36" y="504" /><rect fill="#000000" height="35" width="35" x="72" y="504" /><rect fill="#000000" height="35" width="35" x="108" y="504" /><rect fill="#000000" height="35" width="35" x="144" y="504" /><rect fill="#000000" height="35" width="35" x="180" y="504" /><rect fill="#000000" height="35" width="35" x="216" y="504" /><rect fill="#632200" height="35" width="35" x="252" y="504" /><rect fill="#953100" height="35" width="35" x="288" y="504" /><rect fill="#000000" height="35" width="35" x="324" y="504" /><rect fill="#000000" height="35" width="35" x="360" y="504" /><rect fill="#000000" height="35" width="35" x="396" y="504" /><rect fill="#000000" height="35" width="35" x="432" y="504" /><rect fill="#000000" height="35" width="35" x="468" y="504" /><rect fill="#000000" height="35" width="35" x="504" y="504" /><rect fill="#000000" height="35" width="35" x="540" y="504" /><rect fill="#000000" height="35" width="35" x="0" y="540" /><rect fill="#000000" height="35" width="35" x="36" y="540" /><rect fill="#000000" height="35" width="35" x="72" y="540" /><rect fill="#000000" height="35" width="35" x="108" y="540" /><rect fill="#000000" height="35" width="35" x="144" y="540" /><rect fill="#000000" height="35" width="35" x="180" y="540" /><rect fill="#000000" height="35" width="35" x="216" y="540" /><rect fill="#6e2700" height="35" width="35" x="252" y="540" /><rect fill="#a73800" height="35" width="35" x="288" y="540" /><rect fill="#000000" height="35" width="35" x="324" y="540" /><rect fill="#000000" height="35" width="35" x="360" y="540" /><rect fill="#000000" height="35" width="35" x="396" y="540" /><rect fill="#000000" height="35" width="35" x="432" y="540" /><rect fill="#000000" height="35" width="35" x="468" y="540" /><rect fill="#000000" height="35" width="35" x="504" y="540" /><rect fill="#000000" height="35" width="35" x="540" y="540" /></svg>