<?xml version="1.0" encoding="utf-8" ?>
<svg baseProfile="tiny" height="575" version="1.2" width="575" xmlns="http://www.w3.org/2000/svg" xmlns:ev="http://www.w3.org/2001/xml-events" xmlns:xlink="http://www.w3.org/1999/xlink"><defs /><rect fill="#000000" height="35" width="35" x="0" y="0" /><rect fill="#000000" height="35" width="35" x="36" y="0" /><rect fill="#000000" height="35" width="35" x="72" y="0" /><rect fill="#000000" height="35" width="35" x="108" y="0" /><rect fill="#000000" height="35" width="35" x="144" y="0" /><rect fill="#000000" height="35" width="35" x="180" y="0" /><rect fill="#000000" height="35" width="35" x="216" y="0" /><rect fill="#000000" height="35" width="35" x="252" y="0" /><rect fill="#000000" height="35" width="35" x="288" y="0" /><rect fill="#000000" height="35" width="35" x="324" y="0" /><rect fill="#000000" height="35" width="35" x="360" y="0" /><rect fill="#000000" height="35" width="35" x="396" y="0" /><rect fill="#000000" height="35" width="35" x="432" y="0" /><rect fill="#000000" height="35" width="35" x="468" y="0" /><rect fill="#000000" height="35" width="35" x="504" y="0" /><rect fill="#000000" height="35" width="35" x="540" y="0" /><rect fill="#000000" height="35" width="35" x="0" y="36" /><rect fill="#000000" height="35" width="35" x="36" y="36" /><rect fill="#000000" height="35" width="35" x="72" y="36" /><rect fill="#000000" height="35" width="35" x="108" y="36" /><rect fill="#000000" height="35" width="35" x="144" y="36" /><rect fill="#000000" height="35" width="35" x="180" y="36" /><rect fill="#000000" height="35" width="35" x="216" y="36" /><rect fill="#000000" height="35" width="35" x="252" y="36" /><rect fill="#000000" height="35" width="35" x="288" y="36" /><rect fill="#000000" height="35" width="35" x="324" y="36" /><rect fill="#000000" height="35" width="35" x="360" y="36" /><rect fill="#000000" height="35" width="35" x="396" y="36" /><rect fill="#000000" height="35" width="35" x="432" y="36" /><rect fill="#000000" height="35" width="35" x="468" y="36" /><rect fill="#000000" height="35" width="35" x="504" y="36" /><rect fill="#000000" height="35" width="35" x="540" y="36" /><rect fill="#000000" height="35" width="35" x="0" y="72" /><rect fill="#000000" height="35" width="35" x="36" y="72" /><rect fill="#000000" height="35" width="35" x="72" y="72" /><rect fill="#000000" height="35" width="35" x="108" y="72" /><rect fill="#000000" height="35" width="35" x="144" y="72" /><rect fill="#000000" height="35" width="35" x="180" y="72" /><rect fill="#000000" height="35" width="35" x="216" y="72" /><rect fill="#000000" height="35" width="35" x="252" y="72" /><rect fill="#000000" height="35" width="35" x="288" y="72" /><rect fill="#000000" height="35" width="35" x="324" y="72" /><rect fill="#000000" height="35" width="35" x="360" y="72" /><rect fill="#000000" height="35" width="35" x="396" y="72" /><rect fill="#000000" height="35" width="35" x="432" y="72" /><rect fill="#000000" height="35" width="35" x="468" y="72" /><rect fill="#000000" height="35" width="35" x="504" y="72" /><rect fill="#000000" height="35" width="35" x="540" y="72" /><rect fill="#000000" height="35" width="35" x="0" y="108" /><rect fill="#000000" height="35" width="35" x="36" y="108" /><rect fill="#000000" height="35" width="35" x="72" y="108" /><rect fill="#000000" height="35" width="35" x="108" y="108" /><rect fill="#000000" height="35" width="35" x="144" y="108" /><rect fill="#000000" height="35" width="35" x="180" y="108" /><rect fill="#000000" height="35" width="35" x="216" y="108" /><rect fill="#000000" height="35" width="35" x="252" y="108" /><rect fill="#000000" height="35" width="35" x="288" y="108" /><rect fill="#000000" height="35" width="35" x="324" y="108" /><rect fill="#000000" height="35" width="35" x="360" y="108" /><rect fill="#000000" height="35" width="35" x="396" y="108" /><rect fill="#000000" height="35" width="35" x="432" y="108" /><rect fill="#000000" height="35" width="35" x="468" y="108" /><rect fill="#000000" height="35" width="35" x="504" y="108" /><rect fill="#000000" height="35" width="35" x="540" y="108" /><rect fill="#000000" height="35" width="35" x="0" y="144" /><rect fill="#000000" height="35" width="35" x="36" y="144" /><rect fill="#000000" height="35" width="35" x="72" y="144" /><rect fill="#000000" height="35" width="35" x="108" y="144" /><rect fill="#000000" height="35" width="35" x="144" y="144" /><rect fill="#000000" height="35" width="35" x="180" y="144" /><rect fill="#000000" height="35" width="35" x="216" y="144" /><rect fill="#000000" height="35" width="35" x="252" y="144" /><rect fill="#b44204" height="35" width="35" x="288" y="144" /><rect fill="#000000" height="35" width="35" x="324" y="144" /><rect fill="#000000" height="35" width="35" x="360" y="144" /><rect fill="#000000" height="35" width="35" x="396" y="144" /><rect fill="#000000" height="35" width="35" x="432" y="144" /><rect fill="#000000" height="35" width="35" x="468" y="144" /><rect fill="#000000" height="35" width="35" x="504" y="144" /><rect fill="#000000" height="35" width="35" x="540" y="144" /><rect fill="#000000" height="35" width="35" x="0" y="180" /><rect fill="#000000" height="35" width="35" x="36" y="180" /><rect fill="#000000" height="35" width="35" x="72" y="180" /><rect fill="#000000" height="35" width="35" x="108" y="180" /><rect fill="#000000" height="35" width="35" x="144" y="180" /><rect fill="#000000" height="35" width="35" x="180" y="180" /><rect fill="#000000" height="35" width="35" x="216" y="180" /><rect fill="#000000" height="35" width="35" x="252" y="180" /><rect fill="#b44604" height="35" width="35" x="288" y="180" /><rect fill="#b44604" height="35" width="35" x="324" y="180" /><rect fill="#000000" height="35" width="35" x="360" y="180" /><rect fill="#000000" height="35" width="35" x="396" y="180" /><rect fill="#c05a04" height="35" width="35" x="432" y="180" /><rect fill="#b44604" height="35" width="35" x="468" y="180" /><rect fill="#000000" height="35" width="35" x="504" y="180" /><rect fill="#000000" height="35" width="35" x="540" y="180" /><rect fill="#000000" height="35" width="35" x="0" y="216" /><rect fill="#000000" height="35" width="35" x="36" y="216" /><rect fill="#000000" height="35" width="35" x="72" y="216" /><rect fill="#000000" height="35" width="35" x="108" y="216" /><rect fill="#000000" height="35" width="35" x="144" y="216" /><rect fill="#000000" height="35" width="35" x="180" y="216" /><rect fill="#000000" height="35" width="35" x="216" y="216" /><rect fill="#000000" height="35" width="35" x="252" y="216" /><rect fill="#ba4c04" height="35" width="35" x="288" y="216" /><rect fill="#c25f04" height="35" width="35" x="324" y="216" /><rect fill="#b64704" height="35" width="35" x="360" y="216" /><rect fill="#b64704" height="35" width="35" x="396" y="216" /><rect fill="#c46404" height="35" width="35" x="432" y="216" /><rect fill="#bc5404" height="35" width="35" x="468" y="216" /><rect fill="#000000" height="35" width="35" x="504" y="216" /><rect fill="#000000" height="35" width="35" x="540" y="216" /><rect fill="#000000" height="35" width="35" x="0" y="252" /><rect fill="#000000" height="35" width="35" x="36" y="252" /><rect fill="#b44204" height="35" width="35" x="72" y="252" /><rect fill="#000000" height="35" width="35" x="108" y="252" /><rect fill="#000000" height="35" width="35" x="144" y="252" /><rect fill="#000000" height="35" width="35" x="180" y="252" /><rect fill="#000000" height="35" width="35" x="216" y="252" /><rect fill="#c45f04" height="35" width="35" x="252" y="252" /><rect fill="#cc7604" height="35" width="35" x="288" y="252" /><rect fill="#be5704" height="35" width="35" x="324" y="252" /><rect fill="#c25e04" height="35" width="35" x="360" y="252" /><rect fill="#c46404" height="35" width="35" x="396" y="252" /><rect fill="#c66904" height="35" width="35" x="432" y="252" /><rect fill="#c86c04" height="35" width="35" x="468" y="252" /><rect fill="#b84a04" height="35" width="35" x="504" y="252" /><rect fill="#000000" height="35" width="35" x="540" y="252" /><rect fill="#000000" height="35" width="35" x="0" y="288" /><rect fill="#000000" height="35" width="35" x="36" y="288" /><rect fill="#bc4e04" height="35" width="35" x="72" y="288" /><rect fill="#c86b04" height="35" width="35" x="108" y="288" /><rect fill="#d48a0c" height="35" width="35" x="144" y="288" /><rect fill="#000000" height="35" width="35" x="180" y="288" /><rect fill="#c25e04" height="35" width="35" x="216" y="288" /><rect fill="#e6b830" height="35" width="35" x="252" y="288" /><rect fill="#dc9c14" height="35" width="35" x="288" y="288" /><rect fill="#d4880c" height="35" width="35" x="324" y="288" /><rect fill="#d4870c" height="35" width="35" x="360" y="288" /><rect fill="#b64704" height="35" width="35" x="396" y="288" /><rect fill="#be5704" height="35" width="35" x="432" y="288" /><rect fill="#c66a04" height="35" width="35" x="468" y="288" /><rect fill="#c86c04" height="35" width="35" x="504" y="288" /><rect fill="#000000" height="35" width="35" x="540" y="288" /><rect fill="#000000" height="35" width="35" x="0" y="324" /><rect fill="#b44204" height="35" width="35" x="36" y="324" /><rect fill="#c05b04" height="35" width="35" x="72" y="324" /><rect fill="#d48a0c" height="35" width="35" x="108" y="324" /><rect fill="#c86b04" height="35" width="35" x="144" y="324" /><rect fill="#d48a0c" height="35" width="35" x="180" y="324" /><rect fill="#da9312" height="35" width="35" x="216" y="324" /><rect fill="#dc9c14" height="35" width="35" x="252" y="324" /><rect fill="#e6b830" height="35" width="35" x="288" y="324" /><rect fill="#f8e9a0" height="35" width="35" x="324" y="324" /><rect fill="#f4e184" height="35" width="35" x="360" y="324" /><rect fill="#d4880c" height="35" width="35" x="396" y="324" /><rect fill="#e4aa24" height="35" width="35" x="432" y="324" /><rect fill="#d4880c" height="35" width="35" x="468" y="324" /><rect fill="#c86a04" height="35" width="35" x="504" y="324" /><rect fill="#000000" height="35" width="35" x="540" y="324" /><rect fill="#000000" height="35" width="35" x="0" y="360" /><rect fill="#dca018" height="35" width="35" x="36" y="360" /><rect fill="#ba4c04" height="35" width="35" x="72" y="360" /><rect fill="#dc9d14" height="35" width="35" x="108" y="360" /><rect fill="#d48a0c" height="35" width="35" x="144" y="360" /><rect fill="#c86b04" height="35" width="35" x="180" y="360" /><rect fill="#dc9c14" height="35" width="35" x="216" y="360" /><rect fill="#dc9c14" height="35" width="35" x="252" y="360" /><rect fill="#fae9a0" height="35" width="35" x="288" y="360" /><rect fill="#fcfefc" height="35" width="35" x="324" y="360" /><rect fill="#f8e9a0" height="35" width="35" x="360" y="360" /><rect fill="#dc9914" height="35" width="35" x="396" y="360" /><rect fill="#d4880c" height="35" width="35" x="432" y="360" /><rect fill="#dea118" height="35" width="35" x="468" y="360" /><rect fill="#d4880c" height="35" width="35" x="504" y="360" /><rect fill="#000000" height="35" width="35" x="540" y="360" /><rect fill="#b44604" height="35" width="35" x="0" y="396" /><rect fill="#dc9614" height="35" width="35" x="36" y="396" /><rect fill="#dea118" height="35" width="35" x="72" y="396" /><rect fill="#d48a0c" height="35" width="35" x="108" y="396" /><rect fill="#e6b830" height="35" width="35" x="144" y="396" /><rect fill="#dc9c14" height="35" width="35" x="180" y="396" /><rect fill="#dc9c14" height="35" width="35" x="216" y="396" /><rect fill="#e6b830" height="35" width="35" x="252" y="396" /><rect fill="#f8eaa4" height="35" width="35" x="288" y="396" /><rect fill="#f8eaa4" height="35" width="35" x="324" y="396" /><rect fill="#fcfefc" height="35" width="35" x="360" y="396" /><rect fill="#f4e084" height="35" width="35" x="396" y="396" /><rect fill="#e4b62c" height="35" width="35" x="432" y="396" /><rect fill="#e0a41c" height="35" width="35" x="468" y="396" /><rect fill="#c66a04" height="35" width="35" x="504" y="396" /><rect fill="#000000" height="35" width="35" x="540" y="396" /><rect fill="#f0ce58" height="35" width="35" x="0" y="432" /><rect fill="#fcfefc" height="35" width="35" x="36" y="432" /><rect fill="#ecbe3c" height="35" width="35" x="72" y="432" /><rect fill="#ecbe3c" height="35" width="35" x="108" y="432" /><rect fill="#f4dc7a" height="35" width="35" x="144" y="432" /><rect fill="#ecca4c" height="35" width="35" x="180" y="432" /><rect fill="#e4b62e" height="35" width="35" x="216" y="432" /><rect fill="#de9d16" height="35" width="35" x="252" y="432" /><rect fill="#f4de82" height="35" width="35" x="288" y="432" /><rect fill="#fcfefc" height="35" width="35" x="324" y="432" /><rect fill="#fcfefc" height="35" width="35" x="360" y="432" /><rect fill="#f4e084" height="35" width="35" x="396" y="432" /><rect fill="#d4870c" height="35" width="35" x="432" y="432" /><rect fill="#c66404" height="35" width="35" x="468" y="432" /><rect fill="#be5704" height="35" width="35" x="504" y="432" /><rect fill="#000000" height="35" width="35" x="540" y="432" /><rect fill="#dc9a14" height="35" width="35" x="0" y="468" /><rect fill="#f4e394" height="35" width="35" x="36" y="468" /><rect fill="#f4da74" height="35" width="35" x="72" y="468" /><rect fill="#eccd52" height="35" width="35" x="108" y="468" /><rect fill="#ecc748" height="35" width="35" x="144" y="468" /><rect fill="#fcfefc" height="35" width="35" x="180" y="468" /><rect fill="#faeaa4" height="35" width="35" x="216" y="468" /><rect fill="#f8e8a0" height="35" width="35" x="252" y="468" /><rect fill="#f0d05c" height="35" width="35" x="288" y="468" /><rect fill="#f8eaa4" height="35" width="35" x="324" y="468" /><rect fill="#f6e9a0" height="35" width="35" x="360" y="468" /><rect fill="#dc9714" height="35" width="35" x="396" y="468" /><rect fill="#c45f04" height="35" width="35" x="432" y="468" /><rect fill="#d4870c" height="35" width="35" x="468" y="468" /><rect fill="#be5704" height="35" width="35" x="504" y="468" /><rect fill="#000000" height="35" width="35" x="540" y="468" /><rect fill="#d4880c" height="35" width="35" x="0" y="504" /><rect fill="#fcfefc" height="35" width="35" x="36" y="504" /><rect fill="#ecbe3c" height="35" width="35" x="72" y="504" /><rect fill="#c46704" height="35" width="35" x="108" y="504" /><rect fill="#d4870c" height="35" width="35" x="144" y="504" /><rect fill="#f8eaa4" height="35" width="35" x="180" y="504" /><rect fill="#f8eaa4" height="35" width="35" x="216" y="504" /><rect fill="#fcfefc" height="35" width="35" x="252" y="504" /><rect fill="#f8eaa4" height="35" width="35" x="288" y="504" /><rect fill="#f2d160" height="35" width="35" x="324" y="504" /><rect fill="#f8e8a0" height="35" width="35" x="360" y="504" /><rect fill="#e6b830" height="35" width="35" x="396" y="504" /><rect fill="#faedb0" height="35" width="35" x="432" y="504" /><rect fill="#faedb0" height="35" width="35" x="468" y="504" /><rect fill="#e6b830" height="35" width="35" x="504" y="504" /><rect fill="#000000" height="35" width="35" x="540" y="504" /><rect fill="#f4e390" height="35" width="35" x="0" y="540" /><rect fill="#f4dc7c" height="35" width="35" x="36" y="540" /><rect fill="#f4dc7c" height="35" width="35" x="72" y="540" /><rect fill="#dc9a14" height="35" width="35" x="108" y="540" /><rect fill="#ecc748" height="35" width="35" x="144" y="540" /><rect fill="#faeaa4" height="35" width="35" x="180" y="540" /><rect fill="#fcfefc" height="35" width="35" x="216" y="540" /><rect fill="#f8eaa4" height="35" width="35" x="252" y="540" /><rect fill="#f4d76e" height="35" width="35" x="288" y="540" /><rect fill="#d48a0c" height="35" width="35" x="324" y="540" /><rect fill="#fcfefc" height="35" width="35" x="360" y="540" /><rect fill="#faecac" height="35" width="35" x="396" y="540" /><rect fill="#f4e084" height="35" width="35" x="432" y="540" /><rect fill="#e6b830" height="35" width="35" x="468" y="540" /><rect fill="#faedb0" height="35" width="35" x="504" y="540" /><rect fill="#d4870c" height="35" width="35" x="540" y="540" /></svg>