<?xml version="1.0" encoding="utf-8" ?>
<svg baseProfile="tiny" height="575" version="1.2" width="575" xmlns="http://www.w3.org/2000/svg" xmlns:ev="http://www.w3.org/2001/xml-events" xmlns:xlink="http://www.w3.org/1999/xlink"><defs /><rect fill="#000000" height="35" width="35" x="0" y="0" /><rect fill="#000000" height="35" width="35" x="36" y="0" /><rect fill="#000000" height="35" width="35" x="72" y="0" /><rect fill="#000000" height="35" width="35" x="108" y="0" /><rect fill="#000000" height="35" width="35" x="144" y="0" /><rect fill="#fefff2" height="35" width="35" x="180" y="0" /><rect fill="#feff34" height="35" width="35" x="216" y="0" /><rect fill="#fefefe" height="35" width="35" x="252" y="0" /><rect fill="#fefefe" height="35" width="35" x="288" y="0" /><rect fill="#fcff34" height="35" width="35" x="324" y="0" /><rect fill="#fffff0" height="35" width="35" x="360" y="0" /><rect fill="#000000" height="35" width="35" x="396" y="0" /><rect fill="#000000" height="35" width="35" x="432" y="0" /><rect fill="#000000" height="35" width="35" x="468" y="0" /><rect fill="#000000" height="35" width="35" x="504" y="0" /><rect fill="#000000" height="35" width="35" x="540" y="0" /><rect fill="#000000" height="35" width="35" x="0" y="36" /><rect fill="#000000" height="35" width="35" x="36" y="36" /><rect fill="#000000" height="35" width="35" x="72" y="36" /><rect fill="#000000" height="35" width="35" x="108" y="36" /><rect fill="#000100" height="35" width="35" x="144" y="36" /><rect fill="#fefff2" height="35" width="35" x="180" y="36" /><rect fill="#feff34" height="35" width="35" x="216" y="36" /><rect fill="#fefefe" height="35" width="35" x="252" y="36" /><rect fill="#ffffff" height="35" width="35" x="288" y="36" /><rect fill="#fcff34" height="35" width="35" x="324" y="36" /><rect fill="#fffff0" height="35" width="35" x="360" y="36" /><rect fill="#000000" height="35" width="35" x="396" y="36" /><rect fill="#000000" height="35" width="35" x="432" y="36" /><rect fill="#000000" height="35" width="35" x="468" y="36" /><rect fill="#000000" height="35" width="35" x="504" y="36" /><rect fill="#000000" height="35" width="35" x="540" y="36" /><rect fill="#000000" height="35" width="35" x="0" y="72" /><rect fill="#000000" height="35" width="35" x="36" y="72" /><rect fill="#000000" height="35" width="35" x="72" y="72" /><rect fill="#000000" height="35" width="35" x="108" y="72" /><rect fill="#000000" height="35" width="35" x="144" y="72" /><rect fill="#fefff1" height="35" width="35" x="180" y="72" /><rect fill="#feff33" height="35" width="35" x="216" y="72" /><rect fill="#fcff34" height="35" width="35" x="252" y="72" /><rect fill="#fcff34" height="35" width="35" x="288" y="72" /><rect fill="#fcff34" height="35" width="35" x="324" y="72" /><rect fill="#fefff1" height="35" width="35" x="360" y="72" /><rect fill="#000000" height="35" width="35" x="396" y="72" /><rect fill="#000000" height="35" width="35" x="432" y="72" /><rect fill="#000000" height="35" width="35" x="468" y="72" /><rect fill="#000000" height="35" width="35" x="504" y="72" /><rect fill="#000000" height="35" width="35" x="540" y="72" /><rect fill="#000000" height="35" width="35" x="0" y="108" /><rect fill="#000000" height="35" width="35" x="36" y="108" /><rect fill="#000000" height="35" width="35" x="72" y="108" /><rect fill="#000000" height="35" width="35" x="108" y="108" /><rect fill="#000000" height="35" width="35" x="144" y="108" /><rect fill="#020202" height="35" width="35" x="180" y="108" /><rect fill="#fffff2" height="35" width="35" x="216" y="108" /><rect fill="#fefff1" height="35" width="35" x="252" y="108" /><rect fill="#fffff3" height="35" width="35" x="288" y="108" /><rect fill="#fefff1" height="35" width="35" x="324" y="108" /><rect fill="#000000" height="35" width="35" x="360" y="108" /><rect fill="#000000" height="35" width="35" x="396" y="108" /><rect fill="#000000" height="35" width="35" x="432" y="108" /><rect fill="#000000" height="35" width="35" x="468" y="108" /><rect fill="#000000" height="35" width="35" x="504" y="108" /><rect fill="#000000" height="35" width="35" x="540" y="108" /><rect fill="#000000" height="35" width="35" x="0" y="144" /><rect fill="#000000" height="35" width="35" x="36" y="144" /><rect fill="#000000" height="35" width="35" x="72" y="144" /><rect fill="#000000" height="35" width="35" x="108" y="144" /><rect fill="#000000" height="35" width="35" x="144" y="144" /><rect fill="#05b707" height="35" width="35" x="180" y="144" /><rect fill="#06d308" height="35" width="35" x="216" y="144" /><rect fill="#06d309" height="35" width="35" x="252" y="144" /><rect fill="#04d207" height="35" width="35" x="288" y="144" /><rect fill="#04ba03" height="35" width="35" x="324" y="144" /><rect fill="#05b907" height="35" width="35" x="360" y="144" /><rect fill="#000000" height="35" width="35" x="396" y="144" /><rect fill="#000000" height="35" width="35" x="432" y="144" /><rect fill="#000000" height="35" width="35" x="468" y="144" /><rect fill="#000000" height="35" width="35" x="504" y="144" /><rect fill="#000000" height="35" width="35" x="540" y="144" /><rect fill="#000000" height="35" width="35" x="0" y="180" /><rect fill="#000000" height="35" width="35" x="36" y="180" /><rect fill="#000000" height="35" width="35" x="72" y="180" /><rect fill="#000000" height="35" width="35" x="108" y="180" /><rect fill="#000000" height="35" width="35" x="144" y="180" /><rect fill="#000000" height="35" width="35" x="180" y="180" /><rect fill="#02d606" height="35" width="35" x="216" y="180" /><rect fill="#05d506" height="35" width="35" x="252" y="180" /><rect fill="#05b706" height="35" width="35" x="288" y="180" /><rect fill="#03a703" height="35" width="35" x="324" y="180" /><rect fill="#000000" height="35" width="35" x="360" y="180" /><rect fill="#000000" height="35" width="35" x="396" y="180" /><rect fill="#000000" height="35" width="35" x="432" y="180" /><rect fill="#000000" height="35" width="35" x="468" y="180" /><rect fill="#000000" height="35" width="35" x="504" y="180" /><rect fill="#000000" height="35" width="35" x="540" y="180" /><rect fill="#000000" height="35" width="35" x="0" y="216" /><rect fill="#000000" height="35" width="35" x="36" y="216" /><rect fill="#000000" height="35" width="35" x="72" y="216" /><rect fill="#000000" height="35" width="35" x="108" y="216" /><rect fill="#000000" height="35" width="35" x="144" y="216" /><rect fill="#05d508" height="35" width="35" x="180" y="216" /><rect fill="#01d606" height="35" width="35" x="216" y="216" /><rect fill="#00a603" height="35" width="35" x="252" y="216" /><rect fill="#02a704" height="35" width="35" x="288" y="216" /><rect fill="#03d506" height="35" width="35" x="324" y="216" /><rect fill="#02f001" height="35" width="35" x="360" y="216" /><rect fill="#000000" height="35" width="35" x="396" y="216" /><rect fill="#000000" height="35" width="35" x="432" y="216" /><rect fill="#000000" height="35" width="35" x="468" y="216" /><rect fill="#000000" height="35" width="35" x="504" y="216" /><rect fill="#000000" height="35" width="35" x="540" y="216" /><rect fill="#000000" height="35" width="35" x="0" y="252" /><rect fill="#000000" height="35" width="35" x="36" y="252" /><rect fill="#000000" height="35" width="35" x="72" y="252" /><rect fill="#000000" height="35" width="35" x="108" y="252" /><rect fill="#00d304" height="35" width="35" x="144" y="252" /><rect fill="#05d508" height="35" width="35" x="180" y="252" /><rect fill="#04d508" height="35" width="35" x="216" y="252" /><rect fill="#09d60a" height="35" width="35" x="252" y="252" /><rect fill="#05d806" height="35" width="35" x="288" y="252" /><rect fill="#03d604" height="35" width="35" x="324" y="252" /><rect fill="#05d605" height="35" width="35" x="360" y="252" /><rect fill="#07f00a" height="35" width="35" x="396" y="252" /><rect fill="#000001" height="35" width="35" x="432" y="252" /><rect fill="#000000" height="35" width="35" x="468" y="252" /><rect fill="#000000" height="35" width="35" x="504" y="252" /><rect fill="#000000" height="35" width="35" x="540" y="252" /><rect fill="#000000" height="35" width="35" x="0" y="288" /><rect fill="#000000" height="35" width="35" x="36" y="288" /><rect fill="#000000" height="35" width="35" x="72" y="288" /><rect fill="#09b506" height="35" width="35" x="108" y="288" /><rect fill="#04b804" height="35" width="35" x="144" y="288" /><rect fill="#06b905" height="35" width="35" x="180" y="288" /><rect fill="#04d508" height="35" width="35" x="216" y="288" /><rect fill="#04d508" height="35" width="35" x="252" y="288" /><rect fill="#04d709" height="35" width="35" x="288" y="288" /><rect fill="#05d508" height="35" width="35" x="324" y="288" /><rect fill="#05b804" height="35" width="35" x="360" y="288" /><rect fill="#06ba06" height="35" width="35" x="396" y="288" /><rect fill="#02b703" height="35" width="35" x="432" y="288" /><rect fill="#000000" height="35" width="35" x="468" y="288" /><rect fill="#000000" height="35" width="35" x="504" y="288" /><rect fill="#000000" height="35" width="35" x="540" y="288" /><rect fill="#000000" height="35" width="35" x="0" y="324" /><rect fill="#000000" height="35" width="35" x="36" y="324" /><rect fill="#010000" height="35" width="35" x="72" y="324" /><rect fill="#010000" height="35" width="35" x="108" y="324" /><rect fill="#020000" height="35" width="35" x="144" y="324" /><rect fill="#00a802" height="35" width="35" x="180" y="324" /><rect fill="#04b804" height="35" width="35" x="216" y="324" /><rect fill="#03d508" height="35" width="35" x="252" y="324" /><rect fill="#04d609" height="35" width="35" x="288" y="324" /><rect fill="#04b804" height="35" width="35" x="324" y="324" /><rect fill="#00a802" height="35" width="35" x="360" y="324" /><rect fill="#000000" height="35" width="35" x="396" y="324" /><rect fill="#000000" height="35" width="35" x="432" y="324" /><rect fill="#000000" height="35" width="35" x="468" y="324" /><rect fill="#000000" height="35" width="35" x="504" y="324" /><rect fill="#000000" height="35" width="35" x="540" y="324" /><rect fill="#000000" height="35" width="35" x="0" y="360" /><rect fill="#000000" height="35" width="35" x="36" y="360" /><rect fill="#000000" height="35" width="35" x="72" y="360" /><rect fill="#000000" height="35" width="35" x="108" y="360" /><rect fill="#06d609" height="35" width="35" x="144" y="360" /><rect fill="#00d407" height="35" width="35" x="180" y="360" /><rect fill="#02a704" height="35" width="35" x="216" y="360" /><rect fill="#00a802" height="35" width="35" x="252" y="360" /><rect fill="#01d306" height="35" width="35" x="288" y="360" /><rect fill="#04d405" height="35" width="35" x="324" y="360" /><rect fill="#04d405" height="35" width="35" x="360" y="360" /><rect fill="#0aef07" height="35" width="35" x="396" y="360" /><rect fill="#000000" height="35" width="35" x="432" y="360" /><rect fill="#000000" height="35" width="35" x="468" y="360" /><rect fill="#000000" height="35" width="35" x="504" y="360" /><rect fill="#000000" height="35" width="35" x="540" y="360" /><rect fill="#000000" height="35" width="35" x="0" y="396" /><rect fill="#000000" height="35" width="35" x="36" y="396" /><rect fill="#000000" height="35" width="35" x="72" y="396" /><rect fill="#0ab607" height="35" width="35" x="108" y="396" /><rect fill="#06b601" height="35" width="35" x="144" y="396" /><rect fill="#04d508" height="35" width="35" x="180" y="396" /><rect fill="#08d508" height="35" width="35" x="216" y="396" /><rect fill="#07d407" height="35" width="35" x="252" y="396" /><rect fill="#09d709" height="35" width="35" x="288" y="396" /><rect fill="#06d507" height="35" width="35" x="324" y="396" /><rect fill="#06d507" height="35" width="35" x="360" y="396" /><rect fill="#04b802" height="35" width="35" x="396" y="396" /><rect fill="#02b702" height="35" width="35" x="432" y="396" /><rect fill="#020000" height="35" width="35" x="468" y="396" /><rect fill="#000003" height="35" width="35" x="504" y="396" /><rect fill="#000000" height="35" width="35" x="540" y="396" /><rect fill="#000000" height="35" width="35" x="0" y="432" /><rect fill="#000000" height="35" width="35" x="36" y="432" /><rect fill="#02a702" height="35" width="35" x="72" y="432" /><rect fill="#02a702" height="35" width="35" x="108" y="432" /><rect fill="#02a702" height="35" width="35" x="144" y="432" /><rect fill="#05b804" height="35" width="35" x="180" y="432" /><rect fill="#01b705" height="35" width="35" x="216" y="432" /><rect fill="#04b806" height="35" width="35" x="252" y="432" /><rect fill="#05b706" height="35" width="35" x="288" y="432" /><rect fill="#02b806" height="35" width="35" x="324" y="432" /><rect fill="#05b706" height="35" width="35" x="360" y="432" /><rect fill="#03a805" height="35" width="35" x="396" y="432" /><rect fill="#02a704" height="35" width="35" x="432" y="432" /><rect fill="#02a704" height="35" width="35" x="468" y="432" /><rect fill="#000000" height="35" width="35" x="504" y="432" /><rect fill="#000000" height="35" width="35" x="540" y="432" /><rect fill="#000000" height="35" width="35" x="0" y="468" /><rect fill="#000000" height="35" width="35" x="36" y="468" /><rect fill="#000000" height="35" width="35" x="72" y="468" /><rect fill="#000000" height="35" width="35" x="108" y="468" /><rect fill="#000004" height="35" width="35" x="144" y="468" /><rect fill="#00a802" height="35" width="35" x="180" y="468" /><rect fill="#00a802" height="35" width="35" x="216" y="468" /><rect fill="#00a802" height="35" width="35" x="252" y="468" /><rect fill="#00a802" height="35" width="35" x="288" y="468" /><rect fill="#00a801" height="35" width="35" x="324" y="468" /><rect fill="#00a802" height="35" width="35" x="360" y="468" /><rect fill="#020000" height="35" width="35" x="396" y="468" /><rect fill="#000000" height="35" width="35" x="432" y="468" /><rect fill="#000000" height="35" width="35" x="468" y="468" /><rect fill="#000000" height="35" width="35" x="504" y="468" /><rect fill="#000000" height="35" width="35" x="540" y="468" /><rect fill="#000000" height="35" width="35" x="0" y="504" /><rect fill="#000000" height="35" width="35" x="36" y="504" /><rect fill="#000000" height="35" width="35" x="72" y="504" /><rect fill="#000000" height="35" width="35" x="108" y="504" /><rect fill="#000000" height="35" width="35" x="144" y="504" /><rect fill="#000000" height="35" width="35" x="180" y="504" /><rect fill="#000000" height="35" width="35" x="216" y="504" /><rect fill="#9a3200" height="35" width="35" x="252" y="504" /><rect fill="#c64100" height="35" width="35" x="288" y="504" /><rect fill="#000100" height="35" width="35" x="324" y="504" /><rect fill="#000000" height="35" width="35" x="360" y="504" /><rect fill="#000000" height="35" width="35" x="396" y="504" /><rect fill="#000000" height="35" width="35" x="432" y="504" /><rect fill="#000000" height="35" width="35" x="468" y="504" /><rect fill="#000000" height="35" width="35" x="504" y="504" /><rect fill="#000000" height="35" width="35" x="540" y="504" /><rect fill="#000000" height="35" width="35" x="0" y="540" /><rect fill="#000000" height="35" width="35" x="36" y="540" /><rect fill="#000000" height="35" width="35" x="72" y="540" /><rect fill="#000000" height="35" width="35" x="108" y="540" /><rect fill="#000000" height="35" width="35" x="144" y="540" /><rect fill="#000000" height="35" width="35" x="180" y="540" /><rect fill="#000000" height="35" width="35" x="216" y="540" /><rect fill="#a43800" height="35" width="35" x="252" y="540" /><rect fill="#dc4c02" height="35" width="35" x="288" y="540" /><rect fill="#000000" height="35" width="35" x="324" y="540" /><rect fill="#000000" height="35" width="35" x="360" y="540" /><rect fill="#000000" height="35" width="35" x="396" y="540" /><rect fill="#000000" height="35" width="35" x="432" y="540" /><rect fill="#000000" height="35" width="35" x="468" y="540" /><rect fill="#000000" height="35" width="35" x="504" y="540" /><rect fill="#000000" height="35" width="35" x="540" y="540" /></svg>