<?xml version="1.0" encoding="utf-8" ?>
<svg baseProfile="tiny" height="575" version="1.2" width="575" xmlns="http://www.w3.org/2000/svg" xmlns:ev="http://www.w3.org/2001/xml-events" xmlns:xlink="http://www.w3.org/1999/xlink"><defs /><rect fill="#000000" height="35" width="35" x="0" y="0" /><rect fill="#000000" height="35" width="35" x="36" y="0" /><rect fill="#000100" height="35" width="35" x="72" y="0" /><rect fill="#feffbd" height="35" width="35" x="108" y="0" /><rect fill="#fcfe7e" height="35" width="35" x="144" y="0" /><rect fill="#ffff00" height="35" width="35" x="180" y="0" /><rect fill="#fffffe" height="35" width="35" x="216" y="0" /><rect fill="#fefefe" height="35" width="35" x="252" y="0" /><rect fill="#ffffff" height="35" width="35" x="288" y="0" /><rect fill="#ffffff" height="35" width="35" x="324" y="0" /><rect fill="#fdff00" height="35" width="35" x="360" y="0" /><rect fill="#fbfd79" height="35" width="35" x="396" y="0" /><rect fill="#ffffc2" height="35" width="35" x="432" y="0" /><rect fill="#000000" height="35" width="35" x="468" y="0" /><rect fill="#000000" height="35" width="35" x="504" y="0" /><rect fill="#000000" height="35" width="35" x="540" y="0" /><rect fill="#000000" height="35" width="35" x="0" y="36" /><rect fill="#000000" height="35" width="35" x="36" y="36" /><rect fill="#000000" height="35" width="35" x="72" y="36" /><rect fill="#feffbd" height="35" width="35" x="108" y="36" /><rect fill="#fbfd7b" height="35" width="35" x="144" y="36" /><rect fill="#ffff00" height="35" width="35" x="180" y="36" /><rect fill="#ffffff" height="35" width="35" x="216" y="36" /><rect fill="#ffffff" height="35" width="35" x="252" y="36" /><rect fill="#ffffff" height="35" width="35" x="288" y="36" /><rect fill="#ffffff" height="35" width="35" x="324" y="36" /><rect fill="#feff00" height="35" width="35" x="360" y="36" /><rect fill="#fcfd7b" height="35" width="35" x="396" y="36" /><rect fill="#fcffbf" height="35" width="35" x="432" y="36" /><rect fill="#000000" height="35" width="35" x="468" y="36" /><rect fill="#000000" height="35" width="35" x="504" y="36" /><rect fill="#000000" height="35" width="35" x="540" y="36" /><rect fill="#000000" height="35" width="35" x="0" y="72" /><rect fill="#000000" height="35" width="35" x="36" y="72" /><rect fill="#000000" height="35" width="35" x="72" y="72" /><rect fill="#000000" height="35" width="35" x="108" y="72" /><rect fill="#ffffc7" height="35" width="35" x="144" y="72" /><rect fill="#fbfc7a" height="35" width="35" x="180" y="72" /><rect fill="#fefd00" height="35" width="35" x="216" y="72" /><rect fill="#ffffff" height="35" width="35" x="252" y="72" /><rect fill="#ffffff" height="35" width="35" x="288" y="72" /><rect fill="#fbfe01" height="35" width="35" x="324" y="72" /><rect fill="#fbfb7c" height="35" width="35" x="360" y="72" /><rect fill="#feffbd" height="35" width="35" x="396" y="72" /><rect fill="#000000" height="35" width="35" x="432" y="72" /><rect fill="#000000" height="35" width="35" x="468" y="72" /><rect fill="#000000" height="35" width="35" x="504" y="72" /><rect fill="#000000" height="35" width="35" x="540" y="72" /><rect fill="#000000" height="35" width="35" x="0" y="108" /><rect fill="#000000" height="35" width="35" x="36" y="108" /><rect fill="#000000" height="35" width="35" x="72" y="108" /><rect fill="#000000" height="35" width="35" x="108" y="108" /><rect fill="#010101" height="35" width="35" x="144" y="108" /><rect fill="#feffbd" height="35" width="35" x="180" y="108" /><rect fill="#f8fb79" height="35" width="35" x="216" y="108" /><rect fill="#feff00" height="35" width="35" x="252" y="108" /><rect fill="#feff00" height="35" width="35" x="288" y="108" /><rect fill="#fbfc78" height="35" width="35" x="324" y="108" /><rect fill="#fdffbc" height="35" width="35" x="360" y="108" /><rect fill="#000000" height="35" width="35" x="396" y="108" /><rect fill="#010000" height="35" width="35" x="432" y="108" /><rect fill="#000000" height="35" width="35" x="468" y="108" /><rect fill="#000000" height="35" width="35" x="504" y="108" /><rect fill="#000000" height="35" width="35" x="540" y="108" /><rect fill="#000000" height="35" width="35" x="0" y="144" /><rect fill="#000000" height="35" width="35" x="36" y="144" /><rect fill="#000000" height="35" width="35" x="72" y="144" /><rect fill="#000000" height="35" width="35" x="108" y="144" /><rect fill="#000000" height="35" width="35" x="144" y="144" /><rect fill="#00ea00" height="35" width="35" x="180" y="144" /><rect fill="#ffffc1" height="35" width="35" x="216" y="144" /><rect fill="#fbfd7b" height="35" width="35" x="252" y="144" /><rect fill="#fbfd7b" height="35" width="35" x="288" y="144" /><rect fill="#ffffba" height="35" width="35" x="324" y="144" /><rect fill="#08ec06" height="35" width="35" x="360" y="144" /><rect fill="#000000" height="35" width="35" x="396" y="144" /><rect fill="#000000" height="35" width="35" x="432" y="144" /><rect fill="#000000" height="35" width="35" x="468" y="144" /><rect fill="#000000" height="35" width="35" x="504" y="144" /><rect fill="#000000" height="35" width="35" x="540" y="144" /><rect fill="#000000" height="35" width="35" x="0" y="180" /><rect fill="#000000" height="35" width="35" x="36" y="180" /><rect fill="#000000" height="35" width="35" x="72" y="180" /><rect fill="#000000" height="35" width="35" x="108" y="180" /><rect fill="#000000" height="35" width="35" x="144" y="180" /><rect fill="#000000" height="35" width="35" x="180" y="180" /><rect fill="#14f815" height="35" width="35" x="216" y="180" /><rect fill="#feffbd" height="35" width="35" x="252" y="180" /><rect fill="#feffbf" height="35" width="35" x="288" y="180" /><rect fill="#00d900" height="35" width="35" x="324" y="180" /><rect fill="#000000" height="35" width="35" x="360" y="180" /><rect fill="#000000" height="35" width="35" x="396" y="180" /><rect fill="#000000" height="35" width="35" x="432" y="180" /><rect fill="#000000" height="35" width="35" x="468" y="180" /><rect fill="#000000" height="35" width="35" x="504" y="180" /><rect fill="#000000" height="35" width="35" x="540" y="180" /><rect fill="#000000" height="35" width="35" x="0" y="216" /><rect fill="#000000" height="35" width="35" x="36" y="216" /><rect fill="#000000" height="35" width="35" x="72" y="216" /><rect fill="#000000" height="35" width="35" x="108" y="216" /><rect fill="#010000" height="35" width="35" x="144" y="216" /><rect fill="#17f819" height="35" width="35" x="180" y="216" /><rect fill="#15f714" height="35" width="35" x="216" y="216" /><rect fill="#04d703" height="35" width="35" x="252" y="216" /><rect fill="#00d803" height="35" width="35" x="288" y="216" /><rect fill="#17fb1d" height="35" width="35" x="324" y="216" /><rect fill="#2ef929" height="35" width="35" x="360" y="216" /><rect fill="#000000" height="35" width="35" x="396" y="216" /><rect fill="#000000" height="35" width="35" x="432" y="216" /><rect fill="#000000" height="35" width="35" x="468" y="216" /><rect fill="#000000" height="35" width="35" x="504" y="216" /><rect fill="#000000" height="35" width="35" x="540" y="216" /><rect fill="#000000" height="35" width="35" x="0" y="252" /><rect fill="#000000" height="35" width="35" x="36" y="252" /><rect fill="#000000" height="35" width="35" x="72" y="252" /><rect fill="#000000" height="35" width="35" x="108" y="252" /><rect fill="#14f915" height="35" width="35" x="144" y="252" /><rect fill="#12f816" height="35" width="35" x="180" y="252" /><rect fill="#14f613" height="35" width="35" x="216" y="252" /><rect fill="#14f814" height="35" width="35" x="252" y="252" /><rect fill="#14f815" height="35" width="35" x="288" y="252" /><rect fill="#15f915" height="35" width="35" x="324" y="252" /><rect fill="#14f814" height="35" width="35" x="360" y="252" /><rect fill="#2af929" height="35" width="35" x="396" y="252" /><rect fill="#020000" height="35" width="35" x="432" y="252" /><rect fill="#000000" height="35" width="35" x="468" y="252" /><rect fill="#000000" height="35" width="35" x="504" y="252" /><rect fill="#000000" height="35" width="35" x="540" y="252" /><rect fill="#000000" height="35" width="35" x="0" y="288" /><rect fill="#000000" height="35" width="35" x="36" y="288" /><rect fill="#000000" height="35" width="35" x="72" y="288" /><rect fill="#04ea04" height="35" width="35" x="108" y="288" /><rect fill="#05ec05" height="35" width="35" x="144" y="288" /><rect fill="#04eb02" height="35" width="35" x="180" y="288" /><rect fill="#15f714" height="35" width="35" x="216" y="288" /><rect fill="#14f816" height="35" width="35" x="252" y="288" /><rect fill="#14f814" height="35" width="35" x="288" y="288" /><rect fill="#13f615" height="35" width="35" x="324" y="288" /><rect fill="#04ea04" height="35" width="35" x="360" y="288" /><rect fill="#04ea04" height="35" width="35" x="396" y="288" /><rect fill="#04ea06" height="35" width="35" x="432" y="288" /><rect fill="#000000" height="35" width="35" x="468" y="288" /><rect fill="#000000" height="35" width="35" x="504" y="288" /><rect fill="#000000" height="35" width="35" x="540" y="288" /><rect fill="#000000" height="35" width="35" x="0" y="324" /><rect fill="#000000" height="35" width="35" x="36" y="324" /><rect fill="#000000" height="35" width="35" x="72" y="324" /><rect fill="#000000" height="35" width="35" x="108" y="324" /><rect fill="#000000" height="35" width="35" x="144" y="324" /><rect fill="#02d800" height="35" width="35" x="180" y="324" /><rect fill="#05ea04" height="35" width="35" x="216" y="324" /><rect fill="#16fa16" height="35" width="35" x="252" y="324" /><rect fill="#12f816" height="35" width="35" x="288" y="324" /><rect fill="#02eb08" height="35" width="35" x="324" y="324" /><rect fill="#02d903" height="35" width="35" x="360" y="324" /><rect fill="#000000" height="35" width="35" x="396" y="324" /><rect fill="#000000" height="35" width="35" x="432" y="324" /><rect fill="#000000" height="35" width="35" x="468" y="324" /><rect fill="#000000" height="35" width="35" x="504" y="324" /><rect fill="#000000" height="35" width="35" x="540" y="324" /><rect fill="#000000" height="35" width="35" x="0" y="360" /><rect fill="#000000" height="35" width="35" x="36" y="360" /><rect fill="#000000" height="35" width="35" x="72" y="360" /><rect fill="#000000" height="35" width="35" x="108" y="360" /><rect fill="#13fa13" height="35" width="35" x="144" y="360" /><rect fill="#15f916" height="35" width="35" x="180" y="360" /><rect fill="#00da00" height="35" width="35" x="216" y="360" /><rect fill="#02d801" height="35" width="35" x="252" y="360" /><rect fill="#15f714" height="35" width="35" x="288" y="360" /><rect fill="#14f816" height="35" width="35" x="324" y="360" /><rect fill="#17f714" height="35" width="35" x="360" y="360" /><rect fill="#2efa2e" height="35" width="35" x="396" y="360" /><rect fill="#010001" height="35" width="35" x="432" y="360" /><rect fill="#000000" height="35" width="35" x="468" y="360" /><rect fill="#010000" height="35" width="35" x="504" y="360" /><rect fill="#000002" height="35" width="35" x="540" y="360" /><rect fill="#000000" height="35" width="35" x="0" y="396" /><rect fill="#000000" height="35" width="35" x="36" y="396" /><rect fill="#000100" height="35" width="35" x="72" y="396" /><rect fill="#05eb07" height="35" width="35" x="108" y="396" /><rect fill="#03e905" height="35" width="35" x="144" y="396" /><rect fill="#13f915" height="35" width="35" x="180" y="396" /><rect fill="#14f613" height="35" width="35" x="216" y="396" /><rect fill="#17f815" height="35" width="35" x="252" y="396" /><rect fill="#15f714" height="35" width="35" x="288" y="396" /><rect fill="#15f714" height="35" width="35" x="324" y="396" /><rect fill="#12f814" height="35" width="35" x="360" y="396" /><rect fill="#03e905" height="35" width="35" x="396" y="396" /><rect fill="#06ed06" height="35" width="35" x="432" y="396" /><rect fill="#000000" height="35" width="35" x="468" y="396" /><rect fill="#000000" height="35" width="35" x="504" y="396" /><rect fill="#000000" height="35" width="35" x="540" y="396" /><rect fill="#000000" height="35" width="35" x="0" y="432" /><rect fill="#000000" height="35" width="35" x="36" y="432" /><rect fill="#02d902" height="35" width="35" x="72" y="432" /><rect fill="#02d902" height="35" width="35" x="108" y="432" /><rect fill="#02d902" height="35" width="35" x="144" y="432" /><rect fill="#03e903" height="35" width="35" x="180" y="432" /><rect fill="#06ea04" height="35" width="35" x="216" y="432" /><rect fill="#04ea04" height="35" width="35" x="252" y="432" /><rect fill="#04ea04" height="35" width="35" x="288" y="432" /><rect fill="#04ea04" height="35" width="35" x="324" y="432" /><rect fill="#04ea04" height="35" width="35" x="360" y="432" /><rect fill="#03db03" height="35" width="35" x="396" y="432" /><rect fill="#02d902" height="35" width="35" x="432" y="432" /><rect fill="#02d902" height="35" width="35" x="468" y="432" /><rect fill="#000000" height="35" width="35" x="504" y="432" /><rect fill="#000000" height="35" width="35" x="540" y="432" /><rect fill="#000000" height="35" width="35" x="0" y="468" /><rect fill="#000000" height="35" width="35" x="36" y="468" /><rect fill="#000000" height="35" width="35" x="72" y="468" /><rect fill="#000000" height="35" width="35" x="108" y="468" /><rect fill="#000001" height="35" width="35" x="144" y="468" /><rect fill="#02d904" height="35" width="35" x="180" y="468" /><rect fill="#06da05" height="35" width="35" x="216" y="468" /><rect fill="#04d904" height="35" width="35" x="252" y="468" /><rect fill="#03d904" height="35" width="35" x="288" y="468" /><rect fill="#01d602" height="35" width="35" x="324" y="468" /><rect fill="#04d904" height="35" width="35" x="360" y="468" /><rect fill="#000100" height="35" width="35" x="396" y="468" /><rect fill="#000100" height="35" width="35" x="432" y="468" /><rect fill="#000100" height="35" width="35" x="468" y="468" /><rect fill="#000000" height="35" width="35" x="504" y="468" /><rect fill="#000000" height="35" width="35" x="540" y="468" /><rect fill="#000000" height="35" width="35" x="0" y="504" /><rect fill="#000000" height="35" width="35" x="36" y="504" /><rect fill="#000000" height="35" width="35" x="72" y="504" /><rect fill="#000000" height="35" width="35" x="108" y="504" /><rect fill="#000000" height="35" width="35" x="144" y="504" /><rect fill="#000000" height="35" width="35" x="180" y="504" /><rect fill="#000000" height="35" width="35" x="216" y="504" /><rect fill="#cc4500" height="35" width="35" x="252" y="504" /><rect fill="#fc5a00" height="35" width="35" x="288" y="504" /><rect fill="#000000" height="35" width="35" x="324" y="504" /><rect fill="#000000" height="35" width="35" x="360" y="504" /><rect fill="#000000" height="35" width="35" x="396" y="504" /><rect fill="#000000" height="35" width="35" x="432" y="504" /><rect fill="#000000" height="35" width="35" x="468" y="504" /><rect fill="#000000" height="35" width="35" x="504" y="504" /><rect fill="#000000" height="35" width="35" x="540" y="504" /><rect fill="#000000" height="35" width="35" x="0" y="540" /><rect fill="#000000" height="35" width="35" x="36" y="540" /><rect fill="#000000" height="35" width="35" x="72" y="540" /><rect fill="#000000" height="35" width="35" x="108" y="540" /><rect fill="#000000" height="35" width="35" x="144" y="540" /><rect fill="#000000" height="35" width="35" x="180" y="540" /><rect fill="#010000" height="35" width="35" x="216" y="540" /><rect fill="#da4b00" height="35" width="35" x="252" y="540" /><rect fill="#f9630f" height="35" width="35" x="288" y="540" /><rect fill="#000000" height="35" width="35" x="324" y="540" /><rect fill="#000000" height="35" width="35" x="360" y="540" /><rect fill="#000000" height="35" width="35" x="396" y="540" /><rect fill="#000000" height="35" width="35" x="432" y="540" /><rect fill="#000000" height="35" width="35" x="468" y="540" /><rect fill="#000000" height="35" width="35" x="504" y="540" /><rect fill="#000000" height="35" width="35" x="540" y="540" /></svg>