<?xml version="1.0" encoding="utf-8" ?>
<svg baseProfile="tiny" height="575" version="1.2" width="575" xmlns="http://www.w3.org/2000/svg" xmlns:ev="http://www.w3.org/2001/xml-events" xmlns:xlink="http://www.w3.org/1999/xlink"><defs /><rect fill="#fafadd" height="35" width="35" x="0" y="0" /><rect fill="#feffbd" height="35" width="35" x="36" y="0" /><rect fill="#faff7e" height="35" width="35" x="72" y="0" /><rect fill="#fdff00" height="35" width="35" x="108" y="0" /><rect fill="#ffee00" height="35" width="35" x="144" y="0" /><rect fill="#ffffff" height="35" width="35" x="180" y="0" /><rect fill="#fffffe" height="35" width="35" x="216" y="0" /><rect fill="#fefefe" height="35" width="35" x="252" y="0" /><rect fill="#ffffff" height="35" width="35" x="288" y="0" /><rect fill="#ffffff" height="35" width="35" x="324" y="0" /><rect fill="#ffffff" height="35" width="35" x="360" y="0" /><rect fill="#ffee00" height="35" width="35" x="396" y="0" /><rect fill="#fdfe00" height="35" width="35" x="432" y="0" /><rect fill="#fdfd7b" height="35" width="35" x="468" y="0" /><rect fill="#feffbc" height="35" width="35" x="504" y="0" /><rect fill="#fbfbe0" height="35" width="35" x="540" y="0" /><rect fill="#f9f9de" height="35" width="35" x="0" y="36" /><rect fill="#feffbd" height="35" width="35" x="36" y="36" /><rect fill="#f8fd7c" height="35" width="35" x="72" y="36" /><rect fill="#feff00" height="35" width="35" x="108" y="36" /><rect fill="#ffee00" height="35" width="35" x="144" y="36" /><rect fill="#ffffff" height="35" width="35" x="180" y="36" /><rect fill="#ffffff" height="35" width="35" x="216" y="36" /><rect fill="#ffffff" height="35" width="35" x="252" y="36" /><rect fill="#ffffff" height="35" width="35" x="288" y="36" /><rect fill="#ffffff" height="35" width="35" x="324" y="36" /><rect fill="#ffffff" height="35" width="35" x="360" y="36" /><rect fill="#feed00" height="35" width="35" x="396" y="36" /><rect fill="#fdff00" height="35" width="35" x="432" y="36" /><rect fill="#fbfd7b" height="35" width="35" x="468" y="36" /><rect fill="#fcffb9" height="35" width="35" x="504" y="36" /><rect fill="#fafadf" height="35" width="35" x="540" y="36" /><rect fill="#f9f9de" height="35" width="35" x="0" y="72" /><rect fill="#fafadf" height="35" width="35" x="36" y="72" /><rect fill="#ffffc3" height="35" width="35" x="72" y="72" /><rect fill="#fbfd7d" height="35" width="35" x="108" y="72" /><rect fill="#fffc00" height="35" width="35" x="144" y="72" /><rect fill="#ffee05" height="35" width="35" x="180" y="72" /><rect fill="#ffffff" height="35" width="35" x="216" y="72" /><rect fill="#ffffff" height="35" width="35" x="252" y="72" /><rect fill="#ffffff" height="35" width="35" x="288" y="72" /><rect fill="#ffffff" height="35" width="35" x="324" y="72" /><rect fill="#fdef00" height="35" width="35" x="360" y="72" /><rect fill="#fffd00" height="35" width="35" x="396" y="72" /><rect fill="#fbfb7c" height="35" width="35" x="432" y="72" /><rect fill="#feffbe" height="35" width="35" x="468" y="72" /><rect fill="#f7f8dc" height="35" width="35" x="504" y="72" /><rect fill="#f9fce0" height="35" width="35" x="540" y="72" /><rect fill="#010101" height="35" width="35" x="0" y="108" /><rect fill="#fcfce3" height="35" width="35" x="36" y="108" /><rect fill="#f9f9de" height="35" width="35" x="72" y="108" /><rect fill="#fbffbb" height="35" width="35" x="108" y="108" /><rect fill="#fbfd7b" height="35" width="35" x="144" y="108" /><rect fill="#ffff02" height="35" width="35" x="180" y="108" /><rect fill="#ffed00" height="35" width="35" x="216" y="108" /><rect fill="#fff000" height="35" width="35" x="252" y="108" /><rect fill="#fff000" height="35" width="35" x="288" y="108" /><rect fill="#fcee00" height="35" width="35" x="324" y="108" /><rect fill="#feff00" height="35" width="35" x="360" y="108" /><rect fill="#fafc78" height="35" width="35" x="396" y="108" /><rect fill="#feffbf" height="35" width="35" x="432" y="108" /><rect fill="#f9f9de" height="35" width="35" x="468" y="108" /><rect fill="#f9f9de" height="35" width="35" x="504" y="108" /><rect fill="#000000" height="35" width="35" x="540" y="108" /><rect fill="#000000" height="35" width="35" x="0" y="144" /><rect fill="#000001" height="35" width="35" x="36" y="144" /><rect fill="#f9f9d9" height="35" width="35" x="72" y="144" /><rect fill="#f9f9de" height="35" width="35" x="108" y="144" /><rect fill="#feffbf" height="35" width="35" x="144" y="144" /><rect fill="#faff7a" height="35" width="35" x="180" y="144" /><rect fill="#feff00" height="35" width="35" x="216" y="144" /><rect fill="#feff00" height="35" width="35" x="252" y="144" /><rect fill="#feff00" height="35" width="35" x="288" y="144" /><rect fill="#faff00" height="35" width="35" x="324" y="144" /><rect fill="#fafe7b" height="35" width="35" x="360" y="144" /><rect fill="#fdfebc" height="35" width="35" x="396" y="144" /><rect fill="#fafadd" height="35" width="35" x="432" y="144" /><rect fill="#fafae2" height="35" width="35" x="468" y="144" /><rect fill="#000000" height="35" width="35" x="504" y="144" /><rect fill="#000000" height="35" width="35" x="540" y="144" /><rect fill="#000000" height="35" width="35" x="0" y="180" /><rect fill="#000000" height="35" width="35" x="36" y="180" /><rect fill="#000000" height="35" width="35" x="72" y="180" /><rect fill="#f9f9de" height="35" width="35" x="108" y="180" /><rect fill="#f9f9de" height="35" width="35" x="144" y="180" /><rect fill="#ffffbd" height="35" width="35" x="180" y="180" /><rect fill="#fafd7d" height="35" width="35" x="216" y="180" /><rect fill="#fbfd7b" height="35" width="35" x="252" y="180" /><rect fill="#fbfd7b" height="35" width="35" x="288" y="180" /><rect fill="#fbfd7b" height="35" width="35" x="324" y="180" /><rect fill="#feffbd" height="35" width="35" x="360" y="180" /><rect fill="#f9f9de" height="35" width="35" x="396" y="180" /><rect fill="#f8f8dd" height="35" width="35" x="432" y="180" /><rect fill="#000000" height="35" width="35" x="468" y="180" /><rect fill="#000000" height="35" width="35" x="504" y="180" /><rect fill="#000000" height="35" width="35" x="540" y="180" /><rect fill="#000000" height="35" width="35" x="0" y="216" /><rect fill="#000000" height="35" width="35" x="36" y="216" /><rect fill="#000000" height="35" width="35" x="72" y="216" /><rect fill="#000000" height="35" width="35" x="108" y="216" /><rect fill="#f9f8e2" height="35" width="35" x="144" y="216" /><rect fill="#f9f8e2" height="35" width="35" x="180" y="216" /><rect fill="#ffffbd" height="35" width="35" x="216" y="216" /><rect fill="#ffffbd" height="35" width="35" x="252" y="216" /><rect fill="#feffbf" height="35" width="35" x="288" y="216" /><rect fill="#feffbd" height="35" width="35" x="324" y="216" /><rect fill="#f9f9de" height="35" width="35" x="360" y="216" /><rect fill="#f9f9de" height="35" width="35" x="396" y="216" /><rect fill="#010001" height="35" width="35" x="432" y="216" /><rect fill="#000000" height="35" width="35" x="468" y="216" /><rect fill="#000000" height="35" width="35" x="504" y="216" /><rect fill="#000000" height="35" width="35" x="540" y="216" /><rect fill="#000000" height="35" width="35" x="0" y="252" /><rect fill="#000000" height="35" width="35" x="36" y="252" /><rect fill="#000000" height="35" width="35" x="72" y="252" /><rect fill="#000000" height="35" width="35" x="108" y="252" /><rect fill="#7ff77e" height="35" width="35" x="144" y="252" /><rect fill="#f5f8dc" height="35" width="35" x="180" y="252" /><rect fill="#fafadf" height="35" width="35" x="216" y="252" /><rect fill="#f9f9de" height="35" width="35" x="252" y="252" /><rect fill="#fafadf" height="35" width="35" x="288" y="252" /><rect fill="#f9f9de" height="35" width="35" x="324" y="252" /><rect fill="#f9f9de" height="35" width="35" x="360" y="252" /><rect fill="#95fc94" height="35" width="35" x="396" y="252" /><rect fill="#000000" height="35" width="35" x="432" y="252" /><rect fill="#000000" height="35" width="35" x="468" y="252" /><rect fill="#000000" height="35" width="35" x="504" y="252" /><rect fill="#000000" height="35" width="35" x="540" y="252" /><rect fill="#000000" height="35" width="35" x="0" y="288" /><rect fill="#000000" height="35" width="35" x="36" y="288" /><rect fill="#000000" height="35" width="35" x="72" y="288" /><rect fill="#5bfc5e" height="35" width="35" x="108" y="288" /><rect fill="#5bfc5e" height="35" width="35" x="144" y="288" /><rect fill="#5afc5e" height="35" width="35" x="180" y="288" /><rect fill="#7dfa7b" height="35" width="35" x="216" y="288" /><rect fill="#7bfa7c" height="35" width="35" x="252" y="288" /><rect fill="#79fb7b" height="35" width="35" x="288" y="288" /><rect fill="#78fa78" height="35" width="35" x="324" y="288" /><rect fill="#5bfc5e" height="35" width="35" x="360" y="288" /><rect fill="#5bfc5e" height="35" width="35" x="396" y="288" /><rect fill="#5afc5e" height="35" width="35" x="432" y="288" /><rect fill="#000000" height="35" width="35" x="468" y="288" /><rect fill="#000000" height="35" width="35" x="504" y="288" /><rect fill="#000000" height="35" width="35" x="540" y="288" /><rect fill="#000000" height="35" width="35" x="0" y="324" /><rect fill="#000000" height="35" width="35" x="36" y="324" /><rect fill="#000000" height="35" width="35" x="72" y="324" /><rect fill="#000000" height="35" width="35" x="108" y="324" /><rect fill="#000000" height="35" width="35" x="144" y="324" /><rect fill="#4cfa4a" height="35" width="35" x="180" y="324" /><rect fill="#57fa5a" height="35" width="35" x="216" y="324" /><rect fill="#79f679" height="35" width="35" x="252" y="324" /><rect fill="#7dfa7e" height="35" width="35" x="288" y="324" /><rect fill="#5afc5e" height="35" width="35" x="324" y="324" /><rect fill="#49fd49" height="35" width="35" x="360" y="324" /><rect fill="#000001" height="35" width="35" x="396" y="324" /><rect fill="#000000" height="35" width="35" x="432" y="324" /><rect fill="#000000" height="35" width="35" x="468" y="324" /><rect fill="#000000" height="35" width="35" x="504" y="324" /><rect fill="#000000" height="35" width="35" x="540" y="324" /><rect fill="#000000" height="35" width="35" x="0" y="360" /><rect fill="#000000" height="35" width="35" x="36" y="360" /><rect fill="#000000" height="35" width="35" x="72" y="360" /><rect fill="#000000" height="35" width="35" x="108" y="360" /><rect fill="#79fd7c" height="35" width="35" x="144" y="360" /><rect fill="#7efd7d" height="35" width="35" x="180" y="360" /><rect fill="#4dfb4c" height="35" width="35" x="216" y="360" /><rect fill="#4bfc4a" height="35" width="35" x="252" y="360" /><rect fill="#7bfa7d" height="35" width="35" x="288" y="360" /><rect fill="#7dfa7b" height="35" width="35" x="324" y="360" /><rect fill="#7dfb7d" height="35" width="35" x="360" y="360" /><rect fill="#94ff98" height="35" width="35" x="396" y="360" /><rect fill="#010002" height="35" width="35" x="432" y="360" /><rect fill="#000000" height="35" width="35" x="468" y="360" /><rect fill="#000000" height="35" width="35" x="504" y="360" /><rect fill="#000002" height="35" width="35" x="540" y="360" /><rect fill="#000000" height="35" width="35" x="0" y="396" /><rect fill="#000000" height="35" width="35" x="36" y="396" /><rect fill="#040004" height="35" width="35" x="72" y="396" /><rect fill="#5bfc5e" height="35" width="35" x="108" y="396" /><rect fill="#5dfd5f" height="35" width="35" x="144" y="396" /><rect fill="#7bfb7b" height="35" width="35" x="180" y="396" /><rect fill="#7cfc7f" height="35" width="35" x="216" y="396" /><rect fill="#7efb7d" height="35" width="35" x="252" y="396" /><rect fill="#7cfc7d" height="35" width="35" x="288" y="396" /><rect fill="#7dfa7b" height="35" width="35" x="324" y="396" /><rect fill="#79fb7a" height="35" width="35" x="360" y="396" /><rect fill="#5dfd5f" height="35" width="35" x="396" y="396" /><rect fill="#5efc5d" height="35" width="35" x="432" y="396" /><rect fill="#000100" height="35" width="35" x="468" y="396" /><rect fill="#000000" height="35" width="35" x="504" y="396" /><rect fill="#000000" height="35" width="35" x="540" y="396" /><rect fill="#000000" height="35" width="35" x="0" y="432" /><rect fill="#000000" height="35" width="35" x="36" y="432" /><rect fill="#4bfd4c" height="35" width="35" x="72" y="432" /><rect fill="#4afc4b" height="35" width="35" x="108" y="432" /><rect fill="#4afc4d" height="35" width="35" x="144" y="432" /><rect fill="#5dfb5e" height="35" width="35" x="180" y="432" /><rect fill="#5efc5f" height="35" width="35" x="216" y="432" /><rect fill="#5bfc5e" height="35" width="35" x="252" y="432" /><rect fill="#5bfc5e" height="35" width="35" x="288" y="432" /><rect fill="#5dfb5e" height="35" width="35" x="324" y="432" /><rect fill="#5bfc5e" height="35" width="35" x="360" y="432" /><rect fill="#4afc4b" height="35" width="35" x="396" y="432" /><rect fill="#4dfc4e" height="35" width="35" x="432" y="432" /><rect fill="#4afc4b" height="35" width="35" x="468" y="432" /><rect fill="#000000" height="35" width="35" x="504" y="432" /><rect fill="#000000" height="35" width="35" x="540" y="432" /><rect fill="#000000" height="35" width="35" x="0" y="468" /><rect fill="#000000" height="35" width="35" x="36" y="468" /><rect fill="#000000" height="35" width="35" x="72" y="468" /><rect fill="#000000" height="35" width="35" x="108" y="468" /><rect fill="#000001" height="35" width="35" x="144" y="468" /><rect fill="#4efb4b" height="35" width="35" x="180" y="468" /><rect fill="#4cfc4b" height="35" width="35" x="216" y="468" /><rect fill="#4afc49" height="35" width="35" x="252" y="468" /><rect fill="#4afc4e" height="35" width="35" x="288" y="468" /><rect fill="#4dfd4c" height="35" width="35" x="324" y="468" /><rect fill="#4afe4c" height="35" width="35" x="360" y="468" /><rect fill="#010000" height="35" width="35" x="396" y="468" /><rect fill="#000000" height="35" width="35" x="432" y="468" /><rect fill="#000000" height="35" width="35" x="468" y="468" /><rect fill="#000000" height="35" width="35" x="504" y="468" /><rect fill="#000000" height="35" width="35" x="540" y="468" /><rect fill="#000000" height="35" width="35" x="0" y="504" /><rect fill="#000000" height="35" width="35" x="36" y="504" /><rect fill="#000000" height="35" width="35" x="72" y="504" /><rect fill="#000000" height="35" width="35" x="108" y="504" /><rect fill="#000000" height="35" width="35" x="144" y="504" /><rect fill="#000000" height="35" width="35" x="180" y="504" /><rect fill="#000000" height="35" width="35" x="216" y="504" /><rect fill="#fc7d36" height="35" width="35" x="252" y="504" /><rect fill="#fc9e6a" height="35" width="35" x="288" y="504" /><rect fill="#000000" height="35" width="35" x="324" y="504" /><rect fill="#000000" height="35" width="35" x="360" y="504" /><rect fill="#000000" height="35" width="35" x="396" y="504" /><rect fill="#000000" height="35" width="35" x="432" y="504" /><rect fill="#000000" height="35" width="35" x="468" y="504" /><rect fill="#000000" height="35" width="35" x="504" y="504" /><rect fill="#000000" height="35" width="35" x="540" y="504" /><rect fill="#000000" height="35" width="35" x="0" y="540" /><rect fill="#000000" height="35" width="35" x="36" y="540" /><rect fill="#000000" height="35" width="35" x="72" y="540" /><rect fill="#000000" height="35" width="35" x="108" y="540" /><rect fill="#000000" height="35" width="35" x="144" y="540" /><rect fill="#000000" height="35" width="35" x="180" y="540" /><rect fill="#000000" height="35" width="35" x="216" y="540" /><rect fill="#fc8744" height="35" width="35" x="252" y="540" /><rect fill="#feac7f" height="35" width="35" x="288" y="540" /><rect fill="#000000" height="35" width="35" x="324" y="540" /><rect fill="#000000" height="35" width="35" x="360" y="540" /><rect fill="#000000" height="35" width="35" x="396" y="540" /><rect fill="#000000" height="35" width="35" x="432" y="540" /><rect fill="#000000" height="35" width="35" x="468" y="540" /><rect fill="#000000" height="35" width="35" x="504" y="540" /><rect fill="#000000" height="35" width="35" x="540" y="540" /></svg>