<?xml version="1.0" encoding="utf-8" ?>
<svg baseProfile="tiny" height="575" version="1.2" width="575" xmlns="http://www.w3.org/2000/svg" xmlns:ev="http://www.w3.org/2001/xml-events" xmlns:xlink="http://www.w3.org/1999/xlink"><defs /><rect fill="#000000" height="35" width="35" x="0" y="0" /><rect fill="#000000" height="35" width="35" x="36" y="0" /><rect fill="#000000" height="35" width="35" x="72" y="0" /><rect fill="#000000" height="35" width="35" x="108" y="0" /><rect fill="#000000" height="35" width="35" x="144" y="0" /><rect fill="#000000" height="35" width="35" x="180" y="0" /><rect fill="#000000" height="35" width="35" x="216" y="0" /><rect fill="#000000" height="35" width="35" x="252" y="0" /><rect fill="#000000" height="35" width="35" x="288" y="0" /><rect fill="#000000" height="35" width="35" x="324" y="0" /><rect fill="#000000" height="35" width="35" x="360" y="0" /><rect fill="#000000" height="35" width="35" x="396" y="0" /><rect fill="#000000" height="35" width="35" x="432" y="0" /><rect fill="#000000" height="35" width="35" x="468" y="0" /><rect fill="#000000" height="35" width="35" x="504" y="0" /><rect fill="#000000" height="35" width="35" x="540" y="0" /><rect fill="#000000" height="35" width="35" x="0" y="36" /><rect fill="#000000" height="35" width="35" x="36" y="36" /><rect fill="#000000" height="35" width="35" x="72" y="36" /><rect fill="#000000" height="35" width="35" x="108" y="36" /><rect fill="#000000" height="35" width="35" x="144" y="36" /><rect fill="#000000" height="35" width="35" x="180" y="36" /><rect fill="#000000" height="35" width="35" x="216" y="36" /><rect fill="#000000" height="35" width="35" x="252" y="36" /><rect fill="#000000" height="35" width="35" x="288" y="36" /><rect fill="#000000" height="35" width="35" x="324" y="36" /><rect fill="#000000" height="35" width="35" x="360" y="36" /><rect fill="#000000" height="35" width="35" x="396" y="36" /><rect fill="#000000" height="35" width="35" x="432" y="36" /><rect fill="#000000" height="35" width="35" x="468" y="36" /><rect fill="#000000" height="35" width="35" x="504" y="36" /><rect fill="#000000" height="35" width="35" x="540" y="36" /><rect fill="#000000" height="35" width="35" x="0" y="72" /><rect fill="#000000" height="35" width="35" x="36" y="72" /><rect fill="#000000" height="35" width="35" x="72" y="72" /><rect fill="#000000" height="35" width="35" x="108" y="72" /><rect fill="#000000" height="35" width="35" x="144" y="72" /><rect fill="#000000" height="35" width="35" x="180" y="72" /><rect fill="#000000" height="35" width="35" x="216" y="72" /><rect fill="#000000" height="35" width="35" x="252" y="72" /><rect fill="#000000" height="35" width="35" x="288" y="72" /><rect fill="#000000" height="35" width="35" x="324" y="72" /><rect fill="#000000" height="35" width="35" x="360" y="72" /><rect fill="#000000" height="35" width="35" x="396" y="72" /><rect fill="#000000" height="35" width="35" x="432" y="72" /><rect fill="#000000" height="35" width="35" x="468" y="72" /><rect fill="#000000" height="35" width="35" x="504" y="72" /><rect fill="#000000" height="35" width="35" x="540" y="72" /><rect fill="#000000" height="35" width="35" x="0" y="108" /><rect fill="#000000" height="35" width="35" x="36" y="108" /><rect fill="#000000" height="35" width="35" x="72" y="108" /><rect fill="#000000" height="35" width="35" x="108" y="108" /><rect fill="#000000" height="35" width="35" x="144" y="108" /><rect fill="#000000" height="35" width="35" x="180" y="108" /><rect fill="#000000" height="35" width="35" x="216" y="108" /><rect fill="#000000" height="35" width="35" x="252" y="108" /><rect fill="#0441b4" height="35" width="35" x="288" y="108" /><rect fill="#000000" height="35" width="35" x="324" y="108" /><rect fill="#000000" height="35" width="35" x="360" y="108" /><rect fill="#000000" height="35" width="35" x="396" y="108" /><rect fill="#000000" height="35" width="35" x="432" y="108" /><rect fill="#000000" height="35" width="35" x="468" y="108" /><rect fill="#000000" height="35" width="35" x="504" y="108" /><rect fill="#000000" height="35" width="35" x="540" y="108" /><rect fill="#000000" height="35" width="35" x="0" y="144" /><rect fill="#000000" height="35" width="35" x="36" y="144" /><rect fill="#000000" height="35" width="35" x="72" y="144" /><rect fill="#000000" height="35" width="35" x="108" y="144" /><rect fill="#000000" height="35" width="35" x="144" y="144" /><rect fill="#000000" height="35" width="35" x="180" y="144" /><rect fill="#000000" height="35" width="35" x="216" y="144" /><rect fill="#043fb4" height="35" width="35" x="252" y="144" /><rect fill="#0441b4" height="35" width="35" x="288" y="144" /><rect fill="#000000" height="35" width="35" x="324" y="144" /><rect fill="#000000" height="35" width="35" x="360" y="144" /><rect fill="#000000" height="35" width="35" x="396" y="144" /><rect fill="#0442b4" height="35" width="35" x="432" y="144" /><rect fill="#0442b4" height="35" width="35" x="468" y="144" /><rect fill="#000000" height="35" width="35" x="504" y="144" /><rect fill="#000000" height="35" width="35" x="540" y="144" /><rect fill="#000000" height="35" width="35" x="0" y="180" /><rect fill="#000000" height="35" width="35" x="36" y="180" /><rect fill="#000000" height="35" width="35" x="72" y="180" /><rect fill="#000000" height="35" width="35" x="108" y="180" /><rect fill="#000000" height="35" width="35" x="144" y="180" /><rect fill="#000000" height="35" width="35" x="180" y="180" /><rect fill="#000000" height="35" width="35" x="216" y="180" /><rect fill="#0444b4" height="35" width="35" x="252" y="180" /><rect fill="#044ab4" height="35" width="35" x="288" y="180" /><rect fill="#044fbc" height="35" width="35" x="324" y="180" /><rect fill="#0452bc" height="35" width="35" x="360" y="180" /><rect fill="#0458be" height="35" width="35" x="396" y="180" /><rect fill="#044dba" height="35" width="35" x="432" y="180" /><rect fill="#0440b4" height="35" width="35" x="468" y="180" /><rect fill="#000000" height="35" width="35" x="504" y="180" /><rect fill="#000000" height="35" width="35" x="540" y="180" /><rect fill="#000000" height="35" width="35" x="0" y="216" /><rect fill="#044cb8" height="35" width="35" x="36" y="216" /><rect fill="#044ab8" height="35" width="35" x="72" y="216" /><rect fill="#000000" height="35" width="35" x="108" y="216" /><rect fill="#000000" height="35" width="35" x="144" y="216" /><rect fill="#0452bc" height="35" width="35" x="180" y="216" /><rect fill="#0c82d4" height="35" width="35" x="216" y="216" /><rect fill="#087ed0" height="35" width="35" x="252" y="216" /><rect fill="#0477cc" height="35" width="35" x="288" y="216" /><rect fill="#0465c4" height="35" width="35" x="324" y="216" /><rect fill="#0465c4" height="35" width="35" x="360" y="216" /><rect fill="#046ac6" height="35" width="35" x="396" y="216" /><rect fill="#0467c6" height="35" width="35" x="432" y="216" /><rect fill="#044ab6" height="35" width="35" x="468" y="216" /><rect fill="#000000" height="35" width="35" x="504" y="216" /><rect fill="#000000" height="35" width="35" x="540" y="216" /><rect fill="#000000" height="35" width="35" x="0" y="252" /><rect fill="#044cb8" height="35" width="35" x="36" y="252" /><rect fill="#0458be" height="35" width="35" x="72" y="252" /><rect fill="#0458be" height="35" width="35" x="108" y="252" /><rect fill="#0462c4" height="35" width="35" x="144" y="252" /><rect fill="#0c8ad4" height="35" width="35" x="180" y="252" /><rect fill="#1ea6e2" height="35" width="35" x="216" y="252" /><rect fill="#3cbeea" height="35" width="35" x="252" y="252" /><rect fill="#1ca3e0" height="35" width="35" x="288" y="252" /><rect fill="#0c8ad4" height="35" width="35" x="324" y="252" /><rect fill="#0478cc" height="35" width="35" x="360" y="252" /><rect fill="#0474cc" height="35" width="35" x="396" y="252" /><rect fill="#0464c4" height="35" width="35" x="432" y="252" /><rect fill="#044dba" height="35" width="35" x="468" y="252" /><rect fill="#000000" height="35" width="35" x="504" y="252" /><rect fill="#000000" height="35" width="35" x="540" y="252" /><rect fill="#000000" height="35" width="35" x="0" y="288" /><rect fill="#087ed0" height="35" width="35" x="36" y="288" /><rect fill="#0c8ad4" height="35" width="35" x="72" y="288" /><rect fill="#0470cc" height="35" width="35" x="108" y="288" /><rect fill="#0468c6" height="35" width="35" x="144" y="288" /><rect fill="#0474cc" height="35" width="35" x="180" y="288" /><rect fill="#1498dc" height="35" width="35" x="216" y="288" /><rect fill="#36bae8" height="35" width="35" x="252" y="288" /><rect fill="#2eb5e6" height="35" width="35" x="288" y="288" /><rect fill="#1499dc" height="35" width="35" x="324" y="288" /><rect fill="#0c88d4" height="35" width="35" x="360" y="288" /><rect fill="#1092d8" height="35" width="35" x="396" y="288" /><rect fill="#2cb2e4" height="35" width="35" x="432" y="288" /><rect fill="#046aca" height="35" width="35" x="468" y="288" /><rect fill="#000000" height="35" width="35" x="504" y="288" /><rect fill="#000000" height="35" width="35" x="540" y="288" /><rect fill="#043fb4" height="35" width="35" x="0" y="324" /><rect fill="#3abdea" height="35" width="35" x="36" y="324" /><rect fill="#1ea6e2" height="35" width="35" x="72" y="324" /><rect fill="#067dd0" height="35" width="35" x="108" y="324" /><rect fill="#046ac8" height="35" width="35" x="144" y="324" /><rect fill="#045fc2" height="35" width="35" x="180" y="324" /><rect fill="#0c82d4" height="35" width="35" x="216" y="324" /><rect fill="#1ea5e0" height="35" width="35" x="252" y="324" /><rect fill="#58cfee" height="35" width="35" x="288" y="324" /><rect fill="#a0e7f6" height="35" width="35" x="324" y="324" /><rect fill="#189dde" height="35" width="35" x="360" y="324" /><rect fill="#169bdc" height="35" width="35" x="396" y="324" /><rect fill="#0c8dd6" height="35" width="35" x="432" y="324" /><rect fill="#047cd0" height="35" width="35" x="468" y="324" /><rect fill="#045fc4" height="35" width="35" x="504" y="324" /><rect fill="#000000" height="35" width="35" x="540" y="324" /><rect fill="#047bd0" height="35" width="35" x="0" y="360" /><rect fill="#60d2f0" height="35" width="35" x="36" y="360" /><rect fill="#fcfefc" height="35" width="35" x="72" y="360" /><rect fill="#1ca4e0" height="35" width="35" x="108" y="360" /><rect fill="#0c82d4" height="35" width="35" x="144" y="360" /><rect fill="#0c8ad4" height="35" width="35" x="180" y="360" /><rect fill="#2cb2e4" height="35" width="35" x="216" y="360" /><rect fill="#2eb6e4" height="35" width="35" x="252" y="360" /><rect fill="#fcfefc" height="35" width="35" x="288" y="360" /><rect fill="#fcfefc" height="35" width="35" x="324" y="360" /><rect fill="#d2f5fc" height="35" width="35" x="360" y="360" /><rect fill="#20a6e0" height="35" width="35" x="396" y="360" /><rect fill="#1498dc" height="35" width="35" x="432" y="360" /><rect fill="#1294da" height="35" width="35" x="468" y="360" /><rect fill="#0465c4" height="35" width="35" x="504" y="360" /><rect fill="#000000" height="35" width="35" x="540" y="360" /><rect fill="#047ad0" height="35" width="35" x="0" y="396" /><rect fill="#74daf4" height="35" width="35" x="36" y="396" /><rect fill="#6cd7f4" height="35" width="35" x="72" y="396" /><rect fill="#30b7e8" height="35" width="35" x="108" y="396" /><rect fill="#1093da" height="35" width="35" x="144" y="396" /><rect fill="#0c88d4" height="35" width="35" x="180" y="396" /><rect fill="#1296dc" height="35" width="35" x="216" y="396" /><rect fill="#76dbf4" height="35" width="35" x="252" y="396" /><rect fill="#48c6ec" height="35" width="35" x="288" y="396" /><rect fill="#78dcf4" height="35" width="35" x="324" y="396" /><rect fill="#22a9e4" height="35" width="35" x="360" y="396" /><rect fill="#0c8ad4" height="35" width="35" x="396" y="396" /><rect fill="#0473cc" height="35" width="35" x="432" y="396" /><rect fill="#046fca" height="35" width="35" x="468" y="396" /><rect fill="#0474cc" height="35" width="35" x="504" y="396" /><rect fill="#044db8" height="35" width="35" x="540" y="396" /><rect fill="#0455bc" height="35" width="35" x="0" y="432" /><rect fill="#40c1ec" height="35" width="35" x="36" y="432" /><rect fill="#1ca0dc" height="35" width="35" x="72" y="432" /><rect fill="#1294da" height="35" width="35" x="108" y="432" /><rect fill="#046dca" height="35" width="35" x="144" y="432" /><rect fill="#067dd0" height="35" width="35" x="180" y="432" /><rect fill="#aceaf8" height="35" width="35" x="216" y="432" /><rect fill="#6ed8f4" height="35" width="35" x="252" y="432" /><rect fill="#7addf4" height="35" width="35" x="288" y="432" /><rect fill="#1295dc" height="35" width="35" x="324" y="432" /><rect fill="#0470ca" height="35" width="35" x="360" y="432" /><rect fill="#047ace" height="35" width="35" x="396" y="432" /><rect fill="#087fd2" height="35" width="35" x="432" y="432" /><rect fill="#046ac8" height="35" width="35" x="468" y="432" /><rect fill="#0465c6" height="35" width="35" x="504" y="432" /><rect fill="#000000" height="35" width="35" x="540" y="432" /><rect fill="#0468c6" height="35" width="35" x="0" y="468" /><rect fill="#3abcea" height="35" width="35" x="36" y="468" /><rect fill="#fcfefc" height="35" width="35" x="72" y="468" /><rect fill="#3cc0ec" height="35" width="35" x="108" y="468" /><rect fill="#0a80d2" height="35" width="35" x="144" y="468" /><rect fill="#fcfefc" height="35" width="35" x="180" y="468" /><rect fill="#fcfefc" height="35" width="35" x="216" y="468" /><rect fill="#52ccec" height="35" width="35" x="252" y="468" /><rect fill="#0c8dd4" height="35" width="35" x="288" y="468" /><rect fill="#a8e9fa" height="35" width="35" x="324" y="468" /><rect fill="#fcfefc" height="35" width="35" x="360" y="468" /><rect fill="#fcfefc" height="35" width="35" x="396" y="468" /><rect fill="#fcfefc" height="35" width="35" x="432" y="468" /><rect fill="#fcfefc" height="35" width="35" x="468" y="468" /><rect fill="#1496dc" height="35" width="35" x="504" y="468" /><rect fill="#000000" height="35" width="35" x="540" y="468" /><rect fill="#3cc1ec" height="35" width="35" x="0" y="504" /><rect fill="#fcfefc" height="35" width="35" x="36" y="504" /><rect fill="#30b7e6" height="35" width="35" x="72" y="504" /><rect fill="#0a80d2" height="35" width="35" x="108" y="504" /><rect fill="#067cce" height="35" width="35" x="144" y="504" /><rect fill="#1ca4e0" height="35" width="35" x="180" y="504" /><rect fill="#fcfefc" height="35" width="35" x="216" y="504" /><rect fill="#fcfefc" height="35" width="35" x="252" y="504" /><rect fill="#94e6f4" height="35" width="35" x="288" y="504" /><rect fill="#46c5ec" height="35" width="35" x="324" y="504" /><rect fill="#ccf2fc" height="35" width="35" x="360" y="504" /><rect fill="#6ed8f4" height="35" width="35" x="396" y="504" /><rect fill="#64d2f0" height="35" width="35" x="432" y="504" /><rect fill="#66d4f2" height="35" width="35" x="468" y="504" /><rect fill="#fcfefc" height="35" width="35" x="504" y="504" /><rect fill="#fcfefc" height="35" width="35" x="540" y="504" /><rect fill="#045ec0" height="35" width="35" x="0" y="540" /><rect fill="#067dd0" height="35" width="35" x="36" y="540" /><rect fill="#087ed0" height="35" width="35" x="72" y="540" /><rect fill="#045fc2" height="35" width="35" x="108" y="540" /><rect fill="#1295dc" height="35" width="35" x="144" y="540" /><rect fill="#fcfefc" height="35" width="35" x="180" y="540" /><rect fill="#fcfefc" height="35" width="35" x="216" y="540" /><rect fill="#24aae4" height="35" width="35" x="252" y="540" /><rect fill="#2cb2e4" height="35" width="35" x="288" y="540" /><rect fill="#0454bc" height="35" width="35" x="324" y="540" /><rect fill="#0453bc" height="35" width="35" x="360" y="540" /><rect fill="#1092d8" height="35" width="35" x="396" y="540" /><rect fill="#0462c4" height="35" width="35" x="432" y="540" /><rect fill="#0c8bd4" height="35" width="35" x="468" y="540" /><rect fill="#50cbec" height="35" width="35" x="504" y="540" /><rect fill="#0451bc" height="35" width="35" x="540" y="540" /></svg>