<?xml version="1.0" encoding="utf-8" ?>
<svg baseProfile="tiny" height="575" version="1.2" width="575" xmlns="http://www.w3.org/2000/svg" xmlns:ev="http://www.w3.org/2001/xml-events" xmlns:xlink="http://www.w3.org/1999/xlink"><defs /><rect fill="#ffff00" height="35" width="35" x="0" y="0" /><rect fill="#fcef01" height="35" width="35" x="36" y="0" /><rect fill="#fffdff" height="35" width="35" x="72" y="0" /><rect fill="#ffffff" height="35" width="35" x="108" y="0" /><rect fill="#ffffff" height="35" width="35" x="144" y="0" /><rect fill="#ffffff" height="35" width="35" x="180" y="0" /><rect fill="#fffffe" height="35" width="35" x="216" y="0" /><rect fill="#fefefe" height="35" width="35" x="252" y="0" /><rect fill="#ffffff" height="35" width="35" x="288" y="0" /><rect fill="#ffffff" height="35" width="35" x="324" y="0" /><rect fill="#ffffff" height="35" width="35" x="360" y="0" /><rect fill="#feffff" height="35" width="35" x="396" y="0" /><rect fill="#fffdfe" height="35" width="35" x="432" y="0" /><rect fill="#fffeff" height="35" width="35" x="468" y="0" /><rect fill="#ffee04" height="35" width="35" x="504" y="0" /><rect fill="#fffe03" height="35" width="35" x="540" y="0" /><rect fill="#feff00" height="35" width="35" x="0" y="36" /><rect fill="#fff000" height="35" width="35" x="36" y="36" /><rect fill="#ffffff" height="35" width="35" x="72" y="36" /><rect fill="#ffffff" height="35" width="35" x="108" y="36" /><rect fill="#ffffff" height="35" width="35" x="144" y="36" /><rect fill="#ffffff" height="35" width="35" x="180" y="36" /><rect fill="#ffffff" height="35" width="35" x="216" y="36" /><rect fill="#ffffff" height="35" width="35" x="252" y="36" /><rect fill="#ffffff" height="35" width="35" x="288" y="36" /><rect fill="#ffffff" height="35" width="35" x="324" y="36" /><rect fill="#ffffff" height="35" width="35" x="360" y="36" /><rect fill="#ffffff" height="35" width="35" x="396" y="36" /><rect fill="#ffffff" height="35" width="35" x="432" y="36" /><rect fill="#ffffff" height="35" width="35" x="468" y="36" /><rect fill="#fdef00" height="35" width="35" x="504" y="36" /><rect fill="#ffff00" height="35" width="35" x="540" y="36" /><rect fill="#feff00" height="35" width="35" x="0" y="72" /><rect fill="#fdef00" height="35" width="35" x="36" y="72" /><rect fill="#feef01" height="35" width="35" x="72" y="72" /><rect fill="#ffffff" height="35" width="35" x="108" y="72" /><rect fill="#fefefe" height="35" width="35" x="144" y="72" /><rect fill="#ffffff" height="35" width="35" x="180" y="72" /><rect fill="#ffffff" height="35" width="35" x="216" y="72" /><rect fill="#ffffff" height="35" width="35" x="252" y="72" /><rect fill="#ffffff" height="35" width="35" x="288" y="72" /><rect fill="#ffffff" height="35" width="35" x="324" y="72" /><rect fill="#ffffff" height="35" width="35" x="360" y="72" /><rect fill="#ffffff" height="35" width="35" x="396" y="72" /><rect fill="#ffffff" height="35" width="35" x="432" y="72" /><rect fill="#ffee00" height="35" width="35" x="468" y="72" /><rect fill="#fdef00" height="35" width="35" x="504" y="72" /><rect fill="#feff00" height="35" width="35" x="540" y="72" /><rect fill="#feff00" height="35" width="35" x="0" y="108" /><rect fill="#fefd00" height="35" width="35" x="36" y="108" /><rect fill="#ffef00" height="35" width="35" x="72" y="108" /><rect fill="#fdef00" height="35" width="35" x="108" y="108" /><rect fill="#fefeff" height="35" width="35" x="144" y="108" /><rect fill="#ffffff" height="35" width="35" x="180" y="108" /><rect fill="#ffffff" height="35" width="35" x="216" y="108" /><rect fill="#ffffff" height="35" width="35" x="252" y="108" /><rect fill="#ffffff" height="35" width="35" x="288" y="108" /><rect fill="#ffffff" height="35" width="35" x="324" y="108" /><rect fill="#ffffff" height="35" width="35" x="360" y="108" /><rect fill="#ffffff" height="35" width="35" x="396" y="108" /><rect fill="#fbec02" height="35" width="35" x="432" y="108" /><rect fill="#fdef00" height="35" width="35" x="468" y="108" /><rect fill="#feff00" height="35" width="35" x="504" y="108" /><rect fill="#ffff03" height="35" width="35" x="540" y="108" /><rect fill="#fbfd7b" height="35" width="35" x="0" y="144" /><rect fill="#fffd00" height="35" width="35" x="36" y="144" /><rect fill="#fdfe00" height="35" width="35" x="72" y="144" /><rect fill="#fdee00" height="35" width="35" x="108" y="144" /><rect fill="#fdef00" height="35" width="35" x="144" y="144" /><rect fill="#fffeff" height="35" width="35" x="180" y="144" /><rect fill="#ffffff" height="35" width="35" x="216" y="144" /><rect fill="#ffffff" height="35" width="35" x="252" y="144" /><rect fill="#ffffff" height="35" width="35" x="288" y="144" /><rect fill="#ffffff" height="35" width="35" x="324" y="144" /><rect fill="#ffffff" height="35" width="35" x="360" y="144" /><rect fill="#feed00" height="35" width="35" x="396" y="144" /><rect fill="#feef00" height="35" width="35" x="432" y="144" /><rect fill="#fcfe00" height="35" width="35" x="468" y="144" /><rect fill="#fdff00" height="35" width="35" x="504" y="144" /><rect fill="#fbfd81" height="35" width="35" x="540" y="144" /><rect fill="#fafd7b" height="35" width="35" x="0" y="180" /><rect fill="#f8fb7b" height="35" width="35" x="36" y="180" /><rect fill="#ffff00" height="35" width="35" x="72" y="180" /><rect fill="#feff00" height="35" width="35" x="108" y="180" /><rect fill="#fdef00" height="35" width="35" x="144" y="180" /><rect fill="#fff000" height="35" width="35" x="180" y="180" /><rect fill="#fff000" height="35" width="35" x="216" y="180" /><rect fill="#fff000" height="35" width="35" x="252" y="180" /><rect fill="#fdef00" height="35" width="35" x="288" y="180" /><rect fill="#fdef00" height="35" width="35" x="324" y="180" /><rect fill="#fdef00" height="35" width="35" x="360" y="180" /><rect fill="#fdef00" height="35" width="35" x="396" y="180" /><rect fill="#fbfe00" height="35" width="35" x="432" y="180" /><rect fill="#feff00" height="35" width="35" x="468" y="180" /><rect fill="#fbfc7c" height="35" width="35" x="504" y="180" /><rect fill="#fbfd7b" height="35" width="35" x="540" y="180" /><rect fill="#fafade" height="35" width="35" x="0" y="216" /><rect fill="#fbfe78" height="35" width="35" x="36" y="216" /><rect fill="#fcff7a" height="35" width="35" x="72" y="216" /><rect fill="#feff00" height="35" width="35" x="108" y="216" /><rect fill="#faff00" height="35" width="35" x="144" y="216" /><rect fill="#fdfe00" height="35" width="35" x="180" y="216" /><rect fill="#feff00" height="35" width="35" x="216" y="216" /><rect fill="#fdfe00" height="35" width="35" x="252" y="216" /><rect fill="#feff00" height="35" width="35" x="288" y="216" /><rect fill="#ffff00" height="35" width="35" x="324" y="216" /><rect fill="#feff00" height="35" width="35" x="360" y="216" /><rect fill="#ffff00" height="35" width="35" x="396" y="216" /><rect fill="#fbff00" height="35" width="35" x="432" y="216" /><rect fill="#f9fc78" height="35" width="35" x="468" y="216" /><rect fill="#fbfd7b" height="35" width="35" x="504" y="216" /><rect fill="#faf8de" height="35" width="35" x="540" y="216" /><rect fill="#f7f8dc" height="35" width="35" x="0" y="252" /><rect fill="#fdf9de" height="35" width="35" x="36" y="252" /><rect fill="#fdff7b" height="35" width="35" x="72" y="252" /><rect fill="#fbfe79" height="35" width="35" x="108" y="252" /><rect fill="#faff01" height="35" width="35" x="144" y="252" /><rect fill="#fdfe00" height="35" width="35" x="180" y="252" /><rect fill="#feff00" height="35" width="35" x="216" y="252" /><rect fill="#feff00" height="35" width="35" x="252" y="252" /><rect fill="#feff00" height="35" width="35" x="288" y="252" /><rect fill="#fefe04" height="35" width="35" x="324" y="252" /><rect fill="#feff00" height="35" width="35" x="360" y="252" /><rect fill="#ffff01" height="35" width="35" x="396" y="252" /><rect fill="#fbfd80" height="35" width="35" x="432" y="252" /><rect fill="#fcff82" height="35" width="35" x="468" y="252" /><rect fill="#f7f8da" height="35" width="35" x="504" y="252" /><rect fill="#faf8e0" height="35" width="35" x="540" y="252" /><rect fill="#ffffff" height="35" width="35" x="0" y="288" /><rect fill="#faf8e0" height="35" width="35" x="36" y="288" /><rect fill="#f9f9e0" height="35" width="35" x="72" y="288" /><rect fill="#f9f9de" height="35" width="35" x="108" y="288" /><rect fill="#fbfd7d" height="35" width="35" x="144" y="288" /><rect fill="#fbfd7b" height="35" width="35" x="180" y="288" /><rect fill="#fbfd7b" height="35" width="35" x="216" y="288" /><rect fill="#fbfd7b" height="35" width="35" x="252" y="288" /><rect fill="#fbfd7b" height="35" width="35" x="288" y="288" /><rect fill="#fbfd7b" height="35" width="35" x="324" y="288" /><rect fill="#fbfd7d" height="35" width="35" x="360" y="288" /><rect fill="#fbfd7b" height="35" width="35" x="396" y="288" /><rect fill="#f9f9de" height="35" width="35" x="432" y="288" /><rect fill="#f9f9de" height="35" width="35" x="468" y="288" /><rect fill="#f9f9de" height="35" width="35" x="504" y="288" /><rect fill="#ffffff" height="35" width="35" x="540" y="288" /><rect fill="#ffffff" height="35" width="35" x="0" y="324" /><rect fill="#fffffe" height="35" width="35" x="36" y="324" /><rect fill="#ffffff" height="35" width="35" x="72" y="324" /><rect fill="#f9f9de" height="35" width="35" x="108" y="324" /><rect fill="#fafadf" height="35" width="35" x="144" y="324" /><rect fill="#fafade" height="35" width="35" x="180" y="324" /><rect fill="#fcfade" height="35" width="35" x="216" y="324" /><rect fill="#f9f7dc" height="35" width="35" x="252" y="324" /><rect fill="#f9f7dc" height="35" width="35" x="288" y="324" /><rect fill="#fafade" height="35" width="35" x="324" y="324" /><rect fill="#f6f7db" height="35" width="35" x="360" y="324" /><rect fill="#fafade" height="35" width="35" x="396" y="324" /><rect fill="#f9f9de" height="35" width="35" x="432" y="324" /><rect fill="#fefcfb" height="35" width="35" x="468" y="324" /><rect fill="#fefefc" height="35" width="35" x="504" y="324" /><rect fill="#ffffff" height="35" width="35" x="540" y="324" /><rect fill="#000104" height="35" width="35" x="0" y="360" /><rect fill="#010101" height="35" width="35" x="36" y="360" /><rect fill="#fefefe" height="35" width="35" x="72" y="360" /><rect fill="#fefefc" height="35" width="35" x="108" y="360" /><rect fill="#fffefc" height="35" width="35" x="144" y="360" /><rect fill="#f7f7de" height="35" width="35" x="180" y="360" /><rect fill="#faf9de" height="35" width="35" x="216" y="360" /><rect fill="#f9f7de" height="35" width="35" x="252" y="360" /><rect fill="#faf9de" height="35" width="35" x="288" y="360" /><rect fill="#faf9df" height="35" width="35" x="324" y="360" /><rect fill="#faf8df" height="35" width="35" x="360" y="360" /><rect fill="#fafadf" height="35" width="35" x="396" y="360" /><rect fill="#fefefe" height="35" width="35" x="432" y="360" /><rect fill="#fefefa" height="35" width="35" x="468" y="360" /><rect fill="#010100" height="35" width="35" x="504" y="360" /><rect fill="#010103" height="35" width="35" x="540" y="360" /><rect fill="#000000" height="35" width="35" x="0" y="396" /><rect fill="#000000" height="35" width="35" x="36" y="396" /><rect fill="#000000" height="35" width="35" x="72" y="396" /><rect fill="#daffdb" height="35" width="35" x="108" y="396" /><rect fill="#fffeff" height="35" width="35" x="144" y="396" /><rect fill="#fffeff" height="35" width="35" x="180" y="396" /><rect fill="#ffffff" height="35" width="35" x="216" y="396" /><rect fill="#ffffff" height="35" width="35" x="252" y="396" /><rect fill="#ffffff" height="35" width="35" x="288" y="396" /><rect fill="#ffffff" height="35" width="35" x="324" y="396" /><rect fill="#fefefe" height="35" width="35" x="360" y="396" /><rect fill="#ffffff" height="35" width="35" x="396" y="396" /><rect fill="#dcffdd" height="35" width="35" x="432" y="396" /><rect fill="#000000" height="35" width="35" x="468" y="396" /><rect fill="#000000" height="35" width="35" x="504" y="396" /><rect fill="#000000" height="35" width="35" x="540" y="396" /><rect fill="#000000" height="35" width="35" x="0" y="432" /><rect fill="#000000" height="35" width="35" x="36" y="432" /><rect fill="#c6fdca" height="35" width="35" x="72" y="432" /><rect fill="#c9fec9" height="35" width="35" x="108" y="432" /><rect fill="#c9fec9" height="35" width="35" x="144" y="432" /><rect fill="#dbffdc" height="35" width="35" x="180" y="432" /><rect fill="#dbffd8" height="35" width="35" x="216" y="432" /><rect fill="#daffd9" height="35" width="35" x="252" y="432" /><rect fill="#dbffdb" height="35" width="35" x="288" y="432" /><rect fill="#daffd9" height="35" width="35" x="324" y="432" /><rect fill="#daffd9" height="35" width="35" x="360" y="432" /><rect fill="#c9fec9" height="35" width="35" x="396" y="432" /><rect fill="#c9fec9" height="35" width="35" x="432" y="432" /><rect fill="#c9fec9" height="35" width="35" x="468" y="432" /><rect fill="#000000" height="35" width="35" x="504" y="432" /><rect fill="#000000" height="35" width="35" x="540" y="432" /><rect fill="#000000" height="35" width="35" x="0" y="468" /><rect fill="#000000" height="35" width="35" x="36" y="468" /><rect fill="#000100" height="35" width="35" x="72" y="468" /><rect fill="#000100" height="35" width="35" x="108" y="468" /><rect fill="#000100" height="35" width="35" x="144" y="468" /><rect fill="#cdffce" height="35" width="35" x="180" y="468" /><rect fill="#cbffca" height="35" width="35" x="216" y="468" /><rect fill="#c9fec9" height="35" width="35" x="252" y="468" /><rect fill="#c9fec9" height="35" width="35" x="288" y="468" /><rect fill="#cbffcb" height="35" width="35" x="324" y="468" /><rect fill="#c9fec9" height="35" width="35" x="360" y="468" /><rect fill="#000101" height="35" width="35" x="396" y="468" /><rect fill="#000100" height="35" width="35" x="432" y="468" /><rect fill="#000100" height="35" width="35" x="468" y="468" /><rect fill="#000000" height="35" width="35" x="504" y="468" /><rect fill="#000000" height="35" width="35" x="540" y="468" /><rect fill="#000000" height="35" width="35" x="0" y="504" /><rect fill="#000000" height="35" width="35" x="36" y="504" /><rect fill="#000000" height="35" width="35" x="72" y="504" /><rect fill="#000000" height="35" width="35" x="108" y="504" /><rect fill="#000000" height="35" width="35" x="144" y="504" /><rect fill="#000000" height="35" width="35" x="180" y="504" /><rect fill="#000000" height="35" width="35" x="216" y="504" /><rect fill="#fcd0b8" height="35" width="35" x="252" y="504" /><rect fill="#fbf5ef" height="35" width="35" x="288" y="504" /><rect fill="#000000" height="35" width="35" x="324" y="504" /><rect fill="#000000" height="35" width="35" x="360" y="504" /><rect fill="#000000" height="35" width="35" x="396" y="504" /><rect fill="#000000" height="35" width="35" x="432" y="504" /><rect fill="#000000" height="35" width="35" x="468" y="504" /><rect fill="#000000" height="35" width="35" x="504" y="504" /><rect fill="#000000" height="35" width="35" x="540" y="504" /><rect fill="#000000" height="35" width="35" x="0" y="540" /><rect fill="#000000" height="35" width="35" x="36" y="540" /><rect fill="#000000" height="35" width="35" x="72" y="540" /><rect fill="#000000" height="35" width="35" x="108" y="540" /><rect fill="#000000" height="35" width="35" x="144" y="540" /><rect fill="#000000" height="35" width="35" x="180" y="540" /><rect fill="#000000" height="35" width="35" x="216" y="540" /><rect fill="#fddbc5" height="35" width="35" x="252" y="540" /><rect fill="#fffffd" height="35" width="35" x="288" y="540" /><rect fill="#000000" height="35" width="35" x="324" y="540" /><rect fill="#000000" height="35" width="35" x="360" y="540" /><rect fill="#000000" height="35" width="35" x="396" y="540" /><rect fill="#000000" height="35" width="35" x="432" y="540" /><rect fill="#000000" height="35" width="35" x="468" y="540" /><rect fill="#000000" height="35" width="35" x="504" y="540" /><rect fill="#000000" height="35" width="35" x="540" y="540" /></svg>