<?xml version="1.0" encoding="utf-8" ?>
<svg baseProfile="tiny" height="575" version="1.2" width="575" xmlns="http://www.w3.org/2000/svg" xmlns:ev="http://www.w3.org/2001/xml-events" xmlns:xlink="http://www.w3.org/1999/xlink"><defs /><rect fill="#fefdfe" height="35" width="35" x="0" y="0" /><rect fill="#ffffff" height="35" width="35" x="36" y="0" /><rect fill="#fffdff" height="35" width="35" x="72" y="0" /><rect fill="#ffffff" height="35" width="35" x="108" y="0" /><rect fill="#ffffff" height="35" width="35" x="144" y="0" /><rect fill="#ffffff" height="35" width="35" x="180" y="0" /><rect fill="#fffffe" height="35" width="35" x="216" y="0" /><rect fill="#fefefe" height="35" width="35" x="252" y="0" /><rect fill="#ffffff" height="35" width="35" x="288" y="0" /><rect fill="#ffffff" height="35" width="35" x="324" y="0" /><rect fill="#ffffff" height="35" width="35" x="360" y="0" /><rect fill="#feffff" height="35" width="35" x="396" y="0" /><rect fill="#fffdfe" height="35" width="35" x="432" y="0" /><rect fill="#fffeff" height="35" width="35" x="468" y="0" /><rect fill="#feffff" height="35" width="35" x="504" y="0" /><rect fill="#ffffff" height="35" width="35" x="540" y="0" /><rect fill="#ffffff" height="35" width="35" x="0" y="36" /><rect fill="#ffffff" height="35" width="35" x="36" y="36" /><rect fill="#ffffff" height="35" width="35" x="72" y="36" /><rect fill="#ffffff" height="35" width="35" x="108" y="36" /><rect fill="#ffffff" height="35" width="35" x="144" y="36" /><rect fill="#ffffff" height="35" width="35" x="180" y="36" /><rect fill="#ffffff" height="35" width="35" x="216" y="36" /><rect fill="#ffffff" height="35" width="35" x="252" y="36" /><rect fill="#ffffff" height="35" width="35" x="288" y="36" /><rect fill="#ffffff" height="35" width="35" x="324" y="36" /><rect fill="#ffffff" height="35" width="35" x="360" y="36" /><rect fill="#ffffff" height="35" width="35" x="396" y="36" /><rect fill="#ffffff" height="35" width="35" x="432" y="36" /><rect fill="#ffffff" height="35" width="35" x="468" y="36" /><rect fill="#ffffff" height="35" width="35" x="504" y="36" /><rect fill="#ffffff" height="35" width="35" x="540" y="36" /><rect fill="#fdfdfd" height="35" width="35" x="0" y="72" /><rect fill="#fefefe" height="35" width="35" x="36" y="72" /><rect fill="#fefefe" height="35" width="35" x="72" y="72" /><rect fill="#ffffff" height="35" width="35" x="108" y="72" /><rect fill="#fefefe" height="35" width="35" x="144" y="72" /><rect fill="#ffffff" height="35" width="35" x="180" y="72" /><rect fill="#ffffff" height="35" width="35" x="216" y="72" /><rect fill="#ffffff" height="35" width="35" x="252" y="72" /><rect fill="#ffffff" height="35" width="35" x="288" y="72" /><rect fill="#ffffff" height="35" width="35" x="324" y="72" /><rect fill="#ffffff" height="35" width="35" x="360" y="72" /><rect fill="#ffffff" height="35" width="35" x="396" y="72" /><rect fill="#ffffff" height="35" width="35" x="432" y="72" /><rect fill="#ffffff" height="35" width="35" x="468" y="72" /><rect fill="#ffffff" height="35" width="35" x="504" y="72" /><rect fill="#ffffff" height="35" width="35" x="540" y="72" /><rect fill="#ffffff" height="35" width="35" x="0" y="108" /><rect fill="#ffffff" height="35" width="35" x="36" y="108" /><rect fill="#fefefe" height="35" width="35" x="72" y="108" /><rect fill="#ffffff" height="35" width="35" x="108" y="108" /><rect fill="#ffffff" height="35" width="35" x="144" y="108" /><rect fill="#ffffff" height="35" width="35" x="180" y="108" /><rect fill="#ffffff" height="35" width="35" x="216" y="108" /><rect fill="#ffffff" height="35" width="35" x="252" y="108" /><rect fill="#ffffff" height="35" width="35" x="288" y="108" /><rect fill="#ffffff" height="35" width="35" x="324" y="108" /><rect fill="#ffffff" height="35" width="35" x="360" y="108" /><rect fill="#ffffff" height="35" width="35" x="396" y="108" /><rect fill="#ffffff" height="35" width="35" x="432" y="108" /><rect fill="#feffff" height="35" width="35" x="468" y="108" /><rect fill="#ffffff" height="35" width="35" x="504" y="108" /><rect fill="#ffffff" height="35" width="35" x="540" y="108" /><rect fill="#ffffff" height="35" width="35" x="0" y="144" /><rect fill="#ffffff" height="35" width="35" x="36" y="144" /><rect fill="#ffffff" height="35" width="35" x="72" y="144" /><rect fill="#ffffff" height="35" width="35" x="108" y="144" /><rect fill="#fefefe" height="35" width="35" x="144" y="144" /><rect fill="#ffffff" height="35" width="35" x="180" y="144" /><rect fill="#ffffff" height="35" width="35" x="216" y="144" /><rect fill="#ffffff" height="35" width="35" x="252" y="144" /><rect fill="#ffffff" height="35" width="35" x="288" y="144" /><rect fill="#ffffff" height="35" width="35" x="324" y="144" /><rect fill="#ffffff" height="35" width="35" x="360" y="144" /><rect fill="#fffeff" height="35" width="35" x="396" y="144" /><rect fill="#ffffff" height="35" width="35" x="432" y="144" /><rect fill="#ffffff" height="35" width="35" x="468" y="144" /><rect fill="#ffffff" height="35" width="35" x="504" y="144" /><rect fill="#ffffff" height="35" width="35" x="540" y="144" /><rect fill="#ffffff" height="35" width="35" x="0" y="180" /><rect fill="#ffffff" height="35" width="35" x="36" y="180" /><rect fill="#ffffff" height="35" width="35" x="72" y="180" /><rect fill="#ffffff" height="35" width="35" x="108" y="180" /><rect fill="#ffffff" height="35" width="35" x="144" y="180" /><rect fill="#ffffff" height="35" width="35" x="180" y="180" /><rect fill="#ffffff" height="35" width="35" x="216" y="180" /><rect fill="#ffffff" height="35" width="35" x="252" y="180" /><rect fill="#ffffff" height="35" width="35" x="288" y="180" /><rect fill="#ffffff" height="35" width="35" x="324" y="180" /><rect fill="#ffffff" height="35" width="35" x="360" y="180" /><rect fill="#ffffff" height="35" width="35" x="396" y="180" /><rect fill="#ffffff" height="35" width="35" x="432" y="180" /><rect fill="#ffffff" height="35" width="35" x="468" y="180" /><rect fill="#ffffff" height="35" width="35" x="504" y="180" /><rect fill="#ffffff" height="35" width="35" x="540" y="180" /><rect fill="#ffffff" height="35" width="35" x="0" y="216" /><rect fill="#ffffff" height="35" width="35" x="36" y="216" /><rect fill="#ffffff" height="35" width="35" x="72" y="216" /><rect fill="#ffffff" height="35" width="35" x="108" y="216" /><rect fill="#ffffff" height="35" width="35" x="144" y="216" /><rect fill="#ffffff" height="35" width="35" x="180" y="216" /><rect fill="#ffffff" height="35" width="35" x="216" y="216" /><rect fill="#ffffff" height="35" width="35" x="252" y="216" /><rect fill="#ffffff" height="35" width="35" x="288" y="216" /><rect fill="#ffffff" height="35" width="35" x="324" y="216" /><rect fill="#fffffd" height="35" width="35" x="360" y="216" /><rect fill="#ffffff" height="35" width="35" x="396" y="216" /><rect fill="#ffffff" height="35" width="35" x="432" y="216" /><rect fill="#ffffff" height="35" width="35" x="468" y="216" /><rect fill="#ffffff" height="35" width="35" x="504" y="216" /><rect fill="#ffffff" height="35" width="35" x="540" y="216" /><rect fill="#ffffff" height="35" width="35" x="0" y="252" /><rect fill="#ffffff" height="35" width="35" x="36" y="252" /><rect fill="#ffffff" height="35" width="35" x="72" y="252" /><rect fill="#ffffff" height="35" width="35" x="108" y="252" /><rect fill="#ffffff" height="35" width="35" x="144" y="252" /><rect fill="#ffffff" height="35" width="35" x="180" y="252" /><rect fill="#ffffff" height="35" width="35" x="216" y="252" /><rect fill="#ffffff" height="35" width="35" x="252" y="252" /><rect fill="#ffffff" height="35" width="35" x="288" y="252" /><rect fill="#ffffff" height="35" width="35" x="324" y="252" /><rect fill="#ffffff" height="35" width="35" x="360" y="252" /><rect fill="#ffffff" height="35" width="35" x="396" y="252" /><rect fill="#ffffff" height="35" width="35" x="432" y="252" /><rect fill="#ffffff" height="35" width="35" x="468" y="252" /><rect fill="#ffffff" height="35" width="35" x="504" y="252" /><rect fill="#ffffff" height="35" width="35" x="540" y="252" /><rect fill="#ffffff" height="35" width="35" x="0" y="288" /><rect fill="#ffffff" height="35" width="35" x="36" y="288" /><rect fill="#ffffff" height="35" width="35" x="72" y="288" /><rect fill="#ffffff" height="35" width="35" x="108" y="288" /><rect fill="#ffffff" height="35" width="35" x="144" y="288" /><rect fill="#ffffff" height="35" width="35" x="180" y="288" /><rect fill="#ffffff" height="35" width="35" x="216" y="288" /><rect fill="#ffffff" height="35" width="35" x="252" y="288" /><rect fill="#ffffff" height="35" width="35" x="288" y="288" /><rect fill="#ffffff" height="35" width="35" x="324" y="288" /><rect fill="#ffffff" height="35" width="35" x="360" y="288" /><rect fill="#ffffff" height="35" width="35" x="396" y="288" /><rect fill="#ffffff" height="35" width="35" x="432" y="288" /><rect fill="#ffffff" height="35" width="35" x="468" y="288" /><rect fill="#ffffff" height="35" width="35" x="504" y="288" /><rect fill="#ffffff" height="35" width="35" x="540" y="288" /><rect fill="#fdef00" height="35" width="35" x="0" y="324" /><rect fill="#fdfdfd" height="35" width="35" x="36" y="324" /><rect fill="#ffffff" height="35" width="35" x="72" y="324" /><rect fill="#ffffff" height="35" width="35" x="108" y="324" /><rect fill="#ffffff" height="35" width="35" x="144" y="324" /><rect fill="#ffffff" height="35" width="35" x="180" y="324" /><rect fill="#ffffff" height="35" width="35" x="216" y="324" /><rect fill="#ffffff" height="35" width="35" x="252" y="324" /><rect fill="#ffffff" height="35" width="35" x="288" y="324" /><rect fill="#ffffff" height="35" width="35" x="324" y="324" /><rect fill="#ffffff" height="35" width="35" x="360" y="324" /><rect fill="#ffffff" height="35" width="35" x="396" y="324" /><rect fill="#fefefe" height="35" width="35" x="432" y="324" /><rect fill="#fefefe" height="35" width="35" x="468" y="324" /><rect fill="#ffffff" height="35" width="35" x="504" y="324" /><rect fill="#fff000" height="35" width="35" x="540" y="324" /><rect fill="#fdef00" height="35" width="35" x="0" y="360" /><rect fill="#fdf201" height="35" width="35" x="36" y="360" /><rect fill="#fefefe" height="35" width="35" x="72" y="360" /><rect fill="#fffffe" height="35" width="35" x="108" y="360" /><rect fill="#ffffff" height="35" width="35" x="144" y="360" /><rect fill="#ffffff" height="35" width="35" x="180" y="360" /><rect fill="#fffffe" height="35" width="35" x="216" y="360" /><rect fill="#ffffff" height="35" width="35" x="252" y="360" /><rect fill="#ffffff" height="35" width="35" x="288" y="360" /><rect fill="#ffffff" height="35" width="35" x="324" y="360" /><rect fill="#ffffff" height="35" width="35" x="360" y="360" /><rect fill="#ffffff" height="35" width="35" x="396" y="360" /><rect fill="#feffff" height="35" width="35" x="432" y="360" /><rect fill="#fffffd" height="35" width="35" x="468" y="360" /><rect fill="#fdef00" height="35" width="35" x="504" y="360" /><rect fill="#fcee00" height="35" width="35" x="540" y="360" /><rect fill="#feff00" height="35" width="35" x="0" y="396" /><rect fill="#fef201" height="35" width="35" x="36" y="396" /><rect fill="#fdef01" height="35" width="35" x="72" y="396" /><rect fill="#fdffff" height="35" width="35" x="108" y="396" /><rect fill="#fdffff" height="35" width="35" x="144" y="396" /><rect fill="#ffffff" height="35" width="35" x="180" y="396" /><rect fill="#ffffff" height="35" width="35" x="216" y="396" /><rect fill="#ffffff" height="35" width="35" x="252" y="396" /><rect fill="#ffffff" height="35" width="35" x="288" y="396" /><rect fill="#ffffff" height="35" width="35" x="324" y="396" /><rect fill="#ffffff" height="35" width="35" x="360" y="396" /><rect fill="#fffffb" height="35" width="35" x="396" y="396" /><rect fill="#fffffc" height="35" width="35" x="432" y="396" /><rect fill="#fdef00" height="35" width="35" x="468" y="396" /><rect fill="#fcef01" height="35" width="35" x="504" y="396" /><rect fill="#feff00" height="35" width="35" x="540" y="396" /><rect fill="#feff00" height="35" width="35" x="0" y="432" /><rect fill="#feff00" height="35" width="35" x="36" y="432" /><rect fill="#fcef01" height="35" width="35" x="72" y="432" /><rect fill="#fdef00" height="35" width="35" x="108" y="432" /><rect fill="#fff000" height="35" width="35" x="144" y="432" /><rect fill="#fffeff" height="35" width="35" x="180" y="432" /><rect fill="#ffffff" height="35" width="35" x="216" y="432" /><rect fill="#ffffff" height="35" width="35" x="252" y="432" /><rect fill="#ffffff" height="35" width="35" x="288" y="432" /><rect fill="#ffffff" height="35" width="35" x="324" y="432" /><rect fill="#ffffff" height="35" width="35" x="360" y="432" /><rect fill="#fcf000" height="35" width="35" x="396" y="432" /><rect fill="#fdef00" height="35" width="35" x="432" y="432" /><rect fill="#fdef00" height="35" width="35" x="468" y="432" /><rect fill="#feff00" height="35" width="35" x="504" y="432" /><rect fill="#fbfd7b" height="35" width="35" x="540" y="432" /><rect fill="#fbfd7c" height="35" width="35" x="0" y="468" /><rect fill="#feff00" height="35" width="35" x="36" y="468" /><rect fill="#feff00" height="35" width="35" x="72" y="468" /><rect fill="#feff00" height="35" width="35" x="108" y="468" /><rect fill="#fdef00" height="35" width="35" x="144" y="468" /><rect fill="#fdef00" height="35" width="35" x="180" y="468" /><rect fill="#faf000" height="35" width="35" x="216" y="468" /><rect fill="#faf000" height="35" width="35" x="252" y="468" /><rect fill="#faf001" height="35" width="35" x="288" y="468" /><rect fill="#f9ef00" height="35" width="35" x="324" y="468" /><rect fill="#faef03" height="35" width="35" x="360" y="468" /><rect fill="#ffee00" height="35" width="35" x="396" y="468" /><rect fill="#fffe00" height="35" width="35" x="432" y="468" /><rect fill="#ffff01" height="35" width="35" x="468" y="468" /><rect fill="#ffff00" height="35" width="35" x="504" y="468" /><rect fill="#fbfd7c" height="35" width="35" x="540" y="468" /><rect fill="#f7f8dc" height="35" width="35" x="0" y="504" /><rect fill="#fbfd7b" height="35" width="35" x="36" y="504" /><rect fill="#fbfd7e" height="35" width="35" x="72" y="504" /><rect fill="#fffe00" height="35" width="35" x="108" y="504" /><rect fill="#fffe00" height="35" width="35" x="144" y="504" /><rect fill="#fffd00" height="35" width="35" x="180" y="504" /><rect fill="#fbff00" height="35" width="35" x="216" y="504" /><rect fill="#fffe01" height="35" width="35" x="252" y="504" /><rect fill="#fffe01" height="35" width="35" x="288" y="504" /><rect fill="#fffe04" height="35" width="35" x="324" y="504" /><rect fill="#ffff05" height="35" width="35" x="360" y="504" /><rect fill="#fffe00" height="35" width="35" x="396" y="504" /><rect fill="#ffff01" height="35" width="35" x="432" y="504" /><rect fill="#fdfe7d" height="35" width="35" x="468" y="504" /><rect fill="#fbfd7b" height="35" width="35" x="504" y="504" /><rect fill="#f6f7e1" height="35" width="35" x="540" y="504" /><rect fill="#ffffff" height="35" width="35" x="0" y="540" /><rect fill="#f9f9e0" height="35" width="35" x="36" y="540" /><rect fill="#f9f9de" height="35" width="35" x="72" y="540" /><rect fill="#f9f9de" height="35" width="35" x="108" y="540" /><rect fill="#faff7c" height="35" width="35" x="144" y="540" /><rect fill="#fbfd7b" height="35" width="35" x="180" y="540" /><rect fill="#fcff7c" height="35" width="35" x="216" y="540" /><rect fill="#fbfd7b" height="35" width="35" x="252" y="540" /><rect fill="#fbfd7b" height="35" width="35" x="288" y="540" /><rect fill="#fbfd7b" height="35" width="35" x="324" y="540" /><rect fill="#fbfd7b" height="35" width="35" x="360" y="540" /><rect fill="#fbfd7b" height="35" width="35" x="396" y="540" /><rect fill="#fcfd7b" height="35" width="35" x="432" y="540" /><rect fill="#f7f8dc" height="35" width="35" x="468" y="540" /><rect fill="#f9f9de" height="35" width="35" x="504" y="540" /><rect fill="#ffffff" height="35" width="35" x="540" y="540" /></svg>