<?xml version="1.0" encoding="utf-8" ?>
<svg baseProfile="tiny" height="575" version="1.2" width="575" xmlns="http://www.w3.org/2000/svg" xmlns:ev="http://www.w3.org/2001/xml-events" xmlns:xlink="http://www.w3.org/1999/xlink"><defs /><rect fill="#bfc2c0" height="35" width="35" x="0" y="0" /><rect fill="#bdbfc1" height="35" width="35" x="36" y="0" /><rect fill="#bdbfbf" height="35" width="35" x="72" y="0" /><rect fill="#bec1bf" height="35" width="35" x="108" y="0" /><rect fill="#bdc0be" height="35" width="35" x="144" y="0" /><rect fill="#bfc2bf" height="35" width="35" x="180" y="0" /><rect fill="#bec1bf" height="35" width="35" x="216" y="0" /><rect fill="#fcffc0" height="35" width="35" x="252" y="0" /><rect fill="#feffbd" height="35" width="35" x="288" y="0" /><rect fill="#c0c0c0" height="35" width="35" x="324" y="0" /><rect fill="#c0c0c1" height="35" width="35" x="360" y="0" /><rect fill="#c0c0c1" height="35" width="35" x="396" y="0" /><rect fill="#c0c0c1" height="35" width="35" x="432" y="0" /><rect fill="#c0c0c1" height="35" width="35" x="468" y="0" /><rect fill="#c0c0c1" height="35" width="35" x="504" y="0" /><rect fill="#c0c0c2" height="35" width="35" x="540" y="0" /><rect fill="#c0c0c0" height="35" width="35" x="0" y="36" /><rect fill="#c0c0c0" height="35" width="35" x="36" y="36" /><rect fill="#bfbfc1" height="35" width="35" x="72" y="36" /><rect fill="#c0c0c0" height="35" width="35" x="108" y="36" /><rect fill="#c0c0c0" height="35" width="35" x="144" y="36" /><rect fill="#c0c0c0" height="35" width="35" x="180" y="36" /><rect fill="#c0c0bf" height="35" width="35" x="216" y="36" /><rect fill="#feffbf" height="35" width="35" x="252" y="36" /><rect fill="#feffbd" height="35" width="35" x="288" y="36" /><rect fill="#c0c0c0" height="35" width="35" x="324" y="36" /><rect fill="#c0c0c0" height="35" width="35" x="360" y="36" /><rect fill="#c0c0c0" height="35" width="35" x="396" y="36" /><rect fill="#c0c0c0" height="35" width="35" x="432" y="36" /><rect fill="#c0c0c0" height="35" width="35" x="468" y="36" /><rect fill="#c0c0c0" height="35" width="35" x="504" y="36" /><rect fill="#c0c0c0" height="35" width="35" x="540" y="36" /><rect fill="#c0c0c0" height="35" width="35" x="0" y="72" /><rect fill="#bebebe" height="35" width="35" x="36" y="72" /><rect fill="#bfbfbf" height="35" width="35" x="72" y="72" /><rect fill="#c0c0c0" height="35" width="35" x="108" y="72" /><rect fill="#c1c1c1" height="35" width="35" x="144" y="72" /><rect fill="#c1c1c1" height="35" width="35" x="180" y="72" /><rect fill="#bdd2cf" height="35" width="35" x="216" y="72" /><rect fill="#c3f3d4" height="35" width="35" x="252" y="72" /><rect fill="#bdeec3" height="35" width="35" x="288" y="72" /><rect fill="#bfc2c1" height="35" width="35" x="324" y="72" /><rect fill="#c0c0c0" height="35" width="35" x="360" y="72" /><rect fill="#c0c0c0" height="35" width="35" x="396" y="72" /><rect fill="#c0c0c0" height="35" width="35" x="432" y="72" /><rect fill="#c1c1c1" height="35" width="35" x="468" y="72" /><rect fill="#bfbfbf" height="35" width="35" x="504" y="72" /><rect fill="#bfbfbf" height="35" width="35" x="540" y="72" /><rect fill="#c0c0c0" height="35" width="35" x="0" y="108" /><rect fill="#c0c0c0" height="35" width="35" x="36" y="108" /><rect fill="#c0c0c0" height="35" width="35" x="72" y="108" /><rect fill="#c0c0c0" height="35" width="35" x="108" y="108" /><rect fill="#c1c1c1" height="35" width="35" x="144" y="108" /><rect fill="#bcd3d2" height="35" width="35" x="180" y="108" /><rect fill="#c0ecff" height="35" width="35" x="216" y="108" /><rect fill="#c0eed1" height="35" width="35" x="252" y="108" /><rect fill="#d2efbe" height="35" width="35" x="288" y="108" /><rect fill="#bfecc0" height="35" width="35" x="324" y="108" /><rect fill="#d3c0bc" height="35" width="35" x="360" y="108" /><rect fill="#c1c0c0" height="35" width="35" x="396" y="108" /><rect fill="#c0c0c0" height="35" width="35" x="432" y="108" /><rect fill="#c0c0c0" height="35" width="35" x="468" y="108" /><rect fill="#c0c0c0" height="35" width="35" x="504" y="108" /><rect fill="#c0c0c0" height="35" width="35" x="540" y="108" /><rect fill="#c0c0c0" height="35" width="35" x="0" y="144" /><rect fill="#c0c0c0" height="35" width="35" x="36" y="144" /><rect fill="#c0c0c0" height="35" width="35" x="72" y="144" /><rect fill="#c0c0c0" height="35" width="35" x="108" y="144" /><rect fill="#bfbfbf" height="35" width="35" x="144" y="144" /><rect fill="#c0e1be" height="35" width="35" x="180" y="144" /><rect fill="#beeecf" height="35" width="35" x="216" y="144" /><rect fill="#d3f0be" height="35" width="35" x="252" y="144" /><rect fill="#fbfec0" height="35" width="35" x="288" y="144" /><rect fill="#d8eabf" height="35" width="35" x="324" y="144" /><rect fill="#fdc0bc" height="35" width="35" x="360" y="144" /><rect fill="#d2c0bf" height="35" width="35" x="396" y="144" /><rect fill="#bfbfbf" height="35" width="35" x="432" y="144" /><rect fill="#c0c0c0" height="35" width="35" x="468" y="144" /><rect fill="#c0c0c0" height="35" width="35" x="504" y="144" /><rect fill="#bfbfbf" height="35" width="35" x="540" y="144" /><rect fill="#c0c0c0" height="35" width="35" x="0" y="180" /><rect fill="#c0c0c0" height="35" width="35" x="36" y="180" /><rect fill="#c0c0c0" height="35" width="35" x="72" y="180" /><rect fill="#c0c0c0" height="35" width="35" x="108" y="180" /><rect fill="#c0c0c0" height="35" width="35" x="144" y="180" /><rect fill="#c2c0c0" height="35" width="35" x="180" y="180" /><rect fill="#bfe7c0" height="35" width="35" x="216" y="180" /><rect fill="#bfe7c1" height="35" width="35" x="252" y="180" /><rect fill="#d4e8bf" height="35" width="35" x="288" y="180" /><rect fill="#e7beff" height="35" width="35" x="324" y="180" /><rect fill="#d2c0bd" height="35" width="35" x="360" y="180" /><rect fill="#c0c0c0" height="35" width="35" x="396" y="180" /><rect fill="#c0c0c0" height="35" width="35" x="432" y="180" /><rect fill="#c1c1c1" height="35" width="35" x="468" y="180" /><rect fill="#c0c0c0" height="35" width="35" x="504" y="180" /><rect fill="#c0c0c0" height="35" width="35" x="540" y="180" /><rect fill="#c0c0c0" height="35" width="35" x="0" y="216" /><rect fill="#c0c0c0" height="35" width="35" x="36" y="216" /><rect fill="#c0c0c0" height="35" width="35" x="72" y="216" /><rect fill="#c0c0c0" height="35" width="35" x="108" y="216" /><rect fill="#c0c0c0" height="35" width="35" x="144" y="216" /><rect fill="#e6bffc" height="35" width="35" x="180" y="216" /><rect fill="#bfe7c1" height="35" width="35" x="216" y="216" /><rect fill="#bfdac0" height="35" width="35" x="252" y="216" /><rect fill="#ebc2ff" height="35" width="35" x="288" y="216" /><rect fill="#bbe7c2" height="35" width="35" x="324" y="216" /><rect fill="#c0f2d2" height="35" width="35" x="360" y="216" /><rect fill="#c3bfc0" height="35" width="35" x="396" y="216" /><rect fill="#c0c0c0" height="35" width="35" x="432" y="216" /><rect fill="#c0c0c0" height="35" width="35" x="468" y="216" /><rect fill="#c0c0c0" height="35" width="35" x="504" y="216" /><rect fill="#c0c0c0" height="35" width="35" x="540" y="216" /><rect fill="#c0c0c0" height="35" width="35" x="0" y="252" /><rect fill="#c0c0c0" height="35" width="35" x="36" y="252" /><rect fill="#c0c0c0" height="35" width="35" x="72" y="252" /><rect fill="#d4bfbd" height="35" width="35" x="108" y="252" /><rect fill="#bce7c1" height="35" width="35" x="144" y="252" /><rect fill="#bee6bf" height="35" width="35" x="180" y="252" /><rect fill="#e8c0fb" height="35" width="35" x="216" y="252" /><rect fill="#efd4e7" height="35" width="35" x="252" y="252" /><rect fill="#bfe8be" height="35" width="35" x="288" y="252" /><rect fill="#c0eed1" height="35" width="35" x="324" y="252" /><rect fill="#bfebff" height="35" width="35" x="360" y="252" /><rect fill="#c2f2d2" height="35" width="35" x="396" y="252" /><rect fill="#bfbfbf" height="35" width="35" x="432" y="252" /><rect fill="#c0c0c0" height="35" width="35" x="468" y="252" /><rect fill="#c0c0c0" height="35" width="35" x="504" y="252" /><rect fill="#c0c0c0" height="35" width="35" x="540" y="252" /><rect fill="#c0c0c0" height="35" width="35" x="0" y="288" /><rect fill="#c0c0c0" height="35" width="35" x="36" y="288" /><rect fill="#d5c1bc" height="35" width="35" x="72" y="288" /><rect fill="#fdc0bc" height="35" width="35" x="108" y="288" /><rect fill="#bee2bc" height="35" width="35" x="144" y="288" /><rect fill="#bce2c0" height="35" width="35" x="180" y="288" /><rect fill="#d2efbd" height="35" width="35" x="216" y="288" /><rect fill="#feffbd" height="35" width="35" x="252" y="288" /><rect fill="#d2efbd" height="35" width="35" x="288" y="288" /><rect fill="#bfe7c3" height="35" width="35" x="324" y="288" /><rect fill="#c0e9d2" height="35" width="35" x="360" y="288" /><rect fill="#e7bffe" height="35" width="35" x="396" y="288" /><rect fill="#c0e1be" height="35" width="35" x="432" y="288" /><rect fill="#c0c0c0" height="35" width="35" x="468" y="288" /><rect fill="#c0c0c0" height="35" width="35" x="504" y="288" /><rect fill="#c0c0c0" height="35" width="35" x="540" y="288" /><rect fill="#c0c0c0" height="35" width="35" x="0" y="324" /><rect fill="#c0c0c0" height="35" width="35" x="36" y="324" /><rect fill="#bec1c0" height="35" width="35" x="72" y="324" /><rect fill="#d4bfbd" height="35" width="35" x="108" y="324" /><rect fill="#bdbfbf" height="35" width="35" x="144" y="324" /><rect fill="#bed9bf" height="35" width="35" x="180" y="324" /><rect fill="#c1e2c1" height="35" width="35" x="216" y="324" /><rect fill="#d0eebb" height="35" width="35" x="252" y="324" /><rect fill="#c1e7c1" height="35" width="35" x="288" y="324" /><rect fill="#bee1be" height="35" width="35" x="324" y="324" /><rect fill="#e6c1fe" height="35" width="35" x="360" y="324" /><rect fill="#c2c0be" height="35" width="35" x="396" y="324" /><rect fill="#c0c0c0" height="35" width="35" x="432" y="324" /><rect fill="#c0c0c0" height="35" width="35" x="468" y="324" /><rect fill="#bfbfbf" height="35" width="35" x="504" y="324" /><rect fill="#bfbfbf" height="35" width="35" x="540" y="324" /><rect fill="#c1c1c1" height="35" width="35" x="0" y="360" /><rect fill="#bfbfbf" height="35" width="35" x="36" y="360" /><rect fill="#c0c0c0" height="35" width="35" x="72" y="360" /><rect fill="#bebfbe" height="35" width="35" x="108" y="360" /><rect fill="#e7bffc" height="35" width="35" x="144" y="360" /><rect fill="#c2e7c1" height="35" width="35" x="180" y="360" /><rect fill="#c1ddc3" height="35" width="35" x="216" y="360" /><rect fill="#bfdbc0" height="35" width="35" x="252" y="360" /><rect fill="#e7c0ff" height="35" width="35" x="288" y="360" /><rect fill="#eabefd" height="35" width="35" x="324" y="360" /><rect fill="#bfe7c1" height="35" width="35" x="360" y="360" /><rect fill="#c0efc1" height="35" width="35" x="396" y="360" /><rect fill="#c0c0c0" height="35" width="35" x="432" y="360" /><rect fill="#c1c1c1" height="35" width="35" x="468" y="360" /><rect fill="#c1c1c1" height="35" width="35" x="504" y="360" /><rect fill="#c1c1c1" height="35" width="35" x="540" y="360" /><rect fill="#c1c1c1" height="35" width="35" x="0" y="396" /><rect fill="#c0c0c0" height="35" width="35" x="36" y="396" /><rect fill="#c0c0c0" height="35" width="35" x="72" y="396" /><rect fill="#bee1c0" height="35" width="35" x="108" y="396" /><rect fill="#bfe2c1" height="35" width="35" x="144" y="396" /><rect fill="#e8c0fe" height="35" width="35" x="180" y="396" /><rect fill="#e7bffc" height="35" width="35" x="216" y="396" /><rect fill="#e9c1ff" height="35" width="35" x="252" y="396" /><rect fill="#c2e8c4" height="35" width="35" x="288" y="396" /><rect fill="#d2f0bb" height="35" width="35" x="324" y="396" /><rect fill="#bfe7c1" height="35" width="35" x="360" y="396" /><rect fill="#bde2be" height="35" width="35" x="396" y="396" /><rect fill="#c1dfc1" height="35" width="35" x="432" y="396" /><rect fill="#d0c0bf" height="35" width="35" x="468" y="396" /><rect fill="#c0c0c0" height="35" width="35" x="504" y="396" /><rect fill="#c0c0c0" height="35" width="35" x="540" y="396" /><rect fill="#c0c0c0" height="35" width="35" x="0" y="432" /><rect fill="#c1c1c1" height="35" width="35" x="36" y="432" /><rect fill="#bed9c1" height="35" width="35" x="72" y="432" /><rect fill="#bfdbc0" height="35" width="35" x="108" y="432" /><rect fill="#bfdbc0" height="35" width="35" x="144" y="432" /><rect fill="#c0e9d2" height="35" width="35" x="180" y="432" /><rect fill="#bfe1be" height="35" width="35" x="216" y="432" /><rect fill="#bee1be" height="35" width="35" x="252" y="432" /><rect fill="#d2e8c1" height="35" width="35" x="288" y="432" /><rect fill="#fdfebc" height="35" width="35" x="324" y="432" /><rect fill="#d2e8bf" height="35" width="35" x="360" y="432" /><rect fill="#bfdbc0" height="35" width="35" x="396" y="432" /><rect fill="#d2d4bf" height="35" width="35" x="432" y="432" /><rect fill="#fdc0bc" height="35" width="35" x="468" y="432" /><rect fill="#d0c0be" height="35" width="35" x="504" y="432" /><rect fill="#c0c0be" height="35" width="35" x="540" y="432" /><rect fill="#c0c0c0" height="35" width="35" x="0" y="468" /><rect fill="#c0c0c0" height="35" width="35" x="36" y="468" /><rect fill="#c0c0c0" height="35" width="35" x="72" y="468" /><rect fill="#bdd4d1" height="35" width="35" x="108" y="468" /><rect fill="#bceafd" height="35" width="35" x="144" y="468" /><rect fill="#bce2cc" height="35" width="35" x="180" y="468" /><rect fill="#bfdbbe" height="35" width="35" x="216" y="468" /><rect fill="#c1dac0" height="35" width="35" x="252" y="468" /><rect fill="#bfdbc0" height="35" width="35" x="288" y="468" /><rect fill="#cfe4c0" height="35" width="35" x="324" y="468" /><rect fill="#bfdbbf" height="35" width="35" x="360" y="468" /><rect fill="#bfc2bf" height="35" width="35" x="396" y="468" /><rect fill="#c2c0be" height="35" width="35" x="432" y="468" /><rect fill="#d2c0be" height="35" width="35" x="468" y="468" /><rect fill="#c2c0c0" height="35" width="35" x="504" y="468" /><rect fill="#c0c0c0" height="35" width="35" x="540" y="468" /><rect fill="#c0c0c0" height="35" width="35" x="0" y="504" /><rect fill="#c0c0c0" height="35" width="35" x="36" y="504" /><rect fill="#c0c0c0" height="35" width="35" x="72" y="504" /><rect fill="#bfc0c1" height="35" width="35" x="108" y="504" /><rect fill="#c0d5d3" height="35" width="35" x="144" y="504" /><rect fill="#c2c0c0" height="35" width="35" x="180" y="504" /><rect fill="#c0c0c0" height="35" width="35" x="216" y="504" /><rect fill="#d5c9be" height="35" width="35" x="252" y="504" /><rect fill="#e5cdc3" height="35" width="35" x="288" y="504" /><rect fill="#c1c2bf" height="35" width="35" x="324" y="504" /><rect fill="#c0c0be" height="35" width="35" x="360" y="504" /><rect fill="#c0c0c0" height="35" width="35" x="396" y="504" /><rect fill="#c0c0c0" height="35" width="35" x="432" y="504" /><rect fill="#c0c0c0" height="35" width="35" x="468" y="504" /><rect fill="#bfbfbf" height="35" width="35" x="504" y="504" /><rect fill="#c0c0c0" height="35" width="35" x="540" y="504" /><rect fill="#c0c0c0" height="35" width="35" x="0" y="540" /><rect fill="#bfbfbf" height="35" width="35" x="36" y="540" /><rect fill="#c0c0c0" height="35" width="35" x="72" y="540" /><rect fill="#c0c0c0" height="35" width="35" x="108" y="540" /><rect fill="#c2c0c0" height="35" width="35" x="144" y="540" /><rect fill="#bfbfbf" height="35" width="35" x="180" y="540" /><rect fill="#c0c0c2" height="35" width="35" x="216" y="540" /><rect fill="#dac9bd" height="35" width="35" x="252" y="540" /><rect fill="#eacec2" height="35" width="35" x="288" y="540" /><rect fill="#c0c0c0" height="35" width="35" x="324" y="540" /><rect fill="#c0c0c0" height="35" width="35" x="360" y="540" /><rect fill="#c0c0c0" height="35" width="35" x="396" y="540" /><rect fill="#c0c0c0" height="35" width="35" x="432" y="540" /><rect fill="#c0c0c0" height="35" width="35" x="468" y="540" /><rect fill="#c0c0c0" height="35" width="35" x="504" y="540" /><rect fill="#c0c0c0" height="35" width="35" x="540" y="540" /></svg>