<?xml version="1.0" encoding="utf-8" ?>
<svg baseProfile="tiny" height="575" version="1.2" width="575" xmlns="http://www.w3.org/2000/svg" xmlns:ev="http://www.w3.org/2001/xml-events" xmlns:xlink="http://www.w3.org/1999/xlink"><defs /><rect fill="#838183" height="35" width="35" x="0" y="0" /><rect fill="#80807e" height="35" width="35" x="36" y="0" /><rect fill="#80807f" height="35" width="35" x="72" y="0" /><rect fill="#80807f" height="35" width="35" x="108" y="0" /><rect fill="#7f827f" height="35" width="35" x="144" y="0" /><rect fill="#838183" height="35" width="35" x="180" y="0" /><rect fill="#a6a87c" height="35" width="35" x="216" y="0" /><rect fill="#feff83" height="35" width="35" x="252" y="0" /><rect fill="#fdff7f" height="35" width="35" x="288" y="0" /><rect fill="#a7a981" height="35" width="35" x="324" y="0" /><rect fill="#808081" height="35" width="35" x="360" y="0" /><rect fill="#80807f" height="35" width="35" x="396" y="0" /><rect fill="#808081" height="35" width="35" x="432" y="0" /><rect fill="#808081" height="35" width="35" x="468" y="0" /><rect fill="#7e8082" height="35" width="35" x="504" y="0" /><rect fill="#7e8180" height="35" width="35" x="540" y="0" /><rect fill="#808080" height="35" width="35" x="0" y="36" /><rect fill="#808080" height="35" width="35" x="36" y="36" /><rect fill="#808080" height="35" width="35" x="72" y="36" /><rect fill="#808080" height="35" width="35" x="108" y="36" /><rect fill="#808080" height="35" width="35" x="144" y="36" /><rect fill="#838181" height="35" width="35" x="180" y="36" /><rect fill="#a5a67d" height="35" width="35" x="216" y="36" /><rect fill="#fdff7c" height="35" width="35" x="252" y="36" /><rect fill="#fdff7f" height="35" width="35" x="288" y="36" /><rect fill="#a5a67d" height="35" width="35" x="324" y="36" /><rect fill="#808080" height="35" width="35" x="360" y="36" /><rect fill="#808080" height="35" width="35" x="396" y="36" /><rect fill="#808080" height="35" width="35" x="432" y="36" /><rect fill="#808080" height="35" width="35" x="468" y="36" /><rect fill="#808080" height="35" width="35" x="504" y="36" /><rect fill="#80807e" height="35" width="35" x="540" y="36" /><rect fill="#818181" height="35" width="35" x="0" y="72" /><rect fill="#808080" height="35" width="35" x="36" y="72" /><rect fill="#808080" height="35" width="35" x="72" y="72" /><rect fill="#808080" height="35" width="35" x="108" y="72" /><rect fill="#808080" height="35" width="35" x="144" y="72" /><rect fill="#808080" height="35" width="35" x="180" y="72" /><rect fill="#7da6a5" height="35" width="35" x="216" y="72" /><rect fill="#a5e77f" height="35" width="35" x="252" y="72" /><rect fill="#a2e77c" height="35" width="35" x="288" y="72" /><rect fill="#808080" height="35" width="35" x="324" y="72" /><rect fill="#7f7f7f" height="35" width="35" x="360" y="72" /><rect fill="#7f7f7f" height="35" width="35" x="396" y="72" /><rect fill="#818181" height="35" width="35" x="432" y="72" /><rect fill="#7f7f7f" height="35" width="35" x="468" y="72" /><rect fill="#808080" height="35" width="35" x="504" y="72" /><rect fill="#808080" height="35" width="35" x="540" y="72" /><rect fill="#808080" height="35" width="35" x="0" y="108" /><rect fill="#808080" height="35" width="35" x="36" y="108" /><rect fill="#808080" height="35" width="35" x="72" y="108" /><rect fill="#808080" height="35" width="35" x="108" y="108" /><rect fill="#808080" height="35" width="35" x="144" y="108" /><rect fill="#7ea3a2" height="35" width="35" x="180" y="108" /><rect fill="#7bd2fa" height="35" width="35" x="216" y="108" /><rect fill="#7edfa7" height="35" width="35" x="252" y="108" /><rect fill="#a9de82" height="35" width="35" x="288" y="108" /><rect fill="#81dc83" height="35" width="35" x="324" y="108" /><rect fill="#a68280" height="35" width="35" x="360" y="108" /><rect fill="#808080" height="35" width="35" x="396" y="108" /><rect fill="#808080" height="35" width="35" x="432" y="108" /><rect fill="#808080" height="35" width="35" x="468" y="108" /><rect fill="#808080" height="35" width="35" x="504" y="108" /><rect fill="#808080" height="35" width="35" x="540" y="108" /><rect fill="#808080" height="35" width="35" x="0" y="144" /><rect fill="#808080" height="35" width="35" x="36" y="144" /><rect fill="#808080" height="35" width="35" x="72" y="144" /><rect fill="#808080" height="35" width="35" x="108" y="144" /><rect fill="#7f7f7f" height="35" width="35" x="144" y="144" /><rect fill="#7fbb7e" height="35" width="35" x="180" y="144" /><rect fill="#83deaa" height="35" width="35" x="216" y="144" /><rect fill="#aadf80" height="35" width="35" x="252" y="144" /><rect fill="#ffff7f" height="35" width="35" x="288" y="144" /><rect fill="#a7d380" height="35" width="35" x="324" y="144" /><rect fill="#ff807d" height="35" width="35" x="360" y="144" /><rect fill="#a67f7f" height="35" width="35" x="396" y="144" /><rect fill="#808080" height="35" width="35" x="432" y="144" /><rect fill="#808080" height="35" width="35" x="468" y="144" /><rect fill="#808080" height="35" width="35" x="504" y="144" /><rect fill="#808080" height="35" width="35" x="540" y="144" /><rect fill="#808080" height="35" width="35" x="0" y="180" /><rect fill="#808080" height="35" width="35" x="36" y="180" /><rect fill="#808080" height="35" width="35" x="72" y="180" /><rect fill="#808080" height="35" width="35" x="108" y="180" /><rect fill="#808080" height="35" width="35" x="144" y="180" /><rect fill="#80807e" height="35" width="35" x="180" y="180" /><rect fill="#7dcf83" height="35" width="35" x="216" y="180" /><rect fill="#7ecf81" height="35" width="35" x="252" y="180" /><rect fill="#a7d382" height="35" width="35" x="288" y="180" /><rect fill="#d181fe" height="35" width="35" x="324" y="180" /><rect fill="#a58180" height="35" width="35" x="360" y="180" /><rect fill="#80807f" height="35" width="35" x="396" y="180" /><rect fill="#818181" height="35" width="35" x="432" y="180" /><rect fill="#808080" height="35" width="35" x="468" y="180" /><rect fill="#808080" height="35" width="35" x="504" y="180" /><rect fill="#808080" height="35" width="35" x="540" y="180" /><rect fill="#808080" height="35" width="35" x="0" y="216" /><rect fill="#808080" height="35" width="35" x="36" y="216" /><rect fill="#808080" height="35" width="35" x="72" y="216" /><rect fill="#808080" height="35" width="35" x="108" y="216" /><rect fill="#80807f" height="35" width="35" x="144" y="216" /><rect fill="#d782ff" height="35" width="35" x="180" y="216" /><rect fill="#80ce83" height="35" width="35" x="216" y="216" /><rect fill="#7db680" height="35" width="35" x="252" y="216" /><rect fill="#d583fe" height="35" width="35" x="288" y="216" /><rect fill="#82dba9" height="35" width="35" x="324" y="216" /><rect fill="#7ed3fd" height="35" width="35" x="360" y="216" /><rect fill="#78a5a1" height="35" width="35" x="396" y="216" /><rect fill="#818183" height="35" width="35" x="432" y="216" /><rect fill="#808080" height="35" width="35" x="468" y="216" /><rect fill="#808080" height="35" width="35" x="504" y="216" /><rect fill="#808080" height="35" width="35" x="540" y="216" /><rect fill="#808080" height="35" width="35" x="0" y="252" /><rect fill="#808080" height="35" width="35" x="36" y="252" /><rect fill="#7e8180" height="35" width="35" x="72" y="252" /><rect fill="#a58180" height="35" width="35" x="108" y="252" /><rect fill="#7dcc81" height="35" width="35" x="144" y="252" /><rect fill="#81cc83" height="35" width="35" x="180" y="252" /><rect fill="#d081fe" height="35" width="35" x="216" y="252" /><rect fill="#dea6d7" height="35" width="35" x="252" y="252" /><rect fill="#80cb7c" height="35" width="35" x="288" y="252" /><rect fill="#7ecc7f" height="35" width="35" x="324" y="252" /><rect fill="#7edfa6" height="35" width="35" x="360" y="252" /><rect fill="#85e087" height="35" width="35" x="396" y="252" /><rect fill="#828080" height="35" width="35" x="432" y="252" /><rect fill="#808080" height="35" width="35" x="468" y="252" /><rect fill="#808080" height="35" width="35" x="504" y="252" /><rect fill="#808080" height="35" width="35" x="540" y="252" /><rect fill="#808080" height="35" width="35" x="0" y="288" /><rect fill="#808080" height="35" width="35" x="36" y="288" /><rect fill="#aa8181" height="35" width="35" x="72" y="288" /><rect fill="#ff807d" height="35" width="35" x="108" y="288" /><rect fill="#a6ac82" height="35" width="35" x="144" y="288" /><rect fill="#7ebf7a" height="35" width="35" x="180" y="288" /><rect fill="#a7db7d" height="35" width="35" x="216" y="288" /><rect fill="#fdff7c" height="35" width="35" x="252" y="288" /><rect fill="#a8de84" height="35" width="35" x="288" y="288" /><rect fill="#7cce7e" height="35" width="35" x="324" y="288" /><rect fill="#7fc07d" height="35" width="35" x="360" y="288" /><rect fill="#d581fd" height="35" width="35" x="396" y="288" /><rect fill="#82c180" height="35" width="35" x="432" y="288" /><rect fill="#808080" height="35" width="35" x="468" y="288" /><rect fill="#808080" height="35" width="35" x="504" y="288" /><rect fill="#808080" height="35" width="35" x="540" y="288" /><rect fill="#818181" height="35" width="35" x="0" y="324" /><rect fill="#808080" height="35" width="35" x="36" y="324" /><rect fill="#808080" height="35" width="35" x="72" y="324" /><rect fill="#a5817e" height="35" width="35" x="108" y="324" /><rect fill="#818181" height="35" width="35" x="144" y="324" /><rect fill="#80b783" height="35" width="35" x="180" y="324" /><rect fill="#80c17e" height="35" width="35" x="216" y="324" /><rect fill="#a7dc83" height="35" width="35" x="252" y="324" /><rect fill="#80cb82" height="35" width="35" x="288" y="324" /><rect fill="#81c287" height="35" width="35" x="324" y="324" /><rect fill="#d57ffe" height="35" width="35" x="360" y="324" /><rect fill="#837f84" height="35" width="35" x="396" y="324" /><rect fill="#818181" height="35" width="35" x="432" y="324" /><rect fill="#808080" height="35" width="35" x="468" y="324" /><rect fill="#808080" height="35" width="35" x="504" y="324" /><rect fill="#808080" height="35" width="35" x="540" y="324" /><rect fill="#818181" height="35" width="35" x="0" y="360" /><rect fill="#808080" height="35" width="35" x="36" y="360" /><rect fill="#808080" height="35" width="35" x="72" y="360" /><rect fill="#818181" height="35" width="35" x="108" y="360" /><rect fill="#d382ff" height="35" width="35" x="144" y="360" /><rect fill="#81d286" height="35" width="35" x="180" y="360" /><rect fill="#7db57e" height="35" width="35" x="216" y="360" /><rect fill="#80b67e" height="35" width="35" x="252" y="360" /><rect fill="#d57fff" height="35" width="35" x="288" y="360" /><rect fill="#d280ff" height="35" width="35" x="324" y="360" /><rect fill="#83cf82" height="35" width="35" x="360" y="360" /><rect fill="#85d987" height="35" width="35" x="396" y="360" /><rect fill="#7c7e7e" height="35" width="35" x="432" y="360" /><rect fill="#7f7f7f" height="35" width="35" x="468" y="360" /><rect fill="#7f7f7f" height="35" width="35" x="504" y="360" /><rect fill="#7f7f7f" height="35" width="35" x="540" y="360" /><rect fill="#808080" height="35" width="35" x="0" y="396" /><rect fill="#808080" height="35" width="35" x="36" y="396" /><rect fill="#7c8180" height="35" width="35" x="72" y="396" /><rect fill="#80c17e" height="35" width="35" x="108" y="396" /><rect fill="#80c182" height="35" width="35" x="144" y="396" /><rect fill="#d27efa" height="35" width="35" x="180" y="396" /><rect fill="#cf80fb" height="35" width="35" x="216" y="396" /><rect fill="#cf80fb" height="35" width="35" x="252" y="396" /><rect fill="#7fcf81" height="35" width="35" x="288" y="396" /><rect fill="#a5dd83" height="35" width="35" x="324" y="396" /><rect fill="#7fcf80" height="35" width="35" x="360" y="396" /><rect fill="#80c17e" height="35" width="35" x="396" y="396" /><rect fill="#85c27f" height="35" width="35" x="432" y="396" /><rect fill="#a57f7e" height="35" width="35" x="468" y="396" /><rect fill="#7f8080" height="35" width="35" x="504" y="396" /><rect fill="#808080" height="35" width="35" x="540" y="396" /><rect fill="#808080" height="35" width="35" x="0" y="432" /><rect fill="#7f7f7f" height="35" width="35" x="36" y="432" /><rect fill="#80b782" height="35" width="35" x="72" y="432" /><rect fill="#80b780" height="35" width="35" x="108" y="432" /><rect fill="#7fcea5" height="35" width="35" x="144" y="432" /><rect fill="#7fc07f" height="35" width="35" x="180" y="432" /><rect fill="#7fc07f" height="35" width="35" x="216" y="432" /><rect fill="#7fc07d" height="35" width="35" x="252" y="432" /><rect fill="#aad481" height="35" width="35" x="288" y="432" /><rect fill="#feff83" height="35" width="35" x="324" y="432" /><rect fill="#a7d380" height="35" width="35" x="360" y="432" /><rect fill="#80b780" height="35" width="35" x="396" y="432" /><rect fill="#a5a67f" height="35" width="35" x="432" y="432" /><rect fill="#ff807d" height="35" width="35" x="468" y="432" /><rect fill="#a48181" height="35" width="35" x="504" y="432" /><rect fill="#81807e" height="35" width="35" x="540" y="432" /><rect fill="#808080" height="35" width="35" x="0" y="468" /><rect fill="#7f7f7f" height="35" width="35" x="36" y="468" /><rect fill="#7e8281" height="35" width="35" x="72" y="468" /><rect fill="#7ba6a6" height="35" width="35" x="108" y="468" /><rect fill="#7ed3fb" height="35" width="35" x="144" y="468" /><rect fill="#7ecda6" height="35" width="35" x="180" y="468" /><rect fill="#81b981" height="35" width="35" x="216" y="468" /><rect fill="#80b780" height="35" width="35" x="252" y="468" /><rect fill="#80b780" height="35" width="35" x="288" y="468" /><rect fill="#a9ce7d" height="35" width="35" x="324" y="468" /><rect fill="#7fb880" height="35" width="35" x="360" y="468" /><rect fill="#858083" height="35" width="35" x="396" y="468" /><rect fill="#7e7e7e" height="35" width="35" x="432" y="468" /><rect fill="#a5817e" height="35" width="35" x="468" y="468" /><rect fill="#7e8081" height="35" width="35" x="504" y="468" /><rect fill="#817e81" height="35" width="35" x="540" y="468" /><rect fill="#808080" height="35" width="35" x="0" y="504" /><rect fill="#808080" height="35" width="35" x="36" y="504" /><rect fill="#808080" height="35" width="35" x="72" y="504" /><rect fill="#808080" height="35" width="35" x="108" y="504" /><rect fill="#80a7a1" height="35" width="35" x="144" y="504" /><rect fill="#818181" height="35" width="35" x="180" y="504" /><rect fill="#808080" height="35" width="35" x="216" y="504" /><rect fill="#ae917d" height="35" width="35" x="252" y="504" /><rect fill="#c8997d" height="35" width="35" x="288" y="504" /><rect fill="#808080" height="35" width="35" x="324" y="504" /><rect fill="#808080" height="35" width="35" x="360" y="504" /><rect fill="#808080" height="35" width="35" x="396" y="504" /><rect fill="#7f7f7f" height="35" width="35" x="432" y="504" /><rect fill="#808080" height="35" width="35" x="468" y="504" /><rect fill="#808080" height="35" width="35" x="504" y="504" /><rect fill="#808080" height="35" width="35" x="540" y="504" /><rect fill="#808080" height="35" width="35" x="0" y="540" /><rect fill="#808080" height="35" width="35" x="36" y="540" /><rect fill="#808080" height="35" width="35" x="72" y="540" /><rect fill="#808080" height="35" width="35" x="108" y="540" /><rect fill="#7f7f7f" height="35" width="35" x="144" y="540" /><rect fill="#808080" height="35" width="35" x="180" y="540" /><rect fill="#808080" height="35" width="35" x="216" y="540" /><rect fill="#b3937d" height="35" width="35" x="252" y="540" /><rect fill="#d29c7d" height="35" width="35" x="288" y="540" /><rect fill="#808080" height="35" width="35" x="324" y="540" /><rect fill="#808080" height="35" width="35" x="360" y="540" /><rect fill="#808080" height="35" width="35" x="396" y="540" /><rect fill="#808080" height="35" width="35" x="432" y="540" /><rect fill="#808080" height="35" width="35" x="468" y="540" /><rect fill="#808080" height="35" width="35" x="504" y="540" /><rect fill="#808080" height="35" width="35" x="540" y="540" /></svg>