<?xml version="1.0" encoding="utf-8" ?>
<svg baseProfile="tiny" height="575" version="1.2" width="575" xmlns="http://www.w3.org/2000/svg" xmlns:ev="http://www.w3.org/2001/xml-events" xmlns:xlink="http://www.w3.org/1999/xlink"><defs /><rect fill="#404040" height="35" width="35" x="0" y="0" /><rect fill="#404040" height="35" width="35" x="36" y="0" /><rect fill="#404040" height="35" width="35" x="72" y="0" /><rect fill="#404040" height="35" width="35" x="108" y="0" /><rect fill="#404041" height="35" width="35" x="144" y="0" /><rect fill="#404040" height="35" width="35" x="180" y="0" /><rect fill="#40403f" height="35" width="35" x="216" y="0" /><rect fill="#ffff46" height="35" width="35" x="252" y="0" /><rect fill="#feff40" height="35" width="35" x="288" y="0" /><rect fill="#404040" height="35" width="35" x="324" y="0" /><rect fill="#404040" height="35" width="35" x="360" y="0" /><rect fill="#404041" height="35" width="35" x="396" y="0" /><rect fill="#404041" height="35" width="35" x="432" y="0" /><rect fill="#404040" height="35" width="35" x="468" y="0" /><rect fill="#404041" height="35" width="35" x="504" y="0" /><rect fill="#404040" height="35" width="35" x="540" y="0" /><rect fill="#404040" height="35" width="35" x="0" y="36" /><rect fill="#404040" height="35" width="35" x="36" y="36" /><rect fill="#404040" height="35" width="35" x="72" y="36" /><rect fill="#404040" height="35" width="35" x="108" y="36" /><rect fill="#404040" height="35" width="35" x="144" y="36" /><rect fill="#404040" height="35" width="35" x="180" y="36" /><rect fill="#40403e" height="35" width="35" x="216" y="36" /><rect fill="#feff3f" height="35" width="35" x="252" y="36" /><rect fill="#feff3d" height="35" width="35" x="288" y="36" /><rect fill="#404040" height="35" width="35" x="324" y="36" /><rect fill="#404040" height="35" width="35" x="360" y="36" /><rect fill="#404040" height="35" width="35" x="396" y="36" /><rect fill="#404040" height="35" width="35" x="432" y="36" /><rect fill="#404040" height="35" width="35" x="468" y="36" /><rect fill="#404040" height="35" width="35" x="504" y="36" /><rect fill="#404040" height="35" width="35" x="540" y="36" /><rect fill="#3f3f3f" height="35" width="35" x="0" y="72" /><rect fill="#414141" height="35" width="35" x="36" y="72" /><rect fill="#414141" height="35" width="35" x="72" y="72" /><rect fill="#404040" height="35" width="35" x="108" y="72" /><rect fill="#404040" height="35" width="35" x="144" y="72" /><rect fill="#404040" height="35" width="35" x="180" y="72" /><rect fill="#404040" height="35" width="35" x="216" y="72" /><rect fill="#3ecb3c" height="35" width="35" x="252" y="72" /><rect fill="#42ca42" height="35" width="35" x="288" y="72" /><rect fill="#3f7d79" height="35" width="35" x="324" y="72" /><rect fill="#404040" height="35" width="35" x="360" y="72" /><rect fill="#404040" height="35" width="35" x="396" y="72" /><rect fill="#404040" height="35" width="35" x="432" y="72" /><rect fill="#404040" height="35" width="35" x="468" y="72" /><rect fill="#404040" height="35" width="35" x="504" y="72" /><rect fill="#404040" height="35" width="35" x="540" y="72" /><rect fill="#404040" height="35" width="35" x="0" y="108" /><rect fill="#404040" height="35" width="35" x="36" y="108" /><rect fill="#404040" height="35" width="35" x="72" y="108" /><rect fill="#404040" height="35" width="35" x="108" y="108" /><rect fill="#404040" height="35" width="35" x="144" y="108" /><rect fill="#777c40" height="35" width="35" x="180" y="108" /><rect fill="#46b845" height="35" width="35" x="216" y="108" /><rect fill="#40b643" height="35" width="35" x="252" y="108" /><rect fill="#42cc7a" height="35" width="35" x="288" y="108" /><rect fill="#3dc0fe" height="35" width="35" x="324" y="108" /><rect fill="#3f7a78" height="35" width="35" x="360" y="108" /><rect fill="#404040" height="35" width="35" x="396" y="108" /><rect fill="#404040" height="35" width="35" x="432" y="108" /><rect fill="#404040" height="35" width="35" x="468" y="108" /><rect fill="#404040" height="35" width="35" x="504" y="108" /><rect fill="#404040" height="35" width="35" x="540" y="108" /><rect fill="#404040" height="35" width="35" x="0" y="144" /><rect fill="#404040" height="35" width="35" x="36" y="144" /><rect fill="#404040" height="35" width="35" x="72" y="144" /><rect fill="#404040" height="35" width="35" x="108" y="144" /><rect fill="#78793e" height="35" width="35" x="144" y="144" /><rect fill="#f9fd3d" height="35" width="35" x="180" y="144" /><rect fill="#7fd047" height="35" width="35" x="216" y="144" /><rect fill="#7c9142" height="35" width="35" x="252" y="144" /><rect fill="#47b747" height="35" width="35" x="288" y="144" /><rect fill="#3fbe7a" height="35" width="35" x="324" y="144" /><rect fill="#3fa243" height="35" width="35" x="360" y="144" /><rect fill="#404040" height="35" width="35" x="396" y="144" /><rect fill="#404040" height="35" width="35" x="432" y="144" /><rect fill="#404040" height="35" width="35" x="468" y="144" /><rect fill="#404040" height="35" width="35" x="504" y="144" /><rect fill="#404040" height="35" width="35" x="540" y="144" /><rect fill="#404040" height="35" width="35" x="0" y="180" /><rect fill="#404040" height="35" width="35" x="36" y="180" /><rect fill="#404040" height="35" width="35" x="72" y="180" /><rect fill="#404040" height="35" width="35" x="108" y="180" /><rect fill="#404040" height="35" width="35" x="144" y="180" /><rect fill="#7a783e" height="35" width="35" x="180" y="180" /><rect fill="#7a923f" height="35" width="35" x="216" y="180" /><rect fill="#fd3e3a" height="35" width="35" x="252" y="180" /><rect fill="#7b843d" height="35" width="35" x="288" y="180" /><rect fill="#bc3fff" height="35" width="35" x="324" y="180" /><rect fill="#404040" height="35" width="35" x="360" y="180" /><rect fill="#404040" height="35" width="35" x="396" y="180" /><rect fill="#404040" height="35" width="35" x="432" y="180" /><rect fill="#404040" height="35" width="35" x="468" y="180" /><rect fill="#404040" height="35" width="35" x="504" y="180" /><rect fill="#404040" height="35" width="35" x="540" y="180" /><rect fill="#404040" height="35" width="35" x="0" y="216" /><rect fill="#404040" height="35" width="35" x="36" y="216" /><rect fill="#404040" height="35" width="35" x="72" y="216" /><rect fill="#404040" height="35" width="35" x="108" y="216" /><rect fill="#3f4040" height="35" width="35" x="144" y="216" /><rect fill="#c140fb" height="35" width="35" x="180" y="216" /><rect fill="#43b241" height="35" width="35" x="216" y="216" /><rect fill="#7d7539" height="35" width="35" x="252" y="216" /><rect fill="#be40ff" height="35" width="35" x="288" y="216" /><rect fill="#40b23f" height="35" width="35" x="324" y="216" /><rect fill="#40ca3e" height="35" width="35" x="360" y="216" /><rect fill="#777c40" height="35" width="35" x="396" y="216" /><rect fill="#404040" height="35" width="35" x="432" y="216" /><rect fill="#404040" height="35" width="35" x="468" y="216" /><rect fill="#404040" height="35" width="35" x="504" y="216" /><rect fill="#404040" height="35" width="35" x="540" y="216" /><rect fill="#404040" height="35" width="35" x="0" y="252" /><rect fill="#404040" height="35" width="35" x="36" y="252" /><rect fill="#40403d" height="35" width="35" x="72" y="252" /><rect fill="#3f7a7c" height="35" width="35" x="108" y="252" /><rect fill="#40b440" height="35" width="35" x="144" y="252" /><rect fill="#43b244" height="35" width="35" x="180" y="252" /><rect fill="#bf3cfb" height="35" width="35" x="216" y="252" /><rect fill="#c03dfc" height="35" width="35" x="252" y="252" /><rect fill="#45b648" height="35" width="35" x="288" y="252" /><rect fill="#46b744" height="35" width="35" x="324" y="252" /><rect fill="#7fcb41" height="35" width="35" x="360" y="252" /><rect fill="#ffff45" height="35" width="35" x="396" y="252" /><rect fill="#7b7a3f" height="35" width="35" x="432" y="252" /><rect fill="#404040" height="35" width="35" x="468" y="252" /><rect fill="#404040" height="35" width="35" x="504" y="252" /><rect fill="#404040" height="35" width="35" x="540" y="252" /><rect fill="#404040" height="35" width="35" x="0" y="288" /><rect fill="#404040" height="35" width="35" x="36" y="288" /><rect fill="#417a78" height="35" width="35" x="72" y="288" /><rect fill="#3dc0fd" height="35" width="35" x="108" y="288" /><rect fill="#3ebd77" height="35" width="35" x="144" y="288" /><rect fill="#43a241" height="35" width="35" x="180" y="288" /><rect fill="#41b53f" height="35" width="35" x="216" y="288" /><rect fill="#43b643" height="35" width="35" x="252" y="288" /><rect fill="#43b643" height="35" width="35" x="288" y="288" /><rect fill="#7c9143" height="35" width="35" x="324" y="288" /><rect fill="#42a140" height="35" width="35" x="360" y="288" /><rect fill="#d37ac5" height="35" width="35" x="396" y="288" /><rect fill="#45a243" height="35" width="35" x="432" y="288" /><rect fill="#404040" height="35" width="35" x="468" y="288" /><rect fill="#404040" height="35" width="35" x="504" y="288" /><rect fill="#404040" height="35" width="35" x="540" y="288" /><rect fill="#404040" height="35" width="35" x="0" y="324" /><rect fill="#404040" height="35" width="35" x="36" y="324" /><rect fill="#3c4140" height="35" width="35" x="72" y="324" /><rect fill="#407b7d" height="35" width="35" x="108" y="324" /><rect fill="#404145" height="35" width="35" x="144" y="324" /><rect fill="#3c913e" height="35" width="35" x="180" y="324" /><rect fill="#45a23f" height="35" width="35" x="216" y="324" /><rect fill="#44b744" height="35" width="35" x="252" y="324" /><rect fill="#7e8f40" height="35" width="35" x="288" y="324" /><rect fill="#ff3f3b" height="35" width="35" x="324" y="324" /><rect fill="#d440c3" height="35" width="35" x="360" y="324" /><rect fill="#444244" height="35" width="35" x="396" y="324" /><rect fill="#404042" height="35" width="35" x="432" y="324" /><rect fill="#404040" height="35" width="35" x="468" y="324" /><rect fill="#404040" height="35" width="35" x="504" y="324" /><rect fill="#3f3f3f" height="35" width="35" x="540" y="324" /><rect fill="#414040" height="35" width="35" x="0" y="360" /><rect fill="#404040" height="35" width="35" x="36" y="360" /><rect fill="#404040" height="35" width="35" x="72" y="360" /><rect fill="#3e4140" height="35" width="35" x="108" y="360" /><rect fill="#c242ff" height="35" width="35" x="144" y="360" /><rect fill="#47b645" height="35" width="35" x="180" y="360" /><rect fill="#41913d" height="35" width="35" x="216" y="360" /><rect fill="#3f933f" height="35" width="35" x="252" y="360" /><rect fill="#c23fff" height="35" width="35" x="288" y="360" /><rect fill="#d743cb" height="35" width="35" x="324" y="360" /><rect fill="#44b745" height="35" width="35" x="360" y="360" /><rect fill="#40ca40" height="35" width="35" x="396" y="360" /><rect fill="#3e7a79" height="35" width="35" x="432" y="360" /><rect fill="#3e3f42" height="35" width="35" x="468" y="360" /><rect fill="#404040" height="35" width="35" x="504" y="360" /><rect fill="#404040" height="35" width="35" x="540" y="360" /><rect fill="#404040" height="35" width="35" x="0" y="396" /><rect fill="#404040" height="35" width="35" x="36" y="396" /><rect fill="#7c7c41" height="35" width="35" x="72" y="396" /><rect fill="#47a143" height="35" width="35" x="108" y="396" /><rect fill="#41a041" height="35" width="35" x="144" y="396" /><rect fill="#be3fff" height="35" width="35" x="180" y="396" /><rect fill="#d242c7" height="35" width="35" x="216" y="396" /><rect fill="#c041fe" height="35" width="35" x="252" y="396" /><rect fill="#41b444" height="35" width="35" x="288" y="396" /><rect fill="#46b646" height="35" width="35" x="324" y="396" /><rect fill="#44b544" height="35" width="35" x="360" y="396" /><rect fill="#3ebd75" height="35" width="35" x="396" y="396" /><rect fill="#3ec3ff" height="35" width="35" x="432" y="396" /><rect fill="#3f7a78" height="35" width="35" x="468" y="396" /><rect fill="#3e4140" height="35" width="35" x="504" y="396" /><rect fill="#404040" height="35" width="35" x="540" y="396" /><rect fill="#404040" height="35" width="35" x="0" y="432" /><rect fill="#787c40" height="35" width="35" x="36" y="432" /><rect fill="#fdff3d" height="35" width="35" x="72" y="432" /><rect fill="#7ab53c" height="35" width="35" x="108" y="432" /><rect fill="#3e913a" height="35" width="35" x="144" y="432" /><rect fill="#7e8241" height="35" width="35" x="180" y="432" /><rect fill="#fb3e3c" height="35" width="35" x="216" y="432" /><rect fill="#7d833d" height="35" width="35" x="252" y="432" /><rect fill="#45a042" height="35" width="35" x="288" y="432" /><rect fill="#42a142" height="35" width="35" x="324" y="432" /><rect fill="#42a140" height="35" width="35" x="360" y="432" /><rect fill="#3d943e" height="35" width="35" x="396" y="432" /><rect fill="#40b47c" height="35" width="35" x="432" y="432" /><rect fill="#3e9440" height="35" width="35" x="468" y="432" /><rect fill="#424040" height="35" width="35" x="504" y="432" /><rect fill="#404040" height="35" width="35" x="540" y="432" /><rect fill="#404040" height="35" width="35" x="0" y="468" /><rect fill="#404041" height="35" width="35" x="36" y="468" /><rect fill="#72783a" height="35" width="35" x="72" y="468" /><rect fill="#3f3e45" height="35" width="35" x="108" y="468" /><rect fill="#3f3f41" height="35" width="35" x="144" y="468" /><rect fill="#429545" height="35" width="35" x="180" y="468" /><rect fill="#7c783a" height="35" width="35" x="216" y="468" /><rect fill="#3e923d" height="35" width="35" x="252" y="468" /><rect fill="#41913d" height="35" width="35" x="288" y="468" /><rect fill="#409340" height="35" width="35" x="324" y="468" /><rect fill="#3d933d" height="35" width="35" x="360" y="468" /><rect fill="#3c3f3a" height="35" width="35" x="396" y="468" /><rect fill="#3f4241" height="35" width="35" x="432" y="468" /><rect fill="#3d3f3f" height="35" width="35" x="468" y="468" /><rect fill="#3e4140" height="35" width="35" x="504" y="468" /><rect fill="#404040" height="35" width="35" x="540" y="468" /><rect fill="#404040" height="35" width="35" x="0" y="504" /><rect fill="#404040" height="35" width="35" x="36" y="504" /><rect fill="#414141" height="35" width="35" x="72" y="504" /><rect fill="#404040" height="35" width="35" x="108" y="504" /><rect fill="#414141" height="35" width="35" x="144" y="504" /><rect fill="#404040" height="35" width="35" x="180" y="504" /><rect fill="#404040" height="35" width="35" x="216" y="504" /><rect fill="#875a40" height="35" width="35" x="252" y="504" /><rect fill="#b16741" height="35" width="35" x="288" y="504" /><rect fill="#3f3f3f" height="35" width="35" x="324" y="504" /><rect fill="#3e4041" height="35" width="35" x="360" y="504" /><rect fill="#404040" height="35" width="35" x="396" y="504" /><rect fill="#404040" height="35" width="35" x="432" y="504" /><rect fill="#404040" height="35" width="35" x="468" y="504" /><rect fill="#404040" height="35" width="35" x="504" y="504" /><rect fill="#404040" height="35" width="35" x="540" y="504" /><rect fill="#404040" height="35" width="35" x="0" y="540" /><rect fill="#404040" height="35" width="35" x="36" y="540" /><rect fill="#404040" height="35" width="35" x="72" y="540" /><rect fill="#404040" height="35" width="35" x="108" y="540" /><rect fill="#404040" height="35" width="35" x="144" y="540" /><rect fill="#404040" height="35" width="35" x="180" y="540" /><rect fill="#40403e" height="35" width="35" x="216" y="540" /><rect fill="#905d3b" height="35" width="35" x="252" y="540" /><rect fill="#bb6c3c" height="35" width="35" x="288" y="540" /><rect fill="#3e4140" height="35" width="35" x="324" y="540" /><rect fill="#404040" height="35" width="35" x="360" y="540" /><rect fill="#404040" height="35" width="35" x="396" y="540" /><rect fill="#3f3f3f" height="35" width="35" x="432" y="540" /><rect fill="#404040" height="35" width="35" x="468" y="540" /><rect fill="#404040" height="35" width="35" x="504" y="540" /><rect fill="#404042" height="35" width="35" x="540" y="540" /></svg>