<?xml version="1.0" encoding="utf-8" ?>
<svg baseProfile="tiny" height="575" version="1.2" width="575" xmlns="http://www.w3.org/2000/svg" xmlns:ev="http://www.w3.org/2001/xml-events" xmlns:xlink="http://www.w3.org/1999/xlink"><defs /><rect fill="#000000" height="35" width="35" x="0" y="0" /><rect fill="#000000" height="35" width="35" x="36" y="0" /><rect fill="#000000" height="35" width="35" x="72" y="0" /><rect fill="#000000" height="35" width="35" x="108" y="0" /><rect fill="#000000" height="35" width="35" x="144" y="0" /><rect fill="#020000" height="35" width="35" x="180" y="0" /><rect fill="#4a4f00" height="35" width="35" x="216" y="0" /><rect fill="#feff01" height="35" width="35" x="252" y="0" /><rect fill="#fdff00" height="35" width="35" x="288" y="0" /><rect fill="#4c4e05" height="35" width="35" x="324" y="0" /><rect fill="#010000" height="35" width="35" x="360" y="0" /><rect fill="#000001" height="35" width="35" x="396" y="0" /><rect fill="#000000" height="35" width="35" x="432" y="0" /><rect fill="#000000" height="35" width="35" x="468" y="0" /><rect fill="#000000" height="35" width="35" x="504" y="0" /><rect fill="#000000" height="35" width="35" x="540" y="0" /><rect fill="#000000" height="35" width="35" x="0" y="36" /><rect fill="#000000" height="35" width="35" x="36" y="36" /><rect fill="#000000" height="35" width="35" x="72" y="36" /><rect fill="#000000" height="35" width="35" x="108" y="36" /><rect fill="#000000" height="35" width="35" x="144" y="36" /><rect fill="#020000" height="35" width="35" x="180" y="36" /><rect fill="#494e00" height="35" width="35" x="216" y="36" /><rect fill="#feff00" height="35" width="35" x="252" y="36" /><rect fill="#feff00" height="35" width="35" x="288" y="36" /><rect fill="#4c4f00" height="35" width="35" x="324" y="36" /><rect fill="#000000" height="35" width="35" x="360" y="36" /><rect fill="#000000" height="35" width="35" x="396" y="36" /><rect fill="#000000" height="35" width="35" x="432" y="36" /><rect fill="#000000" height="35" width="35" x="468" y="36" /><rect fill="#000000" height="35" width="35" x="504" y="36" /><rect fill="#000000" height="35" width="35" x="540" y="36" /><rect fill="#000000" height="35" width="35" x="0" y="72" /><rect fill="#000000" height="35" width="35" x="36" y="72" /><rect fill="#000000" height="35" width="35" x="72" y="72" /><rect fill="#000000" height="35" width="35" x="108" y="72" /><rect fill="#000000" height="35" width="35" x="144" y="72" /><rect fill="#000000" height="35" width="35" x="180" y="72" /><rect fill="#010101" height="35" width="35" x="216" y="72" /><rect fill="#48cf00" height="35" width="35" x="252" y="72" /><rect fill="#4dd000" height="35" width="35" x="288" y="72" /><rect fill="#004e47" height="35" width="35" x="324" y="72" /><rect fill="#000000" height="35" width="35" x="360" y="72" /><rect fill="#000000" height="35" width="35" x="396" y="72" /><rect fill="#000000" height="35" width="35" x="432" y="72" /><rect fill="#000000" height="35" width="35" x="468" y="72" /><rect fill="#000000" height="35" width="35" x="504" y="72" /><rect fill="#000000" height="35" width="35" x="540" y="72" /><rect fill="#000000" height="35" width="35" x="0" y="108" /><rect fill="#000000" height="35" width="35" x="36" y="108" /><rect fill="#000000" height="35" width="35" x="72" y="108" /><rect fill="#000000" height="35" width="35" x="108" y="108" /><rect fill="#000000" height="35" width="35" x="144" y="108" /><rect fill="#4c5002" height="35" width="35" x="180" y="108" /><rect fill="#039e05" height="35" width="35" x="216" y="108" /><rect fill="#029c01" height="35" width="35" x="252" y="108" /><rect fill="#01bb53" height="35" width="35" x="288" y="108" /><rect fill="#02acff" height="35" width="35" x="324" y="108" /><rect fill="#01504f" height="35" width="35" x="360" y="108" /><rect fill="#020202" height="35" width="35" x="396" y="108" /><rect fill="#000000" height="35" width="35" x="432" y="108" /><rect fill="#000000" height="35" width="35" x="468" y="108" /><rect fill="#000000" height="35" width="35" x="504" y="108" /><rect fill="#000000" height="35" width="35" x="540" y="108" /><rect fill="#000000" height="35" width="35" x="0" y="144" /><rect fill="#000000" height="35" width="35" x="36" y="144" /><rect fill="#000000" height="35" width="35" x="72" y="144" /><rect fill="#000000" height="35" width="35" x="108" y="144" /><rect fill="#4e5005" height="35" width="35" x="144" y="144" /><rect fill="#feff02" height="35" width="35" x="180" y="144" /><rect fill="#4ebc06" height="35" width="35" x="216" y="144" /><rect fill="#4f6d05" height="35" width="35" x="252" y="144" /><rect fill="#029d03" height="35" width="35" x="288" y="144" /><rect fill="#03a550" height="35" width="35" x="324" y="144" /><rect fill="#028503" height="35" width="35" x="360" y="144" /><rect fill="#000000" height="35" width="35" x="396" y="144" /><rect fill="#000000" height="35" width="35" x="432" y="144" /><rect fill="#000000" height="35" width="35" x="468" y="144" /><rect fill="#000000" height="35" width="35" x="504" y="144" /><rect fill="#000000" height="35" width="35" x="540" y="144" /><rect fill="#000000" height="35" width="35" x="0" y="180" /><rect fill="#000000" height="35" width="35" x="36" y="180" /><rect fill="#000000" height="35" width="35" x="72" y="180" /><rect fill="#000000" height="35" width="35" x="108" y="180" /><rect fill="#000000" height="35" width="35" x="144" y="180" /><rect fill="#4c4f00" height="35" width="35" x="180" y="180" /><rect fill="#506c02" height="35" width="35" x="216" y="180" /><rect fill="#fd0000" height="35" width="35" x="252" y="180" /><rect fill="#505a00" height="35" width="35" x="288" y="180" /><rect fill="#a901fd" height="35" width="35" x="324" y="180" /><rect fill="#000000" height="35" width="35" x="360" y="180" /><rect fill="#000000" height="35" width="35" x="396" y="180" /><rect fill="#000000" height="35" width="35" x="432" y="180" /><rect fill="#000000" height="35" width="35" x="468" y="180" /><rect fill="#000000" height="35" width="35" x="504" y="180" /><rect fill="#000000" height="35" width="35" x="540" y="180" /><rect fill="#000000" height="35" width="35" x="0" y="216" /><rect fill="#000000" height="35" width="35" x="36" y="216" /><rect fill="#010000" height="35" width="35" x="72" y="216" /><rect fill="#000000" height="35" width="35" x="108" y="216" /><rect fill="#000000" height="35" width="35" x="144" y="216" /><rect fill="#a601fd" height="35" width="35" x="180" y="216" /><rect fill="#059f05" height="35" width="35" x="216" y="216" /><rect fill="#4d4d00" height="35" width="35" x="252" y="216" /><rect fill="#aa03ff" height="35" width="35" x="288" y="216" /><rect fill="#0ba00a" height="35" width="35" x="324" y="216" /><rect fill="#05bd0f" height="35" width="35" x="360" y="216" /><rect fill="#4d5000" height="35" width="35" x="396" y="216" /><rect fill="#000000" height="35" width="35" x="432" y="216" /><rect fill="#000000" height="35" width="35" x="468" y="216" /><rect fill="#000000" height="35" width="35" x="504" y="216" /><rect fill="#000000" height="35" width="35" x="540" y="216" /><rect fill="#000000" height="35" width="35" x="0" y="252" /><rect fill="#000000" height="35" width="35" x="36" y="252" /><rect fill="#020004" height="35" width="35" x="72" y="252" /><rect fill="#004d4d" height="35" width="35" x="108" y="252" /><rect fill="#06a008" height="35" width="35" x="144" y="252" /><rect fill="#009e03" height="35" width="35" x="180" y="252" /><rect fill="#a801ff" height="35" width="35" x="216" y="252" /><rect fill="#a900ff" height="35" width="35" x="252" y="252" /><rect fill="#049e06" height="35" width="35" x="288" y="252" /><rect fill="#02a005" height="35" width="35" x="324" y="252" /><rect fill="#50bc03" height="35" width="35" x="360" y="252" /><rect fill="#fafe02" height="35" width="35" x="396" y="252" /><rect fill="#505001" height="35" width="35" x="432" y="252" /><rect fill="#000000" height="35" width="35" x="468" y="252" /><rect fill="#000000" height="35" width="35" x="504" y="252" /><rect fill="#000000" height="35" width="35" x="540" y="252" /><rect fill="#000000" height="35" width="35" x="0" y="288" /><rect fill="#000000" height="35" width="35" x="36" y="288" /><rect fill="#004d4b" height="35" width="35" x="72" y="288" /><rect fill="#00aafe" height="35" width="35" x="108" y="288" /><rect fill="#00a84f" height="35" width="35" x="144" y="288" /><rect fill="#028104" height="35" width="35" x="180" y="288" /><rect fill="#029d03" height="35" width="35" x="216" y="288" /><rect fill="#049e04" height="35" width="35" x="252" y="288" /><rect fill="#059e04" height="35" width="35" x="288" y="288" /><rect fill="#516d03" height="35" width="35" x="324" y="288" /><rect fill="#028102" height="35" width="35" x="360" y="288" /><rect fill="#c44daf" height="35" width="35" x="396" y="288" /><rect fill="#058007" height="35" width="35" x="432" y="288" /><rect fill="#000000" height="35" width="35" x="468" y="288" /><rect fill="#000000" height="35" width="35" x="504" y="288" /><rect fill="#000000" height="35" width="35" x="540" y="288" /><rect fill="#000000" height="35" width="35" x="0" y="324" /><rect fill="#000000" height="35" width="35" x="36" y="324" /><rect fill="#000000" height="35" width="35" x="72" y="324" /><rect fill="#004f4d" height="35" width="35" x="108" y="324" /><rect fill="#000000" height="35" width="35" x="144" y="324" /><rect fill="#007002" height="35" width="35" x="180" y="324" /><rect fill="#028102" height="35" width="35" x="216" y="324" /><rect fill="#059f05" height="35" width="35" x="252" y="324" /><rect fill="#506a00" height="35" width="35" x="288" y="324" /><rect fill="#ff0002" height="35" width="35" x="324" y="324" /><rect fill="#c000ad" height="35" width="35" x="360" y="324" /><rect fill="#040000" height="35" width="35" x="396" y="324" /><rect fill="#000001" height="35" width="35" x="432" y="324" /><rect fill="#000000" height="35" width="35" x="468" y="324" /><rect fill="#000000" height="35" width="35" x="504" y="324" /><rect fill="#000000" height="35" width="35" x="540" y="324" /><rect fill="#000000" height="35" width="35" x="0" y="360" /><rect fill="#000000" height="35" width="35" x="36" y="360" /><rect fill="#000000" height="35" width="35" x="72" y="360" /><rect fill="#000000" height="35" width="35" x="108" y="360" /><rect fill="#a400f7" height="35" width="35" x="144" y="360" /><rect fill="#029e06" height="35" width="35" x="180" y="360" /><rect fill="#007101" height="35" width="35" x="216" y="360" /><rect fill="#007101" height="35" width="35" x="252" y="360" /><rect fill="#a801fd" height="35" width="35" x="288" y="360" /><rect fill="#c100ab" height="35" width="35" x="324" y="360" /><rect fill="#01a005" height="35" width="35" x="360" y="360" /><rect fill="#07ba09" height="35" width="35" x="396" y="360" /><rect fill="#034f51" height="35" width="35" x="432" y="360" /><rect fill="#000000" height="35" width="35" x="468" y="360" /><rect fill="#000000" height="35" width="35" x="504" y="360" /><rect fill="#000000" height="35" width="35" x="540" y="360" /><rect fill="#000000" height="35" width="35" x="0" y="396" /><rect fill="#000000" height="35" width="35" x="36" y="396" /><rect fill="#4b5203" height="35" width="35" x="72" y="396" /><rect fill="#007f02" height="35" width="35" x="108" y="396" /><rect fill="#048102" height="35" width="35" x="144" y="396" /><rect fill="#a901fd" height="35" width="35" x="180" y="396" /><rect fill="#c300b0" height="35" width="35" x="216" y="396" /><rect fill="#a800f8" height="35" width="35" x="252" y="396" /><rect fill="#039e04" height="35" width="35" x="288" y="396" /><rect fill="#079d06" height="35" width="35" x="324" y="396" /><rect fill="#059e04" height="35" width="35" x="360" y="396" /><rect fill="#00a84d" height="35" width="35" x="396" y="396" /><rect fill="#03abfc" height="35" width="35" x="432" y="396" /><rect fill="#004d4d" height="35" width="35" x="468" y="396" /><rect fill="#000000" height="35" width="35" x="504" y="396" /><rect fill="#000000" height="35" width="35" x="540" y="396" /><rect fill="#000002" height="35" width="35" x="0" y="432" /><rect fill="#4a5003" height="35" width="35" x="36" y="432" /><rect fill="#fdfe01" height="35" width="35" x="72" y="432" /><rect fill="#4e9c00" height="35" width="35" x="108" y="432" /><rect fill="#007002" height="35" width="35" x="144" y="432" /><rect fill="#505a01" height="35" width="35" x="180" y="432" /><rect fill="#fd0000" height="35" width="35" x="216" y="432" /><rect fill="#4f5b00" height="35" width="35" x="252" y="432" /><rect fill="#018202" height="35" width="35" x="288" y="432" /><rect fill="#058002" height="35" width="35" x="324" y="432" /><rect fill="#038102" height="35" width="35" x="360" y="432" /><rect fill="#017004" height="35" width="35" x="396" y="432" /><rect fill="#009b53" height="35" width="35" x="432" y="432" /><rect fill="#007000" height="35" width="35" x="468" y="432" /><rect fill="#000000" height="35" width="35" x="504" y="432" /><rect fill="#000000" height="35" width="35" x="540" y="432" /><rect fill="#000001" height="35" width="35" x="0" y="468" /><rect fill="#000001" height="35" width="35" x="36" y="468" /><rect fill="#4e5005" height="35" width="35" x="72" y="468" /><rect fill="#000000" height="35" width="35" x="108" y="468" /><rect fill="#000100" height="35" width="35" x="144" y="468" /><rect fill="#016f04" height="35" width="35" x="180" y="468" /><rect fill="#494c00" height="35" width="35" x="216" y="468" /><rect fill="#007202" height="35" width="35" x="252" y="468" /><rect fill="#017002" height="35" width="35" x="288" y="468" /><rect fill="#006f01" height="35" width="35" x="324" y="468" /><rect fill="#017000" height="35" width="35" x="360" y="468" /><rect fill="#000400" height="35" width="35" x="396" y="468" /><rect fill="#010103" height="35" width="35" x="432" y="468" /><rect fill="#020004" height="35" width="35" x="468" y="468" /><rect fill="#000000" height="35" width="35" x="504" y="468" /><rect fill="#000000" height="35" width="35" x="540" y="468" /><rect fill="#000000" height="35" width="35" x="0" y="504" /><rect fill="#000000" height="35" width="35" x="36" y="504" /><rect fill="#010101" height="35" width="35" x="72" y="504" /><rect fill="#000000" height="35" width="35" x="108" y="504" /><rect fill="#000000" height="35" width="35" x="144" y="504" /><rect fill="#000000" height="35" width="35" x="180" y="504" /><rect fill="#000001" height="35" width="35" x="216" y="504" /><rect fill="#632200" height="35" width="35" x="252" y="504" /><rect fill="#943300" height="35" width="35" x="288" y="504" /><rect fill="#000000" height="35" width="35" x="324" y="504" /><rect fill="#000000" height="35" width="35" x="360" y="504" /><rect fill="#000000" height="35" width="35" x="396" y="504" /><rect fill="#000000" height="35" width="35" x="432" y="504" /><rect fill="#000000" height="35" width="35" x="468" y="504" /><rect fill="#000000" height="35" width="35" x="504" y="504" /><rect fill="#000000" height="35" width="35" x="540" y="504" /><rect fill="#000000" height="35" width="35" x="0" y="540" /><rect fill="#000000" height="35" width="35" x="36" y="540" /><rect fill="#000000" height="35" width="35" x="72" y="540" /><rect fill="#000000" height="35" width="35" x="108" y="540" /><rect fill="#000000" height="35" width="35" x="144" y="540" /><rect fill="#000000" height="35" width="35" x="180" y="540" /><rect fill="#000002" height="35" width="35" x="216" y="540" /><rect fill="#6d2701" height="35" width="35" x="252" y="540" /><rect fill="#a93800" height="35" width="35" x="288" y="540" /><rect fill="#000000" height="35" width="35" x="324" y="540" /><rect fill="#000000" height="35" width="35" x="360" y="540" /><rect fill="#000000" height="35" width="35" x="396" y="540" /><rect fill="#000000" height="35" width="35" x="432" y="540" /><rect fill="#000000" height="35" width="35" x="468" y="540" /><rect fill="#000000" height="35" width="35" x="504" y="540" /><rect fill="#000000" height="35" width="35" x="540" y="540" /></svg>