<?xml version="1.0" encoding="utf-8" ?>
<svg baseProfile="tiny" height="575" version="1.2" width="575" xmlns="http://www.w3.org/2000/svg" xmlns:ev="http://www.w3.org/2001/xml-events" xmlns:xlink="http://www.w3.org/1999/xlink"><defs /><rect fill="#000000" height="35" width="35" x="0" y="0" /><rect fill="#000000" height="35" width="35" x="36" y="0" /><rect fill="#000000" height="35" width="35" x="72" y="0" /><rect fill="#000000" height="35" width="35" x="108" y="0" /><rect fill="#000000" height="35" width="35" x="144" y="0" /><rect fill="#000000" height="35" width="35" x="180" y="0" /><rect fill="#4a4f00" height="35" width="35" x="216" y="0" /><rect fill="#feff01" height="35" width="35" x="252" y="0" /><rect fill="#fdff00" height="35" width="35" x="288" y="0" /><rect fill="#4c4e00" height="35" width="35" x="324" y="0" /><rect fill="#010000" height="35" width="35" x="360" y="0" /><rect fill="#000001" height="35" width="35" x="396" y="0" /><rect fill="#000000" height="35" width="35" x="432" y="0" /><rect fill="#000000" height="35" width="35" x="468" y="0" /><rect fill="#000000" height="35" width="35" x="504" y="0" /><rect fill="#000000" height="35" width="35" x="540" y="0" /><rect fill="#000000" height="35" width="35" x="0" y="36" /><rect fill="#000000" height="35" width="35" x="36" y="36" /><rect fill="#000000" height="35" width="35" x="72" y="36" /><rect fill="#000000" height="35" width="35" x="108" y="36" /><rect fill="#000000" height="35" width="35" x="144" y="36" /><rect fill="#020000" height="35" width="35" x="180" y="36" /><rect fill="#494e00" height="35" width="35" x="216" y="36" /><rect fill="#feff00" height="35" width="35" x="252" y="36" /><rect fill="#feff00" height="35" width="35" x="288" y="36" /><rect fill="#4c4f00" height="35" width="35" x="324" y="36" /><rect fill="#000000" height="35" width="35" x="360" y="36" /><rect fill="#000000" height="35" width="35" x="396" y="36" /><rect fill="#000000" height="35" width="35" x="432" y="36" /><rect fill="#000000" height="35" width="35" x="468" y="36" /><rect fill="#000000" height="35" width="35" x="504" y="36" /><rect fill="#000000" height="35" width="35" x="540" y="36" /><rect fill="#000000" height="35" width="35" x="0" y="72" /><rect fill="#000000" height="35" width="35" x="36" y="72" /><rect fill="#000000" height="35" width="35" x="72" y="72" /><rect fill="#000000" height="35" width="35" x="108" y="72" /><rect fill="#000000" height="35" width="35" x="144" y="72" /><rect fill="#000000" height="35" width="35" x="180" y="72" /><rect fill="#4d0000" height="35" width="35" x="216" y="72" /><rect fill="#4ace00" height="35" width="35" x="252" y="72" /><rect fill="#4ece03" height="35" width="35" x="288" y="72" /><rect fill="#000000" height="35" width="35" x="324" y="72" /><rect fill="#000000" height="35" width="35" x="360" y="72" /><rect fill="#000000" height="35" width="35" x="396" y="72" /><rect fill="#000000" height="35" width="35" x="432" y="72" /><rect fill="#000000" height="35" width="35" x="468" y="72" /><rect fill="#000000" height="35" width="35" x="504" y="72" /><rect fill="#000000" height="35" width="35" x="540" y="72" /><rect fill="#000000" height="35" width="35" x="0" y="108" /><rect fill="#000000" height="35" width="35" x="36" y="108" /><rect fill="#000000" height="35" width="35" x="72" y="108" /><rect fill="#000000" height="35" width="35" x="108" y="108" /><rect fill="#000000" height="35" width="35" x="144" y="108" /><rect fill="#4e0101" height="35" width="35" x="180" y="108" /><rect fill="#fb0000" height="35" width="35" x="216" y="108" /><rect fill="#536c07" height="35" width="35" x="252" y="108" /><rect fill="#049c04" height="35" width="35" x="288" y="108" /><rect fill="#03b804" height="35" width="35" x="324" y="108" /><rect fill="#494f00" height="35" width="35" x="360" y="108" /><rect fill="#010101" height="35" width="35" x="396" y="108" /><rect fill="#000000" height="35" width="35" x="432" y="108" /><rect fill="#000000" height="35" width="35" x="468" y="108" /><rect fill="#000000" height="35" width="35" x="504" y="108" /><rect fill="#000000" height="35" width="35" x="540" y="108" /><rect fill="#000000" height="35" width="35" x="0" y="144" /><rect fill="#000000" height="35" width="35" x="36" y="144" /><rect fill="#000000" height="35" width="35" x="72" y="144" /><rect fill="#000000" height="35" width="35" x="108" y="144" /><rect fill="#000000" height="35" width="35" x="144" y="144" /><rect fill="#008100" height="35" width="35" x="180" y="144" /><rect fill="#4e6e05" height="35" width="35" x="216" y="144" /><rect fill="#039e04" height="35" width="35" x="252" y="144" /><rect fill="#00ba54" height="35" width="35" x="288" y="144" /><rect fill="#53a808" height="35" width="35" x="324" y="144" /><rect fill="#fffe00" height="35" width="35" x="360" y="144" /><rect fill="#514f00" height="35" width="35" x="396" y="144" /><rect fill="#000000" height="35" width="35" x="432" y="144" /><rect fill="#000000" height="35" width="35" x="468" y="144" /><rect fill="#000000" height="35" width="35" x="504" y="144" /><rect fill="#000000" height="35" width="35" x="540" y="144" /><rect fill="#000000" height="35" width="35" x="0" y="180" /><rect fill="#000000" height="35" width="35" x="36" y="180" /><rect fill="#000000" height="35" width="35" x="72" y="180" /><rect fill="#000000" height="35" width="35" x="108" y="180" /><rect fill="#000000" height="35" width="35" x="144" y="180" /><rect fill="#010200" height="35" width="35" x="180" y="180" /><rect fill="#059e02" height="35" width="35" x="216" y="180" /><rect fill="#00bb52" height="35" width="35" x="252" y="180" /><rect fill="#00aaff" height="35" width="35" x="288" y="180" /><rect fill="#714ffd" height="35" width="35" x="324" y="180" /><rect fill="#4c4e00" height="35" width="35" x="360" y="180" /><rect fill="#000000" height="35" width="35" x="396" y="180" /><rect fill="#000000" height="35" width="35" x="432" y="180" /><rect fill="#000000" height="35" width="35" x="468" y="180" /><rect fill="#000000" height="35" width="35" x="504" y="180" /><rect fill="#000000" height="35" width="35" x="540" y="180" /><rect fill="#000000" height="35" width="35" x="0" y="216" /><rect fill="#000000" height="35" width="35" x="36" y="216" /><rect fill="#010000" height="35" width="35" x="72" y="216" /><rect fill="#000000" height="35" width="35" x="108" y="216" /><rect fill="#000000" height="35" width="35" x="144" y="216" /><rect fill="#ab00ff" height="35" width="35" x="180" y="216" /><rect fill="#059e09" height="35" width="35" x="216" y="216" /><rect fill="#047007" height="35" width="35" x="252" y="216" /><rect fill="#7450fe" height="35" width="35" x="288" y="216" /><rect fill="#05a102" height="35" width="35" x="324" y="216" /><rect fill="#06ba0d" height="35" width="35" x="360" y="216" /><rect fill="#4c0200" height="35" width="35" x="396" y="216" /><rect fill="#000000" height="35" width="35" x="432" y="216" /><rect fill="#000000" height="35" width="35" x="468" y="216" /><rect fill="#000000" height="35" width="35" x="504" y="216" /><rect fill="#000000" height="35" width="35" x="540" y="216" /><rect fill="#000000" height="35" width="35" x="0" y="252" /><rect fill="#000000" height="35" width="35" x="36" y="252" /><rect fill="#000000" height="35" width="35" x="72" y="252" /><rect fill="#000000" height="35" width="35" x="108" y="252" /><rect fill="#53bb02" height="35" width="35" x="144" y="252" /><rect fill="#059c07" height="35" width="35" x="180" y="252" /><rect fill="#a801ff" height="35" width="35" x="216" y="252" /><rect fill="#a901fa" height="35" width="35" x="252" y="252" /><rect fill="#029d00" height="35" width="35" x="288" y="252" /><rect fill="#059d06" height="35" width="35" x="324" y="252" /><rect fill="#516d05" height="35" width="35" x="360" y="252" /><rect fill="#ff0001" height="35" width="35" x="396" y="252" /><rect fill="#500001" height="35" width="35" x="432" y="252" /><rect fill="#000000" height="35" width="35" x="468" y="252" /><rect fill="#000000" height="35" width="35" x="504" y="252" /><rect fill="#000000" height="35" width="35" x="540" y="252" /><rect fill="#000000" height="35" width="35" x="0" y="288" /><rect fill="#000000" height="35" width="35" x="36" y="288" /><rect fill="#000000" height="35" width="35" x="72" y="288" /><rect fill="#50a800" height="35" width="35" x="108" y="288" /><rect fill="#fdfe00" height="35" width="35" x="144" y="288" /><rect fill="#50a800" height="35" width="35" x="180" y="288" /><rect fill="#039e04" height="35" width="35" x="216" y="288" /><rect fill="#00bb51" height="35" width="35" x="252" y="288" /><rect fill="#039e06" height="35" width="35" x="288" y="288" /><rect fill="#029d05" height="35" width="35" x="324" y="288" /><rect fill="#028102" height="35" width="35" x="360" y="288" /><rect fill="#c200ab" height="35" width="35" x="396" y="288" /><rect fill="#058002" height="35" width="35" x="432" y="288" /><rect fill="#000000" height="35" width="35" x="468" y="288" /><rect fill="#000000" height="35" width="35" x="504" y="288" /><rect fill="#000000" height="35" width="35" x="540" y="288" /><rect fill="#000000" height="35" width="35" x="0" y="324" /><rect fill="#000000" height="35" width="35" x="36" y="324" /><rect fill="#000000" height="35" width="35" x="72" y="324" /><rect fill="#000000" height="35" width="35" x="108" y="324" /><rect fill="#4c4f00" height="35" width="35" x="144" y="324" /><rect fill="#017002" height="35" width="35" x="180" y="324" /><rect fill="#00a750" height="35" width="35" x="216" y="324" /><rect fill="#02aafd" height="35" width="35" x="252" y="324" /><rect fill="#00bb4f" height="35" width="35" x="288" y="324" /><rect fill="#038102" height="35" width="35" x="324" y="324" /><rect fill="#a900fc" height="35" width="35" x="360" y="324" /><rect fill="#040001" height="35" width="35" x="396" y="324" /><rect fill="#000001" height="35" width="35" x="432" y="324" /><rect fill="#000002" height="35" width="35" x="468" y="324" /><rect fill="#000000" height="35" width="35" x="504" y="324" /><rect fill="#000000" height="35" width="35" x="540" y="324" /><rect fill="#000000" height="35" width="35" x="0" y="360" /><rect fill="#000000" height="35" width="35" x="36" y="360" /><rect fill="#000000" height="35" width="35" x="72" y="360" /><rect fill="#000000" height="35" width="35" x="108" y="360" /><rect fill="#a700fb" height="35" width="35" x="144" y="360" /><rect fill="#029f03" height="35" width="35" x="180" y="360" /><rect fill="#006f02" height="35" width="35" x="216" y="360" /><rect fill="#00994c" height="35" width="35" x="252" y="360" /><rect fill="#a801fd" height="35" width="35" x="288" y="360" /><rect fill="#a600f9" height="35" width="35" x="324" y="360" /><rect fill="#059f04" height="35" width="35" x="360" y="360" /><rect fill="#04bb07" height="35" width="35" x="396" y="360" /><rect fill="#000003" height="35" width="35" x="432" y="360" /><rect fill="#000000" height="35" width="35" x="468" y="360" /><rect fill="#000000" height="35" width="35" x="504" y="360" /><rect fill="#000000" height="35" width="35" x="540" y="360" /><rect fill="#000000" height="35" width="35" x="0" y="396" /><rect fill="#000000" height="35" width="35" x="36" y="396" /><rect fill="#4d0000" height="35" width="35" x="72" y="396" /><rect fill="#028104" height="35" width="35" x="108" y="396" /><rect fill="#048104" height="35" width="35" x="144" y="396" /><rect fill="#a902fc" height="35" width="35" x="180" y="396" /><rect fill="#a801fb" height="35" width="35" x="216" y="396" /><rect fill="#a501fa" height="35" width="35" x="252" y="396" /><rect fill="#00ba52" height="35" width="35" x="288" y="396" /><rect fill="#019f06" height="35" width="35" x="324" y="396" /><rect fill="#049e02" height="35" width="35" x="360" y="396" /><rect fill="#008204" height="35" width="35" x="396" y="396" /><rect fill="#018005" height="35" width="35" x="432" y="396" /><rect fill="#000203" height="35" width="35" x="468" y="396" /><rect fill="#000000" height="35" width="35" x="504" y="396" /><rect fill="#000000" height="35" width="35" x="540" y="396" /><rect fill="#000000" height="35" width="35" x="0" y="432" /><rect fill="#4c0000" height="35" width="35" x="36" y="432" /><rect fill="#fe0000" height="35" width="35" x="72" y="432" /><rect fill="#4e4c01" height="35" width="35" x="108" y="432" /><rect fill="#017000" height="35" width="35" x="144" y="432" /><rect fill="#048102" height="35" width="35" x="180" y="432" /><rect fill="#028102" height="35" width="35" x="216" y="432" /><rect fill="#00a851" height="35" width="35" x="252" y="432" /><rect fill="#00aafc" height="35" width="35" x="288" y="432" /><rect fill="#00a84f" height="35" width="35" x="324" y="432" /><rect fill="#50a800" height="35" width="35" x="360" y="432" /><rect fill="#037101" height="35" width="35" x="396" y="432" /><rect fill="#017000" height="35" width="35" x="432" y="432" /><rect fill="#017000" height="35" width="35" x="468" y="432" /><rect fill="#000000" height="35" width="35" x="504" y="432" /><rect fill="#000000" height="35" width="35" x="540" y="432" /><rect fill="#000000" height="35" width="35" x="0" y="468" /><rect fill="#000001" height="35" width="35" x="36" y="468" /><rect fill="#4d0201" height="35" width="35" x="72" y="468" /><rect fill="#000001" height="35" width="35" x="108" y="468" /><rect fill="#000000" height="35" width="35" x="144" y="468" /><rect fill="#026f03" height="35" width="35" x="180" y="468" /><rect fill="#006f00" height="35" width="35" x="216" y="468" /><rect fill="#007002" height="35" width="35" x="252" y="468" /><rect fill="#009b51" height="35" width="35" x="288" y="468" /><rect fill="#4d9900" height="35" width="35" x="324" y="468" /><rect fill="#fffe00" height="35" width="35" x="360" y="468" /><rect fill="#4e5103" height="35" width="35" x="396" y="468" /><rect fill="#000100" height="35" width="35" x="432" y="468" /><rect fill="#000002" height="35" width="35" x="468" y="468" /><rect fill="#020000" height="35" width="35" x="504" y="468" /><rect fill="#000000" height="35" width="35" x="540" y="468" /><rect fill="#000000" height="35" width="35" x="0" y="504" /><rect fill="#000000" height="35" width="35" x="36" y="504" /><rect fill="#000000" height="35" width="35" x="72" y="504" /><rect fill="#000000" height="35" width="35" x="108" y="504" /><rect fill="#000000" height="35" width="35" x="144" y="504" /><rect fill="#000000" height="35" width="35" x="180" y="504" /><rect fill="#000000" height="35" width="35" x="216" y="504" /><rect fill="#652200" height="35" width="35" x="252" y="504" /><rect fill="#953100" height="35" width="35" x="288" y="504" /><rect fill="#000002" height="35" width="35" x="324" y="504" /><rect fill="#4a4f00" height="35" width="35" x="360" y="504" /><rect fill="#000100" height="35" width="35" x="396" y="504" /><rect fill="#000000" height="35" width="35" x="432" y="504" /><rect fill="#000000" height="35" width="35" x="468" y="504" /><rect fill="#000000" height="35" width="35" x="504" y="504" /><rect fill="#000000" height="35" width="35" x="540" y="504" /><rect fill="#000000" height="35" width="35" x="0" y="540" /><rect fill="#000000" height="35" width="35" x="36" y="540" /><rect fill="#000000" height="35" width="35" x="72" y="540" /><rect fill="#000000" height="35" width="35" x="108" y="540" /><rect fill="#000000" height="35" width="35" x="144" y="540" /><rect fill="#000000" height="35" width="35" x="180" y="540" /><rect fill="#000000" height="35" width="35" x="216" y="540" /><rect fill="#6e2700" height="35" width="35" x="252" y="540" /><rect fill="#a73800" height="35" width="35" x="288" y="540" /><rect fill="#000000" height="35" width="35" x="324" y="540" /><rect fill="#000000" height="35" width="35" x="360" y="540" /><rect fill="#000000" height="35" width="35" x="396" y="540" /><rect fill="#000000" height="35" width="35" x="432" y="540" /><rect fill="#000000" height="35" width="35" x="468" y="540" /><rect fill="#000000" height="35" width="35" x="504" y="540" /><rect fill="#000000" height="35" width="35" x="540" y="540" /></svg>