<?xml version="1.0" encoding="utf-8" ?>
<svg baseProfile="tiny" height="575" version="1.2" width="575" xmlns="http://www.w3.org/2000/svg" xmlns:ev="http://www.w3.org/2001/xml-events" xmlns:xlink="http://www.w3.org/1999/xlink"><defs /><rect fill="#000000" height="35" width="35" x="0" y="0" /><rect fill="#000000" height="35" width="35" x="36" y="0" /><rect fill="#000000" height="35" width="35" x="72" y="0" /><rect fill="#000000" height="35" width="35" x="108" y="0" /><rect fill="#000000" height="35" width="35" x="144" y="0" /><rect fill="#000000" height="35" width="35" x="180" y="0" /><rect fill="#4a4f00" height="35" width="35" x="216" y="0" /><rect fill="#feff00" height="35" width="35" x="252" y="0" /><rect fill="#feff00" height="35" width="35" x="288" y="0" /><rect fill="#4c4e00" height="35" width="35" x="324" y="0" /><rect fill="#000000" height="35" width="35" x="360" y="0" /><rect fill="#000001" height="35" width="35" x="396" y="0" /><rect fill="#000000" height="35" width="35" x="432" y="0" /><rect fill="#000000" height="35" width="35" x="468" y="0" /><rect fill="#000000" height="35" width="35" x="504" y="0" /><rect fill="#000000" height="35" width="35" x="540" y="0" /><rect fill="#000000" height="35" width="35" x="0" y="36" /><rect fill="#000000" height="35" width="35" x="36" y="36" /><rect fill="#000000" height="35" width="35" x="72" y="36" /><rect fill="#000000" height="35" width="35" x="108" y="36" /><rect fill="#000000" height="35" width="35" x="144" y="36" /><rect fill="#000000" height="35" width="35" x="180" y="36" /><rect fill="#494e00" height="35" width="35" x="216" y="36" /><rect fill="#feff00" height="35" width="35" x="252" y="36" /><rect fill="#feff00" height="35" width="35" x="288" y="36" /><rect fill="#4c4f00" height="35" width="35" x="324" y="36" /><rect fill="#000000" height="35" width="35" x="360" y="36" /><rect fill="#000000" height="35" width="35" x="396" y="36" /><rect fill="#000000" height="35" width="35" x="432" y="36" /><rect fill="#000000" height="35" width="35" x="468" y="36" /><rect fill="#000000" height="35" width="35" x="504" y="36" /><rect fill="#000000" height="35" width="35" x="540" y="36" /><rect fill="#000000" height="35" width="35" x="0" y="72" /><rect fill="#000000" height="35" width="35" x="36" y="72" /><rect fill="#000000" height="35" width="35" x="72" y="72" /><rect fill="#000000" height="35" width="35" x="108" y="72" /><rect fill="#000000" height="35" width="35" x="144" y="72" /><rect fill="#000000" height="35" width="35" x="180" y="72" /><rect fill="#010000" height="35" width="35" x="216" y="72" /><rect fill="#4ace00" height="35" width="35" x="252" y="72" /><rect fill="#4ece03" height="35" width="35" x="288" y="72" /><rect fill="#044d4a" height="35" width="35" x="324" y="72" /><rect fill="#000000" height="35" width="35" x="360" y="72" /><rect fill="#000000" height="35" width="35" x="396" y="72" /><rect fill="#000000" height="35" width="35" x="432" y="72" /><rect fill="#000000" height="35" width="35" x="468" y="72" /><rect fill="#000000" height="35" width="35" x="504" y="72" /><rect fill="#000000" height="35" width="35" x="540" y="72" /><rect fill="#000000" height="35" width="35" x="0" y="108" /><rect fill="#000000" height="35" width="35" x="36" y="108" /><rect fill="#000000" height="35" width="35" x="72" y="108" /><rect fill="#000000" height="35" width="35" x="108" y="108" /><rect fill="#000000" height="35" width="35" x="144" y="108" /><rect fill="#4b4d00" height="35" width="35" x="180" y="108" /><rect fill="#019d04" height="35" width="35" x="216" y="108" /><rect fill="#029d02" height="35" width="35" x="252" y="108" /><rect fill="#00bb4f" height="35" width="35" x="288" y="108" /><rect fill="#00a9fc" height="35" width="35" x="324" y="108" /><rect fill="#004d4c" height="35" width="35" x="360" y="108" /><rect fill="#000000" height="35" width="35" x="396" y="108" /><rect fill="#000000" height="35" width="35" x="432" y="108" /><rect fill="#000000" height="35" width="35" x="468" y="108" /><rect fill="#000000" height="35" width="35" x="504" y="108" /><rect fill="#000000" height="35" width="35" x="540" y="108" /><rect fill="#000000" height="35" width="35" x="0" y="144" /><rect fill="#000000" height="35" width="35" x="36" y="144" /><rect fill="#000000" height="35" width="35" x="72" y="144" /><rect fill="#000000" height="35" width="35" x="108" y="144" /><rect fill="#4c4f00" height="35" width="35" x="144" y="144" /><rect fill="#f9fc00" height="35" width="35" x="180" y="144" /><rect fill="#4ebc08" height="35" width="35" x="216" y="144" /><rect fill="#526b03" height="35" width="35" x="252" y="144" /><rect fill="#059e04" height="35" width="35" x="288" y="144" /><rect fill="#00a750" height="35" width="35" x="324" y="144" /><rect fill="#038206" height="35" width="35" x="360" y="144" /><rect fill="#000000" height="35" width="35" x="396" y="144" /><rect fill="#000000" height="35" width="35" x="432" y="144" /><rect fill="#000000" height="35" width="35" x="468" y="144" /><rect fill="#000000" height="35" width="35" x="504" y="144" /><rect fill="#000000" height="35" width="35" x="540" y="144" /><rect fill="#000000" height="35" width="35" x="0" y="180" /><rect fill="#000000" height="35" width="35" x="36" y="180" /><rect fill="#000000" height="35" width="35" x="72" y="180" /><rect fill="#000000" height="35" width="35" x="108" y="180" /><rect fill="#000000" height="35" width="35" x="144" y="180" /><rect fill="#4c4f00" height="35" width="35" x="180" y="180" /><rect fill="#4f6e03" height="35" width="35" x="216" y="180" /><rect fill="#fd0000" height="35" width="35" x="252" y="180" /><rect fill="#505a01" height="35" width="35" x="288" y="180" /><rect fill="#a801ff" height="35" width="35" x="324" y="180" /><rect fill="#000000" height="35" width="35" x="360" y="180" /><rect fill="#000000" height="35" width="35" x="396" y="180" /><rect fill="#000000" height="35" width="35" x="432" y="180" /><rect fill="#000000" height="35" width="35" x="468" y="180" /><rect fill="#000000" height="35" width="35" x="504" y="180" /><rect fill="#000000" height="35" width="35" x="540" y="180" /><rect fill="#000000" height="35" width="35" x="0" y="216" /><rect fill="#000000" height="35" width="35" x="36" y="216" /><rect fill="#010000" height="35" width="35" x="72" y="216" /><rect fill="#000000" height="35" width="35" x="108" y="216" /><rect fill="#000000" height="35" width="35" x="144" y="216" /><rect fill="#a901f9" height="35" width="35" x="180" y="216" /><rect fill="#029e06" height="35" width="35" x="216" y="216" /><rect fill="#4f4c00" height="35" width="35" x="252" y="216" /><rect fill="#a901fd" height="35" width="35" x="288" y="216" /><rect fill="#049d04" height="35" width="35" x="324" y="216" /><rect fill="#04bb05" height="35" width="35" x="360" y="216" /><rect fill="#4f4f02" height="35" width="35" x="396" y="216" /><rect fill="#010000" height="35" width="35" x="432" y="216" /><rect fill="#000000" height="35" width="35" x="468" y="216" /><rect fill="#000000" height="35" width="35" x="504" y="216" /><rect fill="#000000" height="35" width="35" x="540" y="216" /><rect fill="#000000" height="35" width="35" x="0" y="252" /><rect fill="#000000" height="35" width="35" x="36" y="252" /><rect fill="#000100" height="35" width="35" x="72" y="252" /><rect fill="#004e4a" height="35" width="35" x="108" y="252" /><rect fill="#049f05" height="35" width="35" x="144" y="252" /><rect fill="#049e06" height="35" width="35" x="180" y="252" /><rect fill="#a701ff" height="35" width="35" x="216" y="252" /><rect fill="#a801ff" height="35" width="35" x="252" y="252" /><rect fill="#029d08" height="35" width="35" x="288" y="252" /><rect fill="#059f05" height="35" width="35" x="324" y="252" /><rect fill="#4cbb02" height="35" width="35" x="360" y="252" /><rect fill="#feff00" height="35" width="35" x="396" y="252" /><rect fill="#4c4d00" height="35" width="35" x="432" y="252" /><rect fill="#000000" height="35" width="35" x="468" y="252" /><rect fill="#000000" height="35" width="35" x="504" y="252" /><rect fill="#000000" height="35" width="35" x="540" y="252" /><rect fill="#000000" height="35" width="35" x="0" y="288" /><rect fill="#000000" height="35" width="35" x="36" y="288" /><rect fill="#014f4a" height="35" width="35" x="72" y="288" /><rect fill="#00aafe" height="35" width="35" x="108" y="288" /><rect fill="#00a851" height="35" width="35" x="144" y="288" /><rect fill="#038301" height="35" width="35" x="180" y="288" /><rect fill="#039e04" height="35" width="35" x="216" y="288" /><rect fill="#049e04" height="35" width="35" x="252" y="288" /><rect fill="#059e04" height="35" width="35" x="288" y="288" /><rect fill="#4f6d05" height="35" width="35" x="324" y="288" /><rect fill="#028102" height="35" width="35" x="360" y="288" /><rect fill="#c64eae" height="35" width="35" x="396" y="288" /><rect fill="#048102" height="35" width="35" x="432" y="288" /><rect fill="#000000" height="35" width="35" x="468" y="288" /><rect fill="#000000" height="35" width="35" x="504" y="288" /><rect fill="#000000" height="35" width="35" x="540" y="288" /><rect fill="#000000" height="35" width="35" x="0" y="324" /><rect fill="#000000" height="35" width="35" x="36" y="324" /><rect fill="#000000" height="35" width="35" x="72" y="324" /><rect fill="#004f4a" height="35" width="35" x="108" y="324" /><rect fill="#000100" height="35" width="35" x="144" y="324" /><rect fill="#007000" height="35" width="35" x="180" y="324" /><rect fill="#028102" height="35" width="35" x="216" y="324" /><rect fill="#049e04" height="35" width="35" x="252" y="324" /><rect fill="#506c00" height="35" width="35" x="288" y="324" /><rect fill="#fe0004" height="35" width="35" x="324" y="324" /><rect fill="#c600b0" height="35" width="35" x="360" y="324" /><rect fill="#040000" height="35" width="35" x="396" y="324" /><rect fill="#000000" height="35" width="35" x="432" y="324" /><rect fill="#000000" height="35" width="35" x="468" y="324" /><rect fill="#000000" height="35" width="35" x="504" y="324" /><rect fill="#000000" height="35" width="35" x="540" y="324" /><rect fill="#000000" height="35" width="35" x="0" y="360" /><rect fill="#000000" height="35" width="35" x="36" y="360" /><rect fill="#000000" height="35" width="35" x="72" y="360" /><rect fill="#000000" height="35" width="35" x="108" y="360" /><rect fill="#a700fb" height="35" width="35" x="144" y="360" /><rect fill="#039e04" height="35" width="35" x="180" y="360" /><rect fill="#007100" height="35" width="35" x="216" y="360" /><rect fill="#006f02" height="35" width="35" x="252" y="360" /><rect fill="#a700fa" height="35" width="35" x="288" y="360" /><rect fill="#c301b0" height="35" width="35" x="324" y="360" /><rect fill="#049e07" height="35" width="35" x="360" y="360" /><rect fill="#05b804" height="35" width="35" x="396" y="360" /><rect fill="#044d4f" height="35" width="35" x="432" y="360" /><rect fill="#020000" height="35" width="35" x="468" y="360" /><rect fill="#000000" height="35" width="35" x="504" y="360" /><rect fill="#000000" height="35" width="35" x="540" y="360" /><rect fill="#000000" height="35" width="35" x="0" y="396" /><rect fill="#000001" height="35" width="35" x="36" y="396" /><rect fill="#4a4f00" height="35" width="35" x="72" y="396" /><rect fill="#018001" height="35" width="35" x="108" y="396" /><rect fill="#048104" height="35" width="35" x="144" y="396" /><rect fill="#a902fc" height="35" width="35" x="180" y="396" /><rect fill="#c100ac" height="35" width="35" x="216" y="396" /><rect fill="#a801fb" height="35" width="35" x="252" y="396" /><rect fill="#039e04" height="35" width="35" x="288" y="396" /><rect fill="#059d06" height="35" width="35" x="324" y="396" /><rect fill="#059d06" height="35" width="35" x="360" y="396" /><rect fill="#02a74d" height="35" width="35" x="396" y="396" /><rect fill="#00acfc" height="35" width="35" x="432" y="396" /><rect fill="#014e4c" height="35" width="35" x="468" y="396" /><rect fill="#000000" height="35" width="35" x="504" y="396" /><rect fill="#000000" height="35" width="35" x="540" y="396" /><rect fill="#000000" height="35" width="35" x="0" y="432" /><rect fill="#4b5100" height="35" width="35" x="36" y="432" /><rect fill="#feff03" height="35" width="35" x="72" y="432" /><rect fill="#4e9c00" height="35" width="35" x="108" y="432" /><rect fill="#017000" height="35" width="35" x="144" y="432" /><rect fill="#505a00" height="35" width="35" x="180" y="432" /><rect fill="#fe0000" height="35" width="35" x="216" y="432" /><rect fill="#505a01" height="35" width="35" x="252" y="432" /><rect fill="#048103" height="35" width="35" x="288" y="432" /><rect fill="#028104" height="35" width="35" x="324" y="432" /><rect fill="#038102" height="35" width="35" x="360" y="432" /><rect fill="#007000" height="35" width="35" x="396" y="432" /><rect fill="#009a4d" height="35" width="35" x="432" y="432" /><rect fill="#007000" height="35" width="35" x="468" y="432" /><rect fill="#000000" height="35" width="35" x="504" y="432" /><rect fill="#000000" height="35" width="35" x="540" y="432" /><rect fill="#000000" height="35" width="35" x="0" y="468" /><rect fill="#000000" height="35" width="35" x="36" y="468" /><rect fill="#4c4d00" height="35" width="35" x="72" y="468" /><rect fill="#000000" height="35" width="35" x="108" y="468" /><rect fill="#000000" height="35" width="35" x="144" y="468" /><rect fill="#007102" height="35" width="35" x="180" y="468" /><rect fill="#4d4b00" height="35" width="35" x="216" y="468" /><rect fill="#007100" height="35" width="35" x="252" y="468" /><rect fill="#007001" height="35" width="35" x="288" y="468" /><rect fill="#007000" height="35" width="35" x="324" y="468" /><rect fill="#007000" height="35" width="35" x="360" y="468" /><rect fill="#030000" height="35" width="35" x="396" y="468" /><rect fill="#020000" height="35" width="35" x="432" y="468" /><rect fill="#000002" height="35" width="35" x="468" y="468" /><rect fill="#000000" height="35" width="35" x="504" y="468" /><rect fill="#000000" height="35" width="35" x="540" y="468" /><rect fill="#000000" height="35" width="35" x="0" y="504" /><rect fill="#000000" height="35" width="35" x="36" y="504" /><rect fill="#000000" height="35" width="35" x="72" y="504" /><rect fill="#000000" height="35" width="35" x="108" y="504" /><rect fill="#000000" height="35" width="35" x="144" y="504" /><rect fill="#000000" height="35" width="35" x="180" y="504" /><rect fill="#000000" height="35" width="35" x="216" y="504" /><rect fill="#632200" height="35" width="35" x="252" y="504" /><rect fill="#953100" height="35" width="35" x="288" y="504" /><rect fill="#000000" height="35" width="35" x="324" y="504" /><rect fill="#000000" height="35" width="35" x="360" y="504" /><rect fill="#000000" height="35" width="35" x="396" y="504" /><rect fill="#000000" height="35" width="35" x="432" y="504" /><rect fill="#000000" height="35" width="35" x="468" y="504" /><rect fill="#000000" height="35" width="35" x="504" y="504" /><rect fill="#000000" height="35" width="35" x="540" y="504" /><rect fill="#000000" height="35" width="35" x="0" y="540" /><rect fill="#000000" height="35" width="35" x="36" y="540" /><rect fill="#000000" height="35" width="35" x="72" y="540" /><rect fill="#000000" height="35" width="35" x="108" y="540" /><rect fill="#000000" height="35" width="35" x="144" y="540" /><rect fill="#000000" height="35" width="35" x="180" y="540" /><rect fill="#000000" height="35" width="35" x="216" y="540" /><rect fill="#6e2700" height="35" width="35" x="252" y="540" /><rect fill="#a73800" height="35" width="35" x="288" y="540" /><rect fill="#000000" height="35" width="35" x="324" y="540" /><rect fill="#000000" height="35" width="35" x="360" y="540" /><rect fill="#000000" height="35" width="35" x="396" y="540" /><rect fill="#000000" height="35" width="35" x="432" y="540" /><rect fill="#000000" height="35" width="35" x="468" y="540" /><rect fill="#000000" height="35" width="35" x="504" y="540" /><rect fill="#000000" height="35" width="35" x="540" y="540" /></svg>