<?xml version="1.0" encoding="utf-8" ?>
<svg baseProfile="tiny" height="575" version="1.2" width="575" xmlns="http://www.w3.org/2000/svg" xmlns:ev="http://www.w3.org/2001/xml-events" xmlns:xlink="http://www.w3.org/1999/xlink"><defs /><rect fill="#000000" height="35" width="35" x="0" y="0" /><rect fill="#000000" height="35" width="35" x="36" y="0" /><rect fill="#000000" height="35" width="35" x="72" y="0" /><rect fill="#000000" height="35" width="35" x="108" y="0" /><rect fill="#000000" height="35" width="35" x="144" y="0" /><rect fill="#000000" height="35" width="35" x="180" y="0" /><rect fill="#000000" height="35" width="35" x="216" y="0" /><rect fill="#feff00" height="35" width="35" x="252" y="0" /><rect fill="#feff00" height="35" width="35" x="288" y="0" /><rect fill="#010000" height="35" width="35" x="324" y="0" /><rect fill="#000000" height="35" width="35" x="360" y="0" /><rect fill="#000001" height="35" width="35" x="396" y="0" /><rect fill="#000000" height="35" width="35" x="432" y="0" /><rect fill="#000000" height="35" width="35" x="468" y="0" /><rect fill="#000000" height="35" width="35" x="504" y="0" /><rect fill="#000000" height="35" width="35" x="540" y="0" /><rect fill="#000000" height="35" width="35" x="0" y="36" /><rect fill="#000000" height="35" width="35" x="36" y="36" /><rect fill="#000000" height="35" width="35" x="72" y="36" /><rect fill="#000000" height="35" width="35" x="108" y="36" /><rect fill="#000000" height="35" width="35" x="144" y="36" /><rect fill="#000000" height="35" width="35" x="180" y="36" /><rect fill="#000000" height="35" width="35" x="216" y="36" /><rect fill="#feff00" height="35" width="35" x="252" y="36" /><rect fill="#feff00" height="35" width="35" x="288" y="36" /><rect fill="#000000" height="35" width="35" x="324" y="36" /><rect fill="#000000" height="35" width="35" x="360" y="36" /><rect fill="#000000" height="35" width="35" x="396" y="36" /><rect fill="#000000" height="35" width="35" x="432" y="36" /><rect fill="#000000" height="35" width="35" x="468" y="36" /><rect fill="#000000" height="35" width="35" x="504" y="36" /><rect fill="#000000" height="35" width="35" x="540" y="36" /><rect fill="#000000" height="35" width="35" x="0" y="72" /><rect fill="#000000" height="35" width="35" x="36" y="72" /><rect fill="#000000" height="35" width="35" x="72" y="72" /><rect fill="#000000" height="35" width="35" x="108" y="72" /><rect fill="#000000" height="35" width="35" x="144" y="72" /><rect fill="#000000" height="35" width="35" x="180" y="72" /><rect fill="#000000" height="35" width="35" x="216" y="72" /><rect fill="#08ba06" height="35" width="35" x="252" y="72" /><rect fill="#06b907" height="35" width="35" x="288" y="72" /><rect fill="#014e51" height="35" width="35" x="324" y="72" /><rect fill="#000000" height="35" width="35" x="360" y="72" /><rect fill="#000000" height="35" width="35" x="396" y="72" /><rect fill="#000000" height="35" width="35" x="432" y="72" /><rect fill="#000000" height="35" width="35" x="468" y="72" /><rect fill="#000000" height="35" width="35" x="504" y="72" /><rect fill="#000000" height="35" width="35" x="540" y="72" /><rect fill="#000000" height="35" width="35" x="0" y="108" /><rect fill="#000000" height="35" width="35" x="36" y="108" /><rect fill="#000000" height="35" width="35" x="72" y="108" /><rect fill="#000000" height="35" width="35" x="108" y="108" /><rect fill="#000000" height="35" width="35" x="144" y="108" /><rect fill="#4c4d00" height="35" width="35" x="180" y="108" /><rect fill="#05a008" height="35" width="35" x="216" y="108" /><rect fill="#049e06" height="35" width="35" x="252" y="108" /><rect fill="#00ba51" height="35" width="35" x="288" y="108" /><rect fill="#00aaff" height="35" width="35" x="324" y="108" /><rect fill="#014e4d" height="35" width="35" x="360" y="108" /><rect fill="#000000" height="35" width="35" x="396" y="108" /><rect fill="#000000" height="35" width="35" x="432" y="108" /><rect fill="#000000" height="35" width="35" x="468" y="108" /><rect fill="#000000" height="35" width="35" x="504" y="108" /><rect fill="#000000" height="35" width="35" x="540" y="108" /><rect fill="#000000" height="35" width="35" x="0" y="144" /><rect fill="#000000" height="35" width="35" x="36" y="144" /><rect fill="#000000" height="35" width="35" x="72" y="144" /><rect fill="#000000" height="35" width="35" x="108" y="144" /><rect fill="#494e00" height="35" width="35" x="144" y="144" /><rect fill="#ffff00" height="35" width="35" x="180" y="144" /><rect fill="#51bd05" height="35" width="35" x="216" y="144" /><rect fill="#526e04" height="35" width="35" x="252" y="144" /><rect fill="#049f05" height="35" width="35" x="288" y="144" /><rect fill="#00aa4e" height="35" width="35" x="324" y="144" /><rect fill="#028200" height="35" width="35" x="360" y="144" /><rect fill="#000000" height="35" width="35" x="396" y="144" /><rect fill="#000000" height="35" width="35" x="432" y="144" /><rect fill="#000000" height="35" width="35" x="468" y="144" /><rect fill="#000000" height="35" width="35" x="504" y="144" /><rect fill="#000000" height="35" width="35" x="540" y="144" /><rect fill="#000000" height="35" width="35" x="0" y="180" /><rect fill="#000000" height="35" width="35" x="36" y="180" /><rect fill="#000000" height="35" width="35" x="72" y="180" /><rect fill="#000000" height="35" width="35" x="108" y="180" /><rect fill="#000000" height="35" width="35" x="144" y="180" /><rect fill="#4c4f00" height="35" width="35" x="180" y="180" /><rect fill="#536c04" height="35" width="35" x="216" y="180" /><rect fill="#ff0000" height="35" width="35" x="252" y="180" /><rect fill="#525a00" height="35" width="35" x="288" y="180" /><rect fill="#a801fb" height="35" width="35" x="324" y="180" /><rect fill="#000000" height="35" width="35" x="360" y="180" /><rect fill="#000000" height="35" width="35" x="396" y="180" /><rect fill="#000000" height="35" width="35" x="432" y="180" /><rect fill="#000000" height="35" width="35" x="468" y="180" /><rect fill="#000000" height="35" width="35" x="504" y="180" /><rect fill="#000000" height="35" width="35" x="540" y="180" /><rect fill="#000000" height="35" width="35" x="0" y="216" /><rect fill="#000000" height="35" width="35" x="36" y="216" /><rect fill="#000000" height="35" width="35" x="72" y="216" /><rect fill="#000000" height="35" width="35" x="108" y="216" /><rect fill="#000000" height="35" width="35" x="144" y="216" /><rect fill="#a801fe" height="35" width="35" x="180" y="216" /><rect fill="#029d05" height="35" width="35" x="216" y="216" /><rect fill="#504c00" height="35" width="35" x="252" y="216" /><rect fill="#a900fe" height="35" width="35" x="288" y="216" /><rect fill="#019e00" height="35" width="35" x="324" y="216" /><rect fill="#05b905" height="35" width="35" x="360" y="216" /><rect fill="#4d5103" height="35" width="35" x="396" y="216" /><rect fill="#000001" height="35" width="35" x="432" y="216" /><rect fill="#000000" height="35" width="35" x="468" y="216" /><rect fill="#000000" height="35" width="35" x="504" y="216" /><rect fill="#000000" height="35" width="35" x="540" y="216" /><rect fill="#000000" height="35" width="35" x="0" y="252" /><rect fill="#000000" height="35" width="35" x="36" y="252" /><rect fill="#000004" height="35" width="35" x="72" y="252" /><rect fill="#014f4a" height="35" width="35" x="108" y="252" /><rect fill="#019f06" height="35" width="35" x="144" y="252" /><rect fill="#029e04" height="35" width="35" x="180" y="252" /><rect fill="#a800fc" height="35" width="35" x="216" y="252" /><rect fill="#a700fc" height="35" width="35" x="252" y="252" /><rect fill="#049c03" height="35" width="35" x="288" y="252" /><rect fill="#039e04" height="35" width="35" x="324" y="252" /><rect fill="#4ebc05" height="35" width="35" x="360" y="252" /><rect fill="#ffff00" height="35" width="35" x="396" y="252" /><rect fill="#4d4f03" height="35" width="35" x="432" y="252" /><rect fill="#000000" height="35" width="35" x="468" y="252" /><rect fill="#000000" height="35" width="35" x="504" y="252" /><rect fill="#000000" height="35" width="35" x="540" y="252" /><rect fill="#000000" height="35" width="35" x="0" y="288" /><rect fill="#000000" height="35" width="35" x="36" y="288" /><rect fill="#005049" height="35" width="35" x="72" y="288" /><rect fill="#00aafe" height="35" width="35" x="108" y="288" /><rect fill="#00a951" height="35" width="35" x="144" y="288" /><rect fill="#048102" height="35" width="35" x="180" y="288" /><rect fill="#039e04" height="35" width="35" x="216" y="288" /><rect fill="#039e02" height="35" width="35" x="252" y="288" /><rect fill="#039e04" height="35" width="35" x="288" y="288" /><rect fill="#516d03" height="35" width="35" x="324" y="288" /><rect fill="#028102" height="35" width="35" x="360" y="288" /><rect fill="#c54daf" height="35" width="35" x="396" y="288" /><rect fill="#028102" height="35" width="35" x="432" y="288" /><rect fill="#000000" height="35" width="35" x="468" y="288" /><rect fill="#000000" height="35" width="35" x="504" y="288" /><rect fill="#000000" height="35" width="35" x="540" y="288" /><rect fill="#000000" height="35" width="35" x="0" y="324" /><rect fill="#000000" height="35" width="35" x="36" y="324" /><rect fill="#000000" height="35" width="35" x="72" y="324" /><rect fill="#034f4f" height="35" width="35" x="108" y="324" /><rect fill="#000100" height="35" width="35" x="144" y="324" /><rect fill="#007101" height="35" width="35" x="180" y="324" /><rect fill="#018104" height="35" width="35" x="216" y="324" /><rect fill="#04a004" height="35" width="35" x="252" y="324" /><rect fill="#516a00" height="35" width="35" x="288" y="324" /><rect fill="#ff0000" height="35" width="35" x="324" y="324" /><rect fill="#c200ac" height="35" width="35" x="360" y="324" /><rect fill="#040001" height="35" width="35" x="396" y="324" /><rect fill="#000000" height="35" width="35" x="432" y="324" /><rect fill="#000000" height="35" width="35" x="468" y="324" /><rect fill="#000000" height="35" width="35" x="504" y="324" /><rect fill="#000000" height="35" width="35" x="540" y="324" /><rect fill="#000000" height="35" width="35" x="0" y="360" /><rect fill="#000000" height="35" width="35" x="36" y="360" /><rect fill="#000000" height="35" width="35" x="72" y="360" /><rect fill="#000000" height="35" width="35" x="108" y="360" /><rect fill="#aa00fb" height="35" width="35" x="144" y="360" /><rect fill="#029f04" height="35" width="35" x="180" y="360" /><rect fill="#007002" height="35" width="35" x="216" y="360" /><rect fill="#017000" height="35" width="35" x="252" y="360" /><rect fill="#a800fc" height="35" width="35" x="288" y="360" /><rect fill="#c300b0" height="35" width="35" x="324" y="360" /><rect fill="#029f03" height="35" width="35" x="360" y="360" /><rect fill="#06b905" height="35" width="35" x="396" y="360" /><rect fill="#045050" height="35" width="35" x="432" y="360" /><rect fill="#010000" height="35" width="35" x="468" y="360" /><rect fill="#000000" height="35" width="35" x="504" y="360" /><rect fill="#000000" height="35" width="35" x="540" y="360" /><rect fill="#000000" height="35" width="35" x="0" y="396" /><rect fill="#000002" height="35" width="35" x="36" y="396" /><rect fill="#4e4e00" height="35" width="35" x="72" y="396" /><rect fill="#038103" height="35" width="35" x="108" y="396" /><rect fill="#028102" height="35" width="35" x="144" y="396" /><rect fill="#a901fb" height="35" width="35" x="180" y="396" /><rect fill="#c000ae" height="35" width="35" x="216" y="396" /><rect fill="#a801fc" height="35" width="35" x="252" y="396" /><rect fill="#049f08" height="35" width="35" x="288" y="396" /><rect fill="#039e04" height="35" width="35" x="324" y="396" /><rect fill="#039e04" height="35" width="35" x="360" y="396" /><rect fill="#00a84f" height="35" width="35" x="396" y="396" /><rect fill="#00acfb" height="35" width="35" x="432" y="396" /><rect fill="#004f4c" height="35" width="35" x="468" y="396" /><rect fill="#000000" height="35" width="35" x="504" y="396" /><rect fill="#000000" height="35" width="35" x="540" y="396" /><rect fill="#000000" height="35" width="35" x="0" y="432" /><rect fill="#4a4f02" height="35" width="35" x="36" y="432" /><rect fill="#fcff00" height="35" width="35" x="72" y="432" /><rect fill="#4e9c00" height="35" width="35" x="108" y="432" /><rect fill="#037101" height="35" width="35" x="144" y="432" /><rect fill="#4f5900" height="35" width="35" x="180" y="432" /><rect fill="#fe0000" height="35" width="35" x="216" y="432" /><rect fill="#505a00" height="35" width="35" x="252" y="432" /><rect fill="#008204" height="35" width="35" x="288" y="432" /><rect fill="#028102" height="35" width="35" x="324" y="432" /><rect fill="#028202" height="35" width="35" x="360" y="432" /><rect fill="#007100" height="35" width="35" x="396" y="432" /><rect fill="#009d4c" height="35" width="35" x="432" y="432" /><rect fill="#007000" height="35" width="35" x="468" y="432" /><rect fill="#000000" height="35" width="35" x="504" y="432" /><rect fill="#000000" height="35" width="35" x="540" y="432" /><rect fill="#000000" height="35" width="35" x="0" y="468" /><rect fill="#000000" height="35" width="35" x="36" y="468" /><rect fill="#4b5000" height="35" width="35" x="72" y="468" /><rect fill="#000002" height="35" width="35" x="108" y="468" /><rect fill="#000000" height="35" width="35" x="144" y="468" /><rect fill="#007000" height="35" width="35" x="180" y="468" /><rect fill="#4b4d00" height="35" width="35" x="216" y="468" /><rect fill="#017002" height="35" width="35" x="252" y="468" /><rect fill="#007101" height="35" width="35" x="288" y="468" /><rect fill="#007000" height="35" width="35" x="324" y="468" /><rect fill="#007001" height="35" width="35" x="360" y="468" /><rect fill="#000100" height="35" width="35" x="396" y="468" /><rect fill="#020000" height="35" width="35" x="432" y="468" /><rect fill="#020000" height="35" width="35" x="468" y="468" /><rect fill="#000000" height="35" width="35" x="504" y="468" /><rect fill="#000000" height="35" width="35" x="540" y="468" /><rect fill="#000000" height="35" width="35" x="0" y="504" /><rect fill="#000000" height="35" width="35" x="36" y="504" /><rect fill="#000000" height="35" width="35" x="72" y="504" /><rect fill="#000000" height="35" width="35" x="108" y="504" /><rect fill="#000000" height="35" width="35" x="144" y="504" /><rect fill="#000000" height="35" width="35" x="180" y="504" /><rect fill="#000000" height="35" width="35" x="216" y="504" /><rect fill="#632200" height="35" width="35" x="252" y="504" /><rect fill="#953100" height="35" width="35" x="288" y="504" /><rect fill="#000000" height="35" width="35" x="324" y="504" /><rect fill="#010000" height="35" width="35" x="360" y="504" /><rect fill="#000000" height="35" width="35" x="396" y="504" /><rect fill="#000000" height="35" width="35" x="432" y="504" /><rect fill="#000000" height="35" width="35" x="468" y="504" /><rect fill="#000000" height="35" width="35" x="504" y="504" /><rect fill="#000000" height="35" width="35" x="540" y="504" /><rect fill="#000000" height="35" width="35" x="0" y="540" /><rect fill="#000000" height="35" width="35" x="36" y="540" /><rect fill="#000000" height="35" width="35" x="72" y="540" /><rect fill="#000000" height="35" width="35" x="108" y="540" /><rect fill="#000000" height="35" width="35" x="144" y="540" /><rect fill="#000000" height="35" width="35" x="180" y="540" /><rect fill="#000000" height="35" width="35" x="216" y="540" /><rect fill="#6e2700" height="35" width="35" x="252" y="540" /><rect fill="#a73800" height="35" width="35" x="288" y="540" /><rect fill="#000000" height="35" width="35" x="324" y="540" /><rect fill="#000000" height="35" width="35" x="360" y="540" /><rect fill="#000000" height="35" width="35" x="396" y="540" /><rect fill="#000000" height="35" width="35" x="432" y="540" /><rect fill="#000000" height="35" width="35" x="468" y="540" /><rect fill="#000000" height="35" width="35" x="504" y="540" /><rect fill="#000000" height="35" width="35" x="540" y="540" /></svg>