<?xml version="1.0" encoding="utf-8" ?>
<svg baseProfile="tiny" height="575" version="1.2" width="575" xmlns="http://www.w3.org/2000/svg" xmlns:ev="http://www.w3.org/2001/xml-events" xmlns:xlink="http://www.w3.org/1999/xlink"><defs /><rect fill="#000000" height="35" width="35" x="0" y="0" /><rect fill="#000000" height="35" width="35" x="36" y="0" /><rect fill="#000000" height="35" width="35" x="72" y="0" /><rect fill="#000000" height="35" width="35" x="108" y="0" /><rect fill="#000000" height="35" width="35" x="144" y="0" /><rect fill="#000000" height="35" width="35" x="180" y="0" /><rect fill="#4d4e00" height="35" width="35" x="216" y="0" /><rect fill="#feff00" height="35" width="35" x="252" y="0" /><rect fill="#feff01" height="35" width="35" x="288" y="0" /><rect fill="#4c4d00" height="35" width="35" x="324" y="0" /><rect fill="#000000" height="35" width="35" x="360" y="0" /><rect fill="#000001" height="35" width="35" x="396" y="0" /><rect fill="#000000" height="35" width="35" x="432" y="0" /><rect fill="#000000" height="35" width="35" x="468" y="0" /><rect fill="#000000" height="35" width="35" x="504" y="0" /><rect fill="#000000" height="35" width="35" x="540" y="0" /><rect fill="#000000" height="35" width="35" x="0" y="36" /><rect fill="#000000" height="35" width="35" x="36" y="36" /><rect fill="#000000" height="35" width="35" x="72" y="36" /><rect fill="#000000" height="35" width="35" x="108" y="36" /><rect fill="#000000" height="35" width="35" x="144" y="36" /><rect fill="#000000" height="35" width="35" x="180" y="36" /><rect fill="#4e4e00" height="35" width="35" x="216" y="36" /><rect fill="#feff00" height="35" width="35" x="252" y="36" /><rect fill="#feff00" height="35" width="35" x="288" y="36" /><rect fill="#4c4f00" height="35" width="35" x="324" y="36" /><rect fill="#000000" height="35" width="35" x="360" y="36" /><rect fill="#000000" height="35" width="35" x="396" y="36" /><rect fill="#000000" height="35" width="35" x="432" y="36" /><rect fill="#000000" height="35" width="35" x="468" y="36" /><rect fill="#000000" height="35" width="35" x="504" y="36" /><rect fill="#000000" height="35" width="35" x="540" y="36" /><rect fill="#000000" height="35" width="35" x="0" y="72" /><rect fill="#000000" height="35" width="35" x="36" y="72" /><rect fill="#000000" height="35" width="35" x="72" y="72" /><rect fill="#000000" height="35" width="35" x="108" y="72" /><rect fill="#000000" height="35" width="35" x="144" y="72" /><rect fill="#000000" height="35" width="35" x="180" y="72" /><rect fill="#040000" height="35" width="35" x="216" y="72" /><rect fill="#4bd000" height="35" width="35" x="252" y="72" /><rect fill="#51cd02" height="35" width="35" x="288" y="72" /><rect fill="#024e49" height="35" width="35" x="324" y="72" /><rect fill="#000000" height="35" width="35" x="360" y="72" /><rect fill="#000000" height="35" width="35" x="396" y="72" /><rect fill="#000000" height="35" width="35" x="432" y="72" /><rect fill="#000000" height="35" width="35" x="468" y="72" /><rect fill="#000000" height="35" width="35" x="504" y="72" /><rect fill="#000000" height="35" width="35" x="540" y="72" /><rect fill="#000000" height="35" width="35" x="0" y="108" /><rect fill="#000000" height="35" width="35" x="36" y="108" /><rect fill="#000000" height="35" width="35" x="72" y="108" /><rect fill="#000000" height="35" width="35" x="108" y="108" /><rect fill="#000000" height="35" width="35" x="144" y="108" /><rect fill="#4a5100" height="35" width="35" x="180" y="108" /><rect fill="#029e05" height="35" width="35" x="216" y="108" /><rect fill="#059f05" height="35" width="35" x="252" y="108" /><rect fill="#00ba4f" height="35" width="35" x="288" y="108" /><rect fill="#00a8ff" height="35" width="35" x="324" y="108" /><rect fill="#004e4f" height="35" width="35" x="360" y="108" /><rect fill="#000000" height="35" width="35" x="396" y="108" /><rect fill="#000000" height="35" width="35" x="432" y="108" /><rect fill="#000000" height="35" width="35" x="468" y="108" /><rect fill="#000000" height="35" width="35" x="504" y="108" /><rect fill="#000000" height="35" width="35" x="540" y="108" /><rect fill="#000000" height="35" width="35" x="0" y="144" /><rect fill="#000000" height="35" width="35" x="36" y="144" /><rect fill="#000000" height="35" width="35" x="72" y="144" /><rect fill="#000000" height="35" width="35" x="108" y="144" /><rect fill="#4b4d00" height="35" width="35" x="144" y="144" /><rect fill="#ffff00" height="35" width="35" x="180" y="144" /><rect fill="#51bd03" height="35" width="35" x="216" y="144" /><rect fill="#4f6d05" height="35" width="35" x="252" y="144" /><rect fill="#019f06" height="35" width="35" x="288" y="144" /><rect fill="#00a74c" height="35" width="35" x="324" y="144" /><rect fill="#028107" height="35" width="35" x="360" y="144" /><rect fill="#000000" height="35" width="35" x="396" y="144" /><rect fill="#000000" height="35" width="35" x="432" y="144" /><rect fill="#000000" height="35" width="35" x="468" y="144" /><rect fill="#000000" height="35" width="35" x="504" y="144" /><rect fill="#000000" height="35" width="35" x="540" y="144" /><rect fill="#000000" height="35" width="35" x="0" y="180" /><rect fill="#000000" height="35" width="35" x="36" y="180" /><rect fill="#000000" height="35" width="35" x="72" y="180" /><rect fill="#000000" height="35" width="35" x="108" y="180" /><rect fill="#000000" height="35" width="35" x="144" y="180" /><rect fill="#4c4f00" height="35" width="35" x="180" y="180" /><rect fill="#516d03" height="35" width="35" x="216" y="180" /><rect fill="#fd0000" height="35" width="35" x="252" y="180" /><rect fill="#505a01" height="35" width="35" x="288" y="180" /><rect fill="#a901fb" height="35" width="35" x="324" y="180" /><rect fill="#000000" height="35" width="35" x="360" y="180" /><rect fill="#000000" height="35" width="35" x="396" y="180" /><rect fill="#000000" height="35" width="35" x="432" y="180" /><rect fill="#000000" height="35" width="35" x="468" y="180" /><rect fill="#000000" height="35" width="35" x="504" y="180" /><rect fill="#000000" height="35" width="35" x="540" y="180" /><rect fill="#000000" height="35" width="35" x="0" y="216" /><rect fill="#000000" height="35" width="35" x="36" y="216" /><rect fill="#000000" height="35" width="35" x="72" y="216" /><rect fill="#000000" height="35" width="35" x="108" y="216" /><rect fill="#000000" height="35" width="35" x="144" y="216" /><rect fill="#a700ff" height="35" width="35" x="180" y="216" /><rect fill="#049e08" height="35" width="35" x="216" y="216" /><rect fill="#544b00" height="35" width="35" x="252" y="216" /><rect fill="#aa01fb" height="35" width="35" x="288" y="216" /><rect fill="#039e06" height="35" width="35" x="324" y="216" /><rect fill="#05b905" height="35" width="35" x="360" y="216" /><rect fill="#4a4f00" height="35" width="35" x="396" y="216" /><rect fill="#000000" height="35" width="35" x="432" y="216" /><rect fill="#000000" height="35" width="35" x="468" y="216" /><rect fill="#000000" height="35" width="35" x="504" y="216" /><rect fill="#000000" height="35" width="35" x="540" y="216" /><rect fill="#000000" height="35" width="35" x="0" y="252" /><rect fill="#000000" height="35" width="35" x="36" y="252" /><rect fill="#000004" height="35" width="35" x="72" y="252" /><rect fill="#014f4a" height="35" width="35" x="108" y="252" /><rect fill="#049d03" height="35" width="35" x="144" y="252" /><rect fill="#059d04" height="35" width="35" x="180" y="252" /><rect fill="#a800fc" height="35" width="35" x="216" y="252" /><rect fill="#a901fd" height="35" width="35" x="252" y="252" /><rect fill="#029d01" height="35" width="35" x="288" y="252" /><rect fill="#039e06" height="35" width="35" x="324" y="252" /><rect fill="#50bc03" height="35" width="35" x="360" y="252" /><rect fill="#fbff00" height="35" width="35" x="396" y="252" /><rect fill="#4a5002" height="35" width="35" x="432" y="252" /><rect fill="#000000" height="35" width="35" x="468" y="252" /><rect fill="#000000" height="35" width="35" x="504" y="252" /><rect fill="#000000" height="35" width="35" x="540" y="252" /><rect fill="#000000" height="35" width="35" x="0" y="288" /><rect fill="#000000" height="35" width="35" x="36" y="288" /><rect fill="#034e4a" height="35" width="35" x="72" y="288" /><rect fill="#00aafe" height="35" width="35" x="108" y="288" /><rect fill="#00a951" height="35" width="35" x="144" y="288" /><rect fill="#038303" height="35" width="35" x="180" y="288" /><rect fill="#049f05" height="35" width="35" x="216" y="288" /><rect fill="#039e04" height="35" width="35" x="252" y="288" /><rect fill="#039e04" height="35" width="35" x="288" y="288" /><rect fill="#516d03" height="35" width="35" x="324" y="288" /><rect fill="#028102" height="35" width="35" x="360" y="288" /><rect fill="#c44dad" height="35" width="35" x="396" y="288" /><rect fill="#028102" height="35" width="35" x="432" y="288" /><rect fill="#000000" height="35" width="35" x="468" y="288" /><rect fill="#000000" height="35" width="35" x="504" y="288" /><rect fill="#000000" height="35" width="35" x="540" y="288" /><rect fill="#000000" height="35" width="35" x="0" y="324" /><rect fill="#000000" height="35" width="35" x="36" y="324" /><rect fill="#000000" height="35" width="35" x="72" y="324" /><rect fill="#014d49" height="35" width="35" x="108" y="324" /><rect fill="#000000" height="35" width="35" x="144" y="324" /><rect fill="#007000" height="35" width="35" x="180" y="324" /><rect fill="#038102" height="35" width="35" x="216" y="324" /><rect fill="#049f05" height="35" width="35" x="252" y="324" /><rect fill="#536e04" height="35" width="35" x="288" y="324" /><rect fill="#fd0000" height="35" width="35" x="324" y="324" /><rect fill="#c300ac" height="35" width="35" x="360" y="324" /><rect fill="#010101" height="35" width="35" x="396" y="324" /><rect fill="#000000" height="35" width="35" x="432" y="324" /><rect fill="#000000" height="35" width="35" x="468" y="324" /><rect fill="#000000" height="35" width="35" x="504" y="324" /><rect fill="#000000" height="35" width="35" x="540" y="324" /><rect fill="#000000" height="35" width="35" x="0" y="360" /><rect fill="#000000" height="35" width="35" x="36" y="360" /><rect fill="#000000" height="35" width="35" x="72" y="360" /><rect fill="#000000" height="35" width="35" x="108" y="360" /><rect fill="#a501fb" height="35" width="35" x="144" y="360" /><rect fill="#009f04" height="35" width="35" x="180" y="360" /><rect fill="#007002" height="35" width="35" x="216" y="360" /><rect fill="#017103" height="35" width="35" x="252" y="360" /><rect fill="#a700fb" height="35" width="35" x="288" y="360" /><rect fill="#c300b0" height="35" width="35" x="324" y="360" /><rect fill="#049e03" height="35" width="35" x="360" y="360" /><rect fill="#06b905" height="35" width="35" x="396" y="360" /><rect fill="#06504f" height="35" width="35" x="432" y="360" /><rect fill="#020001" height="35" width="35" x="468" y="360" /><rect fill="#000000" height="35" width="35" x="504" y="360" /><rect fill="#000000" height="35" width="35" x="540" y="360" /><rect fill="#000000" height="35" width="35" x="0" y="396" /><rect fill="#000001" height="35" width="35" x="36" y="396" /><rect fill="#514f00" height="35" width="35" x="72" y="396" /><rect fill="#048004" height="35" width="35" x="108" y="396" /><rect fill="#008202" height="35" width="35" x="144" y="396" /><rect fill="#a901fb" height="35" width="35" x="180" y="396" /><rect fill="#c000ae" height="35" width="35" x="216" y="396" /><rect fill="#a801fd" height="35" width="35" x="252" y="396" /><rect fill="#069f05" height="35" width="35" x="288" y="396" /><rect fill="#049f05" height="35" width="35" x="324" y="396" /><rect fill="#039e04" height="35" width="35" x="360" y="396" /><rect fill="#03a94e" height="35" width="35" x="396" y="396" /><rect fill="#00adff" height="35" width="35" x="432" y="396" /><rect fill="#004d50" height="35" width="35" x="468" y="396" /><rect fill="#000000" height="35" width="35" x="504" y="396" /><rect fill="#000000" height="35" width="35" x="540" y="396" /><rect fill="#000000" height="35" width="35" x="0" y="432" /><rect fill="#4c4f00" height="35" width="35" x="36" y="432" /><rect fill="#feff00" height="35" width="35" x="72" y="432" /><rect fill="#4e9c01" height="35" width="35" x="108" y="432" /><rect fill="#017201" height="35" width="35" x="144" y="432" /><rect fill="#505a00" height="35" width="35" x="180" y="432" /><rect fill="#fe0000" height="35" width="35" x="216" y="432" /><rect fill="#4e5b00" height="35" width="35" x="252" y="432" /><rect fill="#028102" height="35" width="35" x="288" y="432" /><rect fill="#028102" height="35" width="35" x="324" y="432" /><rect fill="#028102" height="35" width="35" x="360" y="432" /><rect fill="#007000" height="35" width="35" x="396" y="432" /><rect fill="#009c4c" height="35" width="35" x="432" y="432" /><rect fill="#007000" height="35" width="35" x="468" y="432" /><rect fill="#000000" height="35" width="35" x="504" y="432" /><rect fill="#000000" height="35" width="35" x="540" y="432" /><rect fill="#000000" height="35" width="35" x="0" y="468" /><rect fill="#000000" height="35" width="35" x="36" y="468" /><rect fill="#4c4f00" height="35" width="35" x="72" y="468" /><rect fill="#000200" height="35" width="35" x="108" y="468" /><rect fill="#000000" height="35" width="35" x="144" y="468" /><rect fill="#007201" height="35" width="35" x="180" y="468" /><rect fill="#524d00" height="35" width="35" x="216" y="468" /><rect fill="#017000" height="35" width="35" x="252" y="468" /><rect fill="#007100" height="35" width="35" x="288" y="468" /><rect fill="#006f00" height="35" width="35" x="324" y="468" /><rect fill="#007000" height="35" width="35" x="360" y="468" /><rect fill="#000100" height="35" width="35" x="396" y="468" /><rect fill="#000000" height="35" width="35" x="432" y="468" /><rect fill="#000000" height="35" width="35" x="468" y="468" /><rect fill="#000000" height="35" width="35" x="504" y="468" /><rect fill="#000000" height="35" width="35" x="540" y="468" /><rect fill="#000000" height="35" width="35" x="0" y="504" /><rect fill="#000000" height="35" width="35" x="36" y="504" /><rect fill="#000000" height="35" width="35" x="72" y="504" /><rect fill="#000000" height="35" width="35" x="108" y="504" /><rect fill="#000000" height="35" width="35" x="144" y="504" /><rect fill="#000000" height="35" width="35" x="180" y="504" /><rect fill="#010000" height="35" width="35" x="216" y="504" /><rect fill="#632200" height="35" width="35" x="252" y="504" /><rect fill="#953100" height="35" width="35" x="288" y="504" /><rect fill="#000000" height="35" width="35" x="324" y="504" /><rect fill="#000000" height="35" width="35" x="360" y="504" /><rect fill="#000000" height="35" width="35" x="396" y="504" /><rect fill="#000000" height="35" width="35" x="432" y="504" /><rect fill="#000000" height="35" width="35" x="468" y="504" /><rect fill="#000000" height="35" width="35" x="504" y="504" /><rect fill="#000000" height="35" width="35" x="540" y="504" /><rect fill="#000000" height="35" width="35" x="0" y="540" /><rect fill="#000000" height="35" width="35" x="36" y="540" /><rect fill="#000000" height="35" width="35" x="72" y="540" /><rect fill="#000000" height="35" width="35" x="108" y="540" /><rect fill="#000000" height="35" width="35" x="144" y="540" /><rect fill="#000000" height="35" width="35" x="180" y="540" /><rect fill="#000000" height="35" width="35" x="216" y="540" /><rect fill="#6e2700" height="35" width="35" x="252" y="540" /><rect fill="#a73800" height="35" width="35" x="288" y="540" /><rect fill="#000000" height="35" width="35" x="324" y="540" /><rect fill="#000000" height="35" width="35" x="360" y="540" /><rect fill="#000000" height="35" width="35" x="396" y="540" /><rect fill="#000000" height="35" width="35" x="432" y="540" /><rect fill="#000000" height="35" width="35" x="468" y="540" /><rect fill="#000000" height="35" width="35" x="504" y="540" /><rect fill="#000000" height="35" width="35" x="540" y="540" /></svg>