<?xml version="1.0" encoding="utf-8" ?>
<svg baseProfile="tiny" height="575" version="1.2" width="575" xmlns="http://www.w3.org/2000/svg" xmlns:ev="http://www.w3.org/2001/xml-events" xmlns:xlink="http://www.w3.org/1999/xlink"><defs /><rect fill="#000000" height="35" width="35" x="0" y="0" /><rect fill="#000000" height="35" width="35" x="36" y="0" /><rect fill="#000000" height="35" width="35" x="72" y="0" /><rect fill="#000000" height="35" width="35" x="108" y="0" /><rect fill="#000000" height="35" width="35" x="144" y="0" /><rect fill="#000000" height="35" width="35" x="180" y="0" /><rect fill="#000001" height="35" width="35" x="216" y="0" /><rect fill="#feff00" height="35" width="35" x="252" y="0" /><rect fill="#fffe01" height="35" width="35" x="288" y="0" /><rect fill="#000000" height="35" width="35" x="324" y="0" /><rect fill="#000000" height="35" width="35" x="360" y="0" /><rect fill="#000001" height="35" width="35" x="396" y="0" /><rect fill="#000000" height="35" width="35" x="432" y="0" /><rect fill="#000000" height="35" width="35" x="468" y="0" /><rect fill="#000000" height="35" width="35" x="504" y="0" /><rect fill="#000000" height="35" width="35" x="540" y="0" /><rect fill="#000000" height="35" width="35" x="0" y="36" /><rect fill="#000000" height="35" width="35" x="36" y="36" /><rect fill="#000000" height="35" width="35" x="72" y="36" /><rect fill="#000000" height="35" width="35" x="108" y="36" /><rect fill="#000000" height="35" width="35" x="144" y="36" /><rect fill="#000000" height="35" width="35" x="180" y="36" /><rect fill="#000002" height="35" width="35" x="216" y="36" /><rect fill="#feff00" height="35" width="35" x="252" y="36" /><rect fill="#fffe00" height="35" width="35" x="288" y="36" /><rect fill="#000000" height="35" width="35" x="324" y="36" /><rect fill="#000000" height="35" width="35" x="360" y="36" /><rect fill="#000000" height="35" width="35" x="396" y="36" /><rect fill="#000000" height="35" width="35" x="432" y="36" /><rect fill="#000000" height="35" width="35" x="468" y="36" /><rect fill="#000000" height="35" width="35" x="504" y="36" /><rect fill="#000000" height="35" width="35" x="540" y="36" /><rect fill="#000000" height="35" width="35" x="0" y="72" /><rect fill="#000000" height="35" width="35" x="36" y="72" /><rect fill="#000000" height="35" width="35" x="72" y="72" /><rect fill="#000000" height="35" width="35" x="108" y="72" /><rect fill="#000000" height="35" width="35" x="144" y="72" /><rect fill="#000000" height="35" width="35" x="180" y="72" /><rect fill="#004d4b" height="35" width="35" x="216" y="72" /><rect fill="#00d148" height="35" width="35" x="252" y="72" /><rect fill="#04b905" height="35" width="35" x="288" y="72" /><rect fill="#000000" height="35" width="35" x="324" y="72" /><rect fill="#000000" height="35" width="35" x="360" y="72" /><rect fill="#000000" height="35" width="35" x="396" y="72" /><rect fill="#000000" height="35" width="35" x="432" y="72" /><rect fill="#000000" height="35" width="35" x="468" y="72" /><rect fill="#000000" height="35" width="35" x="504" y="72" /><rect fill="#000000" height="35" width="35" x="540" y="72" /><rect fill="#000000" height="35" width="35" x="0" y="108" /><rect fill="#000000" height="35" width="35" x="36" y="108" /><rect fill="#000000" height="35" width="35" x="72" y="108" /><rect fill="#000000" height="35" width="35" x="108" y="108" /><rect fill="#000000" height="35" width="35" x="144" y="108" /><rect fill="#004c4b" height="35" width="35" x="180" y="108" /><rect fill="#01abfd" height="35" width="35" x="216" y="108" /><rect fill="#01bc4a" height="35" width="35" x="252" y="108" /><rect fill="#4fbc04" height="35" width="35" x="288" y="108" /><rect fill="#07b809" height="35" width="35" x="324" y="108" /><rect fill="#4d0100" height="35" width="35" x="360" y="108" /><rect fill="#000003" height="35" width="35" x="396" y="108" /><rect fill="#000000" height="35" width="35" x="432" y="108" /><rect fill="#000000" height="35" width="35" x="468" y="108" /><rect fill="#000000" height="35" width="35" x="504" y="108" /><rect fill="#000000" height="35" width="35" x="540" y="108" /><rect fill="#000000" height="35" width="35" x="0" y="144" /><rect fill="#000000" height="35" width="35" x="36" y="144" /><rect fill="#000000" height="35" width="35" x="72" y="144" /><rect fill="#000000" height="35" width="35" x="108" y="144" /><rect fill="#000000" height="35" width="35" x="144" y="144" /><rect fill="#028102" height="35" width="35" x="180" y="144" /><rect fill="#01b94b" height="35" width="35" x="216" y="144" /><rect fill="#51bc00" height="35" width="35" x="252" y="144" /><rect fill="#fefc00" height="35" width="35" x="288" y="144" /><rect fill="#49a901" height="35" width="35" x="324" y="144" /><rect fill="#ff0100" height="35" width="35" x="360" y="144" /><rect fill="#500000" height="35" width="35" x="396" y="144" /><rect fill="#000000" height="35" width="35" x="432" y="144" /><rect fill="#000000" height="35" width="35" x="468" y="144" /><rect fill="#000000" height="35" width="35" x="504" y="144" /><rect fill="#000000" height="35" width="35" x="540" y="144" /><rect fill="#000000" height="35" width="35" x="0" y="180" /><rect fill="#000000" height="35" width="35" x="36" y="180" /><rect fill="#000000" height="35" width="35" x="72" y="180" /><rect fill="#000000" height="35" width="35" x="108" y="180" /><rect fill="#000000" height="35" width="35" x="144" y="180" /><rect fill="#010100" height="35" width="35" x="180" y="180" /><rect fill="#039e06" height="35" width="35" x="216" y="180" /><rect fill="#039e04" height="35" width="35" x="252" y="180" /><rect fill="#4fa700" height="35" width="35" x="288" y="180" /><rect fill="#a901fb" height="35" width="35" x="324" y="180" /><rect fill="#4d0000" height="35" width="35" x="360" y="180" /><rect fill="#000000" height="35" width="35" x="396" y="180" /><rect fill="#000000" height="35" width="35" x="432" y="180" /><rect fill="#000000" height="35" width="35" x="468" y="180" /><rect fill="#000000" height="35" width="35" x="504" y="180" /><rect fill="#000000" height="35" width="35" x="540" y="180" /><rect fill="#000000" height="35" width="35" x="0" y="216" /><rect fill="#000000" height="35" width="35" x="36" y="216" /><rect fill="#000000" height="35" width="35" x="72" y="216" /><rect fill="#000000" height="35" width="35" x="108" y="216" /><rect fill="#000000" height="35" width="35" x="144" y="216" /><rect fill="#a500fc" height="35" width="35" x="180" y="216" /><rect fill="#029e02" height="35" width="35" x="216" y="216" /><rect fill="#017100" height="35" width="35" x="252" y="216" /><rect fill="#a901f9" height="35" width="35" x="288" y="216" /><rect fill="#039e02" height="35" width="35" x="324" y="216" /><rect fill="#02cf53" height="35" width="35" x="360" y="216" /><rect fill="#000002" height="35" width="35" x="396" y="216" /><rect fill="#000000" height="35" width="35" x="432" y="216" /><rect fill="#000000" height="35" width="35" x="468" y="216" /><rect fill="#000000" height="35" width="35" x="504" y="216" /><rect fill="#000000" height="35" width="35" x="540" y="216" /><rect fill="#000000" height="35" width="35" x="0" y="252" /><rect fill="#000000" height="35" width="35" x="36" y="252" /><rect fill="#040000" height="35" width="35" x="72" y="252" /><rect fill="#4c0000" height="35" width="35" x="108" y="252" /><rect fill="#009e07" height="35" width="35" x="144" y="252" /><rect fill="#059d04" height="35" width="35" x="180" y="252" /><rect fill="#a801fa" height="35" width="35" x="216" y="252" /><rect fill="#c44eb0" height="35" width="35" x="252" y="252" /><rect fill="#099c04" height="35" width="35" x="288" y="252" /><rect fill="#02bb4c" height="35" width="35" x="324" y="252" /><rect fill="#00aafe" height="35" width="35" x="360" y="252" /><rect fill="#0ad055" height="35" width="35" x="396" y="252" /><rect fill="#020002" height="35" width="35" x="432" y="252" /><rect fill="#000000" height="35" width="35" x="468" y="252" /><rect fill="#000000" height="35" width="35" x="504" y="252" /><rect fill="#000000" height="35" width="35" x="540" y="252" /><rect fill="#000000" height="35" width="35" x="0" y="288" /><rect fill="#000000" height="35" width="35" x="36" y="288" /><rect fill="#4d0002" height="35" width="35" x="72" y="288" /><rect fill="#fe0000" height="35" width="35" x="108" y="288" /><rect fill="#058206" height="35" width="35" x="144" y="288" /><rect fill="#058201" height="35" width="35" x="180" y="288" /><rect fill="#4eba02" height="35" width="35" x="216" y="288" /><rect fill="#ffff00" height="35" width="35" x="252" y="288" /><rect fill="#4ebb00" height="35" width="35" x="288" y="288" /><rect fill="#049f08" height="35" width="35" x="324" y="288" /><rect fill="#02a74f" height="35" width="35" x="360" y="288" /><rect fill="#a402ff" height="35" width="35" x="396" y="288" /><rect fill="#028102" height="35" width="35" x="432" y="288" /><rect fill="#000000" height="35" width="35" x="468" y="288" /><rect fill="#000000" height="35" width="35" x="504" y="288" /><rect fill="#000000" height="35" width="35" x="540" y="288" /><rect fill="#000000" height="35" width="35" x="0" y="324" /><rect fill="#000000" height="35" width="35" x="36" y="324" /><rect fill="#000000" height="35" width="35" x="72" y="324" /><rect fill="#4d0000" height="35" width="35" x="108" y="324" /><rect fill="#000000" height="35" width="35" x="144" y="324" /><rect fill="#017000" height="35" width="35" x="180" y="324" /><rect fill="#048102" height="35" width="35" x="216" y="324" /><rect fill="#52bb00" height="35" width="35" x="252" y="324" /><rect fill="#059d05" height="35" width="35" x="288" y="324" /><rect fill="#078000" height="35" width="35" x="324" y="324" /><rect fill="#ab02fa" height="35" width="35" x="360" y="324" /><rect fill="#000101" height="35" width="35" x="396" y="324" /><rect fill="#000000" height="35" width="35" x="432" y="324" /><rect fill="#000000" height="35" width="35" x="468" y="324" /><rect fill="#000000" height="35" width="35" x="504" y="324" /><rect fill="#000000" height="35" width="35" x="540" y="324" /><rect fill="#000000" height="35" width="35" x="0" y="360" /><rect fill="#000000" height="35" width="35" x="36" y="360" /><rect fill="#000000" height="35" width="35" x="72" y="360" /><rect fill="#000000" height="35" width="35" x="108" y="360" /><rect fill="#a501fb" height="35" width="35" x="144" y="360" /><rect fill="#019f03" height="35" width="35" x="180" y="360" /><rect fill="#007002" height="35" width="35" x="216" y="360" /><rect fill="#007100" height="35" width="35" x="252" y="360" /><rect fill="#a700fc" height="35" width="35" x="288" y="360" /><rect fill="#a900fb" height="35" width="35" x="324" y="360" /><rect fill="#049e03" height="35" width="35" x="360" y="360" /><rect fill="#06b708" height="35" width="35" x="396" y="360" /><rect fill="#010000" height="35" width="35" x="432" y="360" /><rect fill="#010001" height="35" width="35" x="468" y="360" /><rect fill="#000000" height="35" width="35" x="504" y="360" /><rect fill="#000000" height="35" width="35" x="540" y="360" /><rect fill="#000000" height="35" width="35" x="0" y="396" /><rect fill="#000000" height="35" width="35" x="36" y="396" /><rect fill="#000004" height="35" width="35" x="72" y="396" /><rect fill="#028102" height="35" width="35" x="108" y="396" /><rect fill="#008202" height="35" width="35" x="144" y="396" /><rect fill="#a801ff" height="35" width="35" x="180" y="396" /><rect fill="#a801fb" height="35" width="35" x="216" y="396" /><rect fill="#a801fb" height="35" width="35" x="252" y="396" /><rect fill="#069f05" height="35" width="35" x="288" y="396" /><rect fill="#4ab900" height="35" width="35" x="324" y="396" /><rect fill="#049e04" height="35" width="35" x="360" y="396" /><rect fill="#028405" height="35" width="35" x="396" y="396" /><rect fill="#058004" height="35" width="35" x="432" y="396" /><rect fill="#4e0000" height="35" width="35" x="468" y="396" /><rect fill="#000000" height="35" width="35" x="504" y="396" /><rect fill="#000000" height="35" width="35" x="540" y="396" /><rect fill="#000000" height="35" width="35" x="0" y="432" /><rect fill="#000100" height="35" width="35" x="36" y="432" /><rect fill="#017002" height="35" width="35" x="72" y="432" /><rect fill="#007000" height="35" width="35" x="108" y="432" /><rect fill="#007000" height="35" width="35" x="144" y="432" /><rect fill="#03a850" height="35" width="35" x="180" y="432" /><rect fill="#028102" height="35" width="35" x="216" y="432" /><rect fill="#028102" height="35" width="35" x="252" y="432" /><rect fill="#4ca602" height="35" width="35" x="288" y="432" /><rect fill="#fffe02" height="35" width="35" x="324" y="432" /><rect fill="#4fa700" height="35" width="35" x="360" y="432" /><rect fill="#037100" height="35" width="35" x="396" y="432" /><rect fill="#4d4e00" height="35" width="35" x="432" y="432" /><rect fill="#ff0000" height="35" width="35" x="468" y="432" /><rect fill="#4b0000" height="35" width="35" x="504" y="432" /><rect fill="#000000" height="35" width="35" x="540" y="432" /><rect fill="#000000" height="35" width="35" x="0" y="468" /><rect fill="#000000" height="35" width="35" x="36" y="468" /><rect fill="#000100" height="35" width="35" x="72" y="468" /><rect fill="#014d47" height="35" width="35" x="108" y="468" /><rect fill="#01abff" height="35" width="35" x="144" y="468" /><rect fill="#049d4d" height="35" width="35" x="180" y="468" /><rect fill="#007000" height="35" width="35" x="216" y="468" /><rect fill="#007100" height="35" width="35" x="252" y="468" /><rect fill="#007000" height="35" width="35" x="288" y="468" /><rect fill="#4d9900" height="35" width="35" x="324" y="468" /><rect fill="#007100" height="35" width="35" x="360" y="468" /><rect fill="#000100" height="35" width="35" x="396" y="468" /><rect fill="#000000" height="35" width="35" x="432" y="468" /><rect fill="#500000" height="35" width="35" x="468" y="468" /><rect fill="#000000" height="35" width="35" x="504" y="468" /><rect fill="#000000" height="35" width="35" x="540" y="468" /><rect fill="#000000" height="35" width="35" x="0" y="504" /><rect fill="#000000" height="35" width="35" x="36" y="504" /><rect fill="#000000" height="35" width="35" x="72" y="504" /><rect fill="#000000" height="35" width="35" x="108" y="504" /><rect fill="#004e51" height="35" width="35" x="144" y="504" /><rect fill="#010201" height="35" width="35" x="180" y="504" /><rect fill="#010000" height="35" width="35" x="216" y="504" /><rect fill="#632200" height="35" width="35" x="252" y="504" /><rect fill="#943100" height="35" width="35" x="288" y="504" /><rect fill="#000000" height="35" width="35" x="324" y="504" /><rect fill="#000000" height="35" width="35" x="360" y="504" /><rect fill="#000000" height="35" width="35" x="396" y="504" /><rect fill="#000000" height="35" width="35" x="432" y="504" /><rect fill="#000000" height="35" width="35" x="468" y="504" /><rect fill="#000000" height="35" width="35" x="504" y="504" /><rect fill="#000000" height="35" width="35" x="540" y="504" /><rect fill="#000000" height="35" width="35" x="0" y="540" /><rect fill="#000000" height="35" width="35" x="36" y="540" /><rect fill="#000000" height="35" width="35" x="72" y="540" /><rect fill="#000000" height="35" width="35" x="108" y="540" /><rect fill="#000000" height="35" width="35" x="144" y="540" /><rect fill="#000000" height="35" width="35" x="180" y="540" /><rect fill="#000000" height="35" width="35" x="216" y="540" /><rect fill="#6e2700" height="35" width="35" x="252" y="540" /><rect fill="#a73800" height="35" width="35" x="288" y="540" /><rect fill="#000000" height="35" width="35" x="324" y="540" /><rect fill="#000000" height="35" width="35" x="360" y="540" /><rect fill="#000000" height="35" width="35" x="396" y="540" /><rect fill="#000000" height="35" width="35" x="432" y="540" /><rect fill="#000000" height="35" width="35" x="468" y="540" /><rect fill="#000000" height="35" width="35" x="504" y="540" /><rect fill="#000000" height="35" width="35" x="540" y="540" /></svg>