<?xml version="1.0" encoding="utf-8" ?>
<svg baseProfile="tiny" height="575" version="1.2" width="575" xmlns="http://www.w3.org/2000/svg" xmlns:ev="http://www.w3.org/2001/xml-events" xmlns:xlink="http://www.w3.org/1999/xlink"><defs /><rect fill="#000000" height="35" width="35" x="0" y="0" /><rect fill="#000000" height="35" width="35" x="36" y="0" /><rect fill="#000000" height="35" width="35" x="72" y="0" /><rect fill="#000000" height="35" width="35" x="108" y="0" /><rect fill="#000000" height="35" width="35" x="144" y="0" /><rect fill="#000000" height="35" width="35" x="180" y="0" /><rect fill="#393800" height="35" width="35" x="216" y="0" /><rect fill="#bec000" height="35" width="35" x="252" y="0" /><rect fill="#bdc100" height="35" width="35" x="288" y="0" /><rect fill="#3a3800" height="35" width="35" x="324" y="0" /><rect fill="#000000" height="35" width="35" x="360" y="0" /><rect fill="#000000" height="35" width="35" x="396" y="0" /><rect fill="#000000" height="35" width="35" x="432" y="0" /><rect fill="#000000" height="35" width="35" x="468" y="0" /><rect fill="#000000" height="35" width="35" x="504" y="0" /><rect fill="#000000" height="35" width="35" x="540" y="0" /><rect fill="#000000" height="35" width="35" x="0" y="36" /><rect fill="#000000" height="35" width="35" x="36" y="36" /><rect fill="#000000" height="35" width="35" x="72" y="36" /><rect fill="#000000" height="35" width="35" x="108" y="36" /><rect fill="#000000" height="35" width="35" x="144" y="36" /><rect fill="#000000" height="35" width="35" x="180" y="36" /><rect fill="#383a01" height="35" width="35" x="216" y="36" /><rect fill="#bfc100" height="35" width="35" x="252" y="36" /><rect fill="#bfc100" height="35" width="35" x="288" y="36" /><rect fill="#3a3800" height="35" width="35" x="324" y="36" /><rect fill="#000000" height="35" width="35" x="360" y="36" /><rect fill="#000000" height="35" width="35" x="396" y="36" /><rect fill="#000000" height="35" width="35" x="432" y="36" /><rect fill="#000000" height="35" width="35" x="468" y="36" /><rect fill="#000000" height="35" width="35" x="504" y="36" /><rect fill="#000000" height="35" width="35" x="540" y="36" /><rect fill="#000000" height="35" width="35" x="0" y="72" /><rect fill="#000000" height="35" width="35" x="36" y="72" /><rect fill="#000000" height="35" width="35" x="72" y="72" /><rect fill="#000000" height="35" width="35" x="108" y="72" /><rect fill="#000000" height="35" width="35" x="144" y="72" /><rect fill="#000000" height="35" width="35" x="180" y="72" /><rect fill="#013a38" height="35" width="35" x="216" y="72" /><rect fill="#3d9d02" height="35" width="35" x="252" y="72" /><rect fill="#3c9b05" height="35" width="35" x="288" y="72" /><rect fill="#000000" height="35" width="35" x="324" y="72" /><rect fill="#000000" height="35" width="35" x="360" y="72" /><rect fill="#000000" height="35" width="35" x="396" y="72" /><rect fill="#000000" height="35" width="35" x="432" y="72" /><rect fill="#000000" height="35" width="35" x="468" y="72" /><rect fill="#000000" height="35" width="35" x="504" y="72" /><rect fill="#000000" height="35" width="35" x="540" y="72" /><rect fill="#000000" height="35" width="35" x="0" y="108" /><rect fill="#000000" height="35" width="35" x="36" y="108" /><rect fill="#000000" height="35" width="35" x="72" y="108" /><rect fill="#000000" height="35" width="35" x="108" y="108" /><rect fill="#000000" height="35" width="35" x="144" y="108" /><rect fill="#013b3d" height="35" width="35" x="180" y="108" /><rect fill="#0080bf" height="35" width="35" x="216" y="108" /><rect fill="#018e3b" height="35" width="35" x="252" y="108" /><rect fill="#398b00" height="35" width="35" x="288" y="108" /><rect fill="#028e03" height="35" width="35" x="324" y="108" /><rect fill="#340000" height="35" width="35" x="360" y="108" /><rect fill="#000003" height="35" width="35" x="396" y="108" /><rect fill="#000000" height="35" width="35" x="432" y="108" /><rect fill="#000000" height="35" width="35" x="468" y="108" /><rect fill="#000000" height="35" width="35" x="504" y="108" /><rect fill="#000000" height="35" width="35" x="540" y="108" /><rect fill="#000000" height="35" width="35" x="0" y="144" /><rect fill="#000000" height="35" width="35" x="36" y="144" /><rect fill="#000000" height="35" width="35" x="72" y="144" /><rect fill="#000000" height="35" width="35" x="108" y="144" /><rect fill="#000000" height="35" width="35" x="144" y="144" /><rect fill="#006604" height="35" width="35" x="180" y="144" /><rect fill="#018f3d" height="35" width="35" x="216" y="144" /><rect fill="#398e02" height="35" width="35" x="252" y="144" /><rect fill="#bebf00" height="35" width="35" x="288" y="144" /><rect fill="#337903" height="35" width="35" x="324" y="144" /><rect fill="#bc0000" height="35" width="35" x="360" y="144" /><rect fill="#340000" height="35" width="35" x="396" y="144" /><rect fill="#000000" height="35" width="35" x="432" y="144" /><rect fill="#000000" height="35" width="35" x="468" y="144" /><rect fill="#000000" height="35" width="35" x="504" y="144" /><rect fill="#000000" height="35" width="35" x="540" y="144" /><rect fill="#000000" height="35" width="35" x="0" y="180" /><rect fill="#000000" height="35" width="35" x="36" y="180" /><rect fill="#000000" height="35" width="35" x="72" y="180" /><rect fill="#000000" height="35" width="35" x="108" y="180" /><rect fill="#000000" height="35" width="35" x="144" y="180" /><rect fill="#020000" height="35" width="35" x="180" y="180" /><rect fill="#047704" height="35" width="35" x="216" y="180" /><rect fill="#047704" height="35" width="35" x="252" y="180" /><rect fill="#367a00" height="35" width="35" x="288" y="180" /><rect fill="#8001c2" height="35" width="35" x="324" y="180" /><rect fill="#370000" height="35" width="35" x="360" y="180" /><rect fill="#000000" height="35" width="35" x="396" y="180" /><rect fill="#000000" height="35" width="35" x="432" y="180" /><rect fill="#000000" height="35" width="35" x="468" y="180" /><rect fill="#000000" height="35" width="35" x="504" y="180" /><rect fill="#000000" height="35" width="35" x="540" y="180" /><rect fill="#000000" height="35" width="35" x="0" y="216" /><rect fill="#000000" height="35" width="35" x="36" y="216" /><rect fill="#000000" height="35" width="35" x="72" y="216" /><rect fill="#000000" height="35" width="35" x="108" y="216" /><rect fill="#000000" height="35" width="35" x="144" y="216" /><rect fill="#8000bb" height="35" width="35" x="180" y="216" /><rect fill="#057805" height="35" width="35" x="216" y="216" /><rect fill="#015601" height="35" width="35" x="252" y="216" /><rect fill="#7d00c2" height="35" width="35" x="288" y="216" /><rect fill="#057500" height="35" width="35" x="324" y="216" /><rect fill="#019b3c" height="35" width="35" x="360" y="216" /><rect fill="#040002" height="35" width="35" x="396" y="216" /><rect fill="#000000" height="35" width="35" x="432" y="216" /><rect fill="#000000" height="35" width="35" x="468" y="216" /><rect fill="#000000" height="35" width="35" x="504" y="216" /><rect fill="#000000" height="35" width="35" x="540" y="216" /><rect fill="#000000" height="35" width="35" x="0" y="252" /><rect fill="#000000" height="35" width="35" x="36" y="252" /><rect fill="#020000" height="35" width="35" x="72" y="252" /><rect fill="#370000" height="35" width="35" x="108" y="252" /><rect fill="#057606" height="35" width="35" x="144" y="252" /><rect fill="#027707" height="35" width="35" x="180" y="252" /><rect fill="#7e02c1" height="35" width="35" x="216" y="252" /><rect fill="#933883" height="35" width="35" x="252" y="252" /><rect fill="#057504" height="35" width="35" x="288" y="252" /><rect fill="#038f3b" height="35" width="35" x="324" y="252" /><rect fill="#0080bb" height="35" width="35" x="360" y="252" /><rect fill="#019b3c" height="35" width="35" x="396" y="252" /><rect fill="#020002" height="35" width="35" x="432" y="252" /><rect fill="#000000" height="35" width="35" x="468" y="252" /><rect fill="#000000" height="35" width="35" x="504" y="252" /><rect fill="#000000" height="35" width="35" x="540" y="252" /><rect fill="#000000" height="35" width="35" x="0" y="288" /><rect fill="#000000" height="35" width="35" x="36" y="288" /><rect fill="#370000" height="35" width="35" x="72" y="288" /><rect fill="#be0000" height="35" width="35" x="108" y="288" /><rect fill="#006200" height="35" width="35" x="144" y="288" /><rect fill="#006300" height="35" width="35" x="180" y="288" /><rect fill="#378e00" height="35" width="35" x="216" y="288" /><rect fill="#bfc000" height="35" width="35" x="252" y="288" /><rect fill="#388e00" height="35" width="35" x="288" y="288" /><rect fill="#047706" height="35" width="35" x="324" y="288" /><rect fill="#007b38" height="35" width="35" x="360" y="288" /><rect fill="#8100bd" height="35" width="35" x="396" y="288" /><rect fill="#006400" height="35" width="35" x="432" y="288" /><rect fill="#000000" height="35" width="35" x="468" y="288" /><rect fill="#000000" height="35" width="35" x="504" y="288" /><rect fill="#000000" height="35" width="35" x="540" y="288" /><rect fill="#000000" height="35" width="35" x="0" y="324" /><rect fill="#000000" height="35" width="35" x="36" y="324" /><rect fill="#000000" height="35" width="35" x="72" y="324" /><rect fill="#370001" height="35" width="35" x="108" y="324" /><rect fill="#000000" height="35" width="35" x="144" y="324" /><rect fill="#015600" height="35" width="35" x="180" y="324" /><rect fill="#006200" height="35" width="35" x="216" y="324" /><rect fill="#368e00" height="35" width="35" x="252" y="324" /><rect fill="#017606" height="35" width="35" x="288" y="324" /><rect fill="#006200" height="35" width="35" x="324" y="324" /><rect fill="#8001c0" height="35" width="35" x="360" y="324" /><rect fill="#010101" height="35" width="35" x="396" y="324" /><rect fill="#000000" height="35" width="35" x="432" y="324" /><rect fill="#000000" height="35" width="35" x="468" y="324" /><rect fill="#000000" height="35" width="35" x="504" y="324" /><rect fill="#000000" height="35" width="35" x="540" y="324" /><rect fill="#000000" height="35" width="35" x="0" y="360" /><rect fill="#000000" height="35" width="35" x="36" y="360" /><rect fill="#000000" height="35" width="35" x="72" y="360" /><rect fill="#000000" height="35" width="35" x="108" y="360" /><rect fill="#7f00c0" height="35" width="35" x="144" y="360" /><rect fill="#047704" height="35" width="35" x="180" y="360" /><rect fill="#005500" height="35" width="35" x="216" y="360" /><rect fill="#005500" height="35" width="35" x="252" y="360" /><rect fill="#8400c1" height="35" width="35" x="288" y="360" /><rect fill="#8302bf" height="35" width="35" x="324" y="360" /><rect fill="#047504" height="35" width="35" x="360" y="360" /><rect fill="#038c05" height="35" width="35" x="396" y="360" /><rect fill="#010000" height="35" width="35" x="432" y="360" /><rect fill="#000000" height="35" width="35" x="468" y="360" /><rect fill="#000000" height="35" width="35" x="504" y="360" /><rect fill="#000000" height="35" width="35" x="540" y="360" /><rect fill="#000000" height="35" width="35" x="0" y="396" /><rect fill="#000000" height="35" width="35" x="36" y="396" /><rect fill="#000004" height="35" width="35" x="72" y="396" /><rect fill="#006300" height="35" width="35" x="108" y="396" /><rect fill="#006300" height="35" width="35" x="144" y="396" /><rect fill="#8201c0" height="35" width="35" x="180" y="396" /><rect fill="#8001be" height="35" width="35" x="216" y="396" /><rect fill="#8001be" height="35" width="35" x="252" y="396" /><rect fill="#077604" height="35" width="35" x="288" y="396" /><rect fill="#398d01" height="35" width="35" x="324" y="396" /><rect fill="#047704" height="35" width="35" x="360" y="396" /><rect fill="#006200" height="35" width="35" x="396" y="396" /><rect fill="#006102" height="35" width="35" x="432" y="396" /><rect fill="#370000" height="35" width="35" x="468" y="396" /><rect fill="#000000" height="35" width="35" x="504" y="396" /><rect fill="#000000" height="35" width="35" x="540" y="396" /><rect fill="#000000" height="35" width="35" x="0" y="432" /><rect fill="#010000" height="35" width="35" x="36" y="432" /><rect fill="#005500" height="35" width="35" x="72" y="432" /><rect fill="#005500" height="35" width="35" x="108" y="432" /><rect fill="#005500" height="35" width="35" x="144" y="432" /><rect fill="#007b38" height="35" width="35" x="180" y="432" /><rect fill="#006200" height="35" width="35" x="216" y="432" /><rect fill="#006200" height="35" width="35" x="252" y="432" /><rect fill="#397b00" height="35" width="35" x="288" y="432" /><rect fill="#c3c002" height="35" width="35" x="324" y="432" /><rect fill="#387b00" height="35" width="35" x="360" y="432" /><rect fill="#005500" height="35" width="35" x="396" y="432" /><rect fill="#3a3b02" height="35" width="35" x="432" y="432" /><rect fill="#be0000" height="35" width="35" x="468" y="432" /><rect fill="#360200" height="35" width="35" x="504" y="432" /><rect fill="#000002" height="35" width="35" x="540" y="432" /><rect fill="#000000" height="35" width="35" x="0" y="468" /><rect fill="#000000" height="35" width="35" x="36" y="468" /><rect fill="#000200" height="35" width="35" x="72" y="468" /><rect fill="#013a37" height="35" width="35" x="108" y="468" /><rect fill="#0282bb" height="35" width="35" x="144" y="468" /><rect fill="#007639" height="35" width="35" x="180" y="468" /><rect fill="#005500" height="35" width="35" x="216" y="468" /><rect fill="#015600" height="35" width="35" x="252" y="468" /><rect fill="#035500" height="35" width="35" x="288" y="468" /><rect fill="#377100" height="35" width="35" x="324" y="468" /><rect fill="#035600" height="35" width="35" x="360" y="468" /><rect fill="#000000" height="35" width="35" x="396" y="468" /><rect fill="#000000" height="35" width="35" x="432" y="468" /><rect fill="#380100" height="35" width="35" x="468" y="468" /><rect fill="#000000" height="35" width="35" x="504" y="468" /><rect fill="#000000" height="35" width="35" x="540" y="468" /><rect fill="#000000" height="35" width="35" x="0" y="504" /><rect fill="#000000" height="35" width="35" x="36" y="504" /><rect fill="#000000" height="35" width="35" x="72" y="504" /><rect fill="#000000" height="35" width="35" x="108" y="504" /><rect fill="#013936" height="35" width="35" x="144" y="504" /><rect fill="#010101" height="35" width="35" x="180" y="504" /><rect fill="#010000" height="35" width="35" x="216" y="504" /><rect fill="#4d1800" height="35" width="35" x="252" y="504" /><rect fill="#6f2500" height="35" width="35" x="288" y="504" /><rect fill="#000000" height="35" width="35" x="324" y="504" /><rect fill="#000000" height="35" width="35" x="360" y="504" /><rect fill="#000000" height="35" width="35" x="396" y="504" /><rect fill="#000000" height="35" width="35" x="432" y="504" /><rect fill="#000000" height="35" width="35" x="468" y="504" /><rect fill="#000000" height="35" width="35" x="504" y="504" /><rect fill="#000000" height="35" width="35" x="540" y="504" /><rect fill="#000000" height="35" width="35" x="0" y="540" /><rect fill="#000000" height="35" width="35" x="36" y="540" /><rect fill="#000000" height="35" width="35" x="72" y="540" /><rect fill="#000000" height="35" width="35" x="108" y="540" /><rect fill="#000000" height="35" width="35" x="144" y="540" /><rect fill="#000000" height="35" width="35" x="180" y="540" /><rect fill="#000000" height="35" width="35" x="216" y="540" /><rect fill="#541d00" height="35" width="35" x="252" y="540" /><rect fill="#7e2900" height="35" width="35" x="288" y="540" /><rect fill="#000000" height="35" width="35" x="324" y="540" /><rect fill="#000000" height="35" width="35" x="360" y="540" /><rect fill="#000000" height="35" width="35" x="396" y="540" /><rect fill="#000000" height="35" width="35" x="432" y="540" /><rect fill="#000000" height="35" width="35" x="468" y="540" /><rect fill="#000000" height="35" width="35" x="504" y="540" /><rect fill="#000000" height="35" width="35" x="540" y="540" /></svg>