<?xml version="1.0" encoding="utf-8" ?>
<svg baseProfile="tiny" height="575" version="1.2" width="575" xmlns="http://www.w3.org/2000/svg" xmlns:ev="http://www.w3.org/2001/xml-events" xmlns:xlink="http://www.w3.org/1999/xlink"><defs /><rect fill="#000000" height="35" width="35" x="0" y="0" /><rect fill="#000000" height="35" width="35" x="36" y="0" /><rect fill="#000000" height="35" width="35" x="72" y="0" /><rect fill="#000000" height="35" width="35" x="108" y="0" /><rect fill="#000000" height="35" width="35" x="144" y="0" /><rect fill="#000000" height="35" width="35" x="180" y="0" /><rect fill="#000000" height="35" width="35" x="216" y="0" /><rect fill="#7d8100" height="35" width="35" x="252" y="0" /><rect fill="#7e8100" height="35" width="35" x="288" y="0" /><rect fill="#000000" height="35" width="35" x="324" y="0" /><rect fill="#000000" height="35" width="35" x="360" y="0" /><rect fill="#000000" height="35" width="35" x="396" y="0" /><rect fill="#000000" height="35" width="35" x="432" y="0" /><rect fill="#000000" height="35" width="35" x="468" y="0" /><rect fill="#000000" height="35" width="35" x="504" y="0" /><rect fill="#000000" height="35" width="35" x="540" y="0" /><rect fill="#000000" height="35" width="35" x="0" y="36" /><rect fill="#000000" height="35" width="35" x="36" y="36" /><rect fill="#000000" height="35" width="35" x="72" y="36" /><rect fill="#000000" height="35" width="35" x="108" y="36" /><rect fill="#000000" height="35" width="35" x="144" y="36" /><rect fill="#000000" height="35" width="35" x="180" y="36" /><rect fill="#000000" height="35" width="35" x="216" y="36" /><rect fill="#7c8100" height="35" width="35" x="252" y="36" /><rect fill="#7e8100" height="35" width="35" x="288" y="36" /><rect fill="#000000" height="35" width="35" x="324" y="36" /><rect fill="#000000" height="35" width="35" x="360" y="36" /><rect fill="#000000" height="35" width="35" x="396" y="36" /><rect fill="#000000" height="35" width="35" x="432" y="36" /><rect fill="#000000" height="35" width="35" x="468" y="36" /><rect fill="#000000" height="35" width="35" x="504" y="36" /><rect fill="#000000" height="35" width="35" x="540" y="36" /><rect fill="#000000" height="35" width="35" x="0" y="72" /><rect fill="#000000" height="35" width="35" x="36" y="72" /><rect fill="#000000" height="35" width="35" x="72" y="72" /><rect fill="#000000" height="35" width="35" x="108" y="72" /><rect fill="#000000" height="35" width="35" x="144" y="72" /><rect fill="#000000" height="35" width="35" x="180" y="72" /><rect fill="#280103" height="35" width="35" x="216" y="72" /><rect fill="#015c03" height="35" width="35" x="252" y="72" /><rect fill="#025c03" height="35" width="35" x="288" y="72" /><rect fill="#000000" height="35" width="35" x="324" y="72" /><rect fill="#000000" height="35" width="35" x="360" y="72" /><rect fill="#000000" height="35" width="35" x="396" y="72" /><rect fill="#000000" height="35" width="35" x="432" y="72" /><rect fill="#000000" height="35" width="35" x="468" y="72" /><rect fill="#000000" height="35" width="35" x="504" y="72" /><rect fill="#000000" height="35" width="35" x="540" y="72" /><rect fill="#000000" height="35" width="35" x="0" y="108" /><rect fill="#000000" height="35" width="35" x="36" y="108" /><rect fill="#000000" height="35" width="35" x="72" y="108" /><rect fill="#000000" height="35" width="35" x="108" y="108" /><rect fill="#000000" height="35" width="35" x="144" y="108" /><rect fill="#280000" height="35" width="35" x="180" y="108" /><rect fill="#7d0000" height="35" width="35" x="216" y="108" /><rect fill="#2c3800" height="35" width="35" x="252" y="108" /><rect fill="#004e02" height="35" width="35" x="288" y="108" /><rect fill="#025c04" height="35" width="35" x="324" y="108" /><rect fill="#252401" height="35" width="35" x="360" y="108" /><rect fill="#010101" height="35" width="35" x="396" y="108" /><rect fill="#000000" height="35" width="35" x="432" y="108" /><rect fill="#000000" height="35" width="35" x="468" y="108" /><rect fill="#000000" height="35" width="35" x="504" y="108" /><rect fill="#000000" height="35" width="35" x="540" y="108" /><rect fill="#000000" height="35" width="35" x="0" y="144" /><rect fill="#000000" height="35" width="35" x="36" y="144" /><rect fill="#000000" height="35" width="35" x="72" y="144" /><rect fill="#000000" height="35" width="35" x="108" y="144" /><rect fill="#000000" height="35" width="35" x="144" y="144" /><rect fill="#004000" height="35" width="35" x="180" y="144" /><rect fill="#293700" height="35" width="35" x="216" y="144" /><rect fill="#015000" height="35" width="35" x="252" y="144" /><rect fill="#005e28" height="35" width="35" x="288" y="144" /><rect fill="#265200" height="35" width="35" x="324" y="144" /><rect fill="#7e8100" height="35" width="35" x="360" y="144" /><rect fill="#242300" height="35" width="35" x="396" y="144" /><rect fill="#000000" height="35" width="35" x="432" y="144" /><rect fill="#000000" height="35" width="35" x="468" y="144" /><rect fill="#000000" height="35" width="35" x="504" y="144" /><rect fill="#000000" height="35" width="35" x="540" y="144" /><rect fill="#000000" height="35" width="35" x="0" y="180" /><rect fill="#000000" height="35" width="35" x="36" y="180" /><rect fill="#000000" height="35" width="35" x="72" y="180" /><rect fill="#000000" height="35" width="35" x="108" y="180" /><rect fill="#000000" height="35" width="35" x="144" y="180" /><rect fill="#010101" height="35" width="35" x="180" y="180" /><rect fill="#014f02" height="35" width="35" x="216" y="180" /><rect fill="#005e26" height="35" width="35" x="252" y="180" /><rect fill="#00567d" height="35" width="35" x="288" y="180" /><rect fill="#38257c" height="35" width="35" x="324" y="180" /><rect fill="#252600" height="35" width="35" x="360" y="180" /><rect fill="#000001" height="35" width="35" x="396" y="180" /><rect fill="#000000" height="35" width="35" x="432" y="180" /><rect fill="#000000" height="35" width="35" x="468" y="180" /><rect fill="#000000" height="35" width="35" x="504" y="180" /><rect fill="#000000" height="35" width="35" x="540" y="180" /><rect fill="#000000" height="35" width="35" x="0" y="216" /><rect fill="#000000" height="35" width="35" x="36" y="216" /><rect fill="#000000" height="35" width="35" x="72" y="216" /><rect fill="#000000" height="35" width="35" x="108" y="216" /><rect fill="#010001" height="35" width="35" x="144" y="216" /><rect fill="#56027d" height="35" width="35" x="180" y="216" /><rect fill="#014f02" height="35" width="35" x="216" y="216" /><rect fill="#003600" height="35" width="35" x="252" y="216" /><rect fill="#39257e" height="35" width="35" x="288" y="216" /><rect fill="#014f02" height="35" width="35" x="324" y="216" /><rect fill="#045b03" height="35" width="35" x="360" y="216" /><rect fill="#280002" height="35" width="35" x="396" y="216" /><rect fill="#000000" height="35" width="35" x="432" y="216" /><rect fill="#000000" height="35" width="35" x="468" y="216" /><rect fill="#000000" height="35" width="35" x="504" y="216" /><rect fill="#000000" height="35" width="35" x="540" y="216" /><rect fill="#000000" height="35" width="35" x="0" y="252" /><rect fill="#000000" height="35" width="35" x="36" y="252" /><rect fill="#000000" height="35" width="35" x="72" y="252" /><rect fill="#000000" height="35" width="35" x="108" y="252" /><rect fill="#296004" height="35" width="35" x="144" y="252" /><rect fill="#045007" height="35" width="35" x="180" y="252" /><rect fill="#52007f" height="35" width="35" x="216" y="252" /><rect fill="#520080" height="35" width="35" x="252" y="252" /><rect fill="#014f03" height="35" width="35" x="288" y="252" /><rect fill="#014f02" height="35" width="35" x="324" y="252" /><rect fill="#293700" height="35" width="35" x="360" y="252" /><rect fill="#800100" height="35" width="35" x="396" y="252" /><rect fill="#270000" height="35" width="35" x="432" y="252" /><rect fill="#000000" height="35" width="35" x="468" y="252" /><rect fill="#000000" height="35" width="35" x="504" y="252" /><rect fill="#000000" height="35" width="35" x="540" y="252" /><rect fill="#000000" height="35" width="35" x="0" y="288" /><rect fill="#000000" height="35" width="35" x="36" y="288" /><rect fill="#000000" height="35" width="35" x="72" y="288" /><rect fill="#285401" height="35" width="35" x="108" y="288" /><rect fill="#808000" height="35" width="35" x="144" y="288" /><rect fill="#2a5401" height="35" width="35" x="180" y="288" /><rect fill="#014f02" height="35" width="35" x="216" y="288" /><rect fill="#005e26" height="35" width="35" x="252" y="288" /><rect fill="#005004" height="35" width="35" x="288" y="288" /><rect fill="#014f02" height="35" width="35" x="324" y="288" /><rect fill="#004100" height="35" width="35" x="360" y="288" /><rect fill="#600259" height="35" width="35" x="396" y="288" /><rect fill="#013f00" height="35" width="35" x="432" y="288" /><rect fill="#000000" height="35" width="35" x="468" y="288" /><rect fill="#000000" height="35" width="35" x="504" y="288" /><rect fill="#000000" height="35" width="35" x="540" y="288" /><rect fill="#000000" height="35" width="35" x="0" y="324" /><rect fill="#000000" height="35" width="35" x="36" y="324" /><rect fill="#000000" height="35" width="35" x="72" y="324" /><rect fill="#010000" height="35" width="35" x="108" y="324" /><rect fill="#1f2300" height="35" width="35" x="144" y="324" /><rect fill="#033500" height="35" width="35" x="180" y="324" /><rect fill="#005525" height="35" width="35" x="216" y="324" /><rect fill="#00567c" height="35" width="35" x="252" y="324" /><rect fill="#005f24" height="35" width="35" x="288" y="324" /><rect fill="#024002" height="35" width="35" x="324" y="324" /><rect fill="#51017e" height="35" width="35" x="360" y="324" /><rect fill="#010100" height="35" width="35" x="396" y="324" /><rect fill="#000000" height="35" width="35" x="432" y="324" /><rect fill="#000000" height="35" width="35" x="468" y="324" /><rect fill="#000000" height="35" width="35" x="504" y="324" /><rect fill="#000000" height="35" width="35" x="540" y="324" /><rect fill="#000000" height="35" width="35" x="0" y="360" /><rect fill="#000000" height="35" width="35" x="36" y="360" /><rect fill="#000000" height="35" width="35" x="72" y="360" /><rect fill="#000000" height="35" width="35" x="108" y="360" /><rect fill="#53007e" height="35" width="35" x="144" y="360" /><rect fill="#025101" height="35" width="35" x="180" y="360" /><rect fill="#013700" height="35" width="35" x="216" y="360" /><rect fill="#014f28" height="35" width="35" x="252" y="360" /><rect fill="#550180" height="35" width="35" x="288" y="360" /><rect fill="#53007e" height="35" width="35" x="324" y="360" /><rect fill="#014f03" height="35" width="35" x="360" y="360" /><rect fill="#015c03" height="35" width="35" x="396" y="360" /><rect fill="#010001" height="35" width="35" x="432" y="360" /><rect fill="#000000" height="35" width="35" x="468" y="360" /><rect fill="#000000" height="35" width="35" x="504" y="360" /><rect fill="#000000" height="35" width="35" x="540" y="360" /><rect fill="#000000" height="35" width="35" x="0" y="396" /><rect fill="#000000" height="35" width="35" x="36" y="396" /><rect fill="#250001" height="35" width="35" x="72" y="396" /><rect fill="#004100" height="35" width="35" x="108" y="396" /><rect fill="#004100" height="35" width="35" x="144" y="396" /><rect fill="#51007d" height="35" width="35" x="180" y="396" /><rect fill="#52007c" height="35" width="35" x="216" y="396" /><rect fill="#520080" height="35" width="35" x="252" y="396" /><rect fill="#005e26" height="35" width="35" x="288" y="396" /><rect fill="#004e03" height="35" width="35" x="324" y="396" /><rect fill="#015103" height="35" width="35" x="360" y="396" /><rect fill="#044103" height="35" width="35" x="396" y="396" /><rect fill="#014203" height="35" width="35" x="432" y="396" /><rect fill="#000100" height="35" width="35" x="468" y="396" /><rect fill="#000000" height="35" width="35" x="504" y="396" /><rect fill="#000000" height="35" width="35" x="540" y="396" /><rect fill="#000000" height="35" width="35" x="0" y="432" /><rect fill="#270002" height="35" width="35" x="36" y="432" /><rect fill="#7f0000" height="35" width="35" x="72" y="432" /><rect fill="#282700" height="35" width="35" x="108" y="432" /><rect fill="#003600" height="35" width="35" x="144" y="432" /><rect fill="#004100" height="35" width="35" x="180" y="432" /><rect fill="#004100" height="35" width="35" x="216" y="432" /><rect fill="#005528" height="35" width="35" x="252" y="432" /><rect fill="#00567f" height="35" width="35" x="288" y="432" /><rect fill="#005526" height="35" width="35" x="324" y="432" /><rect fill="#285401" height="35" width="35" x="360" y="432" /><rect fill="#003600" height="35" width="35" x="396" y="432" /><rect fill="#003600" height="35" width="35" x="432" y="432" /><rect fill="#003600" height="35" width="35" x="468" y="432" /><rect fill="#000000" height="35" width="35" x="504" y="432" /><rect fill="#000000" height="35" width="35" x="540" y="432" /><rect fill="#000000" height="35" width="35" x="0" y="468" /><rect fill="#000000" height="35" width="35" x="36" y="468" /><rect fill="#270304" height="35" width="35" x="72" y="468" /><rect fill="#030004" height="35" width="35" x="108" y="468" /><rect fill="#000004" height="35" width="35" x="144" y="468" /><rect fill="#013600" height="35" width="35" x="180" y="468" /><rect fill="#003600" height="35" width="35" x="216" y="468" /><rect fill="#003600" height="35" width="35" x="252" y="468" /><rect fill="#004c26" height="35" width="35" x="288" y="468" /><rect fill="#264d02" height="35" width="35" x="324" y="468" /><rect fill="#7d8000" height="35" width="35" x="360" y="468" /><rect fill="#272905" height="35" width="35" x="396" y="468" /><rect fill="#010101" height="35" width="35" x="432" y="468" /><rect fill="#000000" height="35" width="35" x="468" y="468" /><rect fill="#000000" height="35" width="35" x="504" y="468" /><rect fill="#000000" height="35" width="35" x="540" y="468" /><rect fill="#000000" height="35" width="35" x="0" y="504" /><rect fill="#000000" height="35" width="35" x="36" y="504" /><rect fill="#000000" height="35" width="35" x="72" y="504" /><rect fill="#000000" height="35" width="35" x="108" y="504" /><rect fill="#000000" height="35" width="35" x="144" y="504" /><rect fill="#010101" height="35" width="35" x="180" y="504" /><rect fill="#010000" height="35" width="35" x="216" y="504" /><rect fill="#2e1100" height="35" width="35" x="252" y="504" /><rect fill="#4c1701" height="35" width="35" x="288" y="504" /><rect fill="#020002" height="35" width="35" x="324" y="504" /><rect fill="#242600" height="35" width="35" x="360" y="504" /><rect fill="#010001" height="35" width="35" x="396" y="504" /><rect fill="#000000" height="35" width="35" x="432" y="504" /><rect fill="#000000" height="35" width="35" x="468" y="504" /><rect fill="#000000" height="35" width="35" x="504" y="504" /><rect fill="#000000" height="35" width="35" x="540" y="504" /><rect fill="#000000" height="35" width="35" x="0" y="540" /><rect fill="#000000" height="35" width="35" x="36" y="540" /><rect fill="#000000" height="35" width="35" x="72" y="540" /><rect fill="#000000" height="35" width="35" x="108" y="540" /><rect fill="#000000" height="35" width="35" x="144" y="540" /><rect fill="#000000" height="35" width="35" x="180" y="540" /><rect fill="#000000" height="35" width="35" x="216" y="540" /><rect fill="#351400" height="35" width="35" x="252" y="540" /><rect fill="#551c03" height="35" width="35" x="288" y="540" /><rect fill="#000000" height="35" width="35" x="324" y="540" /><rect fill="#000000" height="35" width="35" x="360" y="540" /><rect fill="#000000" height="35" width="35" x="396" y="540" /><rect fill="#000000" height="35" width="35" x="432" y="540" /><rect fill="#000000" height="35" width="35" x="468" y="540" /><rect fill="#000000" height="35" width="35" x="504" y="540" /><rect fill="#000000" height="35" width="35" x="540" y="540" /></svg>