<?xml version="1.0" encoding="utf-8" ?>
<svg baseProfile="tiny" height="575" version="1.2" width="575" xmlns="http://www.w3.org/2000/svg" xmlns:ev="http://www.w3.org/2001/xml-events" xmlns:xlink="http://www.w3.org/1999/xlink"><defs /><rect fill="#000000" height="35" width="35" x="0" y="0" /><rect fill="#000000" height="35" width="35" x="36" y="0" /><rect fill="#000000" height="35" width="35" x="72" y="0" /><rect fill="#000000" height="35" width="35" x="108" y="0" /><rect fill="#000000" height="35" width="35" x="144" y="0" /><rect fill="#000000" height="35" width="35" x="180" y="0" /><rect fill="#131500" height="35" width="35" x="216" y="0" /><rect fill="#3f3f00" height="35" width="35" x="252" y="0" /><rect fill="#404000" height="35" width="35" x="288" y="0" /><rect fill="#141400" height="35" width="35" x="324" y="0" /><rect fill="#000000" height="35" width="35" x="360" y="0" /><rect fill="#000000" height="35" width="35" x="396" y="0" /><rect fill="#000000" height="35" width="35" x="432" y="0" /><rect fill="#000000" height="35" width="35" x="468" y="0" /><rect fill="#000000" height="35" width="35" x="504" y="0" /><rect fill="#000000" height="35" width="35" x="540" y="0" /><rect fill="#000000" height="35" width="35" x="0" y="36" /><rect fill="#000000" height="35" width="35" x="36" y="36" /><rect fill="#000000" height="35" width="35" x="72" y="36" /><rect fill="#000000" height="35" width="35" x="108" y="36" /><rect fill="#000000" height="35" width="35" x="144" y="36" /><rect fill="#000000" height="35" width="35" x="180" y="36" /><rect fill="#131500" height="35" width="35" x="216" y="36" /><rect fill="#3e3f01" height="35" width="35" x="252" y="36" /><rect fill="#3e3f00" height="35" width="35" x="288" y="36" /><rect fill="#141400" height="35" width="35" x="324" y="36" /><rect fill="#000000" height="35" width="35" x="360" y="36" /><rect fill="#000000" height="35" width="35" x="396" y="36" /><rect fill="#000000" height="35" width="35" x="432" y="36" /><rect fill="#000000" height="35" width="35" x="468" y="36" /><rect fill="#000000" height="35" width="35" x="504" y="36" /><rect fill="#000000" height="35" width="35" x="540" y="36" /><rect fill="#000000" height="35" width="35" x="0" y="72" /><rect fill="#000000" height="35" width="35" x="36" y="72" /><rect fill="#000000" height="35" width="35" x="72" y="72" /><rect fill="#000000" height="35" width="35" x="108" y="72" /><rect fill="#000000" height="35" width="35" x="144" y="72" /><rect fill="#000000" height="35" width="35" x="180" y="72" /><rect fill="#130100" height="35" width="35" x="216" y="72" /><rect fill="#143200" height="35" width="35" x="252" y="72" /><rect fill="#143200" height="35" width="35" x="288" y="72" /><rect fill="#000000" height="35" width="35" x="324" y="72" /><rect fill="#000000" height="35" width="35" x="360" y="72" /><rect fill="#000000" height="35" width="35" x="396" y="72" /><rect fill="#000000" height="35" width="35" x="432" y="72" /><rect fill="#000000" height="35" width="35" x="468" y="72" /><rect fill="#000000" height="35" width="35" x="504" y="72" /><rect fill="#000000" height="35" width="35" x="540" y="72" /><rect fill="#000000" height="35" width="35" x="0" y="108" /><rect fill="#000000" height="35" width="35" x="36" y="108" /><rect fill="#000000" height="35" width="35" x="72" y="108" /><rect fill="#000000" height="35" width="35" x="108" y="108" /><rect fill="#000000" height="35" width="35" x="144" y="108" /><rect fill="#130000" height="35" width="35" x="180" y="108" /><rect fill="#3b0000" height="35" width="35" x="216" y="108" /><rect fill="#161c00" height="35" width="35" x="252" y="108" /><rect fill="#002702" height="35" width="35" x="288" y="108" /><rect fill="#012e00" height="35" width="35" x="324" y="108" /><rect fill="#111300" height="35" width="35" x="360" y="108" /><rect fill="#000003" height="35" width="35" x="396" y="108" /><rect fill="#000000" height="35" width="35" x="432" y="108" /><rect fill="#000000" height="35" width="35" x="468" y="108" /><rect fill="#000000" height="35" width="35" x="504" y="108" /><rect fill="#000000" height="35" width="35" x="540" y="108" /><rect fill="#000000" height="35" width="35" x="0" y="144" /><rect fill="#000000" height="35" width="35" x="36" y="144" /><rect fill="#000000" height="35" width="35" x="72" y="144" /><rect fill="#000000" height="35" width="35" x="108" y="144" /><rect fill="#000000" height="35" width="35" x="144" y="144" /><rect fill="#042300" height="35" width="35" x="180" y="144" /><rect fill="#141c01" height="35" width="35" x="216" y="144" /><rect fill="#002700" height="35" width="35" x="252" y="144" /><rect fill="#012f14" height="35" width="35" x="288" y="144" /><rect fill="#122800" height="35" width="35" x="324" y="144" /><rect fill="#3c4000" height="35" width="35" x="360" y="144" /><rect fill="#131404" height="35" width="35" x="396" y="144" /><rect fill="#000000" height="35" width="35" x="432" y="144" /><rect fill="#000000" height="35" width="35" x="468" y="144" /><rect fill="#000000" height="35" width="35" x="504" y="144" /><rect fill="#000000" height="35" width="35" x="540" y="144" /><rect fill="#000000" height="35" width="35" x="0" y="180" /><rect fill="#000000" height="35" width="35" x="36" y="180" /><rect fill="#000000" height="35" width="35" x="72" y="180" /><rect fill="#000000" height="35" width="35" x="108" y="180" /><rect fill="#000000" height="35" width="35" x="144" y="180" /><rect fill="#000000" height="35" width="35" x="180" y="180" /><rect fill="#002700" height="35" width="35" x="216" y="180" /><rect fill="#002f14" height="35" width="35" x="252" y="180" /><rect fill="#012a3c" height="35" width="35" x="288" y="180" /><rect fill="#1a143e" height="35" width="35" x="324" y="180" /><rect fill="#131401" height="35" width="35" x="360" y="180" /><rect fill="#000001" height="35" width="35" x="396" y="180" /><rect fill="#000000" height="35" width="35" x="432" y="180" /><rect fill="#000000" height="35" width="35" x="468" y="180" /><rect fill="#000000" height="35" width="35" x="504" y="180" /><rect fill="#000000" height="35" width="35" x="540" y="180" /><rect fill="#000000" height="35" width="35" x="0" y="216" /><rect fill="#000000" height="35" width="35" x="36" y="216" /><rect fill="#000000" height="35" width="35" x="72" y="216" /><rect fill="#000000" height="35" width="35" x="108" y="216" /><rect fill="#000000" height="35" width="35" x="144" y="216" /><rect fill="#28013f" height="35" width="35" x="180" y="216" /><rect fill="#002700" height="35" width="35" x="216" y="216" /><rect fill="#001c01" height="35" width="35" x="252" y="216" /><rect fill="#1a143c" height="35" width="35" x="288" y="216" /><rect fill="#012700" height="35" width="35" x="324" y="216" /><rect fill="#032e00" height="35" width="35" x="360" y="216" /><rect fill="#110001" height="35" width="35" x="396" y="216" /><rect fill="#000000" height="35" width="35" x="432" y="216" /><rect fill="#000000" height="35" width="35" x="468" y="216" /><rect fill="#000000" height="35" width="35" x="504" y="216" /><rect fill="#000000" height="35" width="35" x="540" y="216" /><rect fill="#000000" height="35" width="35" x="0" y="252" /><rect fill="#000000" height="35" width="35" x="36" y="252" /><rect fill="#000000" height="35" width="35" x="72" y="252" /><rect fill="#000000" height="35" width="35" x="108" y="252" /><rect fill="#152c00" height="35" width="35" x="144" y="252" /><rect fill="#002601" height="35" width="35" x="180" y="252" /><rect fill="#29013f" height="35" width="35" x="216" y="252" /><rect fill="#29013f" height="35" width="35" x="252" y="252" /><rect fill="#002700" height="35" width="35" x="288" y="252" /><rect fill="#002700" height="35" width="35" x="324" y="252" /><rect fill="#131d00" height="35" width="35" x="360" y="252" /><rect fill="#3b0002" height="35" width="35" x="396" y="252" /><rect fill="#120000" height="35" width="35" x="432" y="252" /><rect fill="#000000" height="35" width="35" x="468" y="252" /><rect fill="#000000" height="35" width="35" x="504" y="252" /><rect fill="#000000" height="35" width="35" x="540" y="252" /><rect fill="#000000" height="35" width="35" x="0" y="288" /><rect fill="#000000" height="35" width="35" x="36" y="288" /><rect fill="#000000" height="35" width="35" x="72" y="288" /><rect fill="#122800" height="35" width="35" x="108" y="288" /><rect fill="#3e3f00" height="35" width="35" x="144" y="288" /><rect fill="#102900" height="35" width="35" x="180" y="288" /><rect fill="#002700" height="35" width="35" x="216" y="288" /><rect fill="#002f14" height="35" width="35" x="252" y="288" /><rect fill="#002700" height="35" width="35" x="288" y="288" /><rect fill="#002700" height="35" width="35" x="324" y="288" /><rect fill="#002100" height="35" width="35" x="360" y="288" /><rect fill="#2d002a" height="35" width="35" x="396" y="288" /><rect fill="#002100" height="35" width="35" x="432" y="288" /><rect fill="#000000" height="35" width="35" x="468" y="288" /><rect fill="#000000" height="35" width="35" x="504" y="288" /><rect fill="#000000" height="35" width="35" x="540" y="288" /><rect fill="#000000" height="35" width="35" x="0" y="324" /><rect fill="#000000" height="35" width="35" x="36" y="324" /><rect fill="#000000" height="35" width="35" x="72" y="324" /><rect fill="#000000" height="35" width="35" x="108" y="324" /><rect fill="#121601" height="35" width="35" x="144" y="324" /><rect fill="#001c00" height="35" width="35" x="180" y="324" /><rect fill="#012a13" height="35" width="35" x="216" y="324" /><rect fill="#002b3c" height="35" width="35" x="252" y="324" /><rect fill="#002f12" height="35" width="35" x="288" y="324" /><rect fill="#002201" height="35" width="35" x="324" y="324" /><rect fill="#29013f" height="35" width="35" x="360" y="324" /><rect fill="#010100" height="35" width="35" x="396" y="324" /><rect fill="#000000" height="35" width="35" x="432" y="324" /><rect fill="#000000" height="35" width="35" x="468" y="324" /><rect fill="#000000" height="35" width="35" x="504" y="324" /><rect fill="#000000" height="35" width="35" x="540" y="324" /><rect fill="#000000" height="35" width="35" x="0" y="360" /><rect fill="#000000" height="35" width="35" x="36" y="360" /><rect fill="#000000" height="35" width="35" x="72" y="360" /><rect fill="#000000" height="35" width="35" x="108" y="360" /><rect fill="#28003d" height="35" width="35" x="144" y="360" /><rect fill="#002602" height="35" width="35" x="180" y="360" /><rect fill="#001c01" height="35" width="35" x="216" y="360" /><rect fill="#012712" height="35" width="35" x="252" y="360" /><rect fill="#27003e" height="35" width="35" x="288" y="360" /><rect fill="#2d0141" height="35" width="35" x="324" y="360" /><rect fill="#002700" height="35" width="35" x="360" y="360" /><rect fill="#012f01" height="35" width="35" x="396" y="360" /><rect fill="#000000" height="35" width="35" x="432" y="360" /><rect fill="#000000" height="35" width="35" x="468" y="360" /><rect fill="#000000" height="35" width="35" x="504" y="360" /><rect fill="#000000" height="35" width="35" x="540" y="360" /><rect fill="#000000" height="35" width="35" x="0" y="396" /><rect fill="#000000" height="35" width="35" x="36" y="396" /><rect fill="#120000" height="35" width="35" x="72" y="396" /><rect fill="#002100" height="35" width="35" x="108" y="396" /><rect fill="#002100" height="35" width="35" x="144" y="396" /><rect fill="#26013b" height="35" width="35" x="180" y="396" /><rect fill="#27023c" height="35" width="35" x="216" y="396" /><rect fill="#27023c" height="35" width="35" x="252" y="396" /><rect fill="#002e15" height="35" width="35" x="288" y="396" /><rect fill="#002700" height="35" width="35" x="324" y="396" /><rect fill="#002802" height="35" width="35" x="360" y="396" /><rect fill="#002100" height="35" width="35" x="396" y="396" /><rect fill="#002102" height="35" width="35" x="432" y="396" /><rect fill="#000000" height="35" width="35" x="468" y="396" /><rect fill="#000000" height="35" width="35" x="504" y="396" /><rect fill="#000000" height="35" width="35" x="540" y="396" /><rect fill="#000000" height="35" width="35" x="0" y="432" /><rect fill="#140000" height="35" width="35" x="36" y="432" /><rect fill="#3d0000" height="35" width="35" x="72" y="432" /><rect fill="#131402" height="35" width="35" x="108" y="432" /><rect fill="#001c01" height="35" width="35" x="144" y="432" /><rect fill="#002100" height="35" width="35" x="180" y="432" /><rect fill="#002100" height="35" width="35" x="216" y="432" /><rect fill="#012a13" height="35" width="35" x="252" y="432" /><rect fill="#012a3c" height="35" width="35" x="288" y="432" /><rect fill="#012a13" height="35" width="35" x="324" y="432" /><rect fill="#122800" height="35" width="35" x="360" y="432" /><rect fill="#001c00" height="35" width="35" x="396" y="432" /><rect fill="#001c01" height="35" width="35" x="432" y="432" /><rect fill="#001c03" height="35" width="35" x="468" y="432" /><rect fill="#000000" height="35" width="35" x="504" y="432" /><rect fill="#000000" height="35" width="35" x="540" y="432" /><rect fill="#000000" height="35" width="35" x="0" y="468" /><rect fill="#000000" height="35" width="35" x="36" y="468" /><rect fill="#110000" height="35" width="35" x="72" y="468" /><rect fill="#000000" height="35" width="35" x="108" y="468" /><rect fill="#000000" height="35" width="35" x="144" y="468" /><rect fill="#001c03" height="35" width="35" x="180" y="468" /><rect fill="#001c02" height="35" width="35" x="216" y="468" /><rect fill="#001c01" height="35" width="35" x="252" y="468" /><rect fill="#022815" height="35" width="35" x="288" y="468" /><rect fill="#112600" height="35" width="35" x="324" y="468" /><rect fill="#3d3f00" height="35" width="35" x="360" y="468" /><rect fill="#161500" height="35" width="35" x="396" y="468" /><rect fill="#000002" height="35" width="35" x="432" y="468" /><rect fill="#000002" height="35" width="35" x="468" y="468" /><rect fill="#000000" height="35" width="35" x="504" y="468" /><rect fill="#000000" height="35" width="35" x="540" y="468" /><rect fill="#000000" height="35" width="35" x="0" y="504" /><rect fill="#000000" height="35" width="35" x="36" y="504" /><rect fill="#000000" height="35" width="35" x="72" y="504" /><rect fill="#000000" height="35" width="35" x="108" y="504" /><rect fill="#000000" height="35" width="35" x="144" y="504" /><rect fill="#010101" height="35" width="35" x="180" y="504" /><rect fill="#000000" height="35" width="35" x="216" y="504" /><rect fill="#180900" height="35" width="35" x="252" y="504" /><rect fill="#260c00" height="35" width="35" x="288" y="504" /><rect fill="#000002" height="35" width="35" x="324" y="504" /><rect fill="#131401" height="35" width="35" x="360" y="504" /><rect fill="#000000" height="35" width="35" x="396" y="504" /><rect fill="#000000" height="35" width="35" x="432" y="504" /><rect fill="#000000" height="35" width="35" x="468" y="504" /><rect fill="#000000" height="35" width="35" x="504" y="504" /><rect fill="#000000" height="35" width="35" x="540" y="504" /><rect fill="#000000" height="35" width="35" x="0" y="540" /><rect fill="#000000" height="35" width="35" x="36" y="540" /><rect fill="#000000" height="35" width="35" x="72" y="540" /><rect fill="#000000" height="35" width="35" x="108" y="540" /><rect fill="#000000" height="35" width="35" x="144" y="540" /><rect fill="#000000" height="35" width="35" x="180" y="540" /><rect fill="#000000" height="35" width="35" x="216" y="540" /><rect fill="#1b0a00" height="35" width="35" x="252" y="540" /><rect fill="#2b0f01" height="35" width="35" x="288" y="540" /><rect fill="#000000" height="35" width="35" x="324" y="540" /><rect fill="#000000" height="35" width="35" x="360" y="540" /><rect fill="#000000" height="35" width="35" x="396" y="540" /><rect fill="#000000" height="35" width="35" x="432" y="540" /><rect fill="#000000" height="35" width="35" x="468" y="540" /><rect fill="#000000" height="35" width="35" x="504" y="540" /><rect fill="#000000" height="35" width="35" x="540" y="540" /></svg>