<?xml version="1.0" encoding="utf-8" ?>
<svg baseProfile="tiny" height="575" version="1.2" width="575" xmlns="http://www.w3.org/2000/svg" xmlns:ev="http://www.w3.org/2001/xml-events" xmlns:xlink="http://www.w3.org/1999/xlink"><defs /><rect fill="#171c18" height="35" width="35" x="0" y="0" /><rect fill="#161b17" height="35" width="35" x="36" y="0" /><rect fill="#171c18" height="35" width="35" x="72" y="0" /><rect fill="#161a19" height="35" width="35" x="108" y="0" /><rect fill="#171b1c" height="35" width="35" x="144" y="0" /><rect fill="#121413" height="35" width="35" x="180" y="0" /><rect fill="#1a1d1d" height="35" width="35" x="216" y="0" /><rect fill="#0f1711" height="35" width="35" x="252" y="0" /><rect fill="#3c4941" height="35" width="35" x="288" y="0" /><rect fill="#344139" height="35" width="35" x="324" y="0" /><rect fill="#333d33" height="35" width="35" x="360" y="0" /><rect fill="#363f36" height="35" width="35" x="396" y="0" /><rect fill="#384238" height="35" width="35" x="432" y="0" /><rect fill="#363b37" height="35" width="35" x="468" y="0" /><rect fill="#2f3430" height="35" width="35" x="504" y="0" /><rect fill="#2c312d" height="35" width="35" x="540" y="0" /><rect fill="#23261f" height="35" width="35" x="0" y="36" /><rect fill="#1d1f1a" height="35" width="35" x="36" y="36" /><rect fill="#1a1f1b" height="35" width="35" x="72" y="36" /><rect fill="#2b2f2f" height="35" width="35" x="108" y="36" /><rect fill="#131514" height="35" width="35" x="144" y="36" /><rect fill="#131514" height="35" width="35" x="180" y="36" /><rect fill="#1a1f1d" height="35" width="35" x="216" y="36" /><rect fill="#c7c9c3" height="35" width="35" x="252" y="36" /><rect fill="#dbddd8" height="35" width="35" x="288" y="36" /><rect fill="#cacdc7" height="35" width="35" x="324" y="36" /><rect fill="#414a44" height="35" width="35" x="360" y="36" /><rect fill="#364038" height="35" width="35" x="396" y="36" /><rect fill="#323935" height="35" width="35" x="432" y="36" /><rect fill="#363836" height="35" width="35" x="468" y="36" /><rect fill="#1b1f1c" height="35" width="35" x="504" y="36" /><rect fill="#121512" height="35" width="35" x="540" y="36" /><rect fill="#2c3029" height="35" width="35" x="0" y="72" /><rect fill="#2d3029" height="35" width="35" x="36" y="72" /><rect fill="#242721" height="35" width="35" x="72" y="72" /><rect fill="#232728" height="35" width="35" x="108" y="72" /><rect fill="#101211" height="35" width="35" x="144" y="72" /><rect fill="#acb1b1" height="35" width="35" x="180" y="72" /><rect fill="#fdfefc" height="35" width="35" x="216" y="72" /><rect fill="#fefff9" height="35" width="35" x="252" y="72" /><rect fill="#fbfbf7" height="35" width="35" x="288" y="72" /><rect fill="#fafaf8" height="35" width="35" x="324" y="72" /><rect fill="#d7d3ce" height="35" width="35" x="360" y="72" /><rect fill="#1c1d1d" height="35" width="35" x="396" y="72" /><rect fill="#0f1314" height="35" width="35" x="432" y="72" /><rect fill="#17181a" height="35" width="35" x="468" y="72" /><rect fill="#1a1d1c" height="35" width="35" x="504" y="72" /><rect fill="#121411" height="35" width="35" x="540" y="72" /><rect fill="#45463e" height="35" width="35" x="0" y="108" /><rect fill="#3c3b35" height="35" width="35" x="36" y="108" /><rect fill="#393d32" height="35" width="35" x="72" y="108" /><rect fill="#30332d" height="35" width="35" x="108" y="108" /><rect fill="#a4a8a7" height="35" width="35" x="144" y="108" /><rect fill="#f4f4f2" height="35" width="35" x="180" y="108" /><rect fill="#ffffff" height="35" width="35" x="216" y="108" /><rect fill="#ffffff" height="35" width="35" x="252" y="108" /><rect fill="#ffffff" height="35" width="35" x="288" y="108" /><rect fill="#f5f6f2" height="35" width="35" x="324" y="108" /><rect fill="#e9e8e2" height="35" width="35" x="360" y="108" /><rect fill="#1d201f" height="35" width="35" x="396" y="108" /><rect fill="#101211" height="35" width="35" x="432" y="108" /><rect fill="#121413" height="35" width="35" x="468" y="108" /><rect fill="#212423" height="35" width="35" x="504" y="108" /><rect fill="#151714" height="35" width="35" x="540" y="108" /><rect fill="#666969" height="35" width="35" x="0" y="144" /><rect fill="#3c4739" height="35" width="35" x="36" y="144" /><rect fill="#414d38" height="35" width="35" x="72" y="144" /><rect fill="#555d51" height="35" width="35" x="108" y="144" /><rect fill="#f6f7f5" height="35" width="35" x="144" y="144" /><rect fill="#fefefc" height="35" width="35" x="180" y="144" /><rect fill="#ffffff" height="35" width="35" x="216" y="144" /><rect fill="#ffffff" height="35" width="35" x="252" y="144" /><rect fill="#fbfefb" height="35" width="35" x="288" y="144" /><rect fill="#ededeb" height="35" width="35" x="324" y="144" /><rect fill="#e1ded9" height="35" width="35" x="360" y="144" /><rect fill="#a8a69e" height="35" width="35" x="396" y="144" /><rect fill="#0c100f" height="35" width="35" x="432" y="144" /><rect fill="#0e1110" height="35" width="35" x="468" y="144" /><rect fill="#2f3132" height="35" width="35" x="504" y="144" /><rect fill="#171c18" height="35" width="35" x="540" y="144" /><rect fill="#152c10" height="35" width="35" x="0" y="180" /><rect fill="#515b4a" height="35" width="35" x="36" y="180" /><rect fill="#314d2d" height="35" width="35" x="72" y="180" /><rect fill="#b8bcc3" height="35" width="35" x="108" y="180" /><rect fill="#edeee8" height="35" width="35" x="144" y="180" /><rect fill="#f2f4f3" height="35" width="35" x="180" y="180" /><rect fill="#f6f8f9" height="35" width="35" x="216" y="180" /><rect fill="#f4f6f4" height="35" width="35" x="252" y="180" /><rect fill="#e2e2de" height="35" width="35" x="288" y="180" /><rect fill="#e0e2df" height="35" width="35" x="324" y="180" /><rect fill="#dedbd7" height="35" width="35" x="360" y="180" /><rect fill="#bebdb4" height="35" width="35" x="396" y="180" /><rect fill="#676767" height="35" width="35" x="432" y="180" /><rect fill="#0b0f10" height="35" width="35" x="468" y="180" /><rect fill="#3b3e3b" height="35" width="35" x="504" y="180" /><rect fill="#1f211f" height="35" width="35" x="540" y="180" /><rect fill="#2a442b" height="35" width="35" x="0" y="216" /><rect fill="#546457" height="35" width="35" x="36" y="216" /><rect fill="#19241b" height="35" width="35" x="72" y="216" /><rect fill="#eaeced" height="35" width="35" x="108" y="216" /><rect fill="#f6f8fa" height="35" width="35" x="144" y="216" /><rect fill="#dadbe1" height="35" width="35" x="180" y="216" /><rect fill="#848689" height="35" width="35" x="216" y="216" /><rect fill="#dddede" height="35" width="35" x="252" y="216" /><rect fill="#c0c3c0" height="35" width="35" x="288" y="216" /><rect fill="#a4a4a2" height="35" width="35" x="324" y="216" /><rect fill="#c1beb8" height="35" width="35" x="360" y="216" /><rect fill="#c1c0ba" height="35" width="35" x="396" y="216" /><rect fill="#939391" height="35" width="35" x="432" y="216" /><rect fill="#97928a" height="35" width="35" x="468" y="216" /><rect fill="#717372" height="35" width="35" x="504" y="216" /><rect fill="#232522" height="35" width="35" x="540" y="216" /><rect fill="#395b2c" height="35" width="35" x="0" y="252" /><rect fill="#335132" height="35" width="35" x="36" y="252" /><rect fill="#171b1b" height="35" width="35" x="72" y="252" /><rect fill="#d1d4d2" height="35" width="35" x="108" y="252" /><rect fill="#d9dcde" height="35" width="35" x="144" y="252" /><rect fill="#21242c" height="35" width="35" x="180" y="252" /><rect fill="#a1a4ab" height="35" width="35" x="216" y="252" /><rect fill="#d8dada" height="35" width="35" x="252" y="252" /><rect fill="#96979a" height="35" width="35" x="288" y="252" /><rect fill="#21242c" height="35" width="35" x="324" y="252" /><rect fill="#b1b3af" height="35" width="35" x="360" y="252" /><rect fill="#b7b4ab" height="35" width="35" x="396" y="252" /><rect fill="#9b9998" height="35" width="35" x="432" y="252" /><rect fill="#747269" height="35" width="35" x="468" y="252" /><rect fill="#6b6a68" height="35" width="35" x="504" y="252" /><rect fill="#464743" height="35" width="35" x="540" y="252" /><rect fill="#537348" height="35" width="35" x="0" y="288" /><rect fill="#202325" height="35" width="35" x="36" y="288" /><rect fill="#151815" height="35" width="35" x="72" y="288" /><rect fill="#c5c7c4" height="35" width="35" x="108" y="288" /><rect fill="#bbbcbe" height="35" width="35" x="144" y="288" /><rect fill="#21242c" height="35" width="35" x="180" y="288" /><rect fill="#fbfcfe" height="35" width="35" x="216" y="288" /><rect fill="#dee0e6" height="35" width="35" x="252" y="288" /><rect fill="#bcbfc5" height="35" width="35" x="288" y="288" /><rect fill="#21242c" height="35" width="35" x="324" y="288" /><rect fill="#c4c5c6" height="35" width="35" x="360" y="288" /><rect fill="#98958e" height="35" width="35" x="396" y="288" /><rect fill="#8a8b87" height="35" width="35" x="432" y="288" /><rect fill="#31312f" height="35" width="35" x="468" y="288" /><rect fill="#121212" height="35" width="35" x="504" y="288" /><rect fill="#373834" height="35" width="35" x="540" y="288" /><rect fill="#262427" height="35" width="35" x="0" y="324" /><rect fill="#181a1b" height="35" width="35" x="36" y="324" /><rect fill="#161513" height="35" width="35" x="72" y="324" /><rect fill="#a4a6ac" height="35" width="35" x="108" y="324" /><rect fill="#c3c5c4" height="35" width="35" x="144" y="324" /><rect fill="#eef1f6" height="35" width="35" x="180" y="324" /><rect fill="#f5f8fd" height="35" width="35" x="216" y="324" /><rect fill="#c8ccd2" height="35" width="35" x="252" y="324" /><rect fill="#b4babe" height="35" width="35" x="288" y="324" /><rect fill="#21242c" height="35" width="35" x="324" y="324" /><rect fill="#b0b0ae" height="35" width="35" x="360" y="324" /><rect fill="#a09d98" height="35" width="35" x="396" y="324" /><rect fill="#5f5f5f" height="35" width="35" x="432" y="324" /><rect fill="#10120f" height="35" width="35" x="468" y="324" /><rect fill="#101211" height="35" width="35" x="504" y="324" /><rect fill="#1a1b1b" height="35" width="35" x="540" y="324" /><rect fill="#1b1d1d" height="35" width="35" x="0" y="360" /><rect fill="#161918" height="35" width="35" x="36" y="360" /><rect fill="#151716" height="35" width="35" x="72" y="360" /><rect fill="#272b2b" height="35" width="35" x="108" y="360" /><rect fill="#9ea4a2" height="35" width="35" x="144" y="360" /><rect fill="#e1e8ed" height="35" width="35" x="180" y="360" /><rect fill="#c2c8d4" height="35" width="35" x="216" y="360" /><rect fill="#b9bdc7" height="35" width="35" x="252" y="360" /><rect fill="#a5a9a9" height="35" width="35" x="288" y="360" /><rect fill="#a0a3a8" height="35" width="35" x="324" y="360" /><rect fill="#6a6964" height="35" width="35" x="360" y="360" /><rect fill="#7f7e7c" height="35" width="35" x="396" y="360" /><rect fill="#2b3031" height="35" width="35" x="432" y="360" /><rect fill="#121512" height="35" width="35" x="468" y="360" /><rect fill="#111410" height="35" width="35" x="504" y="360" /><rect fill="#141716" height="35" width="35" x="540" y="360" /><rect fill="#1c1d1d" height="35" width="35" x="0" y="396" /><rect fill="#161817" height="35" width="35" x="36" y="396" /><rect fill="#151714" height="35" width="35" x="72" y="396" /><rect fill="#151615" height="35" width="35" x="108" y="396" /><rect fill="#494b4a" height="35" width="35" x="144" y="396" /><rect fill="#a2a9b1" height="35" width="35" x="180" y="396" /><rect fill="#121312" height="35" width="35" x="216" y="396" /><rect fill="#161b1c" height="35" width="35" x="252" y="396" /><rect fill="#a6aab3" height="35" width="35" x="288" y="396" /><rect fill="#686c6a" height="35" width="35" x="324" y="396" /><rect fill="#4e524d" height="35" width="35" x="360" y="396" /><rect fill="#313635" height="35" width="35" x="396" y="396" /><rect fill="#111310" height="35" width="35" x="432" y="396" /><rect fill="#121411" height="35" width="35" x="468" y="396" /><rect fill="#121411" height="35" width="35" x="504" y="396" /><rect fill="#141616" height="35" width="35" x="540" y="396" /><rect fill="#161916" height="35" width="35" x="0" y="432" /><rect fill="#111411" height="35" width="35" x="36" y="432" /><rect fill="#141613" height="35" width="35" x="72" y="432" /><rect fill="#10100e" height="35" width="35" x="108" y="432" /><rect fill="#20201e" height="35" width="35" x="144" y="432" /><rect fill="#2c2d2f" height="35" width="35" x="180" y="432" /><rect fill="#525654" height="35" width="35" x="216" y="432" /><rect fill="#1f2420" height="35" width="35" x="252" y="432" /><rect fill="#2b2d28" height="35" width="35" x="288" y="432" /><rect fill="#303431" height="35" width="35" x="324" y="432" /><rect fill="#232623" height="35" width="35" x="360" y="432" /><rect fill="#0d100d" height="35" width="35" x="396" y="432" /><rect fill="#121411" height="35" width="35" x="432" y="432" /><rect fill="#121411" height="35" width="35" x="468" y="432" /><rect fill="#121411" height="35" width="35" x="504" y="432" /><rect fill="#141716" height="35" width="35" x="540" y="432" /><rect fill="#121512" height="35" width="35" x="0" y="468" /><rect fill="#0e100d" height="35" width="35" x="36" y="468" /><rect fill="#a3a7a3" height="35" width="35" x="72" y="468" /><rect fill="#8b847a" height="35" width="35" x="108" y="468" /><rect fill="#5c5c56" height="35" width="35" x="144" y="468" /><rect fill="#40403e" height="35" width="35" x="180" y="468" /><rect fill="#171a17" height="35" width="35" x="216" y="468" /><rect fill="#121513" height="35" width="35" x="252" y="468" /><rect fill="#111311" height="35" width="35" x="288" y="468" /><rect fill="#111310" height="35" width="35" x="324" y="468" /><rect fill="#121411" height="35" width="35" x="360" y="468" /><rect fill="#121411" height="35" width="35" x="396" y="468" /><rect fill="#121411" height="35" width="35" x="432" y="468" /><rect fill="#121411" height="35" width="35" x="468" y="468" /><rect fill="#121413" height="35" width="35" x="504" y="468" /><rect fill="#141615" height="35" width="35" x="540" y="468" /><rect fill="#353939" height="35" width="35" x="0" y="504" /><rect fill="#c1c1c4" height="35" width="35" x="36" y="504" /><rect fill="#b5aca3" height="35" width="35" x="72" y="504" /><rect fill="#988d89" height="35" width="35" x="108" y="504" /><rect fill="#565247" height="35" width="35" x="144" y="504" /><rect fill="#393937" height="35" width="35" x="180" y="504" /><rect fill="#121411" height="35" width="35" x="216" y="504" /><rect fill="#121411" height="35" width="35" x="252" y="504" /><rect fill="#121411" height="35" width="35" x="288" y="504" /><rect fill="#121411" height="35" width="35" x="324" y="504" /><rect fill="#121411" height="35" width="35" x="360" y="504" /><rect fill="#121411" height="35" width="35" x="396" y="504" /><rect fill="#121411" height="35" width="35" x="432" y="504" /><rect fill="#141613" height="35" width="35" x="468" y="504" /><rect fill="#121412" height="35" width="35" x="504" y="504" /><rect fill="#131514" height="35" width="35" x="540" y="504" /><rect fill="#373b3b" height="35" width="35" x="0" y="540" /><rect fill="#988e85" height="35" width="35" x="36" y="540" /><rect fill="#a18f83" height="35" width="35" x="72" y="540" /><rect fill="#7e7169" height="35" width="35" x="108" y="540" /><rect fill="#1f1d18" height="35" width="35" x="144" y="540" /><rect fill="#151513" height="35" width="35" x="180" y="540" /><rect fill="#121411" height="35" width="35" x="216" y="540" /><rect fill="#121411" height="35" width="35" x="252" y="540" /><rect fill="#121411" height="35" width="35" x="288" y="540" /><rect fill="#121411" height="35" width="35" x="324" y="540" /><rect fill="#121411" height="35" width="35" x="360" y="540" /><rect fill="#121411" height="35" width="35" x="396" y="540" /><rect fill="#141613" height="35" width="35" x="432" y="540" /><rect fill="#141613" height="35" width="35" x="468" y="540" /><rect fill="#161817" height="35" width="35" x="504" y="540" /><rect fill="#131514" height="35" width="35" x="540" y="540" /></svg>