<?xml version="1.0" encoding="utf-8" ?>
<svg baseProfile="tiny" height="575" version="1.2" width="575" xmlns="http://www.w3.org/2000/svg" xmlns:ev="http://www.w3.org/2001/xml-events" xmlns:xlink="http://www.w3.org/1999/xlink"><defs /><rect fill="#000000" height="35" width="35" x="0" y="0" /><rect fill="#000000" height="35" width="35" x="36" y="0" /><rect fill="#000000" height="35" width="35" x="72" y="0" /><rect fill="#000000" height="35" width="35" x="108" y="0" /><rect fill="#000000" height="35" width="35" x="144" y="0" /><rect fill="#000000" height="35" width="35" x="180" y="0" /><rect fill="#000000" height="35" width="35" x="216" y="0" /><rect fill="#000000" height="35" width="35" x="252" y="0" /><rect fill="#000000" height="35" width="35" x="288" y="0" /><rect fill="#000000" height="35" width="35" x="324" y="0" /><rect fill="#000000" height="35" width="35" x="360" y="0" /><rect fill="#000000" height="35" width="35" x="396" y="0" /><rect fill="#000000" height="35" width="35" x="432" y="0" /><rect fill="#000000" height="35" width="35" x="468" y="0" /><rect fill="#000000" height="35" width="35" x="504" y="0" /><rect fill="#000000" height="35" width="35" x="540" y="0" /><rect fill="#000000" height="35" width="35" x="0" y="36" /><rect fill="#000000" height="35" width="35" x="36" y="36" /><rect fill="#000000" height="35" width="35" x="72" y="36" /><rect fill="#000000" height="35" width="35" x="108" y="36" /><rect fill="#000000" height="35" width="35" x="144" y="36" /><rect fill="#000000" height="35" width="35" x="180" y="36" /><rect fill="#000000" height="35" width="35" x="216" y="36" /><rect fill="#000000" height="35" width="35" x="252" y="36" /><rect fill="#000000" height="35" width="35" x="288" y="36" /><rect fill="#000000" height="35" width="35" x="324" y="36" /><rect fill="#000000" height="35" width="35" x="360" y="36" /><rect fill="#000000" height="35" width="35" x="396" y="36" /><rect fill="#000000" height="35" width="35" x="432" y="36" /><rect fill="#000000" height="35" width="35" x="468" y="36" /><rect fill="#000000" height="35" width="35" x="504" y="36" /><rect fill="#000000" height="35" width="35" x="540" y="36" /><rect fill="#000000" height="35" width="35" x="0" y="72" /><rect fill="#000000" height="35" width="35" x="36" y="72" /><rect fill="#000000" height="35" width="35" x="72" y="72" /><rect fill="#000000" height="35" width="35" x="108" y="72" /><rect fill="#000000" height="35" width="35" x="144" y="72" /><rect fill="#000000" height="35" width="35" x="180" y="72" /><rect fill="#000000" height="35" width="35" x="216" y="72" /><rect fill="#000000" height="35" width="35" x="252" y="72" /><rect fill="#000000" height="35" width="35" x="288" y="72" /><rect fill="#000000" height="35" width="35" x="324" y="72" /><rect fill="#000000" height="35" width="35" x="360" y="72" /><rect fill="#000000" height="35" width="35" x="396" y="72" /><rect fill="#000000" height="35" width="35" x="432" y="72" /><rect fill="#000000" height="35" width="35" x="468" y="72" /><rect fill="#000000" height="35" width="35" x="504" y="72" /><rect fill="#000000" height="35" width="35" x="540" y="72" /><rect fill="#000000" height="35" width="35" x="0" y="108" /><rect fill="#000000" height="35" width="35" x="36" y="108" /><rect fill="#000000" height="35" width="35" x="72" y="108" /><rect fill="#000000" height="35" width="35" x="108" y="108" /><rect fill="#000000" height="35" width="35" x="144" y="108" /><rect fill="#000000" height="35" width="35" x="180" y="108" /><rect fill="#000000" height="35" width="35" x="216" y="108" /><rect fill="#000000" height="35" width="35" x="252" y="108" /><rect fill="#000000" height="35" width="35" x="288" y="108" /><rect fill="#000000" height="35" width="35" x="324" y="108" /><rect fill="#000000" height="35" width="35" x="360" y="108" /><rect fill="#000000" height="35" width="35" x="396" y="108" /><rect fill="#000000" height="35" width="35" x="432" y="108" /><rect fill="#000000" height="35" width="35" x="468" y="108" /><rect fill="#000000" height="35" width="35" x="504" y="108" /><rect fill="#000000" height="35" width="35" x="540" y="108" /><rect fill="#000000" height="35" width="35" x="0" y="144" /><rect fill="#000000" height="35" width="35" x="36" y="144" /><rect fill="#000000" height="35" width="35" x="72" y="144" /><rect fill="#000000" height="35" width="35" x="108" y="144" /><rect fill="#000000" height="35" width="35" x="144" y="144" /><rect fill="#000000" height="35" width="35" x="180" y="144" /><rect fill="#000000" height="35" width="35" x="216" y="144" /><rect fill="#000000" height="35" width="35" x="252" y="144" /><rect fill="#000000" height="35" width="35" x="288" y="144" /><rect fill="#000000" height="35" width="35" x="324" y="144" /><rect fill="#000000" height="35" width="35" x="360" y="144" /><rect fill="#000000" height="35" width="35" x="396" y="144" /><rect fill="#000000" height="35" width="35" x="432" y="144" /><rect fill="#000000" height="35" width="35" x="468" y="144" /><rect fill="#000000" height="35" width="35" x="504" y="144" /><rect fill="#000000" height="35" width="35" x="540" y="144" /><rect fill="#000000" height="35" width="35" x="0" y="180" /><rect fill="#000000" height="35" width="35" x="36" y="180" /><rect fill="#000000" height="35" width="35" x="72" y="180" /><rect fill="#000000" height="35" width="35" x="108" y="180" /><rect fill="#000000" height="35" width="35" x="144" y="180" /><rect fill="#000000" height="35" width="35" x="180" y="180" /><rect fill="#000000" height="35" width="35" x="216" y="180" /><rect fill="#000000" height="35" width="35" x="252" y="180" /><rect fill="#000000" height="35" width="35" x="288" y="180" /><rect fill="#000000" height="35" width="35" x="324" y="180" /><rect fill="#000000" height="35" width="35" x="360" y="180" /><rect fill="#000000" height="35" width="35" x="396" y="180" /><rect fill="#000000" height="35" width="35" x="432" y="180" /><rect fill="#000000" height="35" width="35" x="468" y="180" /><rect fill="#000000" height="35" width="35" x="504" y="180" /><rect fill="#000000" height="35" width="35" x="540" y="180" /><rect fill="#000000" height="35" width="35" x="0" y="216" /><rect fill="#000000" height="35" width="35" x="36" y="216" /><rect fill="#0442b4" height="35" width="35" x="72" y="216" /><rect fill="#000000" height="35" width="35" x="108" y="216" /><rect fill="#000000" height="35" width="35" x="144" y="216" /><rect fill="#000000" height="35" width="35" x="180" y="216" /><rect fill="#0442b4" height="35" width="35" x="216" y="216" /><rect fill="#0456bc" height="35" width="35" x="252" y="216" /><rect fill="#0456be" height="35" width="35" x="288" y="216" /><rect fill="#0451bc" height="35" width="35" x="324" y="216" /><rect fill="#000000" height="35" width="35" x="360" y="216" /><rect fill="#000000" height="35" width="35" x="396" y="216" /><rect fill="#000000" height="35" width="35" x="432" y="216" /><rect fill="#000000" height="35" width="35" x="468" y="216" /><rect fill="#000000" height="35" width="35" x="504" y="216" /><rect fill="#000000" height="35" width="35" x="540" y="216" /><rect fill="#000000" height="35" width="35" x="0" y="252" /><rect fill="#000000" height="35" width="35" x="36" y="252" /><rect fill="#0442b4" height="35" width="35" x="72" y="252" /><rect fill="#000000" height="35" width="35" x="108" y="252" /><rect fill="#000000" height="35" width="35" x="144" y="252" /><rect fill="#0442b4" height="35" width="35" x="180" y="252" /><rect fill="#0473cc" height="35" width="35" x="216" y="252" /><rect fill="#0c8cd4" height="35" width="35" x="252" y="252" /><rect fill="#189ede" height="35" width="35" x="288" y="252" /><rect fill="#047ad0" height="35" width="35" x="324" y="252" /><rect fill="#045fc2" height="35" width="35" x="360" y="252" /><rect fill="#044fbc" height="35" width="35" x="396" y="252" /><rect fill="#044dba" height="35" width="35" x="432" y="252" /><rect fill="#000000" height="35" width="35" x="468" y="252" /><rect fill="#000000" height="35" width="35" x="504" y="252" /><rect fill="#000000" height="35" width="35" x="540" y="252" /><rect fill="#000000" height="35" width="35" x="0" y="288" /><rect fill="#000000" height="35" width="35" x="36" y="288" /><rect fill="#0452bc" height="35" width="35" x="72" y="288" /><rect fill="#000000" height="35" width="35" x="108" y="288" /><rect fill="#000000" height="35" width="35" x="144" y="288" /><rect fill="#0446b4" height="35" width="35" x="180" y="288" /><rect fill="#0470cc" height="35" width="35" x="216" y="288" /><rect fill="#22a9e4" height="35" width="35" x="252" y="288" /><rect fill="#3cc0ec" height="35" width="35" x="288" y="288" /><rect fill="#2ab1e4" height="35" width="35" x="324" y="288" /><rect fill="#0c8dd6" height="35" width="35" x="360" y="288" /><rect fill="#046ac8" height="35" width="35" x="396" y="288" /><rect fill="#0456bc" height="35" width="35" x="432" y="288" /><rect fill="#0442b4" height="35" width="35" x="468" y="288" /><rect fill="#000000" height="35" width="35" x="504" y="288" /><rect fill="#000000" height="35" width="35" x="540" y="288" /><rect fill="#000000" height="35" width="35" x="0" y="324" /><rect fill="#0442b4" height="35" width="35" x="36" y="324" /><rect fill="#047bce" height="35" width="35" x="72" y="324" /><rect fill="#0475cc" height="35" width="35" x="108" y="324" /><rect fill="#0447b6" height="35" width="35" x="144" y="324" /><rect fill="#000000" height="35" width="35" x="180" y="324" /><rect fill="#0455bc" height="35" width="35" x="216" y="324" /><rect fill="#087ed0" height="35" width="35" x="252" y="324" /><rect fill="#0e8fd6" height="35" width="35" x="288" y="324" /><rect fill="#0c8cd6" height="35" width="35" x="324" y="324" /><rect fill="#0478ce" height="35" width="35" x="360" y="324" /><rect fill="#045dc2" height="35" width="35" x="396" y="324" /><rect fill="#044ab8" height="35" width="35" x="432" y="324" /><rect fill="#0447b6" height="35" width="35" x="468" y="324" /><rect fill="#000000" height="35" width="35" x="504" y="324" /><rect fill="#000000" height="35" width="35" x="540" y="324" /><rect fill="#000000" height="35" width="35" x="0" y="360" /><rect fill="#045dc2" height="35" width="35" x="36" y="360" /><rect fill="#1aa1e0" height="35" width="35" x="72" y="360" /><rect fill="#0c85d4" height="35" width="35" x="108" y="360" /><rect fill="#045bc0" height="35" width="35" x="144" y="360" /><rect fill="#0464c4" height="35" width="35" x="180" y="360" /><rect fill="#047cd0" height="35" width="35" x="216" y="360" /><rect fill="#046cca" height="35" width="35" x="252" y="360" /><rect fill="#0c83d4" height="35" width="35" x="288" y="360" /><rect fill="#046ecc" height="35" width="35" x="324" y="360" /><rect fill="#046fcc" height="35" width="35" x="360" y="360" /><rect fill="#0473cc" height="35" width="35" x="396" y="360" /><rect fill="#24aee4" height="35" width="35" x="432" y="360" /><rect fill="#0e92da" height="35" width="35" x="468" y="360" /><rect fill="#0442b4" height="35" width="35" x="504" y="360" /><rect fill="#000000" height="35" width="35" x="540" y="360" /><rect fill="#000000" height="35" width="35" x="0" y="396" /><rect fill="#067dd0" height="35" width="35" x="36" y="396" /><rect fill="#1092d8" height="35" width="35" x="72" y="396" /><rect fill="#20a7e2" height="35" width="35" x="108" y="396" /><rect fill="#3abdec" height="35" width="35" x="144" y="396" /><rect fill="#70d9f4" height="35" width="35" x="180" y="396" /><rect fill="#0c85d4" height="35" width="35" x="216" y="396" /><rect fill="#047cd0" height="35" width="35" x="252" y="396" /><rect fill="#0e92da" height="35" width="35" x="288" y="396" /><rect fill="#067ed2" height="35" width="35" x="324" y="396" /><rect fill="#0a80d2" height="35" width="35" x="360" y="396" /><rect fill="#0c90d8" height="35" width="35" x="396" y="396" /><rect fill="#60d3f2" height="35" width="35" x="432" y="396" /><rect fill="#fcfefc" height="35" width="35" x="468" y="396" /><rect fill="#76dbf4" height="35" width="35" x="504" y="396" /><rect fill="#045ec2" height="35" width="35" x="540" y="396" /><rect fill="#0457c0" height="35" width="35" x="0" y="432" /><rect fill="#0c86d4" height="35" width="35" x="36" y="432" /><rect fill="#2cb2e4" height="35" width="35" x="72" y="432" /><rect fill="#48c8ec" height="35" width="35" x="108" y="432" /><rect fill="#20a8e2" height="35" width="35" x="144" y="432" /><rect fill="#0a81d2" height="35" width="35" x="180" y="432" /><rect fill="#0465c4" height="35" width="35" x="216" y="432" /><rect fill="#0463c4" height="35" width="35" x="252" y="432" /><rect fill="#24ace4" height="35" width="35" x="288" y="432" /><rect fill="#fcfefc" height="35" width="35" x="324" y="432" /><rect fill="#fcfefc" height="35" width="35" x="360" y="432" /><rect fill="#fcfefc" height="35" width="35" x="396" y="432" /><rect fill="#fcfefc" height="35" width="35" x="432" y="432" /><rect fill="#38bcec" height="35" width="35" x="468" y="432" /><rect fill="#38bcea" height="35" width="35" x="504" y="432" /><rect fill="#045ec0" height="35" width="35" x="540" y="432" /><rect fill="#000000" height="35" width="35" x="0" y="468" /><rect fill="#0c89d4" height="35" width="35" x="36" y="468" /><rect fill="#22aae4" height="35" width="35" x="72" y="468" /><rect fill="#fcfefc" height="35" width="35" x="108" y="468" /><rect fill="#fcfefc" height="35" width="35" x="144" y="468" /><rect fill="#3cbeec" height="35" width="35" x="180" y="468" /><rect fill="#0458be" height="35" width="35" x="216" y="468" /><rect fill="#1ea5e0" height="35" width="35" x="252" y="468" /><rect fill="#fcfefc" height="35" width="35" x="288" y="468" /><rect fill="#fcfefc" height="35" width="35" x="324" y="468" /><rect fill="#fcfefc" height="35" width="35" x="360" y="468" /><rect fill="#fcfefc" height="35" width="35" x="396" y="468" /><rect fill="#fcfefc" height="35" width="35" x="432" y="468" /><rect fill="#28b0e4" height="35" width="35" x="468" y="468" /><rect fill="#fcfefc" height="35" width="35" x="504" y="468" /><rect fill="#0c8ad4" height="35" width="35" x="540" y="468" /><rect fill="#1ca2e0" height="35" width="35" x="0" y="504" /><rect fill="#1aa2e0" height="35" width="35" x="36" y="504" /><rect fill="#e4fafc" height="35" width="35" x="72" y="504" /><rect fill="#7addf4" height="35" width="35" x="108" y="504" /><rect fill="#e4fafc" height="35" width="35" x="144" y="504" /><rect fill="#26afe4" height="35" width="35" x="180" y="504" /><rect fill="#1ca1de" height="35" width="35" x="216" y="504" /><rect fill="#fcfefc" height="35" width="35" x="252" y="504" /><rect fill="#fcfefc" height="35" width="35" x="288" y="504" /><rect fill="#fcfefc" height="35" width="35" x="324" y="504" /><rect fill="#fcfefc" height="35" width="35" x="360" y="504" /><rect fill="#94e4f4" height="35" width="35" x="396" y="504" /><rect fill="#1ca0de" height="35" width="35" x="432" y="504" /><rect fill="#169bdc" height="35" width="35" x="468" y="504" /><rect fill="#24ace4" height="35" width="35" x="504" y="504" /><rect fill="#045abe" height="35" width="35" x="540" y="504" /><rect fill="#000000" height="35" width="35" x="0" y="540" /><rect fill="#0c90d8" height="35" width="35" x="36" y="540" /><rect fill="#f4fafc" height="35" width="35" x="72" y="540" /><rect fill="#0477ce" height="35" width="35" x="108" y="540" /><rect fill="#0467c8" height="35" width="35" x="144" y="540" /><rect fill="#0474cc" height="35" width="35" x="180" y="540" /><rect fill="#fcfefc" height="35" width="35" x="216" y="540" /><rect fill="#fcfefc" height="35" width="35" x="252" y="540" /><rect fill="#fcfefc" height="35" width="35" x="288" y="540" /><rect fill="#b4eefc" height="35" width="35" x="324" y="540" /><rect fill="#54caec" height="35" width="35" x="360" y="540" /><rect fill="#9ce6f4" height="35" width="35" x="396" y="540" /><rect fill="#1295dc" height="35" width="35" x="432" y="540" /><rect fill="#fcfefc" height="35" width="35" x="468" y="540" /><rect fill="#fcfefc" height="35" width="35" x="504" y="540" /><rect fill="#8ee3f4" height="35" width="35" x="540" y="540" /></svg>