<?xml version="1.0" encoding="utf-8" ?>
<svg baseProfile="tiny" height="575" version="1.2" width="575" xmlns="http://www.w3.org/2000/svg" xmlns:ev="http://www.w3.org/2001/xml-events" xmlns:xlink="http://www.w3.org/1999/xlink"><defs /><rect fill="#000000" height="35" width="35" x="0" y="0" /><rect fill="#000000" height="35" width="35" x="36" y="0" /><rect fill="#000000" height="35" width="35" x="72" y="0" /><rect fill="#000000" height="35" width="35" x="108" y="0" /><rect fill="#000000" height="35" width="35" x="144" y="0" /><rect fill="#000000" height="35" width="35" x="180" y="0" /><rect fill="#000000" height="35" width="35" x="216" y="0" /><rect fill="#000000" height="35" width="35" x="252" y="0" /><rect fill="#000000" height="35" width="35" x="288" y="0" /><rect fill="#000000" height="35" width="35" x="324" y="0" /><rect fill="#000000" height="35" width="35" x="360" y="0" /><rect fill="#000000" height="35" width="35" x="396" y="0" /><rect fill="#000000" height="35" width="35" x="432" y="0" /><rect fill="#000000" height="35" width="35" x="468" y="0" /><rect fill="#000000" height="35" width="35" x="504" y="0" /><rect fill="#000000" height="35" width="35" x="540" y="0" /><rect fill="#000000" height="35" width="35" x="0" y="36" /><rect fill="#000000" height="35" width="35" x="36" y="36" /><rect fill="#000000" height="35" width="35" x="72" y="36" /><rect fill="#000000" height="35" width="35" x="108" y="36" /><rect fill="#000000" height="35" width="35" x="144" y="36" /><rect fill="#000000" height="35" width="35" x="180" y="36" /><rect fill="#000000" height="35" width="35" x="216" y="36" /><rect fill="#000000" height="35" width="35" x="252" y="36" /><rect fill="#000000" height="35" width="35" x="288" y="36" /><rect fill="#000000" height="35" width="35" x="324" y="36" /><rect fill="#000000" height="35" width="35" x="360" y="36" /><rect fill="#000000" height="35" width="35" x="396" y="36" /><rect fill="#000000" height="35" width="35" x="432" y="36" /><rect fill="#000000" height="35" width="35" x="468" y="36" /><rect fill="#000000" height="35" width="35" x="504" y="36" /><rect fill="#000000" height="35" width="35" x="540" y="36" /><rect fill="#000000" height="35" width="35" x="0" y="72" /><rect fill="#000000" height="35" width="35" x="36" y="72" /><rect fill="#000000" height="35" width="35" x="72" y="72" /><rect fill="#000000" height="35" width="35" x="108" y="72" /><rect fill="#000000" height="35" width="35" x="144" y="72" /><rect fill="#000000" height="35" width="35" x="180" y="72" /><rect fill="#000000" height="35" width="35" x="216" y="72" /><rect fill="#000000" height="35" width="35" x="252" y="72" /><rect fill="#000000" height="35" width="35" x="288" y="72" /><rect fill="#000000" height="35" width="35" x="324" y="72" /><rect fill="#000000" height="35" width="35" x="360" y="72" /><rect fill="#000000" height="35" width="35" x="396" y="72" /><rect fill="#000000" height="35" width="35" x="432" y="72" /><rect fill="#000000" height="35" width="35" x="468" y="72" /><rect fill="#000000" height="35" width="35" x="504" y="72" /><rect fill="#000000" height="35" width="35" x="540" y="72" /><rect fill="#000000" height="35" width="35" x="0" y="108" /><rect fill="#000000" height="35" width="35" x="36" y="108" /><rect fill="#000000" height="35" width="35" x="72" y="108" /><rect fill="#000000" height="35" width="35" x="108" y="108" /><rect fill="#000000" height="35" width="35" x="144" y="108" /><rect fill="#000000" height="35" width="35" x="180" y="108" /><rect fill="#000000" height="35" width="35" x="216" y="108" /><rect fill="#0443b4" height="35" width="35" x="252" y="108" /><rect fill="#0449b6" height="35" width="35" x="288" y="108" /><rect fill="#000000" height="35" width="35" x="324" y="108" /><rect fill="#000000" height="35" width="35" x="360" y="108" /><rect fill="#000000" height="35" width="35" x="396" y="108" /><rect fill="#000000" height="35" width="35" x="432" y="108" /><rect fill="#000000" height="35" width="35" x="468" y="108" /><rect fill="#000000" height="35" width="35" x="504" y="108" /><rect fill="#000000" height="35" width="35" x="540" y="108" /><rect fill="#000000" height="35" width="35" x="0" y="144" /><rect fill="#000000" height="35" width="35" x="36" y="144" /><rect fill="#000000" height="35" width="35" x="72" y="144" /><rect fill="#000000" height="35" width="35" x="108" y="144" /><rect fill="#000000" height="35" width="35" x="144" y="144" /><rect fill="#000000" height="35" width="35" x="180" y="144" /><rect fill="#0442b4" height="35" width="35" x="216" y="144" /><rect fill="#045ac0" height="35" width="35" x="252" y="144" /><rect fill="#0463c4" height="35" width="35" x="288" y="144" /><rect fill="#045ac0" height="35" width="35" x="324" y="144" /><rect fill="#044ab8" height="35" width="35" x="360" y="144" /><rect fill="#000000" height="35" width="35" x="396" y="144" /><rect fill="#000000" height="35" width="35" x="432" y="144" /><rect fill="#000000" height="35" width="35" x="468" y="144" /><rect fill="#000000" height="35" width="35" x="504" y="144" /><rect fill="#000000" height="35" width="35" x="540" y="144" /><rect fill="#000000" height="35" width="35" x="0" y="180" /><rect fill="#000000" height="35" width="35" x="36" y="180" /><rect fill="#000000" height="35" width="35" x="72" y="180" /><rect fill="#000000" height="35" width="35" x="108" y="180" /><rect fill="#000000" height="35" width="35" x="144" y="180" /><rect fill="#000000" height="35" width="35" x="180" y="180" /><rect fill="#000000" height="35" width="35" x="216" y="180" /><rect fill="#0452bc" height="35" width="35" x="252" y="180" /><rect fill="#045cc2" height="35" width="35" x="288" y="180" /><rect fill="#045ac0" height="35" width="35" x="324" y="180" /><rect fill="#044dba" height="35" width="35" x="360" y="180" /><rect fill="#000000" height="35" width="35" x="396" y="180" /><rect fill="#000000" height="35" width="35" x="432" y="180" /><rect fill="#000000" height="35" width="35" x="468" y="180" /><rect fill="#000000" height="35" width="35" x="504" y="180" /><rect fill="#000000" height="35" width="35" x="540" y="180" /><rect fill="#000000" height="35" width="35" x="0" y="216" /><rect fill="#000000" height="35" width="35" x="36" y="216" /><rect fill="#044ab8" height="35" width="35" x="72" y="216" /><rect fill="#0446b4" height="35" width="35" x="108" y="216" /><rect fill="#000000" height="35" width="35" x="144" y="216" /><rect fill="#000000" height="35" width="35" x="180" y="216" /><rect fill="#0442b4" height="35" width="35" x="216" y="216" /><rect fill="#0448b6" height="35" width="35" x="252" y="216" /><rect fill="#0452bc" height="35" width="35" x="288" y="216" /><rect fill="#044eba" height="35" width="35" x="324" y="216" /><rect fill="#0448b6" height="35" width="35" x="360" y="216" /><rect fill="#0446b4" height="35" width="35" x="396" y="216" /><rect fill="#044cb8" height="35" width="35" x="432" y="216" /><rect fill="#000000" height="35" width="35" x="468" y="216" /><rect fill="#000000" height="35" width="35" x="504" y="216" /><rect fill="#000000" height="35" width="35" x="540" y="216" /><rect fill="#000000" height="35" width="35" x="0" y="252" /><rect fill="#000000" height="35" width="35" x="36" y="252" /><rect fill="#0452bc" height="35" width="35" x="72" y="252" /><rect fill="#045ac0" height="35" width="35" x="108" y="252" /><rect fill="#045ec4" height="35" width="35" x="144" y="252" /><rect fill="#0460c4" height="35" width="35" x="180" y="252" /><rect fill="#044fb8" height="35" width="35" x="216" y="252" /><rect fill="#044db8" height="35" width="35" x="252" y="252" /><rect fill="#0452bc" height="35" width="35" x="288" y="252" /><rect fill="#044fba" height="35" width="35" x="324" y="252" /><rect fill="#044fba" height="35" width="35" x="360" y="252" /><rect fill="#0457be" height="35" width="35" x="396" y="252" /><rect fill="#046cc8" height="35" width="35" x="432" y="252" /><rect fill="#0474cc" height="35" width="35" x="468" y="252" /><rect fill="#0452bc" height="35" width="35" x="504" y="252" /><rect fill="#000000" height="35" width="35" x="540" y="252" /><rect fill="#000000" height="35" width="35" x="0" y="288" /><rect fill="#0446b4" height="35" width="35" x="36" y="288" /><rect fill="#0462c4" height="35" width="35" x="72" y="288" /><rect fill="#046dca" height="35" width="35" x="108" y="288" /><rect fill="#046ac6" height="35" width="35" x="144" y="288" /><rect fill="#045ac0" height="35" width="35" x="180" y="288" /><rect fill="#044dba" height="35" width="35" x="216" y="288" /><rect fill="#044aba" height="35" width="35" x="252" y="288" /><rect fill="#0461c4" height="35" width="35" x="288" y="288" /><rect fill="#0a80d2" height="35" width="35" x="324" y="288" /><rect fill="#149adc" height="35" width="35" x="360" y="288" /><rect fill="#56ceec" height="35" width="35" x="396" y="288" /><rect fill="#1498dc" height="35" width="35" x="432" y="288" /><rect fill="#087cd0" height="35" width="35" x="468" y="288" /><rect fill="#0463c4" height="35" width="35" x="504" y="288" /><rect fill="#000000" height="35" width="35" x="540" y="288" /><rect fill="#000000" height="35" width="35" x="0" y="324" /><rect fill="#044ab8" height="35" width="35" x="36" y="324" /><rect fill="#046bc8" height="35" width="35" x="72" y="324" /><rect fill="#1499dc" height="35" width="35" x="108" y="324" /><rect fill="#34b8e8" height="35" width="35" x="144" y="324" /><rect fill="#0470ca" height="35" width="35" x="180" y="324" /><rect fill="#044bb8" height="35" width="35" x="216" y="324" /><rect fill="#0468c8" height="35" width="35" x="252" y="324" /><rect fill="#44c4ec" height="35" width="35" x="288" y="324" /><rect fill="#56cdec" height="35" width="35" x="324" y="324" /><rect fill="#72d9f4" height="35" width="35" x="360" y="324" /><rect fill="#44c3ec" height="35" width="35" x="396" y="324" /><rect fill="#22aae4" height="35" width="35" x="432" y="324" /><rect fill="#087fd0" height="35" width="35" x="468" y="324" /><rect fill="#0474cc" height="35" width="35" x="504" y="324" /><rect fill="#000000" height="35" width="35" x="540" y="324" /><rect fill="#000000" height="35" width="35" x="0" y="360" /><rect fill="#0458c0" height="35" width="35" x="36" y="360" /><rect fill="#0c85d4" height="35" width="35" x="72" y="360" /><rect fill="#1498dc" height="35" width="35" x="108" y="360" /><rect fill="#149cdc" height="35" width="35" x="144" y="360" /><rect fill="#047ace" height="35" width="35" x="180" y="360" /><rect fill="#0476cc" height="35" width="35" x="216" y="360" /><rect fill="#84def4" height="35" width="35" x="252" y="360" /><rect fill="#fcfefc" height="35" width="35" x="288" y="360" /><rect fill="#fcfefc" height="35" width="35" x="324" y="360" /><rect fill="#fcfefc" height="35" width="35" x="360" y="360" /><rect fill="#30b6e6" height="35" width="35" x="396" y="360" /><rect fill="#0a80d2" height="35" width="35" x="432" y="360" /><rect fill="#0473cc" height="35" width="35" x="468" y="360" /><rect fill="#0463c4" height="35" width="35" x="504" y="360" /><rect fill="#000000" height="35" width="35" x="540" y="360" /><rect fill="#000000" height="35" width="35" x="0" y="396" /><rect fill="#045dc2" height="35" width="35" x="36" y="396" /><rect fill="#0c82d4" height="35" width="35" x="72" y="396" /><rect fill="#046dca" height="35" width="35" x="108" y="396" /><rect fill="#0460c4" height="35" width="35" x="144" y="396" /><rect fill="#0468c8" height="35" width="35" x="180" y="396" /><rect fill="#2ab1e4" height="35" width="35" x="216" y="396" /><rect fill="#8ce2f4" height="35" width="35" x="252" y="396" /><rect fill="#8ce2f4" height="35" width="35" x="288" y="396" /><rect fill="#68d4f2" height="35" width="35" x="324" y="396" /><rect fill="#36bae8" height="35" width="35" x="360" y="396" /><rect fill="#1aa2e0" height="35" width="35" x="396" y="396" /><rect fill="#0c83d4" height="35" width="35" x="432" y="396" /><rect fill="#72d9f4" height="35" width="35" x="468" y="396" /><rect fill="#a6eafc" height="35" width="35" x="504" y="396" /><rect fill="#0452bc" height="35" width="35" x="540" y="396" /><rect fill="#000000" height="35" width="35" x="0" y="432" /><rect fill="#42c1ec" height="35" width="35" x="36" y="432" /><rect fill="#1ca5e2" height="35" width="35" x="72" y="432" /><rect fill="#0c90d8" height="35" width="35" x="108" y="432" /><rect fill="#0450ba" height="35" width="35" x="144" y="432" /><rect fill="#0450ba" height="35" width="35" x="180" y="432" /><rect fill="#0462c4" height="35" width="35" x="216" y="432" /><rect fill="#047ace" height="35" width="35" x="252" y="432" /><rect fill="#0c8cd4" height="35" width="35" x="288" y="432" /><rect fill="#169fde" height="35" width="35" x="324" y="432" /><rect fill="#1295dc" height="35" width="35" x="360" y="432" /><rect fill="#189ddc" height="35" width="35" x="396" y="432" /><rect fill="#fcfefc" height="35" width="35" x="432" y="432" /><rect fill="#5ed0ee" height="35" width="35" x="468" y="432" /><rect fill="#30b6e4" height="35" width="35" x="504" y="432" /><rect fill="#0445b4" height="35" width="35" x="540" y="432" /><rect fill="#fcfefc" height="35" width="35" x="0" y="468" /><rect fill="#2cb2e4" height="35" width="35" x="36" y="468" /><rect fill="#2cb5e4" height="35" width="35" x="72" y="468" /><rect fill="#4ccaec" height="35" width="35" x="108" y="468" /><rect fill="#5ed0ee" height="35" width="35" x="144" y="468" /><rect fill="#def8fc" height="35" width="35" x="180" y="468" /><rect fill="#067dd0" height="35" width="35" x="216" y="468" /><rect fill="#0466c6" height="35" width="35" x="252" y="468" /><rect fill="#0466c8" height="35" width="35" x="288" y="468" /><rect fill="#26afe4" height="35" width="35" x="324" y="468" /><rect fill="#fcfefc" height="35" width="35" x="360" y="468" /><rect fill="#fcfefc" height="35" width="35" x="396" y="468" /><rect fill="#ccf2fc" height="35" width="35" x="432" y="468" /><rect fill="#fcfefc" height="35" width="35" x="468" y="468" /><rect fill="#fcfefc" height="35" width="35" x="504" y="468" /><rect fill="#fcfefc" height="35" width="35" x="540" y="468" /><rect fill="#0c8ed4" height="35" width="35" x="0" y="504" /><rect fill="#fcfefc" height="35" width="35" x="36" y="504" /><rect fill="#3abcea" height="35" width="35" x="72" y="504" /><rect fill="#087dd0" height="35" width="35" x="108" y="504" /><rect fill="#1ea7e4" height="35" width="35" x="144" y="504" /><rect fill="#0c88d4" height="35" width="35" x="180" y="504" /><rect fill="#24aee4" height="35" width="35" x="216" y="504" /><rect fill="#fcfefc" height="35" width="35" x="252" y="504" /><rect fill="#fcfefc" height="35" width="35" x="288" y="504" /><rect fill="#fcfefc" height="35" width="35" x="324" y="504" /><rect fill="#fcfefc" height="35" width="35" x="360" y="504" /><rect fill="#fcfefc" height="35" width="35" x="396" y="504" /><rect fill="#fcfefc" height="35" width="35" x="432" y="504" /><rect fill="#8ae1f4" height="35" width="35" x="468" y="504" /><rect fill="#acecfc" height="35" width="35" x="504" y="504" /><rect fill="#087fd2" height="35" width="35" x="540" y="504" /><rect fill="#0450bc" height="35" width="35" x="0" y="540" /><rect fill="#047cd0" height="35" width="35" x="36" y="540" /><rect fill="#0467c6" height="35" width="35" x="72" y="540" /><rect fill="#0454bc" height="35" width="35" x="108" y="540" /><rect fill="#1498dc" height="35" width="35" x="144" y="540" /><rect fill="#1499dc" height="35" width="35" x="180" y="540" /><rect fill="#0c83d4" height="35" width="35" x="216" y="540" /><rect fill="#aaebfc" height="35" width="35" x="252" y="540" /><rect fill="#fcfefc" height="35" width="35" x="288" y="540" /><rect fill="#fcfefc" height="35" width="35" x="324" y="540" /><rect fill="#a0e8fa" height="35" width="35" x="360" y="540" /><rect fill="#fcfefc" height="35" width="35" x="396" y="540" /><rect fill="#fcfefc" height="35" width="35" x="432" y="540" /><rect fill="#067ed2" height="35" width="35" x="468" y="540" /><rect fill="#0a80d2" height="35" width="35" x="504" y="540" /><rect fill="#86dff4" height="35" width="35" x="540" y="540" /></svg>