<?xml version="1.0" encoding="utf-8" ?>
<svg baseProfile="tiny" height="575" version="1.2" width="575" xmlns="http://www.w3.org/2000/svg" xmlns:ev="http://www.w3.org/2001/xml-events" xmlns:xlink="http://www.w3.org/1999/xlink"><defs /><rect fill="#000000" height="35" width="35" x="0" y="0" /><rect fill="#000000" height="35" width="35" x="36" y="0" /><rect fill="#000000" height="35" width="35" x="72" y="0" /><rect fill="#000000" height="35" width="35" x="108" y="0" /><rect fill="#000000" height="35" width="35" x="144" y="0" /><rect fill="#000000" height="35" width="35" x="180" y="0" /><rect fill="#000000" height="35" width="35" x="216" y="0" /><rect fill="#000000" height="35" width="35" x="252" y="0" /><rect fill="#000000" height="35" width="35" x="288" y="0" /><rect fill="#000000" height="35" width="35" x="324" y="0" /><rect fill="#000000" height="35" width="35" x="360" y="0" /><rect fill="#000000" height="35" width="35" x="396" y="0" /><rect fill="#000000" height="35" width="35" x="432" y="0" /><rect fill="#000000" height="35" width="35" x="468" y="0" /><rect fill="#000000" height="35" width="35" x="504" y="0" /><rect fill="#000000" height="35" width="35" x="540" y="0" /><rect fill="#000000" height="35" width="35" x="0" y="36" /><rect fill="#000000" height="35" width="35" x="36" y="36" /><rect fill="#000000" height="35" width="35" x="72" y="36" /><rect fill="#000000" height="35" width="35" x="108" y="36" /><rect fill="#000000" height="35" width="35" x="144" y="36" /><rect fill="#000000" height="35" width="35" x="180" y="36" /><rect fill="#000000" height="35" width="35" x="216" y="36" /><rect fill="#000000" height="35" width="35" x="252" y="36" /><rect fill="#000000" height="35" width="35" x="288" y="36" /><rect fill="#0442b4" height="35" width="35" x="324" y="36" /><rect fill="#0443b4" height="35" width="35" x="360" y="36" /><rect fill="#000000" height="35" width="35" x="396" y="36" /><rect fill="#000000" height="35" width="35" x="432" y="36" /><rect fill="#000000" height="35" width="35" x="468" y="36" /><rect fill="#000000" height="35" width="35" x="504" y="36" /><rect fill="#000000" height="35" width="35" x="540" y="36" /><rect fill="#000000" height="35" width="35" x="0" y="72" /><rect fill="#000000" height="35" width="35" x="36" y="72" /><rect fill="#000000" height="35" width="35" x="72" y="72" /><rect fill="#000000" height="35" width="35" x="108" y="72" /><rect fill="#000000" height="35" width="35" x="144" y="72" /><rect fill="#000000" height="35" width="35" x="180" y="72" /><rect fill="#000000" height="35" width="35" x="216" y="72" /><rect fill="#000000" height="35" width="35" x="252" y="72" /><rect fill="#0446b4" height="35" width="35" x="288" y="72" /><rect fill="#044ab6" height="35" width="35" x="324" y="72" /><rect fill="#0448b4" height="35" width="35" x="360" y="72" /><rect fill="#000000" height="35" width="35" x="396" y="72" /><rect fill="#000000" height="35" width="35" x="432" y="72" /><rect fill="#000000" height="35" width="35" x="468" y="72" /><rect fill="#000000" height="35" width="35" x="504" y="72" /><rect fill="#000000" height="35" width="35" x="540" y="72" /><rect fill="#000000" height="35" width="35" x="0" y="108" /><rect fill="#000000" height="35" width="35" x="36" y="108" /><rect fill="#000000" height="35" width="35" x="72" y="108" /><rect fill="#000000" height="35" width="35" x="108" y="108" /><rect fill="#000000" height="35" width="35" x="144" y="108" /><rect fill="#000000" height="35" width="35" x="180" y="108" /><rect fill="#000000" height="35" width="35" x="216" y="108" /><rect fill="#000000" height="35" width="35" x="252" y="108" /><rect fill="#0441b4" height="35" width="35" x="288" y="108" /><rect fill="#0444b4" height="35" width="35" x="324" y="108" /><rect fill="#0442b4" height="35" width="35" x="360" y="108" /><rect fill="#000000" height="35" width="35" x="396" y="108" /><rect fill="#000000" height="35" width="35" x="432" y="108" /><rect fill="#000000" height="35" width="35" x="468" y="108" /><rect fill="#000000" height="35" width="35" x="504" y="108" /><rect fill="#000000" height="35" width="35" x="540" y="108" /><rect fill="#000000" height="35" width="35" x="0" y="144" /><rect fill="#000000" height="35" width="35" x="36" y="144" /><rect fill="#000000" height="35" width="35" x="72" y="144" /><rect fill="#000000" height="35" width="35" x="108" y="144" /><rect fill="#000000" height="35" width="35" x="144" y="144" /><rect fill="#000000" height="35" width="35" x="180" y="144" /><rect fill="#000000" height="35" width="35" x="216" y="144" /><rect fill="#000000" height="35" width="35" x="252" y="144" /><rect fill="#000000" height="35" width="35" x="288" y="144" /><rect fill="#000000" height="35" width="35" x="324" y="144" /><rect fill="#000000" height="35" width="35" x="360" y="144" /><rect fill="#000000" height="35" width="35" x="396" y="144" /><rect fill="#044cb8" height="35" width="35" x="432" y="144" /><rect fill="#0449b6" height="35" width="35" x="468" y="144" /><rect fill="#000000" height="35" width="35" x="504" y="144" /><rect fill="#000000" height="35" width="35" x="540" y="144" /><rect fill="#000000" height="35" width="35" x="0" y="180" /><rect fill="#000000" height="35" width="35" x="36" y="180" /><rect fill="#000000" height="35" width="35" x="72" y="180" /><rect fill="#000000" height="35" width="35" x="108" y="180" /><rect fill="#000000" height="35" width="35" x="144" y="180" /><rect fill="#000000" height="35" width="35" x="180" y="180" /><rect fill="#000000" height="35" width="35" x="216" y="180" /><rect fill="#000000" height="35" width="35" x="252" y="180" /><rect fill="#044aba" height="35" width="35" x="288" y="180" /><rect fill="#0455bc" height="35" width="35" x="324" y="180" /><rect fill="#044ab8" height="35" width="35" x="360" y="180" /><rect fill="#0456be" height="35" width="35" x="396" y="180" /><rect fill="#0464c4" height="35" width="35" x="432" y="180" /><rect fill="#0458c0" height="35" width="35" x="468" y="180" /><rect fill="#0442b4" height="35" width="35" x="504" y="180" /><rect fill="#000000" height="35" width="35" x="540" y="180" /><rect fill="#000000" height="35" width="35" x="0" y="216" /><rect fill="#000000" height="35" width="35" x="36" y="216" /><rect fill="#000000" height="35" width="35" x="72" y="216" /><rect fill="#000000" height="35" width="35" x="108" y="216" /><rect fill="#000000" height="35" width="35" x="144" y="216" /><rect fill="#000000" height="35" width="35" x="180" y="216" /><rect fill="#000000" height="35" width="35" x="216" y="216" /><rect fill="#044cb8" height="35" width="35" x="252" y="216" /><rect fill="#045ec4" height="35" width="35" x="288" y="216" /><rect fill="#0471cc" height="35" width="35" x="324" y="216" /><rect fill="#0470cc" height="35" width="35" x="360" y="216" /><rect fill="#0472cc" height="35" width="35" x="396" y="216" /><rect fill="#0466c4" height="35" width="35" x="432" y="216" /><rect fill="#0450bc" height="35" width="35" x="468" y="216" /><rect fill="#000000" height="35" width="35" x="504" y="216" /><rect fill="#000000" height="35" width="35" x="540" y="216" /><rect fill="#000000" height="35" width="35" x="0" y="252" /><rect fill="#000000" height="35" width="35" x="36" y="252" /><rect fill="#000000" height="35" width="35" x="72" y="252" /><rect fill="#000000" height="35" width="35" x="108" y="252" /><rect fill="#000000" height="35" width="35" x="144" y="252" /><rect fill="#0441b4" height="35" width="35" x="180" y="252" /><rect fill="#0440b4" height="35" width="35" x="216" y="252" /><rect fill="#044db8" height="35" width="35" x="252" y="252" /><rect fill="#046eca" height="35" width="35" x="288" y="252" /><rect fill="#0c85d4" height="35" width="35" x="324" y="252" /><rect fill="#1c9edc" height="35" width="35" x="360" y="252" /><rect fill="#0c8ed6" height="35" width="35" x="396" y="252" /><rect fill="#0476cc" height="35" width="35" x="432" y="252" /><rect fill="#045cc2" height="35" width="35" x="468" y="252" /><rect fill="#0446b4" height="35" width="35" x="504" y="252" /><rect fill="#000000" height="35" width="35" x="540" y="252" /><rect fill="#000000" height="35" width="35" x="0" y="288" /><rect fill="#000000" height="35" width="35" x="36" y="288" /><rect fill="#044dba" height="35" width="35" x="72" y="288" /><rect fill="#046cca" height="35" width="35" x="108" y="288" /><rect fill="#045ec4" height="35" width="35" x="144" y="288" /><rect fill="#0448b4" height="35" width="35" x="180" y="288" /><rect fill="#0442b4" height="35" width="35" x="216" y="288" /><rect fill="#044cb8" height="35" width="35" x="252" y="288" /><rect fill="#045ac0" height="35" width="35" x="288" y="288" /><rect fill="#087fd0" height="35" width="35" x="324" y="288" /><rect fill="#1298dc" height="35" width="35" x="360" y="288" /><rect fill="#1296dc" height="35" width="35" x="396" y="288" /><rect fill="#0a80d2" height="35" width="35" x="432" y="288" /><rect fill="#0471cc" height="35" width="35" x="468" y="288" /><rect fill="#0451bc" height="35" width="35" x="504" y="288" /><rect fill="#000000" height="35" width="35" x="540" y="288" /><rect fill="#000000" height="35" width="35" x="0" y="324" /><rect fill="#000000" height="35" width="35" x="36" y="324" /><rect fill="#0457be" height="35" width="35" x="72" y="324" /><rect fill="#047bd0" height="35" width="35" x="108" y="324" /><rect fill="#067cd0" height="35" width="35" x="144" y="324" /><rect fill="#0456be" height="35" width="35" x="180" y="324" /><rect fill="#0441b4" height="35" width="35" x="216" y="324" /><rect fill="#044db8" height="35" width="35" x="252" y="324" /><rect fill="#0460c2" height="35" width="35" x="288" y="324" /><rect fill="#046cca" height="35" width="35" x="324" y="324" /><rect fill="#046fca" height="35" width="35" x="360" y="324" /><rect fill="#047acc" height="35" width="35" x="396" y="324" /><rect fill="#0c85d4" height="35" width="35" x="432" y="324" /><rect fill="#149adc" height="35" width="35" x="468" y="324" /><rect fill="#046cca" height="35" width="35" x="504" y="324" /><rect fill="#000000" height="35" width="35" x="540" y="324" /><rect fill="#000000" height="35" width="35" x="0" y="360" /><rect fill="#045ec4" height="35" width="35" x="36" y="360" /><rect fill="#0464c4" height="35" width="35" x="72" y="360" /><rect fill="#0c8cd8" height="35" width="35" x="108" y="360" /><rect fill="#cef5fc" height="35" width="35" x="144" y="360" /><rect fill="#86dff4" height="35" width="35" x="180" y="360" /><rect fill="#0471cc" height="35" width="35" x="216" y="360" /><rect fill="#045ec4" height="35" width="35" x="252" y="360" /><rect fill="#0452bc" height="35" width="35" x="288" y="360" /><rect fill="#0450ba" height="35" width="35" x="324" y="360" /><rect fill="#044cb6" height="35" width="35" x="360" y="360" /><rect fill="#044eba" height="35" width="35" x="396" y="360" /><rect fill="#0467c6" height="35" width="35" x="432" y="360" /><rect fill="#0c89d4" height="35" width="35" x="468" y="360" /><rect fill="#22a9e4" height="35" width="35" x="504" y="360" /><rect fill="#000000" height="35" width="35" x="540" y="360" /><rect fill="#000000" height="35" width="35" x="0" y="396" /><rect fill="#0456bc" height="35" width="35" x="36" y="396" /><rect fill="#046fcc" height="35" width="35" x="72" y="396" /><rect fill="#44c2ec" height="35" width="35" x="108" y="396" /><rect fill="#fcfefc" height="35" width="35" x="144" y="396" /><rect fill="#e4f9fc" height="35" width="35" x="180" y="396" /><rect fill="#64d4f2" height="35" width="35" x="216" y="396" /><rect fill="#0475cc" height="35" width="35" x="252" y="396" /><rect fill="#044bb8" height="35" width="35" x="288" y="396" /><rect fill="#043fb4" height="35" width="35" x="324" y="396" /><rect fill="#000000" height="35" width="35" x="360" y="396" /><rect fill="#0457be" height="35" width="35" x="396" y="396" /><rect fill="#24aae4" height="35" width="35" x="432" y="396" /><rect fill="#9ae6f6" height="35" width="35" x="468" y="396" /><rect fill="#fcfefc" height="35" width="35" x="504" y="396" /><rect fill="#045cc2" height="35" width="35" x="540" y="396" /><rect fill="#000000" height="35" width="35" x="0" y="432" /><rect fill="#000000" height="35" width="35" x="36" y="432" /><rect fill="#0457be" height="35" width="35" x="72" y="432" /><rect fill="#0c87d4" height="35" width="35" x="108" y="432" /><rect fill="#6ed7f4" height="35" width="35" x="144" y="432" /><rect fill="#def7fc" height="35" width="35" x="180" y="432" /><rect fill="#34b8e8" height="35" width="35" x="216" y="432" /><rect fill="#9ce6f4" height="35" width="35" x="252" y="432" /><rect fill="#24aae4" height="35" width="35" x="288" y="432" /><rect fill="#4ac5ec" height="35" width="35" x="324" y="432" /><rect fill="#0c8cd6" height="35" width="35" x="360" y="432" /><rect fill="#d4f6fc" height="35" width="35" x="396" y="432" /><rect fill="#24aae4" height="35" width="35" x="432" y="432" /><rect fill="#54ccec" height="35" width="35" x="468" y="432" /><rect fill="#54cbec" height="35" width="35" x="504" y="432" /><rect fill="#044ab8" height="35" width="35" x="540" y="432" /><rect fill="#0c91da" height="35" width="35" x="0" y="468" /><rect fill="#0475cc" height="35" width="35" x="36" y="468" /><rect fill="#0c8fd8" height="35" width="35" x="72" y="468" /><rect fill="#24aae4" height="35" width="35" x="108" y="468" /><rect fill="#fcfefc" height="35" width="35" x="144" y="468" /><rect fill="#fcfefc" height="35" width="35" x="180" y="468" /><rect fill="#fcfefc" height="35" width="35" x="216" y="468" /><rect fill="#34b8e8" height="35" width="35" x="252" y="468" /><rect fill="#74daf4" height="35" width="35" x="288" y="468" /><rect fill="#fcfefc" height="35" width="35" x="324" y="468" /><rect fill="#fcfefc" height="35" width="35" x="360" y="468" /><rect fill="#fcfefc" height="35" width="35" x="396" y="468" /><rect fill="#a2e9fa" height="35" width="35" x="432" y="468" /><rect fill="#80dff4" height="35" width="35" x="468" y="468" /><rect fill="#067ed4" height="35" width="35" x="504" y="468" /><rect fill="#0453bc" height="35" width="35" x="540" y="468" /><rect fill="#8ae1f4" height="35" width="35" x="0" y="504" /><rect fill="#bcf2fc" height="35" width="35" x="36" y="504" /><rect fill="#24aae4" height="35" width="35" x="72" y="504" /><rect fill="#9ae6f6" height="35" width="35" x="108" y="504" /><rect fill="#fcfefc" height="35" width="35" x="144" y="504" /><rect fill="#fcfefc" height="35" width="35" x="180" y="504" /><rect fill="#fcfefc" height="35" width="35" x="216" y="504" /><rect fill="#fcfefc" height="35" width="35" x="252" y="504" /><rect fill="#e2f9fc" height="35" width="35" x="288" y="504" /><rect fill="#fcfefc" height="35" width="35" x="324" y="504" /><rect fill="#fcfefc" height="35" width="35" x="360" y="504" /><rect fill="#fcfefc" height="35" width="35" x="396" y="504" /><rect fill="#0c8fd6" height="35" width="35" x="432" y="504" /><rect fill="#046ac8" height="35" width="35" x="468" y="504" /><rect fill="#046fcc" height="35" width="35" x="504" y="504" /><rect fill="#000000" height="35" width="35" x="540" y="504" /><rect fill="#fcfefc" height="35" width="35" x="0" y="540" /><rect fill="#fcfefc" height="35" width="35" x="36" y="540" /><rect fill="#fcfefc" height="35" width="35" x="72" y="540" /><rect fill="#e6fafc" height="35" width="35" x="108" y="540" /><rect fill="#7edef4" height="35" width="35" x="144" y="540" /><rect fill="#fcfefc" height="35" width="35" x="180" y="540" /><rect fill="#fcfefc" height="35" width="35" x="216" y="540" /><rect fill="#1ea7e4" height="35" width="35" x="252" y="540" /><rect fill="#fcfefc" height="35" width="35" x="288" y="540" /><rect fill="#fcfefc" height="35" width="35" x="324" y="540" /><rect fill="#fcfefc" height="35" width="35" x="360" y="540" /><rect fill="#2ab0e4" height="35" width="35" x="396" y="540" /><rect fill="#0467c6" height="35" width="35" x="432" y="540" /><rect fill="#044ab8" height="35" width="35" x="468" y="540" /><rect fill="#044bb6" height="35" width="35" x="504" y="540" /><rect fill="#000000" height="35" width="35" x="540" y="540" /></svg>