<?xml version="1.0" encoding="utf-8" ?>
<svg baseProfile="tiny" height="575" version="1.2" width="575" xmlns="http://www.w3.org/2000/svg" xmlns:ev="http://www.w3.org/2001/xml-events" xmlns:xlink="http://www.w3.org/1999/xlink"><defs /><rect fill="#000000" height="35" width="35" x="0" y="0" /><rect fill="#000000" height="35" width="35" x="36" y="0" /><rect fill="#000000" height="35" width="35" x="72" y="0" /><rect fill="#000000" height="35" width="35" x="108" y="0" /><rect fill="#000000" height="35" width="35" x="144" y="0" /><rect fill="#000000" height="35" width="35" x="180" y="0" /><rect fill="#000000" height="35" width="35" x="216" y="0" /><rect fill="#000000" height="35" width="35" x="252" y="0" /><rect fill="#000000" height="35" width="35" x="288" y="0" /><rect fill="#000000" height="35" width="35" x="324" y="0" /><rect fill="#000000" height="35" width="35" x="360" y="0" /><rect fill="#000000" height="35" width="35" x="396" y="0" /><rect fill="#000000" height="35" width="35" x="432" y="0" /><rect fill="#000000" height="35" width="35" x="468" y="0" /><rect fill="#000000" height="35" width="35" x="504" y="0" /><rect fill="#000000" height="35" width="35" x="540" y="0" /><rect fill="#000000" height="35" width="35" x="0" y="36" /><rect fill="#000000" height="35" width="35" x="36" y="36" /><rect fill="#000000" height="35" width="35" x="72" y="36" /><rect fill="#000000" height="35" width="35" x="108" y="36" /><rect fill="#000000" height="35" width="35" x="144" y="36" /><rect fill="#000000" height="35" width="35" x="180" y="36" /><rect fill="#000000" height="35" width="35" x="216" y="36" /><rect fill="#000000" height="35" width="35" x="252" y="36" /><rect fill="#000000" height="35" width="35" x="288" y="36" /><rect fill="#000000" height="35" width="35" x="324" y="36" /><rect fill="#000000" height="35" width="35" x="360" y="36" /><rect fill="#000000" height="35" width="35" x="396" y="36" /><rect fill="#000000" height="35" width="35" x="432" y="36" /><rect fill="#000000" height="35" width="35" x="468" y="36" /><rect fill="#000000" height="35" width="35" x="504" y="36" /><rect fill="#000000" height="35" width="35" x="540" y="36" /><rect fill="#000000" height="35" width="35" x="0" y="72" /><rect fill="#000000" height="35" width="35" x="36" y="72" /><rect fill="#000000" height="35" width="35" x="72" y="72" /><rect fill="#000000" height="35" width="35" x="108" y="72" /><rect fill="#000000" height="35" width="35" x="144" y="72" /><rect fill="#000000" height="35" width="35" x="180" y="72" /><rect fill="#000000" height="35" width="35" x="216" y="72" /><rect fill="#000000" height="35" width="35" x="252" y="72" /><rect fill="#000000" height="35" width="35" x="288" y="72" /><rect fill="#000000" height="35" width="35" x="324" y="72" /><rect fill="#000000" height="35" width="35" x="360" y="72" /><rect fill="#000000" height="35" width="35" x="396" y="72" /><rect fill="#000000" height="35" width="35" x="432" y="72" /><rect fill="#000000" height="35" width="35" x="468" y="72" /><rect fill="#000000" height="35" width="35" x="504" y="72" /><rect fill="#000000" height="35" width="35" x="540" y="72" /><rect fill="#000000" height="35" width="35" x="0" y="108" /><rect fill="#000000" height="35" width="35" x="36" y="108" /><rect fill="#000000" height="35" width="35" x="72" y="108" /><rect fill="#000000" height="35" width="35" x="108" y="108" /><rect fill="#000000" height="35" width="35" x="144" y="108" /><rect fill="#000000" height="35" width="35" x="180" y="108" /><rect fill="#000000" height="35" width="35" x="216" y="108" /><rect fill="#000000" height="35" width="35" x="252" y="108" /><rect fill="#000000" height="35" width="35" x="288" y="108" /><rect fill="#000000" height="35" width="35" x="324" y="108" /><rect fill="#000000" height="35" width="35" x="360" y="108" /><rect fill="#000000" height="35" width="35" x="396" y="108" /><rect fill="#000000" height="35" width="35" x="432" y="108" /><rect fill="#000000" height="35" width="35" x="468" y="108" /><rect fill="#000000" height="35" width="35" x="504" y="108" /><rect fill="#000000" height="35" width="35" x="540" y="108" /><rect fill="#000000" height="35" width="35" x="0" y="144" /><rect fill="#000000" height="35" width="35" x="36" y="144" /><rect fill="#000000" height="35" width="35" x="72" y="144" /><rect fill="#000000" height="35" width="35" x="108" y="144" /><rect fill="#000000" height="35" width="35" x="144" y="144" /><rect fill="#000000" height="35" width="35" x="180" y="144" /><rect fill="#000000" height="35" width="35" x="216" y="144" /><rect fill="#000000" height="35" width="35" x="252" y="144" /><rect fill="#0442b4" height="35" width="35" x="288" y="144" /><rect fill="#000000" height="35" width="35" x="324" y="144" /><rect fill="#000000" height="35" width="35" x="360" y="144" /><rect fill="#000000" height="35" width="35" x="396" y="144" /><rect fill="#000000" height="35" width="35" x="432" y="144" /><rect fill="#000000" height="35" width="35" x="468" y="144" /><rect fill="#000000" height="35" width="35" x="504" y="144" /><rect fill="#000000" height="35" width="35" x="540" y="144" /><rect fill="#000000" height="35" width="35" x="0" y="180" /><rect fill="#000000" height="35" width="35" x="36" y="180" /><rect fill="#000000" height="35" width="35" x="72" y="180" /><rect fill="#000000" height="35" width="35" x="108" y="180" /><rect fill="#000000" height="35" width="35" x="144" y="180" /><rect fill="#000000" height="35" width="35" x="180" y="180" /><rect fill="#000000" height="35" width="35" x="216" y="180" /><rect fill="#000000" height="35" width="35" x="252" y="180" /><rect fill="#0446b4" height="35" width="35" x="288" y="180" /><rect fill="#0446b4" height="35" width="35" x="324" y="180" /><rect fill="#000000" height="35" width="35" x="360" y="180" /><rect fill="#000000" height="35" width="35" x="396" y="180" /><rect fill="#045ac0" height="35" width="35" x="432" y="180" /><rect fill="#0446b4" height="35" width="35" x="468" y="180" /><rect fill="#000000" height="35" width="35" x="504" y="180" /><rect fill="#000000" height="35" width="35" x="540" y="180" /><rect fill="#000000" height="35" width="35" x="0" y="216" /><rect fill="#000000" height="35" width="35" x="36" y="216" /><rect fill="#000000" height="35" width="35" x="72" y="216" /><rect fill="#000000" height="35" width="35" x="108" y="216" /><rect fill="#000000" height="35" width="35" x="144" y="216" /><rect fill="#000000" height="35" width="35" x="180" y="216" /><rect fill="#000000" height="35" width="35" x="216" y="216" /><rect fill="#000000" height="35" width="35" x="252" y="216" /><rect fill="#044cba" height="35" width="35" x="288" y="216" /><rect fill="#045fc2" height="35" width="35" x="324" y="216" /><rect fill="#0447b6" height="35" width="35" x="360" y="216" /><rect fill="#0447b6" height="35" width="35" x="396" y="216" /><rect fill="#0464c4" height="35" width="35" x="432" y="216" /><rect fill="#0454bc" height="35" width="35" x="468" y="216" /><rect fill="#000000" height="35" width="35" x="504" y="216" /><rect fill="#000000" height="35" width="35" x="540" y="216" /><rect fill="#000000" height="35" width="35" x="0" y="252" /><rect fill="#000000" height="35" width="35" x="36" y="252" /><rect fill="#0442b4" height="35" width="35" x="72" y="252" /><rect fill="#000000" height="35" width="35" x="108" y="252" /><rect fill="#000000" height="35" width="35" x="144" y="252" /><rect fill="#000000" height="35" width="35" x="180" y="252" /><rect fill="#000000" height="35" width="35" x="216" y="252" /><rect fill="#045fc4" height="35" width="35" x="252" y="252" /><rect fill="#0476cc" height="35" width="35" x="288" y="252" /><rect fill="#0457be" height="35" width="35" x="324" y="252" /><rect fill="#045ec2" height="35" width="35" x="360" y="252" /><rect fill="#0464c4" height="35" width="35" x="396" y="252" /><rect fill="#0469c6" height="35" width="35" x="432" y="252" /><rect fill="#046cc8" height="35" width="35" x="468" y="252" /><rect fill="#044ab8" height="35" width="35" x="504" y="252" /><rect fill="#000000" height="35" width="35" x="540" y="252" /><rect fill="#000000" height="35" width="35" x="0" y="288" /><rect fill="#000000" height="35" width="35" x="36" y="288" /><rect fill="#044ebc" height="35" width="35" x="72" y="288" /><rect fill="#046bc8" height="35" width="35" x="108" y="288" /><rect fill="#0c8ad4" height="35" width="35" x="144" y="288" /><rect fill="#000000" height="35" width="35" x="180" y="288" /><rect fill="#045ec2" height="35" width="35" x="216" y="288" /><rect fill="#30b8e6" height="35" width="35" x="252" y="288" /><rect fill="#149cdc" height="35" width="35" x="288" y="288" /><rect fill="#0c88d4" height="35" width="35" x="324" y="288" /><rect fill="#0c87d4" height="35" width="35" x="360" y="288" /><rect fill="#0447b6" height="35" width="35" x="396" y="288" /><rect fill="#0457be" height="35" width="35" x="432" y="288" /><rect fill="#046ac6" height="35" width="35" x="468" y="288" /><rect fill="#046cc8" height="35" width="35" x="504" y="288" /><rect fill="#000000" height="35" width="35" x="540" y="288" /><rect fill="#000000" height="35" width="35" x="0" y="324" /><rect fill="#0442b4" height="35" width="35" x="36" y="324" /><rect fill="#045bc0" height="35" width="35" x="72" y="324" /><rect fill="#0c8ad4" height="35" width="35" x="108" y="324" /><rect fill="#046bc8" height="35" width="35" x="144" y="324" /><rect fill="#0c8ad4" height="35" width="35" x="180" y="324" /><rect fill="#1293da" height="35" width="35" x="216" y="324" /><rect fill="#149cdc" height="35" width="35" x="252" y="324" /><rect fill="#30b8e6" height="35" width="35" x="288" y="324" /><rect fill="#a0e9f8" height="35" width="35" x="324" y="324" /><rect fill="#84e1f4" height="35" width="35" x="360" y="324" /><rect fill="#0c88d4" height="35" width="35" x="396" y="324" /><rect fill="#24aae4" height="35" width="35" x="432" y="324" /><rect fill="#0c88d4" height="35" width="35" x="468" y="324" /><rect fill="#046ac8" height="35" width="35" x="504" y="324" /><rect fill="#000000" height="35" width="35" x="540" y="324" /><rect fill="#000000" height="35" width="35" x="0" y="360" /><rect fill="#18a0dc" height="35" width="35" x="36" y="360" /><rect fill="#044cba" height="35" width="35" x="72" y="360" /><rect fill="#149ddc" height="35" width="35" x="108" y="360" /><rect fill="#0c8ad4" height="35" width="35" x="144" y="360" /><rect fill="#046bc8" height="35" width="35" x="180" y="360" /><rect fill="#149cdc" height="35" width="35" x="216" y="360" /><rect fill="#149cdc" height="35" width="35" x="252" y="360" /><rect fill="#a0e9fa" height="35" width="35" x="288" y="360" /><rect fill="#fcfefc" height="35" width="35" x="324" y="360" /><rect fill="#a0e9f8" height="35" width="35" x="360" y="360" /><rect fill="#1499dc" height="35" width="35" x="396" y="360" /><rect fill="#0c88d4" height="35" width="35" x="432" y="360" /><rect fill="#18a1de" height="35" width="35" x="468" y="360" /><rect fill="#0c88d4" height="35" width="35" x="504" y="360" /><rect fill="#000000" height="35" width="35" x="540" y="360" /><rect fill="#0446b4" height="35" width="35" x="0" y="396" /><rect fill="#1496dc" height="35" width="35" x="36" y="396" /><rect fill="#18a1de" height="35" width="35" x="72" y="396" /><rect fill="#0c8ad4" height="35" width="35" x="108" y="396" /><rect fill="#30b8e6" height="35" width="35" x="144" y="396" /><rect fill="#149cdc" height="35" width="35" x="180" y="396" /><rect fill="#149cdc" height="35" width="35" x="216" y="396" /><rect fill="#30b8e6" height="35" width="35" x="252" y="396" /><rect fill="#a4eaf8" height="35" width="35" x="288" y="396" /><rect fill="#a4eaf8" height="35" width="35" x="324" y="396" /><rect fill="#fcfefc" height="35" width="35" x="360" y="396" /><rect fill="#84e0f4" height="35" width="35" x="396" y="396" /><rect fill="#2cb6e4" height="35" width="35" x="432" y="396" /><rect fill="#1ca4e0" height="35" width="35" x="468" y="396" /><rect fill="#046ac6" height="35" width="35" x="504" y="396" /><rect fill="#000000" height="35" width="35" x="540" y="396" /><rect fill="#58cef0" height="35" width="35" x="0" y="432" /><rect fill="#fcfefc" height="35" width="35" x="36" y="432" /><rect fill="#3cbeec" height="35" width="35" x="72" y="432" /><rect fill="#3cbeec" height="35" width="35" x="108" y="432" /><rect fill="#7adcf4" height="35" width="35" x="144" y="432" /><rect fill="#4ccaec" height="35" width="35" x="180" y="432" /><rect fill="#2eb6e4" height="35" width="35" x="216" y="432" /><rect fill="#169dde" height="35" width="35" x="252" y="432" /><rect fill="#82def4" height="35" width="35" x="288" y="432" /><rect fill="#fcfefc" height="35" width="35" x="324" y="432" /><rect fill="#fcfefc" height="35" width="35" x="360" y="432" /><rect fill="#84e0f4" height="35" width="35" x="396" y="432" /><rect fill="#0c87d4" height="35" width="35" x="432" y="432" /><rect fill="#0464c6" height="35" width="35" x="468" y="432" /><rect fill="#0457be" height="35" width="35" x="504" y="432" /><rect fill="#000000" height="35" width="35" x="540" y="432" /><rect fill="#149adc" height="35" width="35" x="0" y="468" /><rect fill="#94e3f4" height="35" width="35" x="36" y="468" /><rect fill="#74daf4" height="35" width="35" x="72" y="468" /><rect fill="#52cdec" height="35" width="35" x="108" y="468" /><rect fill="#48c7ec" height="35" width="35" x="144" y="468" /><rect fill="#fcfefc" height="35" width="35" x="180" y="468" /><rect fill="#a4eafa" height="35" width="35" x="216" y="468" /><rect fill="#a0e8f8" height="35" width="35" x="252" y="468" /><rect fill="#5cd0f0" height="35" width="35" x="288" y="468" /><rect fill="#a4eaf8" height="35" width="35" x="324" y="468" /><rect fill="#a0e9f6" height="35" width="35" x="360" y="468" /><rect fill="#1497dc" height="35" width="35" x="396" y="468" /><rect fill="#045fc4" height="35" width="35" x="432" y="468" /><rect fill="#0c87d4" height="35" width="35" x="468" y="468" /><rect fill="#0457be" height="35" width="35" x="504" y="468" /><rect fill="#000000" height="35" width="35" x="540" y="468" /><rect fill="#0c88d4" height="35" width="35" x="0" y="504" /><rect fill="#fcfefc" height="35" width="35" x="36" y="504" /><rect fill="#3cbeec" height="35" width="35" x="72" y="504" /><rect fill="#0467c4" height="35" width="35" x="108" y="504" /><rect fill="#0c87d4" height="35" width="35" x="144" y="504" /><rect fill="#a4eaf8" height="35" width="35" x="180" y="504" /><rect fill="#a4eaf8" height="35" width="35" x="216" y="504" /><rect fill="#fcfefc" height="35" width="35" x="252" y="504" /><rect fill="#a4eaf8" height="35" width="35" x="288" y="504" /><rect fill="#60d1f2" height="35" width="35" x="324" y="504" /><rect fill="#a0e8f8" height="35" width="35" x="360" y="504" /><rect fill="#30b8e6" height="35" width="35" x="396" y="504" /><rect fill="#b0edfa" height="35" width="35" x="432" y="504" /><rect fill="#b0edfa" height="35" width="35" x="468" y="504" /><rect fill="#30b8e6" height="35" width="35" x="504" y="504" /><rect fill="#000000" height="35" width="35" x="540" y="504" /><rect fill="#90e3f4" height="35" width="35" x="0" y="540" /><rect fill="#7cdcf4" height="35" width="35" x="36" y="540" /><rect fill="#7cdcf4" height="35" width="35" x="72" y="540" /><rect fill="#149adc" height="35" width="35" x="108" y="540" /><rect fill="#48c7ec" height="35" width="35" x="144" y="540" /><rect fill="#a4eafa" height="35" width="35" x="180" y="540" /><rect fill="#fcfefc" height="35" width="35" x="216" y="540" /><rect fill="#a4eaf8" height="35" width="35" x="252" y="540" /><rect fill="#6ed7f4" height="35" width="35" x="288" y="540" /><rect fill="#0c8ad4" height="35" width="35" x="324" y="540" /><rect fill="#fcfefc" height="35" width="35" x="360" y="540" /><rect fill="#acecfa" height="35" width="35" x="396" y="540" /><rect fill="#84e0f4" height="35" width="35" x="432" y="540" /><rect fill="#30b8e6" height="35" width="35" x="468" y="540" /><rect fill="#b0edfa" height="35" width="35" x="504" y="540" /><rect fill="#0c87d4" height="35" width="35" x="540" y="540" /></svg>